<?xml version="1.0" encoding="utf-8"?>
<!-- Generator: Adobe Illustrator 16.0.0, SVG Export Plug-In . SVG Version: 6.00 Build 0)  -->
<!DOCTYPE svg PUBLIC "-//W3C//DTD SVG 1.1//EN" "http://www.w3.org/Graphics/SVG/1.1/DTD/svg11.dtd">
<svg version="1.1" id="Layer_1" xmlns="http://www.w3.org/2000/svg" xmlns:xlink="http://www.w3.org/1999/xlink" x="0px" y="0px"
	 width="78.988px" height="57.987px" viewBox="0 0 78.988 57.987" enable-background="new 0 0 78.988 57.987" xml:space="preserve">
<g>
	<g>
		<path fill="#84A2CD" d="M78.988,51.312c0,3.688-2.988,6.676-6.676,6.676H6.676C2.989,57.987,0,54.999,0,51.312V6.676
			C0,2.989,2.989,0,6.676,0h65.636C76,0,78.988,2.989,78.988,6.676V51.312z"/>
		<rect y="23.247" fill="#1B446B" width="11.496" height="11.494"/>
		<rect x="67.492" y="23.247" fill="#1B446B" width="11.496" height="11.494"/>
	</g>
</g>
<g>
	<path fill="#1B446B" d="M31.071,32.495h0.164c0.369,0,0.651,0.098,0.846,0.293c0.195,0.193,0.292,0.473,0.292,0.835
		c0,0.396-0.101,0.683-0.302,0.856c-0.202,0.174-0.535,0.262-1,0.262h-0.964c-0.342,0-0.597-0.065-0.764-0.195
		c-0.168-0.13-0.306-0.365-0.416-0.707c-0.567,0.375-1.169,0.662-1.805,0.861c-0.636,0.197-1.278,0.297-1.928,0.297
		c-1.101,0-1.965-0.273-2.594-0.82s-0.943-1.295-0.943-2.246c0-1.025,0.407-1.821,1.22-2.389s1.955-0.851,3.425-0.851
		c0.328,0,0.677,0.017,1.046,0.051s0.783,0.089,1.241,0.164v-0.195c0-0.615-0.148-1.083-0.446-1.405
		c-0.297-0.321-0.736-0.482-1.317-0.482c-0.451,0-1.027,0.167-1.728,0.502c-0.701,0.335-1.215,0.502-1.543,0.502
		c-0.321,0-0.581-0.094-0.779-0.282c-0.198-0.188-0.297-0.436-0.297-0.743c0-0.554,0.405-0.993,1.215-1.317
		C24.503,25.162,25.605,25,27,25c1.456,0,2.499,0.28,3.127,0.841s0.943,1.511,0.943,2.851V32.495z M28.589,30.517
		c-0.342-0.076-0.656-0.132-0.943-0.17c-0.287-0.037-0.554-0.057-0.8-0.057c-0.752,0-1.342,0.127-1.769,0.38
		c-0.428,0.253-0.641,0.602-0.641,1.046c0,0.396,0.137,0.699,0.41,0.908c0.273,0.208,0.667,0.312,1.179,0.312
		c0.472,0,0.916-0.068,1.333-0.205s0.827-0.35,1.23-0.637V30.517z"/>
	<path fill="#1B446B" d="M37.644,26.189c0.328-0.287,0.718-0.513,1.169-0.677s0.923-0.246,1.416-0.246c1.422,0,2.585,0.47,3.49,1.41
		c0.906,0.94,1.359,2.145,1.359,3.614c0,1.34-0.461,2.46-1.385,3.359c-0.922,0.898-2.084,1.348-3.486,1.348
		c-0.663,0-1.239-0.115-1.727-0.344c-0.489-0.229-0.887-0.572-1.195-1.03V34.3c0,0.137-0.053,0.244-0.159,0.322
		c-0.106,0.08-0.255,0.119-0.446,0.119h-1.579c-0.465,0-0.795-0.088-0.989-0.262c-0.195-0.174-0.292-0.467-0.292-0.877
		c0-0.362,0.094-0.637,0.282-0.826c0.188-0.188,0.467-0.281,0.836-0.281h0.164v-8.9h-0.164c-0.369,0-0.651-0.097-0.846-0.292
		c-0.195-0.194-0.292-0.477-0.292-0.846c0-0.403,0.099-0.694,0.297-0.872s0.533-0.267,1.005-0.267h1.917
		c0.219,0,0.377,0.053,0.477,0.159c0.099,0.106,0.148,0.279,0.148,0.518V26.189z M39.91,27.45c-0.67,0-1.225,0.251-1.667,0.753
		c-0.44,0.503-0.661,1.14-0.661,1.913c0,0.793,0.219,1.441,0.656,1.943s0.995,0.754,1.671,0.754s1.236-0.254,1.676-0.76
		c0.441-0.506,0.662-1.151,0.662-1.938c0-0.766-0.223-1.401-0.666-1.907C41.136,27.703,40.58,27.45,39.91,27.45z"/>
	<path fill="#1B446B" d="M49.384,34.597c-0.178,0.137-0.361,0.242-0.549,0.312c-0.188,0.072-0.381,0.108-0.579,0.108
		c-0.294,0-0.501-0.079-0.62-0.235c-0.12-0.158-0.18-0.451-0.18-0.883v-1.363c0-0.451,0.075-0.771,0.226-0.959
		c0.15-0.188,0.41-0.281,0.779-0.281c0.403,0,0.731,0.194,0.984,0.584c0.15,0.212,0.276,0.369,0.38,0.472
		c0.334,0.301,0.725,0.526,1.168,0.677c0.445,0.15,0.951,0.226,1.518,0.226c0.492,0,0.886-0.096,1.18-0.287s0.441-0.44,0.441-0.749
		c0-0.553-0.79-0.936-2.369-1.148c-0.349-0.041-0.622-0.078-0.82-0.112c-1.189-0.164-2.074-0.487-2.656-0.97
		c-0.58-0.481-0.871-1.129-0.871-1.942c0-0.964,0.349-1.709,1.046-2.235s1.692-0.79,2.983-0.79c0.445,0,0.9,0.036,1.369,0.107
		c0.469,0.072,0.949,0.183,1.441,0.333c0.143-0.171,0.295-0.297,0.456-0.379c0.16-0.082,0.34-0.123,0.538-0.123
		c0.28,0,0.494,0.087,0.641,0.262c0.146,0.174,0.221,0.436,0.221,0.784v1.261c0,0.294-0.075,0.521-0.226,0.682
		s-0.362,0.241-0.636,0.241c-0.28,0-0.761-0.244-1.44-0.733c-0.681-0.489-1.362-0.733-2.046-0.733c-0.533,0-0.947,0.087-1.24,0.262
		c-0.295,0.174-0.441,0.415-0.441,0.723c0,0.479,0.615,0.8,1.846,0.964c0.355,0.041,0.636,0.075,0.841,0.103
		c1.545,0.226,2.606,0.562,3.184,1.01c0.577,0.449,0.866,1.113,0.866,1.995c0,1.032-0.381,1.831-1.143,2.394
		c-0.763,0.564-1.844,0.847-3.246,0.847c-0.547,0-1.072-0.036-1.578-0.108C50.345,34.839,49.856,34.733,49.384,34.597z"/>
</g>
</svg>
