<?xml version="1.0" encoding="utf-8"?>
<!-- Generator: Adobe Illustrator 16.0.0, SVG Export Plug-In . SVG Version: 6.00 Build 0)  -->
<!DOCTYPE svg PUBLIC "-//W3C//DTD SVG 1.1//EN" "http://www.w3.org/Graphics/SVG/1.1/DTD/svg11.dtd">
<svg version="1.1" id="Layer_1" xmlns="http://www.w3.org/2000/svg" xmlns:xlink="http://www.w3.org/1999/xlink" x="0px" y="0px"
	 width="57.986px" height="57.988px" viewBox="0 0 57.986 57.988" enable-background="new 0 0 57.986 57.988" xml:space="preserve">
<g>
	<g>
		<path fill="#46B7BE" d="M57.987,51.311c0,3.688-2.987,6.678-6.676,6.678H6.676C2.989,57.988,0,54.999,0,51.311V6.676
			C0,2.989,2.989,0,6.676,0h44.636C55,0,57.988,2.989,57.988,6.676L57.987,51.311L57.987,51.311z"/>
		<g>
			<path fill="#0C5657" d="M30.889,27.008h5.836c0.551,0,1.005,0.167,1.362,0.501c0.356,0.334,0.536,0.765,0.536,1.292
				c0,0.527-0.18,0.961-0.536,1.301c-0.357,0.34-0.812,0.511-1.362,0.511h-5.836v6.081c0,0.552-0.173,1.006-0.519,1.363
				c-0.347,0.356-0.788,0.535-1.327,0.535c-0.504,0-0.936-0.188-1.292-0.562c-0.357-0.374-0.536-0.82-0.536-1.337v-6.081h-5.836
				c-0.551,0-1.005-0.171-1.362-0.511c-0.356-0.34-0.536-0.772-0.536-1.301c0-0.492,0.186-0.914,0.555-1.266
				c0.368-0.352,0.816-0.527,1.345-0.527h5.836v-6.082c0-0.562,0.17-1.021,0.51-1.38c0.34-0.358,0.779-0.536,1.318-0.536
				s0.98,0.182,1.327,0.545c0.346,0.363,0.519,0.82,0.519,1.371L30.889,27.008L30.889,27.008z"/>
		</g>
	</g>
</g>
</svg>
