<?xml version="1.0" encoding="utf-8"?>
<!-- Generator: Adobe Illustrator 16.0.0, SVG Export Plug-In . SVG Version: 6.00 Build 0)  -->
<!DOCTYPE svg PUBLIC "-//W3C//DTD SVG 1.1//EN" "http://www.w3.org/Graphics/SVG/1.1/DTD/svg11.dtd">
<svg version="1.1" id="Layer_1" xmlns="http://www.w3.org/2000/svg" xmlns:xlink="http://www.w3.org/1999/xlink" x="0px" y="0px"
	 width="82px" height="54px" viewBox="0 0 82 54" enable-background="new 0 0 82 54" xml:space="preserve">
<g>
	<path fill="#46B7BE" d="M82,45.496C82,50.191,78.191,54,73.496,54H8.504C3.807,54,0,50.191,0,45.496V8.504C0,3.807,3.807,0,8.504,0
		h64.992C78.191,0,82,3.807,82,8.504V45.496z"/>
	<g>
		<g>
			<path fill="#0C5657" d="M29.027,18.64c0.176-0.047,0.316-0.079,0.422-0.097c0.106-0.018,0.205-0.026,0.299-0.026
				c0.375,0,0.688,0.149,0.94,0.448c0.252,0.299,0.378,0.677,0.378,1.134c0,0.598-0.196,1.128-0.589,1.591s-0.829,0.694-1.31,0.694
				c-0.328,0-0.858-0.217-1.591-0.65s-1.321-0.65-1.767-0.65c-0.422,0-0.762,0.117-1.02,0.352c-0.258,0.235-0.387,0.551-0.387,0.949
				c0,0.492,0.252,1.09,0.756,1.793c0.105,0.117,0.182,0.211,0.229,0.281l4.201,5.906c0.141-0.41,0.299-0.949,0.475-1.617
				c0.375-1.465,1.025-2.197,1.951-2.197h0.633h0.721c0.363,0,0.671,0.164,0.923,0.492s0.378,0.738,0.378,1.23
				c0,0.539-0.129,0.951-0.387,1.238c-0.258,0.287-0.668,0.479-1.229,0.571c-0.117,0.646-0.281,1.245-0.492,1.802
				s-0.48,1.081-0.809,1.573l0.896,1.09h0.299c0.492,0,0.867,0.132,1.125,0.396c0.258,0.265,0.387,0.647,0.387,1.151
				c0,0.527-0.155,0.936-0.466,1.222c-0.311,0.287-0.759,0.432-1.345,0.432H31.26c-0.387,0-0.677-0.038-0.87-0.114
				c-0.193-0.075-0.36-0.208-0.501-0.396l-0.545-0.721c-0.75,0.562-1.611,1.004-2.584,1.326c-0.973,0.322-1.945,0.483-2.918,0.483
				c-1.758,0-3.193-0.513-4.307-1.538c-1.114-1.025-1.67-2.341-1.67-3.946c0-1.301,0.305-2.448,0.914-3.444
				c0.609-0.996,1.611-1.97,3.006-2.918l-0.967-1.547c-0.258-0.398-0.46-0.858-0.606-1.38c-0.146-0.521-0.22-1.021-0.22-1.503
				c0-1.406,0.478-2.508,1.433-3.305c0.955-0.797,2.288-1.195,3.999-1.195c0.691,0,1.321,0.085,1.89,0.255
				C27.883,17.975,28.453,18.253,29.027,18.64z M23.912,29.257c-0.586,0.363-1.022,0.765-1.31,1.204s-0.431,0.936-0.431,1.485
				c0,0.75,0.255,1.377,0.765,1.881s1.146,0.756,1.907,0.756c0.375,0,0.756-0.076,1.143-0.229c0.387-0.152,0.797-0.387,1.23-0.703
				L23.912,29.257z"/>
			<path fill="#0C5657" d="M50.631,18.64c0.176-0.047,0.316-0.079,0.422-0.097c0.106-0.018,0.205-0.026,0.299-0.026
				c0.375,0,0.688,0.149,0.94,0.448c0.252,0.299,0.378,0.677,0.378,1.134c0,0.598-0.195,1.128-0.589,1.591s-0.829,0.694-1.31,0.694
				c-0.328,0-0.858-0.217-1.592-0.65c-0.732-0.433-1.32-0.65-1.767-0.65c-0.423,0-0.763,0.117-1.021,0.352s-0.387,0.551-0.387,0.949
				c0,0.492,0.252,1.09,0.756,1.793c0.105,0.117,0.182,0.211,0.229,0.281l4.201,5.906c0.142-0.41,0.299-0.949,0.476-1.617
				c0.375-1.465,1.024-2.197,1.951-2.197h0.633h0.722c0.362,0,0.67,0.164,0.922,0.492s0.379,0.738,0.379,1.23
				c0,0.539-0.129,0.951-0.387,1.238c-0.259,0.287-0.668,0.479-1.23,0.571c-0.117,0.646-0.281,1.245-0.492,1.802
				s-0.48,1.081-0.809,1.573l0.896,1.09h0.299c0.492,0,0.867,0.132,1.125,0.396c0.259,0.265,0.388,0.647,0.388,1.151
				c0,0.527-0.156,0.936-0.467,1.222c-0.311,0.287-0.759,0.432-1.345,0.432h-1.39c-0.387,0-0.676-0.038-0.869-0.114
				c-0.193-0.075-0.36-0.208-0.502-0.396l-0.545-0.721c-0.75,0.562-1.61,1.004-2.584,1.326c-0.973,0.322-1.944,0.483-2.918,0.483
				c-1.758,0-3.192-0.513-4.306-1.538c-1.114-1.025-1.67-2.341-1.67-3.946c0-1.301,0.305-2.448,0.914-3.444s1.611-1.97,3.006-2.918
				l-0.967-1.547c-0.258-0.398-0.46-0.858-0.605-1.38c-0.146-0.521-0.221-1.021-0.221-1.503c0-1.406,0.479-2.508,1.434-3.305
				s2.287-1.195,3.998-1.195c0.691,0,1.322,0.085,1.891,0.255C49.484,17.975,50.057,18.253,50.631,18.64z M45.516,29.257
				c-0.586,0.363-1.021,0.765-1.31,1.204s-0.431,0.936-0.431,1.485c0,0.75,0.254,1.377,0.765,1.881
				c0.51,0.504,1.146,0.756,1.907,0.756c0.375,0,0.756-0.076,1.143-0.229c0.387-0.152,0.797-0.387,1.23-0.703L45.516,29.257z"/>
		</g>
	</g>
</g>
</svg>
