<?xml version="1.0" encoding="utf-8"?>
<!-- Generator: Adobe Illustrator 16.0.0, SVG Export Plug-In . SVG Version: 6.00 Build 0)  -->
<!DOCTYPE svg PUBLIC "-//W3C//DTD SVG 1.1//EN" "http://www.w3.org/Graphics/SVG/1.1/DTD/svg11.dtd">
<svg version="1.1" id="Layer_1" xmlns="http://www.w3.org/2000/svg" xmlns:xlink="http://www.w3.org/1999/xlink" x="0px" y="0px"
	 width="82px" height="54px" viewBox="0 0 82 54" enable-background="new 0 0 82 54" xml:space="preserve">
<g>
	<path fill="#46B7BE" d="M82,45.496C82,50.193,78.193,54,73.496,54H8.504C3.808,54,0,50.193,0,45.496V8.504C0,3.807,3.808,0,8.504,0
		h64.992C78.193,0,82,3.807,82,8.504V45.496z"/>
	<g>
		<path fill="#0C5657" d="M28.424,26.882L16.963,21.45c-0.621-0.305-1.062-0.612-1.326-0.923c-0.264-0.311-0.396-0.677-0.396-1.099
			c0-0.492,0.146-0.891,0.439-1.195s0.686-0.457,1.178-0.457c0.188,0,0.402,0.035,0.643,0.105c0.241,0.07,0.582,0.205,1.027,0.404
			l13.922,6.504l0.141,0.088c1.301,0.598,1.951,1.289,1.951,2.074s-0.627,1.459-1.881,2.021c-0.117,0.069-0.211,0.116-0.281,0.141
			l-13.904,6.381c-0.352,0.164-0.652,0.281-0.904,0.352c-0.252,0.071-0.49,0.105-0.713,0.105c-0.492,0-0.885-0.149-1.178-0.448
			s-0.439-0.7-0.439-1.204c0-0.422,0.127-0.781,0.379-1.081c0.252-0.299,0.699-0.601,1.344-0.905L28.424,26.882z"/>
		<path fill="#0C5657" d="M38.18,22.136h15.732c0.504,0,0.9,0.161,1.188,0.483c0.289,0.322,0.43,0.759,0.43,1.31
			c0,0.562-0.143,1.005-0.43,1.327c-0.287,0.322-0.684,0.483-1.188,0.483H38.18c-0.504,0-0.904-0.161-1.203-0.483
			c-0.299-0.322-0.449-0.765-0.449-1.327c0-0.551,0.15-0.987,0.449-1.31C37.276,22.296,37.676,22.136,38.18,22.136z M38.18,28.042
			h15.732c0.492,0,0.885,0.161,1.178,0.483s0.439,0.759,0.439,1.31c0,0.562-0.143,1.005-0.43,1.327s-0.685,0.482-1.188,0.482H38.18
			c-0.504,0-0.904-0.164-1.203-0.492c-0.299-0.327-0.449-0.768-0.449-1.317c0-0.539,0.15-0.974,0.449-1.301
			C37.276,28.206,37.676,28.042,38.18,28.042z"/>
	</g>
</g>
</svg>
