<?xml version="1.0" encoding="utf-8"?>
<!-- Generator: Adobe Illustrator 16.0.0, SVG Export Plug-In . SVG Version: 6.00 Build 0)  -->
<!DOCTYPE svg PUBLIC "-//W3C//DTD SVG 1.1//EN" "http://www.w3.org/Graphics/SVG/1.1/DTD/svg11.dtd">
<svg version="1.1" id="Layer_1" xmlns="http://www.w3.org/2000/svg" xmlns:xlink="http://www.w3.org/1999/xlink" x="0px" y="0px"
	 width="82px" height="54px" viewBox="0 0 82 54" enable-background="new 0 0 82 54" xml:space="preserve">
<g>
	<path fill="#46B7BE" d="M82,45.496C82,50.193,78.193,54,73.496,54H8.504C3.807,54,0,50.193,0,45.496V8.504C0,3.807,3.807,0,8.504,0
		h64.992C78.193,0,82,3.807,82,8.504V45.496z"/>
	<g>
		<path fill="#0C5657" d="M42.425,26.882L30.964,21.45c-0.621-0.305-1.064-0.612-1.328-0.923c-0.264-0.311-0.395-0.677-0.395-1.099
			c0-0.492,0.146-0.891,0.439-1.195s0.686-0.457,1.178-0.457c0.188,0,0.4,0.035,0.641,0.105c0.241,0.07,0.584,0.205,1.029,0.404
			L46.45,24.79l0.141,0.088c1.302,0.598,1.951,1.289,1.951,2.074s-0.627,1.459-1.881,2.021c-0.117,0.07-0.211,0.117-0.281,0.142
			l-13.904,6.381c-0.352,0.164-0.654,0.28-0.906,0.353c-0.252,0.07-0.488,0.104-0.711,0.104c-0.492,0-0.885-0.149-1.178-0.448
			s-0.439-0.7-0.439-1.204c0-0.422,0.125-0.782,0.377-1.081s0.701-0.601,1.346-0.904L42.425,26.882z"/>
	</g>
</g>
</svg>
