<?xml version="1.0" encoding="utf-8"?>
<!-- Generator: Adobe Illustrator 16.0.0, SVG Export Plug-In . SVG Version: 6.00 Build 0)  -->
<!DOCTYPE svg PUBLIC "-//W3C//DTD SVG 1.1//EN" "http://www.w3.org/Graphics/SVG/1.1/DTD/svg11.dtd">
<svg version="1.1" id="Layer_1" xmlns="http://www.w3.org/2000/svg" xmlns:xlink="http://www.w3.org/1999/xlink" x="0px" y="0px"
	 width="94.633px" height="63.407px" viewBox="0 0 94.633 63.407" enable-background="new 0 0 94.633 63.407" xml:space="preserve">
<path fill="#25A049" d="M94.633,58.601c0,2.653-2.15,4.807-4.807,4.807H4.805C2.152,63.406,0,61.254,0,58.601V4.807
	C0,2.151,2.152,0,4.805,0h85.021c2.656,0,4.807,2.15,4.807,4.808V58.601z"/>
<path fill="#72C270" d="M0,22.437V58.6c0,2.652,2.152,4.807,4.805,4.807h85.021c2.654,0,4.805-2.151,4.805-4.807V22.437H0z"/>
<g>
	<path fill="#154523" d="M8.979,14.546V9.764h-0.19c-0.295,0-0.504-0.059-0.629-0.172C8.035,9.481,7.971,9.333,7.971,9.15
		c0-0.186,0.064-0.332,0.189-0.445c0.125-0.112,0.334-0.168,0.629-0.168h3.064c0.73,0,1.32,0.204,1.764,0.608
		c0.445,0.408,0.668,0.894,0.668,1.452c0,0.268-0.051,0.52-0.154,0.752s-0.262,0.449-0.471,0.648
		c0.387,0.229,0.674,0.499,0.867,0.808c0.193,0.31,0.289,0.657,0.289,1.047c0,0.312-0.068,0.6-0.209,0.863
		c-0.104,0.205-0.23,0.364-0.383,0.483c-0.201,0.169-0.449,0.305-0.744,0.407c-0.295,0.104-0.662,0.16-1.104,0.16H8.789
		c-0.295,0-0.504-0.059-0.629-0.172c-0.125-0.114-0.189-0.264-0.189-0.445c0-0.177,0.064-0.322,0.191-0.438
		c0.129-0.114,0.336-0.171,0.627-0.171h0.189L8.979,14.546L8.979,14.546z M10.201,11.54h1.342c0.48,0,0.881-0.121,1.197-0.363
		c0.217-0.164,0.322-0.364,0.322-0.608c0-0.213-0.102-0.4-0.305-0.562c-0.203-0.161-0.523-0.24-0.965-0.24H10.2L10.201,11.54
		L10.201,11.54z M10.201,14.546h2.111c0.498,0,0.846-0.073,1.049-0.223c0.154-0.11,0.232-0.271,0.232-0.476
		c0-0.248-0.152-0.488-0.459-0.729c-0.307-0.24-0.744-0.357-1.316-0.357h-1.617V14.546z"/>
	<path fill="#154523" d="M18.291,9.764v4.781h2.635v-1.158c0-0.293,0.059-0.504,0.17-0.63c0.113-0.122,0.262-0.188,0.443-0.188
		c0.18,0,0.326,0.064,0.439,0.188c0.113,0.126,0.172,0.337,0.172,0.63v2.382h-5.789c-0.295,0-0.504-0.059-0.631-0.171
		c-0.123-0.115-0.188-0.265-0.188-0.446c0-0.177,0.064-0.322,0.188-0.438c0.127-0.114,0.336-0.169,0.631-0.169h0.709V9.764h-0.709
		c-0.295,0-0.504-0.059-0.631-0.172c-0.123-0.11-0.188-0.26-0.188-0.441c0-0.186,0.064-0.332,0.188-0.445
		c0.127-0.112,0.336-0.168,0.631-0.168l2.646,0.006c0.293,0,0.504,0.057,0.627,0.166c0.125,0.11,0.188,0.258,0.188,0.441
		s-0.062,0.331-0.188,0.441c-0.123,0.113-0.334,0.172-0.627,0.172H18.291z"/>
	<path fill="#154523" d="M26.738,9.764v4.781h1.236c0.293,0,0.504,0.055,0.627,0.169c0.125,0.113,0.189,0.263,0.189,0.444
		c0,0.179-0.064,0.322-0.189,0.438c-0.123,0.112-0.334,0.171-0.627,0.171h-3.691c-0.293,0-0.504-0.059-0.629-0.171
		c-0.127-0.115-0.189-0.265-0.189-0.446c0-0.177,0.062-0.322,0.189-0.438c0.125-0.114,0.336-0.169,0.629-0.169h1.232v-4.78h-1.232
		c-0.293,0-0.504-0.059-0.629-0.172c-0.127-0.11-0.189-0.26-0.189-0.441c0-0.186,0.062-0.332,0.189-0.445
		c0.125-0.112,0.336-0.168,0.629-0.168l3.689,0.006c0.295,0,0.506,0.057,0.629,0.166c0.125,0.11,0.188,0.258,0.188,0.441
		s-0.062,0.331-0.188,0.441c-0.123,0.113-0.334,0.172-0.629,0.172L26.738,9.764L26.738,9.764z"/>
	<path fill="#154523" d="M31.926,10.849v3.694h0.438c0.295,0,0.504,0.057,0.629,0.171c0.127,0.113,0.189,0.263,0.189,0.444
		c0,0.178-0.062,0.322-0.189,0.438c-0.125,0.112-0.334,0.171-0.629,0.171h-1.602c-0.293,0-0.504-0.059-0.629-0.171
		c-0.125-0.115-0.188-0.265-0.188-0.446c0-0.174,0.061-0.317,0.186-0.436c0.121-0.114,0.314-0.173,0.57-0.173v-4.78h-0.189
		c-0.295,0-0.504-0.058-0.629-0.171c-0.125-0.11-0.188-0.26-0.188-0.441c0-0.186,0.062-0.332,0.188-0.445
		c0.125-0.112,0.334-0.168,0.629-0.168l1.414,0.006l3.123,4.899V9.764h-0.441c-0.295,0-0.504-0.059-0.629-0.172
		c-0.125-0.11-0.188-0.26-0.188-0.441c0-0.186,0.062-0.332,0.188-0.445c0.125-0.112,0.334-0.168,0.629-0.168l1.604,0.006
		c0.293,0,0.504,0.057,0.629,0.166c0.125,0.11,0.188,0.258,0.188,0.441c0,0.178-0.062,0.324-0.186,0.438
		c-0.121,0.114-0.312,0.175-0.566,0.175v6.005h-1.209L31.926,10.849z"/>
	<path fill="#154523" d="M39.51,13.19v1.354h0.438c0.295,0,0.506,0.057,0.631,0.171c0.125,0.113,0.188,0.263,0.188,0.444
		c0,0.178-0.062,0.322-0.188,0.438c-0.125,0.112-0.336,0.171-0.631,0.171h-1.854c-0.295,0-0.504-0.059-0.629-0.171
		c-0.123-0.115-0.188-0.265-0.188-0.446c0-0.177,0.064-0.322,0.191-0.438c0.127-0.114,0.334-0.171,0.625-0.171h0.188v-4.78h-0.188
		c-0.295,0-0.504-0.058-0.629-0.171c-0.123-0.11-0.188-0.26-0.188-0.441c0-0.186,0.062-0.332,0.188-0.445
		c0.125-0.112,0.334-0.168,0.629-0.168l1.854,0.006c0.295,0,0.506,0.057,0.631,0.166c0.125,0.11,0.188,0.258,0.188,0.441
		s-0.062,0.331-0.188,0.441c-0.125,0.113-0.336,0.171-0.631,0.171H39.51v1.812l2.17-1.867c-0.129-0.091-0.215-0.177-0.262-0.257
		c-0.049-0.078-0.072-0.176-0.072-0.291c0-0.187,0.062-0.338,0.188-0.452c0.125-0.117,0.334-0.173,0.627-0.173l1.248,0.006
		c0.293,0,0.502,0.057,0.629,0.167c0.125,0.109,0.188,0.257,0.188,0.44c0,0.178-0.062,0.324-0.188,0.44
		c-0.127,0.114-0.32,0.172-0.588,0.172l-2.193,1.921c0.408,0.234,0.793,0.591,1.154,1.073c0.357,0.479,0.678,1.075,0.955,1.788
		h0.328c0.291,0,0.498,0.055,0.623,0.169c0.125,0.113,0.188,0.263,0.188,0.444c0,0.179-0.062,0.322-0.184,0.438
		c-0.123,0.113-0.334,0.172-0.627,0.172h-1.109c-0.254-0.608-0.531-1.188-0.834-1.743c-0.248-0.448-0.48-0.773-0.701-0.979
		c-0.221-0.205-0.482-0.369-0.789-0.492L39.51,13.19z"/>
</g>
<g>
	<path fill="#154523" d="M71.334,33.582c0,0.956-0.266,1.74-0.795,2.354c-0.531,0.611-1.209,0.918-2.037,0.918
		c-0.82,0-1.496-0.308-2.027-0.921c-0.533-0.614-0.799-1.396-0.799-2.352c0-0.963,0.264-1.749,0.791-2.356
		c0.525-0.608,1.205-0.913,2.035-0.913c0.828,0,1.506,0.308,2.037,0.921C71.068,31.847,71.334,32.63,71.334,33.582z M68.502,36.11
		c0.586,0,1.049-0.225,1.385-0.673c0.336-0.447,0.506-1.065,0.506-1.854c0-0.788-0.17-1.406-0.506-1.854
		c-0.336-0.447-0.799-0.672-1.385-0.672c-0.59,0-1.051,0.224-1.385,0.667c-0.332,0.444-0.5,1.064-0.5,1.859
		c0,0.789,0.17,1.407,0.506,1.854C67.459,35.886,67.92,36.11,68.502,36.11z"/>
	<path fill="#154523" d="M73.631,34.76c0,0.44,0.094,0.762,0.277,0.964c0.186,0.202,0.479,0.304,0.881,0.304
		c0.379,0,0.705-0.119,0.975-0.359c0.271-0.241,0.406-0.543,0.406-0.906V32.6h-0.717c-0.137,0-0.234-0.028-0.295-0.088
		c-0.062-0.058-0.092-0.146-0.092-0.27c0-0.133,0.033-0.229,0.1-0.293c0.064-0.062,0.172-0.095,0.318-0.095H76.6
		c0.133,0,0.225,0.027,0.277,0.086c0.055,0.059,0.082,0.198,0.082,0.423v3.59h0.24c0.17,0,0.293,0.027,0.367,0.084
		c0.074,0.056,0.113,0.147,0.113,0.276c0,0.126-0.037,0.221-0.105,0.283c-0.072,0.062-0.178,0.094-0.312,0.094h-0.795
		c-0.095,0-0.168-0.021-0.222-0.059s-0.078-0.091-0.078-0.156v-0.354c-0.334,0.258-0.621,0.437-0.86,0.53
		c-0.238,0.097-0.49,0.145-0.756,0.145c-0.576,0-1.009-0.151-1.295-0.458c-0.289-0.305-0.434-0.767-0.434-1.384V32.6h-0.11
		c-0.235,0-0.397-0.027-0.485-0.084c-0.086-0.057-0.131-0.152-0.131-0.293c0-0.122,0.035-0.215,0.102-0.273
		c0.068-0.062,0.175-0.093,0.318-0.093h0.789c0.123,0,0.207,0.023,0.254,0.073c0.047,0.049,0.069,0.156,0.069,0.323L73.631,34.76
		L73.631,34.76z"/>
	<path fill="#154523" d="M82.797,32.148c0.17,0,0.295,0.028,0.373,0.09c0.08,0.06,0.119,0.152,0.119,0.281
		c0,0.123-0.037,0.214-0.111,0.274c-0.072,0.062-0.182,0.092-0.328,0.092h-2.121v1.748c0,0.572,0.074,0.949,0.225,1.131
		c0.146,0.183,0.4,0.271,0.762,0.271c0.316,0,0.697-0.094,1.143-0.277c0.442-0.184,0.717-0.276,0.822-0.276
		c0.098,0,0.18,0.035,0.248,0.104c0.066,0.07,0.102,0.155,0.102,0.257c0,0.115-0.041,0.216-0.127,0.302s-0.232,0.168-0.438,0.249
		c-0.342,0.137-0.649,0.234-0.924,0.298c-0.274,0.062-0.53,0.095-0.771,0.095c-0.408,0-0.752-0.065-1.029-0.196
		s-0.484-0.324-0.619-0.583c-0.07-0.122-0.121-0.267-0.15-0.435c-0.029-0.167-0.043-0.427-0.043-0.774v-0.162v-1.748h-0.891
		c-0.146,0-0.254-0.028-0.32-0.087c-0.064-0.058-0.098-0.149-0.098-0.279c0-0.144,0.045-0.239,0.135-0.293
		c0.092-0.053,0.285-0.078,0.582-0.078h0.592v-1.072v-0.277c0-0.148,0.031-0.261,0.096-0.332c0.065-0.07,0.166-0.105,0.301-0.105
		c0.154,0,0.262,0.044,0.32,0.131c0.06,0.087,0.088,0.286,0.088,0.597v1.062h2.066v-0.005H82.797z"/>
</g>
<g>
	<path fill="#154523" d="M12.715,33.674c-0.007,0.269-0.038,0.439-0.094,0.513s-0.164,0.11-0.325,0.11
		c-0.125,0-0.22-0.033-0.282-0.1s-0.094-0.163-0.094-0.292c0.007-0.111,0.011-0.195,0.011-0.253l0.054-1.772
		c0.007-0.133,0.043-0.229,0.107-0.287c0.064-0.06,0.165-0.089,0.301-0.089h4.668c0.136,0,0.236,0.029,0.301,0.089
		c0.064,0.059,0.098,0.154,0.102,0.287l0.059,1.772c0,0.064,0.002,0.125,0.006,0.183s0.006,0.084,0.006,0.08
		c0,0.129-0.034,0.226-0.103,0.288s-0.17,0.094-0.306,0.094c-0.144,0-0.242-0.037-0.296-0.11s-0.084-0.244-0.091-0.513l-0.055-1.396
		h-1.541v4.839h0.827h0.21c0.15,0,0.259,0.03,0.327,0.089c0.068,0.06,0.103,0.153,0.103,0.282c0,0.125-0.033,0.221-0.098,0.287
		s-0.157,0.1-0.279,0.1H13.22c-0.122,0-0.215-0.033-0.279-0.1s-0.097-0.162-0.097-0.287c0-0.133,0.035-0.228,0.104-0.285
		c0.07-0.057,0.189-0.086,0.357-0.086h0.177h0.828v-4.839h-1.542L12.715,33.674z"/>
	<path fill="#154523" d="M21.824,37.116h1.725c0.14,0,0.242,0.03,0.309,0.089c0.066,0.06,0.1,0.153,0.1,0.282
		c0,0.146-0.031,0.248-0.094,0.304s-0.179,0.083-0.347,0.083h-4.168c-0.144,0-0.251-0.032-0.322-0.097s-0.107-0.161-0.107-0.29
		c0-0.125,0.038-0.219,0.112-0.279c0.076-0.061,0.188-0.092,0.339-0.092h1.638v-3.442h-1.047c-0.146,0-0.259-0.033-0.336-0.1
		s-0.115-0.162-0.115-0.287s0.036-0.22,0.107-0.282s0.179-0.094,0.322-0.094h1.574c0.096,0,0.172,0.02,0.228,0.059
		c0.056,0.04,0.083,0.094,0.083,0.162V37.116z M20.831,31.365c0-0.387,0.035-0.63,0.104-0.73c0.07-0.101,0.22-0.15,0.449-0.15
		c0.222,0,0.368,0.042,0.439,0.126c0.072,0.084,0.107,0.284,0.107,0.599c0,0.309-0.032,0.499-0.099,0.572s-0.216,0.11-0.448,0.11
		c-0.229,0-0.379-0.034-0.449-0.103C20.866,31.721,20.831,31.579,20.831,31.365z"/>
	<path fill="#154523" d="M29.907,34.882c0-0.504-0.045-0.846-0.136-1.022c-0.091-0.178-0.246-0.267-0.466-0.267
		c-0.264,0-0.473,0.115-0.627,0.344c-0.154,0.229-0.232,0.545-0.232,0.945v2.234h0.098c0.218,0,0.364,0.026,0.438,0.078
		s0.109,0.149,0.109,0.293c0,0.129-0.03,0.226-0.091,0.29s-0.154,0.097-0.279,0.097h-0.683c-0.153,0-0.258-0.036-0.313-0.107
		s-0.083-0.226-0.083-0.462V37.15v-2.268v-0.418c0-0.27-0.061-0.481-0.182-0.637c-0.121-0.156-0.286-0.234-0.496-0.234
		c-0.16,0-0.307,0.048-0.439,0.143c-0.134,0.095-0.248,0.235-0.344,0.422v2.959h0.198c0.215,0,0.36,0.027,0.435,0.081
		c0.076,0.054,0.113,0.15,0.113,0.29c0,0.146-0.03,0.248-0.092,0.304c-0.061,0.056-0.177,0.083-0.349,0.083h-1.438
		c-0.14,0-0.243-0.031-0.311-0.094c-0.066-0.062-0.1-0.16-0.1-0.293c0-0.144,0.042-0.241,0.126-0.293s0.248-0.078,0.492-0.078h0.107
		v-3.442h-0.098c-0.25,0-0.421-0.028-0.513-0.086c-0.091-0.058-0.137-0.157-0.137-0.301c0-0.125,0.036-0.22,0.108-0.282
		c0.071-0.062,0.18-0.094,0.323-0.094h0.826c0.12,0,0.199,0.021,0.237,0.062s0.061,0.128,0.068,0.261
		c0.146-0.157,0.302-0.273,0.47-0.35c0.167-0.074,0.356-0.112,0.566-0.112c0.249,0,0.455,0.055,0.617,0.164s0.282,0.274,0.36,0.497
		c0.15-0.227,0.324-0.393,0.521-0.5c0.196-0.107,0.422-0.161,0.676-0.161c0.463,0,0.8,0.15,1.013,0.451s0.319,0.788,0.319,1.461
		v2.433h0.086c0.223,0,0.371,0.027,0.446,0.081s0.112,0.15,0.112,0.29c0,0.129-0.031,0.226-0.096,0.29s-0.16,0.097-0.285,0.097
		h-0.655c-0.145,0-0.252-0.043-0.321-0.129c-0.068-0.086-0.104-0.222-0.104-0.408V34.882z"/>
	<path fill="#154523" d="M32.711,35.629c0.028,0.516,0.203,0.914,0.523,1.195s0.759,0.421,1.313,0.421
		c0.419,0,0.876-0.111,1.37-0.335s0.793-0.336,0.896-0.336c0.107,0,0.197,0.034,0.269,0.103c0.071,0.067,0.107,0.151,0.107,0.252
		c0,0.104-0.038,0.199-0.112,0.285c-0.076,0.086-0.195,0.17-0.36,0.252c-0.358,0.176-0.728,0.31-1.109,0.402
		c-0.381,0.094-0.76,0.141-1.136,0.141c-0.816,0-1.47-0.236-1.961-0.707c-0.49-0.471-0.735-1.095-0.735-1.871
		c0-0.792,0.26-1.433,0.778-1.924c0.52-0.49,1.196-0.735,2.031-0.735c0.755,0,1.382,0.229,1.879,0.688
		c0.498,0.458,0.747,1.014,0.747,1.665c0,0.2-0.042,0.335-0.126,0.402c-0.084,0.068-0.312,0.103-0.686,0.103h-0.08H32.711z
		 M32.738,34.925h3.496c-0.054-0.426-0.231-0.769-0.534-1.028s-0.675-0.39-1.114-0.39c-0.477,0-0.878,0.126-1.203,0.377
		C33.057,34.134,32.842,34.482,32.738,34.925z"/>
	<path fill="#154523" d="M38.786,37.488v-0.956c0-0.157,0.029-0.271,0.089-0.339c0.059-0.067,0.154-0.102,0.287-0.102
		c0.146,0,0.264,0.101,0.35,0.301c0.057,0.122,0.108,0.213,0.155,0.273c0.15,0.193,0.372,0.349,0.666,0.465s0.618,0.175,0.972,0.175
		c0.38,0,0.685-0.077,0.914-0.231c0.229-0.153,0.344-0.355,0.344-0.606c0-0.254-0.093-0.435-0.277-0.542s-0.5-0.162-0.947-0.162
		h-0.296c-0.73,0-1.287-0.127-1.671-0.381c-0.383-0.254-0.574-0.623-0.574-1.106c0-0.473,0.188-0.84,0.562-1.101
		c0.374-0.262,0.899-0.393,1.576-0.393c0.275,0,0.557,0.038,0.843,0.115c0.287,0.077,0.438,0.115,0.451,0.115
		c0.04,0,0.115-0.034,0.227-0.104c0.11-0.069,0.22-0.104,0.327-0.104c0.122,0,0.212,0.045,0.271,0.135
		c0.059,0.089,0.089,0.224,0.089,0.402v0.629c0,0.189-0.029,0.326-0.086,0.41c-0.058,0.084-0.149,0.127-0.274,0.127
		c-0.107,0-0.24-0.092-0.397-0.274c-0.111-0.125-0.202-0.22-0.273-0.284c-0.19-0.176-0.393-0.302-0.607-0.379
		s-0.467-0.115-0.758-0.115c-0.336,0-0.607,0.074-0.813,0.223s-0.309,0.337-0.309,0.566c0,0.226,0.105,0.387,0.317,0.483
		c0.211,0.097,0.666,0.152,1.363,0.167c0.745,0.018,1.289,0.147,1.633,0.389c0.344,0.242,0.516,0.615,0.516,1.12
		c0,0.483-0.189,0.87-0.568,1.16c-0.38,0.29-0.893,0.435-1.537,0.435c-0.203,0-0.431-0.019-0.682-0.056
		c-0.251-0.038-0.565-0.102-0.945-0.19c-0.125,0.082-0.232,0.144-0.322,0.185s-0.165,0.062-0.226,0.062
		c-0.125,0-0.221-0.043-0.287-0.131S38.786,37.653,38.786,37.488z"/>
</g>
<g>
	<path fill="#154523" d="M13.407,52.631H12.56h-0.242c-0.133,0-0.231-0.032-0.298-0.097s-0.1-0.161-0.1-0.29
		c0-0.14,0.038-0.236,0.115-0.29s0.224-0.081,0.438-0.081h0.096v-4.839h-0.086c-0.215,0-0.362-0.028-0.442-0.086
		c-0.081-0.058-0.121-0.157-0.121-0.301c0-0.133,0.033-0.23,0.1-0.293s0.169-0.094,0.309-0.094h0.231h0.848h1.188
		c0.892,0,1.603,0.287,2.133,0.862c0.529,0.574,0.795,1.351,0.795,2.328c0,0.477-0.076,0.918-0.229,1.326s-0.373,0.767-0.664,1.074
		c-0.268,0.279-0.595,0.483-0.979,0.61s-0.88,0.19-1.485,0.19c-0.071,0-0.192-0.004-0.362-0.011S13.501,52.631,13.407,52.631z
		 M13.407,51.873c0.115,0.012,0.229,0.02,0.342,0.024c0.112,0.006,0.223,0.009,0.33,0.009c0.881,0,1.526-0.197,1.937-0.592
		c0.41-0.394,0.614-1.015,0.614-1.863c0-0.853-0.205-1.473-0.617-1.861s-1.07-0.582-1.977-0.582c-0.168,0-0.296,0.001-0.384,0.005
		s-0.169,0.011-0.245,0.021V51.873z"/>
	<path fill="#154523" d="M19.478,50.386c0.028,0.516,0.203,0.914,0.523,1.195s0.759,0.421,1.313,0.421
		c0.419,0,0.876-0.111,1.37-0.335s0.793-0.336,0.896-0.336c0.107,0,0.197,0.034,0.269,0.103c0.071,0.067,0.107,0.151,0.107,0.252
		c0,0.104-0.038,0.199-0.112,0.285c-0.076,0.086-0.195,0.17-0.36,0.252c-0.358,0.176-0.728,0.31-1.109,0.402
		c-0.381,0.094-0.76,0.141-1.136,0.141c-0.816,0-1.47-0.236-1.961-0.707c-0.49-0.471-0.735-1.095-0.735-1.871
		c0-0.792,0.26-1.433,0.778-1.924c0.52-0.49,1.196-0.735,2.031-0.735c0.755,0,1.382,0.229,1.879,0.688
		c0.498,0.458,0.747,1.014,0.747,1.665c0,0.2-0.042,0.335-0.126,0.402c-0.084,0.068-0.312,0.103-0.686,0.103h-0.08H19.478z
		 M19.505,49.682h3.496c-0.054-0.426-0.231-0.769-0.534-1.028s-0.675-0.39-1.114-0.39c-0.477,0-0.878,0.126-1.203,0.377
		C19.823,48.891,19.608,49.239,19.505,49.682z"/>
	<path fill="#154523" d="M27.533,46.373h-0.912c-0.348,0-0.565-0.027-0.653-0.083s-0.132-0.156-0.132-0.304
		c0-0.129,0.037-0.225,0.11-0.289s0.181-0.098,0.319-0.098h1.773c0.096,0,0.172,0.021,0.225,0.06
		c0.055,0.039,0.081,0.093,0.081,0.161v6.053h1.687c0.136,0,0.235,0.03,0.298,0.089c0.062,0.06,0.095,0.153,0.095,0.282
		c0,0.146-0.031,0.248-0.092,0.304s-0.176,0.083-0.344,0.083h-3.964c-0.14,0-0.246-0.032-0.319-0.097s-0.11-0.161-0.11-0.29
		c0-0.125,0.038-0.219,0.112-0.279c0.076-0.061,0.188-0.092,0.339-0.092h1.487V46.373z"/>
	<path fill="#154523" d="M35.729,51.949c-0.294,0.265-0.613,0.467-0.959,0.606s-0.701,0.21-1.066,0.21
		c-0.533,0-0.964-0.149-1.291-0.446c-0.328-0.297-0.492-0.684-0.492-1.16c0-0.565,0.218-1.005,0.653-1.315
		c0.435-0.312,1.046-0.468,1.834-0.468c0.208,0,0.417,0.014,0.628,0.04c0.212,0.027,0.429,0.069,0.65,0.127v-0.038
		c0-0.412-0.099-0.716-0.295-0.913c-0.197-0.197-0.504-0.295-0.919-0.295c-0.279,0-0.591,0.074-0.935,0.225
		s-0.571,0.227-0.682,0.227c-0.104,0-0.19-0.043-0.258-0.127c-0.068-0.084-0.103-0.192-0.103-0.324c0-0.212,0.198-0.391,0.594-0.537
		c0.396-0.147,0.901-0.221,1.517-0.221c0.631,0,1.107,0.16,1.43,0.48s0.482,0.794,0.482,1.421v2.433h0.264
		c0.254,0,0.424,0.027,0.51,0.081s0.129,0.15,0.129,0.29c0,0.129-0.035,0.226-0.107,0.29c-0.071,0.064-0.179,0.097-0.322,0.097
		h-0.843c-0.101,0-0.183-0.03-0.247-0.092c-0.064-0.061-0.107-0.148-0.129-0.263L35.729,51.949z M35.687,50.257
		c-0.197-0.064-0.388-0.112-0.572-0.143s-0.367-0.046-0.551-0.046c-0.551,0-0.986,0.094-1.305,0.279
		c-0.318,0.187-0.479,0.438-0.479,0.752c0,0.244,0.1,0.444,0.299,0.602c0.198,0.158,0.452,0.236,0.76,0.236
		c0.455,0,0.876-0.118,1.265-0.356s0.583-0.486,0.583-0.744V50.257z"/>
	<path fill="#154523" d="M40.692,54.006h0.231c0.262,0,0.438,0.027,0.532,0.083c0.093,0.056,0.139,0.157,0.139,0.304
		c0,0.125-0.036,0.221-0.109,0.285s-0.18,0.096-0.32,0.096h-2.476c-0.168,0-0.285-0.028-0.352-0.086
		c-0.066-0.057-0.1-0.155-0.1-0.295c0-0.129,0.035-0.226,0.104-0.29c0.07-0.064,0.175-0.097,0.314-0.097h1.166l0.869-1.713
		l-1.971-3.862c-0.236,0-0.398-0.028-0.486-0.086s-0.131-0.157-0.131-0.301c0-0.125,0.035-0.22,0.107-0.282
		c0.071-0.062,0.179-0.094,0.322-0.094h1.498c0.2,0,0.335,0.027,0.402,0.083c0.068,0.056,0.103,0.153,0.103,0.293
		c0,0.144-0.045,0.243-0.134,0.301c-0.09,0.058-0.255,0.086-0.494,0.086H39.71l1.455,2.96l1.482-2.96h-0.209
		c-0.247,0-0.417-0.028-0.51-0.086c-0.094-0.058-0.141-0.157-0.141-0.301c0-0.14,0.034-0.237,0.103-0.293s0.204-0.083,0.408-0.083
		h1.327c0.146,0,0.255,0.031,0.324,0.094c0.07,0.062,0.105,0.157,0.105,0.282c0,0.136-0.04,0.232-0.119,0.29
		c-0.078,0.058-0.218,0.09-0.418,0.097L40.692,54.006z"/>
	<path fill="#154523" d="M46.796,49.186c0,0.041-0.033,0.13-0.098,0.266c-0.066,0.136-0.115,0.243-0.148,0.323
		c-0.133,0.311-0.227,0.595-0.283,0.853c-0.055,0.258-0.083,0.525-0.083,0.803c0,0.256,0.023,0.504,0.07,0.742
		c0.047,0.24,0.118,0.479,0.214,0.717c0.049,0.129,0.115,0.28,0.201,0.455c0.084,0.175,0.127,0.283,0.127,0.324
		c0,0.043-0.01,0.076-0.028,0.102c-0.019,0.023-0.043,0.036-0.074,0.036c-0.061,0-0.129-0.032-0.203-0.095
		c-0.074-0.064-0.16-0.166-0.258-0.307c-0.21-0.299-0.366-0.612-0.471-0.94c-0.104-0.328-0.155-0.673-0.155-1.034
		c0-0.33,0.043-0.645,0.128-0.945c0.085-0.299,0.215-0.59,0.389-0.871c0.114-0.186,0.219-0.325,0.314-0.419s0.181-0.141,0.256-0.141
		c0.031,0,0.056,0.013,0.074,0.036C46.786,49.115,46.796,49.147,46.796,49.186z"/>
	<path fill="#154523" d="M50.879,50.999c0-0.275-0.024-0.462-0.074-0.558c-0.05-0.098-0.134-0.146-0.255-0.146
		c-0.143,0-0.257,0.062-0.341,0.188c-0.085,0.125-0.127,0.297-0.127,0.516v1.219h0.053c0.119,0,0.198,0.015,0.239,0.042
		c0.039,0.029,0.06,0.082,0.06,0.16c0,0.07-0.017,0.123-0.05,0.158s-0.084,0.053-0.152,0.053h-0.372
		c-0.084,0-0.142-0.02-0.171-0.059c-0.031-0.039-0.046-0.123-0.046-0.252v-0.085v-1.236v-0.229c0-0.146-0.033-0.263-0.099-0.347
		c-0.066-0.086-0.156-0.128-0.271-0.128c-0.088,0-0.168,0.026-0.24,0.077c-0.072,0.053-0.135,0.129-0.188,0.23v1.614h0.108
		c0.117,0,0.196,0.015,0.237,0.044s0.062,0.082,0.062,0.158c0,0.08-0.017,0.136-0.05,0.166s-0.097,0.045-0.19,0.045h-0.784
		c-0.076,0-0.133-0.017-0.169-0.051s-0.055-0.088-0.055-0.16c0-0.078,0.022-0.131,0.068-0.16c0.046-0.027,0.136-0.042,0.269-0.042
		H48.4V50.34h-0.053c-0.137,0-0.229-0.016-0.28-0.047c-0.049-0.031-0.074-0.086-0.074-0.164c0-0.068,0.02-0.119,0.059-0.154
		c0.04-0.033,0.099-0.051,0.177-0.051h0.451c0.065,0,0.108,0.012,0.129,0.033c0.021,0.023,0.033,0.07,0.037,0.143
		c0.08-0.086,0.165-0.149,0.257-0.19c0.091-0.041,0.194-0.062,0.309-0.062c0.136,0,0.248,0.03,0.337,0.09
		c0.088,0.06,0.153,0.149,0.196,0.271c0.082-0.123,0.177-0.214,0.284-0.272s0.23-0.088,0.369-0.088c0.252,0,0.436,0.082,0.552,0.246
		s0.175,0.43,0.175,0.797v1.327h0.047c0.121,0,0.202,0.015,0.243,0.044s0.062,0.082,0.062,0.158c0,0.07-0.018,0.123-0.053,0.158
		s-0.087,0.053-0.155,0.053H51.11c-0.079,0-0.138-0.023-0.175-0.07c-0.038-0.047-0.057-0.121-0.057-0.223V50.999z"/>
	<path fill="#154523" d="M52.122,52.42v-0.521c0-0.086,0.016-0.147,0.049-0.185c0.031-0.037,0.084-0.056,0.156-0.056
		c0.08,0,0.144,0.055,0.19,0.164c0.031,0.066,0.06,0.116,0.085,0.149c0.082,0.105,0.203,0.19,0.363,0.253
		c0.16,0.064,0.337,0.096,0.53,0.096c0.207,0,0.373-0.042,0.498-0.126s0.188-0.194,0.188-0.331c0-0.139-0.051-0.237-0.151-0.296
		s-0.272-0.088-0.517-0.088h-0.161c-0.398,0-0.702-0.069-0.911-0.208s-0.313-0.34-0.313-0.604c0-0.258,0.102-0.458,0.307-0.601
		c0.203-0.143,0.49-0.214,0.859-0.214c0.15,0,0.304,0.021,0.46,0.062C53.91,49.959,53.992,49.98,54,49.98
		c0.021,0,0.062-0.019,0.123-0.058c0.061-0.037,0.12-0.057,0.179-0.057c0.066,0,0.115,0.024,0.148,0.073
		c0.031,0.049,0.048,0.122,0.048,0.22v0.343c0,0.104-0.016,0.179-0.047,0.224c-0.031,0.047-0.081,0.069-0.149,0.069
		c-0.059,0-0.131-0.05-0.217-0.149c-0.061-0.068-0.11-0.12-0.149-0.155c-0.104-0.096-0.214-0.164-0.331-0.206
		s-0.255-0.063-0.413-0.063c-0.184,0-0.332,0.041-0.444,0.122s-0.168,0.184-0.168,0.309c0,0.123,0.058,0.211,0.173,0.264
		s0.363,0.083,0.744,0.091c0.406,0.01,0.703,0.081,0.891,0.212c0.188,0.133,0.281,0.336,0.281,0.611
		c0,0.264-0.104,0.475-0.311,0.633s-0.486,0.237-0.838,0.237c-0.111,0-0.235-0.011-0.372-0.03c-0.137-0.021-0.309-0.056-0.516-0.104
		c-0.068,0.045-0.127,0.078-0.176,0.101s-0.09,0.034-0.123,0.034c-0.068,0-0.121-0.024-0.156-0.071
		C52.14,52.579,52.122,52.51,52.122,52.42z"/>
	<path fill="#154523" d="M56.401,53.668c0-0.039,0.033-0.126,0.099-0.26s0.116-0.24,0.151-0.32c0.129-0.312,0.222-0.598,0.278-0.857
		c0.056-0.258,0.084-0.525,0.084-0.801c0-0.25-0.023-0.495-0.071-0.736c-0.047-0.241-0.119-0.483-0.216-0.726
		c-0.051-0.129-0.117-0.28-0.2-0.456c-0.083-0.174-0.125-0.283-0.125-0.326c0-0.039,0.01-0.07,0.029-0.096
		c0.02-0.023,0.045-0.036,0.076-0.036c0.064,0,0.133,0.032,0.206,0.095c0.073,0.064,0.158,0.165,0.256,0.304
		c0.208,0.297,0.364,0.61,0.467,0.94c0.104,0.33,0.155,0.676,0.155,1.037c0,0.33-0.043,0.646-0.13,0.946s-0.217,0.592-0.391,0.873
		c-0.12,0.191-0.227,0.332-0.316,0.422c-0.091,0.09-0.173,0.135-0.247,0.135c-0.031,0-0.057-0.013-0.076-0.038
		S56.401,53.709,56.401,53.668z"/>
</g>
</svg>
