<?xml version="1.0" encoding="utf-8"?>
<!-- Generator: Adobe Illustrator 16.0.0, SVG Export Plug-In . SVG Version: 6.00 Build 0)  -->
<!DOCTYPE svg PUBLIC "-//W3C//DTD SVG 1.1//EN" "http://www.w3.org/Graphics/SVG/1.1/DTD/svg11.dtd">
<svg version="1.1" id="Layer_1" xmlns="http://www.w3.org/2000/svg" xmlns:xlink="http://www.w3.org/1999/xlink" x="0px" y="0px"
	 width="239px" height="36px" viewBox="0 0 239 36" enable-background="new 0 0 239 36" xml:space="preserve">
<g>
	<g>
		<path fill="#A7A9AC" d="M8.504,0C3.808,0,0,3.807,0,8.504v18.993C0,32.193,3.808,36,8.504,36H110.49V0H8.504z"/>
		<path fill="#D1D3D4" d="M239,27.497V8.504C239,3.807,235.192,0,230.496,0H110.49v36h120.006C235.192,36,239,32.193,239,27.497z"/>
	</g>
</g>
<g>
	<path fill="#414042" d="M22.855,17.558c0.745,0.273,1.292,0.648,1.641,1.123c0.349,0.476,0.523,1.082,0.523,1.82
		c0,0.622-0.15,1.189-0.451,1.702s-0.731,0.933-1.292,1.261c-0.328,0.191-0.696,0.33-1.102,0.416
		c-0.407,0.086-0.983,0.128-1.728,0.128h-0.861h-4.491c-0.451,0-0.774-0.089-0.969-0.267c-0.194-0.178-0.292-0.469-0.292-0.871
		c0-0.363,0.092-0.638,0.277-0.826c0.185-0.188,0.455-0.281,0.81-0.281h0.174v-7.65h-0.174c-0.355,0-0.625-0.096-0.81-0.287
		s-0.277-0.472-0.277-0.841c0-0.396,0.099-0.685,0.297-0.867c0.198-0.181,0.52-0.271,0.964-0.271h4.717
		c1.442,0,2.538,0.28,3.287,0.841c0.748,0.561,1.123,1.381,1.123,2.461c0,0.533-0.115,1.003-0.343,1.41
		C23.646,16.965,23.306,17.298,22.855,17.558z M17.625,14.051v2.584h1.384c0.841,0,1.434-0.099,1.779-0.297s0.518-0.533,0.518-1.005
		c0-0.444-0.156-0.769-0.466-0.974c-0.312-0.205-0.815-0.308-1.513-0.308H17.625z M17.625,18.696v3.127h1.538
		c1.087,0,1.853-0.119,2.297-0.358s0.667-0.64,0.667-1.2c0-0.566-0.212-0.971-0.636-1.209c-0.424-0.24-1.166-0.359-2.225-0.359
		H17.625z"/>
	<path fill="#414042" d="M32.012,14.307c1.661,0,3.008,0.465,4.04,1.395S37.6,17.824,37.6,19.28c0,1.463-0.516,2.66-1.548,3.59
		s-2.379,1.395-4.04,1.395c-1.654,0-2.998-0.465-4.03-1.395s-1.548-2.127-1.548-3.59c0-1.456,0.518-2.648,1.554-3.578
		C29.022,14.772,30.364,14.307,32.012,14.307z M32.012,16.471c-0.8,0-1.458,0.261-1.974,0.785c-0.517,0.522-0.774,1.191-0.774,2.005
		c0,0.82,0.258,1.498,0.774,2.035c0.516,0.537,1.174,0.805,1.974,0.805s1.459-0.268,1.979-0.805s0.779-1.215,0.779-2.035
		c0-0.814-0.258-1.482-0.774-2.005C33.479,16.732,32.818,16.471,32.012,16.471z"/>
	<path fill="#414042" d="M44.614,14.307c1.661,0,3.008,0.465,4.04,1.395s1.548,2.123,1.548,3.578c0,1.463-0.516,2.66-1.548,3.59
		s-2.379,1.395-4.04,1.395c-1.654,0-2.998-0.465-4.03-1.395s-1.548-2.127-1.548-3.59c0-1.456,0.518-2.648,1.554-3.578
		C41.625,14.772,42.966,14.307,44.614,14.307z M44.614,16.471c-0.8,0-1.458,0.261-1.974,0.785c-0.517,0.522-0.774,1.191-0.774,2.005
		c0,0.82,0.258,1.498,0.774,2.035c0.516,0.537,1.174,0.805,1.974,0.805s1.459-0.268,1.979-0.805s0.779-1.215,0.779-2.035
		c0-0.814-0.258-1.482-0.774-2.005C46.082,16.732,45.42,16.471,44.614,16.471z"/>
	<path fill="#414042" d="M58.477,21.762h2.205c0.472,0,0.803,0.085,0.995,0.256s0.287,0.455,0.287,0.852
		c0,0.402-0.097,0.693-0.292,0.871c-0.194,0.178-0.524,0.267-0.989,0.267h-6.952c-0.458,0-0.784-0.089-0.979-0.267
		c-0.194-0.178-0.292-0.469-0.292-0.871c0-0.404,0.094-0.689,0.282-0.856c0.188-0.167,0.518-0.251,0.989-0.251h2.205v-8.901h-1.128
		c-0.465,0-0.798-0.09-1-0.272c-0.202-0.181-0.303-0.47-0.303-0.866c0-0.403,0.099-0.694,0.297-0.872s0.533-0.267,1.005-0.267h3.066
		c0.191,0,0.34,0.04,0.446,0.118c0.105,0.079,0.159,0.187,0.159,0.323V21.762z"/>
	<path fill="#414042" d="M67.029,19.875c0.178,0.758,0.521,1.326,1.03,1.701c0.509,0.377,1.188,0.564,2.036,0.564
		s1.685-0.207,2.512-0.62s1.326-0.62,1.497-0.62c0.253,0,0.459,0.094,0.62,0.281c0.161,0.188,0.241,0.43,0.241,0.723
		c0,0.643-0.475,1.197-1.425,1.662s-2.126,0.697-3.527,0.697c-1.654,0-3-0.465-4.035-1.395c-1.036-0.93-1.554-2.127-1.554-3.59
		c0-1.456,0.518-2.648,1.554-3.578c1.035-0.93,2.38-1.395,4.035-1.395c1.477,0,2.7,0.436,3.671,1.308
		c0.971,0.871,1.456,1.939,1.456,3.204c0,0.403-0.097,0.68-0.292,0.83c-0.194,0.15-0.596,0.227-1.205,0.227H67.029z M72.556,18.275
		c-0.116-0.636-0.416-1.128-0.897-1.477c-0.482-0.349-1.109-0.523-1.882-0.523c-0.745,0-1.345,0.166-1.8,0.497
		c-0.455,0.332-0.771,0.833-0.948,1.502H72.556z"/>
	<path fill="#414042" d="M86.604,21.762h0.164c0.369,0,0.651,0.097,0.846,0.292c0.195,0.194,0.292,0.474,0.292,0.835
		c0,0.396-0.101,0.683-0.302,0.856c-0.202,0.175-0.535,0.262-1,0.262H85.64c-0.342,0-0.597-0.065-0.764-0.194
		c-0.168-0.131-0.306-0.366-0.416-0.708c-0.567,0.376-1.169,0.663-1.805,0.861s-1.278,0.298-1.928,0.298
		c-1.101,0-1.965-0.273-2.594-0.82s-0.943-1.296-0.943-2.246c0-1.025,0.407-1.822,1.22-2.389c0.813-0.567,1.955-0.851,3.425-0.851
		c0.328,0,0.677,0.017,1.046,0.051s0.783,0.089,1.241,0.164v-0.195c0-0.615-0.148-1.083-0.446-1.405
		c-0.297-0.321-0.736-0.482-1.317-0.482c-0.451,0-1.027,0.167-1.728,0.502c-0.701,0.335-1.215,0.502-1.543,0.502
		c-0.321,0-0.581-0.094-0.779-0.282c-0.198-0.188-0.297-0.436-0.297-0.743c0-0.554,0.405-0.993,1.215-1.317
		c0.811-0.325,1.913-0.487,3.307-0.487c1.456,0,2.499,0.28,3.127,0.841s0.943,1.511,0.943,2.851V21.762z M84.122,19.783
		c-0.342-0.075-0.656-0.132-0.943-0.169s-0.554-0.057-0.8-0.057c-0.752,0-1.342,0.127-1.769,0.379
		c-0.428,0.254-0.641,0.602-0.641,1.047c0,0.396,0.137,0.699,0.41,0.907s0.667,0.312,1.179,0.312c0.472,0,0.916-0.068,1.333-0.205
		s0.827-0.349,1.23-0.636V19.783z"/>
	<path fill="#414042" d="M99.329,21.741h0.133c0.383,0,0.67,0.095,0.861,0.282c0.191,0.188,0.287,0.47,0.287,0.847
		c0,0.402-0.097,0.693-0.292,0.871c-0.194,0.178-0.524,0.267-0.989,0.267h-2.522c-0.458,0-0.788-0.089-0.989-0.267
		c-0.202-0.178-0.303-0.469-0.303-0.871c0-0.377,0.098-0.658,0.292-0.847c0.195-0.188,0.487-0.282,0.877-0.282h0.123v-2.963
		c0-0.82-0.115-1.403-0.344-1.748s-0.61-0.518-1.143-0.518c-0.567,0-1.031,0.207-1.389,0.621c-0.359,0.414-0.539,0.962-0.539,1.646
		v2.963h0.123c0.39,0,0.68,0.095,0.872,0.282c0.191,0.188,0.287,0.47,0.287,0.847c0,0.402-0.099,0.693-0.297,0.871
		s-0.526,0.267-0.984,0.267h-2.543c-0.458,0-0.786-0.089-0.984-0.267s-0.297-0.469-0.297-0.871c0-0.377,0.096-0.658,0.287-0.847
		c0.191-0.188,0.482-0.282,0.872-0.282h0.123v-4.962h-0.174c-0.369,0-0.649-0.094-0.841-0.282s-0.287-0.463-0.287-0.826
		c0-0.403,0.099-0.694,0.297-0.872s0.533-0.267,1.005-0.267h1.743c0.191,0,0.336,0.038,0.436,0.113
		c0.099,0.075,0.148,0.185,0.148,0.328v0.8c0.314-0.492,0.716-0.863,1.205-1.113c0.488-0.249,1.054-0.374,1.697-0.374
		c1.094,0,1.909,0.332,2.446,0.995c0.536,0.663,0.805,1.675,0.805,3.035V21.741z"/>
</g>
</svg>
