<?xml version="1.0" encoding="utf-8"?>
<!-- Generator: Adobe Illustrator 16.0.0, SVG Export Plug-In . SVG Version: 6.00 Build 0)  -->
<!DOCTYPE svg PUBLIC "-//W3C//DTD SVG 1.1//EN" "http://www.w3.org/Graphics/SVG/1.1/DTD/svg11.dtd">
<svg version="1.1" id="Layer_1" xmlns="http://www.w3.org/2000/svg" xmlns:xlink="http://www.w3.org/1999/xlink" x="0px" y="0px"
	 width="207.633px" height="156.599px" viewBox="0 0 207.633 156.599" enable-background="new 0 0 207.633 156.599"
	 xml:space="preserve">
<g>
	<path fill="#D1D3D4" d="M207.633,127.793c0,2.653-2.15,4.806-4.807,4.806H4.805c-2.652,0-4.805-2.152-4.805-4.806V4.807
		C0,2.151,2.152,0,4.805,0h198.021c2.656,0,4.807,2.151,4.807,4.807V127.793z"/>
	<path fill="#E6E7E8" d="M0,22.437v129.356c0,2.653,2.152,4.806,4.805,4.806h198.021c2.654,0,4.805-2.152,4.805-4.806V22.437H0z"/>
	<g>
		<path fill="#414042" d="M15.945,8.492c0.085-0.152,0.172-0.261,0.26-0.324c0.09-0.063,0.201-0.096,0.337-0.096
			c0.207,0,0.354,0.056,0.441,0.166c0.087,0.109,0.13,0.298,0.13,0.564l0.013,1.65c0,0.292-0.048,0.488-0.143,0.59
			c-0.096,0.102-0.268,0.152-0.518,0.152c-0.178,0-0.314-0.042-0.409-0.127c-0.096-0.084-0.177-0.24-0.244-0.469
			c-0.11-0.402-0.286-0.691-0.527-0.867s-0.575-0.264-1.003-0.264c-0.651,0-1.151,0.221-1.498,0.66
			c-0.347,0.44-0.521,1.077-0.521,1.911c0,0.829,0.176,1.466,0.527,1.911c0.351,0.443,0.853,0.666,1.504,0.666
			c0.444,0,0.935-0.148,1.47-0.444s0.872-0.444,1.013-0.444c0.164,0,0.303,0.07,0.415,0.209c0.112,0.141,0.169,0.313,0.169,0.521
			c0,0.372-0.328,0.723-0.984,1.053s-1.395,0.496-2.215,0.496c-1.109,0-2.006-0.366-2.691-1.099s-1.029-1.688-1.029-2.869
			c0-1.139,0.348-2.084,1.041-2.837c0.694-0.754,1.574-1.131,2.641-1.131c0.301,0,0.598,0.034,0.889,0.102
			C15.305,8.242,15.615,8.348,15.945,8.492z"/>
		<path fill="#414042" d="M21.75,8.072c1.04,0,1.896,0.373,2.568,1.117c0.672,0.745,1.008,1.695,1.008,2.851
			c0,1.164-0.334,2.116-1.002,2.856s-1.526,1.111-2.574,1.111c-1.036,0-1.893-0.374-2.568-1.121
			c-0.677-0.747-1.016-1.695-1.016-2.847c0-1.159,0.336-2.11,1.006-2.854C19.842,8.444,20.701,8.072,21.75,8.072z M21.75,9.545
			c-0.545,0-0.973,0.221-1.283,0.66c-0.311,0.44-0.466,1.052-0.466,1.835s0.156,1.396,0.469,1.841s0.739,0.666,1.28,0.666
			c0.545,0,0.974-0.221,1.286-0.663s0.469-1.057,0.469-1.844c0-0.783-0.155-1.395-0.466-1.835
			C22.729,9.766,22.299,9.545,21.75,9.545z"/>
		<path fill="#414042" d="M28.869,9.686v4.734h2.888v-1.129c0-0.293,0.053-0.5,0.156-0.623c0.104-0.122,0.275-0.184,0.518-0.184
			c0.24,0,0.416,0.062,0.526,0.188s0.165,0.331,0.165,0.619v1.948c0,0.229-0.045,0.381-0.133,0.457
			c-0.09,0.076-0.268,0.114-0.533,0.114h-5.758c-0.275,0-0.472-0.055-0.59-0.165c-0.119-0.11-0.178-0.29-0.178-0.54
			c0-0.245,0.058-0.421,0.174-0.526s0.314-0.159,0.594-0.159h0.559V9.686h-0.559c-0.275,0-0.472-0.056-0.59-0.166
			c-0.119-0.109-0.178-0.287-0.178-0.533c0-0.245,0.062-0.424,0.187-0.536s0.323-0.168,0.594-0.168h2.704
			c0.271,0,0.469,0.056,0.594,0.168s0.188,0.291,0.188,0.536c0,0.246-0.062,0.424-0.185,0.533c-0.123,0.11-0.321,0.166-0.597,0.166
			H28.869z"/>
		<path fill="#414042" d="M37.354,8.072c1.04,0,1.896,0.373,2.568,1.117c0.672,0.745,1.008,1.695,1.008,2.851
			c0,1.164-0.334,2.116-1.002,2.856s-1.526,1.111-2.574,1.111c-1.036,0-1.893-0.374-2.568-1.121
			c-0.677-0.747-1.016-1.695-1.016-2.847c0-1.159,0.336-2.11,1.006-2.854C35.445,8.444,36.305,8.072,37.354,8.072z M37.354,9.545
			c-0.545,0-0.973,0.221-1.283,0.66c-0.311,0.44-0.466,1.052-0.466,1.835s0.156,1.396,0.469,1.841s0.739,0.666,1.28,0.666
			c0.545,0,0.974-0.221,1.286-0.663s0.469-1.057,0.469-1.844c0-0.783-0.155-1.395-0.466-1.835
			C38.332,9.766,37.902,9.545,37.354,9.545z"/>
		<path fill="#414042" d="M46.744,12.352c0.11,0.067,0.218,0.189,0.324,0.367c0.017,0.025,0.031,0.047,0.044,0.064l1.034,1.637h0.07
			h0.127c0.245,0,0.431,0.058,0.556,0.172s0.187,0.285,0.187,0.514c0,0.25-0.062,0.43-0.187,0.54s-0.331,0.165-0.619,0.165H47.5
			c-0.288,0-0.513-0.125-0.674-0.375l-0.019-0.012l-1.556-2.394c-0.059-0.093-0.127-0.164-0.203-0.213s-0.156-0.073-0.24-0.073
			h-0.598v1.676h0.102c0.229,0,0.401,0.059,0.518,0.175s0.175,0.287,0.175,0.511c0,0.25-0.061,0.43-0.181,0.54
			c-0.121,0.11-0.325,0.165-0.613,0.165h-1.637c-0.284,0-0.487-0.055-0.609-0.165c-0.123-0.11-0.185-0.29-0.185-0.54
			c0-0.224,0.059-0.395,0.175-0.511s0.286-0.175,0.511-0.175h0.108V9.686h-0.108c-0.22,0-0.39-0.061-0.508-0.182
			c-0.118-0.12-0.178-0.293-0.178-0.518c0-0.245,0.062-0.424,0.188-0.536s0.327-0.168,0.606-0.168H45.5
			c0.897,0,1.576,0.175,2.037,0.523c0.462,0.35,0.692,0.864,0.692,1.546c0,0.474-0.128,0.885-0.384,1.231
			S47.223,12.186,46.744,12.352z M44.135,9.646v1.797h0.857c0.529,0,0.899-0.068,1.111-0.206c0.211-0.138,0.316-0.367,0.316-0.688
			c0-0.318-0.096-0.548-0.288-0.689s-0.503-0.213-0.931-0.213H44.135z"/>
		<path fill="#414042" d="M59.903,13.119v1.301h0.653c0.275,0,0.471,0.054,0.587,0.159s0.175,0.281,0.175,0.526
			c0,0.25-0.06,0.43-0.178,0.54s-0.313,0.165-0.584,0.165H58.36c-0.279,0-0.479-0.055-0.6-0.165c-0.121-0.11-0.182-0.29-0.182-0.54
			c0-0.224,0.058-0.395,0.172-0.511s0.281-0.175,0.502-0.175h0.107V9.686h-0.107c-0.217,0-0.383-0.061-0.499-0.182
			c-0.116-0.12-0.175-0.293-0.175-0.518c0-0.245,0.062-0.424,0.185-0.536s0.321-0.168,0.597-0.168h2.621
			c1.037,0,1.821,0.199,2.353,0.597s0.796,0.984,0.796,1.758c0,0.817-0.264,1.436-0.793,1.854c-0.529,0.42-1.314,0.629-2.355,0.629
			H59.903z M59.903,9.686v2.006h0.9c0.5,0,0.875-0.085,1.127-0.254c0.252-0.17,0.378-0.424,0.378-0.762
			c0-0.318-0.13-0.562-0.391-0.733c-0.26-0.172-0.632-0.257-1.114-0.257H59.903z"/>
		<path fill="#414042" d="M69.381,9.686v4.734h1.066c0.287,0,0.493,0.055,0.618,0.162c0.125,0.108,0.188,0.283,0.188,0.523
			c0,0.246-0.063,0.425-0.19,0.537s-0.332,0.168-0.615,0.168h-3.771c-0.287,0-0.493-0.055-0.618-0.165s-0.188-0.29-0.188-0.54
			c0-0.245,0.062-0.421,0.185-0.526c0.122-0.105,0.33-0.159,0.621-0.159h1.066V9.686h-1.066c-0.287,0-0.493-0.056-0.618-0.166
			C65.933,9.41,65.87,9.232,65.87,8.986c0-0.249,0.062-0.427,0.185-0.533c0.122-0.105,0.33-0.158,0.621-0.158h3.771
			c0.3,0,0.51,0.053,0.628,0.158c0.118,0.106,0.178,0.284,0.178,0.533c0,0.246-0.062,0.424-0.185,0.533
			c-0.122,0.11-0.33,0.166-0.621,0.166H69.381z"/>
		<path fill="#414042" d="M78.355,8.492c0.085-0.152,0.172-0.261,0.26-0.324c0.09-0.063,0.201-0.096,0.337-0.096
			c0.207,0,0.354,0.056,0.441,0.166c0.087,0.109,0.13,0.298,0.13,0.564l0.013,1.65c0,0.292-0.048,0.488-0.143,0.59
			c-0.096,0.102-0.268,0.152-0.518,0.152c-0.178,0-0.314-0.042-0.409-0.127c-0.096-0.084-0.177-0.24-0.244-0.469
			c-0.11-0.402-0.286-0.691-0.527-0.867s-0.575-0.264-1.003-0.264c-0.651,0-1.151,0.221-1.498,0.66
			c-0.347,0.44-0.521,1.077-0.521,1.911c0,0.829,0.176,1.466,0.527,1.911c0.351,0.443,0.853,0.666,1.504,0.666
			c0.444,0,0.935-0.148,1.47-0.444s0.872-0.444,1.013-0.444c0.164,0,0.303,0.07,0.415,0.209c0.112,0.141,0.169,0.313,0.169,0.521
			c0,0.372-0.328,0.723-0.984,1.053s-1.395,0.496-2.215,0.496c-1.109,0-2.006-0.366-2.691-1.099s-1.029-1.688-1.029-2.869
			c0-1.139,0.348-2.084,1.041-2.837c0.694-0.754,1.574-1.131,2.641-1.131c0.301,0,0.598,0.034,0.889,0.102
			C77.715,8.242,78.025,8.348,78.355,8.492z"/>
		<path fill="#414042" d="M83.129,9.686v1.923l1.961-1.962c-0.22-0.025-0.375-0.087-0.463-0.187c-0.09-0.1-0.134-0.257-0.134-0.474
			c0-0.249,0.061-0.429,0.181-0.539c0.121-0.11,0.325-0.165,0.613-0.165h1.555c0.288,0,0.492,0.055,0.612,0.165
			c0.121,0.11,0.181,0.29,0.181,0.539c0,0.233-0.06,0.408-0.181,0.524c-0.12,0.116-0.297,0.175-0.53,0.175h-0.146l-1.847,1.834
			c0.342,0.254,0.655,0.587,0.939,1c0.283,0.412,0.615,1.046,0.996,1.9h0.082h0.127c0.25,0,0.437,0.058,0.559,0.172
			c0.123,0.114,0.185,0.285,0.185,0.514c0,0.25-0.062,0.43-0.188,0.54s-0.331,0.165-0.618,0.165h-0.781
			c-0.343,0-0.62-0.23-0.832-0.691c-0.037-0.085-0.067-0.152-0.088-0.203c-0.279-0.593-0.536-1.05-0.769-1.371
			c-0.232-0.322-0.506-0.616-0.819-0.883l-0.596,0.571v1.187h0.102c0.229,0,0.402,0.059,0.523,0.175
			c0.12,0.116,0.181,0.287,0.181,0.511c0,0.25-0.062,0.43-0.188,0.54s-0.331,0.165-0.618,0.165H81.49
			c-0.291,0-0.499-0.054-0.621-0.162c-0.123-0.107-0.185-0.289-0.185-0.543c0-0.224,0.06-0.395,0.178-0.511s0.292-0.175,0.521-0.175
			h0.107V9.686h-0.109c-0.228,0-0.4-0.06-0.519-0.178c-0.118-0.119-0.178-0.293-0.178-0.521c0-0.249,0.062-0.429,0.184-0.539
			c0.123-0.11,0.33-0.165,0.622-0.165h1.639c0.283,0,0.488,0.055,0.615,0.165s0.19,0.29,0.19,0.539c0,0.229-0.061,0.402-0.181,0.521
			c-0.121,0.118-0.295,0.178-0.523,0.178H83.129z"/>
		<path fill="#414042" d="M93.786,9.621h-2.951v1.625h1.117V11.17c0-0.24,0.053-0.421,0.158-0.539
			c0.106-0.118,0.268-0.178,0.482-0.178c0.191,0,0.347,0.054,0.467,0.162c0.121,0.107,0.182,0.244,0.182,0.409
			c0,0.009,0.002,0.036,0.006,0.083c0.004,0.046,0.006,0.093,0.006,0.139v1.314c0,0.283-0.051,0.486-0.152,0.609
			s-0.266,0.184-0.494,0.184c-0.217,0-0.379-0.057-0.489-0.171s-0.165-0.283-0.165-0.508v-0.114h-1.117v1.898h2.951v-0.756
			c0-0.283,0.055-0.486,0.162-0.609c0.108-0.123,0.285-0.184,0.53-0.184c0.241,0,0.414,0.06,0.518,0.181
			c0.104,0.12,0.155,0.324,0.155,0.612v1.536c0,0.229-0.045,0.381-0.133,0.457c-0.09,0.076-0.265,0.114-0.527,0.114h-5.199
			c-0.279,0-0.479-0.055-0.6-0.165c-0.12-0.11-0.181-0.29-0.181-0.54c0-0.224,0.058-0.395,0.171-0.511
			c0.115-0.116,0.282-0.175,0.502-0.175h0.107V9.686h-0.107c-0.216,0-0.382-0.061-0.498-0.182c-0.116-0.12-0.175-0.293-0.175-0.518
			c0-0.245,0.062-0.424,0.185-0.536c0.122-0.112,0.321-0.168,0.596-0.168h5.199c0.258,0,0.433,0.039,0.523,0.117
			s0.137,0.234,0.137,0.467v1.422c0,0.288-0.053,0.494-0.158,0.619c-0.106,0.125-0.277,0.187-0.515,0.187
			c-0.245,0-0.422-0.062-0.53-0.189c-0.107-0.127-0.162-0.333-0.162-0.616V9.621z"/>
		<path fill="#414042" d="M101.354,12.352c0.11,0.067,0.218,0.189,0.324,0.367c0.017,0.025,0.031,0.047,0.044,0.064l1.034,1.637
			h0.07h0.127c0.245,0,0.431,0.058,0.556,0.172s0.187,0.285,0.187,0.514c0,0.25-0.062,0.43-0.187,0.54s-0.331,0.165-0.619,0.165
			h-0.78c-0.288,0-0.513-0.125-0.674-0.375l-0.019-0.012l-1.556-2.394c-0.059-0.093-0.127-0.164-0.203-0.213
			s-0.156-0.073-0.24-0.073H98.82v1.676h0.102c0.229,0,0.401,0.059,0.518,0.175s0.175,0.287,0.175,0.511
			c0,0.25-0.061,0.43-0.181,0.54c-0.121,0.11-0.325,0.165-0.613,0.165h-1.637c-0.284,0-0.487-0.055-0.609-0.165
			c-0.123-0.11-0.185-0.29-0.185-0.54c0-0.224,0.059-0.395,0.175-0.511s0.286-0.175,0.511-0.175h0.108V9.686h-0.108
			c-0.22,0-0.39-0.061-0.508-0.182c-0.118-0.12-0.178-0.293-0.178-0.518c0-0.245,0.062-0.424,0.188-0.536s0.327-0.168,0.606-0.168
			h2.926c0.897,0,1.576,0.175,2.037,0.523c0.462,0.35,0.692,0.864,0.692,1.546c0,0.474-0.128,0.885-0.384,1.231
			S101.832,12.186,101.354,12.352z M98.744,9.646v1.797h0.857c0.529,0,0.899-0.068,1.111-0.206c0.211-0.138,0.316-0.367,0.316-0.688
			c0-0.318-0.096-0.548-0.288-0.689s-0.503-0.213-0.931-0.213H98.744z"/>
	</g>
</g>
</svg>
