<?xml version="1.0" encoding="utf-8"?>
<!-- Generator: Adobe Illustrator 16.0.0, SVG Export Plug-In . SVG Version: 6.00 Build 0)  -->
<!DOCTYPE svg PUBLIC "-//W3C//DTD SVG 1.1//EN" "http://www.w3.org/Graphics/SVG/1.1/DTD/svg11.dtd">
<svg version="1.1" id="Layer_1" xmlns="http://www.w3.org/2000/svg" xmlns:xlink="http://www.w3.org/1999/xlink" x="0px" y="0px"
	 width="240.932px" height="102.132px" viewBox="0 0 240.932 102.132" enable-background="new 0 0 240.932 102.132"
	 xml:space="preserve">
<g>
	<path fill="#84A2CD" d="M240.781,94.401c0,4.269-3.461,7.729-7.731,7.729H7.806c-4.266,0-7.729-3.463-7.729-7.729V7.732
		C0.077,3.46,3.54,0,7.806,0h225.243c4.271,0,7.731,3.46,7.731,7.732V94.401z"/>
	<path fill="#9EB6DD" d="M0.077,36.092v58.31c0,4.268,3.463,7.73,7.729,7.73h225.243c4.27,0,7.729-3.463,7.729-7.73v-58.31H0.077z"
		/>
	<g>
		<g>
			<path fill="#1B446B" d="M27.026,57.835c0.433,0,0.708,0.041,0.829,0.121c0.12,0.082,0.182,0.234,0.182,0.459
				c0,0.229-0.062,0.39-0.182,0.477c-0.121,0.087-0.396,0.131-0.829,0.131h-5.11h-0.396c-0.202,0-0.355-0.051-0.463-0.152
				c-0.105-0.101-0.16-0.252-0.16-0.455c0-0.224,0.062-0.377,0.187-0.457c0.123-0.082,0.4-0.123,0.833-0.123h1.902V50.25h-1.902
				c-0.421,0-0.695-0.043-0.825-0.131c-0.129-0.087-0.193-0.245-0.193-0.476c0-0.208,0.055-0.36,0.16-0.459
				c0.106-0.098,0.267-0.147,0.479-0.147h0.379h5.11h0.396c0.202,0,0.354,0.05,0.459,0.151c0.104,0.101,0.155,0.252,0.155,0.455
				c0,0.23-0.063,0.389-0.189,0.476s-0.399,0.131-0.82,0.131h-1.902v7.585H27.026L27.026,57.835z"/>
			<path fill="#1B446B" d="M31.681,57.835v-5.397h-0.159c-0.382,0-0.645-0.045-0.788-0.136c-0.143-0.09-0.214-0.246-0.214-0.471
				c0-0.209,0.06-0.357,0.177-0.451c0.117-0.093,0.31-0.139,0.572-0.139h0.396h0.809c0.151,0,0.271,0.031,0.354,0.093
				s0.126,0.146,0.126,0.252v0.572c0.409-0.382,0.814-0.664,1.217-0.846c0.4-0.182,0.817-0.273,1.25-0.273
				c0.848,0,1.515,0.264,2,0.791c0.484,0.528,0.729,1.258,0.729,2.189v3.814h0.396c0.28,0,0.481,0.047,0.605,0.139
				c0.123,0.093,0.186,0.24,0.186,0.441c0,0.219-0.065,0.375-0.197,0.467c-0.132,0.094-0.366,0.141-0.703,0.141h-1.859
				c-0.359,0-0.591-0.043-0.69-0.127c-0.102-0.084-0.152-0.244-0.152-0.48c0-0.219,0.061-0.369,0.178-0.453s0.34-0.127,0.666-0.127
				h0.294v-3.502c0-0.656-0.148-1.158-0.446-1.504c-0.297-0.345-0.729-0.518-1.296-0.518c-0.573,0-1.078,0.193-1.517,0.581
				c-0.438,0.388-0.656,0.866-0.656,1.44v3.502h0.295c0.337,0,0.563,0.041,0.682,0.125c0.118,0.086,0.177,0.236,0.177,0.455
				c0,0.235-0.05,0.396-0.15,0.479c-0.102,0.084-0.349,0.127-0.74,0.127h-1.533h-0.454c-0.229,0-0.402-0.049-0.518-0.147
				s-0.173-0.25-0.173-0.459c0-0.225,0.064-0.377,0.196-0.459c0.133-0.08,0.39-0.121,0.771-0.121H31.681z"/>
			<path fill="#1B446B" d="M42.989,61.177h2.021c0.214,0,0.374,0.051,0.479,0.152c0.106,0.101,0.16,0.252,0.16,0.455
				c0,0.219-0.053,0.373-0.155,0.463c-0.104,0.09-0.287,0.135-0.553,0.135h-3.713c-0.225,0-0.394-0.051-0.509-0.152
				s-0.173-0.25-0.173-0.445c0-0.225,0.071-0.383,0.215-0.473c0.143-0.09,0.408-0.135,0.796-0.135h0.159v-8.739h-0.159
				c-0.388,0-0.653-0.045-0.796-0.136c-0.144-0.09-0.215-0.246-0.215-0.471c0-0.197,0.058-0.344,0.173-0.442
				s0.284-0.147,0.509-0.147h1.28c0.168,0,0.29,0.028,0.366,0.084c0.075,0.056,0.112,0.143,0.112,0.261v0.816
				c0.383-0.393,0.806-0.688,1.269-0.884c0.463-0.196,0.961-0.294,1.494-0.294c1.128,0,2.07,0.382,2.829,1.145
				c0.758,0.764,1.137,1.721,1.137,2.871c0,1.106-0.359,2.016-1.078,2.729c-0.718,0.714-1.636,1.068-2.753,1.068
				c-0.595,0-1.143-0.104-1.642-0.313c-0.5-0.211-0.918-0.513-1.256-0.906L42.989,61.177L42.989,61.177z M45.599,57.802
				c0.78,0,1.42-0.246,1.92-0.737c0.499-0.491,0.749-1.127,0.749-1.907c0-0.764-0.251-1.393-0.754-1.891
				c-0.502-0.496-1.141-0.745-1.915-0.745c-0.773,0-1.409,0.247-1.903,0.741c-0.492,0.494-0.739,1.126-0.739,1.895
				c0,0.775,0.245,1.409,0.735,1.902C44.183,57.554,44.819,57.802,45.599,57.802z"/>
			<path fill="#1B446B" d="M53.413,55.916c0,0.707,0.147,1.224,0.445,1.549c0.297,0.326,0.77,0.488,1.414,0.488
				c0.612,0,1.137-0.193,1.57-0.58c0.435-0.389,0.652-0.873,0.652-1.457v-3.478h-1.153c-0.219,0-0.377-0.046-0.477-0.14
				c-0.099-0.092-0.146-0.236-0.146-0.434c0-0.213,0.054-0.37,0.16-0.471c0.105-0.101,0.276-0.152,0.514-0.152h1.793
				c0.214,0,0.363,0.046,0.451,0.139c0.087,0.093,0.13,0.318,0.13,0.678v5.776h0.388c0.274,0,0.474,0.045,0.595,0.135
				c0.12,0.09,0.181,0.238,0.181,0.445c0,0.203-0.058,0.354-0.173,0.455s-0.282,0.151-0.501,0.151h-1.279
				c-0.15,0-0.27-0.03-0.354-0.095c-0.085-0.061-0.127-0.145-0.127-0.252v-0.571c-0.538,0.415-1,0.7-1.386,0.854
				c-0.385,0.154-0.79,0.23-1.217,0.23c-0.926,0-1.62-0.246-2.084-0.736c-0.463-0.492-0.693-1.234-0.693-2.228v-3.789h-0.178
				c-0.382,0-0.643-0.045-0.783-0.136c-0.14-0.09-0.21-0.246-0.21-0.471c0-0.197,0.056-0.345,0.164-0.443
				c0.109-0.098,0.279-0.146,0.51-0.146h1.271c0.196,0,0.333,0.04,0.408,0.118c0.076,0.079,0.114,0.252,0.114,0.522L53.413,55.916
				L53.413,55.916z"/>
			<path fill="#1B446B" d="M68.154,51.714c0.275,0,0.477,0.047,0.604,0.143c0.126,0.096,0.188,0.247,0.188,0.455
				c0,0.197-0.06,0.344-0.177,0.441c-0.118,0.1-0.295,0.147-0.53,0.147h-3.409v2.812c0,0.922,0.118,1.527,0.356,1.82
				c0.238,0.291,0.647,0.438,1.227,0.438c0.511,0,1.122-0.148,1.835-0.446s1.152-0.446,1.321-0.446c0.157,0,0.29,0.057,0.399,0.168
				c0.109,0.113,0.164,0.25,0.164,0.414c0,0.184-0.068,0.346-0.206,0.482c-0.138,0.139-0.372,0.271-0.703,0.4
				c-0.55,0.219-1.045,0.379-1.485,0.479s-0.854,0.149-1.241,0.149c-0.657,0-1.208-0.104-1.654-0.313
				c-0.446-0.211-0.779-0.522-0.998-0.938c-0.112-0.196-0.192-0.43-0.24-0.699s-0.07-0.684-0.07-1.246v-0.262v-2.812H62.1
				c-0.235,0-0.406-0.047-0.513-0.14c-0.107-0.094-0.16-0.242-0.16-0.45c0-0.229,0.072-0.388,0.219-0.472s0.457-0.125,0.936-0.125
				h0.95v-1.726v-0.446c0-0.241,0.053-0.419,0.156-0.535c0.104-0.115,0.266-0.172,0.483-0.172c0.247,0,0.418,0.07,0.514,0.21
				c0.096,0.14,0.145,0.46,0.145,0.96v1.709H68.154z"/>
		</g>
	</g>
	<g>
		<g>
			<path fill="#1B446B" d="M177.918,54.021c0,1.538-0.428,2.801-1.28,3.785s-1.944,1.479-3.274,1.479
				c-1.318,0-2.406-0.494-3.263-1.482c-0.855-0.987-1.284-2.247-1.284-3.78c0-1.549,0.424-2.813,1.271-3.792
				c0.847-0.979,1.938-1.469,3.274-1.469c1.33,0,2.423,0.494,3.274,1.481C177.49,51.229,177.918,52.488,177.918,54.021z
				 M173.363,58.087c0.942,0,1.686-0.359,2.228-1.082c0.542-0.721,0.812-1.715,0.812-2.984c0-1.268-0.271-2.264-0.812-2.984
				c-0.541-0.721-1.284-1.082-2.228-1.082c-0.948,0-1.69,0.358-2.228,1.074c-0.536,0.714-0.804,1.712-0.804,2.993
				c0,1.271,0.271,2.265,0.812,2.983C171.686,57.728,172.426,58.087,173.363,58.087z"/>
			<path fill="#1B446B" d="M181.614,55.916c0,0.707,0.148,1.224,0.446,1.549c0.297,0.326,0.77,0.488,1.414,0.488
				c0.612,0,1.136-0.193,1.57-0.58c0.435-0.389,0.651-0.873,0.651-1.457v-3.478h-1.152c-0.22,0-0.377-0.046-0.477-0.14
				c-0.099-0.092-0.146-0.236-0.146-0.434c0-0.213,0.054-0.37,0.16-0.471c0.105-0.101,0.276-0.152,0.514-0.152h1.793
				c0.214,0,0.363,0.046,0.451,0.139c0.087,0.093,0.13,0.318,0.13,0.678v5.776h0.388c0.274,0,0.474,0.045,0.595,0.135
				c0.119,0.09,0.181,0.238,0.181,0.445c0,0.203-0.059,0.354-0.173,0.455c-0.115,0.102-0.282,0.151-0.501,0.151h-1.279
				c-0.151,0-0.271-0.03-0.354-0.095c-0.085-0.061-0.127-0.145-0.127-0.252v-0.571c-0.537,0.415-1,0.7-1.385,0.854
				s-0.79,0.23-1.217,0.23c-0.926,0-1.62-0.246-2.084-0.736c-0.463-0.492-0.694-1.234-0.694-2.228v-3.789h-0.177
				c-0.382,0-0.643-0.045-0.783-0.136c-0.14-0.09-0.21-0.246-0.21-0.471c0-0.197,0.056-0.345,0.164-0.443
				c0.109-0.098,0.279-0.146,0.509-0.146h1.271c0.196,0,0.333,0.04,0.408,0.118c0.076,0.079,0.113,0.252,0.113,0.522L181.614,55.916
				L181.614,55.916z"/>
			<path fill="#1B446B" d="M191.886,61.177h2.021c0.215,0,0.374,0.051,0.48,0.152c0.106,0.101,0.16,0.252,0.16,0.455
				c0,0.219-0.053,0.373-0.156,0.463c-0.103,0.09-0.287,0.135-0.552,0.135h-3.713c-0.226,0-0.395-0.051-0.509-0.152
				c-0.115-0.102-0.174-0.25-0.174-0.445c0-0.225,0.071-0.383,0.216-0.473c0.143-0.09,0.407-0.135,0.796-0.135h0.158v-8.739h-0.158
				c-0.389,0-0.653-0.045-0.796-0.136c-0.145-0.09-0.216-0.246-0.216-0.471c0-0.197,0.059-0.344,0.174-0.442
				c0.114-0.098,0.283-0.147,0.509-0.147h1.279c0.168,0,0.29,0.028,0.366,0.084c0.075,0.056,0.113,0.143,0.113,0.261v0.816
				c0.382-0.393,0.805-0.688,1.268-0.884c0.463-0.196,0.961-0.294,1.494-0.294c1.128,0,2.071,0.382,2.829,1.145
				c0.758,0.764,1.137,1.721,1.137,2.871c0,1.106-0.358,2.016-1.077,2.729c-0.719,0.714-1.637,1.068-2.754,1.068
				c-0.595,0-1.143-0.104-1.642-0.313c-0.5-0.211-0.918-0.513-1.255-0.906L191.886,61.177L191.886,61.177z M194.496,57.802
				c0.779,0,1.42-0.246,1.92-0.737c0.499-0.491,0.749-1.127,0.749-1.907c0-0.764-0.251-1.393-0.754-1.891
				c-0.502-0.496-1.142-0.745-1.915-0.745c-0.774,0-1.409,0.247-1.903,0.741c-0.493,0.494-0.74,1.126-0.74,1.895
				c0,0.775,0.245,1.409,0.736,1.902C193.08,57.554,193.716,57.802,194.496,57.802z"/>
			<path fill="#1B446B" d="M202.31,55.916c0,0.707,0.148,1.224,0.446,1.549c0.297,0.326,0.769,0.488,1.414,0.488
				c0.611,0,1.136-0.193,1.569-0.58c0.436-0.389,0.652-0.873,0.652-1.457v-3.478h-1.153c-0.219,0-0.377-0.046-0.476-0.14
				c-0.099-0.092-0.147-0.236-0.147-0.434c0-0.213,0.055-0.37,0.16-0.471c0.106-0.101,0.277-0.152,0.515-0.152h1.793
				c0.214,0,0.362,0.046,0.451,0.139c0.087,0.093,0.13,0.318,0.13,0.678v5.776h0.388c0.274,0,0.473,0.045,0.594,0.135
				c0.12,0.09,0.182,0.238,0.182,0.445c0,0.203-0.059,0.354-0.174,0.455c-0.114,0.102-0.281,0.151-0.501,0.151h-1.278
				c-0.151,0-0.271-0.03-0.354-0.095c-0.085-0.061-0.127-0.145-0.127-0.252v-0.571c-0.538,0.415-1,0.7-1.385,0.854
				s-0.79,0.23-1.217,0.23c-0.927,0-1.62-0.246-2.084-0.736c-0.463-0.492-0.694-1.234-0.694-2.228v-3.789h-0.177
				c-0.382,0-0.644-0.045-0.783-0.136c-0.14-0.09-0.21-0.246-0.21-0.471c0-0.197,0.055-0.345,0.164-0.443
				c0.108-0.098,0.279-0.146,0.509-0.146h1.271c0.195,0,0.333,0.04,0.407,0.118c0.076,0.079,0.114,0.252,0.114,0.522L202.31,55.916
				L202.31,55.916z"/>
			<path fill="#1B446B" d="M217.051,51.714c0.275,0,0.476,0.047,0.603,0.143c0.126,0.096,0.189,0.247,0.189,0.455
				c0,0.197-0.061,0.344-0.177,0.441c-0.118,0.1-0.295,0.147-0.53,0.147h-3.41v2.812c0,0.922,0.119,1.527,0.357,1.82
				c0.237,0.291,0.646,0.438,1.226,0.438c0.511,0,1.122-0.148,1.835-0.446s1.153-0.446,1.322-0.446c0.157,0,0.29,0.057,0.398,0.168
				c0.109,0.113,0.164,0.25,0.164,0.414c0,0.184-0.067,0.346-0.206,0.482c-0.138,0.139-0.371,0.271-0.702,0.4
				c-0.551,0.219-1.045,0.379-1.485,0.479c-0.441,0.101-0.855,0.149-1.242,0.149c-0.657,0-1.208-0.104-1.654-0.313
				c-0.445-0.211-0.778-0.522-0.998-0.938c-0.111-0.196-0.191-0.43-0.239-0.699s-0.071-0.684-0.071-1.246v-0.262v-2.812h-1.432
				c-0.235,0-0.406-0.047-0.514-0.14c-0.106-0.094-0.16-0.242-0.16-0.45c0-0.229,0.072-0.388,0.22-0.472
				c0.146-0.084,0.457-0.125,0.935-0.125h0.951v-1.726v-0.446c0-0.241,0.052-0.419,0.156-0.535c0.104-0.115,0.265-0.172,0.482-0.172
				c0.247,0,0.418,0.07,0.515,0.21c0.096,0.14,0.144,0.46,0.144,0.96v1.709H217.051z"/>
		</g>
	</g>
	<g>
		<g>
			<path fill="#1B446B" d="M22.512,84.251h0.572c0.326,0,0.556,0.045,0.689,0.135c0.135,0.09,0.202,0.238,0.202,0.445
				c0,0.225-0.059,0.383-0.177,0.473s-0.34,0.135-0.665,0.135h-2.829c-0.19,0-0.337-0.053-0.438-0.156
				c-0.103-0.104-0.151-0.254-0.151-0.451c0-0.207,0.056-0.354,0.168-0.445c0.112-0.09,0.298-0.135,0.556-0.135h0.278h0.488v-7.662
				h-0.488c-0.421,0-0.693-0.039-0.817-0.116c-0.123-0.079-0.185-0.228-0.185-0.447c0-0.188,0.049-0.334,0.146-0.429
				c0.099-0.096,0.245-0.145,0.441-0.145h3.553c0.859,0,1.5,0.041,1.924,0.123c0.425,0.082,0.782,0.221,1.074,0.416
				c0.376,0.254,0.672,0.588,0.889,1.002c0.216,0.416,0.323,0.861,0.323,1.34c0,0.646-0.196,1.199-0.594,1.662
				c-0.396,0.463-0.947,0.785-1.654,0.965c0.146,0.084,0.276,0.183,0.393,0.293c0.115,0.113,0.226,0.248,0.333,0.404l1.691,2.594
				h0.277c0.314,0,0.53,0.043,0.648,0.131c0.117,0.086,0.177,0.236,0.177,0.449c0,0.197-0.049,0.349-0.147,0.451
				c-0.098,0.104-0.242,0.156-0.434,0.156h-0.951c-0.275,0-0.545-0.203-0.809-0.607c-0.033-0.033-0.06-0.061-0.075-0.084
				l-1.617-2.449c-0.331-0.5-0.604-0.821-0.82-0.969c-0.217-0.146-0.501-0.219-0.854-0.219h-1.12L22.512,84.251L22.512,84.251z
				 M22.512,76.589v3.402h1.743c0.785,0,1.376-0.144,1.771-0.427c0.396-0.282,0.594-0.705,0.594-1.269
				c0-0.565-0.193-0.992-0.581-1.278s-0.966-0.431-1.734-0.431h-1.793V76.589z"/>
			<path fill="#1B446B" d="M36.674,84.369c-0.461,0.416-0.962,0.731-1.503,0.951c-0.542,0.219-1.1,0.328-1.672,0.328
				c-0.836,0-1.512-0.232-2.024-0.697c-0.514-0.468-0.771-1.072-0.771-1.82c0-0.887,0.341-1.573,1.021-2.062
				c0.684-0.487,1.642-0.731,2.876-0.731c0.325,0,0.653,0.021,0.984,0.062c0.331,0.041,0.671,0.107,1.02,0.197v-0.059
				c0-0.646-0.154-1.123-0.464-1.433c-0.309-0.31-0.788-0.463-1.438-0.463c-0.438,0-0.927,0.116-1.466,0.354
				c-0.539,0.236-0.896,0.354-1.068,0.354c-0.163,0-0.298-0.066-0.404-0.197c-0.105-0.133-0.16-0.303-0.16-0.51
				c0-0.331,0.312-0.611,0.932-0.842c0.619-0.23,1.412-0.346,2.379-0.346c0.986,0,1.733,0.252,2.238,0.754
				c0.506,0.502,0.759,1.244,0.759,2.227v3.814h0.411c0.398,0,0.665,0.041,0.801,0.125c0.135,0.086,0.202,0.236,0.202,0.455
				c0,0.203-0.057,0.354-0.168,0.455c-0.112,0.102-0.281,0.151-0.506,0.151H37.33c-0.157,0-0.286-0.049-0.389-0.144
				c-0.101-0.096-0.168-0.233-0.2-0.414L36.674,84.369z M36.606,81.716c-0.31-0.1-0.607-0.176-0.896-0.223s-0.576-0.072-0.862-0.072
				c-0.864,0-1.547,0.146-2.046,0.438c-0.5,0.291-0.75,0.685-0.75,1.179c0,0.383,0.156,0.695,0.468,0.942
				c0.312,0.247,0.708,0.371,1.191,0.371c0.713,0,1.373-0.188,1.981-0.562c0.609-0.373,0.914-0.762,0.914-1.166V81.716z"/>
			<path fill="#1B446B" d="M41.952,84.251v-5.396h-0.159c-0.382,0-0.646-0.045-0.788-0.135c-0.144-0.09-0.214-0.248-0.214-0.473
				c0-0.207,0.059-0.357,0.177-0.449c0.117-0.094,0.309-0.141,0.572-0.141h0.396h0.81c0.15,0,0.27,0.031,0.354,0.094
				c0.084,0.062,0.126,0.146,0.126,0.252v0.572c0.41-0.382,0.815-0.662,1.217-0.847c0.401-0.183,0.818-0.272,1.25-0.272
				c0.849,0,1.516,0.264,2,0.791c0.485,0.527,0.729,1.258,0.729,2.188v3.813h0.396c0.28,0,0.482,0.047,0.606,0.14
				c0.123,0.093,0.185,0.239,0.185,0.44c0,0.221-0.064,0.375-0.196,0.469c-0.133,0.093-0.366,0.14-0.703,0.14h-1.86
				c-0.359,0-0.59-0.043-0.689-0.127c-0.103-0.084-0.152-0.244-0.152-0.479c0-0.219,0.06-0.369,0.177-0.455
				c0.118-0.084,0.34-0.125,0.666-0.125h0.294V80.75c0-0.658-0.147-1.158-0.446-1.504c-0.297-0.346-0.729-0.519-1.296-0.519
				c-0.572,0-1.078,0.192-1.516,0.581c-0.438,0.389-0.657,0.867-0.657,1.439v3.502h0.295c0.337,0,0.564,0.043,0.683,0.127
				c0.117,0.084,0.177,0.234,0.177,0.453c0,0.236-0.05,0.396-0.151,0.48c-0.101,0.084-0.348,0.127-0.74,0.127h-1.532h-0.454
				c-0.23,0-0.403-0.049-0.519-0.148c-0.114-0.098-0.173-0.25-0.173-0.459c0-0.224,0.065-0.377,0.197-0.457
				c0.132-0.082,0.389-0.123,0.771-0.123h0.172V84.251z"/>
			<path fill="#1B446B" d="M58.851,84.992c0,0.785-0.039,1.344-0.118,1.672c-0.078,0.328-0.213,0.614-0.403,0.862
				c-0.314,0.415-0.756,0.729-1.321,0.947c-0.567,0.216-1.235,0.323-2.004,0.323c-0.641,0-1.107-0.062-1.402-0.186
				c-0.294-0.123-0.44-0.32-0.44-0.59c0-0.174,0.07-0.326,0.215-0.459c0.143-0.131,0.312-0.197,0.509-0.197
				c0.151,0,0.385,0.021,0.699,0.062c0.313,0.043,0.553,0.062,0.716,0.062c0.83,0,1.42-0.189,1.768-0.572
				c0.35-0.381,0.522-1.035,0.522-1.961v-1.02c-0.343,0.398-0.722,0.689-1.137,0.876c-0.416,0.185-0.894,0.276-1.433,0.276
				c-1.05,0-1.918-0.35-2.604-1.049c-0.688-0.697-1.031-1.584-1.031-2.656c0-1.076,0.354-1.971,1.061-2.682
				c0.707-0.709,1.583-1.063,2.627-1.063c0.433,0,0.854,0.079,1.268,0.239s0.83,0.402,1.251,0.729v-0.606
				c0-0.117,0.038-0.205,0.113-0.26c0.075-0.058,0.194-0.086,0.357-0.086h1.271c0.225,0,0.394,0.051,0.506,0.146
				c0.112,0.098,0.168,0.246,0.168,0.441c0,0.225-0.07,0.383-0.21,0.473c-0.142,0.091-0.404,0.136-0.792,0.136h-0.151v6.14H58.851z
				 M55.196,78.904c-0.734,0-1.336,0.229-1.802,0.684c-0.466,0.453-0.698,1.043-0.698,1.768c0,0.713,0.232,1.299,0.698,1.756
				s1.066,0.686,1.802,0.686c0.729,0,1.329-0.229,1.799-0.686c0.469-0.457,0.702-1.043,0.702-1.756s-0.233-1.299-0.702-1.76
				C56.525,79.134,55.926,78.904,55.196,78.904z"/>
			<path fill="#1B446B" d="M62.934,81.919c0.044,0.809,0.318,1.433,0.82,1.873s1.188,0.66,2.059,0.66
				c0.657,0,1.372-0.176,2.147-0.525c0.773-0.352,1.243-0.526,1.404-0.526c0.17,0,0.31,0.054,0.422,0.16
				c0.111,0.106,0.169,0.239,0.169,0.396c0,0.164-0.06,0.312-0.178,0.446c-0.117,0.134-0.306,0.267-0.563,0.396
				c-0.562,0.275-1.142,0.486-1.738,0.633s-1.19,0.219-1.781,0.219c-1.278,0-2.304-0.369-3.071-1.105
				c-0.771-0.738-1.154-1.717-1.154-2.937c0-1.239,0.407-2.243,1.222-3.015c0.813-0.768,1.874-1.152,3.183-1.152
				c1.185,0,2.167,0.359,2.946,1.077c0.78,0.72,1.17,1.589,1.17,2.61c0,0.313-0.064,0.525-0.196,0.631
				c-0.132,0.107-0.49,0.16-1.073,0.16h-0.127H62.934L62.934,81.919z M62.976,80.815h5.48c-0.084-0.668-0.363-1.205-0.838-1.61
				c-0.475-0.408-1.058-0.611-1.747-0.611c-0.746,0-1.375,0.197-1.887,0.59C63.474,79.576,63.138,80.121,62.976,80.815z"/>
			<path fill="#1B446B" d="M86.222,87.518h1.421c0.163,0,0.296,0.045,0.397,0.135c0.101,0.091,0.15,0.21,0.15,0.362
				c0,0.162-0.048,0.293-0.144,0.391c-0.096,0.1-0.227,0.148-0.389,0.148h-2.271c-0.174,0-0.319-0.055-0.438-0.16
				c-0.117-0.107-0.177-0.238-0.177-0.396V76.009c0-0.158,0.06-0.289,0.177-0.396c0.118-0.105,0.265-0.16,0.438-0.16h2.271
				c0.162,0,0.293,0.047,0.389,0.139c0.096,0.095,0.144,0.222,0.144,0.385c0,0.15-0.051,0.273-0.15,0.369
				c-0.103,0.097-0.234,0.145-0.397,0.145h-1.421V87.518z"/>
			<path fill="#1B446B" d="M99.929,80.75c0-0.793-0.071-1.326-0.213-1.604c-0.144-0.278-0.386-0.417-0.731-0.417
				c-0.412,0-0.739,0.18-0.981,0.539s-0.363,0.854-0.363,1.482v3.502h0.151c0.343,0,0.57,0.041,0.687,0.121
				c0.114,0.082,0.172,0.234,0.172,0.459c0,0.203-0.047,0.354-0.143,0.455s-0.241,0.151-0.438,0.151H97
				c-0.242,0-0.406-0.058-0.493-0.169s-0.13-0.354-0.13-0.725V84.3v-3.553v-0.656c0-0.422-0.096-0.754-0.284-0.998
				c-0.189-0.244-0.449-0.366-0.777-0.366c-0.251,0-0.48,0.073-0.688,0.224c-0.209,0.148-0.39,0.368-0.539,0.662v4.639H94.4
				c0.336,0,0.563,0.041,0.683,0.125c0.118,0.086,0.177,0.236,0.177,0.455c0,0.229-0.048,0.39-0.145,0.477
				c-0.095,0.087-0.276,0.131-0.547,0.131h-2.253c-0.22,0-0.382-0.049-0.485-0.148c-0.104-0.098-0.157-0.25-0.157-0.459
				c0-0.224,0.065-0.377,0.198-0.457c0.132-0.082,0.389-0.123,0.771-0.123h0.168v-5.396h-0.15c-0.394,0-0.661-0.045-0.805-0.136
				c-0.144-0.09-0.215-0.247-0.215-0.473c0-0.195,0.057-0.344,0.169-0.44c0.113-0.099,0.282-0.147,0.508-0.147h1.295
				c0.188,0,0.312,0.032,0.371,0.098c0.062,0.064,0.097,0.201,0.107,0.408c0.229-0.246,0.475-0.43,0.736-0.547
				c0.263-0.117,0.559-0.178,0.888-0.178c0.391,0,0.714,0.085,0.968,0.258c0.254,0.172,0.442,0.43,0.565,0.778
				c0.234-0.354,0.508-0.614,0.815-0.783c0.309-0.168,0.662-0.253,1.062-0.253c0.725,0,1.253,0.234,1.587,0.708
				c0.334,0.472,0.501,1.233,0.501,2.289v3.813h0.135c0.349,0,0.581,0.043,0.699,0.127s0.177,0.234,0.177,0.453
				c0,0.203-0.051,0.354-0.151,0.455c-0.102,0.103-0.25,0.152-0.445,0.152h-1.027c-0.228,0-0.395-0.068-0.503-0.203
				s-0.162-0.348-0.162-0.639V80.75H99.929z"/>
			<path fill="#1B446B" d="M107.952,84.251h2.702c0.22,0,0.381,0.047,0.484,0.139c0.104,0.093,0.155,0.24,0.155,0.441
				c0,0.229-0.049,0.389-0.147,0.477c-0.098,0.087-0.278,0.131-0.543,0.131h-6.533c-0.225,0-0.393-0.051-0.505-0.152
				c-0.111-0.101-0.169-0.252-0.169-0.455c0-0.195,0.061-0.342,0.178-0.438s0.295-0.143,0.529-0.143h2.568v-5.396h-1.643
				c-0.229,0-0.405-0.053-0.525-0.156c-0.121-0.104-0.182-0.254-0.182-0.451c0-0.195,0.057-0.344,0.169-0.44
				c0.111-0.097,0.279-0.147,0.505-0.147h2.467c0.151,0,0.271,0.031,0.357,0.094c0.088,0.062,0.131,0.146,0.131,0.252
				L107.952,84.251L107.952,84.251z M106.395,75.233c0-0.604,0.056-0.987,0.165-1.146c0.109-0.156,0.344-0.235,0.702-0.235
				c0.349,0,0.578,0.065,0.69,0.198c0.111,0.132,0.169,0.443,0.169,0.938c0,0.482-0.053,0.781-0.156,0.896
				c-0.104,0.115-0.338,0.173-0.703,0.173c-0.358,0-0.593-0.054-0.702-0.159C106.448,75.792,106.395,75.57,106.395,75.233z"/>
			<path fill="#1B446B" d="M114.385,84.251v-5.396h-0.159c-0.382,0-0.645-0.045-0.788-0.135c-0.143-0.09-0.214-0.248-0.214-0.473
				c0-0.207,0.06-0.357,0.177-0.449c0.117-0.094,0.31-0.141,0.572-0.141h0.396h0.809c0.151,0,0.27,0.031,0.354,0.094
				c0.085,0.062,0.127,0.146,0.127,0.252v0.572c0.409-0.382,0.814-0.662,1.217-0.847c0.4-0.183,0.817-0.272,1.25-0.272
				c0.848,0,1.515,0.264,2,0.791c0.484,0.527,0.729,1.258,0.729,2.188v3.813h0.396c0.279,0,0.481,0.047,0.605,0.14
				c0.123,0.093,0.186,0.239,0.186,0.44c0,0.221-0.065,0.375-0.197,0.469c-0.132,0.093-0.366,0.14-0.703,0.14h-1.86
				c-0.358,0-0.59-0.043-0.689-0.127c-0.103-0.084-0.152-0.244-0.152-0.479c0-0.219,0.061-0.369,0.178-0.455
				c0.117-0.084,0.34-0.125,0.665-0.125h0.295V80.75c0-0.658-0.148-1.158-0.446-1.504c-0.297-0.346-0.729-0.519-1.296-0.519
				c-0.573,0-1.078,0.192-1.517,0.581c-0.438,0.389-0.656,0.867-0.656,1.439v3.502h0.295c0.337,0,0.563,0.043,0.682,0.127
				s0.177,0.234,0.177,0.453c0,0.236-0.05,0.396-0.15,0.48c-0.102,0.084-0.349,0.127-0.74,0.127h-1.533h-0.454
				c-0.229,0-0.402-0.049-0.518-0.148c-0.115-0.098-0.173-0.25-0.173-0.459c0-0.224,0.064-0.377,0.196-0.457
				c0.133-0.082,0.39-0.123,0.771-0.123h0.171V84.251z"/>
			<path fill="#1B446B" d="M126.87,83.089c0.045-0.19,0.104-0.312,0.177-0.366s0.196-0.08,0.371-0.08h1.844
				c0.084,0,0.151,0.017,0.202,0.051c0.05,0.034,0.075,0.075,0.075,0.126c0,0.028-0.005,0.064-0.018,0.109
				c-0.012,0.045-0.027,0.088-0.051,0.127l-2.315,4.814c-0.038,0.086-0.092,0.151-0.158,0.203c-0.067,0.051-0.142,0.075-0.221,0.075
				c-0.017,0-0.034-0.004-0.055-0.009c-0.02-0.006-0.052-0.018-0.097-0.034l-0.589-0.22c-0.091-0.038-0.157-0.084-0.202-0.135
				s-0.067-0.108-0.067-0.176c0-0.062,0-0.105,0-0.131s0.006-0.053,0.018-0.08L126.87,83.089z"/>
			<path fill="#1B446B" d="M141.318,80.75c0-0.793-0.07-1.326-0.213-1.604s-0.386-0.417-0.73-0.417c-0.412,0-0.74,0.18-0.982,0.539
				s-0.363,0.854-0.363,1.482v3.502h0.151c0.343,0,0.571,0.041,0.688,0.121c0.113,0.082,0.172,0.234,0.172,0.459
				c0,0.203-0.047,0.354-0.144,0.455c-0.096,0.102-0.241,0.151-0.438,0.151h-1.069c-0.242,0-0.406-0.058-0.493-0.169
				s-0.13-0.354-0.13-0.725V84.3v-3.553v-0.656c0-0.422-0.095-0.754-0.284-0.998c-0.188-0.244-0.449-0.366-0.776-0.366
				c-0.251,0-0.481,0.073-0.689,0.224c-0.209,0.148-0.389,0.368-0.539,0.662v4.639h0.312c0.336,0,0.562,0.041,0.682,0.125
				c0.118,0.086,0.177,0.236,0.177,0.455c0,0.229-0.048,0.39-0.144,0.477c-0.095,0.087-0.277,0.131-0.547,0.131h-2.253
				c-0.221,0-0.383-0.049-0.486-0.148c-0.104-0.098-0.157-0.25-0.157-0.459c0-0.224,0.066-0.377,0.198-0.457
				c0.132-0.082,0.389-0.123,0.771-0.123h0.168v-5.396h-0.15c-0.394,0-0.661-0.045-0.804-0.136c-0.145-0.09-0.216-0.247-0.216-0.473
				c0-0.195,0.058-0.344,0.169-0.44c0.113-0.099,0.282-0.147,0.509-0.147H135c0.188,0,0.312,0.032,0.371,0.098
				c0.061,0.064,0.096,0.201,0.106,0.408c0.229-0.246,0.476-0.43,0.736-0.547c0.263-0.117,0.559-0.178,0.888-0.178
				c0.392,0,0.714,0.085,0.968,0.258c0.254,0.172,0.442,0.43,0.565,0.778c0.235-0.354,0.508-0.614,0.816-0.783
				c0.308-0.168,0.661-0.253,1.061-0.253c0.725,0,1.253,0.234,1.587,0.708c0.334,0.472,0.501,1.233,0.501,2.289v3.813h0.135
				c0.35,0,0.581,0.043,0.699,0.127s0.177,0.234,0.177,0.453c0,0.203-0.051,0.354-0.15,0.455c-0.103,0.103-0.25,0.152-0.446,0.152
				h-1.027c-0.228,0-0.395-0.068-0.503-0.203c-0.107-0.135-0.162-0.348-0.162-0.639V80.75H141.318z"/>
			<path fill="#1B446B" d="M150.496,84.369c-0.461,0.416-0.962,0.731-1.503,0.951c-0.542,0.219-1.1,0.328-1.673,0.328
				c-0.836,0-1.511-0.232-2.023-0.697c-0.515-0.468-0.771-1.072-0.771-1.82c0-0.887,0.342-1.573,1.022-2.062
				c0.683-0.487,1.641-0.731,2.876-0.731c0.325,0,0.653,0.021,0.984,0.062c0.33,0.041,0.671,0.107,1.02,0.197v-0.059
				c0-0.646-0.155-1.123-0.464-1.433c-0.31-0.31-0.788-0.463-1.439-0.463c-0.438,0-0.926,0.116-1.465,0.354
				c-0.539,0.236-0.896,0.354-1.068,0.354c-0.163,0-0.299-0.066-0.404-0.197c-0.106-0.133-0.16-0.303-0.16-0.51
				c0-0.331,0.311-0.611,0.931-0.842s1.413-0.346,2.379-0.346c0.987,0,1.734,0.252,2.239,0.754s0.758,1.244,0.758,2.227v3.814h0.412
				c0.398,0,0.665,0.041,0.8,0.125c0.136,0.086,0.202,0.236,0.202,0.455c0,0.203-0.056,0.354-0.168,0.455
				c-0.111,0.102-0.281,0.151-0.505,0.151h-1.322c-0.156,0-0.285-0.049-0.388-0.144c-0.101-0.096-0.168-0.233-0.201-0.414
				L150.496,84.369z M150.429,81.716c-0.31-0.1-0.608-0.176-0.897-0.223c-0.288-0.047-0.575-0.072-0.861-0.072
				c-0.864,0-1.547,0.146-2.046,0.438c-0.5,0.291-0.75,0.685-0.75,1.179c0,0.383,0.155,0.695,0.468,0.942
				c0.312,0.247,0.708,0.371,1.19,0.371c0.714,0,1.373-0.188,1.982-0.562s0.914-0.762,0.914-1.166V81.716L150.429,81.716z"/>
			<path fill="#1B446B" d="M157.063,84.251h0.244c0.28,0,0.499,0.051,0.656,0.156c0.157,0.104,0.234,0.25,0.234,0.44
				c0,0.202-0.067,0.353-0.205,0.446c-0.139,0.094-0.354,0.144-0.652,0.144h-2.324c-0.168,0-0.309-0.058-0.421-0.169
				s-0.168-0.253-0.168-0.421c0-0.207,0.076-0.358,0.228-0.455c0.151-0.095,0.394-0.144,0.725-0.144h0.169l2.728-2.795l-2.678-2.602
				h-0.117c-0.326,0-0.552-0.044-0.678-0.131c-0.127-0.088-0.189-0.24-0.189-0.459c0-0.23,0.071-0.389,0.215-0.477
				c0.144-0.086,0.417-0.131,0.82-0.131h1.728c0.303,0,0.521,0.051,0.66,0.146c0.138,0.098,0.207,0.253,0.207,0.459
				c0,0.191-0.078,0.338-0.232,0.439s-0.377,0.151-0.669,0.151h-0.067l1.812,1.774l1.726-1.774h-0.177
				c-0.314,0-0.547-0.047-0.699-0.14c-0.15-0.094-0.227-0.237-0.227-0.434c0-0.22,0.066-0.379,0.202-0.477
				c0.135-0.098,0.354-0.146,0.655-0.146h2.189c0.174,0,0.314,0.055,0.425,0.164c0.109,0.109,0.164,0.25,0.164,0.424
				c0,0.209-0.07,0.361-0.21,0.459c-0.141,0.1-0.365,0.148-0.674,0.148h-0.235l-2.417,2.518l2.947,2.879h0.084
				c0.213,0,0.379,0.053,0.497,0.156c0.117,0.104,0.177,0.25,0.177,0.441c0,0.225-0.067,0.379-0.202,0.463s-0.413,0.127-0.834,0.127
				h-1.718c-0.297,0-0.517-0.049-0.656-0.145c-0.141-0.094-0.211-0.244-0.211-0.445c0-0.186,0.067-0.331,0.202-0.438
				c0.135-0.107,0.32-0.16,0.556-0.16h0.473l-2.122-2.072L157.063,84.251z"/>
			<path fill="#1B446B" d="M169.524,76.488h-1.421c-0.169,0-0.303-0.046-0.4-0.14c-0.1-0.093-0.148-0.218-0.148-0.374
				c0-0.163,0.047-0.29,0.14-0.385c0.094-0.092,0.225-0.139,0.395-0.139h2.262c0.18,0,0.329,0.055,0.446,0.16
				c0.118,0.107,0.177,0.238,0.177,0.396v11.988c0,0.157-0.059,0.289-0.177,0.396c-0.117,0.106-0.268,0.159-0.446,0.159h-2.262
				c-0.164,0-0.294-0.049-0.391-0.147c-0.096-0.098-0.144-0.229-0.144-0.392c0-0.157,0.05-0.278,0.148-0.366
				c0.099-0.086,0.231-0.13,0.4-0.13h1.421V76.488z"/>
		</g>
	</g>
	<g>
		<g>
			<path fill="#1B446B" d="M26.812,12.833c0.137-0.246,0.277-0.42,0.42-0.523c0.144-0.103,0.325-0.154,0.543-0.154
				c0.335,0,0.572,0.089,0.713,0.267c0.141,0.178,0.21,0.482,0.21,0.913l0.021,2.666c0,0.472-0.077,0.79-0.23,0.954
				s-0.433,0.246-0.836,0.246c-0.287,0-0.508-0.068-0.66-0.205c-0.154-0.137-0.286-0.39-0.396-0.759
				c-0.178-0.649-0.461-1.116-0.851-1.4c-0.391-0.283-0.931-0.425-1.62-0.425c-1.054,0-1.859,0.355-2.42,1.066
				c-0.562,0.711-0.842,1.74-0.842,3.086c0,1.34,0.284,2.369,0.852,3.086c0.567,0.717,1.377,1.077,2.43,1.077
				c0.718,0,1.509-0.239,2.374-0.718c0.864-0.479,1.41-0.718,1.635-0.718c0.268,0,0.49,0.113,0.672,0.338
				c0.181,0.225,0.271,0.506,0.271,0.841c0,0.603-0.53,1.169-1.589,1.702c-1.059,0.533-2.252,0.8-3.579,0.8
				c-1.791,0-3.24-0.591-4.348-1.774c-1.108-1.183-1.661-2.729-1.661-4.635c0-1.839,0.561-3.367,1.682-4.583
				c1.121-1.216,2.543-1.825,4.267-1.825c0.484,0,0.964,0.055,1.436,0.164S26.279,12.601,26.812,12.833z"/>
			<path fill="#1B446B" d="M36.194,14.956c1.661,0,3.009,0.465,4.04,1.395c1.032,0.93,1.548,2.123,1.548,3.579
				c0,1.463-0.516,2.659-1.548,3.589c-1.031,0.93-2.379,1.395-4.04,1.395c-1.653,0-2.998-0.465-4.029-1.395
				c-1.032-0.93-1.548-2.126-1.548-3.589c0-1.456,0.518-2.649,1.554-3.579C33.205,15.42,34.547,14.956,36.194,14.956z
				 M36.194,17.119c-0.8,0-1.458,0.261-1.974,0.785c-0.517,0.521-0.774,1.19-0.774,2.004c0,0.82,0.259,1.499,0.774,2.036
				c0.516,0.537,1.174,0.805,1.974,0.805c0.801,0,1.459-0.268,1.979-0.805c0.52-0.537,0.779-1.215,0.779-2.036
				c0-0.813-0.259-1.482-0.774-2.004C37.662,17.38,37.001,17.119,36.194,17.119z"/>
			<path fill="#1B446B" d="M53.103,22.39h0.133c0.384,0,0.67,0.094,0.861,0.282s0.287,0.47,0.287,0.846
				c0,0.403-0.097,0.694-0.292,0.872c-0.194,0.178-0.524,0.267-0.989,0.267h-2.521c-0.458,0-0.788-0.089-0.989-0.267
				c-0.202-0.178-0.303-0.468-0.303-0.872c0-0.376,0.098-0.658,0.292-0.846s0.486-0.282,0.877-0.282h0.123v-2.963
				c0-0.82-0.115-1.403-0.345-1.748c-0.229-0.345-0.609-0.518-1.143-0.518c-0.567,0-1.031,0.207-1.389,0.621
				c-0.359,0.414-0.539,0.962-0.539,1.646v2.963h0.123c0.39,0,0.68,0.094,0.872,0.282c0.19,0.188,0.286,0.47,0.286,0.846
				c0,0.403-0.099,0.694-0.297,0.872c-0.197,0.178-0.525,0.267-0.983,0.267h-2.543c-0.458,0-0.786-0.089-0.984-0.267
				c-0.198-0.178-0.297-0.468-0.297-0.872c0-0.376,0.096-0.658,0.287-0.846c0.19-0.188,0.481-0.282,0.872-0.282h0.123v-4.963h-0.174
				c-0.369,0-0.649-0.094-0.842-0.282c-0.191-0.188-0.287-0.463-0.287-0.826c0-0.403,0.1-0.694,0.298-0.872
				c0.197-0.178,0.532-0.267,1.005-0.267h1.743c0.19,0,0.336,0.038,0.436,0.113c0.099,0.075,0.148,0.185,0.148,0.328v0.8
				c0.313-0.492,0.716-0.863,1.204-1.113c0.488-0.249,1.055-0.374,1.697-0.374c1.094,0,1.909,0.332,2.446,0.995
				c0.536,0.663,0.805,1.675,0.805,3.035v3.425H53.103z"/>
			<path fill="#1B446B" d="M58.691,24.512c-0.178,0.137-0.36,0.241-0.549,0.312c-0.188,0.072-0.381,0.108-0.579,0.108
				c-0.294,0-0.501-0.079-0.62-0.236c-0.12-0.157-0.18-0.451-0.18-0.882V22.45c0-0.451,0.075-0.771,0.226-0.958
				c0.151-0.187,0.41-0.282,0.779-0.282c0.403,0,0.731,0.195,0.984,0.584c0.149,0.212,0.276,0.369,0.379,0.472
				c0.335,0.301,0.725,0.526,1.169,0.677s0.95,0.226,1.518,0.226c0.492,0,0.886-0.096,1.18-0.287c0.294-0.191,0.44-0.441,0.44-0.749
				c0-0.554-0.79-0.937-2.369-1.148c-0.349-0.041-0.622-0.079-0.819-0.113c-1.189-0.164-2.075-0.487-2.656-0.969
				c-0.581-0.481-0.872-1.129-0.872-1.943c0-0.964,0.349-1.709,1.046-2.235s1.692-0.79,2.984-0.79c0.443,0,0.899,0.036,1.369,0.107
				c0.468,0.072,0.948,0.183,1.44,0.333c0.145-0.171,0.295-0.297,0.457-0.379c0.16-0.082,0.34-0.123,0.538-0.123
				c0.28,0,0.494,0.087,0.641,0.262c0.147,0.174,0.222,0.437,0.222,0.784v1.261c0,0.294-0.075,0.521-0.227,0.682
				c-0.15,0.161-0.361,0.241-0.636,0.241c-0.28,0-0.761-0.244-1.439-0.733c-0.682-0.489-1.362-0.733-2.047-0.733
				c-0.532,0-0.946,0.087-1.24,0.262c-0.294,0.174-0.441,0.415-0.441,0.723c0,0.479,0.615,0.8,1.846,0.964
				c0.355,0.041,0.637,0.075,0.842,0.103c1.545,0.226,2.605,0.562,3.184,1.01c0.578,0.448,0.867,1.113,0.867,1.995
				c0,1.032-0.381,1.831-1.144,2.394c-0.763,0.564-1.844,0.846-3.246,0.846c-0.547,0-1.072-0.036-1.578-0.108
				C59.652,24.753,59.163,24.649,58.691,24.512z"/>
			<path fill="#1B446B" d="M73.293,15.755h3.127c0.472,0,0.807,0.085,1.005,0.256c0.198,0.171,0.297,0.455,0.297,0.852
				c0,0.403-0.101,0.694-0.302,0.872c-0.202,0.178-0.535,0.267-1,0.267h-3.127v2.625c0,0.738,0.112,1.244,0.338,1.518
				c0.225,0.274,0.622,0.41,1.188,0.41c0.533,0,1.162-0.154,1.888-0.461c0.725-0.307,1.21-0.461,1.456-0.461
				c0.279,0,0.521,0.111,0.723,0.333c0.202,0.222,0.303,0.49,0.303,0.805c0,0.526-0.477,1.007-1.431,1.44
				c-0.953,0.435-2.035,0.651-3.245,0.651c-0.704,0-1.323-0.096-1.856-0.287c-0.532-0.191-0.953-0.465-1.261-0.82
				c-0.226-0.273-0.386-0.602-0.481-0.984c-0.097-0.382-0.145-1.022-0.145-1.917v-0.226v-2.625h-0.964
				c-0.465,0-0.794-0.089-0.99-0.267c-0.193-0.178-0.292-0.468-0.292-0.872c0-0.404,0.097-0.688,0.287-0.856
				c0.191-0.167,0.523-0.251,0.995-0.251h0.964v-2.399c0-0.472,0.098-0.803,0.292-0.995s0.519-0.287,0.969-0.287
				c0.451,0,0.775,0.095,0.97,0.286s0.292,0.523,0.292,0.995L73.293,15.755L73.293,15.755z"/>
			<path fill="#1B446B" d="M90.786,22.41h0.164c0.368,0,0.65,0.097,0.846,0.292c0.195,0.194,0.292,0.473,0.292,0.835
				c0,0.396-0.102,0.682-0.302,0.856c-0.202,0.175-0.535,0.262-1,0.262h-0.965c-0.342,0-0.597-0.065-0.764-0.195
				c-0.168-0.13-0.306-0.366-0.416-0.708c-0.566,0.376-1.169,0.663-1.805,0.861c-0.636,0.198-1.278,0.297-1.928,0.297
				c-1.102,0-1.966-0.273-2.595-0.82s-0.942-1.295-0.942-2.246c0-1.025,0.406-1.822,1.22-2.389c0.812-0.567,1.955-0.851,3.425-0.851
				c0.328,0,0.677,0.017,1.046,0.051c0.369,0.034,0.783,0.089,1.241,0.164v-0.195c0-0.615-0.148-1.083-0.446-1.405
				c-0.297-0.321-0.735-0.481-1.316-0.481c-0.451,0-1.027,0.167-1.729,0.502s-1.215,0.502-1.543,0.502
				c-0.321,0-0.581-0.094-0.778-0.282c-0.198-0.188-0.298-0.436-0.298-0.743c0-0.554,0.405-0.993,1.216-1.317
				c0.811-0.325,1.912-0.487,3.307-0.487c1.456,0,2.499,0.28,3.127,0.841s0.943,1.511,0.943,2.851V22.41z M88.305,20.431
				c-0.342-0.075-0.656-0.131-0.943-0.169c-0.286-0.038-0.554-0.057-0.8-0.057c-0.752,0-1.342,0.126-1.769,0.379
				c-0.429,0.253-0.642,0.602-0.642,1.046c0,0.396,0.138,0.699,0.41,0.908c0.273,0.209,0.667,0.312,1.18,0.312
				c0.472,0,0.915-0.068,1.332-0.205c0.418-0.137,0.827-0.349,1.23-0.636L88.305,20.431L88.305,20.431z"/>
			<path fill="#1B446B" d="M98.743,19.088v3.322h2.42c0.465,0,0.794,0.085,0.989,0.256c0.194,0.171,0.292,0.455,0.292,0.851
				c0,0.403-0.098,0.694-0.292,0.872c-0.194,0.178-0.524,0.267-0.989,0.267h-5.732c-0.472,0-0.807-0.089-1.005-0.267
				c-0.198-0.178-0.297-0.468-0.297-0.872c0-0.396,0.097-0.68,0.292-0.851c0.193-0.171,0.531-0.256,1.01-0.256h0.779v-4.983h-0.44
				c-0.465,0-0.794-0.087-0.99-0.261c-0.193-0.175-0.292-0.463-0.292-0.867c0-0.404,0.095-0.69,0.282-0.861
				c0.188-0.171,0.521-0.256,1-0.256h2.185c0.185,0,0.327,0.04,0.431,0.118c0.103,0.078,0.154,0.186,0.154,0.323v1.518
				c0.745-0.8,1.44-1.371,2.086-1.712c0.646-0.342,1.342-0.513,2.087-0.513c0.677,0,1.213,0.152,1.609,0.456
				c0.396,0.305,0.596,0.713,0.596,1.226c0,0.396-0.138,0.723-0.41,0.979c-0.273,0.256-0.625,0.384-1.056,0.384
				c-0.309,0-0.673-0.113-1.093-0.338c-0.421-0.226-0.713-0.338-0.877-0.338c-0.328,0-0.714,0.147-1.159,0.441
				C99.878,18.02,99.352,18.473,98.743,19.088z"/>
			<path fill="#1B446B" d="M113.242,22.41h2.204c0.473,0,0.808,0.085,1.006,0.256c0.197,0.171,0.297,0.455,0.297,0.851
				c0,0.403-0.102,0.694-0.304,0.872c-0.201,0.178-0.534,0.267-1,0.267h-6.932c-0.465,0-0.798-0.089-1-0.267
				c-0.202-0.178-0.303-0.468-0.303-0.872c0-0.396,0.098-0.68,0.292-0.851s0.532-0.256,1.01-0.256h2.205v-4.983h-1.159
				c-0.458,0-0.786-0.087-0.983-0.261c-0.198-0.175-0.298-0.463-0.298-0.867c0-0.404,0.097-0.69,0.287-0.861
				c0.191-0.171,0.523-0.256,0.995-0.256h3.086c0.191,0,0.338,0.04,0.441,0.118c0.103,0.078,0.154,0.186,0.154,0.323L113.242,22.41
				L113.242,22.41z M111.766,10.546c0.499,0,0.831,0.096,0.995,0.287s0.246,0.649,0.246,1.374c0,0.697-0.074,1.13-0.22,1.297
				c-0.147,0.168-0.494,0.251-1.041,0.251c-0.533,0-0.877-0.079-1.03-0.236c-0.154-0.157-0.231-0.472-0.231-0.943
				c0-0.875,0.079-1.432,0.236-1.671C110.878,10.666,111.226,10.546,111.766,10.546z"/>
			<path fill="#1B446B" d="M128.715,22.39h0.134c0.383,0,0.67,0.094,0.861,0.282c0.19,0.188,0.287,0.47,0.287,0.846
				c0,0.403-0.098,0.694-0.292,0.872c-0.195,0.178-0.525,0.267-0.99,0.267h-2.521c-0.459,0-0.789-0.089-0.989-0.267
				c-0.201-0.178-0.304-0.468-0.304-0.872c0-0.376,0.099-0.658,0.293-0.846c0.195-0.188,0.486-0.282,0.877-0.282h0.123v-2.963
				c0-0.82-0.114-1.403-0.344-1.748c-0.229-0.345-0.61-0.518-1.144-0.518c-0.567,0-1.03,0.207-1.391,0.621
				c-0.359,0.414-0.538,0.962-0.538,1.646v2.963h0.123c0.391,0,0.682,0.094,0.872,0.282c0.191,0.188,0.287,0.47,0.287,0.846
				c0,0.403-0.1,0.694-0.298,0.872c-0.198,0.178-0.526,0.267-0.984,0.267h-2.543c-0.458,0-0.786-0.089-0.983-0.267
				c-0.198-0.178-0.297-0.468-0.297-0.872c0-0.376,0.096-0.658,0.286-0.846c0.191-0.188,0.482-0.282,0.872-0.282h0.123v-4.963
				h-0.174c-0.369,0-0.648-0.094-0.841-0.282s-0.287-0.463-0.287-0.826c0-0.403,0.099-0.694,0.297-0.872
				c0.198-0.178,0.533-0.267,1.005-0.267h1.743c0.191,0,0.336,0.038,0.437,0.113c0.1,0.075,0.147,0.185,0.147,0.328v0.8
				c0.314-0.492,0.717-0.863,1.205-1.113c0.488-0.249,1.055-0.374,1.697-0.374c1.094,0,1.908,0.332,2.445,0.995
				c0.536,0.663,0.805,1.675,0.805,3.035V22.39z"/>
		</g>
	</g>
</g>
</svg>
