<?xml version="1.0" encoding="utf-8"?>
<!-- Generator: Adobe Illustrator 16.0.0, SVG Export Plug-In . SVG Version: 6.00 Build 0)  -->
<!DOCTYPE svg PUBLIC "-//W3C//DTD SVG 1.1//EN" "http://www.w3.org/Graphics/SVG/1.1/DTD/svg11.dtd">
<svg version="1.1" id="Layer_1" xmlns="http://www.w3.org/2000/svg" xmlns:xlink="http://www.w3.org/1999/xlink" x="0px" y="0px"
	 width="78.988px" height="57.988px" viewBox="0 0 78.988 57.988" enable-background="new 0 0 78.988 57.988" xml:space="preserve">
<g>
	<g>
		<path fill="#84A2CD" d="M78.988,51.312c0,3.688-2.988,6.676-6.676,6.676H6.677C2.99,57.988,0,55,0,51.312V6.676
			C0,2.989,2.99,0,6.677,0h65.637C76,0,78.988,2.989,78.988,6.676V51.312z"/>
	</g>
</g>
<g>
	<path fill="#1B446B" d="M30.933,25.82c0.082-0.267,0.21-0.467,0.384-0.6c0.175-0.134,0.397-0.2,0.672-0.2
		c0.369,0,0.632,0.111,0.79,0.333c0.157,0.223,0.236,0.607,0.236,1.154v1.682c0,0.417-0.085,0.725-0.256,0.923
		c-0.172,0.198-0.435,0.297-0.79,0.297c-0.254,0-0.466-0.058-0.637-0.174c-0.171-0.116-0.352-0.338-0.543-0.667
		c-0.272-0.465-0.632-0.808-1.077-1.03c-0.444-0.222-0.987-0.333-1.63-0.333c-0.8,0-1.455,0.261-1.963,0.785
		c-0.51,0.521-0.764,1.191-0.764,2.003c0,0.854,0.263,1.541,0.79,2.062c0.526,0.521,1.233,0.778,2.123,0.778
		c0.807,0,1.607-0.223,2.404-0.672c0.797-0.447,1.283-0.67,1.462-0.67c0.253,0,0.463,0.096,0.631,0.291
		c0.167,0.195,0.251,0.439,0.251,0.733c0,0.644-0.487,1.217-1.461,1.724c-0.976,0.506-2.132,0.758-3.472,0.758
		c-1.653,0-3-0.465-4.035-1.395s-1.554-2.126-1.554-3.589c0-1.429,0.514-2.618,1.538-3.568c1.025-0.95,2.317-1.425,3.876-1.425
		c0.526,0,1.039,0.065,1.538,0.195S30.441,25.546,30.933,25.82z"/>
	<path fill="#1B446B" d="M40.49,25.041c1.66,0,3.008,0.465,4.039,1.395c1.033,0.93,1.549,2.123,1.549,3.579
		c0,1.463-0.516,2.658-1.549,3.589C43.498,34.535,42.15,35,40.49,35c-1.655,0-2.998-0.465-4.03-1.396
		c-1.031-0.931-1.548-2.126-1.548-3.589c0-1.456,0.519-2.649,1.554-3.579C37.5,25.505,38.842,25.041,40.49,25.041z M40.49,27.204
		c-0.8,0-1.458,0.261-1.974,0.785c-0.518,0.521-0.774,1.191-0.774,2.004c0,0.819,0.258,1.498,0.774,2.034
		c0.516,0.537,1.174,0.806,1.974,0.806c0.799,0,1.459-0.269,1.979-0.806c0.52-0.536,0.778-1.215,0.778-2.034
		c0-0.813-0.258-1.483-0.772-2.004C41.957,27.465,41.297,27.204,40.49,27.204z"/>
	<path fill="#1B446B" d="M50.385,34.597c-0.179,0.137-0.361,0.242-0.55,0.312c-0.188,0.071-0.381,0.107-0.579,0.107
		c-0.294,0-0.501-0.079-0.619-0.234c-0.12-0.158-0.181-0.451-0.181-0.884v-1.362c0-0.451,0.075-0.771,0.227-0.959
		c0.149-0.188,0.41-0.281,0.778-0.281c0.403,0,0.731,0.193,0.984,0.584c0.15,0.211,0.276,0.369,0.38,0.472
		c0.334,0.301,0.726,0.526,1.168,0.677c0.445,0.15,0.951,0.227,1.519,0.227c0.491,0,0.886-0.096,1.18-0.287s0.44-0.44,0.44-0.75
		c0-0.553-0.789-0.936-2.368-1.146c-0.35-0.041-0.622-0.078-0.82-0.113c-1.189-0.164-2.074-0.486-2.656-0.969
		c-0.58-0.482-0.871-1.13-0.871-1.943c0-0.964,0.35-1.709,1.046-2.235c0.697-0.526,1.692-0.79,2.983-0.79
		c0.445,0,0.9,0.036,1.369,0.107c0.469,0.072,0.949,0.183,1.44,0.333c0.144-0.171,0.296-0.297,0.456-0.379s0.341-0.123,0.538-0.123
		c0.28,0,0.494,0.087,0.642,0.262c0.146,0.174,0.221,0.436,0.221,0.784v1.261c0,0.294-0.075,0.521-0.226,0.682
		c-0.151,0.161-0.362,0.241-0.637,0.241c-0.279,0-0.761-0.244-1.439-0.733c-0.682-0.489-1.362-0.733-2.046-0.733
		c-0.533,0-0.947,0.087-1.24,0.262c-0.295,0.174-0.441,0.415-0.441,0.723c0,0.479,0.615,0.8,1.847,0.964
		c0.354,0.041,0.636,0.075,0.841,0.103c1.545,0.226,2.605,0.562,3.184,1.011c0.577,0.448,0.866,1.112,0.866,1.994
		c0,1.032-0.381,1.832-1.143,2.395c-0.764,0.564-1.845,0.847-3.246,0.847c-0.547,0-1.072-0.036-1.578-0.108
		C51.346,34.839,50.856,34.733,50.385,34.597z"/>
</g>
</svg>
