<?xml version="1.0" encoding="utf-8"?>
<!-- Generator: Adobe Illustrator 16.0.0, SVG Export Plug-In . SVG Version: 6.00 Build 0)  -->
<!DOCTYPE svg PUBLIC "-//W3C//DTD SVG 1.1//EN" "http://www.w3.org/Graphics/SVG/1.1/DTD/svg11.dtd">
<svg version="1.1" id="Layer_1" xmlns="http://www.w3.org/2000/svg" xmlns:xlink="http://www.w3.org/1999/xlink" x="0px" y="0px"
	 width="57.986px" height="57.988px" viewBox="0 0 57.986 57.988" enable-background="new 0 0 57.986 57.988" xml:space="preserve">
<g>
	<g>
		<path fill="#46B7BE" d="M57.986,51.311c0,3.688-2.988,6.678-6.676,6.678H6.677C2.988,57.988,0,54.999,0,51.311V6.676
			C0,2.989,2.988,0,6.677,0h44.635c3.688,0,6.676,2.989,6.676,6.676L57.986,51.311L57.986,51.311z"/>
		<g>
			<path fill="#0C5657" d="M36.145,19.043L25.844,41.104c-0.316,0.691-0.609,1.172-0.88,1.441c-0.27,0.27-0.586,0.404-0.948,0.404
				c-0.539,0-1.019-0.17-1.435-0.51s-0.623-0.763-0.623-1.267c0-0.34,0.158-0.866,0.476-1.582l0.035-0.069l10.282-22.025
				c0.328-0.715,0.627-1.207,0.896-1.477c0.269-0.27,0.586-0.404,0.949-0.404c0.526,0,1.002,0.17,1.424,0.51
				s0.633,0.762,0.633,1.266c0,0.211-0.035,0.434-0.105,0.668C36.479,18.293,36.344,18.622,36.145,19.043z"/>
		</g>
	</g>
</g>
</svg>
