<?xml version="1.0" encoding="utf-8"?>
<!-- Generator: Adobe Illustrator 16.0.0, SVG Export Plug-In . SVG Version: 6.00 Build 0)  -->
<!DOCTYPE svg PUBLIC "-//W3C//DTD SVG 1.1//EN" "http://www.w3.org/Graphics/SVG/1.1/DTD/svg11.dtd">
<svg version="1.1" id="Layer_1" xmlns="http://www.w3.org/2000/svg" xmlns:xlink="http://www.w3.org/1999/xlink" x="0px" y="0px"
	 width="240.704px" height="118.132px" viewBox="0 0 240.704 118.132" enable-background="new 0 0 240.704 118.132"
	 xml:space="preserve">
<g>
	<g>
		<path fill="#F7C55A" d="M240.704,110.402c0,4.268-3.461,7.73-7.731,7.73H7.729c-4.266,0-7.729-3.463-7.729-7.73V7.732
			C0,3.46,3.463,0,7.729,0h225.243c4.271,0,7.731,3.46,7.731,7.732V110.402z"/>
		<path fill="#F8E5AE" d="M0,36.092v74.31c0,4.268,3.463,7.73,7.729,7.73h225.243c4.271,0,7.729-3.463,7.729-7.73v-74.31H0z"/>
		<g>
			<path fill="#754E1F" d="M26.95,57.835c0.432,0,0.708,0.041,0.829,0.122c0.12,0.082,0.181,0.234,0.181,0.458
				c0,0.23-0.061,0.389-0.181,0.476c-0.121,0.087-0.397,0.13-0.829,0.13h-5.111h-0.396c-0.202,0-0.356-0.05-0.463-0.151
				c-0.107-0.101-0.16-0.253-0.16-0.455c0-0.224,0.062-0.377,0.186-0.458c0.123-0.082,0.401-0.122,0.833-0.122h1.903v-7.586h-1.903
				c-0.421,0-0.695-0.043-0.825-0.131c-0.129-0.087-0.193-0.245-0.193-0.476c0-0.208,0.054-0.36,0.16-0.459
				c0.106-0.098,0.267-0.147,0.479-0.147h0.379h5.111h0.396c0.202,0,0.354,0.05,0.459,0.151c0.104,0.101,0.155,0.252,0.155,0.455
				c0,0.23-0.063,0.389-0.189,0.476s-0.399,0.131-0.82,0.131h-1.903v7.586H26.95z"/>
			<path fill="#754E1F" d="M31.605,57.835v-5.397h-0.159c-0.382,0-0.645-0.045-0.788-0.135c-0.143-0.09-0.214-0.247-0.214-0.472
				c0-0.208,0.059-0.357,0.177-0.45c0.117-0.093,0.309-0.139,0.572-0.139h0.396h0.809c0.151,0,0.27,0.031,0.354,0.093
				s0.126,0.146,0.126,0.252v0.573c0.41-0.382,0.815-0.664,1.217-0.846c0.401-0.182,0.818-0.273,1.25-0.273
				c0.848,0,1.515,0.264,2,0.791c0.485,0.528,0.729,1.258,0.729,2.189v3.814h0.396c0.28,0,0.482,0.046,0.606,0.139
				c0.123,0.093,0.185,0.24,0.185,0.442c0,0.219-0.065,0.375-0.197,0.467c-0.132,0.093-0.366,0.139-0.703,0.139h-1.86
				c-0.359,0-0.59-0.042-0.69-0.126c-0.102-0.084-0.152-0.244-0.152-0.48c0-0.219,0.06-0.37,0.177-0.455
				c0.118-0.084,0.34-0.126,0.666-0.126h0.294v-3.502c0-0.657-0.148-1.158-0.446-1.503c-0.297-0.345-0.729-0.518-1.296-0.518
				c-0.573,0-1.078,0.194-1.516,0.581s-0.657,0.867-0.657,1.44v3.502h0.295c0.337,0,0.563,0.042,0.682,0.126
				s0.177,0.236,0.177,0.455c0,0.236-0.05,0.396-0.151,0.48s-0.348,0.126-0.74,0.126h-1.533h-0.454
				c-0.229,0-0.403-0.049-0.518-0.147c-0.115-0.098-0.173-0.251-0.173-0.459c0-0.224,0.065-0.377,0.197-0.458
				c0.132-0.081,0.389-0.122,0.771-0.122L31.605,57.835L31.605,57.835z"/>
		</g>
		<g>
			<path fill="#754E1F" d="M22.512,104.058h0.572c0.326,0,0.556,0.045,0.69,0.135c0.134,0.09,0.202,0.238,0.202,0.445
				c0,0.225-0.059,0.383-0.177,0.473c-0.118,0.09-0.34,0.135-0.665,0.135h-2.829c-0.19,0-0.337-0.053-0.438-0.156
				c-0.102-0.104-0.151-0.254-0.151-0.45c0-0.207,0.056-0.354,0.168-0.445c0.112-0.09,0.298-0.135,0.556-0.135h0.278h0.488v-7.662
				h-0.488c-0.421,0-0.693-0.039-0.817-0.116c-0.123-0.08-0.185-0.229-0.185-0.447c0-0.189,0.049-0.334,0.147-0.43
				c0.098-0.095,0.245-0.145,0.441-0.145h3.553c0.859,0,1.5,0.041,1.924,0.123c0.424,0.082,0.782,0.221,1.074,0.416
				c0.376,0.254,0.672,0.588,0.888,1.002c0.216,0.416,0.324,0.861,0.324,1.34c0,0.646-0.197,1.199-0.594,1.662
				c-0.396,0.464-0.947,0.785-1.654,0.965c0.146,0.084,0.276,0.184,0.392,0.294c0.115,0.112,0.226,0.248,0.333,0.403l1.692,2.595
				h0.277c0.314,0,0.53,0.043,0.648,0.131c0.118,0.086,0.177,0.235,0.177,0.449c0,0.196-0.049,0.349-0.147,0.45
				c-0.098,0.104-0.242,0.156-0.434,0.156h-0.951c-0.275,0-0.545-0.203-0.809-0.606c-0.033-0.033-0.059-0.062-0.075-0.085
				l-1.617-2.448c-0.331-0.5-0.604-0.821-0.82-0.97c-0.217-0.145-0.501-0.219-0.854-0.219h-1.12L22.512,104.058L22.512,104.058z
				 M22.512,96.396v3.402h1.743c0.785,0,1.376-0.143,1.772-0.426s0.593-0.705,0.593-1.269c0-0.565-0.193-0.993-0.581-1.278
				c-0.387-0.287-0.965-0.431-1.734-0.431L22.512,96.396L22.512,96.396z"/>
			<path fill="#754E1F" d="M31.892,101.726c0.044,0.809,0.318,1.434,0.82,1.873c0.502,0.441,1.188,0.66,2.059,0.66
				c0.657,0,1.372-0.176,2.147-0.525c0.774-0.352,1.243-0.525,1.405-0.525c0.169,0,0.309,0.053,0.421,0.16
				c0.112,0.105,0.169,0.238,0.169,0.396c0,0.163-0.059,0.312-0.177,0.446c-0.118,0.133-0.306,0.267-0.564,0.396
				c-0.562,0.274-1.141,0.485-1.738,0.632c-0.597,0.146-1.191,0.219-1.781,0.219c-1.279,0-2.304-0.369-3.072-1.105
				c-0.77-0.738-1.154-1.717-1.154-2.936c0-1.24,0.407-2.244,1.222-3.015c0.813-0.769,1.874-1.153,3.182-1.153
				c1.185,0,2.167,0.359,2.947,1.078c0.78,0.719,1.17,1.588,1.17,2.61c0,0.313-0.065,0.524-0.197,0.631s-0.49,0.16-1.073,0.16
				h-0.127L31.892,101.726L31.892,101.726z M31.934,100.623h5.48c-0.084-0.668-0.363-1.205-0.838-1.611
				c-0.474-0.407-1.057-0.61-1.747-0.61c-0.746,0-1.375,0.197-1.886,0.591C32.432,99.384,32.096,99.927,31.934,100.623z"/>
			<path fill="#754E1F" d="M41.415,104.638v-1.498c0-0.246,0.046-0.424,0.139-0.53c0.093-0.106,0.242-0.159,0.45-0.159
				c0.23,0,0.413,0.156,0.548,0.471c0.089,0.191,0.171,0.334,0.244,0.431c0.235,0.304,0.583,0.545,1.044,0.729
				c0.46,0.182,0.968,0.272,1.523,0.272c0.595,0,1.072-0.121,1.432-0.362c0.36-0.24,0.539-0.559,0.539-0.951
				c0-0.398-0.145-0.683-0.434-0.851c-0.29-0.168-0.785-0.253-1.486-0.253h-0.463c-1.146,0-2.019-0.197-2.619-0.598
				c-0.601-0.398-0.9-0.977-0.9-1.734c0-0.74,0.293-1.314,0.88-1.727c0.586-0.41,1.41-0.614,2.471-0.614
				c0.433,0,0.873,0.062,1.322,0.183c0.449,0.12,0.685,0.18,0.707,0.18c0.062,0,0.18-0.055,0.354-0.164
				c0.174-0.108,0.346-0.164,0.514-0.164c0.19,0,0.333,0.07,0.425,0.211c0.093,0.141,0.14,0.352,0.14,0.632v0.985
				c0,0.297-0.045,0.512-0.135,0.644c-0.09,0.132-0.233,0.198-0.43,0.198c-0.168,0-0.376-0.145-0.623-0.43
				c-0.174-0.197-0.317-0.347-0.43-0.447c-0.297-0.273-0.614-0.473-0.951-0.592c-0.337-0.121-0.732-0.183-1.188-0.183
				c-0.527,0-0.952,0.117-1.275,0.351c-0.322,0.231-0.483,0.529-0.483,0.889c0,0.354,0.165,0.605,0.496,0.758
				c0.331,0.15,1.044,0.238,2.139,0.26c1.168,0.029,2.021,0.232,2.56,0.611c0.539,0.379,0.809,0.964,0.809,1.755
				c0,0.759-0.298,1.364-0.893,1.819c-0.595,0.453-1.397,0.682-2.408,0.682c-0.32,0-0.677-0.029-1.069-0.088
				c-0.393-0.061-0.887-0.159-1.481-0.301c-0.196,0.131-0.365,0.227-0.506,0.291c-0.14,0.064-0.258,0.098-0.354,0.098
				c-0.196,0-0.347-0.068-0.45-0.207C41.466,105.095,41.415,104.897,41.415,104.638z"/>
			<path fill="#754E1F" d="M52.587,101.726c0.044,0.809,0.318,1.434,0.82,1.873c0.502,0.441,1.188,0.66,2.059,0.66
				c0.657,0,1.372-0.176,2.147-0.525c0.774-0.352,1.243-0.525,1.405-0.525c0.169,0,0.309,0.053,0.421,0.16
				c0.112,0.105,0.169,0.238,0.169,0.396c0,0.163-0.059,0.312-0.177,0.446c-0.118,0.133-0.306,0.267-0.564,0.396
				c-0.562,0.274-1.141,0.485-1.738,0.632s-1.191,0.219-1.781,0.219c-1.279,0-2.304-0.369-3.072-1.105
				c-0.77-0.738-1.154-1.717-1.154-2.936c0-1.24,0.407-2.244,1.222-3.015c0.812-0.769,1.874-1.153,3.182-1.153
				c1.185,0,2.167,0.359,2.947,1.078c0.78,0.719,1.17,1.588,1.17,2.61c0,0.313-0.065,0.524-0.197,0.631
				c-0.132,0.106-0.49,0.16-1.073,0.16h-0.127L52.587,101.726L52.587,101.726z M52.629,100.623h5.48
				c-0.084-0.668-0.363-1.205-0.838-1.611c-0.474-0.407-1.057-0.61-1.747-0.61c-0.746,0-1.375,0.197-1.886,0.591
				C53.127,99.384,52.792,99.927,52.629,100.623z"/>
			<path fill="#754E1F" d="M68.078,97.937c0.275,0,0.476,0.048,0.603,0.143c0.126,0.096,0.189,0.248,0.189,0.455
				c0,0.197-0.06,0.344-0.177,0.442c-0.118,0.099-0.295,0.147-0.53,0.147h-3.41v2.812c0,0.921,0.119,1.526,0.357,1.819
				c0.238,0.291,0.647,0.438,1.226,0.438c0.511,0,1.122-0.148,1.835-0.445c0.713-0.299,1.153-0.447,1.322-0.447
				c0.157,0,0.29,0.058,0.399,0.168c0.109,0.113,0.164,0.25,0.164,0.414c0,0.185-0.068,0.347-0.206,0.482
				c-0.138,0.139-0.372,0.271-0.703,0.4c-0.55,0.219-1.045,0.379-1.485,0.48c-0.441,0.1-0.855,0.149-1.242,0.149
				c-0.657,0-1.208-0.104-1.654-0.313c-0.446-0.211-0.779-0.523-0.998-0.939c-0.112-0.195-0.192-0.43-0.24-0.699
				c-0.048-0.27-0.071-0.684-0.071-1.246v-0.261v-2.812h-1.432c-0.235,0-0.406-0.047-0.513-0.14c-0.107-0.094-0.16-0.243-0.16-0.45
				c0-0.23,0.072-0.388,0.219-0.472c0.146-0.085,0.457-0.127,0.935-0.127h0.951v-1.728v-0.444c0-0.242,0.052-0.421,0.156-0.535
				s0.265-0.172,0.483-0.172c0.247,0,0.418,0.069,0.514,0.21c0.096,0.141,0.144,0.46,0.144,0.96v1.709L68.078,97.937L68.078,97.937z
				"/>
		</g>
		<g>
			<path fill="#754E1F" d="M181.374,105.246h-0.396c-0.202,0-0.354-0.051-0.458-0.152c-0.104-0.1-0.156-0.252-0.156-0.454
				c0-0.224,0.061-0.378,0.182-0.458c0.121-0.081,0.396-0.122,0.83-0.122h0.537v-7.586h-0.537c-0.422,0-0.695-0.043-0.821-0.132
				c-0.126-0.086-0.189-0.244-0.189-0.475c0-0.209,0.052-0.361,0.156-0.459c0.104-0.1,0.263-0.148,0.476-0.148h0.379h6.955
				c0.189,0,0.334,0.06,0.434,0.174c0.098,0.115,0.146,0.281,0.146,0.501v1.987c0,0.291-0.041,0.492-0.125,0.605
				c-0.086,0.111-0.236,0.168-0.455,0.168c-0.23,0-0.39-0.062-0.477-0.186s-0.131-0.4-0.131-0.834v-1.203h-4.479v2.838h2.204v-0.447
				c0-0.303,0.041-0.514,0.122-0.631c0.082-0.117,0.225-0.178,0.426-0.178c0.196,0,0.332,0.064,0.408,0.189
				c0.076,0.127,0.113,0.397,0.113,0.812v1.565c0,0.422-0.039,0.69-0.117,0.81c-0.079,0.116-0.22,0.177-0.421,0.177
				c-0.202,0-0.342-0.066-0.417-0.201c-0.076-0.136-0.114-0.396-0.114-0.783v-0.295h-2.204v3.729h4.479v-1.364
				c0-0.434,0.044-0.71,0.131-0.833c0.087-0.122,0.245-0.187,0.477-0.187c0.213,0,0.362,0.059,0.449,0.172
				c0.088,0.115,0.131,0.335,0.131,0.654v2.121c0,0.201-0.051,0.355-0.15,0.463c-0.103,0.106-0.244,0.16-0.43,0.16h-6.957V105.246z"
				/>
			<path fill="#754E1F" d="M193.481,104.058h0.244c0.279,0,0.499,0.052,0.656,0.156c0.156,0.104,0.234,0.25,0.234,0.441
				c0,0.201-0.068,0.352-0.205,0.445c-0.139,0.094-0.354,0.145-0.652,0.145h-2.324c-0.168,0-0.309-0.058-0.421-0.17
				c-0.112-0.111-0.168-0.252-0.168-0.42c0-0.207,0.075-0.359,0.228-0.455c0.151-0.096,0.393-0.144,0.725-0.144h0.168l2.729-2.796
				l-2.678-2.602h-0.117c-0.326,0-0.552-0.043-0.678-0.131c-0.127-0.087-0.189-0.24-0.189-0.459c0-0.23,0.071-0.389,0.215-0.477
				c0.144-0.086,0.416-0.131,0.82-0.131h1.727c0.304,0,0.522,0.051,0.66,0.147c0.139,0.097,0.207,0.253,0.207,0.459
				c0,0.19-0.078,0.337-0.231,0.438c-0.154,0.102-0.377,0.152-0.669,0.152h-0.067l1.812,1.774l1.726-1.774h-0.177
				c-0.314,0-0.547-0.047-0.699-0.141c-0.15-0.094-0.227-0.236-0.227-0.434c0-0.219,0.066-0.379,0.201-0.477
				s0.354-0.146,0.656-0.146h2.189c0.174,0,0.314,0.055,0.425,0.164c0.108,0.109,0.164,0.25,0.164,0.424
				c0,0.209-0.07,0.361-0.21,0.459c-0.141,0.1-0.365,0.148-0.674,0.148h-0.235l-2.417,2.518l2.947,2.88h0.084
				c0.213,0,0.379,0.052,0.496,0.155c0.117,0.104,0.178,0.25,0.178,0.441c0,0.225-0.067,0.379-0.202,0.463s-0.413,0.127-0.834,0.127
				h-1.718c-0.297,0-0.518-0.049-0.656-0.144c-0.141-0.095-0.211-0.244-0.211-0.446c0-0.186,0.066-0.33,0.202-0.438
				c0.135-0.107,0.319-0.16,0.556-0.16h0.473l-2.123-2.071L193.481,104.058z"/>
			<path fill="#754E1F" d="M206.456,104.058h2.703c0.219,0,0.379,0.047,0.483,0.139c0.104,0.094,0.155,0.24,0.155,0.441
				c0,0.23-0.049,0.39-0.147,0.477c-0.098,0.088-0.278,0.131-0.543,0.131h-6.533c-0.225,0-0.393-0.051-0.505-0.152
				c-0.111-0.1-0.169-0.252-0.169-0.454c0-0.195,0.06-0.343,0.177-0.438c0.118-0.095,0.295-0.143,0.53-0.143h2.567v-5.396h-1.642
				c-0.229,0-0.405-0.053-0.526-0.156c-0.12-0.104-0.18-0.254-0.18-0.451c0-0.194,0.055-0.344,0.168-0.439
				c0.111-0.098,0.279-0.148,0.504-0.148h2.467c0.152,0,0.271,0.031,0.358,0.094s0.13,0.146,0.13,0.252v6.246H206.456z
				 M204.897,95.041c0-0.604,0.055-0.988,0.165-1.145c0.108-0.156,0.344-0.236,0.702-0.236c0.349,0,0.578,0.066,0.689,0.198
				c0.112,0.132,0.17,0.444,0.17,0.938c0,0.481-0.053,0.781-0.156,0.896c-0.104,0.115-0.338,0.173-0.703,0.173
				c-0.358,0-0.594-0.054-0.702-0.158C204.952,95.599,204.897,95.376,204.897,95.041z"/>
			<path fill="#754E1F" d="M218.318,97.937c0.275,0,0.476,0.048,0.603,0.143c0.127,0.096,0.189,0.248,0.189,0.455
				c0,0.197-0.061,0.344-0.177,0.442c-0.118,0.099-0.295,0.147-0.53,0.147h-3.41v2.812c0,0.921,0.119,1.526,0.357,1.819
				c0.238,0.291,0.646,0.438,1.227,0.438c0.51,0,1.121-0.148,1.834-0.445c0.713-0.299,1.153-0.447,1.322-0.447
				c0.157,0,0.29,0.058,0.398,0.168c0.109,0.113,0.164,0.25,0.164,0.414c0,0.185-0.067,0.347-0.205,0.482
				c-0.139,0.139-0.372,0.271-0.703,0.4c-0.551,0.219-1.045,0.379-1.485,0.48c-0.44,0.1-0.854,0.149-1.241,0.149
				c-0.658,0-1.209-0.104-1.654-0.313c-0.446-0.211-0.779-0.523-0.998-0.939c-0.112-0.195-0.192-0.43-0.24-0.699
				s-0.071-0.684-0.071-1.246v-0.261v-2.812h-1.432c-0.235,0-0.406-0.047-0.513-0.14c-0.107-0.094-0.16-0.243-0.16-0.45
				c0-0.23,0.072-0.388,0.219-0.472c0.146-0.085,0.457-0.127,0.936-0.127h0.95v-1.728v-0.444c0-0.242,0.052-0.421,0.156-0.535
				s0.265-0.172,0.483-0.172c0.246,0,0.418,0.069,0.514,0.21s0.145,0.46,0.145,0.96v1.709L218.318,97.937L218.318,97.937z"/>
		</g>
		<g>
			<path fill="#754E1F" d="M205.604,57.835h0.328c0.234,0,0.406,0.046,0.514,0.139c0.106,0.093,0.16,0.24,0.16,0.442
				c0,0.197-0.051,0.347-0.152,0.451c-0.101,0.104-0.246,0.156-0.438,0.156h-4.15c-0.19,0-0.337-0.052-0.438-0.156
				c-0.102-0.104-0.151-0.254-0.151-0.451c0-0.208,0.056-0.356,0.164-0.446c0.109-0.09,0.296-0.135,0.562-0.135h0.276h0.53v-7.586
				h-0.53c-0.427,0-0.7-0.043-0.819-0.131c-0.121-0.087-0.183-0.245-0.183-0.476c0-0.196,0.052-0.346,0.151-0.45
				c0.102-0.104,0.246-0.156,0.438-0.156h7.451c0.189,0,0.335,0.058,0.434,0.172c0.099,0.115,0.147,0.282,0.147,0.501v2.172
				c0,0.196-0.05,0.344-0.147,0.442c-0.099,0.098-0.242,0.146-0.434,0.146c-0.236,0-0.396-0.062-0.48-0.185
				c-0.084-0.124-0.125-0.401-0.125-0.834v-1.204h-4.571v2.837h2.223v-0.219c0-0.41,0.039-0.685,0.117-0.825
				c0.079-0.141,0.22-0.211,0.421-0.211c0.18,0,0.311,0.054,0.393,0.16s0.121,0.278,0.121,0.514v2.139
				c0,0.281-0.037,0.474-0.112,0.581c-0.076,0.107-0.209,0.16-0.4,0.16c-0.202,0-0.342-0.07-0.421-0.21
				c-0.078-0.14-0.117-0.416-0.117-0.825v-0.244h-2.223v3.73L205.604,57.835L205.604,57.835z"/>
			<path fill="#754E1F" d="M214.174,57.835h0.244c0.28,0,0.5,0.052,0.656,0.156c0.157,0.104,0.235,0.251,0.235,0.442
				c0,0.202-0.067,0.351-0.206,0.446c-0.139,0.095-0.354,0.143-0.652,0.143h-2.324c-0.168,0-0.309-0.056-0.42-0.168
				c-0.112-0.112-0.168-0.252-0.168-0.421c0-0.208,0.075-0.359,0.228-0.455c0.151-0.096,0.394-0.143,0.724-0.143h0.17l2.728-2.795
				l-2.679-2.602h-0.116c-0.326,0-0.552-0.043-0.679-0.13c-0.127-0.087-0.188-0.24-0.188-0.459c0-0.23,0.071-0.389,0.214-0.476
				c0.145-0.087,0.417-0.131,0.821-0.131h1.727c0.304,0,0.522,0.049,0.66,0.147c0.138,0.098,0.207,0.251,0.207,0.459
				c0,0.191-0.078,0.337-0.231,0.438c-0.154,0.101-0.377,0.151-0.67,0.151h-0.066l1.811,1.776l1.727-1.776h-0.178
				c-0.313,0-0.547-0.046-0.699-0.139c-0.15-0.092-0.227-0.237-0.227-0.434c0-0.219,0.067-0.377,0.202-0.477
				c0.136-0.099,0.354-0.146,0.656-0.146h2.188c0.174,0,0.315,0.055,0.426,0.165c0.108,0.109,0.164,0.251,0.164,0.425
				c0,0.208-0.07,0.361-0.211,0.459c-0.141,0.098-0.365,0.147-0.674,0.147h-0.234l-2.418,2.518l2.947,2.879h0.084
				c0.213,0,0.379,0.052,0.498,0.156c0.116,0.104,0.176,0.251,0.176,0.442c0,0.225-0.066,0.379-0.201,0.463
				s-0.413,0.126-0.834,0.126h-1.719c-0.297,0-0.517-0.048-0.656-0.143c-0.141-0.095-0.211-0.244-0.211-0.446
				c0-0.185,0.067-0.331,0.203-0.438c0.135-0.106,0.319-0.16,0.556-0.16h0.472l-2.122-2.071L214.174,57.835z"/>
		</g>
		<g>
			<path fill="#754E1F" d="M21.18,79.251v-5.397h-0.159c-0.382,0-0.645-0.045-0.788-0.136c-0.143-0.09-0.214-0.246-0.214-0.471
				c0-0.207,0.059-0.357,0.177-0.451c0.117-0.092,0.309-0.139,0.572-0.139h0.396h0.809c0.151,0,0.27,0.03,0.354,0.094
				c0.084,0.062,0.126,0.146,0.126,0.252v0.572c0.41-0.382,0.815-0.664,1.217-0.847c0.401-0.183,0.818-0.272,1.25-0.272
				c0.848,0,1.515,0.264,2,0.791c0.485,0.526,0.729,1.258,0.729,2.188v3.813h0.396c0.28,0,0.482,0.047,0.606,0.14
				c0.123,0.092,0.185,0.239,0.185,0.44c0,0.219-0.065,0.375-0.197,0.467c-0.132,0.095-0.366,0.141-0.703,0.141h-1.86
				c-0.359,0-0.59-0.042-0.69-0.126c-0.102-0.084-0.152-0.244-0.152-0.479c0-0.219,0.06-0.371,0.177-0.455
				c0.118-0.084,0.34-0.125,0.666-0.125h0.294v-3.504c0-0.656-0.148-1.156-0.446-1.502c-0.297-0.347-0.729-0.519-1.296-0.519
				c-0.573,0-1.078,0.192-1.516,0.58c-0.438,0.388-0.657,0.866-0.657,1.44v3.502h0.295c0.337,0,0.564,0.041,0.682,0.125
				c0.118,0.086,0.177,0.236,0.177,0.455c0,0.236-0.05,0.396-0.151,0.48s-0.348,0.126-0.74,0.126H21.18h-0.454
				c-0.23,0-0.403-0.05-0.518-0.147s-0.173-0.25-0.173-0.459c0-0.225,0.065-0.377,0.197-0.459c0.132-0.08,0.389-0.121,0.771-0.121
				h0.177V79.251z"/>
		</g>
		<g>
			<path fill="#754E1F" d="M156.594,70.73c0.056-0.15,0.135-0.258,0.234-0.318c0.103-0.062,0.248-0.094,0.438-0.094
				c0.207,0,0.354,0.051,0.438,0.15c0.084,0.101,0.125,0.311,0.125,0.623c0,0.551,0.006,1.062,0.019,1.537
				c0.011,0.475,0.017,0.682,0.017,0.619c0,0.264-0.045,0.441-0.135,0.535c-0.09,0.092-0.25,0.139-0.479,0.139
				c-0.371,0-0.612-0.264-0.726-0.791c-0.039-0.158-0.069-0.278-0.093-0.362c-0.105-0.421-0.362-0.765-0.766-1.032
				c-0.404-0.266-0.879-0.398-1.424-0.398c-0.994,0-1.791,0.363-2.392,1.09c-0.601,0.729-0.899,1.701-0.899,2.927
				c0,1.224,0.303,2.198,0.912,2.927c0.609,0.727,1.413,1.09,2.412,1.09c0.325,0,0.657-0.047,0.993-0.14
				c0.337-0.093,0.668-0.231,0.994-0.417c0.151-0.079,0.358-0.212,0.623-0.398c0.264-0.188,0.45-0.283,0.563-0.283
				c0.174,0,0.32,0.059,0.441,0.174s0.181,0.256,0.181,0.425s-0.064,0.329-0.196,0.483c-0.133,0.154-0.379,0.344-0.737,0.568
				c-0.472,0.309-0.945,0.537-1.423,0.682c-0.478,0.146-0.979,0.22-1.508,0.22c-1.387,0-2.53-0.489-3.435-1.47
				c-0.903-0.979-1.356-2.232-1.356-3.76c0-1.51,0.459-2.765,1.373-3.764c0.916-0.999,2.065-1.499,3.453-1.499
				c0.369,0,0.746,0.046,1.131,0.136C155.761,70.417,156.167,70.55,156.594,70.73z"/>
			<path fill="#754E1F" d="M168.702,76.556c0,1.201-0.41,2.184-1.229,2.947c-0.819,0.763-1.883,1.145-3.19,1.145
				c-1.303,0-2.362-0.381-3.183-1.145s-1.229-1.746-1.229-2.947s0.408-2.182,1.229-2.941c0.818-0.762,1.88-1.142,3.183-1.142
				c1.302,0,2.364,0.382,3.188,1.146S168.702,75.361,168.702,76.556z M164.282,79.47c0.864,0,1.572-0.273,2.127-0.821
				c0.553-0.548,0.828-1.245,0.828-2.093s-0.277-1.547-0.834-2.1c-0.556-0.554-1.263-0.83-2.121-0.83
				c-0.859,0-1.564,0.276-2.117,0.83c-0.554,0.553-0.83,1.252-0.83,2.1c0,0.854,0.275,1.553,0.826,2.097
				C162.709,79.199,163.417,79.47,164.282,79.47z"/>
			<path fill="#754E1F" d="M172.534,77.332c0,0.707,0.147,1.224,0.445,1.549c0.297,0.326,0.77,0.488,1.414,0.488
				c0.611,0,1.136-0.193,1.57-0.58c0.434-0.389,0.651-0.873,0.651-1.457v-3.478h-1.153c-0.219,0-0.377-0.046-0.476-0.14
				c-0.099-0.092-0.147-0.236-0.147-0.434c0-0.214,0.055-0.369,0.16-0.472c0.106-0.103,0.277-0.151,0.515-0.151h1.793
				c0.214,0,0.362,0.047,0.45,0.139c0.088,0.094,0.131,0.318,0.131,0.679v5.776h0.388c0.274,0,0.474,0.045,0.595,0.135
				c0.119,0.09,0.181,0.238,0.181,0.445c0,0.201-0.058,0.354-0.173,0.455c-0.115,0.1-0.282,0.15-0.502,0.15h-1.278
				c-0.151,0-0.271-0.029-0.354-0.094c-0.085-0.061-0.127-0.145-0.127-0.252V79.52c-0.537,0.414-1,0.698-1.385,0.854
				c-0.385,0.154-0.79,0.231-1.217,0.231c-0.926,0-1.62-0.246-2.084-0.737c-0.463-0.49-0.694-1.232-0.694-2.228v-3.788h-0.177
				c-0.382,0-0.643-0.045-0.783-0.135c-0.14-0.09-0.21-0.248-0.21-0.473c0-0.195,0.056-0.344,0.164-0.44
				c0.108-0.099,0.279-0.147,0.509-0.147h1.271c0.195,0,0.333,0.039,0.408,0.118c0.076,0.078,0.113,0.252,0.113,0.521v4.035H172.534
				z"/>
			<path fill="#754E1F" d="M181.844,79.251v-5.397h-0.159c-0.382,0-0.646-0.045-0.788-0.136c-0.143-0.09-0.214-0.246-0.214-0.471
				c0-0.207,0.06-0.357,0.177-0.451c0.117-0.092,0.309-0.139,0.572-0.139h0.396h0.809c0.15,0,0.27,0.03,0.354,0.094
				c0.084,0.062,0.127,0.146,0.127,0.252v0.572c0.409-0.382,0.814-0.664,1.217-0.847c0.4-0.183,0.817-0.272,1.25-0.272
				c0.848,0,1.515,0.264,2,0.791c0.484,0.526,0.729,1.258,0.729,2.188v3.813h0.396c0.279,0,0.481,0.047,0.605,0.14
				c0.123,0.092,0.186,0.239,0.186,0.44c0,0.219-0.065,0.375-0.197,0.467c-0.133,0.095-0.366,0.141-0.703,0.141h-1.86
				c-0.358,0-0.59-0.042-0.69-0.126c-0.102-0.084-0.151-0.244-0.151-0.479c0-0.219,0.06-0.371,0.177-0.455
				c0.118-0.084,0.34-0.125,0.666-0.125h0.295v-3.504c0-0.656-0.148-1.156-0.447-1.502c-0.297-0.347-0.729-0.519-1.295-0.519
				c-0.573,0-1.078,0.192-1.517,0.58s-0.657,0.866-0.657,1.44v3.502h0.295c0.338,0,0.564,0.041,0.683,0.125
				c0.118,0.086,0.177,0.236,0.177,0.455c0,0.236-0.05,0.396-0.15,0.48c-0.102,0.084-0.349,0.126-0.74,0.126h-1.533h-0.454
				c-0.229,0-0.403-0.05-0.519-0.147c-0.114-0.098-0.172-0.25-0.172-0.459c0-0.225,0.064-0.377,0.196-0.459
				c0.132-0.08,0.39-0.121,0.771-0.121h0.172V79.251z"/>
			<path fill="#754E1F" d="M197.622,73.13c0.275,0,0.477,0.047,0.604,0.143c0.126,0.096,0.189,0.247,0.189,0.455
				c0,0.195-0.061,0.344-0.178,0.441c-0.117,0.099-0.295,0.146-0.529,0.146h-3.41v2.812c0,0.922,0.119,1.527,0.356,1.818
				c0.238,0.293,0.647,0.438,1.226,0.438c0.512,0,1.123-0.148,1.836-0.446c0.713-0.297,1.152-0.444,1.322-0.444
				c0.156,0,0.289,0.055,0.398,0.168c0.109,0.111,0.164,0.25,0.164,0.412c0,0.186-0.068,0.348-0.206,0.483
				c-0.138,0.138-0.372,0.271-0.703,0.399c-0.55,0.219-1.045,0.379-1.485,0.479s-0.854,0.151-1.242,0.151
				c-0.656,0-1.207-0.105-1.653-0.315s-0.779-0.522-0.998-0.938c-0.112-0.197-0.192-0.43-0.24-0.699
				C193.024,78.367,193,77.953,193,77.39v-0.262v-2.812h-1.433c-0.235,0-0.405-0.046-0.513-0.139c-0.107-0.094-0.16-0.243-0.16-0.45
				c0-0.229,0.072-0.388,0.219-0.472c0.146-0.086,0.457-0.127,0.936-0.127H193v-1.727v-0.445c0-0.242,0.052-0.42,0.155-0.535
				c0.104-0.114,0.265-0.172,0.483-0.172c0.247,0,0.418,0.069,0.514,0.209c0.096,0.142,0.145,0.461,0.145,0.961v1.709h3.324V73.13z"
				/>
			<path fill="#754E1F" d="M202.827,76.917c0.043,0.81,0.317,1.434,0.819,1.875c0.502,0.439,1.188,0.66,2.06,0.66
				c0.656,0,1.371-0.177,2.146-0.525c0.773-0.352,1.243-0.527,1.404-0.527c0.17,0,0.31,0.055,0.422,0.16
				c0.111,0.107,0.169,0.238,0.169,0.396c0,0.162-0.06,0.311-0.177,0.444c-0.118,0.134-0.307,0.269-0.564,0.396
				c-0.562,0.275-1.141,0.486-1.738,0.631c-0.598,0.146-1.19,0.22-1.781,0.22c-1.278,0-2.303-0.369-3.071-1.106
				c-0.771-0.738-1.154-1.715-1.154-2.935c0-1.239,0.407-2.245,1.222-3.015c0.813-0.77,1.875-1.153,3.183-1.153
				c1.185,0,2.167,0.358,2.946,1.078c0.781,0.719,1.17,1.588,1.17,2.61c0,0.312-0.064,0.523-0.196,0.631
				c-0.132,0.105-0.49,0.16-1.073,0.16h-0.127H202.827L202.827,76.917z M202.868,75.816h5.48c-0.084-0.668-0.363-1.205-0.838-1.611
				c-0.475-0.408-1.057-0.611-1.747-0.611c-0.746,0-1.375,0.197-1.886,0.59C203.368,74.576,203.03,75.121,202.868,75.816z"/>
			<path fill="#754E1F" d="M215.194,79.251h2.795c0.219,0,0.381,0.045,0.484,0.139c0.104,0.092,0.154,0.24,0.154,0.441
				c0,0.229-0.049,0.389-0.146,0.477c-0.098,0.086-0.279,0.13-0.543,0.13h-5.506c-0.219,0-0.385-0.05-0.497-0.151
				c-0.112-0.101-0.168-0.252-0.168-0.455c0-0.195,0.058-0.342,0.172-0.438c0.115-0.096,0.294-0.143,0.535-0.143h1.465v-5.397
				h-0.571c-0.546,0-0.885-0.044-1.02-0.13c-0.135-0.088-0.202-0.246-0.202-0.477c0-0.197,0.056-0.345,0.164-0.441
				c0.108-0.1,0.276-0.148,0.501-0.148h1.92c0.15,0,0.266,0.03,0.346,0.09c0.077,0.06,0.117,0.146,0.117,0.256v1.433
				c0.533-0.668,1.09-1.165,1.667-1.489c0.578-0.326,1.201-0.488,1.869-0.488c0.499,0,0.903,0.101,1.212,0.303
				c0.309,0.201,0.463,0.463,0.463,0.783c0,0.207-0.076,0.392-0.23,0.551c-0.154,0.16-0.324,0.24-0.51,0.24
				c-0.129,0-0.347-0.086-0.651-0.256c-0.308-0.172-0.58-0.258-0.821-0.258c-0.438,0-0.898,0.155-1.385,0.467
				c-0.486,0.312-1.023,0.805-1.612,1.479L215.194,79.251L215.194,79.251z"/>
		</g>
		<g>
			<path fill="#754E1F" d="M19.199,22.41v-7.649h-0.174c-0.369,0-0.649-0.096-0.841-0.287s-0.287-0.472-0.287-0.841
				c0-0.396,0.103-0.685,0.308-0.867c0.205-0.181,0.537-0.271,0.995-0.271h1.928h0.605c1.429,0,2.475,0.062,3.138,0.185
				c0.663,0.123,1.227,0.328,1.692,0.615c0.827,0.492,1.461,1.194,1.902,2.107c0.441,0.912,0.662,1.967,0.662,3.163
				c0,1.265-0.251,2.371-0.753,3.317c-0.503,0.947-1.215,1.663-2.138,2.148c-0.417,0.219-0.906,0.378-1.466,0.477
				c-0.56,0.099-1.395,0.148-2.502,0.148H21.13h-1.928c-0.472,0-0.807-0.087-1.005-0.262c-0.198-0.174-0.297-0.466-0.297-0.876
				c0-0.362,0.096-0.637,0.287-0.826c0.191-0.188,0.472-0.282,0.841-0.282L19.199,22.41L19.199,22.41z M21.844,14.72v7.69h0.584
				c1.292,0,2.246-0.316,2.861-0.949c0.615-0.632,0.923-1.604,0.923-2.917c0-1.292-0.313-2.256-0.938-2.892
				c-0.626-0.636-1.567-0.954-2.825-0.954c-0.164,0-0.289,0.002-0.374,0.005C21.989,14.708,21.913,14.713,21.844,14.72z"/>
			<path fill="#754E1F" d="M36.118,14.956c1.661,0,3.008,0.465,4.04,1.395c1.032,0.93,1.548,2.123,1.548,3.579
				c0,1.463-0.516,2.659-1.548,3.589c-1.032,0.93-2.379,1.395-4.04,1.395c-1.654,0-2.998-0.465-4.03-1.395
				c-1.032-0.93-1.548-2.126-1.548-3.589c0-1.456,0.518-2.649,1.554-3.579C33.128,15.42,34.47,14.956,36.118,14.956z M36.118,17.119
				c-0.8,0-1.458,0.261-1.974,0.785c-0.517,0.521-0.774,1.19-0.774,2.004c0,0.82,0.258,1.499,0.774,2.036
				c0.516,0.537,1.174,0.805,1.974,0.805c0.8,0,1.459-0.268,1.979-0.805c0.52-0.537,0.779-1.215,0.779-2.036
				c0-0.813-0.258-1.482-0.774-2.004C37.585,17.38,36.924,17.119,36.118,17.119z"/>
		</g>
	</g>
</g>
</svg>
