<?xml version="1.0" encoding="utf-8"?>
<!-- Generator: Adobe Illustrator 16.0.0, SVG Export Plug-In . SVG Version: 6.00 Build 0)  -->
<!DOCTYPE svg PUBLIC "-//W3C//DTD SVG 1.1//EN" "http://www.w3.org/Graphics/SVG/1.1/DTD/svg11.dtd">
<svg version="1.1" id="Layer_1" xmlns="http://www.w3.org/2000/svg" xmlns:xlink="http://www.w3.org/1999/xlink" x="0px" y="0px"
	 width="82px" height="54px" viewBox="0 0 82 54" enable-background="new 0 0 82 54" xml:space="preserve">
<g>
	<path fill="#46B7BE" d="M82,45.496C82,50.193,78.193,54,73.496,54H8.504C3.807,54,0,50.193,0,45.496V8.504C0,3.807,3.807,0,8.504,0
		h64.992C78.193,0,82,3.807,82,8.504V45.496z"/>
	<g>
		<path fill="#0C5657" d="M16.577,22.136h15.732c0.504,0,0.899,0.161,1.187,0.483c0.288,0.322,0.431,0.759,0.431,1.31
			c0,0.562-0.144,1.005-0.431,1.327c-0.287,0.322-0.683,0.483-1.187,0.483H16.577c-0.504,0-0.905-0.161-1.204-0.483
			c-0.299-0.322-0.448-0.765-0.448-1.327c0-0.551,0.149-0.987,0.448-1.31C15.672,22.296,16.073,22.136,16.577,22.136z
			 M16.577,28.042h15.732c0.492,0,0.885,0.161,1.178,0.483s0.439,0.759,0.439,1.31c0,0.562-0.145,1.005-0.431,1.327
			c-0.287,0.322-0.683,0.482-1.187,0.482H16.577c-0.504,0-0.905-0.164-1.204-0.492c-0.299-0.327-0.448-0.768-0.448-1.317
			c0-0.539,0.149-0.974,0.448-1.301C15.672,28.206,16.073,28.042,16.577,28.042z"/>
		<path fill="#0C5657" d="M38.18,22.136h15.732c0.504,0,0.9,0.161,1.188,0.483c0.289,0.322,0.43,0.759,0.43,1.31
			c0,0.562-0.143,1.005-0.43,1.327c-0.287,0.322-0.684,0.483-1.188,0.483H38.18c-0.504,0-0.905-0.161-1.204-0.483
			c-0.299-0.322-0.448-0.765-0.448-1.327c0-0.551,0.149-0.987,0.448-1.31C37.275,22.296,37.676,22.136,38.18,22.136z M38.18,28.042
			h15.732c0.492,0,0.885,0.161,1.178,0.483s0.439,0.759,0.439,1.31c0,0.562-0.143,1.005-0.43,1.327s-0.685,0.482-1.188,0.482H38.18
			c-0.504,0-0.905-0.164-1.204-0.492c-0.299-0.327-0.448-0.768-0.448-1.317c0-0.539,0.149-0.974,0.448-1.301
			C37.275,28.206,37.676,28.042,38.18,28.042z"/>
	</g>
</g>
</svg>
