<?xml version="1.0" encoding="utf-8"?>
<!-- Generator: Adobe Illustrator 16.0.0, SVG Export Plug-In . SVG Version: 6.00 Build 0)  -->
<!DOCTYPE svg PUBLIC "-//W3C//DTD SVG 1.1//EN" "http://www.w3.org/Graphics/SVG/1.1/DTD/svg11.dtd">
<svg version="1.1" id="Layer_1" xmlns="http://www.w3.org/2000/svg" xmlns:xlink="http://www.w3.org/1999/xlink" x="0px" y="0px"
	 width="195.779px" height="118.131px" viewBox="0 0 195.779 118.131" enable-background="new 0 0 195.779 118.131"
	 xml:space="preserve">
<g>
	<g>
		<path fill="#F7C55A" d="M195.78,110.401c0,4.27-3.461,7.729-7.729,7.729H7.805c-4.268,0-7.729-3.461-7.729-7.729V7.732
			C0.077,3.46,3.54,0,7.805,0h180.241c4.271,0,7.729,3.46,7.729,7.732L195.78,110.401L195.78,110.401z"/>
		<path fill="#F8E5AE" d="M0.077,36.092v74.31c0,4.271,3.463,7.729,7.729,7.729h180.241c4.271,0,7.729-3.463,7.729-7.729v-74.31
			H0.077z"/>
		<g>
			<path fill="#754E1F" d="M24.101,102.19h0.328c0.233,0,0.405,0.047,0.514,0.139c0.105,0.094,0.16,0.24,0.16,0.443
				c0,0.197-0.051,0.346-0.149,0.451c-0.104,0.104-0.247,0.154-0.438,0.154h-4.149c-0.188,0-0.338-0.051-0.438-0.154
				c-0.103-0.105-0.151-0.254-0.151-0.451c0-0.209,0.058-0.357,0.164-0.447c0.107-0.09,0.296-0.135,0.562-0.135h0.274h0.53v-7.586
				h-0.53c-0.427,0-0.697-0.043-0.817-0.131c-0.121-0.086-0.185-0.244-0.185-0.477c0-0.195,0.054-0.347,0.151-0.449
				c0.102-0.104,0.245-0.156,0.438-0.156h7.451c0.188,0,0.335,0.059,0.437,0.172c0.1,0.115,0.146,0.283,0.146,0.502v2.172
				c0,0.195-0.05,0.344-0.146,0.441c-0.102,0.098-0.242,0.146-0.437,0.146c-0.233,0-0.396-0.062-0.479-0.187
				c-0.084-0.123-0.126-0.399-0.126-0.834v-1.203h-4.569v2.836h2.223v-0.22c0-0.409,0.039-0.688,0.117-0.823
				c0.079-0.144,0.221-0.211,0.421-0.211c0.183,0,0.312,0.054,0.395,0.159c0.082,0.105,0.122,0.277,0.122,0.515v2.14
				c0,0.281-0.038,0.475-0.111,0.58c-0.076,0.106-0.21,0.16-0.4,0.16c-0.199,0-0.342-0.07-0.421-0.209
				c-0.078-0.142-0.115-0.416-0.115-0.826v-0.244h-2.225v3.729L24.101,102.19L24.101,102.19z"/>
			<path fill="#754E1F" d="M32.672,102.19h0.244c0.277,0,0.499,0.053,0.653,0.156c0.157,0.104,0.235,0.252,0.235,0.441
				c0,0.203-0.068,0.352-0.206,0.446c-0.14,0.095-0.354,0.144-0.649,0.144h-2.324c-0.168,0-0.312-0.057-0.421-0.168
				c-0.11-0.111-0.168-0.252-0.168-0.422c0-0.207,0.073-0.357,0.229-0.455c0.15-0.096,0.396-0.144,0.724-0.144h0.172l2.729-2.795
				l-2.68-2.603h-0.116c-0.325,0-0.553-0.043-0.679-0.131c-0.127-0.086-0.188-0.24-0.188-0.459c0-0.229,0.069-0.389,0.214-0.475
				c0.146-0.088,0.417-0.131,0.821-0.131h1.728c0.305,0,0.521,0.049,0.659,0.146c0.141,0.098,0.207,0.25,0.207,0.459
				c0,0.19-0.078,0.336-0.229,0.438c-0.152,0.102-0.377,0.15-0.669,0.15h-0.065l1.812,1.776l1.727-1.776h-0.178
				c-0.312,0-0.547-0.045-0.698-0.139c-0.15-0.093-0.229-0.236-0.229-0.436c0-0.219,0.066-0.377,0.201-0.479
				c0.138-0.1,0.354-0.146,0.656-0.146h2.188c0.174,0,0.312,0.056,0.425,0.166c0.106,0.107,0.164,0.25,0.164,0.425
				c0,0.209-0.068,0.36-0.21,0.459c-0.144,0.099-0.364,0.146-0.674,0.146H37.84l-2.417,2.521l2.947,2.879h0.084
				c0.213,0,0.379,0.052,0.497,0.155c0.114,0.105,0.177,0.25,0.177,0.441c0,0.225-0.065,0.379-0.201,0.463s-0.412,0.125-0.835,0.125
				h-1.718c-0.297,0-0.52-0.047-0.655-0.143c-0.142-0.094-0.212-0.244-0.212-0.445c0-0.186,0.064-0.332,0.202-0.438
				c0.136-0.107,0.317-0.16,0.558-0.16h0.472l-2.12-2.072L32.672,102.19z"/>
		</g>
		<g>
			<path fill="#754E1F" d="M27.64,79.385c0-0.422,0.042-0.688,0.126-0.811s0.244-0.189,0.479-0.189c0.199,0,0.354,0.057,0.451,0.156
				c0.104,0.104,0.151,0.264,0.151,0.483v0.358v2.771c0,0.195-0.055,0.35-0.159,0.459c-0.104,0.107-0.256,0.164-0.443,0.164h-7.472
				H20.38c-0.2,0-0.354-0.051-0.452-0.15c-0.104-0.102-0.152-0.254-0.152-0.455c0-0.225,0.062-0.377,0.185-0.459
				c0.12-0.082,0.396-0.123,0.817-0.123h1.056v-7.586h-1.056c-0.415,0-0.688-0.043-0.812-0.131
				c-0.125-0.086-0.188-0.244-0.188-0.475c0-0.207,0.056-0.359,0.156-0.459c0.104-0.1,0.266-0.146,0.482-0.146h0.358h3.801h0.396
				c0.2,0,0.354,0.051,0.463,0.15c0.104,0.102,0.16,0.254,0.16,0.455c0,0.229-0.063,0.389-0.189,0.475
				c-0.126,0.088-0.4,0.131-0.826,0.131h-1.415v7.586h4.479L27.64,79.385L27.64,79.385z"/>
			<path fill="#754E1F" d="M36.75,81.709c-0.461,0.414-0.962,0.732-1.503,0.951c-0.542,0.219-1.102,0.328-1.672,0.328
				c-0.839,0-1.514-0.232-2.022-0.699c-0.516-0.465-0.771-1.072-0.771-1.817c0-0.888,0.344-1.57,1.022-2.062
				c0.683-0.488,1.641-0.732,2.876-0.732c0.323,0,0.651,0.021,0.982,0.062c0.331,0.043,0.671,0.105,1.021,0.199v-0.062
				c0-0.646-0.155-1.121-0.464-1.432c-0.311-0.311-0.788-0.463-1.439-0.463c-0.438,0-0.926,0.115-1.465,0.354
				c-0.539,0.236-0.896,0.354-1.066,0.354c-0.163,0-0.301-0.063-0.403-0.196c-0.105-0.131-0.159-0.302-0.159-0.511
				c0-0.329,0.312-0.61,0.932-0.844c0.619-0.229,1.412-0.345,2.381-0.345c0.984,0,1.731,0.25,2.236,0.752
				c0.505,0.504,0.76,1.244,0.76,2.23v3.811h0.408c0.396,0,0.665,0.043,0.803,0.127c0.135,0.084,0.199,0.234,0.199,0.455
				c0,0.199-0.056,0.355-0.168,0.453c-0.109,0.101-0.278,0.15-0.505,0.15h-1.32c-0.156,0-0.285-0.049-0.39-0.146
				c-0.103-0.096-0.168-0.229-0.201-0.412L36.75,81.709z M36.683,79.058c-0.312-0.104-0.605-0.177-0.896-0.228
				c-0.289-0.049-0.576-0.068-0.862-0.068c-0.862,0-1.547,0.146-2.046,0.439c-0.5,0.293-0.75,0.686-0.75,1.18
				c0,0.381,0.156,0.695,0.47,0.943c0.312,0.246,0.708,0.368,1.189,0.368c0.713,0,1.373-0.187,1.979-0.562
				c0.607-0.373,0.914-0.766,0.914-1.166L36.683,79.058L36.683,79.058z"/>
			<path fill="#754E1F" d="M41.491,82.172v-1.5c0-0.246,0.046-0.424,0.139-0.528c0.095-0.104,0.242-0.155,0.45-0.155
				c0.229,0,0.413,0.151,0.548,0.471c0.089,0.19,0.171,0.334,0.244,0.432c0.232,0.305,0.583,0.547,1.044,0.729
				c0.46,0.187,0.968,0.271,1.521,0.271c0.598,0,1.071-0.119,1.435-0.359c0.357-0.24,0.539-0.561,0.539-0.951
				c0-0.396-0.146-0.684-0.437-0.852c-0.29-0.17-0.785-0.254-1.486-0.254h-0.463c-1.146,0-2.021-0.197-2.616-0.6
				c-0.603-0.396-0.9-0.978-0.9-1.732c0-0.738,0.295-1.314,0.882-1.729c0.586-0.408,1.408-0.611,2.471-0.611
				c0.436,0,0.873,0.062,1.322,0.182c0.447,0.119,0.688,0.182,0.707,0.182c0.062,0,0.18-0.055,0.354-0.164
				c0.174-0.106,0.346-0.164,0.514-0.164c0.188,0,0.333,0.07,0.427,0.211c0.093,0.144,0.14,0.355,0.14,0.634v0.981
				c0,0.299-0.045,0.514-0.135,0.646c-0.09,0.132-0.23,0.195-0.432,0.195c-0.168,0-0.376-0.146-0.622-0.43
				c-0.175-0.197-0.316-0.351-0.431-0.447c-0.3-0.271-0.614-0.473-0.951-0.594c-0.337-0.119-0.73-0.185-1.188-0.185
				c-0.524,0-0.952,0.114-1.272,0.354c-0.321,0.229-0.481,0.526-0.481,0.889c0,0.354,0.165,0.605,0.496,0.76
				c0.33,0.148,1.044,0.234,2.139,0.262c1.168,0.027,2.021,0.23,2.562,0.609c0.541,0.379,0.811,0.965,0.811,1.756
				c0,0.758-0.298,1.363-0.895,1.814c-0.596,0.455-1.396,0.686-2.407,0.686c-0.319,0-0.678-0.029-1.068-0.088
				c-0.393-0.062-0.887-0.158-1.479-0.301c-0.195,0.131-0.364,0.229-0.507,0.291s-0.259,0.098-0.354,0.098
				c-0.194,0-0.348-0.068-0.449-0.205C41.542,82.627,41.491,82.431,41.491,82.172z"/>
			<path fill="#754E1F" d="M57.807,75.469c0.273,0,0.479,0.05,0.604,0.146c0.126,0.096,0.188,0.246,0.188,0.455
				c0,0.193-0.062,0.344-0.179,0.439c-0.116,0.1-0.295,0.146-0.528,0.146h-3.41v2.811c0,0.922,0.119,1.525,0.355,1.816
				c0.238,0.293,0.646,0.438,1.228,0.438c0.514,0,1.122-0.146,1.835-0.443s1.153-0.445,1.322-0.445c0.155,0,0.29,0.058,0.397,0.168
				c0.106,0.111,0.164,0.25,0.164,0.412c0,0.188-0.068,0.351-0.206,0.484c-0.141,0.137-0.372,0.271-0.703,0.396
				c-0.55,0.219-1.045,0.379-1.483,0.479c-0.438,0.103-0.854,0.147-1.242,0.147c-0.654,0-1.208-0.104-1.651-0.312
				c-0.445-0.211-0.778-0.521-0.998-0.938c-0.11-0.193-0.19-0.43-0.239-0.697c-0.049-0.27-0.07-0.688-0.07-1.244v-0.264v-2.811
				h-1.434c-0.233,0-0.404-0.048-0.516-0.142c-0.104-0.093-0.157-0.24-0.157-0.449c0-0.229,0.069-0.39,0.22-0.474
				c0.146-0.084,0.457-0.127,0.936-0.127h0.951v-1.727V73.29c0-0.238,0.052-0.42,0.155-0.533c0.104-0.111,0.266-0.172,0.482-0.172
				c0.244,0,0.418,0.068,0.514,0.211c0.098,0.143,0.146,0.461,0.146,0.959v1.709h3.322L57.807,75.469L57.807,75.469z"/>
			<path fill="#754E1F" d="M68.416,81.59c0.434,0,0.708,0.041,0.829,0.123c0.117,0.082,0.183,0.234,0.183,0.459
				c0,0.23-0.062,0.394-0.183,0.479c-0.121,0.089-0.396,0.132-0.829,0.132h-5.109H62.91c-0.202,0-0.354-0.056-0.466-0.15
				c-0.104-0.102-0.157-0.254-0.157-0.453c0-0.227,0.062-0.377,0.188-0.459c0.123-0.082,0.399-0.121,0.833-0.121h1.901v-7.586
				h-1.901c-0.422,0-0.695-0.047-0.825-0.135c-0.129-0.086-0.19-0.242-0.19-0.475c0-0.207,0.055-0.361,0.157-0.46
				c0.106-0.101,0.271-0.146,0.479-0.146h0.379h5.109h0.396c0.202,0,0.354,0.053,0.459,0.148c0.104,0.104,0.155,0.254,0.155,0.455
				c0,0.229-0.063,0.389-0.189,0.475c-0.126,0.088-0.396,0.135-0.817,0.135h-1.901v7.587h1.9L68.416,81.59L68.416,81.59z"/>
			<path fill="#754E1F" d="M73.071,81.59v-5.395h-0.156c-0.385,0-0.646-0.045-0.788-0.137c-0.146-0.09-0.214-0.244-0.214-0.471
				c0-0.211,0.061-0.355,0.177-0.451c0.117-0.094,0.311-0.141,0.572-0.141h0.396h0.81c0.15,0,0.271,0.03,0.354,0.094
				c0.084,0.062,0.126,0.146,0.126,0.254v0.57c0.408-0.383,0.813-0.664,1.217-0.847c0.399-0.187,0.816-0.271,1.25-0.271
				c0.851,0,1.518,0.266,2,0.791c0.483,0.525,0.729,1.258,0.729,2.188v3.812h0.396c0.279,0,0.48,0.045,0.604,0.139
				c0.123,0.094,0.187,0.24,0.187,0.439c0,0.221-0.062,0.375-0.197,0.469c-0.132,0.096-0.363,0.141-0.7,0.141h-1.859
				c-0.358,0-0.59-0.041-0.689-0.125c-0.103-0.084-0.148-0.244-0.148-0.48c0-0.221,0.061-0.371,0.178-0.455s0.34-0.127,0.666-0.127
				h0.294v-3.502c0-0.655-0.146-1.158-0.446-1.504c-0.297-0.346-0.729-0.518-1.296-0.518c-0.571,0-1.077,0.191-1.517,0.58
				c-0.438,0.387-0.656,0.865-0.656,1.438v3.504h0.295c0.337,0,0.563,0.041,0.685,0.125c0.117,0.084,0.178,0.236,0.178,0.455
				c0,0.236-0.051,0.396-0.15,0.48c-0.102,0.084-0.349,0.125-0.738,0.125H73.08h-0.454c-0.229,0-0.401-0.049-0.521-0.146
				c-0.112-0.098-0.173-0.252-0.173-0.459c0-0.225,0.063-0.377,0.195-0.459c0.134-0.082,0.391-0.121,0.771-0.121h0.169L73.071,81.59
				L73.071,81.59z"/>
			<path fill="#754E1F" d="M89.085,82.778c-0.118,0-0.199-0.029-0.249-0.088c-0.048-0.059-0.069-0.174-0.069-0.342v-0.689
				c-0.337,0.422-0.76,0.748-1.265,0.98c-0.505,0.229-1.056,0.35-1.645,0.35c-1.062,0-1.946-0.377-2.665-1.133
				c-0.716-0.754-1.07-1.693-1.07-2.816c0-1.16,0.381-2.127,1.146-2.899c0.764-0.771,1.715-1.151,2.854-1.151
				c0.578,0,1.1,0.102,1.56,0.307s0.854,0.51,1.188,0.904v-3.23H88.42c-0.486,0-0.808-0.043-0.945-0.129
				c-0.146-0.088-0.217-0.246-0.217-0.477c0-0.201,0.06-0.354,0.175-0.455c0.112-0.102,0.279-0.15,0.501-0.15h1.729
				c0.168,0,0.287,0.027,0.363,0.084c0.076,0.06,0.113,0.146,0.113,0.261v9.489h0.379c0.273,0,0.478,0.045,0.598,0.144
				c0.124,0.093,0.188,0.236,0.188,0.438c0,0.191-0.055,0.34-0.159,0.445c-0.104,0.106-0.249,0.16-0.431,0.16h-1.629V82.778z
				 M83.571,78.999c0,0.773,0.249,1.408,0.749,1.902c0.499,0.492,1.137,0.738,1.902,0.738c0.773,0,1.412-0.256,1.909-0.771
				c0.5-0.514,0.75-1.166,0.75-1.957c0-0.779-0.247-1.424-0.743-1.928c-0.497-0.508-1.138-0.762-1.916-0.762
				c-0.791,0-1.433,0.258-1.919,0.77C83.815,77.504,83.571,78.172,83.571,78.999z"/>
			<path fill="#754E1F" d="M94.053,79.258c0.044,0.812,0.316,1.439,0.818,1.873c0.502,0.441,1.188,0.662,2.061,0.662
				c0.655,0,1.372-0.176,2.146-0.526c0.771-0.351,1.24-0.521,1.402-0.521c0.169,0,0.312,0.055,0.421,0.16
				c0.112,0.104,0.169,0.233,0.169,0.395c0,0.162-0.059,0.312-0.177,0.445c-0.118,0.131-0.308,0.268-0.562,0.395
				c-0.562,0.273-1.144,0.482-1.736,0.633c-0.599,0.146-1.191,0.219-1.781,0.219c-1.276,0-2.304-0.369-3.069-1.105
				c-0.771-0.737-1.154-1.717-1.154-2.936c0-1.24,0.407-2.246,1.224-3.018c0.812-0.77,1.874-1.15,3.185-1.15
				c1.187,0,2.167,0.357,2.944,1.078c0.78,0.719,1.17,1.588,1.17,2.607c0,0.312-0.062,0.523-0.194,0.631
				c-0.134,0.107-0.489,0.16-1.072,0.16h-0.131h-5.661V79.258z M94.095,78.157h5.479c-0.084-0.668-0.36-1.205-0.838-1.613
				c-0.474-0.406-1.057-0.608-1.747-0.608c-0.743,0-1.375,0.194-1.886,0.592C94.594,76.915,94.257,77.459,94.095,78.157z"/>
			<path fill="#754E1F" d="M105.403,81.59h0.244c0.28,0,0.499,0.054,0.656,0.156c0.155,0.104,0.233,0.252,0.233,0.441
				c0,0.201-0.066,0.352-0.206,0.445c-0.141,0.096-0.354,0.145-0.65,0.145h-2.324c-0.168,0-0.311-0.057-0.421-0.168
				c-0.112-0.113-0.168-0.252-0.168-0.422c0-0.207,0.076-0.359,0.229-0.453c0.148-0.098,0.395-0.145,0.726-0.145h0.169l2.729-2.799
				l-2.681-2.603h-0.117c-0.323,0-0.552-0.043-0.678-0.133c-0.127-0.089-0.188-0.238-0.188-0.459c0-0.229,0.068-0.392,0.214-0.478
				c0.146-0.088,0.417-0.131,0.818-0.131h1.729c0.305,0,0.521,0.049,0.66,0.146c0.14,0.098,0.207,0.25,0.207,0.459
				c0,0.188-0.078,0.336-0.23,0.438c-0.152,0.1-0.377,0.15-0.669,0.15h-0.064l1.812,1.777l1.727-1.777h-0.177
				c-0.312,0-0.547-0.047-0.699-0.139c-0.148-0.096-0.228-0.236-0.228-0.438c0-0.222,0.066-0.377,0.201-0.479
				c0.137-0.1,0.354-0.145,0.656-0.145h2.188c0.174,0,0.313,0.057,0.425,0.164c0.108,0.105,0.164,0.252,0.164,0.426
				c0,0.207-0.067,0.359-0.21,0.459s-0.365,0.145-0.674,0.145h-0.235l-2.417,2.521l2.947,2.881h0.084
				c0.213,0,0.379,0.055,0.497,0.153c0.115,0.104,0.177,0.252,0.177,0.438c0,0.229-0.064,0.379-0.202,0.465
				c-0.135,0.084-0.411,0.125-0.834,0.125h-1.72c-0.297,0-0.519-0.049-0.656-0.145c-0.141-0.096-0.211-0.244-0.211-0.445
				c0-0.186,0.065-0.33,0.202-0.438c0.135-0.104,0.318-0.158,0.559-0.158h0.472l-2.121-2.07L105.403,81.59z"/>
		</g>
		<g>
			<path fill="#754E1F" d="M24.322,56.784h0.328c0.235,0,0.407,0.047,0.517,0.14c0.104,0.094,0.157,0.239,0.157,0.441
				c0,0.195-0.051,0.347-0.149,0.45c-0.104,0.104-0.246,0.155-0.438,0.155H20.59c-0.189,0-0.337-0.055-0.438-0.155
				c-0.103-0.104-0.148-0.255-0.148-0.45c0-0.208,0.056-0.355,0.164-0.446c0.106-0.09,0.296-0.135,0.562-0.135H21h0.527v-7.585H21
				c-0.43,0-0.7-0.043-0.818-0.131c-0.121-0.087-0.184-0.245-0.184-0.476c0-0.196,0.051-0.346,0.148-0.45
				c0.104-0.104,0.247-0.156,0.438-0.156h7.451c0.188,0,0.335,0.058,0.436,0.172c0.098,0.115,0.146,0.282,0.146,0.501v2.172
				c0,0.196-0.052,0.345-0.146,0.442c-0.101,0.098-0.243,0.146-0.436,0.146c-0.236,0-0.396-0.061-0.479-0.185
				S27.43,50.833,27.43,50.4v-1.204h-4.57v2.837h2.226v-0.219c0-0.41,0.039-0.688,0.116-0.825c0.077-0.142,0.22-0.211,0.422-0.211
				c0.181,0,0.312,0.054,0.394,0.16c0.082,0.104,0.121,0.278,0.121,0.514v2.14c0,0.279-0.037,0.477-0.112,0.58
				c-0.076,0.106-0.209,0.16-0.397,0.16c-0.201,0-0.343-0.07-0.421-0.211c-0.078-0.141-0.117-0.416-0.117-0.825v-0.243h-2.226v3.729
				h1.465v0.002H24.322z"/>
			<path fill="#754E1F" d="M35.52,56.784h2.703c0.219,0,0.38,0.047,0.482,0.14c0.104,0.094,0.152,0.239,0.152,0.441
				c0,0.229-0.049,0.39-0.146,0.477c-0.099,0.088-0.277,0.131-0.543,0.131h-6.531c-0.227,0-0.395-0.052-0.507-0.148
				c-0.11-0.104-0.169-0.253-0.169-0.455c0-0.195,0.062-0.343,0.179-0.438c0.117-0.097,0.295-0.146,0.528-0.146h2.565V51.39h-1.643
				c-0.229,0-0.405-0.054-0.525-0.154c-0.119-0.104-0.181-0.256-0.181-0.45c0-0.196,0.056-0.344,0.168-0.44
				c0.11-0.1,0.278-0.146,0.505-0.146h2.467c0.152,0,0.271,0.031,0.357,0.093c0.088,0.062,0.131,0.146,0.131,0.252L35.52,56.784
				L35.52,56.784z M33.962,47.767c0-0.606,0.057-0.988,0.165-1.145c0.106-0.157,0.346-0.235,0.702-0.235
				c0.351,0,0.575,0.066,0.688,0.198c0.11,0.132,0.169,0.445,0.169,0.938c0,0.483-0.052,0.782-0.156,0.896
				c-0.104,0.115-0.338,0.172-0.7,0.172c-0.356,0-0.596-0.053-0.702-0.16C34.017,48.326,33.962,48.104,33.962,47.767z"/>
			<path fill="#754E1F" d="M44.26,56.784h2.795c0.219,0,0.38,0.047,0.482,0.14c0.104,0.094,0.152,0.239,0.152,0.441
				c0,0.229-0.049,0.39-0.146,0.477c-0.101,0.088-0.277,0.131-0.543,0.131h-5.506c-0.222,0-0.388-0.052-0.497-0.148
				c-0.11-0.104-0.168-0.253-0.168-0.455c0-0.195,0.06-0.343,0.172-0.438c0.115-0.097,0.294-0.146,0.535-0.146h1.465V51.39h-0.57
				c-0.545,0-0.886-0.043-1.021-0.131c-0.138-0.088-0.202-0.246-0.202-0.478c0-0.196,0.057-0.344,0.164-0.44
				c0.106-0.1,0.273-0.146,0.501-0.146h1.92c0.148,0,0.268,0.027,0.347,0.088c0.078,0.061,0.117,0.146,0.117,0.257v1.435
				c0.532-0.668,1.09-1.164,1.667-1.49c0.577-0.325,1.2-0.487,1.868-0.487c0.499,0,0.9,0.101,1.212,0.304
				c0.311,0.201,0.465,0.463,0.465,0.782c0,0.208-0.077,0.392-0.231,0.552c-0.151,0.16-0.321,0.24-0.509,0.24
				c-0.13,0-0.348-0.086-0.649-0.258c-0.31-0.171-0.58-0.256-0.82-0.256c-0.438,0-0.898,0.154-1.386,0.467
				c-0.484,0.312-1.021,0.805-1.61,1.479L44.26,56.784L44.26,56.784z"/>
			<path fill="#754E1F" d="M51.762,57.366v-1.499c0-0.246,0.046-0.424,0.139-0.529c0.096-0.104,0.242-0.16,0.45-0.16
				c0.229,0,0.413,0.156,0.548,0.475c0.089,0.188,0.171,0.334,0.244,0.43c0.233,0.307,0.583,0.546,1.044,0.729
				c0.46,0.185,0.968,0.271,1.521,0.271c0.597,0,1.069-0.121,1.434-0.359c0.357-0.241,0.539-0.561,0.539-0.953
				c0-0.396-0.146-0.683-0.436-0.852c-0.29-0.168-0.785-0.252-1.484-0.252h-0.465c-1.146,0-2.021-0.197-2.617-0.598
				c-0.602-0.399-0.9-0.979-0.9-1.734c0-0.74,0.293-1.314,0.883-1.727c0.586-0.41,1.407-0.614,2.471-0.614
				c0.435,0,0.873,0.06,1.322,0.183c0.446,0.119,0.687,0.181,0.707,0.181c0.062,0,0.18-0.056,0.354-0.162
				c0.174-0.109,0.346-0.164,0.514-0.164c0.189,0,0.333,0.069,0.428,0.21c0.094,0.14,0.141,0.352,0.141,0.632v0.981
				c0,0.301-0.045,0.515-0.136,0.646c-0.09,0.133-0.231,0.197-0.433,0.197c-0.168,0-0.376-0.146-0.623-0.434
				c-0.174-0.191-0.313-0.345-0.43-0.441c-0.297-0.275-0.614-0.478-0.951-0.598c-0.337-0.121-0.729-0.182-1.188-0.182
				c-0.525,0-0.951,0.117-1.273,0.35s-0.48,0.529-0.48,0.893c0,0.354,0.165,0.604,0.495,0.758c0.329,0.151,1.045,0.238,2.141,0.264
				c1.168,0.025,2.021,0.229,2.561,0.607s0.812,0.965,0.812,1.756c0,0.762-0.298,1.363-0.896,1.818
				c-0.595,0.455-1.396,0.682-2.406,0.682c-0.318,0-0.679-0.025-1.067-0.088c-0.395-0.062-0.888-0.156-1.48-0.299
				c-0.193,0.129-0.362,0.229-0.506,0.29c-0.141,0.062-0.259,0.097-0.354,0.097c-0.195,0-0.35-0.064-0.449-0.205
				C51.817,57.823,51.762,57.624,51.762,57.366z"/>
			<path fill="#754E1F" d="M68.077,50.664c0.272,0,0.478,0.048,0.604,0.143c0.126,0.1,0.188,0.248,0.188,0.455
				c0,0.196-0.062,0.348-0.18,0.442c-0.118,0.099-0.295,0.146-0.527,0.146h-3.41v2.812c0,0.92,0.119,1.526,0.354,1.818
				c0.238,0.292,0.646,0.438,1.229,0.438c0.513,0,1.122-0.148,1.835-0.445c0.713-0.297,1.15-0.443,1.322-0.443
				c0.154,0,0.287,0.057,0.396,0.169c0.107,0.108,0.164,0.249,0.164,0.413c0,0.185-0.068,0.346-0.206,0.479
				c-0.14,0.14-0.372,0.271-0.703,0.398c-0.55,0.219-1.045,0.379-1.482,0.479c-0.439,0.102-0.854,0.147-1.242,0.147
				c-0.655,0-1.208-0.104-1.652-0.312c-0.446-0.211-0.779-0.523-0.998-0.939c-0.112-0.195-0.189-0.429-0.24-0.698
				c-0.048-0.269-0.068-0.685-0.068-1.245v-0.262v-2.812h-1.435c-0.232,0-0.403-0.047-0.513-0.139
				c-0.107-0.093-0.16-0.242-0.16-0.451c0-0.229,0.07-0.387,0.219-0.471c0.146-0.084,0.457-0.126,0.938-0.126h0.951v-1.726V48.49
				c0-0.241,0.053-0.419,0.153-0.535c0.104-0.115,0.268-0.172,0.483-0.172c0.245,0,0.418,0.07,0.514,0.21
				c0.099,0.14,0.146,0.46,0.146,0.96v1.709L68.077,50.664L68.077,50.664z"/>
			<path fill="#754E1F" d="M78.687,56.784c0.435,0,0.708,0.041,0.829,0.123c0.12,0.081,0.181,0.233,0.181,0.458
				c0,0.229-0.061,0.39-0.181,0.477c-0.121,0.088-0.396,0.131-0.829,0.131h-5.108H73.18c-0.202,0-0.356-0.052-0.465-0.148
				c-0.105-0.104-0.158-0.253-0.158-0.455c0-0.227,0.062-0.377,0.188-0.458c0.123-0.082,0.398-0.123,0.833-0.123h1.9v-7.585h-1.9
				c-0.424,0-0.695-0.043-0.825-0.131c-0.129-0.087-0.191-0.245-0.191-0.476c0-0.208,0.054-0.36,0.16-0.459
				c0.104-0.098,0.267-0.146,0.479-0.146h0.381h5.108h0.396c0.202,0,0.354,0.05,0.459,0.151s0.152,0.252,0.152,0.455
				c0,0.23-0.062,0.389-0.188,0.476c-0.126,0.087-0.397,0.131-0.818,0.131h-1.9v7.585L78.687,56.784L78.687,56.784z"/>
			<path fill="#754E1F" d="M83.342,56.784v-5.396h-0.157c-0.382,0-0.646-0.045-0.788-0.139c-0.145-0.09-0.214-0.247-0.214-0.472
				c0-0.208,0.062-0.354,0.177-0.45c0.117-0.093,0.312-0.139,0.572-0.139h0.396h0.811c0.149,0,0.27,0.027,0.354,0.093
				c0.084,0.062,0.126,0.146,0.126,0.252v0.573c0.407-0.385,0.812-0.664,1.217-0.85c0.399-0.183,0.815-0.271,1.25-0.271
				c0.85,0,1.517,0.264,2,0.791c0.482,0.524,0.729,1.258,0.729,2.188v3.812h0.396c0.277,0,0.479,0.047,0.604,0.139
				C90.938,57.013,91,57.16,91,57.362c0,0.22-0.063,0.375-0.195,0.468c-0.134,0.092-0.366,0.139-0.703,0.139h-1.857
				c-0.358,0-0.593-0.041-0.689-0.127c-0.104-0.084-0.151-0.244-0.151-0.479c0-0.219,0.062-0.37,0.18-0.454
				c0.115-0.084,0.34-0.127,0.666-0.127h0.294V53.28c0-0.656-0.146-1.158-0.445-1.503c-0.298-0.346-0.729-0.52-1.296-0.52
				c-0.572,0-1.078,0.191-1.52,0.582c-0.438,0.387-0.654,0.864-0.654,1.438v3.502h0.295c0.338,0,0.562,0.043,0.684,0.127
				c0.117,0.084,0.177,0.234,0.177,0.454c0,0.233-0.05,0.396-0.147,0.479c-0.104,0.084-0.352,0.127-0.74,0.127H83.36H82.9
				c-0.229,0-0.4-0.052-0.52-0.146c-0.113-0.1-0.173-0.251-0.173-0.459c0-0.225,0.062-0.377,0.194-0.458
				c0.135-0.082,0.392-0.123,0.771-0.123L83.342,56.784L83.342,56.784z"/>
			<path fill="#754E1F" d="M99.356,57.972c-0.118,0-0.201-0.029-0.249-0.088c-0.048-0.062-0.068-0.178-0.068-0.346V56.85
				c-0.34,0.421-0.761,0.748-1.266,0.979c-0.505,0.232-1.053,0.354-1.644,0.354c-1.062,0-1.947-0.379-2.665-1.133
				c-0.716-0.759-1.071-1.693-1.071-2.816c0-1.162,0.381-2.129,1.146-2.9c0.766-0.771,1.715-1.158,2.854-1.158
				c0.578,0,1.1,0.104,1.561,0.312c0.46,0.205,0.854,0.507,1.188,0.902v-3.226h-0.446c-0.485,0-0.805-0.043-0.944-0.13
				c-0.146-0.087-0.217-0.246-0.217-0.476c0-0.202,0.061-0.354,0.175-0.455c0.111-0.101,0.278-0.151,0.501-0.151h1.728
				c0.168,0,0.29,0.028,0.365,0.084c0.075,0.056,0.112,0.143,0.112,0.261v9.488h0.379c0.272,0,0.477,0.047,0.6,0.14
				c0.124,0.094,0.188,0.239,0.188,0.441c0,0.188-0.056,0.34-0.159,0.445c-0.104,0.104-0.249,0.16-0.432,0.16H99.36L99.356,57.972
				L99.356,57.972z M93.842,54.192c0,0.774,0.249,1.409,0.749,1.903c0.499,0.489,1.136,0.736,1.902,0.736
				c0.772,0,1.409-0.257,1.908-0.771c0.5-0.516,0.75-1.166,0.75-1.959c0-0.777-0.249-1.424-0.742-1.93
				c-0.497-0.504-1.139-0.758-1.916-0.758c-0.791,0-1.434,0.256-1.922,0.768C94.086,52.698,93.842,53.367,93.842,54.192z"/>
			<path fill="#754E1F" d="M104.323,54.452c0.047,0.81,0.318,1.435,0.82,1.873c0.502,0.44,1.188,0.662,2.062,0.662
				c0.654,0,1.372-0.177,2.146-0.527c0.772-0.35,1.243-0.524,1.403-0.524c0.169,0,0.311,0.056,0.423,0.16
				c0.11,0.104,0.169,0.237,0.169,0.396c0,0.164-0.061,0.312-0.179,0.447s-0.309,0.266-0.562,0.396
				c-0.562,0.274-1.143,0.485-1.738,0.634c-0.598,0.146-1.188,0.22-1.778,0.22c-1.277,0-2.307-0.368-3.07-1.106
				c-0.771-0.736-1.154-1.717-1.154-2.935c0-1.24,0.407-2.245,1.225-3.019c0.812-0.768,1.874-1.153,3.184-1.153
				c1.188,0,2.167,0.359,2.946,1.081c0.777,0.72,1.17,1.588,1.17,2.607c0,0.312-0.064,0.525-0.196,0.631
				c-0.133,0.107-0.49,0.16-1.073,0.16h-0.127L104.323,54.452L104.323,54.452z M104.365,53.349h5.48
				c-0.084-0.668-0.363-1.205-0.84-1.611c-0.476-0.407-1.059-0.611-1.745-0.611c-0.746,0-1.375,0.197-1.888,0.59
				C104.864,52.11,104.528,52.654,104.365,53.349z"/>
			<path fill="#754E1F" d="M115.674,56.784h0.244c0.277,0,0.499,0.053,0.653,0.156c0.157,0.103,0.235,0.251,0.235,0.438
				c0,0.203-0.065,0.354-0.206,0.447c-0.14,0.099-0.354,0.146-0.649,0.146h-2.324c-0.168,0-0.312-0.06-0.421-0.168
				c-0.11-0.112-0.168-0.252-0.168-0.425c0-0.204,0.073-0.355,0.229-0.45c0.15-0.099,0.396-0.146,0.727-0.146h0.169l2.729-2.795
				l-2.68-2.604h-0.116c-0.325,0-0.553-0.044-0.679-0.133c-0.127-0.086-0.188-0.238-0.188-0.458c0-0.229,0.069-0.389,0.214-0.476
				c0.146-0.088,0.417-0.133,0.821-0.133h1.727c0.306,0,0.521,0.051,0.66,0.146c0.141,0.1,0.207,0.251,0.207,0.459
				c0,0.191-0.078,0.337-0.229,0.438c-0.152,0.102-0.377,0.148-0.669,0.148h-0.065l1.812,1.776l1.727-1.776h-0.178
				c-0.312,0-0.547-0.047-0.698-0.139c-0.15-0.094-0.229-0.236-0.229-0.436c0-0.219,0.065-0.377,0.2-0.478
				c0.138-0.099,0.354-0.146,0.656-0.146h2.188c0.174,0,0.312,0.055,0.425,0.164c0.106,0.106,0.164,0.252,0.164,0.426
				c0,0.207-0.068,0.358-0.21,0.459c-0.144,0.099-0.364,0.146-0.675,0.146h-0.233l-2.417,2.519l2.946,2.881h0.084
				c0.213,0,0.379,0.053,0.497,0.154c0.114,0.104,0.177,0.252,0.177,0.439c0,0.227-0.065,0.379-0.201,0.463
				c-0.136,0.087-0.412,0.128-0.834,0.128h-1.719c-0.297,0-0.52-0.049-0.655-0.144c-0.142-0.098-0.211-0.244-0.211-0.447
				c0-0.187,0.063-0.33,0.201-0.438c0.136-0.105,0.317-0.16,0.558-0.16h0.472l-2.12-2.069L115.674,56.784z"/>
		</g>
		<g>
			<path fill="#754E1F" d="M26.638,14.658H21.87v2.625h1.794V17.16c0-0.383,0.087-0.671,0.261-0.867
				c0.177-0.194,0.438-0.292,0.785-0.292c0.31,0,0.561,0.087,0.753,0.262c0.195,0.174,0.292,0.396,0.292,0.661v0.359v2.123
				c0,0.458-0.082,0.786-0.246,0.984c-0.162,0.198-0.431,0.297-0.8,0.297c-0.352,0-0.608-0.09-0.785-0.272
				c-0.174-0.181-0.261-0.456-0.261-0.825v-0.185H21.87v3.004h0.571c0.451,0,0.773,0.087,0.972,0.261
				c0.192,0.175,0.292,0.457,0.292,0.846c0,0.403-0.102,0.694-0.297,0.872c-0.198,0.178-0.521,0.271-0.967,0.271h-3.063
				c-0.442,0-0.769-0.089-0.964-0.271c-0.198-0.178-0.297-0.468-0.297-0.872c0-0.362,0.092-0.637,0.274-0.826
				c0.188-0.188,0.455-0.282,0.812-0.282h0.174v-7.649h-0.174c-0.352,0-0.617-0.097-0.808-0.292
				c-0.188-0.194-0.279-0.473-0.279-0.835c0-0.396,0.103-0.685,0.303-0.867c0.201-0.181,0.521-0.271,0.958-0.271h8.396
				c0.417,0,0.699,0.063,0.849,0.189c0.146,0.127,0.223,0.378,0.223,0.754v2.297c0,0.458-0.089,0.79-0.264,0.995
				c-0.177,0.205-0.456,0.308-0.849,0.308c-0.391,0-0.67-0.101-0.841-0.302c-0.171-0.201-0.256-0.535-0.256-1L26.638,14.658
				L26.638,14.658z"/>
			<path fill="#754E1F" d="M36.194,14.956c1.661,0,3.011,0.465,4.04,1.395c1.032,0.93,1.548,2.123,1.548,3.579
				c0,1.463-0.516,2.659-1.548,3.589c-1.029,0.93-2.379,1.395-4.04,1.395c-1.651,0-2.998-0.465-4.027-1.395
				c-1.031-0.93-1.548-2.126-1.548-3.589c0-1.456,0.519-2.649,1.554-3.579C33.205,15.42,34.547,14.956,36.194,14.956z
				 M36.194,17.119c-0.8,0-1.458,0.261-1.974,0.785c-0.519,0.521-0.774,1.188-0.774,2.004c0,0.82,0.261,1.499,0.774,2.036
				c0.516,0.537,1.174,0.805,1.974,0.805c0.803,0,1.459-0.268,1.979-0.805c0.521-0.537,0.779-1.215,0.779-2.036
				c0-0.813-0.261-1.482-0.772-2.004C37.662,17.38,37.001,17.119,36.194,17.119z"/>
			<path fill="#754E1F" d="M48.335,19.088v3.322h2.42c0.467,0,0.794,0.085,0.99,0.256c0.191,0.171,0.292,0.455,0.292,0.851
				c0,0.403-0.101,0.694-0.292,0.872c-0.195,0.178-0.523,0.267-0.99,0.267h-5.73c-0.472,0-0.809-0.089-1.005-0.267
				c-0.198-0.178-0.297-0.468-0.297-0.872c0-0.396,0.097-0.68,0.292-0.851c0.192-0.171,0.529-0.256,1.01-0.256h0.779v-4.983h-0.441
				c-0.465,0-0.794-0.087-0.987-0.261c-0.192-0.175-0.292-0.463-0.292-0.867c0-0.404,0.095-0.69,0.279-0.861
				c0.188-0.171,0.521-0.256,1-0.256h2.187c0.187,0,0.328,0.04,0.433,0.118c0.104,0.078,0.152,0.186,0.152,0.323v1.518
				c0.745-0.8,1.438-1.371,2.087-1.712c0.646-0.342,1.343-0.513,2.088-0.513c0.677,0,1.213,0.152,1.608,0.456
				c0.396,0.305,0.596,0.713,0.596,1.226c0,0.396-0.138,0.723-0.409,0.979s-0.625,0.384-1.058,0.384
				c-0.311,0-0.672-0.113-1.092-0.338c-0.424-0.226-0.716-0.338-0.88-0.338c-0.325,0-0.714,0.147-1.156,0.441
				C49.469,18.02,48.943,18.473,48.335,19.088z"/>
			<path fill="#754E1F" d="M72.893,14.761v7.649h4.666v-1.825c0-0.472,0.083-0.807,0.251-1.005c0.167-0.198,0.444-0.297,0.835-0.297
				c0.392,0,0.673,0.101,0.854,0.303c0.179,0.202,0.269,0.535,0.269,1v3.148c0,0.369-0.072,0.615-0.217,0.738
				c-0.146,0.123-0.431,0.185-0.859,0.185h-9.3c-0.444,0-0.764-0.089-0.954-0.267c-0.189-0.178-0.287-0.468-0.287-0.872
				c0-0.396,0.096-0.68,0.282-0.851c0.188-0.171,0.508-0.256,0.959-0.256h0.9v-7.649H69.39c-0.444,0-0.764-0.089-0.954-0.267
				c-0.19-0.178-0.287-0.465-0.287-0.861c0-0.396,0.104-0.685,0.303-0.867c0.201-0.181,0.521-0.271,0.96-0.271h4.366
				c0.438,0,0.759,0.091,0.959,0.271c0.201,0.182,0.305,0.47,0.305,0.867c0,0.397-0.102,0.684-0.3,0.861
				c-0.195,0.177-0.52,0.267-0.964,0.267L72.893,14.761L72.893,14.761z"/>
			<path fill="#754E1F" d="M86.603,14.956c1.661,0,3.008,0.465,4.04,1.395c1.03,0.93,1.548,2.123,1.548,3.579
				c0,1.463-0.518,2.659-1.548,3.589c-1.032,0.93-2.379,1.395-4.04,1.395c-1.654,0-2.998-0.465-4.03-1.395
				c-1.029-0.93-1.548-2.126-1.548-3.589c0-1.456,0.521-2.649,1.557-3.579C83.613,15.42,84.955,14.956,86.603,14.956z
				 M86.603,17.119c-0.8,0-1.458,0.261-1.976,0.785c-0.52,0.521-0.772,1.188-0.772,2.004c0,0.82,0.258,1.499,0.772,2.036
				c0.518,0.537,1.176,0.805,1.976,0.805s1.459-0.268,1.979-0.805c0.521-0.537,0.776-1.215,0.776-2.036
				c0-0.813-0.258-1.482-0.771-2.004C88.07,17.38,87.409,17.119,86.603,17.119z"/>
			<path fill="#754E1F" d="M99.205,14.956c1.661,0,3.008,0.465,4.04,1.395c1.029,0.93,1.548,2.123,1.548,3.579
				c0,1.463-0.519,2.659-1.548,3.589c-1.032,0.93-2.379,1.395-4.04,1.395c-1.652,0-2.998-0.465-4.03-1.395
				c-1.03-0.93-1.548-2.126-1.548-3.589c0-1.456,0.52-2.649,1.556-3.579C96.215,15.42,97.557,14.956,99.205,14.956z M99.205,17.119
				c-0.803,0-1.458,0.261-1.977,0.785c-0.519,0.521-0.771,1.188-0.771,2.004c0,0.82,0.258,1.499,0.771,2.036
				c0.519,0.537,1.174,0.805,1.977,0.805c0.8,0,1.459-0.268,1.979-0.805c0.521-0.537,0.777-1.215,0.777-2.036
				c0-0.813-0.258-1.482-0.772-2.004C100.672,17.38,100.011,17.119,99.205,17.119z"/>
			<path fill="#754E1F" d="M109.858,23.692v2.789h1.305c0.465,0,0.798,0.089,1,0.267c0.199,0.178,0.303,0.468,0.303,0.872
				c0,0.396-0.102,0.68-0.297,0.851c-0.196,0.171-0.532,0.256-1.005,0.256h-4.351c-0.474,0-0.803-0.084-0.995-0.251
				c-0.189-0.167-0.287-0.453-0.287-0.856c0-0.403,0.101-0.694,0.292-0.872c0.195-0.178,0.525-0.267,0.99-0.267h0.604v-9.054h-0.164
				c-0.36,0-0.642-0.096-0.831-0.287c-0.19-0.191-0.285-0.472-0.285-0.841c0-0.403,0.096-0.69,0.285-0.861
				c0.188-0.171,0.521-0.256,0.995-0.256h1.579c0.195,0,0.346,0.036,0.438,0.107c0.099,0.072,0.146,0.176,0.146,0.313v0.738
				c0.351-0.465,0.771-0.815,1.268-1.051c0.496-0.235,1.055-0.354,1.677-0.354c1.4,0,2.562,0.448,3.486,1.343
				c0.923,0.895,1.384,2.023,1.384,3.384c0,1.422-0.448,2.599-1.343,3.533c-0.896,0.933-2.023,1.399-3.386,1.399
				c-0.557,0-1.069-0.077-1.557-0.229C110.633,24.209,110.214,23.986,109.858,23.692z M112.227,17.119
				c-0.679,0-1.231,0.25-1.671,0.749c-0.438,0.499-0.656,1.138-0.656,1.917c0,0.779,0.222,1.418,0.656,1.917
				c0.438,0.499,0.995,0.749,1.671,0.749s1.234-0.251,1.676-0.753c0.441-0.503,0.662-1.14,0.662-1.913
				c0-0.779-0.219-1.418-0.653-1.917C113.472,17.369,112.911,17.119,112.227,17.119z"/>
		</g>
		<g>
			<path fill="#754E1F" d="M154.021,51.88c0,1.605-0.445,2.922-1.336,3.951c-0.892,1.027-2.03,1.542-3.419,1.542
				c-1.377,0-2.514-0.516-3.406-1.547c-0.894-1.031-1.34-2.347-1.34-3.946c0-1.617,0.441-2.938,1.327-3.959
				c0.885-1.023,2.023-1.534,3.419-1.534c1.389,0,2.527,0.516,3.419,1.547C153.576,48.965,154.021,50.28,154.021,51.88z
				 M149.266,56.125c0.983,0,1.759-0.376,2.323-1.13c0.565-0.752,0.85-1.791,0.85-3.115c0-1.324-0.283-2.363-0.85-3.115
				c-0.564-0.754-1.34-1.13-2.323-1.13c-0.99,0-1.767,0.374-2.324,1.12c-0.562,0.748-0.84,1.789-0.84,3.125
				c0,1.324,0.282,2.363,0.848,3.115C147.515,55.749,148.287,56.125,149.266,56.125z"/>
			<path fill="#754E1F" d="M157.879,53.857c0,0.738,0.155,1.277,0.467,1.617c0.311,0.34,0.803,0.51,1.477,0.51
				c0.639,0,1.185-0.202,1.639-0.606c0.454-0.404,0.683-0.911,0.683-1.521v-3.63h-1.204c-0.229,0-0.396-0.049-0.497-0.145
				c-0.104-0.098-0.153-0.248-0.153-0.453c0-0.223,0.057-0.387,0.167-0.492c0.111-0.104,0.29-0.158,0.536-0.158h1.872
				c0.223,0,0.379,0.049,0.471,0.145c0.091,0.098,0.137,0.333,0.137,0.708v6.029h0.403c0.287,0,0.493,0.047,0.62,0.141
				c0.125,0.094,0.188,0.249,0.188,0.466c0,0.211-0.062,0.369-0.182,0.475s-0.294,0.158-0.521,0.158h-1.336
				c-0.158,0-0.281-0.032-0.369-0.097s-0.132-0.152-0.132-0.264v-0.598c-0.562,0.434-1.045,0.731-1.445,0.892
				c-0.402,0.162-0.825,0.242-1.271,0.242c-0.968,0-1.692-0.256-2.176-0.77c-0.483-0.512-0.726-1.287-0.726-2.324v-3.955h-0.186
				c-0.397,0-0.671-0.047-0.816-0.141c-0.146-0.094-0.22-0.258-0.22-0.492c0-0.205,0.057-0.359,0.172-0.461
				c0.112-0.104,0.291-0.154,0.53-0.154h1.327c0.205,0,0.348,0.041,0.428,0.123c0.077,0.082,0.117,0.264,0.117,0.545V53.857z"/>
			<path fill="#754E1F" d="M173.269,49.472c0.287,0,0.497,0.05,0.628,0.149c0.133,0.1,0.198,0.258,0.198,0.475
				c0,0.205-0.062,0.358-0.186,0.462c-0.123,0.102-0.308,0.153-0.554,0.153h-3.561v2.936c0,0.961,0.124,1.594,0.373,1.898
				c0.249,0.304,0.677,0.457,1.279,0.457c0.533,0,1.172-0.155,1.916-0.466s1.204-0.466,1.38-0.466c0.164,0,0.304,0.059,0.417,0.176
				c0.115,0.117,0.172,0.261,0.172,0.431c0,0.193-0.071,0.361-0.215,0.506c-0.145,0.143-0.389,0.282-0.733,0.417
				c-0.574,0.229-1.093,0.396-1.552,0.501c-0.461,0.105-0.893,0.158-1.297,0.158c-0.686,0-1.262-0.109-1.727-0.33
				c-0.467-0.219-0.813-0.546-1.042-0.979c-0.117-0.205-0.201-0.448-0.251-0.729c-0.051-0.281-0.074-0.715-0.074-1.301v-0.272
				v-2.936h-1.494c-0.246,0-0.425-0.048-0.536-0.146c-0.11-0.096-0.167-0.253-0.167-0.47c0-0.24,0.076-0.404,0.229-0.492
				c0.152-0.088,0.478-0.132,0.976-0.132h0.993V47.67v-0.466c0-0.252,0.054-0.438,0.162-0.559c0.107-0.119,0.276-0.18,0.506-0.18
				c0.258,0,0.437,0.073,0.536,0.22c0.099,0.147,0.148,0.48,0.148,1.002v1.784h3.474V49.472z"/>
		</g>
	</g>
</g>
</svg>
