<?xml version="1.0" encoding="utf-8"?>
<!-- Generator: Adobe Illustrator 16.0.0, SVG Export Plug-In . SVG Version: 6.00 Build 0)  -->
<!DOCTYPE svg PUBLIC "-//W3C//DTD SVG 1.1//EN" "http://www.w3.org/Graphics/SVG/1.1/DTD/svg11.dtd">
<svg version="1.1" id="Layer_1" xmlns="http://www.w3.org/2000/svg" xmlns:xlink="http://www.w3.org/1999/xlink" x="0px" y="0px"
	 width="140.963px" height="140.962px" viewBox="0 0 140.963 140.962" enable-background="new 0 0 140.963 140.962"
	 xml:space="preserve">
<g>
	<circle fill="#E6E7E8" cx="70.481" cy="70.481" r="70.481"/>
	<g>
		<path fill="#D1D3D4" d="M140.963,70.337c0-17.596-6.449-33.686-17.112-46.035l-5.015-5.016l-81.232,81.232l39.948,39.947
			C113.156,136.919,140.963,106.876,140.963,70.337z"/>
	</g>
	<polygon fill="#A7A9AC" points="35.421,98.094 38.993,101.665 76.645,73.449 79.257,76.062 85.885,69.433 67.654,51.202 
		61.026,57.831 63.638,60.442 	"/>
	<g>
		<path fill="#D1D3D4" d="M91.783,3.032l-29.318,29.32c-3.739,3.738-3.739,9.801-0.001,13.539l28.235,28.234
			c3.738,3.739,9.801,3.739,13.539,0l31.11-31.11C127.436,24.08,111.497,9.338,91.783,3.032z"/>
		<path fill="#BCBEC0" d="M118.152,18.438l-41.57,41.57l14.117,14.117c3.738,3.739,9.801,3.739,13.539,0l31.11-31.11
			C131.421,33.616,125.516,25.252,118.152,18.438z"/>
	</g>
</g>
</svg>
