<?xml version="1.0" encoding="utf-8"?>
<!-- Generator: Adobe Illustrator 16.0.0, SVG Export Plug-In . SVG Version: 6.00 Build 0)  -->
<!DOCTYPE svg PUBLIC "-//W3C//DTD SVG 1.1//EN" "http://www.w3.org/Graphics/SVG/1.1/DTD/svg11.dtd">
<svg version="1.1" id="Layer_1" xmlns="http://www.w3.org/2000/svg" xmlns:xlink="http://www.w3.org/1999/xlink" x="0px" y="0px"
	 width="172.779px" height="172.863px" viewBox="0 0 172.779 172.863" enable-background="new 0 0 172.779 172.863"
	 xml:space="preserve">
<g>
	<g>
		<path fill="#F7C55A" d="M172.78,165.132c0,4.268-3.461,7.73-7.731,7.73H7.805c-4.267,0-7.729-3.463-7.729-7.73V7.732
			C0.077,3.46,3.54,0,7.805,0h157.242c4.271,0,7.731,3.46,7.731,7.732L172.78,165.132L172.78,165.132z"/>
		<path fill="#F8E5AE" d="M0.077,36.092v129.041c0,4.268,3.463,7.73,7.729,7.73h157.242c4.271,0,7.729-3.463,7.729-7.73V36.092
			H0.077z"/>
		<g>
			<path fill="#754E1F" d="M27.026,56.835c0.433,0,0.708,0.041,0.829,0.122c0.12,0.082,0.182,0.234,0.182,0.458
				c0,0.23-0.062,0.389-0.182,0.476c-0.121,0.087-0.396,0.13-0.829,0.13h-5.11H21.52c-0.202,0-0.355-0.05-0.463-0.151
				c-0.106-0.101-0.16-0.253-0.16-0.455c0-0.224,0.062-0.377,0.187-0.458c0.123-0.082,0.4-0.122,0.833-0.122h1.902v-7.586h-1.902
				c-0.421,0-0.694-0.043-0.825-0.131c-0.129-0.087-0.192-0.245-0.192-0.476c0-0.208,0.055-0.36,0.16-0.459
				c0.105-0.098,0.268-0.147,0.479-0.147h0.379h5.11h0.396c0.202,0,0.354,0.05,0.459,0.151c0.104,0.101,0.155,0.252,0.155,0.455
				c0,0.23-0.062,0.389-0.188,0.476s-0.398,0.131-0.82,0.131h-1.902v7.586H27.026z"/>
			<path fill="#754E1F" d="M31.682,56.835v-5.397h-0.159c-0.382,0-0.646-0.045-0.788-0.135c-0.144-0.09-0.214-0.247-0.214-0.472
				c0-0.208,0.06-0.357,0.177-0.45c0.117-0.093,0.31-0.139,0.572-0.139h0.396h0.81c0.15,0,0.271,0.031,0.354,0.093
				s0.126,0.146,0.126,0.252v0.573c0.409-0.382,0.814-0.664,1.217-0.846s0.817-0.273,1.25-0.273c0.849,0,1.516,0.264,2,0.791
				c0.485,0.528,0.729,1.258,0.729,2.189v3.814h0.396c0.28,0,0.481,0.046,0.605,0.139c0.123,0.093,0.186,0.24,0.186,0.442
				c0,0.219-0.064,0.375-0.196,0.467c-0.133,0.093-0.366,0.139-0.703,0.139H36.58c-0.358,0-0.591-0.042-0.689-0.126
				c-0.103-0.084-0.152-0.244-0.152-0.48c0-0.219,0.061-0.37,0.178-0.455c0.118-0.084,0.34-0.126,0.666-0.126h0.294v-3.502
				c0-0.657-0.147-1.158-0.445-1.503c-0.298-0.345-0.729-0.518-1.297-0.518c-0.572,0-1.077,0.194-1.516,0.581
				s-0.657,0.867-0.657,1.44v3.502h0.295c0.337,0,0.563,0.042,0.683,0.126s0.177,0.236,0.177,0.455c0,0.236-0.05,0.396-0.15,0.48
				c-0.102,0.084-0.348,0.126-0.739,0.126h-1.533h-0.454c-0.229,0-0.402-0.049-0.519-0.147c-0.114-0.098-0.173-0.251-0.173-0.459
				c0-0.224,0.064-0.377,0.197-0.458c0.132-0.081,0.389-0.122,0.771-0.122L31.682,56.835L31.682,56.835z"/>
			<path fill="#754E1F" d="M42.989,60.177h2.021c0.214,0,0.373,0.051,0.479,0.152c0.106,0.101,0.16,0.252,0.16,0.455
				c0,0.219-0.053,0.373-0.155,0.463c-0.104,0.09-0.287,0.135-0.553,0.135h-3.713c-0.226,0-0.395-0.05-0.509-0.151
				c-0.115-0.101-0.174-0.25-0.174-0.446c0-0.225,0.071-0.382,0.216-0.472c0.143-0.09,0.407-0.135,0.796-0.135h0.158v-8.739h-0.158
				c-0.389,0-0.653-0.045-0.796-0.135c-0.145-0.09-0.216-0.247-0.216-0.472c0-0.196,0.059-0.344,0.174-0.442
				c0.114-0.098,0.283-0.147,0.509-0.147h1.279c0.169,0,0.29,0.028,0.366,0.084c0.074,0.056,0.112,0.143,0.112,0.261v0.817
				c0.383-0.395,0.806-0.688,1.269-0.884c0.464-0.196,0.961-0.294,1.494-0.294c1.128,0,2.07,0.382,2.829,1.145
				c0.758,0.763,1.137,1.72,1.137,2.871c0,1.106-0.358,2.015-1.077,2.728C47.918,57.684,47,58.04,45.884,58.04
				c-0.596,0-1.145-0.105-1.643-0.315c-0.5-0.21-0.919-0.512-1.256-0.905L42.989,60.177L42.989,60.177z M45.6,56.801
				c0.779,0,1.42-0.246,1.92-0.737c0.499-0.491,0.749-1.127,0.749-1.907c0-0.763-0.251-1.393-0.754-1.89
				c-0.502-0.497-1.142-0.745-1.915-0.745s-1.409,0.247-1.903,0.741c-0.492,0.494-0.739,1.125-0.739,1.896
				c0,0.775,0.245,1.409,0.735,1.903C44.184,56.554,44.819,56.801,45.6,56.801z"/>
			<path fill="#754E1F" d="M53.413,54.915c0,0.708,0.147,1.224,0.445,1.549c0.297,0.326,0.77,0.488,1.414,0.488
				c0.612,0,1.137-0.193,1.57-0.581c0.435-0.387,0.651-0.873,0.651-1.457v-3.477h-1.153c-0.219,0-0.377-0.046-0.477-0.139
				c-0.099-0.092-0.146-0.237-0.146-0.434c0-0.213,0.054-0.37,0.159-0.471s0.276-0.152,0.515-0.152h1.793
				c0.214,0,0.362,0.046,0.451,0.139c0.087,0.093,0.13,0.318,0.13,0.678v5.776h0.388c0.274,0,0.474,0.045,0.595,0.135
				c0.12,0.09,0.182,0.238,0.182,0.446c0,0.202-0.059,0.354-0.174,0.455c-0.114,0.101-0.281,0.151-0.501,0.151h-1.278
				c-0.15,0-0.271-0.031-0.354-0.093c-0.085-0.062-0.127-0.146-0.127-0.252v-0.572c-0.538,0.415-1,0.7-1.386,0.854
				c-0.385,0.154-0.79,0.231-1.217,0.231c-0.926,0-1.62-0.246-2.084-0.737c-0.463-0.491-0.693-1.233-0.693-2.227v-3.789H51.94
				c-0.382,0-0.644-0.045-0.783-0.135c-0.14-0.09-0.21-0.247-0.21-0.472c0-0.196,0.056-0.344,0.164-0.442
				c0.109-0.098,0.279-0.146,0.51-0.146h1.271c0.195,0,0.333,0.04,0.407,0.118c0.076,0.079,0.114,0.252,0.114,0.522L53.413,54.915
				L53.413,54.915z"/>
			<path fill="#754E1F" d="M68.154,50.714c0.275,0,0.477,0.048,0.604,0.143c0.126,0.096,0.188,0.247,0.188,0.455
				c0,0.197-0.06,0.344-0.177,0.442c-0.118,0.098-0.295,0.147-0.53,0.147h-3.409v2.812c0,0.921,0.118,1.527,0.356,1.819
				c0.237,0.292,0.646,0.438,1.227,0.438c0.511,0,1.122-0.147,1.835-0.446c0.713-0.297,1.152-0.446,1.321-0.446
				c0.157,0,0.29,0.056,0.399,0.168c0.108,0.112,0.163,0.25,0.163,0.413c0,0.185-0.067,0.347-0.205,0.484
				c-0.139,0.138-0.372,0.271-0.703,0.4c-0.551,0.219-1.045,0.379-1.485,0.48s-0.854,0.151-1.241,0.151
				c-0.657,0-1.208-0.105-1.654-0.315c-0.445-0.21-0.778-0.523-0.997-0.939c-0.112-0.196-0.192-0.429-0.24-0.699
				c-0.048-0.27-0.07-0.685-0.07-1.246v-0.261v-2.812h-1.433c-0.234,0-0.406-0.046-0.514-0.139
				c-0.106-0.093-0.159-0.243-0.159-0.451c0-0.23,0.071-0.387,0.219-0.471c0.146-0.084,0.457-0.126,0.936-0.126h0.951v-1.726v-0.446
				c0-0.241,0.052-0.419,0.155-0.535c0.104-0.115,0.266-0.172,0.482-0.172c0.247,0,0.418,0.07,0.515,0.21
				c0.097,0.14,0.145,0.46,0.145,0.96v1.709L68.154,50.714L68.154,50.714z"/>
			<path fill="#754E1F" d="M74.191,48.988c-0.072,0.011-0.128,0.02-0.164,0.023c-0.036,0.006-0.068,0.008-0.097,0.008
				c-0.175,0-0.316-0.049-0.427-0.147c-0.108-0.098-0.164-0.229-0.164-0.391c0-0.135,0.049-0.253,0.145-0.354
				c0.097-0.101,0.231-0.177,0.412-0.227l2.501-0.674c0.062-0.017,0.122-0.029,0.182-0.038c0.061-0.008,0.118-0.013,0.183-0.013
				c0.104,0,0.189,0.049,0.252,0.147c0.062,0.098,0.093,0.23,0.093,0.4v9.11h1.349c0.499,0,0.815,0.041,0.95,0.122
				c0.136,0.081,0.202,0.234,0.202,0.458c0,0.202-0.058,0.354-0.169,0.455c-0.111,0.101-0.279,0.151-0.505,0.151h-5.035
				c-0.226,0-0.394-0.05-0.505-0.151c-0.112-0.101-0.168-0.253-0.168-0.455c0-0.224,0.066-0.377,0.202-0.458
				c0.134-0.082,0.45-0.122,0.95-0.122h1.396v-8.226L74.191,48.988z"/>
		</g>
		<g>
			<path fill="#754E1F" d="M27.127,97.539c0.057-0.152,0.136-0.26,0.234-0.32c0.103-0.061,0.247-0.094,0.438-0.094
				c0.207,0,0.354,0.051,0.438,0.152s0.126,0.309,0.126,0.623c0,0.551,0.007,1.062,0.019,1.536c0.012,0.476,0.018,0.681,0.018,0.618
				c0,0.265-0.045,0.443-0.135,0.535c-0.091,0.093-0.25,0.139-0.479,0.139c-0.371,0-0.612-0.264-0.726-0.791
				c-0.039-0.156-0.069-0.277-0.094-0.361c-0.105-0.422-0.361-0.766-0.766-1.031c-0.404-0.268-0.88-0.398-1.424-0.398
				c-0.993,0-1.791,0.361-2.392,1.09c-0.602,0.729-0.9,1.702-0.9,2.928c0,1.223,0.305,2.197,0.913,2.926
				c0.608,0.727,1.413,1.09,2.412,1.09c0.325,0,0.657-0.047,0.993-0.139c0.337-0.092,0.668-0.231,0.993-0.416
				c0.15-0.08,0.358-0.213,0.623-0.4s0.451-0.282,0.562-0.282c0.176,0,0.321,0.058,0.442,0.173c0.12,0.115,0.181,0.258,0.181,0.426
				s-0.064,0.33-0.196,0.483c-0.133,0.153-0.379,0.345-0.737,0.567c-0.471,0.31-0.944,0.537-1.423,0.684
				c-0.478,0.146-0.979,0.219-1.507,0.219c-1.388,0-2.531-0.49-3.436-1.47s-1.355-2.231-1.355-3.759c0-1.51,0.458-2.766,1.372-3.764
				c0.915-1,2.065-1.5,3.452-1.5c0.37,0,0.747,0.045,1.133,0.135C26.294,97.225,26.7,97.358,27.127,97.539z"/>
			<path fill="#754E1F" d="M39.234,103.365c0,1.2-0.41,2.184-1.229,2.945c-0.818,0.764-1.883,1.146-3.189,1.146
				c-1.303,0-2.362-0.383-3.184-1.146c-0.819-0.764-1.229-1.745-1.229-2.945c0-1.201,0.409-2.184,1.229-2.943
				c0.82-0.758,1.881-1.141,3.184-1.141s2.364,0.381,3.188,1.145C38.825,101.19,39.234,102.167,39.234,103.365z M34.814,106.277
				c0.864,0,1.572-0.273,2.126-0.82s0.829-1.244,0.829-2.092c0-0.849-0.278-1.549-0.834-2.102c-0.557-0.553-1.264-0.83-2.121-0.83
				c-0.858,0-1.564,0.277-2.118,0.83c-0.553,0.553-0.828,1.253-0.828,2.102c0,0.852,0.274,1.551,0.824,2.096
				C33.242,106.005,33.948,106.277,34.814,106.277z"/>
			<path fill="#754E1F" d="M42.029,106.058v-5.396H41.87c-0.383,0-0.646-0.045-0.788-0.135c-0.144-0.09-0.214-0.248-0.214-0.473
				c0-0.207,0.06-0.357,0.177-0.449c0.117-0.094,0.31-0.141,0.572-0.141h0.396h0.809c0.151,0,0.271,0.031,0.354,0.094
				s0.126,0.146,0.126,0.252v0.572c0.409-0.381,0.813-0.662,1.217-0.846c0.4-0.184,0.817-0.273,1.25-0.273
				c0.849,0,1.516,0.264,2,0.791s0.729,1.258,0.729,2.189v3.812h0.396c0.279,0,0.481,0.047,0.605,0.141
				c0.123,0.092,0.186,0.238,0.186,0.438c0,0.222-0.064,0.375-0.197,0.47c-0.132,0.095-0.365,0.142-0.702,0.142h-1.86
				c-0.358,0-0.59-0.043-0.689-0.127c-0.103-0.084-0.151-0.244-0.151-0.48c0-0.219,0.061-0.369,0.178-0.454
				c0.117-0.084,0.34-0.126,0.666-0.126h0.294v-3.502c0-0.657-0.148-1.158-0.446-1.504c-0.297-0.346-0.729-0.518-1.296-0.518
				c-0.573,0-1.078,0.191-1.517,0.58s-0.656,0.866-0.656,1.439v3.502H43.6c0.337,0,0.563,0.042,0.682,0.126
				c0.118,0.085,0.178,0.233,0.178,0.452c0,0.236-0.05,0.396-0.15,0.48c-0.102,0.084-0.349,0.127-0.74,0.127h-1.532h-0.454
				c-0.229,0-0.402-0.049-0.519-0.146s-0.173-0.25-0.173-0.461c0-0.223,0.064-0.377,0.196-0.457c0.133-0.08,0.39-0.121,0.771-0.121
				L42.029,106.058L42.029,106.058z"/>
			<path fill="#754E1F" d="M58.044,107.246c-0.117,0-0.2-0.029-0.249-0.088c-0.048-0.061-0.07-0.174-0.07-0.342v-0.689
				c-0.337,0.42-0.759,0.748-1.264,0.979c-0.505,0.233-1.053,0.351-1.643,0.351c-1.062,0-1.948-0.379-2.665-1.133
				c-0.716-0.756-1.072-1.693-1.072-2.816c0-1.162,0.381-2.129,1.146-2.898c0.765-0.771,1.715-1.156,2.854-1.156
				c0.578,0,1.099,0.102,1.559,0.307s0.854,0.508,1.188,0.906v-3.227H57.38c-0.487,0-0.805-0.044-0.946-0.131
				c-0.145-0.09-0.215-0.246-0.215-0.479c0-0.201,0.058-0.354,0.173-0.453c0.113-0.102,0.28-0.15,0.501-0.15h1.727
				c0.168,0,0.29,0.025,0.365,0.084c0.076,0.059,0.113,0.145,0.113,0.264v9.486h0.379c0.274,0,0.476,0.047,0.599,0.141
				c0.123,0.092,0.187,0.238,0.187,0.439c0,0.189-0.055,0.34-0.16,0.445c-0.105,0.106-0.249,0.16-0.43,0.16H58.044z M52.529,103.464
				c0,0.775,0.249,1.408,0.749,1.902c0.499,0.492,1.135,0.74,1.902,0.74c0.774,0,1.411-0.258,1.91-0.771
				c0.5-0.514,0.75-1.166,0.75-1.957c0-0.778-0.249-1.424-0.744-1.928c-0.497-0.506-1.137-0.759-1.916-0.759
				c-0.791,0-1.432,0.257-1.919,0.767C52.773,101.972,52.529,102.64,52.529,103.464z"/>
			<path fill="#754E1F" d="M66.639,106.058h2.702c0.22,0,0.381,0.047,0.484,0.139c0.104,0.094,0.154,0.24,0.154,0.441
				c0,0.23-0.049,0.39-0.146,0.477c-0.099,0.088-0.278,0.131-0.543,0.131h-6.533c-0.226,0-0.394-0.051-0.505-0.152
				c-0.111-0.1-0.169-0.252-0.169-0.453c0-0.195,0.061-0.344,0.178-0.438c0.117-0.096,0.295-0.144,0.529-0.144h2.567v-5.396h-1.643
				c-0.229,0-0.405-0.054-0.525-0.156c-0.121-0.104-0.181-0.254-0.181-0.451c0-0.193,0.056-0.344,0.168-0.439
				c0.111-0.098,0.279-0.148,0.505-0.148h2.467c0.152,0,0.271,0.031,0.357,0.095c0.088,0.062,0.131,0.146,0.131,0.252
				L66.639,106.058L66.639,106.058z M65.081,97.041c0-0.604,0.056-0.988,0.165-1.145c0.108-0.156,0.344-0.236,0.701-0.236
				c0.35,0,0.578,0.066,0.69,0.198c0.111,0.132,0.169,0.444,0.169,0.938c0,0.48-0.053,0.781-0.156,0.896
				c-0.104,0.115-0.338,0.173-0.703,0.173c-0.357,0-0.593-0.054-0.701-0.158C65.136,97.599,65.081,97.376,65.081,97.041z"/>
			<path fill="#754E1F" d="M78.502,99.937c0.274,0,0.477,0.048,0.604,0.143c0.126,0.096,0.188,0.248,0.188,0.455
				c0,0.197-0.061,0.344-0.177,0.442c-0.118,0.099-0.296,0.147-0.53,0.147h-3.409v2.812c0,0.921,0.118,1.526,0.356,1.819
				c0.237,0.291,0.646,0.438,1.227,0.438c0.511,0,1.121-0.148,1.835-0.445c0.713-0.299,1.152-0.447,1.321-0.447
				c0.156,0,0.29,0.059,0.398,0.168c0.108,0.113,0.164,0.25,0.164,0.414c0,0.186-0.067,0.348-0.206,0.482
				c-0.138,0.139-0.372,0.271-0.703,0.4c-0.55,0.219-1.045,0.379-1.484,0.48c-0.44,0.1-0.854,0.148-1.241,0.148
				c-0.657,0-1.208-0.104-1.654-0.312c-0.445-0.211-0.778-0.523-0.998-0.939c-0.111-0.195-0.191-0.43-0.239-0.699
				c-0.049-0.27-0.071-0.684-0.071-1.246v-0.261v-2.812H72.45c-0.235,0-0.406-0.047-0.514-0.141c-0.106-0.094-0.16-0.242-0.16-0.449
				c0-0.23,0.072-0.389,0.22-0.473c0.146-0.085,0.457-0.127,0.936-0.127h0.95v-1.729v-0.443c0-0.242,0.053-0.422,0.156-0.535
				s0.266-0.172,0.482-0.172c0.247,0,0.418,0.068,0.515,0.21c0.096,0.142,0.145,0.46,0.145,0.96v1.709L78.502,99.937L78.502,99.937z
				"/>
			<path fill="#754E1F" d="M87.334,106.058h2.703c0.219,0,0.38,0.047,0.483,0.139c0.104,0.094,0.155,0.24,0.155,0.441
				c0,0.23-0.05,0.39-0.147,0.477c-0.098,0.088-0.278,0.131-0.543,0.131h-6.532c-0.226,0-0.394-0.051-0.506-0.152
				c-0.111-0.1-0.169-0.252-0.169-0.453c0-0.195,0.061-0.344,0.178-0.438c0.117-0.096,0.295-0.144,0.529-0.144h2.568v-5.396h-1.643
				c-0.229,0-0.406-0.054-0.525-0.156c-0.121-0.104-0.182-0.254-0.182-0.451c0-0.193,0.057-0.344,0.168-0.439
				c0.111-0.098,0.279-0.148,0.505-0.148h2.468c0.151,0,0.271,0.031,0.357,0.095s0.13,0.146,0.13,0.252L87.334,106.058
				L87.334,106.058z M85.776,97.041c0-0.604,0.056-0.988,0.165-1.145c0.108-0.156,0.345-0.236,0.702-0.236
				c0.35,0,0.578,0.066,0.689,0.198s0.169,0.444,0.169,0.938c0,0.48-0.053,0.781-0.155,0.896c-0.104,0.115-0.339,0.173-0.703,0.173
				c-0.357,0-0.594-0.054-0.702-0.158C85.831,97.599,85.776,97.376,85.776,97.041z"/>
			<path fill="#754E1F" d="M101.319,103.365c0,1.2-0.409,2.184-1.229,2.945c-0.818,0.764-1.883,1.146-3.189,1.146
				c-1.303,0-2.362-0.383-3.184-1.146c-0.819-0.764-1.229-1.745-1.229-2.945c0-1.201,0.409-2.184,1.229-2.943
				c0.82-0.758,1.881-1.141,3.184-1.141s2.364,0.381,3.188,1.145C100.91,101.19,101.319,102.167,101.319,103.365z M96.899,106.277
				c0.864,0,1.572-0.273,2.126-0.82s0.829-1.244,0.829-2.092c0-0.849-0.277-1.549-0.834-2.102s-1.264-0.83-2.121-0.83
				c-0.858,0-1.564,0.277-2.118,0.83c-0.553,0.553-0.828,1.253-0.828,2.102c0,0.852,0.274,1.551,0.824,2.096
				C95.327,106.005,96.034,106.277,96.899,106.277z"/>
			<path fill="#754E1F" d="M104.114,106.058v-5.396h-0.158c-0.383,0-0.646-0.045-0.788-0.135c-0.144-0.09-0.214-0.248-0.214-0.473
				c0-0.207,0.06-0.357,0.177-0.449c0.117-0.094,0.31-0.141,0.572-0.141h0.396h0.809c0.151,0,0.271,0.031,0.354,0.094
				s0.126,0.146,0.126,0.252v0.572c0.409-0.381,0.814-0.662,1.217-0.846c0.4-0.184,0.817-0.273,1.25-0.273
				c0.849,0,1.516,0.264,2,0.791s0.729,1.258,0.729,2.189v3.812h0.396c0.28,0,0.481,0.047,0.605,0.141
				c0.123,0.092,0.186,0.238,0.186,0.438c0,0.222-0.064,0.375-0.197,0.47c-0.132,0.095-0.365,0.142-0.702,0.142h-1.859
				c-0.359,0-0.591-0.043-0.69-0.127c-0.102-0.084-0.151-0.244-0.151-0.48c0-0.219,0.061-0.369,0.178-0.454
				c0.117-0.084,0.34-0.126,0.666-0.126h0.294v-3.502c0-0.657-0.147-1.158-0.446-1.504c-0.297-0.346-0.729-0.518-1.296-0.518
				c-0.572,0-1.078,0.191-1.517,0.58s-0.656,0.866-0.656,1.439v3.502h0.295c0.337,0,0.563,0.042,0.683,0.126
				c0.117,0.085,0.177,0.233,0.177,0.452c0,0.236-0.05,0.396-0.15,0.48c-0.102,0.084-0.349,0.127-0.74,0.127h-1.532h-0.454
				c-0.229,0-0.402-0.049-0.519-0.146c-0.115-0.098-0.173-0.25-0.173-0.461c0-0.223,0.064-0.377,0.196-0.457
				c0.133-0.08,0.39-0.121,0.771-0.121L104.114,106.058L104.114,106.058z"/>
		</g>
		<g>
			<path fill="#754E1F" d="M26.948,81.128c0.433,0,0.708,0.039,0.829,0.121c0.12,0.082,0.182,0.232,0.182,0.459
				c0,0.229-0.062,0.389-0.182,0.477c-0.121,0.086-0.396,0.13-0.829,0.13h-5.11h-0.396c-0.202,0-0.355-0.05-0.463-0.151
				c-0.106-0.101-0.16-0.252-0.16-0.455c0-0.225,0.062-0.377,0.187-0.459c0.123-0.08,0.4-0.121,0.833-0.121h1.903v-7.586h-1.903
				c-0.421,0-0.694-0.043-0.824-0.131s-0.193-0.246-0.193-0.477c0-0.207,0.055-0.359,0.16-0.459
				c0.105-0.098,0.268-0.146,0.479-0.146h0.379h5.111h0.396c0.201,0,0.354,0.051,0.459,0.151s0.154,0.253,0.154,0.454
				c0,0.23-0.062,0.389-0.188,0.477s-0.398,0.131-0.819,0.131h-1.903v7.586H26.948L26.948,81.128z"/>
			<path fill="#754E1F" d="M31.604,81.128v-5.397h-0.159c-0.382,0-0.646-0.045-0.788-0.136c-0.143-0.09-0.214-0.246-0.214-0.471
				c0-0.207,0.06-0.357,0.178-0.451c0.116-0.092,0.31-0.139,0.571-0.139h0.396h0.81c0.15,0,0.271,0.029,0.354,0.094
				c0.084,0.062,0.126,0.146,0.126,0.252v0.572c0.41-0.383,0.814-0.664,1.218-0.848c0.4-0.184,0.817-0.271,1.25-0.271
				c0.848,0,1.515,0.264,2,0.791c0.484,0.525,0.729,1.258,0.729,2.188v3.812h0.396c0.279,0,0.481,0.047,0.605,0.141
				c0.122,0.092,0.186,0.238,0.186,0.439c0,0.219-0.065,0.375-0.197,0.467c-0.132,0.096-0.366,0.142-0.703,0.142H36.5
				c-0.358,0-0.59-0.042-0.689-0.126c-0.103-0.084-0.151-0.244-0.151-0.479c0-0.219,0.061-0.371,0.177-0.455
				c0.118-0.084,0.34-0.125,0.666-0.125h0.294v-3.504c0-0.656-0.147-1.156-0.445-1.502c-0.297-0.348-0.729-0.52-1.296-0.52
				c-0.573,0-1.078,0.191-1.517,0.58s-0.657,0.865-0.657,1.439v3.502h0.295c0.338,0,0.563,0.041,0.683,0.125
				c0.118,0.086,0.178,0.236,0.178,0.455c0,0.236-0.051,0.396-0.151,0.48s-0.348,0.126-0.739,0.126H31.61h-0.46
				c-0.229,0-0.402-0.05-0.519-0.147c-0.114-0.098-0.173-0.25-0.173-0.459c0-0.225,0.064-0.377,0.196-0.459
				c0.133-0.08,0.39-0.121,0.771-0.121h0.177L31.604,81.128L31.604,81.128z"/>
			<path fill="#754E1F" d="M42.912,84.47h2.021c0.214,0,0.374,0.051,0.479,0.152c0.105,0.1,0.159,0.252,0.159,0.453
				c0,0.219-0.053,0.373-0.155,0.463c-0.104,0.09-0.287,0.135-0.553,0.135h-3.713c-0.225,0-0.395-0.049-0.509-0.15
				c-0.115-0.102-0.173-0.25-0.173-0.445c0-0.226,0.07-0.383,0.215-0.473c0.144-0.09,0.408-0.135,0.796-0.135h0.159v-8.739H41.48
				c-0.388,0-0.652-0.045-0.796-0.136c-0.145-0.09-0.215-0.246-0.215-0.471c0-0.197,0.058-0.346,0.173-0.441
				c0.114-0.1,0.284-0.148,0.509-0.148h1.28c0.168,0,0.29,0.029,0.365,0.086c0.075,0.055,0.113,0.144,0.113,0.26v0.816
				c0.382-0.393,0.805-0.688,1.269-0.884c0.463-0.196,0.961-0.294,1.493-0.294c1.129,0,2.071,0.381,2.829,1.145
				c0.759,0.764,1.138,1.721,1.138,2.871c0,1.105-0.359,2.016-1.078,2.729c-0.718,0.714-1.637,1.067-2.753,1.067
				c-0.596,0-1.144-0.104-1.643-0.313c-0.5-0.211-0.918-0.515-1.255-0.905L42.912,84.47L42.912,84.47z M45.522,81.093
				c0.78,0,1.42-0.244,1.92-0.736c0.499-0.49,0.749-1.127,0.749-1.906c0-0.764-0.251-1.394-0.754-1.891
				c-0.502-0.496-1.142-0.745-1.915-0.745s-1.409,0.247-1.902,0.741s-0.74,1.125-0.74,1.895c0,0.774,0.245,1.408,0.735,1.902
				C44.106,80.847,44.742,81.093,45.522,81.093z"/>
			<path fill="#754E1F" d="M53.336,79.208c0,0.707,0.147,1.224,0.445,1.549c0.298,0.326,0.771,0.488,1.414,0.488
				c0.612,0,1.137-0.193,1.57-0.58c0.435-0.39,0.651-0.873,0.651-1.457V75.73h-1.152c-0.22,0-0.377-0.046-0.477-0.141
				c-0.1-0.092-0.146-0.235-0.146-0.434c0-0.214,0.054-0.369,0.16-0.472c0.104-0.103,0.276-0.151,0.514-0.151h1.793
				c0.214,0,0.363,0.047,0.451,0.139c0.087,0.095,0.13,0.318,0.13,0.68v5.775h0.389c0.273,0,0.474,0.045,0.594,0.135
				c0.12,0.091,0.182,0.238,0.182,0.445c0,0.201-0.059,0.354-0.173,0.455c-0.115,0.1-0.282,0.15-0.501,0.15H57.9
				c-0.15,0-0.271-0.029-0.354-0.094c-0.085-0.061-0.127-0.145-0.127-0.252v-0.571c-0.538,0.414-1,0.698-1.385,0.854
				c-0.386,0.153-0.79,0.23-1.218,0.23c-0.926,0-1.62-0.246-2.084-0.736c-0.463-0.49-0.693-1.232-0.693-2.229V75.73h-0.178
				c-0.382,0-0.643-0.045-0.782-0.135c-0.141-0.09-0.21-0.248-0.21-0.473c0-0.195,0.055-0.345,0.164-0.44
				c0.108-0.099,0.278-0.147,0.509-0.147h1.271c0.196,0,0.333,0.039,0.408,0.118c0.075,0.078,0.113,0.253,0.113,0.521L53.336,79.208
				L53.336,79.208z"/>
			<path fill="#754E1F" d="M68.077,75.007c0.274,0,0.477,0.047,0.604,0.143c0.126,0.096,0.188,0.247,0.188,0.455
				c0,0.195-0.061,0.344-0.178,0.441c-0.118,0.099-0.295,0.146-0.529,0.146h-3.41v2.812c0,0.922,0.119,1.527,0.356,1.818
				c0.238,0.293,0.646,0.438,1.227,0.438c0.512,0,1.122-0.146,1.835-0.445c0.713-0.297,1.152-0.443,1.322-0.443
				c0.156,0,0.289,0.055,0.398,0.168c0.108,0.11,0.164,0.25,0.164,0.412c0,0.186-0.068,0.348-0.206,0.482
				c-0.139,0.139-0.372,0.271-0.703,0.398c-0.55,0.219-1.045,0.379-1.484,0.479c-0.44,0.101-0.854,0.151-1.242,0.151
				c-0.656,0-1.208-0.105-1.653-0.315c-0.446-0.21-0.779-0.522-0.998-0.938c-0.112-0.197-0.191-0.43-0.24-0.699
				c-0.048-0.268-0.07-0.684-0.07-1.244v-0.264V76.19h-1.433c-0.234,0-0.405-0.046-0.513-0.14c-0.107-0.092-0.16-0.242-0.16-0.449
				c0-0.23,0.071-0.389,0.219-0.473c0.146-0.084,0.457-0.125,0.936-0.125h0.951v-1.729V72.83c0-0.24,0.052-0.418,0.155-0.533
				c0.104-0.115,0.266-0.174,0.483-0.174c0.246,0,0.418,0.069,0.514,0.211c0.097,0.141,0.145,0.461,0.145,0.961v1.709h3.324
				L68.077,75.007L68.077,75.007z"/>
			<path fill="#754E1F" d="M73.196,82.315c-0.297,0-0.518-0.06-0.659-0.181c-0.145-0.121-0.216-0.309-0.216-0.561
				c0-0.365,0.538-1.051,1.616-2.057l0.244-0.234c0.163-0.156,0.397-0.383,0.707-0.674c1.941-1.83,2.913-3.162,2.913-4
				c0-0.602-0.172-1.087-0.515-1.461c-0.343-0.373-0.785-0.561-1.33-0.561c-0.354,0-0.69,0.072-1.016,0.221
				c-0.321,0.146-0.582,0.342-0.777,0.589c-0.034,0.045-0.087,0.12-0.16,0.229c-0.208,0.375-0.439,0.562-0.698,0.562
				c-0.202,0-0.346-0.062-0.43-0.187c-0.085-0.123-0.127-0.357-0.127-0.707c0-0.203,0.021-0.35,0.061-0.441
				c0.039-0.094,0.111-0.189,0.219-0.301c0.359-0.348,0.805-0.621,1.334-0.826c0.531-0.205,1.074-0.311,1.631-0.311
				c0.932,0,1.71,0.301,2.336,0.901s0.938,1.339,0.938,2.214c0,1.102-0.954,2.562-2.862,4.387c-0.487,0.455-0.86,0.812-1.119,1.07
				l-1.035,0.993h3.849c0.021-0.241,0.089-0.425,0.197-0.552s0.258-0.189,0.44-0.189c0.187,0,0.331,0.062,0.438,0.186
				c0.106,0.125,0.159,0.291,0.159,0.507c0,0.019-0.003,0.046-0.008,0.089c-0.007,0.041-0.01,0.07-0.01,0.088l-0.066,0.646
				c-0.018,0.174-0.066,0.312-0.15,0.408c-0.084,0.1-0.193,0.147-0.328,0.147h-5.574L73.196,82.315L73.196,82.315z"/>
		</g>
		<g>
			<path fill="#754E1F" d="M21.196,123.929c-0.012,0.422-0.062,0.689-0.146,0.805c-0.088,0.115-0.258,0.172-0.51,0.172
				c-0.196,0-0.344-0.053-0.441-0.156c-0.1-0.104-0.146-0.257-0.146-0.459c0.012-0.174,0.018-0.307,0.018-0.396l0.085-2.777
				c0.011-0.208,0.066-0.357,0.168-0.451c0.103-0.092,0.258-0.139,0.473-0.139h7.315c0.213,0,0.369,0.046,0.472,0.139
				c0.102,0.094,0.154,0.243,0.16,0.451l0.092,2.777c0,0.102,0.004,0.197,0.01,0.287s0.009,0.131,0.009,0.125
				c0,0.203-0.054,0.353-0.159,0.451c-0.105,0.098-0.268,0.146-0.479,0.146c-0.226,0-0.38-0.059-0.464-0.172
				c-0.084-0.115-0.132-0.383-0.144-0.805l-0.085-2.188h-2.416v7.586h1.298h0.327c0.235,0,0.407,0.046,0.515,0.14
				c0.105,0.092,0.16,0.239,0.16,0.441c0,0.197-0.052,0.347-0.15,0.451c-0.103,0.104-0.247,0.156-0.438,0.156h-4.724
				c-0.19,0-0.337-0.053-0.438-0.156c-0.102-0.104-0.15-0.254-0.15-0.451c0-0.208,0.055-0.355,0.163-0.446
				c0.109-0.09,0.297-0.135,0.562-0.135h0.277h1.297v-7.586h-2.417L21.196,123.929z"/>
			<path fill="#754E1F" d="M33.867,129.327h2.795c0.219,0,0.38,0.046,0.483,0.14c0.104,0.092,0.155,0.239,0.155,0.441
				c0,0.23-0.05,0.389-0.146,0.477c-0.099,0.086-0.279,0.129-0.543,0.129h-5.507c-0.219,0-0.385-0.049-0.496-0.15
				c-0.112-0.102-0.169-0.254-0.169-0.455c0-0.195,0.059-0.342,0.173-0.438s0.294-0.144,0.534-0.144h1.466v-5.397H32.04
				c-0.545,0-0.884-0.043-1.02-0.129c-0.135-0.088-0.201-0.246-0.201-0.477c0-0.196,0.055-0.344,0.164-0.441
				c0.108-0.099,0.275-0.148,0.501-0.148h1.92c0.15,0,0.266,0.031,0.345,0.089c0.078,0.06,0.118,0.146,0.118,0.257v1.432
				c0.533-0.668,1.089-1.164,1.667-1.49s1.201-0.487,1.869-0.487c0.499,0,0.902,0.101,1.212,0.304
				c0.31,0.201,0.463,0.463,0.463,0.782c0,0.208-0.077,0.392-0.23,0.552c-0.153,0.159-0.324,0.239-0.51,0.239
				c-0.13,0-0.347-0.085-0.651-0.257c-0.308-0.172-0.58-0.258-0.82-0.258c-0.438,0-0.898,0.156-1.386,0.468
				c-0.485,0.312-1.022,0.804-1.611,1.478L33.867,129.327L33.867,129.327z"/>
			<path fill="#754E1F" d="M42.944,127.407c0,0.708,0.147,1.224,0.445,1.549c0.297,0.326,0.77,0.487,1.414,0.487
				c0.611,0,1.136-0.192,1.569-0.58c0.436-0.387,0.652-0.873,0.652-1.457v-3.477h-1.153c-0.219,0-0.377-0.047-0.477-0.14
				c-0.1-0.092-0.146-0.237-0.146-0.435c0-0.213,0.055-0.369,0.16-0.471c0.105-0.101,0.276-0.152,0.515-0.152h1.793
				c0.214,0,0.362,0.047,0.45,0.14c0.087,0.093,0.13,0.317,0.13,0.679v5.775h0.389c0.273,0,0.474,0.045,0.595,0.135
				c0.12,0.09,0.181,0.238,0.181,0.446c0,0.202-0.058,0.354-0.173,0.454c-0.114,0.102-0.281,0.152-0.501,0.152h-1.278
				c-0.151,0-0.271-0.031-0.354-0.094c-0.085-0.062-0.127-0.146-0.127-0.252v-0.572c-0.538,0.416-1,0.701-1.386,0.854
				s-0.79,0.231-1.217,0.231c-0.927,0-1.62-0.246-2.084-0.738c-0.464-0.49-0.694-1.232-0.694-2.227v-3.789h-0.177
				c-0.383,0-0.644-0.045-0.783-0.135c-0.141-0.09-0.21-0.246-0.21-0.473c0-0.195,0.056-0.344,0.164-0.441s0.278-0.146,0.51-0.146
				h1.271c0.196,0,0.333,0.041,0.408,0.119c0.076,0.078,0.114,0.252,0.114,0.521L42.944,127.407L42.944,127.407z"/>
			<path fill="#754E1F" d="M52.541,126.994c0.044,0.809,0.318,1.434,0.82,1.874s1.188,0.661,2.059,0.661
				c0.657,0,1.372-0.176,2.147-0.526c0.773-0.351,1.242-0.526,1.404-0.526c0.169,0,0.31,0.055,0.421,0.16
				c0.111,0.106,0.169,0.239,0.169,0.396c0,0.162-0.06,0.312-0.177,0.445c-0.118,0.135-0.307,0.268-0.563,0.396
				c-0.562,0.275-1.142,0.484-1.738,0.631c-0.596,0.146-1.19,0.219-1.78,0.219c-1.279,0-2.305-0.369-3.072-1.106
				c-0.771-0.737-1.153-1.716-1.153-2.935c0-1.24,0.407-2.246,1.223-3.015c0.812-0.769,1.874-1.153,3.182-1.153
				c1.186,0,2.167,0.359,2.947,1.078c0.779,0.719,1.17,1.588,1.17,2.61c0,0.313-0.064,0.524-0.196,0.631
				c-0.133,0.106-0.49,0.16-1.073,0.16h-0.127L52.541,126.994L52.541,126.994z M52.583,125.892h5.479
				c-0.084-0.668-0.362-1.207-0.838-1.612c-0.475-0.407-1.058-0.611-1.747-0.611c-0.745,0-1.375,0.197-1.886,0.589
				C53.082,124.65,52.745,125.195,52.583,125.892z"/>
		</g>
		<g>
			<path fill="#754E1F" d="M24.279,154.601h0.328c0.234,0,0.406,0.045,0.514,0.139c0.106,0.092,0.16,0.24,0.16,0.441
				c0,0.195-0.051,0.346-0.151,0.451c-0.102,0.104-0.247,0.153-0.438,0.153h-4.15c-0.19,0-0.337-0.054-0.438-0.153
				c-0.102-0.105-0.151-0.256-0.151-0.451c0-0.207,0.056-0.355,0.164-0.445s0.296-0.135,0.562-0.135h0.276h0.53v-7.586h-0.53
				c-0.427,0-0.699-0.045-0.819-0.131c-0.121-0.088-0.183-0.246-0.183-0.479c0-0.193,0.052-0.348,0.151-0.449
				c0.102-0.104,0.246-0.154,0.438-0.154h7.451c0.189,0,0.335,0.057,0.435,0.172c0.099,0.115,0.146,0.283,0.146,0.502v2.172
				c0,0.195-0.05,0.344-0.146,0.441c-0.1,0.098-0.243,0.145-0.435,0.145c-0.235,0-0.396-0.061-0.479-0.186
				c-0.084-0.123-0.126-0.4-0.126-0.834v-1.203h-4.57v2.838h2.223v-0.221c0-0.408,0.039-0.684,0.117-0.824
				c0.079-0.141,0.219-0.211,0.421-0.211c0.181,0,0.312,0.055,0.393,0.16c0.082,0.107,0.122,0.277,0.122,0.514v2.141
				c0,0.279-0.038,0.477-0.112,0.58c-0.076,0.105-0.21,0.158-0.4,0.158c-0.201,0-0.342-0.068-0.421-0.209
				c-0.078-0.141-0.117-0.416-0.117-0.824v-0.243h-2.223v3.729h1.463v0.002H24.279z"/>
			<path fill="#754E1F" d="M36.63,154.718c-0.461,0.416-0.963,0.732-1.503,0.951c-0.543,0.219-1.1,0.328-1.673,0.328
				c-0.836,0-1.511-0.232-2.023-0.697c-0.514-0.467-0.771-1.072-0.771-1.82c0-0.887,0.341-1.572,1.021-2.062
				c0.684-0.487,1.642-0.731,2.876-0.731c0.325,0,0.653,0.021,0.983,0.062c0.331,0.041,0.672,0.107,1.021,0.198v-0.06
				c0-0.646-0.155-1.123-0.465-1.433s-0.788-0.463-1.438-0.463c-0.438,0-0.926,0.116-1.465,0.354
				c-0.539,0.234-0.896,0.354-1.069,0.354c-0.162,0-0.298-0.064-0.403-0.198c-0.105-0.132-0.159-0.302-0.159-0.509
				c0-0.332,0.311-0.611,0.931-0.844c0.62-0.229,1.413-0.346,2.379-0.346c0.987,0,1.734,0.252,2.239,0.754s0.758,1.244,0.758,2.229
				v3.812h0.412c0.397,0,0.665,0.041,0.8,0.125c0.136,0.086,0.202,0.236,0.202,0.455c0,0.203-0.057,0.354-0.168,0.455
				c-0.111,0.102-0.281,0.151-0.505,0.151h-1.322c-0.156,0-0.286-0.048-0.388-0.144s-0.168-0.232-0.201-0.412L36.63,154.718z
				 M36.563,152.066c-0.311-0.102-0.608-0.176-0.897-0.223c-0.288-0.05-0.575-0.072-0.861-0.072c-0.863,0-1.547,0.146-2.046,0.438
				c-0.5,0.292-0.75,0.686-0.75,1.18c0,0.381,0.155,0.694,0.468,0.942c0.312,0.246,0.708,0.37,1.19,0.37
				c0.714,0,1.373-0.188,1.982-0.561c0.608-0.373,0.914-0.762,0.914-1.166V152.066z"/>
			<path fill="#754E1F" d="M44.477,145.978h-1.432c-0.545,0-0.886-0.043-1.021-0.129c-0.139-0.088-0.206-0.246-0.206-0.479
				c0-0.199,0.057-0.354,0.172-0.455s0.282-0.148,0.501-0.148h2.777c0.152,0,0.271,0.029,0.354,0.092s0.126,0.146,0.126,0.252v9.49
				h2.645c0.214,0,0.369,0.045,0.468,0.139c0.099,0.092,0.146,0.24,0.146,0.441c0,0.229-0.049,0.389-0.144,0.477
				c-0.097,0.086-0.274,0.13-0.539,0.13H42.11c-0.22,0-0.387-0.05-0.501-0.151c-0.115-0.101-0.172-0.252-0.172-0.455
				c0-0.195,0.059-0.342,0.177-0.438c0.117-0.096,0.294-0.143,0.529-0.143h2.332L44.477,145.978L44.477,145.978z"/>
			<path fill="#754E1F" d="M51.718,155.181v-1.498c0-0.246,0.046-0.424,0.14-0.531c0.093-0.104,0.241-0.158,0.449-0.158
				c0.229,0,0.413,0.156,0.549,0.475c0.089,0.188,0.171,0.334,0.243,0.428c0.234,0.305,0.583,0.547,1.044,0.729
				s0.969,0.271,1.522,0.271c0.596,0,1.072-0.119,1.433-0.36c0.358-0.239,0.539-0.56,0.539-0.951c0-0.397-0.146-0.683-0.435-0.851
				c-0.29-0.17-0.785-0.254-1.485-0.254h-0.463c-1.146,0-2.02-0.197-2.619-0.598c-0.602-0.398-0.899-0.978-0.899-1.734
				c0-0.739,0.293-1.314,0.88-1.727c0.586-0.408,1.41-0.613,2.472-0.613c0.434,0,0.873,0.062,1.321,0.182
				c0.449,0.119,0.686,0.182,0.707,0.182c0.062,0,0.181-0.056,0.354-0.164c0.175-0.109,0.347-0.164,0.515-0.164
				c0.189,0,0.333,0.069,0.425,0.211c0.094,0.141,0.141,0.352,0.141,0.631v0.984c0,0.299-0.045,0.514-0.136,0.645
				c-0.09,0.133-0.232,0.199-0.43,0.199c-0.168,0-0.376-0.146-0.623-0.431c-0.174-0.196-0.316-0.347-0.431-0.446
				c-0.297-0.273-0.613-0.474-0.95-0.594c-0.337-0.119-0.732-0.182-1.188-0.182c-0.527,0-0.952,0.115-1.275,0.352
				c-0.321,0.23-0.482,0.527-0.482,0.889c0,0.354,0.165,0.604,0.496,0.758c0.331,0.152,1.044,0.238,2.14,0.261
				c1.168,0.028,2.021,0.231,2.561,0.61s0.81,0.963,0.81,1.754c0,0.759-0.299,1.365-0.894,1.82
				c-0.596,0.453-1.396,0.682-2.408,0.682c-0.319,0-0.677-0.029-1.068-0.088c-0.394-0.061-0.888-0.16-1.48-0.301
				c-0.196,0.131-0.365,0.228-0.507,0.291c-0.14,0.063-0.258,0.098-0.354,0.098c-0.195,0-0.347-0.068-0.449-0.207
				C51.771,155.638,51.718,155.439,51.718,155.181z"/>
			<path fill="#754E1F" d="M62.89,152.267c0.044,0.81,0.317,1.434,0.82,1.875c0.502,0.438,1.188,0.66,2.06,0.66
				c0.656,0,1.371-0.178,2.146-0.525c0.774-0.352,1.243-0.527,1.405-0.527c0.169,0,0.31,0.055,0.421,0.16
				c0.112,0.107,0.169,0.238,0.169,0.396c0,0.162-0.059,0.311-0.177,0.443s-0.307,0.27-0.563,0.396
				c-0.562,0.275-1.142,0.486-1.738,0.631c-0.599,0.146-1.19,0.22-1.78,0.22c-1.279,0-2.305-0.369-3.072-1.106
				c-0.771-0.738-1.153-1.715-1.153-2.935c0-1.239,0.406-2.245,1.223-3.015c0.812-0.77,1.874-1.153,3.182-1.153
				c1.186,0,2.167,0.358,2.947,1.078c0.779,0.719,1.17,1.588,1.17,2.61c0,0.312-0.064,0.522-0.197,0.631
				c-0.132,0.105-0.489,0.16-1.072,0.16h-0.127H62.89L62.89,152.267z M62.932,151.166h5.479c-0.084-0.668-0.362-1.205-0.838-1.611
				c-0.475-0.408-1.058-0.611-1.747-0.611c-0.746,0-1.375,0.197-1.886,0.591S63.094,150.47,62.932,151.166z"/>
		</g>
		<g>
			<path fill="#754E1F" d="M24.915,14.761v7.649h1.724c0.465,0,0.798,0.087,1,0.261c0.201,0.175,0.303,0.457,0.303,0.846
				c0,0.396-0.104,0.686-0.309,0.867c-0.204,0.181-0.536,0.271-0.994,0.271h-6.092c-0.465,0-0.798-0.089-1-0.269
				c-0.201-0.178-0.303-0.468-0.303-0.872c0-0.396,0.1-0.68,0.297-0.851s0.532-0.256,1.005-0.256h1.724V14.76h-1.724
				c-0.465,0-0.798-0.089-1-0.267c-0.201-0.178-0.303-0.465-0.303-0.861c0-0.403,0.099-0.69,0.297-0.861
				c0.197-0.171,0.532-0.256,1.005-0.256h6.092c0.484,0,0.823,0.085,1.015,0.256c0.19,0.171,0.287,0.458,0.287,0.861
				c0,0.396-0.1,0.684-0.297,0.861c-0.198,0.177-0.533,0.267-1.005,0.267L24.915,14.761L24.915,14.761z"/>
			<path fill="#754E1F" d="M39.24,14.658h-4.768v2.625h1.794V17.16c0-0.383,0.087-0.671,0.261-0.867
				c0.176-0.194,0.437-0.292,0.785-0.292c0.309,0,0.56,0.087,0.753,0.262c0.195,0.174,0.292,0.396,0.292,0.661v0.359v2.123
				c0,0.458-0.082,0.786-0.246,0.984c-0.164,0.198-0.431,0.297-0.8,0.297c-0.35,0-0.609-0.09-0.785-0.272
				c-0.174-0.181-0.261-0.456-0.261-0.825v-0.185h-1.794v3.004h0.573c0.451,0,0.773,0.087,0.97,0.261
				c0.194,0.175,0.292,0.457,0.292,0.846c0,0.403-0.1,0.694-0.297,0.872c-0.198,0.178-0.521,0.269-0.965,0.269H31.98
				c-0.443,0-0.767-0.089-0.964-0.269c-0.198-0.178-0.297-0.468-0.297-0.872c0-0.362,0.092-0.637,0.276-0.826
				c0.186-0.188,0.455-0.282,0.811-0.282h0.174v-7.649h-0.174c-0.35,0-0.617-0.097-0.806-0.292
				c-0.188-0.194-0.281-0.473-0.281-0.835c0-0.396,0.101-0.685,0.303-0.867c0.201-0.181,0.521-0.271,0.958-0.271h8.397
				c0.417,0,0.699,0.063,0.847,0.189c0.146,0.127,0.221,0.378,0.221,0.754v2.297c0,0.458-0.087,0.79-0.262,0.995
				s-0.456,0.308-0.847,0.308s-0.67-0.101-0.841-0.302c-0.172-0.201-0.257-0.535-0.257-1L39.24,14.658L39.24,14.658z"/>
		</g>
		<g>
			<path fill="#754E1F" d="M72.274,129.485h0.343c0.246,0,0.425,0.048,0.536,0.146c0.111,0.096,0.167,0.25,0.167,0.461
				c0,0.205-0.053,0.362-0.158,0.471s-0.258,0.162-0.457,0.162h-4.333c-0.199,0-0.352-0.054-0.457-0.162s-0.158-0.266-0.158-0.471
				c0-0.217,0.057-0.372,0.171-0.466s0.309-0.141,0.584-0.141h0.29h0.554v-7.919h-0.554c-0.445,0-0.731-0.045-0.857-0.137
				c-0.126-0.09-0.189-0.256-0.189-0.496c0-0.205,0.053-0.361,0.158-0.471c0.105-0.107,0.258-0.162,0.457-0.162h7.778
				c0.199,0,0.35,0.061,0.453,0.18c0.103,0.121,0.154,0.295,0.154,0.523v2.268c0,0.205-0.051,0.359-0.154,0.461
				c-0.103,0.104-0.253,0.154-0.453,0.154c-0.246,0-0.413-0.064-0.501-0.193s-0.132-0.419-0.132-0.87v-1.257h-4.772v2.962h2.32
				v-0.229c0-0.428,0.041-0.715,0.123-0.861s0.229-0.22,0.439-0.22c0.188,0,0.324,0.056,0.409,0.167s0.127,0.29,0.127,0.536v2.232
				c0,0.293-0.04,0.495-0.119,0.606s-0.218,0.167-0.417,0.167c-0.211,0-0.357-0.073-0.439-0.22s-0.123-0.434-0.123-0.861v-0.255
				h-2.32v3.894H72.274z"/>
			<path fill="#754E1F" d="M81.221,129.485h0.255c0.293,0,0.521,0.055,0.686,0.163s0.246,0.262,0.246,0.461
				c0,0.211-0.072,0.366-0.215,0.466s-0.371,0.149-0.681,0.149h-2.426c-0.176,0-0.322-0.059-0.439-0.176s-0.176-0.264-0.176-0.439
				c0-0.217,0.079-0.375,0.237-0.475s0.41-0.149,0.756-0.149h0.176l2.848-2.918l-2.795-2.716h-0.123
				c-0.34,0-0.576-0.045-0.708-0.137c-0.132-0.09-0.198-0.25-0.198-0.479c0-0.24,0.075-0.405,0.224-0.496s0.435-0.137,0.857-0.137
				h1.802c0.316,0,0.546,0.052,0.69,0.154s0.215,0.262,0.215,0.479c0,0.199-0.081,0.352-0.242,0.457s-0.394,0.158-0.699,0.158h-0.07
				l1.89,1.854l1.802-1.854h-0.185c-0.328,0-0.571-0.049-0.729-0.145c-0.158-0.098-0.237-0.248-0.237-0.453
				c0-0.229,0.07-0.394,0.211-0.496s0.369-0.154,0.686-0.154h2.285c0.182,0,0.33,0.057,0.444,0.172
				c0.114,0.113,0.171,0.262,0.171,0.443c0,0.217-0.073,0.377-0.22,0.479c-0.146,0.104-0.381,0.154-0.703,0.154h-0.246l-2.522,2.628
				l3.076,3.006h0.088c0.223,0,0.396,0.055,0.519,0.163s0.185,0.262,0.185,0.461c0,0.234-0.07,0.396-0.211,0.483
				s-0.431,0.132-0.87,0.132h-1.793c-0.311,0-0.539-0.05-0.686-0.149s-0.22-0.255-0.22-0.466c0-0.193,0.07-0.346,0.211-0.457
				s0.334-0.167,0.58-0.167h0.492l-2.215-2.162L81.221,129.485z"/>
		</g>
		<g>
			<path fill="#754E1F" d="M84.659,154.758h0.343c0.246,0,0.425,0.048,0.536,0.146c0.111,0.096,0.167,0.25,0.167,0.461
				c0,0.205-0.053,0.362-0.158,0.471s-0.258,0.162-0.457,0.162h-4.333c-0.199,0-0.352-0.054-0.457-0.162s-0.158-0.266-0.158-0.471
				c0-0.217,0.057-0.372,0.171-0.466s0.309-0.141,0.584-0.141h0.29h0.554v-7.919h-0.554c-0.445,0-0.731-0.045-0.857-0.137
				c-0.126-0.09-0.189-0.256-0.189-0.496c0-0.205,0.053-0.361,0.158-0.471c0.105-0.107,0.258-0.162,0.457-0.162h7.778
				c0.199,0,0.35,0.061,0.453,0.18c0.103,0.121,0.154,0.295,0.154,0.523v2.268c0,0.205-0.051,0.359-0.154,0.461
				c-0.103,0.104-0.253,0.154-0.453,0.154c-0.246,0-0.413-0.064-0.501-0.193s-0.132-0.419-0.132-0.87v-1.257H83.13v2.962h2.32
				v-0.229c0-0.428,0.041-0.715,0.123-0.861s0.229-0.22,0.439-0.22c0.188,0,0.324,0.056,0.409,0.167s0.127,0.29,0.127,0.536v2.232
				c0,0.293-0.04,0.495-0.119,0.606s-0.218,0.167-0.417,0.167c-0.211,0-0.357-0.073-0.439-0.22s-0.123-0.434-0.123-0.861v-0.255
				h-2.32v3.894H84.659z"/>
			<path fill="#754E1F" d="M93.607,154.758h0.255c0.293,0,0.521,0.055,0.686,0.163s0.246,0.262,0.246,0.461
				c0,0.211-0.072,0.366-0.215,0.466s-0.371,0.149-0.681,0.149h-2.426c-0.176,0-0.322-0.059-0.439-0.176s-0.176-0.264-0.176-0.439
				c0-0.217,0.079-0.375,0.237-0.475s0.41-0.149,0.756-0.149h0.176l2.848-2.918l-2.795-2.716h-0.123
				c-0.34,0-0.576-0.045-0.708-0.137c-0.132-0.09-0.198-0.25-0.198-0.479c0-0.24,0.075-0.405,0.224-0.496s0.435-0.137,0.857-0.137
				h1.802c0.316,0,0.546,0.052,0.69,0.154s0.215,0.262,0.215,0.479c0,0.199-0.081,0.352-0.242,0.457s-0.394,0.158-0.699,0.158h-0.07
				l1.89,1.854l1.802-1.854h-0.185c-0.328,0-0.571-0.049-0.729-0.145c-0.158-0.098-0.237-0.248-0.237-0.453
				c0-0.229,0.07-0.394,0.211-0.496s0.369-0.154,0.686-0.154h2.285c0.182,0,0.33,0.057,0.444,0.172
				c0.114,0.113,0.171,0.262,0.171,0.443c0,0.217-0.073,0.377-0.22,0.479c-0.146,0.104-0.381,0.154-0.703,0.154h-0.246l-2.522,2.628
				l3.076,3.006h0.088c0.223,0,0.396,0.055,0.519,0.163s0.185,0.262,0.185,0.461c0,0.234-0.07,0.396-0.211,0.483
				s-0.431,0.132-0.87,0.132h-1.793c-0.311,0-0.539-0.05-0.686-0.149s-0.22-0.255-0.22-0.466c0-0.193,0.07-0.346,0.211-0.457
				s0.334-0.167,0.58-0.167h0.492l-2.215-2.162L93.607,154.758z"/>
		</g>
		<g>
			<path fill="#754E1F" d="M130.017,52.67c0,1.605-0.445,2.922-1.336,3.951c-0.891,1.027-2.03,1.542-3.419,1.542
				c-1.377,0-2.513-0.516-3.405-1.547c-0.895-1.031-1.341-2.347-1.341-3.946c0-1.617,0.442-2.937,1.327-3.959
				s2.024-1.534,3.419-1.534c1.389,0,2.528,0.516,3.419,1.547S130.017,51.07,130.017,52.67z M125.262,56.915
				c0.984,0,1.759-0.376,2.325-1.13c0.564-0.752,0.848-1.791,0.848-3.115s-0.283-2.362-0.848-3.115
				c-0.566-0.753-1.341-1.13-2.325-1.13c-0.99,0-1.765,0.374-2.325,1.12c-0.559,0.748-0.839,1.789-0.839,3.125
				c0,1.324,0.282,2.363,0.849,3.115C123.511,56.539,124.283,56.915,125.262,56.915z"/>
			<path fill="#754E1F" d="M133.875,54.647c0,0.738,0.155,1.277,0.466,1.617s0.803,0.51,1.477,0.51c0.639,0,1.186-0.202,1.639-0.606
				c0.455-0.404,0.682-0.911,0.682-1.521v-3.63h-1.204c-0.229,0-0.394-0.049-0.497-0.145c-0.102-0.098-0.153-0.248-0.153-0.453
				c0-0.223,0.056-0.387,0.167-0.492s0.29-0.158,0.536-0.158h1.872c0.223,0,0.379,0.049,0.471,0.145
				c0.09,0.098,0.136,0.333,0.136,0.708v6.029h0.404c0.287,0,0.493,0.047,0.62,0.141c0.125,0.094,0.188,0.249,0.188,0.466
				c0,0.211-0.06,0.369-0.181,0.475c-0.119,0.105-0.294,0.158-0.522,0.158h-1.336c-0.158,0-0.281-0.032-0.369-0.097
				s-0.132-0.152-0.132-0.264v-0.598c-0.562,0.434-1.045,0.731-1.445,0.892c-0.402,0.161-0.825,0.242-1.271,0.242
				c-0.967,0-1.692-0.256-2.175-0.77c-0.484-0.512-0.726-1.287-0.726-2.324v-3.955h-0.185c-0.398,0-0.671-0.047-0.817-0.141
				s-0.22-0.258-0.22-0.492c0-0.205,0.057-0.358,0.172-0.461c0.113-0.103,0.291-0.154,0.531-0.154h1.327
				c0.205,0,0.347,0.041,0.427,0.123c0.078,0.082,0.118,0.264,0.118,0.545V54.647z"/>
			<path fill="#754E1F" d="M149.265,50.262c0.287,0,0.497,0.05,0.628,0.149c0.133,0.1,0.198,0.258,0.198,0.475
				c0,0.205-0.062,0.359-0.185,0.462s-0.308,0.153-0.554,0.153h-3.56v2.936c0,0.961,0.124,1.594,0.374,1.898
				c0.248,0.305,0.675,0.457,1.278,0.457c0.533,0,1.172-0.155,1.916-0.466s1.204-0.466,1.38-0.466c0.164,0,0.304,0.059,0.417,0.176
				c0.115,0.117,0.172,0.261,0.172,0.431c0,0.193-0.072,0.362-0.215,0.506c-0.145,0.144-0.389,0.282-0.734,0.417
				c-0.574,0.229-1.092,0.396-1.551,0.501c-0.461,0.105-0.893,0.158-1.297,0.158c-0.686,0-1.261-0.109-1.728-0.33
				c-0.465-0.219-0.812-0.546-1.041-0.979c-0.117-0.205-0.201-0.448-0.25-0.729c-0.051-0.281-0.075-0.715-0.075-1.301v-0.272v-2.936
				h-1.494c-0.246,0-0.425-0.048-0.536-0.146c-0.111-0.096-0.167-0.253-0.167-0.47c0-0.24,0.076-0.404,0.229-0.492
				s0.478-0.132,0.976-0.132h0.993V48.46v-0.466c0-0.252,0.054-0.438,0.163-0.559c0.107-0.119,0.276-0.18,0.505-0.18
				c0.258,0,0.437,0.073,0.536,0.22s0.149,0.48,0.149,1.002v1.784H149.265z"/>
		</g>
	</g>
</g>
</svg>
