<?xml version="1.0" encoding="utf-8"?>
<!-- Generator: Adobe Illustrator 16.0.0, SVG Export Plug-In . SVG Version: 6.00 Build 0)  -->
<!DOCTYPE svg PUBLIC "-//W3C//DTD SVG 1.1//EN" "http://www.w3.org/Graphics/SVG/1.1/DTD/svg11.dtd">
<svg version="1.1" id="Layer_1" xmlns="http://www.w3.org/2000/svg" xmlns:xlink="http://www.w3.org/1999/xlink" x="0px" y="0px"
	 width="191px" height="36px" viewBox="0 0 191 36" enable-background="new 0 0 191 36" xml:space="preserve">
<g>
	<g>
		<path fill="#A7A9AC" d="M8.504,0C3.808,0,0,3.807,0,8.504v18.993C0,32.193,3.808,36,8.504,36H61.49V0H8.504z"/>
		<path fill="#D1D3D4" d="M191,27.497V8.504C191,3.807,187.192,0,182.496,0H61.49v36h121.006C187.192,36,191,32.193,191,27.497z"/>
	</g>
</g>
<g>
	<path fill="#414042" d="M20.732,14.112v7.65h1.723c0.465,0,0.798,0.087,1,0.261c0.202,0.175,0.303,0.456,0.303,0.847
		c0,0.396-0.103,0.686-0.308,0.866s-0.537,0.271-0.995,0.271h-6.091c-0.465,0-0.798-0.089-1-0.267
		c-0.202-0.178-0.303-0.469-0.303-0.871c0-0.396,0.099-0.681,0.297-0.852s0.533-0.256,1.005-0.256h1.723v-7.65h-1.723
		c-0.465,0-0.798-0.089-1-0.267c-0.202-0.178-0.303-0.465-0.303-0.861c0-0.403,0.099-0.69,0.297-0.861s0.533-0.256,1.005-0.256
		h6.091c0.485,0,0.824,0.085,1.015,0.256s0.287,0.458,0.287,0.861c0,0.396-0.099,0.684-0.297,0.861s-0.533,0.267-1.005,0.267H20.732
		z"/>
	<path fill="#414042" d="M36.318,21.741h0.133c0.383,0,0.67,0.095,0.861,0.282c0.191,0.188,0.287,0.47,0.287,0.847
		c0,0.402-0.097,0.693-0.292,0.871c-0.194,0.178-0.524,0.267-0.989,0.267h-2.522c-0.458,0-0.788-0.089-0.989-0.267
		c-0.202-0.178-0.303-0.469-0.303-0.871c0-0.377,0.098-0.658,0.292-0.847c0.195-0.188,0.487-0.282,0.877-0.282h0.123v-2.963
		c0-0.82-0.115-1.403-0.344-1.748s-0.61-0.518-1.143-0.518c-0.567,0-1.031,0.207-1.389,0.621c-0.359,0.414-0.539,0.962-0.539,1.646
		v2.963h0.123c0.39,0,0.68,0.095,0.872,0.282c0.191,0.188,0.287,0.47,0.287,0.847c0,0.402-0.099,0.693-0.297,0.871
		s-0.526,0.267-0.984,0.267h-2.543c-0.458,0-0.786-0.089-0.984-0.267s-0.297-0.469-0.297-0.871c0-0.377,0.096-0.658,0.287-0.847
		c0.191-0.188,0.482-0.282,0.872-0.282h0.123v-4.962h-0.174c-0.369,0-0.649-0.094-0.841-0.282s-0.287-0.463-0.287-0.826
		c0-0.403,0.099-0.694,0.297-0.872s0.533-0.267,1.005-0.267h1.743c0.191,0,0.336,0.038,0.436,0.113
		c0.099,0.075,0.148,0.185,0.148,0.328v0.8c0.314-0.492,0.716-0.863,1.205-1.113c0.488-0.249,1.054-0.374,1.697-0.374
		c1.094,0,1.909,0.332,2.446,0.995c0.536,0.663,0.805,1.675,0.805,3.035V21.741z"/>
	<path fill="#414042" d="M43.906,15.107h3.127c0.472,0,0.807,0.085,1.005,0.256s0.297,0.455,0.297,0.851
		c0,0.403-0.101,0.694-0.302,0.872c-0.202,0.178-0.535,0.267-1,0.267h-3.127v2.625c0,0.738,0.113,1.244,0.338,1.518
		s0.622,0.41,1.189,0.41c0.533,0,1.162-0.153,1.887-0.461s1.21-0.461,1.456-0.461c0.28,0,0.521,0.111,0.723,0.333
		s0.303,0.49,0.303,0.805c0,0.526-0.477,1.007-1.431,1.44c-0.953,0.435-2.035,0.651-3.245,0.651c-0.704,0-1.323-0.096-1.856-0.287
		s-0.954-0.465-1.261-0.82c-0.226-0.273-0.386-0.602-0.482-0.984s-0.144-1.022-0.144-1.917v-0.227v-2.625H40.42
		c-0.465,0-0.794-0.089-0.99-0.267c-0.194-0.178-0.292-0.468-0.292-0.872s0.096-0.688,0.287-0.856
		c0.191-0.167,0.523-0.251,0.995-0.251h0.964v-2.399c0-0.472,0.097-0.803,0.292-0.995c0.194-0.191,0.518-0.287,0.969-0.287
		s0.774,0.096,0.969,0.287c0.195,0.191,0.292,0.523,0.292,0.995V15.107z"/>
</g>
</svg>
