<?xml version="1.0" encoding="utf-8"?>
<!-- Generator: Adobe Illustrator 16.0.0, SVG Export Plug-In . SVG Version: 6.00 Build 0)  -->
<!DOCTYPE svg PUBLIC "-//W3C//DTD SVG 1.1//EN" "http://www.w3.org/Graphics/SVG/1.1/DTD/svg11.dtd">
<svg version="1.1" id="Layer_1" xmlns="http://www.w3.org/2000/svg" xmlns:xlink="http://www.w3.org/1999/xlink" x="0px" y="0px"
	 width="242.68px" height="171.637px" viewBox="3.508 0 242.68 171.637" enable-background="new 3.508 0 242.68 171.637"
	 xml:space="preserve">
<g>
	<rect x="74.552" y="0" fill="#6D6E71" width="171.636" height="171.636"/>
	<rect x="3.508" y="0" fill="#CCCCCC" width="71.044" height="171.636"/>
	<g>
		<circle fill="#D1D3D4" cx="88.052" cy="12.327" r="7.956"/>
		<path fill="#D1D3D4" d="M108.242,4.371c4.395,0,7.958,3.562,7.958,7.958c0,4.392-3.562,7.955-7.958,7.955
			c-4.392,0-7.955-3.563-7.955-7.955C100.288,7.935,103.851,4.371,108.242,4.371z"/>
		<circle fill="#D1D3D4" cx="129.065" cy="12.327" r="7.956"/>
		<circle fill="#D1D3D4" cx="149.89" cy="12.327" r="7.956"/>
		<circle fill="#D1D3D4" cx="170.851" cy="12.327" r="7.958"/>
		<circle fill="#D1D3D4" cx="191.044" cy="12.327" r="7.956"/>
		<path fill="#D1D3D4" d="M211.864,4.371c4.395,0,7.958,3.562,7.958,7.958c0,4.392-3.562,7.955-7.958,7.955
			c-4.391,0-7.955-3.563-7.955-7.955C203.91,7.935,207.473,4.371,211.864,4.371z"/>
		<circle fill="#D1D3D4" cx="232.69" cy="12.327" r="7.958"/>
		<circle fill="#D1D3D4" cx="88.052" cy="33.661" r="7.956"/>
		<path fill="#D1D3D4" d="M108.242,25.705c4.395,0,7.958,3.562,7.958,7.957s-3.562,7.955-7.958,7.955
			c-4.392,0-7.955-3.561-7.955-7.955C100.288,29.268,103.851,25.705,108.242,25.705z"/>
		<circle fill="#D1D3D4" cx="129.065" cy="33.661" r="7.956"/>
		<circle fill="#D1D3D4" cx="149.89" cy="33.661" r="7.956"/>
		<circle fill="#D1D3D4" cx="170.851" cy="33.661" r="7.959"/>
		<circle fill="#D1D3D4" cx="191.044" cy="33.661" r="7.956"/>
		<path fill="#D1D3D4" d="M211.864,25.705c4.395,0,7.958,3.562,7.958,7.957s-3.562,7.955-7.958,7.955
			c-4.391,0-7.955-3.561-7.955-7.955C203.91,29.268,207.473,25.705,211.864,25.705z"/>
		<circle fill="#D1D3D4" cx="232.69" cy="33.661" r="7.959"/>
		<circle fill="#D1D3D4" cx="88.052" cy="54.012" r="7.956"/>
		<path fill="#D1D3D4" d="M108.242,46.056c4.395,0,7.958,3.563,7.958,7.957c0,4.392-3.562,7.955-7.958,7.955
			c-4.392,0-7.955-3.563-7.955-7.955C100.288,49.619,103.851,46.056,108.242,46.056z"/>
		<circle fill="#D1D3D4" cx="129.065" cy="54.012" r="7.956"/>
		<circle fill="#D1D3D4" cx="149.89" cy="54.012" r="7.956"/>
		<circle fill="#D1D3D4" cx="170.851" cy="54.012" r="7.959"/>
		<circle fill="#D1D3D4" cx="191.044" cy="54.012" r="7.956"/>
		<path fill="#D1D3D4" d="M211.864,46.056c4.395,0,7.958,3.563,7.958,7.957c0,4.392-3.562,7.955-7.958,7.955
			c-4.391,0-7.955-3.563-7.955-7.955C203.91,49.619,207.473,46.056,211.864,46.056z"/>
		<circle fill="#D1D3D4" cx="232.69" cy="54.012" r="7.959"/>
		<circle fill="#D1D3D4" cx="88.052" cy="75.346" r="7.956"/>
		<path fill="#D1D3D4" d="M108.242,67.39c4.395,0,7.958,3.563,7.958,7.958s-3.562,7.955-7.958,7.955
			c-4.392,0-7.955-3.561-7.955-7.955C100.288,70.953,103.851,67.39,108.242,67.39z"/>
		<circle fill="#D1D3D4" cx="129.065" cy="75.346" r="7.956"/>
		<circle fill="#D1D3D4" cx="149.89" cy="75.346" r="7.956"/>
		<circle fill="#D1D3D4" cx="170.851" cy="75.346" r="7.959"/>
		<circle fill="#D1D3D4" cx="191.044" cy="75.346" r="7.956"/>
		<path fill="#D1D3D4" d="M211.864,67.39c4.395,0,7.958,3.563,7.958,7.958s-3.562,7.955-7.958,7.955
			c-4.391,0-7.955-3.561-7.955-7.955C203.91,70.953,207.473,67.39,211.864,67.39z"/>
		<circle fill="#D1D3D4" cx="232.69" cy="75.346" r="7.959"/>
		<circle fill="#D1D3D4" cx="88.052" cy="96.292" r="7.956"/>
		<path fill="#D1D3D4" d="M108.242,88.336c4.395,0,7.958,3.562,7.958,7.959c0,4.391-3.562,7.953-7.958,7.953
			c-4.392,0-7.955-3.562-7.955-7.953C100.288,91.898,103.851,88.336,108.242,88.336z"/>
		<circle fill="#D1D3D4" cx="129.065" cy="96.292" r="7.956"/>
		<circle fill="#D1D3D4" cx="149.89" cy="96.292" r="7.956"/>
		<circle fill="#D1D3D4" cx="170.851" cy="96.293" r="7.959"/>
		<circle fill="#D1D3D4" cx="191.044" cy="96.292" r="7.956"/>
		<path fill="#D1D3D4" d="M211.864,88.336c4.395,0,7.958,3.562,7.958,7.959c0,4.391-3.562,7.953-7.958,7.953
			c-4.391,0-7.955-3.562-7.955-7.953C203.91,91.898,207.473,88.336,211.864,88.336z"/>
		<circle fill="#D1D3D4" cx="232.69" cy="96.293" r="7.959"/>
		<circle fill="#D1D3D4" cx="88.052" cy="117.626" r="7.956"/>
		<path fill="#D1D3D4" d="M108.242,109.67c4.395,0,7.958,3.562,7.958,7.959c0,4.391-3.562,7.955-7.958,7.955
			c-4.392,0-7.955-3.564-7.955-7.955C100.288,113.232,103.851,109.67,108.242,109.67z"/>
		<circle fill="#D1D3D4" cx="129.065" cy="117.626" r="7.956"/>
		<circle fill="#D1D3D4" cx="149.89" cy="117.626" r="7.956"/>
		<circle fill="#D1D3D4" cx="170.851" cy="117.627" r="7.959"/>
		<circle fill="#D1D3D4" cx="191.044" cy="117.626" r="7.956"/>
		<path fill="#D1D3D4" d="M211.864,109.67c4.395,0,7.958,3.562,7.958,7.959c0,4.391-3.562,7.955-7.958,7.955
			c-4.391,0-7.955-3.564-7.955-7.955C203.91,113.232,207.473,109.67,211.864,109.67z"/>
		<circle fill="#D1D3D4" cx="232.69" cy="117.627" r="7.959"/>
		<circle fill="#D1D3D4" cx="88.052" cy="137.977" r="7.956"/>
		<path fill="#D1D3D4" d="M108.242,130.021c4.395,0,7.958,3.562,7.958,7.955c0,4.395-3.562,7.957-7.958,7.957
			c-4.392,0-7.955-3.562-7.955-7.957C100.288,133.584,103.851,130.021,108.242,130.021z"/>
		<circle fill="#D1D3D4" cx="129.065" cy="137.977" r="7.956"/>
		<circle fill="#D1D3D4" cx="149.89" cy="137.977" r="7.956"/>
		<circle fill="#D1D3D4" cx="170.851" cy="137.977" r="7.958"/>
		<circle fill="#D1D3D4" cx="191.044" cy="137.977" r="7.956"/>
		<path fill="#D1D3D4" d="M211.864,130.021c4.395,0,7.958,3.562,7.958,7.955c0,4.395-3.562,7.957-7.958,7.957
			c-4.391,0-7.955-3.562-7.955-7.957C203.91,133.584,207.473,130.021,211.864,130.021z"/>
		<circle fill="#D1D3D4" cx="232.69" cy="137.977" r="7.958"/>
		<circle fill="#D1D3D4" cx="88.052" cy="159.309" r="7.956"/>
		<path fill="#D1D3D4" d="M108.242,151.353c4.395,0,7.958,3.564,7.958,7.959c0,4.393-3.562,7.953-7.958,7.953
			c-4.392,0-7.955-3.561-7.955-7.953C100.288,154.918,103.851,151.353,108.242,151.353z"/>
		<circle fill="#D1D3D4" cx="129.065" cy="159.309" r="7.956"/>
		<path fill="#D1D3D4" d="M149.89,151.353c4.395,0,7.958,3.564,7.958,7.959c0,4.393-3.563,7.953-7.958,7.953
			s-7.954-3.561-7.954-7.953C141.936,154.918,145.496,151.353,149.89,151.353z"/>
		<circle fill="#D1D3D4" cx="170.851" cy="159.311" r="7.958"/>
		<circle fill="#D1D3D4" cx="191.044" cy="159.309" r="7.956"/>
		<path fill="#D1D3D4" d="M211.864,151.353c4.395,0,7.958,3.564,7.958,7.959c0,4.393-3.562,7.953-7.958,7.953
			c-4.391,0-7.955-3.561-7.955-7.953C203.91,154.918,207.473,151.353,211.864,151.353z"/>
		<circle fill="#D1D3D4" cx="232.69" cy="159.311" r="7.958"/>
	</g>
	<g>
		<path d="M15.831,12.758h-0.771h-0.22c-0.121,0-0.211-0.029-0.271-0.088s-0.09-0.146-0.09-0.264c0-0.127,0.035-0.215,0.105-0.264
			s0.203-0.073,0.398-0.073h0.088V7.67h-0.078c-0.195,0-0.33-0.026-0.403-0.078s-0.11-0.143-0.11-0.273
			c0-0.121,0.03-0.209,0.09-0.266s0.154-0.085,0.281-0.085h0.21h0.771h1.079c0.811,0,1.457,0.261,1.938,0.784
			s0.723,1.228,0.723,2.117c0,0.433-0.069,0.835-0.208,1.206s-0.339,0.697-0.603,0.977c-0.244,0.254-0.541,0.438-0.891,0.554
			s-0.8,0.173-1.35,0.173c-0.065,0-0.175-0.003-0.33-0.01S15.915,12.758,15.831,12.758z M15.831,12.07
			c0.104,0.01,0.208,0.017,0.31,0.022s0.203,0.007,0.3,0.007c0.801,0,1.388-0.179,1.76-0.537s0.559-0.923,0.559-1.694
			c0-0.775-0.187-1.339-0.562-1.692s-0.973-0.53-1.797-0.53c-0.153,0-0.27,0.001-0.349,0.005s-0.154,0.01-0.222,0.02V12.07z"/>
		<path d="M24.122,12.138c-0.267,0.241-0.558,0.425-0.872,0.552s-0.637,0.19-0.969,0.19c-0.485,0-0.876-0.135-1.174-0.405
			s-0.447-0.622-0.447-1.055c0-0.514,0.198-0.913,0.593-1.196s0.951-0.425,1.667-0.425c0.189,0,0.379,0.012,0.571,0.037
			s0.389,0.062,0.591,0.115V9.916c0-0.375-0.089-0.651-0.269-0.83s-0.458-0.269-0.835-0.269c-0.254,0-0.537,0.068-0.85,0.205
			s-0.519,0.205-0.62,0.205c-0.094,0-0.172-0.038-0.234-0.115s-0.093-0.175-0.093-0.295c0-0.192,0.18-0.355,0.54-0.488
			s0.819-0.2,1.379-0.2c0.573,0,1.006,0.146,1.299,0.437s0.439,0.722,0.439,1.292v2.212h0.239c0.231,0,0.386,0.024,0.464,0.073
			s0.117,0.137,0.117,0.264c0,0.117-0.033,0.205-0.098,0.264s-0.163,0.088-0.293,0.088h-0.767c-0.091,0-0.166-0.028-0.225-0.083
			s-0.098-0.135-0.117-0.239L24.122,12.138z M24.083,10.6c-0.179-0.059-0.353-0.102-0.52-0.129s-0.334-0.042-0.5-0.042
			c-0.501,0-0.897,0.084-1.187,0.254s-0.435,0.397-0.435,0.684c0,0.221,0.09,0.404,0.271,0.547s0.411,0.215,0.691,0.215
			c0.414,0,0.797-0.108,1.15-0.325s0.53-0.442,0.53-0.676V10.6z"/>
		<path d="M30.333,8.52c0.16,0,0.276,0.028,0.349,0.083s0.11,0.143,0.11,0.264c0,0.114-0.034,0.199-0.103,0.256
			s-0.171,0.085-0.308,0.085h-1.978v1.631c0,0.534,0.069,0.885,0.208,1.055s0.375,0.254,0.71,0.254c0.296,0,0.651-0.086,1.064-0.259
			s0.669-0.259,0.767-0.259c0.091,0,0.168,0.033,0.232,0.098s0.095,0.145,0.095,0.239c0,0.107-0.04,0.201-0.12,0.281
			s-0.216,0.157-0.408,0.232c-0.319,0.127-0.606,0.22-0.862,0.278s-0.496,0.088-0.72,0.088c-0.381,0-0.701-0.061-0.959-0.183
			s-0.452-0.304-0.579-0.544c-0.065-0.114-0.111-0.249-0.139-0.405s-0.042-0.397-0.042-0.723v-0.151V9.208h-0.83
			c-0.137,0-0.236-0.027-0.298-0.081s-0.093-0.141-0.093-0.261c0-0.133,0.042-0.225,0.127-0.273S26.823,8.52,27.1,8.52h0.552V7.519
			V7.26c0-0.14,0.03-0.243,0.09-0.31s0.154-0.1,0.281-0.1c0.143,0,0.243,0.041,0.298,0.122s0.083,0.267,0.083,0.557V8.52H30.333z"/>
		<path d="M36.124,12.138c-0.267,0.241-0.558,0.425-0.872,0.552s-0.637,0.19-0.969,0.19c-0.485,0-0.876-0.135-1.174-0.405
			s-0.447-0.622-0.447-1.055c0-0.514,0.198-0.913,0.593-1.196s0.951-0.425,1.667-0.425c0.189,0,0.379,0.012,0.571,0.037
			s0.389,0.062,0.591,0.115V9.916c0-0.375-0.089-0.651-0.269-0.83s-0.458-0.269-0.835-0.269c-0.254,0-0.537,0.068-0.85,0.205
			s-0.519,0.205-0.62,0.205c-0.094,0-0.172-0.038-0.234-0.115s-0.093-0.175-0.093-0.295c0-0.192,0.18-0.355,0.54-0.488
			s0.819-0.2,1.379-0.2c0.573,0,1.006,0.146,1.299,0.437s0.439,0.722,0.439,1.292v2.212h0.239c0.231,0,0.386,0.024,0.464,0.073
			s0.117,0.137,0.117,0.264c0,0.117-0.033,0.205-0.098,0.264s-0.163,0.088-0.293,0.088h-0.767c-0.091,0-0.166-0.028-0.225-0.083
			s-0.098-0.135-0.117-0.239L36.124,12.138z M36.085,10.6c-0.179-0.059-0.353-0.102-0.52-0.129s-0.334-0.042-0.5-0.042
			c-0.501,0-0.897,0.084-1.187,0.254s-0.435,0.397-0.435,0.684c0,0.221,0.09,0.404,0.271,0.547s0.411,0.215,0.691,0.215
			c0.414,0,0.797-0.108,1.15-0.325s0.53-0.442,0.53-0.676V10.6z"/>
	</g>
	<g>
		<path d="M18.541,19.128c0.033-0.088,0.078-0.15,0.137-0.186s0.143-0.054,0.254-0.054c0.121,0,0.205,0.029,0.254,0.088
			s0.073,0.179,0.073,0.361c0,0.319,0.003,0.616,0.01,0.891s0.01,0.395,0.01,0.359c0,0.153-0.026,0.256-0.078,0.31
			s-0.145,0.081-0.278,0.081c-0.215,0-0.355-0.153-0.42-0.459c-0.023-0.091-0.041-0.161-0.054-0.21
			c-0.062-0.244-0.21-0.443-0.444-0.598s-0.509-0.232-0.825-0.232c-0.576,0-1.039,0.211-1.387,0.632s-0.522,0.987-0.522,1.697
			s0.177,1.275,0.53,1.697s0.819,0.632,1.399,0.632c0.189,0,0.381-0.027,0.576-0.081s0.387-0.134,0.576-0.242
			c0.088-0.045,0.208-0.123,0.361-0.232s0.262-0.164,0.327-0.164c0.101,0,0.187,0.033,0.256,0.1s0.105,0.149,0.105,0.247
			s-0.038,0.191-0.115,0.281s-0.219,0.199-0.427,0.33c-0.273,0.179-0.548,0.311-0.825,0.396S17.465,24.9,17.159,24.9
			c-0.804,0-1.468-0.284-1.992-0.852s-0.786-1.295-0.786-2.18c0-0.875,0.265-1.603,0.796-2.183s1.198-0.869,2.002-0.869
			c0.215,0,0.434,0.026,0.657,0.078S18.293,19.024,18.541,19.128z"/>
		<path d="M22.672,19.07h-0.83c-0.316,0-0.514-0.025-0.593-0.076s-0.12-0.143-0.12-0.276c0-0.117,0.033-0.205,0.1-0.264
			s0.164-0.088,0.291-0.088h1.611c0.088,0,0.156,0.018,0.205,0.054s0.073,0.084,0.073,0.146v5.503h1.533
			c0.124,0,0.214,0.027,0.271,0.081s0.085,0.139,0.085,0.256c0,0.133-0.028,0.226-0.083,0.276s-0.16,0.076-0.312,0.076H21.3
			c-0.127,0-0.224-0.029-0.291-0.088s-0.1-0.146-0.1-0.264c0-0.114,0.034-0.199,0.103-0.254s0.171-0.083,0.308-0.083h1.353V19.07z"
			/>
		<path d="M31.563,22.507c0,0.697-0.238,1.266-0.713,1.709S29.758,24.88,29,24.88c-0.755,0-1.371-0.221-1.846-0.664
			s-0.713-1.012-0.713-1.709s0.238-1.266,0.713-1.707s1.09-0.662,1.846-0.662s1.371,0.221,1.848,0.664S31.563,21.814,31.563,22.507z
			 M29,24.197c0.501,0,0.912-0.159,1.233-0.476s0.481-0.722,0.481-1.213s-0.161-0.897-0.483-1.218s-0.732-0.481-1.23-0.481
			s-0.907,0.16-1.228,0.481s-0.481,0.727-0.481,1.218c0,0.495,0.16,0.9,0.479,1.216S28.498,24.197,29,24.197z"/>
		<path d="M36.47,20.539v-0.02c0-0.107,0.031-0.187,0.093-0.237s0.158-0.076,0.288-0.076c0.133,0,0.226,0.039,0.276,0.117
			s0.076,0.239,0.076,0.483v0.908c0,0.121-0.031,0.211-0.093,0.271s-0.155,0.09-0.278,0.09c-0.088,0-0.164-0.025-0.227-0.076
			s-0.141-0.155-0.232-0.315c-0.156-0.264-0.346-0.463-0.569-0.598s-0.479-0.203-0.769-0.203c-0.508,0-0.92,0.15-1.238,0.449
			s-0.476,0.687-0.476,1.162c0,0.485,0.152,0.881,0.457,1.189s0.696,0.461,1.174,0.461c0.218,0,0.426-0.03,0.623-0.09
			s0.383-0.15,0.559-0.271c0.062-0.039,0.145-0.099,0.249-0.181c0.211-0.172,0.377-0.259,0.498-0.259
			c0.101,0,0.183,0.032,0.247,0.095s0.095,0.146,0.095,0.247c0,0.257-0.243,0.52-0.73,0.789s-1.003,0.403-1.55,0.403
			c-0.707,0-1.295-0.226-1.765-0.679s-0.706-1.017-0.706-1.694s0.234-1.243,0.703-1.697s1.055-0.681,1.758-0.681
			c0.248,0,0.496,0.033,0.745,0.1S36.191,20.399,36.47,20.539z"/>
		<path d="M40.113,22.888v1.44c0,0.13-0.027,0.234-0.081,0.312s-0.123,0.117-0.208,0.117h-0.903c-0.127,0-0.223-0.029-0.288-0.088
			s-0.098-0.146-0.098-0.264c0-0.13,0.038-0.219,0.115-0.266s0.24-0.071,0.491-0.071h0.234v-5h-0.2c-0.28,0-0.46-0.025-0.542-0.076
			s-0.122-0.143-0.122-0.276c0-0.117,0.033-0.205,0.1-0.264s0.164-0.088,0.291-0.088h0.933c0.088,0,0.156,0.018,0.205,0.054
			s0.073,0.084,0.073,0.146v3.501l1.411-1.182c-0.107-0.045-0.187-0.096-0.237-0.151s-0.076-0.121-0.076-0.195
			c0-0.098,0.036-0.171,0.107-0.22s0.176-0.073,0.312-0.073h1.323c0.124,0,0.218,0.028,0.283,0.083s0.098,0.138,0.098,0.249
			c0,0.195-0.158,0.309-0.474,0.342c-0.062,0.006-0.111,0.013-0.146,0.02c-0.133,0.016-0.28,0.067-0.439,0.154
			s-0.321,0.201-0.483,0.344l-0.708,0.62l1.851,2.012h0.42c0.14,0,0.24,0.026,0.3,0.078s0.09,0.138,0.09,0.259
			c0,0.114-0.033,0.201-0.1,0.261s-0.164,0.09-0.291,0.09h-1.323c-0.143,0-0.248-0.024-0.312-0.073s-0.098-0.127-0.098-0.234
			c0-0.088,0.032-0.164,0.095-0.227s0.159-0.115,0.286-0.154l-1.45-1.582L40.113,22.888z"/>
	</g>
	<g>
		<path d="M18.541,31.878c0.033-0.088,0.078-0.15,0.137-0.186s0.143-0.054,0.254-0.054c0.121,0,0.205,0.029,0.254,0.088
			s0.073,0.179,0.073,0.361c0,0.319,0.003,0.616,0.01,0.891s0.01,0.395,0.01,0.359c0,0.153-0.026,0.256-0.078,0.31
			s-0.145,0.081-0.278,0.081c-0.215,0-0.355-0.153-0.42-0.459c-0.023-0.091-0.041-0.161-0.054-0.21
			c-0.062-0.244-0.21-0.443-0.444-0.598s-0.509-0.232-0.825-0.232c-0.576,0-1.039,0.211-1.387,0.632s-0.522,0.987-0.522,1.697
			s0.177,1.275,0.53,1.697s0.819,0.632,1.399,0.632c0.189,0,0.381-0.027,0.576-0.081s0.387-0.134,0.576-0.242
			c0.088-0.045,0.208-0.123,0.361-0.232s0.262-0.164,0.327-0.164c0.101,0,0.187,0.033,0.256,0.1s0.105,0.149,0.105,0.247
			s-0.038,0.191-0.115,0.281s-0.219,0.199-0.427,0.33c-0.273,0.179-0.548,0.311-0.825,0.396s-0.568,0.127-0.874,0.127
			c-0.804,0-1.468-0.284-1.992-0.852s-0.786-1.295-0.786-2.18c0-0.875,0.265-1.603,0.796-2.183s1.198-0.869,2.002-0.869
			c0.215,0,0.434,0.026,0.657,0.078S18.293,31.774,18.541,31.878z"/>
		<path d="M20.87,37.156v-0.869c0-0.143,0.027-0.246,0.081-0.308s0.141-0.093,0.261-0.093c0.133,0,0.239,0.091,0.317,0.273
			c0.052,0.111,0.099,0.194,0.142,0.249c0.137,0.176,0.338,0.316,0.605,0.422s0.562,0.159,0.884,0.159c0.345,0,0.622-0.07,0.83-0.21
			s0.312-0.324,0.312-0.552c0-0.231-0.084-0.396-0.251-0.493s-0.455-0.146-0.862-0.146h-0.269c-0.664,0-1.17-0.116-1.519-0.347
			s-0.522-0.566-0.522-1.006c0-0.43,0.17-0.763,0.51-1.001s0.818-0.356,1.433-0.356c0.25,0,0.506,0.035,0.767,0.105
			s0.397,0.105,0.41,0.105c0.036,0,0.104-0.032,0.205-0.095s0.2-0.095,0.298-0.095c0.111,0,0.193,0.041,0.247,0.122
			s0.081,0.204,0.081,0.366v0.571c0,0.172-0.026,0.297-0.078,0.374s-0.135,0.115-0.249,0.115c-0.098,0-0.218-0.083-0.361-0.249
			c-0.101-0.114-0.184-0.2-0.249-0.259c-0.172-0.16-0.356-0.274-0.552-0.344s-0.425-0.105-0.688-0.105
			c-0.306,0-0.553,0.067-0.74,0.203s-0.281,0.307-0.281,0.515c0,0.205,0.096,0.352,0.288,0.439s0.605,0.138,1.24,0.151
			c0.677,0.016,1.172,0.134,1.484,0.354s0.469,0.559,0.469,1.018c0,0.439-0.172,0.791-0.518,1.055s-0.811,0.396-1.396,0.396
			c-0.186,0-0.392-0.017-0.62-0.051s-0.514-0.092-0.859-0.173c-0.114,0.075-0.211,0.131-0.293,0.168s-0.15,0.056-0.205,0.056
			c-0.114,0-0.201-0.04-0.261-0.12S20.87,37.306,20.87,37.156z"/>
	</g>
	<g>
		<path d="M15.67,49.07h0.249h0.361c0.176,0,0.301,0.026,0.376,0.078s0.112,0.138,0.112,0.259c0,0.133-0.035,0.226-0.105,0.276
			s-0.224,0.076-0.461,0.076h-1.221h-0.229c-0.117,0-0.205-0.029-0.264-0.088S14.4,49.524,14.4,49.406c0-0.13,0.033-0.219,0.1-0.266
			s0.196-0.071,0.388-0.071h0.093V44.67h-0.122c-0.273,0-0.458-0.026-0.554-0.078s-0.144-0.143-0.144-0.273
			c0-0.121,0.042-0.208,0.125-0.261s0.217-0.081,0.403-0.081c0.13-0.006,0.228-0.01,0.293-0.01h0.459
			c0.15,0,0.255,0.017,0.315,0.051s0.131,0.121,0.212,0.261l2.461,4.248V44.67h-0.19h-0.347c-0.176,0-0.304-0.028-0.383-0.085
			s-0.12-0.146-0.12-0.266c0-0.133,0.034-0.226,0.103-0.276s0.211-0.076,0.43-0.076h1.167h0.234c0.117,0,0.204,0.029,0.261,0.088
			s0.085,0.146,0.085,0.264c0,0.13-0.035,0.221-0.105,0.273s-0.198,0.078-0.383,0.078h-0.059v4.917c0,0.094-0.022,0.16-0.066,0.195
			s-0.146,0.054-0.305,0.054s-0.258-0.009-0.295-0.027s-0.1-0.102-0.188-0.251L15.67,45.08V49.07z"/>
		<path d="M21.783,47.956c0,0.41,0.086,0.709,0.259,0.898s0.446,0.283,0.82,0.283c0.355,0,0.658-0.112,0.911-0.337
			s0.378-0.506,0.378-0.845V45.94h-0.669c-0.127,0-0.219-0.027-0.276-0.081s-0.085-0.138-0.085-0.251
			c0-0.124,0.031-0.215,0.093-0.273s0.161-0.088,0.298-0.088h1.04c0.124,0,0.211,0.027,0.261,0.081s0.076,0.185,0.076,0.393v3.35
			h0.225c0.16,0,0.274,0.026,0.344,0.078s0.105,0.138,0.105,0.259c0,0.117-0.033,0.205-0.1,0.264s-0.164,0.088-0.291,0.088h-0.742
			c-0.088,0-0.156-0.018-0.205-0.054s-0.073-0.084-0.073-0.146v-0.332c-0.312,0.241-0.58,0.406-0.803,0.496
			s-0.458,0.134-0.706,0.134c-0.537,0-0.94-0.143-1.208-0.427s-0.403-0.715-0.403-1.292V45.94h-0.103
			c-0.221,0-0.373-0.026-0.454-0.078s-0.122-0.143-0.122-0.273c0-0.114,0.032-0.199,0.095-0.256s0.162-0.085,0.295-0.085h0.737
			c0.114,0,0.193,0.023,0.237,0.068s0.066,0.146,0.066,0.303V47.956z"/>
		<path d="M30.802,47.038c0-0.459-0.041-0.769-0.124-0.93s-0.224-0.242-0.424-0.242c-0.239,0-0.429,0.104-0.569,0.312
			s-0.211,0.495-0.211,0.859v2.031h0.088c0.199,0,0.331,0.023,0.398,0.071s0.1,0.136,0.1,0.266c0,0.117-0.028,0.205-0.083,0.264
			s-0.14,0.088-0.254,0.088h-0.62c-0.14,0-0.235-0.033-0.286-0.098s-0.076-0.205-0.076-0.42v-0.142v-2.061v-0.381
			c0-0.244-0.055-0.437-0.165-0.579c-0.109-0.142-0.26-0.212-0.451-0.212c-0.146,0-0.279,0.043-0.4,0.129s-0.225,0.214-0.312,0.383
			v2.69h0.181c0.195,0,0.327,0.024,0.396,0.073s0.103,0.137,0.103,0.264c0,0.133-0.028,0.226-0.083,0.276s-0.161,0.076-0.317,0.076
			h-1.307c-0.127,0-0.222-0.028-0.282-0.085s-0.091-0.146-0.091-0.266c0-0.13,0.038-0.219,0.115-0.266s0.226-0.071,0.447-0.071
			h0.098v-3.13h-0.088c-0.228,0-0.383-0.026-0.466-0.078s-0.125-0.143-0.125-0.273c0-0.114,0.033-0.199,0.098-0.256
			s0.164-0.085,0.294-0.085h0.751c0.109,0,0.181,0.019,0.215,0.056s0.055,0.116,0.062,0.237c0.133-0.143,0.275-0.249,0.427-0.317
			c0.152-0.068,0.324-0.103,0.515-0.103c0.227,0,0.414,0.05,0.561,0.149c0.147,0.099,0.257,0.25,0.328,0.452
			c0.137-0.205,0.294-0.356,0.474-0.454s0.384-0.146,0.615-0.146c0.42,0,0.727,0.137,0.92,0.41s0.291,0.716,0.291,1.328v2.212h0.078
			c0.202,0,0.337,0.024,0.405,0.073s0.103,0.137,0.103,0.264c0,0.117-0.029,0.205-0.088,0.264s-0.145,0.088-0.259,0.088h-0.596
			c-0.132,0-0.229-0.039-0.292-0.117c-0.062-0.078-0.094-0.202-0.094-0.371V47.038z"/>
	</g>
	<g>
		<path d="M18.482,61.701c0.25,0,0.411,0.023,0.481,0.071s0.105,0.136,0.105,0.266c0,0.133-0.035,0.226-0.105,0.276
			s-0.23,0.076-0.481,0.076h-2.964h-0.229c-0.117,0-0.207-0.029-0.269-0.088s-0.093-0.146-0.093-0.264
			c0-0.13,0.036-0.219,0.107-0.266s0.233-0.071,0.483-0.071h1.104v-4.399h-1.104c-0.244,0-0.404-0.025-0.479-0.076
			s-0.112-0.143-0.112-0.276c0-0.121,0.031-0.209,0.093-0.266s0.155-0.085,0.278-0.085h0.22h2.964h0.229
			c0.117,0,0.206,0.029,0.266,0.088s0.09,0.146,0.09,0.264c0,0.133-0.037,0.226-0.11,0.276s-0.232,0.076-0.476,0.076h-1.104v4.399
			H18.482z"/>
		<path d="M21.182,61.701v-3.13H21.09c-0.221,0-0.374-0.026-0.457-0.078s-0.125-0.143-0.125-0.273c0-0.121,0.034-0.208,0.103-0.261
			s0.179-0.081,0.332-0.081h0.229h0.469c0.088,0,0.156,0.018,0.205,0.054s0.073,0.084,0.073,0.146v0.332
			c0.238-0.221,0.473-0.385,0.706-0.491s0.475-0.159,0.725-0.159c0.492,0,0.878,0.153,1.16,0.459s0.422,0.729,0.422,1.27v2.212
			h0.229c0.163,0,0.28,0.027,0.352,0.081s0.107,0.139,0.107,0.256c0,0.127-0.038,0.217-0.115,0.271s-0.212,0.081-0.408,0.081h-1.079
			c-0.208,0-0.342-0.024-0.4-0.073s-0.088-0.142-0.088-0.278c0-0.127,0.034-0.215,0.103-0.264s0.197-0.073,0.386-0.073h0.171V59.67
			c0-0.381-0.086-0.671-0.259-0.872s-0.423-0.3-0.752-0.3c-0.332,0-0.625,0.112-0.879,0.337s-0.381,0.503-0.381,0.835v2.031h0.171
			c0.195,0,0.327,0.024,0.396,0.073s0.103,0.137,0.103,0.264c0,0.137-0.029,0.229-0.088,0.278s-0.202,0.073-0.43,0.073h-0.889
			h-0.264c-0.133,0-0.233-0.028-0.3-0.085s-0.1-0.146-0.1-0.266c0-0.13,0.038-0.219,0.115-0.266s0.226-0.071,0.447-0.071H21.182z"/>
		<path d="M30.469,62.39c-0.068,0-0.116-0.017-0.144-0.051s-0.042-0.1-0.042-0.198v-0.4c-0.195,0.244-0.439,0.434-0.732,0.569
			s-0.61,0.203-0.952,0.203c-0.615,0-1.13-0.219-1.545-0.657s-0.623-0.982-0.623-1.633c0-0.674,0.221-1.234,0.664-1.682
			s0.995-0.671,1.655-0.671c0.335,0,0.636,0.06,0.903,0.178s0.497,0.294,0.688,0.525v-1.87h-0.259c-0.283,0-0.466-0.025-0.549-0.076
			s-0.125-0.143-0.125-0.276c0-0.117,0.033-0.205,0.1-0.264s0.164-0.088,0.291-0.088h1.001c0.098,0,0.168,0.016,0.212,0.049
			s0.066,0.083,0.066,0.151v5.503h0.22c0.16,0,0.275,0.027,0.347,0.081s0.107,0.139,0.107,0.256c0,0.111-0.031,0.197-0.093,0.259
			s-0.145,0.093-0.249,0.093H30.469z M27.271,60.198c0,0.449,0.145,0.817,0.435,1.104s0.658,0.43,1.104,0.43
			c0.449,0,0.819-0.149,1.108-0.447s0.435-0.676,0.435-1.135c0-0.453-0.144-0.825-0.432-1.118s-0.658-0.439-1.111-0.439
			c-0.459,0-0.83,0.148-1.113,0.444S27.271,59.719,27.271,60.198z"/>
		<path d="M33.35,60.349c0.026,0.469,0.185,0.831,0.476,1.086s0.689,0.383,1.194,0.383c0.381,0,0.796-0.102,1.245-0.305
			s0.721-0.305,0.815-0.305c0.098,0,0.179,0.031,0.244,0.093s0.098,0.138,0.098,0.229c0,0.094-0.034,0.181-0.103,0.259
			s-0.177,0.155-0.327,0.229c-0.326,0.16-0.662,0.282-1.008,0.366s-0.691,0.127-1.033,0.127c-0.742,0-1.336-0.214-1.782-0.642
			s-0.669-0.995-0.669-1.702c0-0.719,0.236-1.302,0.708-1.748s1.087-0.669,1.846-0.669c0.687,0,1.256,0.208,1.709,0.625
			s0.679,0.921,0.679,1.514c0,0.182-0.038,0.304-0.115,0.366s-0.284,0.093-0.623,0.093h-0.073H33.35z M33.375,59.709h3.179
			c-0.049-0.387-0.211-0.699-0.486-0.935s-0.613-0.354-1.013-0.354c-0.433,0-0.797,0.114-1.094,0.342S33.469,59.305,33.375,59.709z"
			/>
		<path d="M39.932,61.701h0.142c0.163,0,0.29,0.03,0.381,0.09s0.137,0.146,0.137,0.256c0,0.117-0.04,0.204-0.12,0.259
			s-0.206,0.083-0.378,0.083h-1.348c-0.098,0-0.179-0.033-0.244-0.098s-0.098-0.146-0.098-0.244c0-0.121,0.044-0.208,0.132-0.264
			s0.228-0.083,0.42-0.083h0.098l1.582-1.621l-1.553-1.509h-0.068c-0.189,0-0.32-0.025-0.393-0.076s-0.11-0.139-0.11-0.266
			c0-0.133,0.042-0.226,0.125-0.276s0.242-0.076,0.476-0.076h1.001c0.176,0,0.304,0.028,0.383,0.085s0.12,0.146,0.12,0.266
			c0,0.111-0.045,0.195-0.134,0.254s-0.219,0.088-0.388,0.088h-0.039l1.05,1.03l1.001-1.03h-0.103c-0.182,0-0.317-0.027-0.405-0.081
			s-0.132-0.138-0.132-0.251c0-0.127,0.039-0.219,0.117-0.276s0.205-0.085,0.381-0.085h1.27c0.101,0,0.183,0.032,0.247,0.095
			s0.095,0.146,0.095,0.247c0,0.121-0.041,0.209-0.122,0.266s-0.211,0.085-0.391,0.085h-0.137l-1.401,1.46l1.709,1.67h0.049
			c0.124,0,0.22,0.03,0.288,0.09s0.103,0.146,0.103,0.256c0,0.13-0.039,0.22-0.117,0.269s-0.239,0.073-0.483,0.073h-0.996
			c-0.172,0-0.299-0.028-0.381-0.083s-0.122-0.142-0.122-0.259c0-0.107,0.039-0.192,0.117-0.254s0.186-0.093,0.322-0.093h0.273
			l-1.23-1.201L39.932,61.701z"/>
	</g>
	<g>
		<path d="M18.541,69.51c0.033-0.088,0.078-0.15,0.137-0.186s0.143-0.054,0.254-0.054c0.121,0,0.205,0.029,0.254,0.088
			s0.073,0.179,0.073,0.361c0,0.319,0.003,0.616,0.01,0.891s0.01,0.395,0.01,0.359c0,0.153-0.026,0.256-0.078,0.31
			s-0.145,0.081-0.278,0.081c-0.215,0-0.355-0.153-0.42-0.459c-0.023-0.091-0.041-0.161-0.054-0.21
			c-0.062-0.244-0.21-0.443-0.444-0.598s-0.509-0.232-0.825-0.232c-0.576,0-1.039,0.211-1.387,0.632s-0.522,0.987-0.522,1.697
			s0.177,1.275,0.53,1.697s0.819,0.632,1.399,0.632c0.189,0,0.381-0.027,0.576-0.081s0.387-0.134,0.576-0.242
			c0.088-0.045,0.208-0.123,0.361-0.232s0.262-0.164,0.327-0.164c0.101,0,0.187,0.033,0.256,0.1s0.105,0.149,0.105,0.247
			s-0.038,0.191-0.115,0.281s-0.219,0.199-0.427,0.33c-0.273,0.179-0.548,0.311-0.825,0.396s-0.568,0.127-0.874,0.127
			c-0.804,0-1.468-0.284-1.992-0.852s-0.786-1.295-0.786-2.18c0-0.875,0.265-1.603,0.796-2.183s1.198-0.869,2.002-0.869
			c0.215,0,0.434,0.026,0.657,0.078S18.293,69.406,18.541,69.51z"/>
		<path d="M22.672,69.451h-0.83c-0.316,0-0.514-0.025-0.593-0.076s-0.12-0.143-0.12-0.276c0-0.117,0.033-0.205,0.1-0.264
			s0.164-0.088,0.291-0.088h1.611c0.088,0,0.156,0.018,0.205,0.054s0.073,0.084,0.073,0.146v5.503h1.533
			c0.124,0,0.214,0.027,0.271,0.081s0.085,0.139,0.085,0.256c0,0.133-0.028,0.226-0.083,0.276s-0.16,0.076-0.312,0.076H21.3
			c-0.127,0-0.224-0.029-0.291-0.088s-0.1-0.146-0.1-0.264c0-0.114,0.034-0.199,0.103-0.254s0.171-0.083,0.308-0.083h1.353V69.451z"
			/>
		<path d="M27.349,73.099c0.026,0.469,0.185,0.831,0.476,1.086s0.689,0.383,1.194,0.383c0.381,0,0.796-0.102,1.245-0.305
			s0.721-0.305,0.815-0.305c0.098,0,0.179,0.031,0.244,0.093s0.098,0.138,0.098,0.229c0,0.094-0.034,0.181-0.103,0.259
			s-0.177,0.155-0.327,0.229c-0.326,0.16-0.662,0.282-1.008,0.366s-0.691,0.127-1.033,0.127c-0.742,0-1.336-0.214-1.782-0.642
			S26.5,73.625,26.5,72.918c0-0.719,0.236-1.302,0.708-1.748s1.087-0.669,1.846-0.669c0.687,0,1.256,0.208,1.709,0.625
			s0.679,0.921,0.679,1.514c0,0.182-0.038,0.304-0.115,0.366s-0.284,0.093-0.623,0.093h-0.073H27.349z M27.374,72.459h3.179
			c-0.049-0.387-0.211-0.699-0.486-0.935s-0.613-0.354-1.013-0.354c-0.433,0-0.797,0.114-1.094,0.342S27.468,72.055,27.374,72.459z"
			/>
		<path d="M36.124,74.52c-0.267,0.241-0.558,0.425-0.872,0.552s-0.637,0.19-0.969,0.19c-0.485,0-0.876-0.135-1.174-0.405
			s-0.447-0.622-0.447-1.055c0-0.514,0.198-0.913,0.593-1.196s0.951-0.425,1.667-0.425c0.189,0,0.379,0.012,0.571,0.037
			s0.389,0.062,0.591,0.115v-0.034c0-0.375-0.089-0.651-0.269-0.83s-0.458-0.269-0.835-0.269c-0.254,0-0.537,0.068-0.85,0.205
			s-0.519,0.205-0.62,0.205c-0.094,0-0.172-0.038-0.234-0.115s-0.093-0.175-0.093-0.295c0-0.192,0.18-0.355,0.54-0.488
			s0.819-0.2,1.379-0.2c0.573,0,1.006,0.146,1.299,0.437s0.439,0.722,0.439,1.292v2.212h0.239c0.231,0,0.386,0.024,0.464,0.073
			s0.117,0.137,0.117,0.264c0,0.117-0.033,0.205-0.098,0.264s-0.163,0.088-0.293,0.088h-0.767c-0.091,0-0.166-0.028-0.225-0.083
			s-0.098-0.135-0.117-0.239L36.124,74.52z M36.085,72.982c-0.179-0.059-0.353-0.102-0.52-0.129s-0.334-0.042-0.5-0.042
			c-0.501,0-0.897,0.084-1.187,0.254s-0.435,0.397-0.435,0.684c0,0.221,0.09,0.404,0.271,0.547s0.411,0.215,0.691,0.215
			c0.414,0,0.797-0.108,1.15-0.325s0.53-0.442,0.53-0.676V72.982z"/>
		<path d="M40.523,74.451h1.621c0.127,0,0.221,0.027,0.281,0.081s0.09,0.139,0.09,0.256c0,0.133-0.028,0.226-0.085,0.276
			s-0.162,0.076-0.315,0.076h-3.193c-0.127,0-0.223-0.029-0.288-0.088s-0.098-0.146-0.098-0.264c0-0.114,0.033-0.199,0.1-0.254
			s0.17-0.083,0.31-0.083h0.85v-3.13h-0.332c-0.316,0-0.513-0.025-0.591-0.076s-0.117-0.143-0.117-0.276
			c0-0.114,0.032-0.199,0.095-0.256s0.16-0.085,0.291-0.085h1.113c0.088,0,0.155,0.017,0.2,0.051s0.068,0.084,0.068,0.149v0.83
			c0.309-0.387,0.631-0.675,0.967-0.864s0.697-0.283,1.084-0.283c0.29,0,0.524,0.059,0.703,0.176s0.269,0.269,0.269,0.454
			c0,0.121-0.045,0.227-0.134,0.32S43.223,71.6,43.116,71.6c-0.075,0-0.201-0.05-0.378-0.149s-0.336-0.149-0.476-0.149
			c-0.254,0-0.521,0.09-0.803,0.271s-0.593,0.466-0.935,0.857V74.451z"/>
	</g>
	<g>
		<path d="M19.639,124.24c0,0.892-0.248,1.623-0.742,2.194s-1.128,0.856-1.899,0.856c-0.765,0-1.396-0.286-1.892-0.859
			c-0.497-0.572-0.745-1.303-0.745-2.191c0-0.898,0.246-1.633,0.737-2.2s1.125-0.853,1.899-0.853c0.771,0,1.405,0.287,1.899,0.859
			C19.392,122.62,19.639,123.351,19.639,124.24z M16.998,126.597c0.547,0,0.978-0.209,1.292-0.627s0.471-0.995,0.471-1.73
			c0-0.736-0.157-1.312-0.471-1.731s-0.745-0.628-1.292-0.628c-0.55,0-0.98,0.208-1.292,0.623s-0.466,0.994-0.466,1.736
			c0,0.735,0.157,1.312,0.471,1.73S16.454,126.597,16.998,126.597z"/>
		<path d="M21.182,126.451v-3.129H21.09c-0.221,0-0.374-0.026-0.457-0.078c-0.083-0.053-0.125-0.144-0.125-0.273
			c0-0.121,0.034-0.208,0.103-0.262s0.179-0.08,0.332-0.08h0.229h0.469c0.088,0,0.156,0.018,0.205,0.053
			c0.049,0.036,0.073,0.085,0.073,0.146v0.332c0.238-0.221,0.473-0.385,0.706-0.49s0.475-0.158,0.725-0.158
			c0.492,0,0.878,0.152,1.16,0.459c0.282,0.306,0.422,0.729,0.422,1.27v2.211h0.229c0.163,0,0.28,0.027,0.352,0.081
			s0.107,0.14,0.107,0.257c0,0.127-0.038,0.217-0.115,0.271s-0.212,0.081-0.408,0.081h-1.079c-0.208,0-0.342-0.025-0.4-0.074
			s-0.088-0.141-0.088-0.277c0-0.127,0.034-0.215,0.103-0.264s0.197-0.074,0.386-0.074h0.171v-2.031
			c0-0.381-0.086-0.671-0.259-0.871s-0.423-0.301-0.752-0.301c-0.332,0-0.625,0.113-0.879,0.338s-0.381,0.502-0.381,0.834v2.031
			h0.171c0.195,0,0.327,0.025,0.396,0.074s0.103,0.137,0.103,0.264c0,0.137-0.029,0.229-0.088,0.277s-0.202,0.074-0.43,0.074h-0.889
			h-0.264c-0.133,0-0.233-0.029-0.3-0.086s-0.1-0.146-0.1-0.266c0-0.131,0.038-0.219,0.115-0.267s0.226-0.071,0.447-0.071H21.182z"
			/>
		<path d="M27.901,127.271c-0.072,0.163-0.139,0.273-0.203,0.332s-0.139,0.088-0.227,0.088c-0.091,0-0.171-0.033-0.239-0.1
			s-0.103-0.147-0.103-0.242c0-0.025,0.005-0.056,0.015-0.09s0.023-0.07,0.039-0.109l3.047-6.568
			c0.082-0.169,0.153-0.283,0.215-0.344s0.137-0.09,0.225-0.09c0.098,0,0.181,0.032,0.249,0.098
			c0.068,0.064,0.103,0.143,0.103,0.234c0,0.025-0.004,0.055-0.012,0.088c-0.008,0.032-0.021,0.062-0.037,0.092L27.901,127.271z"/>
		<path d="M37.642,124.24c0,0.892-0.248,1.623-0.742,2.194s-1.128,0.856-1.899,0.856c-0.765,0-1.396-0.286-1.892-0.859
			c-0.497-0.572-0.745-1.303-0.745-2.191c0-0.898,0.246-1.633,0.737-2.2s1.125-0.853,1.899-0.853c0.771,0,1.405,0.287,1.899,0.859
			C37.395,122.62,37.642,123.351,37.642,124.24z M35.001,126.597c0.547,0,0.978-0.209,1.292-0.627s0.471-0.995,0.471-1.73
			c0-0.736-0.157-1.312-0.471-1.731s-0.745-0.628-1.292-0.628c-0.55,0-0.98,0.208-1.292,0.623s-0.466,0.994-0.466,1.736
			c0,0.735,0.157,1.312,0.471,1.73S34.457,126.597,35.001,126.597z"/>
		<path d="M42.506,126.441c0.133,0,0.235,0.029,0.305,0.088s0.105,0.146,0.105,0.26c0,0.117-0.033,0.205-0.1,0.264
			s-0.164,0.088-0.291,0.088h-3.193c-0.133,0-0.235-0.029-0.305-0.088s-0.105-0.146-0.105-0.264c0-0.114,0.033-0.201,0.1-0.26
			s0.164-0.088,0.291-0.088h0.83v-2.982h-0.801c-0.133,0-0.237-0.031-0.31-0.094c-0.073-0.062-0.11-0.149-0.11-0.264
			c0-0.117,0.034-0.205,0.103-0.264s0.167-0.088,0.298-0.088h0.771v-0.332c0-0.589,0.167-1.016,0.503-1.281s0.877-0.398,1.626-0.398
			c0.365,0,0.634,0.041,0.808,0.123c0.174,0.081,0.261,0.208,0.261,0.381c0,0.101-0.038,0.184-0.112,0.248
			c-0.075,0.065-0.171,0.098-0.288,0.098c-0.059,0-0.199-0.02-0.422-0.059s-0.414-0.059-0.574-0.059
			c-0.368,0-0.631,0.078-0.791,0.232s-0.239,0.411-0.239,0.77v0.277h1.729c0.133,0,0.235,0.029,0.305,0.088s0.105,0.146,0.105,0.264
			c0,0.111-0.036,0.198-0.107,0.262s-0.169,0.096-0.293,0.096h-1.689v2.982H42.506z"/>
		<path d="M48.507,126.441c0.133,0,0.235,0.029,0.305,0.088s0.105,0.146,0.105,0.26c0,0.117-0.033,0.205-0.1,0.264
			s-0.164,0.088-0.291,0.088h-3.193c-0.133,0-0.235-0.029-0.305-0.088s-0.105-0.146-0.105-0.264c0-0.114,0.033-0.201,0.1-0.26
			s0.164-0.088,0.291-0.088h0.83v-2.982h-0.801c-0.133,0-0.237-0.031-0.31-0.094c-0.073-0.062-0.11-0.149-0.11-0.264
			c0-0.117,0.034-0.205,0.103-0.264s0.167-0.088,0.298-0.088h0.771v-0.332c0-0.589,0.167-1.016,0.503-1.281s0.877-0.398,1.626-0.398
			c0.365,0,0.634,0.041,0.808,0.123c0.174,0.081,0.261,0.208,0.261,0.381c0,0.101-0.038,0.184-0.112,0.248
			c-0.075,0.065-0.171,0.098-0.288,0.098c-0.059,0-0.199-0.02-0.422-0.059s-0.414-0.059-0.574-0.059
			c-0.368,0-0.631,0.078-0.791,0.232s-0.239,0.411-0.239,0.77v0.277h1.729c0.133,0,0.235,0.029,0.305,0.088s0.105,0.146,0.105,0.264
			c0,0.111-0.036,0.198-0.107,0.262s-0.169,0.096-0.293,0.096h-1.689v2.982H48.507z"/>
	</g>
	<g>
		<path d="M16.939,89.17h-2.188c-0.114,0-0.199-0.029-0.256-0.088s-0.085-0.146-0.085-0.264c0-0.13,0.036-0.219,0.107-0.266
			s0.243-0.07,0.513-0.07h0.161v-4.4H15.03c-0.25,0-0.412-0.025-0.483-0.075s-0.107-0.143-0.107-0.276
			c0-0.113,0.029-0.201,0.088-0.261s0.143-0.091,0.254-0.091h2.28c0.69,0,1.216,0.135,1.577,0.403s0.542,0.658,0.542,1.169
			c0,0.258-0.055,0.482-0.166,0.674c-0.111,0.192-0.275,0.351-0.493,0.475c0.352,0.127,0.613,0.304,0.784,0.531
			c0.171,0.229,0.256,0.518,0.256,0.869c0,0.297-0.073,0.566-0.22,0.811s-0.353,0.445-0.62,0.602
			c-0.16,0.091-0.337,0.156-0.532,0.197s-0.472,0.061-0.83,0.061H16.939z M15.958,85.879h1.021c0.462,0,0.805-0.072,1.028-0.219
			s0.334-0.373,0.334-0.68c0-0.289-0.101-0.512-0.303-0.666s-0.492-0.232-0.869-0.232h-1.211V85.879z M15.958,88.482h1.084
			c0.612,0,1.043-0.078,1.294-0.232s0.376-0.411,0.376-0.77c0-0.361-0.12-0.618-0.359-0.771c-0.239-0.152-0.66-0.229-1.262-0.229
			h-1.133V88.482z"/>
		<path d="M22.52,88.482h1.621c0.127,0,0.221,0.026,0.281,0.08s0.09,0.139,0.09,0.256c0,0.134-0.028,0.227-0.085,0.276
			s-0.162,0.075-0.315,0.075h-3.193c-0.127,0-0.223-0.029-0.288-0.088s-0.098-0.146-0.098-0.264c0-0.113,0.033-0.198,0.1-0.254
			c0.067-0.055,0.17-0.082,0.31-0.082h0.85v-3.131h-0.332c-0.316,0-0.513-0.025-0.591-0.075S20.753,85.134,20.753,85
			c0-0.113,0.032-0.199,0.095-0.256s0.16-0.086,0.291-0.086h1.113c0.088,0,0.155,0.018,0.2,0.052s0.068,0.084,0.068,0.149v0.83
			c0.309-0.388,0.631-0.676,0.967-0.865c0.335-0.188,0.697-0.283,1.084-0.283c0.29,0,0.524,0.059,0.703,0.176
			s0.269,0.27,0.269,0.455c0,0.12-0.045,0.227-0.134,0.319s-0.188,0.14-0.295,0.14c-0.075,0-0.201-0.051-0.378-0.149
			s-0.336-0.149-0.476-0.149c-0.254,0-0.521,0.091-0.803,0.271s-0.593,0.467-0.935,0.857V88.482z"/>
		<path d="M29.454,88.482h1.567c0.127,0,0.221,0.026,0.281,0.08s0.09,0.139,0.09,0.256c0,0.134-0.028,0.227-0.085,0.276
			s-0.162,0.075-0.315,0.075h-3.789c-0.13,0-0.228-0.029-0.293-0.088s-0.098-0.146-0.098-0.264c0-0.113,0.034-0.198,0.103-0.254
			c0.068-0.055,0.171-0.082,0.308-0.082h1.489v-3.131H27.76c-0.133,0-0.235-0.029-0.305-0.09S27.349,85.114,27.349,85
			c0-0.113,0.033-0.199,0.098-0.256s0.163-0.086,0.293-0.086h1.431c0.088,0,0.157,0.019,0.208,0.055
			c0.05,0.035,0.076,0.084,0.076,0.146V88.482z M28.551,83.252c0-0.352,0.032-0.572,0.095-0.664
			c0.063-0.091,0.199-0.137,0.408-0.137c0.202,0,0.335,0.039,0.4,0.115s0.098,0.258,0.098,0.545c0,0.279-0.03,0.453-0.09,0.52
			s-0.196,0.1-0.408,0.1c-0.208,0-0.344-0.03-0.408-0.092C28.582,83.576,28.551,83.447,28.551,83.252z"/>
		<path d="M36.983,88.912c0,0.455-0.023,0.778-0.068,0.969s-0.124,0.357-0.234,0.5c-0.182,0.241-0.438,0.424-0.767,0.55
			s-0.716,0.188-1.162,0.188c-0.371,0-0.642-0.036-0.813-0.107c-0.171-0.072-0.256-0.186-0.256-0.342
			c0-0.102,0.042-0.189,0.125-0.267s0.182-0.114,0.295-0.114c0.088,0,0.223,0.012,0.405,0.036s0.321,0.036,0.415,0.036
			c0.482,0,0.824-0.11,1.025-0.332c0.202-0.221,0.303-0.6,0.303-1.137v-0.592c-0.199,0.231-0.418,0.4-0.659,0.508
			s-0.518,0.162-0.83,0.162c-0.609,0-1.112-0.203-1.511-0.608s-0.598-0.919-0.598-1.54c0-0.625,0.205-1.145,0.615-1.556
			s0.918-0.618,1.523-0.618c0.25,0,0.496,0.047,0.735,0.14s0.481,0.233,0.725,0.423v-0.352c0-0.068,0.022-0.119,0.066-0.152
			c0.044-0.032,0.113-0.049,0.208-0.049h0.737c0.13,0,0.228,0.029,0.293,0.086s0.098,0.143,0.098,0.256
			c0,0.131-0.041,0.222-0.122,0.273c-0.082,0.053-0.234,0.078-0.459,0.078h-0.088V88.912z M34.864,85.381
			c-0.426,0-0.775,0.133-1.045,0.396s-0.405,0.605-0.405,1.025c0,0.413,0.135,0.752,0.405,1.018s0.619,0.398,1.045,0.398
			c0.423,0,0.771-0.133,1.042-0.398s0.408-0.604,0.408-1.018c0-0.414-0.136-0.754-0.408-1.021
			C35.635,85.514,35.287,85.381,34.864,85.381z"/>
		<path d="M39.166,88.482v-5h-0.093c-0.221,0-0.374-0.026-0.457-0.078c-0.083-0.053-0.125-0.144-0.125-0.273
			c0-0.117,0.033-0.205,0.1-0.264s0.164-0.088,0.291-0.088h0.742c0.088,0,0.156,0.018,0.205,0.053
			c0.049,0.036,0.073,0.085,0.073,0.146v2.213c0.238-0.222,0.473-0.385,0.706-0.491s0.475-0.159,0.725-0.159
			c0.492,0,0.878,0.153,1.16,0.459c0.282,0.307,0.422,0.729,0.422,1.27v2.213h0.229c0.163,0,0.28,0.026,0.352,0.08
			s0.107,0.139,0.107,0.256s-0.033,0.205-0.098,0.264s-0.163,0.088-0.293,0.088h-1.299c-0.153,0-0.256-0.025-0.31-0.075
			s-0.081-0.143-0.081-0.276c0-0.13,0.033-0.219,0.1-0.266s0.193-0.07,0.378-0.07h0.171v-2.031c0-0.381-0.086-0.672-0.259-0.872
			s-0.423-0.3-0.752-0.3c-0.335,0-0.629,0.111-0.881,0.336s-0.378,0.504-0.378,0.836v2.031h0.171c0.195,0,0.327,0.023,0.396,0.072
			s0.103,0.137,0.103,0.264c0,0.134-0.027,0.227-0.081,0.276s-0.157,0.075-0.31,0.075h-1.299c-0.127,0-0.222-0.029-0.286-0.088
			s-0.095-0.146-0.095-0.264c0-0.13,0.038-0.219,0.115-0.266s0.226-0.07,0.447-0.07H39.166z"/>
		<path d="M48.336,84.931c0.16,0,0.276,0.028,0.349,0.084c0.073,0.055,0.11,0.143,0.11,0.264c0,0.113-0.034,0.199-0.103,0.256
			s-0.171,0.086-0.308,0.086h-1.978v1.631c0,0.533,0.069,0.885,0.208,1.055c0.138,0.169,0.375,0.254,0.71,0.254
			c0.296,0,0.651-0.087,1.064-0.26c0.414-0.172,0.669-0.258,0.767-0.258c0.091,0,0.168,0.032,0.232,0.098
			c0.063,0.064,0.095,0.145,0.095,0.238c0,0.107-0.04,0.201-0.12,0.281s-0.216,0.157-0.408,0.232
			c-0.319,0.127-0.606,0.219-0.862,0.277s-0.496,0.088-0.72,0.088c-0.381,0-0.701-0.061-0.959-0.183s-0.452-0.304-0.579-0.544
			c-0.065-0.114-0.111-0.25-0.139-0.406s-0.042-0.396-0.042-0.723v-0.15v-1.631h-0.83c-0.137,0-0.236-0.027-0.298-0.081
			s-0.093-0.141-0.093-0.261c0-0.134,0.042-0.225,0.127-0.273s0.265-0.074,0.542-0.074h0.552v-1v-0.26c0-0.14,0.03-0.242,0.09-0.31
			s0.154-0.101,0.281-0.101c0.143,0,0.243,0.041,0.298,0.123c0.055,0.081,0.083,0.267,0.083,0.557v0.99H48.336z"/>
		<path d="M51.187,88.482v-3.131h-0.093c-0.221,0-0.374-0.025-0.457-0.078c-0.083-0.052-0.125-0.143-0.125-0.273
			c0-0.12,0.034-0.207,0.103-0.261s0.179-0.081,0.332-0.081h0.229h0.469c0.088,0,0.156,0.019,0.205,0.055
			c0.049,0.035,0.073,0.084,0.073,0.146v0.332c0.238-0.222,0.473-0.385,0.706-0.491s0.475-0.159,0.725-0.159
			c0.492,0,0.878,0.153,1.16,0.459c0.282,0.307,0.422,0.729,0.422,1.27v2.213h0.229c0.163,0,0.28,0.026,0.352,0.08
			s0.107,0.139,0.107,0.256c0,0.127-0.038,0.218-0.115,0.271s-0.212,0.08-0.408,0.08h-1.079c-0.208,0-0.342-0.023-0.4-0.072
			s-0.088-0.143-0.088-0.279c0-0.127,0.034-0.215,0.103-0.264s0.197-0.072,0.386-0.072h0.171v-2.031
			c0-0.381-0.086-0.672-0.259-0.872s-0.423-0.3-0.752-0.3c-0.332,0-0.625,0.111-0.879,0.336s-0.381,0.504-0.381,0.836v2.031h0.171
			c0.195,0,0.327,0.023,0.396,0.072s0.103,0.137,0.103,0.264c0,0.137-0.029,0.23-0.088,0.279s-0.202,0.072-0.43,0.072h-0.889h-0.264
			c-0.133,0-0.233-0.027-0.3-0.085s-0.1-0.146-0.1-0.267c0-0.13,0.038-0.219,0.115-0.266s0.226-0.07,0.447-0.07H51.187z"/>
		<path d="M57.354,87.129c0.026,0.469,0.185,0.832,0.476,1.087s0.689,0.384,1.194,0.384c0.381,0,0.796-0.102,1.245-0.306
			s0.721-0.306,0.815-0.306c0.098,0,0.179,0.031,0.244,0.094c0.065,0.062,0.098,0.138,0.098,0.229c0,0.095-0.034,0.182-0.103,0.26
			s-0.177,0.154-0.327,0.229c-0.326,0.16-0.662,0.282-1.008,0.367c-0.347,0.084-0.691,0.127-1.033,0.127
			c-0.742,0-1.336-0.215-1.782-0.643s-0.669-0.995-0.669-1.701c0-0.72,0.236-1.303,0.708-1.748c0.472-0.446,1.087-0.67,1.846-0.67
			c0.687,0,1.256,0.209,1.709,0.625c0.453,0.417,0.679,0.922,0.679,1.514c0,0.183-0.038,0.305-0.115,0.367
			c-0.077,0.062-0.284,0.092-0.623,0.092h-0.073H57.354z M57.379,86.49h3.179c-0.049-0.388-0.211-0.699-0.486-0.936
			s-0.613-0.354-1.013-0.354c-0.433,0-0.797,0.113-1.094,0.342C57.668,85.77,57.473,86.086,57.379,86.49z"/>
		<path d="M62.877,88.818v-0.869c0-0.143,0.027-0.245,0.081-0.307c0.054-0.062,0.141-0.094,0.261-0.094
			c0.133,0,0.239,0.092,0.317,0.273c0.052,0.111,0.099,0.194,0.142,0.25c0.137,0.176,0.338,0.316,0.605,0.422
			s0.562,0.158,0.884,0.158c0.345,0,0.622-0.069,0.83-0.209c0.208-0.141,0.312-0.324,0.312-0.553c0-0.23-0.084-0.395-0.251-0.492
			s-0.455-0.146-0.862-0.146h-0.269c-0.664,0-1.17-0.116-1.519-0.348c-0.348-0.23-0.522-0.566-0.522-1.006c0-0.43,0.17-0.763,0.51-1
			c0.34-0.238,0.818-0.357,1.433-0.357c0.25,0,0.506,0.035,0.767,0.105s0.397,0.105,0.41,0.105c0.036,0,0.104-0.032,0.205-0.096
			s0.2-0.096,0.298-0.096c0.111,0,0.193,0.041,0.247,0.123c0.054,0.081,0.081,0.203,0.081,0.365v0.572
			c0,0.172-0.026,0.297-0.078,0.373s-0.135,0.115-0.249,0.115c-0.098,0-0.218-0.084-0.361-0.25
			c-0.101-0.113-0.184-0.199-0.249-0.258c-0.172-0.16-0.356-0.275-0.552-0.345s-0.425-0.104-0.688-0.104
			c-0.306,0-0.553,0.066-0.74,0.202s-0.281,0.307-0.281,0.515c0,0.205,0.096,0.352,0.288,0.439s0.605,0.139,1.24,0.152
			c0.677,0.016,1.172,0.134,1.484,0.354s0.469,0.559,0.469,1.018c0,0.439-0.172,0.791-0.518,1.055s-0.811,0.396-1.396,0.396
			c-0.186,0-0.392-0.018-0.62-0.052s-0.514-0.092-0.859-0.173c-0.114,0.074-0.211,0.131-0.293,0.168s-0.15,0.057-0.205,0.057
			c-0.114,0-0.201-0.041-0.261-0.12S62.877,88.969,62.877,88.818z"/>
		<path d="M68.878,88.818v-0.869c0-0.143,0.027-0.245,0.081-0.307c0.054-0.062,0.141-0.094,0.261-0.094
			c0.133,0,0.239,0.092,0.317,0.273c0.052,0.111,0.099,0.194,0.142,0.25c0.137,0.176,0.338,0.316,0.605,0.422
			s0.562,0.158,0.884,0.158c0.345,0,0.622-0.069,0.83-0.209c0.208-0.141,0.312-0.324,0.312-0.553c0-0.23-0.084-0.395-0.251-0.492
			s-0.455-0.146-0.862-0.146h-0.269c-0.664,0-1.17-0.116-1.519-0.348c-0.348-0.23-0.522-0.566-0.522-1.006c0-0.43,0.17-0.763,0.51-1
			c0.34-0.238,0.818-0.357,1.433-0.357c0.25,0,0.506,0.035,0.767,0.105s0.397,0.105,0.41,0.105c0.036,0,0.104-0.032,0.205-0.096
			s0.2-0.096,0.298-0.096c0.111,0,0.193,0.041,0.247,0.123c0.054,0.081,0.081,0.203,0.081,0.365v0.572
			c0,0.172-0.026,0.297-0.078,0.373s-0.135,0.115-0.249,0.115c-0.098,0-0.218-0.084-0.361-0.25
			c-0.101-0.113-0.184-0.199-0.249-0.258c-0.172-0.16-0.356-0.275-0.552-0.345s-0.425-0.104-0.688-0.104
			c-0.306,0-0.553,0.066-0.74,0.202s-0.281,0.307-0.281,0.515c0,0.205,0.096,0.352,0.288,0.439s0.605,0.139,1.24,0.152
			c0.677,0.016,1.172,0.134,1.484,0.354s0.469,0.559,0.469,1.018c0,0.439-0.172,0.791-0.518,1.055s-0.811,0.396-1.396,0.396
			c-0.186,0-0.392-0.018-0.62-0.052s-0.514-0.092-0.859-0.173c-0.114,0.074-0.211,0.131-0.293,0.168s-0.15,0.057-0.205,0.057
			c-0.114,0-0.201-0.041-0.261-0.12S68.878,88.969,68.878,88.818z"/>
	</g>
	<g>
		<path d="M15.909,101.982h0.332c0.189,0,0.322,0.025,0.4,0.078c0.078,0.052,0.117,0.138,0.117,0.258
			c0,0.131-0.034,0.222-0.103,0.273c-0.068,0.053-0.197,0.078-0.386,0.078H14.63c-0.111,0-0.195-0.029-0.254-0.09
			s-0.088-0.147-0.088-0.262c0-0.12,0.033-0.206,0.098-0.258c0.065-0.053,0.172-0.078,0.322-0.078h0.161h0.283v-4.443h-0.283
			c-0.244,0-0.402-0.023-0.474-0.068c-0.072-0.046-0.107-0.133-0.107-0.26c0-0.11,0.028-0.193,0.085-0.248
			c0.057-0.056,0.143-0.084,0.256-0.084h2.061c0.498,0,0.87,0.023,1.116,0.071s0.453,0.128,0.623,0.241
			c0.218,0.146,0.39,0.341,0.515,0.582c0.125,0.24,0.188,0.499,0.188,0.775c0,0.375-0.115,0.696-0.344,0.965
			s-0.549,0.455-0.959,0.559c0.084,0.049,0.16,0.106,0.227,0.172c0.067,0.064,0.131,0.143,0.193,0.234l0.981,1.504h0.161
			c0.182,0,0.308,0.025,0.376,0.075s0.103,0.138,0.103,0.261c0,0.114-0.028,0.201-0.085,0.262s-0.141,0.09-0.251,0.09H18.98
			c-0.16,0-0.316-0.117-0.469-0.352c-0.02-0.02-0.034-0.035-0.044-0.049l-0.938-1.42c-0.192-0.29-0.351-0.478-0.476-0.562
			c-0.125-0.084-0.291-0.127-0.496-0.127h-0.649V101.982z M15.909,97.539v1.973h1.011c0.456,0,0.798-0.082,1.028-0.247
			s0.344-0.409,0.344-0.735c0-0.328-0.112-0.576-0.337-0.742s-0.56-0.248-1.006-0.248H15.909z"/>
		<path d="M25.562,100.42c0,0.696-0.238,1.266-0.713,1.709c-0.475,0.442-1.092,0.664-1.851,0.664c-0.755,0-1.371-0.222-1.846-0.664
			c-0.475-0.443-0.713-1.013-0.713-1.709c0-0.697,0.238-1.266,0.713-1.707s1.09-0.662,1.846-0.662s1.371,0.222,1.848,0.664
			C25.324,99.158,25.562,99.726,25.562,100.42z M22.999,102.109c0.501,0,0.912-0.159,1.233-0.477s0.481-0.722,0.481-1.213
			c0-0.492-0.161-0.898-0.483-1.219s-0.732-0.48-1.23-0.48s-0.907,0.16-1.228,0.48s-0.481,0.727-0.481,1.219
			c0,0.494,0.16,0.899,0.479,1.215C22.087,101.951,22.497,102.109,22.999,102.109z"/>
		<path d="M28.97,100.189l-0.63,2.32c-0.033,0.123-0.082,0.209-0.146,0.258s-0.163,0.074-0.293,0.074
			c-0.117,0-0.208-0.031-0.273-0.094c-0.065-0.062-0.124-0.174-0.176-0.336l-1.118-3.561H26.29c-0.137,0-0.235-0.026-0.295-0.08
			s-0.09-0.145-0.09-0.271c0-0.11,0.032-0.195,0.095-0.254s0.157-0.088,0.281-0.088h1.304c0.176,0,0.294,0.025,0.356,0.076
			s0.093,0.139,0.093,0.266c0,0.078-0.018,0.146-0.054,0.203s-0.082,0.092-0.137,0.105c-0.055,0.016-0.12,0.027-0.193,0.033
			c-0.073,0.007-0.162,0.01-0.266,0.01H27.1l0.84,2.93l0.63-2.129c0.036-0.123,0.086-0.209,0.151-0.258s0.161-0.074,0.288-0.074
			c0.117,0,0.209,0.032,0.276,0.096s0.126,0.175,0.178,0.334l0.61,2.031l0.806-2.93h-0.117h-0.21c-0.225,0-0.376-0.025-0.454-0.075
			s-0.117-0.143-0.117-0.276c0-0.13,0.029-0.219,0.088-0.268s0.172-0.074,0.342-0.074h1.309c0.101,0,0.177,0.029,0.227,0.088
			s0.076,0.144,0.076,0.254c0,0.124-0.029,0.212-0.088,0.264c-0.059,0.053-0.169,0.082-0.332,0.088l-1.099,3.658
			c-0.042,0.123-0.095,0.209-0.159,0.258s-0.159,0.074-0.286,0.074c-0.117,0-0.21-0.032-0.278-0.096s-0.125-0.175-0.171-0.334
			L28.97,100.189z"/>
	</g>
	<g>
		<path d="M18.541,109.291c0.033-0.088,0.078-0.15,0.137-0.186c0.059-0.036,0.143-0.055,0.254-0.055
			c0.121,0,0.205,0.029,0.254,0.088s0.073,0.18,0.073,0.361c0,0.319,0.003,0.617,0.01,0.892s0.01,0.395,0.01,0.358
			c0,0.153-0.026,0.257-0.078,0.311s-0.145,0.08-0.278,0.08c-0.215,0-0.355-0.152-0.42-0.459c-0.023-0.091-0.041-0.16-0.054-0.209
			c-0.062-0.244-0.21-0.443-0.444-0.599s-0.509-0.231-0.825-0.231c-0.576,0-1.039,0.211-1.387,0.632s-0.522,0.987-0.522,1.696
			c0,0.71,0.177,1.275,0.53,1.697s0.819,0.633,1.399,0.633c0.189,0,0.381-0.027,0.576-0.081s0.387-0.134,0.576-0.241
			c0.088-0.046,0.208-0.123,0.361-0.232s0.262-0.164,0.327-0.164c0.101,0,0.187,0.033,0.256,0.101s0.105,0.149,0.105,0.247
			s-0.038,0.191-0.115,0.28s-0.219,0.199-0.427,0.329c-0.273,0.18-0.548,0.312-0.825,0.396c-0.277,0.084-0.568,0.127-0.874,0.127
			c-0.804,0-1.468-0.285-1.992-0.853s-0.786-1.295-0.786-2.181c0-0.875,0.265-1.603,0.796-2.182c0.531-0.58,1.198-0.869,2.002-0.869
			c0.215,0,0.434,0.025,0.657,0.078C18.058,109.108,18.293,109.186,18.541,109.291z"/>
		<path d="M25.562,112.67c0,0.696-0.238,1.266-0.713,1.709c-0.475,0.442-1.092,0.664-1.851,0.664c-0.755,0-1.371-0.222-1.846-0.664
			c-0.475-0.443-0.713-1.013-0.713-1.709c0-0.697,0.238-1.266,0.713-1.707s1.09-0.662,1.846-0.662s1.371,0.222,1.848,0.664
			C25.324,111.408,25.562,111.976,25.562,112.67z M22.999,114.359c0.501,0,0.912-0.159,1.233-0.477s0.481-0.722,0.481-1.213
			c0-0.492-0.161-0.898-0.483-1.219s-0.732-0.48-1.23-0.48s-0.907,0.16-1.228,0.48s-0.481,0.727-0.481,1.219
			c0,0.494,0.16,0.899,0.479,1.215C22.087,114.201,22.497,114.359,22.999,114.359z"/>
		<path d="M28.673,109.232h-0.83c-0.316,0-0.514-0.025-0.593-0.076s-0.12-0.143-0.12-0.275c0-0.117,0.033-0.205,0.1-0.264
			s0.164-0.088,0.291-0.088h1.611c0.088,0,0.156,0.018,0.205,0.053c0.049,0.036,0.073,0.085,0.073,0.146v5.504h1.533
			c0.124,0,0.214,0.026,0.271,0.08s0.085,0.139,0.085,0.256c0,0.134-0.028,0.227-0.083,0.276s-0.16,0.075-0.312,0.075h-3.604
			c-0.127,0-0.224-0.029-0.291-0.088s-0.1-0.146-0.1-0.264c0-0.113,0.034-0.198,0.103-0.254c0.068-0.055,0.171-0.082,0.308-0.082
			h1.353V109.232z"/>
	</g>
	<g>
		<path d="M15.831,140.17h-0.771h-0.22c-0.121,0-0.211-0.029-0.271-0.088s-0.09-0.146-0.09-0.264c0-0.127,0.035-0.215,0.105-0.264
			s0.203-0.072,0.398-0.072h0.088v-4.4h-0.078c-0.195,0-0.33-0.025-0.403-0.078c-0.073-0.052-0.11-0.143-0.11-0.273
			c0-0.12,0.03-0.209,0.09-0.266s0.154-0.086,0.281-0.086h0.21h0.771h1.079c0.811,0,1.457,0.262,1.938,0.784
			s0.723,1.228,0.723,2.116c0,0.434-0.069,0.836-0.208,1.207s-0.339,0.696-0.603,0.977c-0.244,0.254-0.541,0.438-0.891,0.554
			s-0.8,0.173-1.35,0.173c-0.065,0-0.175-0.003-0.33-0.01C16.035,140.174,15.915,140.17,15.831,140.17z M15.831,139.482
			c0.104,0.01,0.208,0.017,0.31,0.021s0.203,0.008,0.3,0.008c0.801,0,1.388-0.18,1.76-0.537c0.373-0.358,0.559-0.924,0.559-1.695
			c0-0.774-0.187-1.338-0.562-1.691s-0.973-0.529-1.797-0.529c-0.153,0-0.27,0.001-0.349,0.004c-0.08,0.004-0.154,0.01-0.222,0.02
			V139.482z"/>
		<path d="M22.52,139.482h1.621c0.127,0,0.221,0.026,0.281,0.08s0.09,0.139,0.09,0.256c0,0.134-0.028,0.227-0.085,0.276
			s-0.162,0.075-0.315,0.075h-3.193c-0.127,0-0.223-0.029-0.288-0.088s-0.098-0.146-0.098-0.264c0-0.113,0.033-0.198,0.1-0.254
			c0.067-0.055,0.17-0.082,0.31-0.082h0.85v-3.131h-0.332c-0.316,0-0.513-0.025-0.591-0.075s-0.117-0.143-0.117-0.276
			c0-0.113,0.032-0.199,0.095-0.256s0.16-0.086,0.291-0.086h1.113c0.088,0,0.155,0.018,0.2,0.052s0.068,0.084,0.068,0.149v0.83
			c0.309-0.388,0.631-0.676,0.967-0.865c0.335-0.188,0.697-0.283,1.084-0.283c0.29,0,0.524,0.059,0.703,0.176
			s0.269,0.27,0.269,0.455c0,0.12-0.045,0.227-0.134,0.319s-0.188,0.14-0.295,0.14c-0.075,0-0.201-0.051-0.378-0.149
			s-0.336-0.149-0.476-0.149c-0.254,0-0.521,0.091-0.803,0.271s-0.593,0.467-0.935,0.857V139.482z"/>
		<path d="M30.123,139.551c-0.267,0.24-0.558,0.424-0.872,0.551s-0.637,0.191-0.969,0.191c-0.485,0-0.876-0.136-1.174-0.406
			c-0.298-0.27-0.447-0.621-0.447-1.055c0-0.514,0.198-0.912,0.593-1.195s0.951-0.426,1.667-0.426c0.189,0,0.379,0.013,0.571,0.037
			s0.389,0.062,0.591,0.115v-0.035c0-0.374-0.089-0.65-0.269-0.83c-0.179-0.179-0.458-0.268-0.835-0.268
			c-0.254,0-0.537,0.068-0.85,0.205s-0.519,0.205-0.62,0.205c-0.094,0-0.172-0.039-0.234-0.115s-0.093-0.175-0.093-0.295
			c0-0.192,0.18-0.355,0.54-0.488c0.36-0.134,0.819-0.201,1.379-0.201c0.573,0,1.006,0.146,1.299,0.438s0.439,0.722,0.439,1.291
			v2.213h0.239c0.231,0,0.386,0.023,0.464,0.072s0.117,0.137,0.117,0.264c0,0.117-0.033,0.205-0.098,0.264s-0.163,0.088-0.293,0.088
			h-0.767c-0.091,0-0.166-0.027-0.225-0.082c-0.059-0.056-0.098-0.136-0.117-0.24L30.123,139.551z M30.084,138.011
			c-0.179-0.059-0.353-0.102-0.52-0.129s-0.334-0.041-0.5-0.041c-0.501,0-0.897,0.084-1.187,0.254
			c-0.29,0.169-0.435,0.396-0.435,0.684c0,0.221,0.09,0.403,0.271,0.547c0.181,0.143,0.411,0.215,0.691,0.215
			c0.414,0,0.797-0.109,1.15-0.325s0.53-0.442,0.53-0.677V138.011z"/>
		<path d="M34.971,137.689l-0.63,2.32c-0.033,0.123-0.082,0.209-0.146,0.258s-0.163,0.074-0.293,0.074
			c-0.117,0-0.208-0.031-0.273-0.094c-0.065-0.062-0.124-0.174-0.176-0.336l-1.118-3.561h-0.044c-0.137,0-0.235-0.026-0.295-0.08
			s-0.09-0.145-0.09-0.271c0-0.11,0.032-0.195,0.095-0.254s0.157-0.088,0.281-0.088h1.304c0.176,0,0.294,0.025,0.356,0.076
			s0.093,0.139,0.093,0.266c0,0.078-0.018,0.146-0.054,0.203s-0.082,0.092-0.137,0.105c-0.055,0.016-0.12,0.027-0.193,0.033
			c-0.073,0.007-0.162,0.01-0.266,0.01h-0.283l0.84,2.93l0.63-2.129c0.036-0.123,0.086-0.209,0.151-0.258s0.161-0.074,0.288-0.074
			c0.117,0,0.209,0.032,0.276,0.096s0.126,0.175,0.178,0.334l0.61,2.031l0.806-2.93h-0.117h-0.21c-0.225,0-0.376-0.025-0.454-0.075
			s-0.117-0.143-0.117-0.276c0-0.13,0.029-0.219,0.088-0.268s0.172-0.074,0.342-0.074h1.309c0.101,0,0.177,0.029,0.227,0.088
			s0.076,0.144,0.076,0.254c0,0.124-0.029,0.212-0.088,0.264c-0.059,0.053-0.169,0.082-0.332,0.088l-1.099,3.658
			c-0.042,0.123-0.095,0.209-0.159,0.258s-0.159,0.074-0.286,0.074c-0.117,0-0.21-0.032-0.278-0.096s-0.125-0.175-0.171-0.334
			L34.971,137.689z"/>
	</g>
</g>
</svg>
