<?xml version="1.0" encoding="utf-8"?>
<!-- Generator: Adobe Illustrator 16.0.0, SVG Export Plug-In . SVG Version: 6.00 Build 0)  -->
<!DOCTYPE svg PUBLIC "-//W3C//DTD SVG 1.1//EN" "http://www.w3.org/Graphics/SVG/1.1/DTD/svg11.dtd">
<svg version="1.1" id="Layer_1" xmlns="http://www.w3.org/2000/svg" xmlns:xlink="http://www.w3.org/1999/xlink" x="0px" y="0px"
	 width="233.884px" height="311.363px" viewBox="0 0 233.884 311.363" enable-background="new 0 0 233.884 311.363"
	 xml:space="preserve">
<g>
	<g>
		<path fill="#0A69A9" d="M233.884,299.545c0,6.523-5.293,11.818-11.822,11.818H12.034c-6.528,0-11.821-5.295-11.821-11.818V11.822
			C0.212,5.292,5.505,0,12.034,0h210.03c6.527,0,11.82,5.292,11.82,11.822V299.545L233.884,299.545z"/>
		<rect x="216.378" y="14.365" fill="#314848" width="17.506" height="285.384"/>
		<g>
			<path fill="#FFFFFF" d="M197.335,21.908v9.141h1.686c0.4,0,0.688,0.078,0.855,0.229c0.174,0.157,0.26,0.357,0.26,0.611
				c0,0.243-0.086,0.442-0.26,0.597c-0.168,0.155-0.455,0.23-0.855,0.23h-5.043c-0.4,0-0.689-0.078-0.859-0.23
				c-0.172-0.154-0.256-0.355-0.256-0.605c0-0.245,0.084-0.445,0.256-0.603c0.17-0.153,0.459-0.229,0.859-0.229h1.688v-6.965
				l-1.492,0.391c-0.238,0.064-0.418,0.098-0.539,0.098c-0.213,0-0.396-0.084-0.549-0.254c-0.154-0.165-0.23-0.375-0.23-0.619
				c0-0.221,0.055-0.396,0.172-0.523c0.113-0.127,0.352-0.24,0.715-0.338L197.335,21.908z"/>
			<path fill="#FFFFFF" d="M208.874,27.139c0.496,0.338,0.863,0.729,1.107,1.17c0.244,0.438,0.365,0.936,0.365,1.484
				c0,0.593-0.158,1.139-0.484,1.643c-0.324,0.502-0.789,0.883-1.406,1.141c-0.611,0.258-1.416,0.387-2.41,0.387
				c-1.293,0-2.266-0.201-2.916-0.605c-0.365-0.225-0.543-0.5-0.543-0.816c0-0.238,0.078-0.438,0.238-0.607
				c0.158-0.164,0.354-0.246,0.582-0.246c0.154,0,0.318,0.056,0.486,0.162c0.238,0.16,0.467,0.271,0.68,0.326
				c0.328,0.076,0.773,0.115,1.344,0.115c0.969,0,1.674-0.123,2.105-0.381c0.434-0.253,0.65-0.604,0.65-1.066
				c0-0.342-0.123-0.676-0.377-0.99c-0.254-0.318-0.59-0.564-1.014-0.74c-0.244-0.098-0.66-0.167-1.238-0.202
				c-0.275-0.019-0.49-0.103-0.641-0.261c-0.15-0.152-0.225-0.346-0.225-0.57c0-0.24,0.082-0.438,0.244-0.604
				c0.16-0.164,0.369-0.244,0.619-0.244c0.553,0,0.85-0.002,0.887-0.01c0.219-0.023,0.434-0.092,0.648-0.211
				c0.221-0.123,0.395-0.285,0.527-0.492c0.133-0.211,0.197-0.428,0.197-0.65c0-0.35-0.156-0.657-0.469-0.918
				c-0.312-0.255-0.781-0.385-1.406-0.385c-0.805,0-1.416,0.234-1.84,0.699c-0.123,0.137-0.227,0.227-0.303,0.262
				c-0.113,0.062-0.238,0.086-0.381,0.086c-0.227,0-0.424-0.08-0.586-0.243c-0.16-0.161-0.244-0.364-0.244-0.601
				c0-0.378,0.25-0.74,0.748-1.092c0.727-0.516,1.637-0.779,2.729-0.779c1.029,0,1.857,0.297,2.484,0.883
				c0.625,0.586,0.938,1.295,0.938,2.119c0,0.428-0.092,0.828-0.279,1.197C209.519,26.477,209.243,26.824,208.874,27.139z"/>
			<path fill="#FFFFFF" d="M197.335,41.927v9.14h1.686c0.4,0,0.688,0.08,0.855,0.232c0.174,0.154,0.26,0.354,0.26,0.604
				c0,0.246-0.086,0.445-0.26,0.603c-0.168,0.153-0.455,0.229-0.855,0.229h-5.043c-0.4,0-0.689-0.078-0.859-0.229
				c-0.172-0.157-0.256-0.359-0.256-0.608c0-0.244,0.084-0.443,0.256-0.598c0.17-0.157,0.459-0.232,0.859-0.232h1.688v-6.965
				l-1.492,0.391c-0.238,0.065-0.418,0.096-0.539,0.096c-0.213,0-0.396-0.083-0.549-0.252c-0.154-0.166-0.23-0.373-0.23-0.619
				c0-0.221,0.055-0.396,0.172-0.523c0.113-0.129,0.352-0.24,0.715-0.336L197.335,41.927z"/>
			<path fill="#FFFFFF" d="M204.933,51.066h3.658c0.199-0.16,0.391-0.242,0.57-0.242c0.258,0,0.459,0.082,0.609,0.254
				c0.148,0.164,0.225,0.451,0.225,0.858v0.8h-7.609v-1.768c3.006-2.482,4.824-4.08,5.447-4.789
				c0.316-0.365,0.473-0.711,0.473-1.033c0-0.406-0.178-0.766-0.533-1.077c-0.357-0.315-0.83-0.472-1.424-0.472
				c-0.598,0-1.092,0.176-1.488,0.522c-0.207,0.185-0.371,0.462-0.496,0.821c-0.08,0.23-0.184,0.393-0.316,0.49
				c-0.131,0.096-0.297,0.148-0.492,0.148c-0.227,0-0.426-0.086-0.59-0.246c-0.166-0.162-0.25-0.354-0.25-0.574
				c0-0.324,0.152-0.73,0.451-1.219c0.301-0.492,0.742-0.881,1.32-1.17c0.578-0.296,1.205-0.443,1.889-0.443
				c1.051,0,1.914,0.32,2.586,0.959c0.674,0.638,1.01,1.408,1.01,2.316c0,0.461-0.094,0.885-0.289,1.281
				c-0.191,0.395-0.654,0.939-1.389,1.633C207.722,48.667,206.601,49.648,204.933,51.066z"/>
			<path fill="#FFFFFF" d="M189.618,66.815c0.242,0,0.441,0.081,0.605,0.245c0.164,0.162,0.246,0.357,0.246,0.582
				c0,0.233-0.123,0.498-0.365,0.784c-0.369,0.428-0.678,0.733-0.93,0.911c-0.367,0.273-0.764,0.408-1.18,0.408
				c-0.316,0-0.629-0.078-0.938-0.235c-0.311-0.157-0.695-0.457-1.162-0.901c-0.465-0.438-0.762-0.662-0.891-0.662
				c-0.064,0-0.127,0.022-0.188,0.064c-0.123,0.076-0.314,0.264-0.584,0.562c-0.268,0.299-0.457,0.479-0.564,0.543
				c-0.109,0.061-0.219,0.092-0.328,0.092c-0.227,0-0.428-0.086-0.598-0.256c-0.172-0.168-0.258-0.361-0.258-0.588
				c0-0.326,0.281-0.761,0.846-1.293c0.566-0.533,1.119-0.798,1.662-0.798c0.297,0,0.605,0.078,0.922,0.233
				c0.314,0.152,0.73,0.484,1.244,0.994c0.266,0.268,0.463,0.436,0.586,0.506c0.084,0.042,0.156,0.064,0.223,0.064
				c0.076,0,0.145-0.022,0.201-0.064c0.139-0.097,0.355-0.314,0.654-0.67c0.188-0.227,0.334-0.373,0.441-0.435
				C189.37,66.842,189.489,66.815,189.618,66.815z"/>
			<path fill="#FFFFFF" d="M197.335,61.945v9.138h1.686c0.4,0,0.688,0.077,0.855,0.229c0.174,0.158,0.26,0.36,0.26,0.611
				c0,0.244-0.086,0.44-0.26,0.597c-0.168,0.156-0.455,0.23-0.855,0.23h-5.043c-0.4,0-0.689-0.076-0.859-0.23
				c-0.172-0.154-0.256-0.354-0.256-0.604c0-0.245,0.084-0.445,0.256-0.604c0.17-0.153,0.459-0.229,0.859-0.229h1.688v-6.966
				l-1.492,0.393c-0.238,0.066-0.418,0.098-0.539,0.098c-0.213,0-0.396-0.084-0.549-0.252c-0.154-0.17-0.23-0.377-0.23-0.623
				c0-0.22,0.055-0.395,0.172-0.523c0.113-0.126,0.352-0.24,0.715-0.338L197.335,61.945z"/>
			<path fill="#FFFFFF" d="M207.343,61.945v9.138h1.686c0.402,0,0.689,0.077,0.859,0.229c0.172,0.158,0.26,0.36,0.26,0.611
				c0,0.244-0.088,0.44-0.26,0.597c-0.17,0.156-0.457,0.23-0.859,0.23h-5.041c-0.4,0-0.688-0.076-0.859-0.23
				c-0.17-0.154-0.256-0.354-0.256-0.604c0-0.245,0.086-0.445,0.256-0.604c0.172-0.153,0.459-0.229,0.859-0.229h1.686v-6.966
				l-1.49,0.393c-0.236,0.066-0.418,0.098-0.539,0.098c-0.211,0-0.395-0.084-0.549-0.252c-0.154-0.17-0.23-0.377-0.23-0.623
				c0-0.22,0.055-0.395,0.172-0.523c0.113-0.126,0.354-0.24,0.715-0.338L207.343,61.945z"/>
			<path fill="#FFFFFF" d="M189.618,86.832c0.242,0,0.441,0.082,0.605,0.244c0.164,0.164,0.246,0.357,0.246,0.584
				c0,0.234-0.123,0.497-0.365,0.783c-0.369,0.432-0.678,0.734-0.93,0.912c-0.367,0.271-0.764,0.41-1.18,0.41
				c-0.316,0-0.629-0.08-0.938-0.236c-0.311-0.16-0.695-0.461-1.162-0.9c-0.465-0.443-0.762-0.666-0.891-0.666
				c-0.064,0-0.127,0.021-0.188,0.064c-0.123,0.077-0.314,0.266-0.584,0.562c-0.268,0.301-0.457,0.479-0.564,0.539
				c-0.109,0.064-0.219,0.096-0.328,0.096c-0.227,0-0.428-0.086-0.598-0.254c-0.172-0.168-0.258-0.363-0.258-0.586
				c0-0.33,0.281-0.764,0.846-1.297c0.566-0.53,1.119-0.799,1.662-0.799c0.297,0,0.605,0.078,0.922,0.232
				c0.314,0.156,0.73,0.49,1.244,0.999c0.266,0.262,0.463,0.433,0.586,0.501c0.084,0.047,0.156,0.067,0.223,0.067
				c0.076,0,0.145-0.021,0.201-0.067c0.139-0.09,0.355-0.314,0.654-0.666c0.188-0.229,0.334-0.375,0.441-0.436
				C189.372,86.863,189.489,86.832,189.618,86.832z"/>
			<path fill="#FFFFFF" d="M197.335,81.961v9.141h1.686c0.4,0,0.688,0.08,0.855,0.229c0.174,0.158,0.26,0.359,0.26,0.609
				c0,0.244-0.086,0.441-0.26,0.599c-0.168,0.153-0.455,0.235-0.855,0.235h-5.043c-0.4,0-0.689-0.084-0.859-0.235
				c-0.172-0.156-0.256-0.354-0.256-0.608c0-0.246,0.084-0.441,0.256-0.6c0.17-0.154,0.459-0.23,0.859-0.23h1.688v-6.967
				l-1.492,0.391c-0.238,0.067-0.418,0.102-0.539,0.102c-0.213,0-0.396-0.087-0.549-0.254c-0.154-0.167-0.23-0.374-0.23-0.619
				c0-0.223,0.055-0.394,0.172-0.525c0.113-0.129,0.352-0.24,0.715-0.336L197.335,81.961z"/>
			<path fill="#FFFFFF" d="M210.136,86.57v1.832c0,1.088-0.311,2.127-0.938,3.122c-0.627,0.989-1.525,1.489-2.695,1.489
				c-0.676,0-1.242-0.151-1.705-0.443c-0.467-0.295-0.906-0.846-1.32-1.641c-0.416-0.793-0.623-1.639-0.623-2.527V86.57
				c0-1.08,0.311-2.118,0.938-3.114c0.625-0.993,1.52-1.495,2.688-1.495c0.668,0,1.234,0.146,1.699,0.441s0.906,0.834,1.326,1.633
				C209.927,84.826,210.136,85.675,210.136,86.57z M208.458,86.57c0-0.905-0.252-1.699-0.754-2.377
				c-0.289-0.375-0.691-0.564-1.213-0.564c-0.506,0-0.92,0.205-1.238,0.619c-0.482,0.623-0.723,1.398-0.723,2.322v1.831
				c0,0.913,0.256,1.706,0.766,2.38c0.281,0.375,0.686,0.561,1.215,0.561c0.498,0,0.908-0.203,1.229-0.615
				c0.484-0.625,0.725-1.398,0.725-2.324L208.458,86.57L208.458,86.57z"/>
			<path fill="#FFFFFF" d="M199.63,106.851c0.24,0,0.439,0.079,0.605,0.244c0.162,0.157,0.244,0.356,0.244,0.586
				c0,0.231-0.121,0.493-0.365,0.782c-0.369,0.43-0.676,0.73-0.928,0.913c-0.367,0.269-0.764,0.405-1.184,0.405
				c-0.314,0-0.625-0.078-0.936-0.234c-0.309-0.158-0.697-0.46-1.16-0.9c-0.465-0.441-0.762-0.666-0.893-0.666
				c-0.064,0-0.125,0.022-0.189,0.066c-0.119,0.074-0.311,0.263-0.58,0.562c-0.268,0.299-0.459,0.478-0.566,0.541
				c-0.109,0.062-0.219,0.094-0.326,0.094c-0.227,0-0.43-0.088-0.6-0.254c-0.172-0.166-0.26-0.366-0.26-0.586
				c0-0.332,0.285-0.76,0.85-1.297c0.564-0.531,1.119-0.799,1.662-0.799c0.297,0,0.604,0.077,0.92,0.234
				c0.314,0.152,0.729,0.484,1.242,0.994c0.268,0.265,0.465,0.434,0.588,0.504c0.082,0.043,0.158,0.066,0.223,0.066
				c0.076,0,0.145-0.023,0.201-0.066c0.137-0.09,0.354-0.312,0.652-0.668c0.189-0.227,0.336-0.373,0.441-0.435
				C199.382,106.879,199.499,106.851,199.63,106.851z"/>
			<path fill="#FFFFFF" d="M208.845,108.405c-0.422,0.36-0.803,0.61-1.15,0.761c-0.348,0.152-0.713,0.227-1.098,0.227
				c-0.896,0-1.682-0.359-2.35-1.076c-0.67-0.719-1.004-1.606-1.004-2.67c0-0.832,0.229-1.586,0.689-2.266
				c0.629-0.937,1.518-1.399,2.664-1.399c0.818,0,1.535,0.244,2.148,0.735c0.613,0.49,1.064,1.199,1.354,2.129
				c0.287,0.922,0.43,1.889,0.43,2.893c0,1.701-0.658,3.076-1.977,4.109c-1.023,0.79-2.139,1.184-3.355,1.184
				c-0.674,0-1.195-0.131-1.562-0.402c-0.252-0.182-0.373-0.416-0.373-0.711c0-0.234,0.078-0.436,0.238-0.598
				c0.16-0.16,0.357-0.24,0.588-0.24c0.131,0,0.279,0.039,0.441,0.119c0.213,0.111,0.434,0.16,0.668,0.16
				c0.842,0,1.617-0.285,2.33-0.855C208.237,109.932,208.673,109.228,208.845,108.405z M208.606,105.774
				c-0.182-0.772-0.443-1.319-0.793-1.642c-0.35-0.324-0.75-0.484-1.201-0.484c-0.471,0-0.873,0.178-1.203,0.537
				c-0.332,0.363-0.5,0.845-0.5,1.44c0,0.624,0.168,1.13,0.504,1.514c0.332,0.386,0.713,0.579,1.143,0.579
				C207.31,107.721,207.991,107.074,208.606,105.774z"/>
			<path fill="#FFFFFF" d="M208.858,127.469c0.43,0.33,0.752,0.707,0.965,1.129c0.215,0.422,0.324,0.885,0.324,1.393
				c0,0.557-0.139,1.067-0.412,1.541c-0.275,0.47-0.707,0.842-1.291,1.111c-0.588,0.27-1.238,0.409-1.957,0.409
				c-0.717,0-1.363-0.14-1.938-0.409c-0.576-0.27-0.998-0.642-1.273-1.113c-0.273-0.475-0.412-0.988-0.412-1.539
				c0-0.508,0.107-0.971,0.324-1.393c0.215-0.422,0.537-0.795,0.963-1.129c-0.373-0.346-0.658-0.717-0.846-1.105
				c-0.191-0.392-0.287-0.809-0.287-1.24c0-0.85,0.328-1.582,0.979-2.203c0.65-0.617,1.486-0.922,2.508-0.922
				c1.023,0,1.859,0.307,2.51,0.922c0.65,0.619,0.979,1.352,0.979,2.203c0,0.441-0.094,0.855-0.281,1.248
				C209.522,126.76,209.239,127.126,208.858,127.469z M208.476,130.07c0-0.443-0.191-0.839-0.566-1.198
				c-0.375-0.354-0.846-0.533-1.406-0.533s-1.027,0.179-1.408,0.533c-0.377,0.359-0.566,0.759-0.566,1.208
				c0,0.348,0.162,0.65,0.49,0.908c0.326,0.263,0.818,0.391,1.48,0.391c0.668,0,1.164-0.128,1.486-0.391
				C208.312,130.734,208.476,130.426,208.476,130.07z M208.28,125.156c0-0.412-0.16-0.766-0.482-1.055
				c-0.326-0.29-0.76-0.438-1.307-0.438c-0.555,0-0.99,0.148-1.316,0.438c-0.324,0.289-0.484,0.641-0.484,1.055
				c0,0.418,0.16,0.775,0.484,1.061c0.326,0.293,0.762,0.436,1.316,0.436c0.547,0,0.984-0.143,1.307-0.436
				C208.118,125.932,208.28,125.574,208.28,125.156z"/>
		</g>
		<g>
			<path fill="#FFFFFF" d="M208.214,146.791h-3.818c-0.02,0.328-0.105,0.562-0.252,0.707c-0.148,0.146-0.34,0.216-0.578,0.216
				c-0.25,0-0.451-0.088-0.607-0.255c-0.156-0.165-0.23-0.453-0.23-0.852v-1.481h7.248v1.668l-2.703,8.05
				c-0.115,0.336-0.24,0.562-0.379,0.672c-0.139,0.11-0.305,0.164-0.504,0.164c-0.232,0-0.436-0.08-0.598-0.244
				c-0.164-0.156-0.25-0.348-0.25-0.561c0-0.123,0.043-0.311,0.131-0.572L208.214,146.791z"/>
			<path fill="#FFFFFF" d="M199.63,169.745c0.24,0,0.439,0.081,0.605,0.243c0.162,0.16,0.244,0.36,0.244,0.587
				c0,0.229-0.121,0.495-0.365,0.782c-0.369,0.428-0.676,0.731-0.928,0.914c-0.367,0.268-0.764,0.403-1.184,0.403
				c-0.314,0-0.625-0.079-0.936-0.236c-0.309-0.158-0.697-0.46-1.16-0.899c-0.465-0.439-0.762-0.667-0.893-0.667
				c-0.064,0-0.125,0.026-0.189,0.067c-0.119,0.074-0.311,0.264-0.58,0.562c-0.268,0.299-0.459,0.477-0.566,0.542
				c-0.109,0.062-0.219,0.091-0.326,0.091c-0.227,0-0.43-0.084-0.6-0.254c-0.172-0.166-0.26-0.36-0.26-0.584
				c0-0.328,0.285-0.762,0.85-1.297c0.564-0.533,1.119-0.798,1.662-0.798c0.297,0,0.604,0.075,0.92,0.233
				c0.314,0.152,0.729,0.485,1.242,0.992c0.268,0.27,0.465,0.436,0.588,0.506c0.082,0.043,0.158,0.066,0.223,0.066
				c0.076,0,0.145-0.023,0.201-0.066c0.137-0.092,0.354-0.313,0.652-0.666c0.189-0.229,0.336-0.375,0.441-0.438
				C199.38,169.768,199.499,169.745,199.63,169.745z"/>
			<path fill="#FFFFFF" d="M204.923,169.975c0.4-0.332,0.785-0.578,1.15-0.736c0.367-0.152,0.75-0.228,1.164-0.228
				c0.875,0,1.641,0.345,2.297,1.044c0.658,0.693,0.988,1.566,0.988,2.611c0,0.973-0.305,1.758-0.918,2.359
				c-0.609,0.604-1.441,0.9-2.486,0.9c-0.877,0-1.596-0.205-2.16-0.611s-0.99-1.031-1.277-1.88
				c-0.289-0.849-0.434-1.791-0.434-2.835c0-1.248,0.287-2.288,0.854-3.113c0.57-0.827,1.24-1.473,2.012-1.929
				s1.586-0.683,2.445-0.683c0.676,0,1.205,0.132,1.58,0.4c0.246,0.178,0.365,0.402,0.365,0.682c0,0.242-0.08,0.449-0.244,0.613
				c-0.164,0.166-0.359,0.248-0.586,0.248c-0.129,0-0.316-0.064-0.561-0.193c-0.148-0.079-0.289-0.115-0.426-0.115
				c-0.531,0-1.082,0.154-1.652,0.455c-0.568,0.298-1.062,0.762-1.48,1.385C205.267,168.784,205.058,169.326,204.923,169.975z
				 M205.169,172.561c0.174,0.65,0.408,1.096,0.705,1.337s0.717,0.359,1.268,0.359s0.971-0.144,1.268-0.428
				c0.297-0.294,0.443-0.683,0.443-1.175c0-0.568-0.168-1.035-0.508-1.408c-0.34-0.377-0.719-0.565-1.145-0.565
				c-0.334,0-0.695,0.165-1.078,0.499C205.735,171.511,205.419,171.969,205.169,172.561z"/>
			<path fill="#FFFFFF" d="M199.63,189.762c0.24,0,0.439,0.083,0.605,0.242c0.162,0.164,0.244,0.361,0.244,0.586
				c0,0.232-0.121,0.498-0.365,0.784c-0.369,0.429-0.676,0.733-0.928,0.913c-0.367,0.27-0.764,0.404-1.184,0.404
				c-0.314,0-0.625-0.076-0.936-0.234c-0.309-0.156-0.697-0.461-1.16-0.9c-0.465-0.439-0.762-0.664-0.893-0.664
				c-0.064,0-0.125,0.019-0.189,0.066c-0.119,0.074-0.311,0.262-0.58,0.561c-0.268,0.302-0.459,0.477-0.566,0.545
				c-0.109,0.059-0.219,0.086-0.326,0.086c-0.227,0-0.43-0.082-0.6-0.25c-0.172-0.167-0.26-0.367-0.26-0.588
				c0-0.331,0.285-0.76,0.85-1.293c0.564-0.537,1.119-0.801,1.662-0.801c0.297,0,0.604,0.08,0.92,0.232
				c0.314,0.154,0.729,0.486,1.242,0.995c0.268,0.269,0.465,0.437,0.588,0.503c0.082,0.049,0.158,0.067,0.223,0.067
				c0.076,0,0.145-0.019,0.201-0.067c0.137-0.091,0.354-0.312,0.652-0.668c0.189-0.227,0.336-0.369,0.441-0.434
				C199.38,189.784,199.499,189.762,199.63,189.762z"/>
			<path fill="#FFFFFF" d="M205.085,186.828v1.986c0.621-0.194,1.184-0.295,1.689-0.295c1.023,0,1.879,0.352,2.557,1.053
				c0.676,0.699,1.018,1.604,1.018,2.713c0,1.137-0.342,2.033-1.029,2.684c-0.688,0.646-1.74,0.975-3.154,0.975
				c-1.25,0-2.24-0.233-2.967-0.711c-0.424-0.272-0.637-0.584-0.637-0.937c0-0.224,0.086-0.415,0.25-0.585
				c0.164-0.159,0.363-0.248,0.592-0.248c0.188,0,0.396,0.092,0.617,0.273c0.223,0.183,0.455,0.311,0.699,0.383
				c0.348,0.098,0.793,0.15,1.338,0.15c1.012,0,1.699-0.154,2.068-0.486c0.367-0.322,0.555-0.812,0.555-1.48
				c0-0.657-0.18-1.172-0.535-1.547c-0.357-0.375-0.812-0.562-1.373-0.562c-0.604,0-1.289,0.197-2.061,0.589
				c-0.176,0.089-0.328,0.139-0.455,0.139c-0.242,0-0.439-0.088-0.602-0.263c-0.162-0.172-0.24-0.4-0.24-0.674v-4.825h5.105
				c0.402,0,0.689,0.078,0.861,0.231c0.168,0.156,0.254,0.357,0.254,0.613c0,0.238-0.086,0.439-0.254,0.596
				c-0.172,0.154-0.459,0.23-0.861,0.23L205.085,186.828L205.085,186.828z"/>
			<path fill="#FFFFFF" d="M208.94,205.176v6.531c0.354,0,0.613,0.076,0.781,0.232c0.168,0.155,0.254,0.355,0.254,0.6
				s-0.086,0.441-0.256,0.602c-0.172,0.162-0.434,0.24-0.779,0.24v0.663c0.352,0,0.609,0.083,0.781,0.236
				c0.168,0.161,0.252,0.36,0.252,0.604c0,0.245-0.086,0.444-0.256,0.603c-0.172,0.152-0.459,0.229-0.859,0.229h-2.242
				c-0.398,0-0.688-0.076-0.859-0.229c-0.17-0.158-0.256-0.359-0.256-0.61c0-0.245,0.086-0.444,0.256-0.596
				c0.172-0.157,0.461-0.235,0.859-0.235h0.65v-0.664h-4.535v-1.395l3.998-6.809L208.94,205.176L208.94,205.176z M207.271,211.707
				v-4.104l-2.418,4.104H207.271z"/>
			<path fill="#FFFFFF" d="M199.63,229.795c0.24,0,0.439,0.083,0.605,0.246c0.162,0.16,0.244,0.359,0.244,0.584
				c0,0.23-0.121,0.496-0.365,0.783c-0.369,0.428-0.676,0.734-0.928,0.912c-0.367,0.271-0.764,0.406-1.184,0.406
				c-0.314,0-0.625-0.076-0.936-0.234c-0.309-0.158-0.697-0.457-1.16-0.9c-0.465-0.441-0.762-0.665-0.893-0.665
				c-0.064,0-0.125,0.019-0.189,0.065c-0.119,0.076-0.311,0.264-0.58,0.562c-0.268,0.3-0.459,0.48-0.566,0.543
				c-0.109,0.061-0.219,0.089-0.326,0.089c-0.227,0-0.43-0.085-0.6-0.253c-0.172-0.166-0.26-0.363-0.26-0.59
				c0-0.326,0.285-0.76,0.85-1.291c0.564-0.535,1.119-0.797,1.662-0.797c0.297,0,0.604,0.076,0.92,0.232
				c0.314,0.152,0.729,0.486,1.242,0.993c0.268,0.267,0.465,0.435,0.588,0.505c0.082,0.045,0.158,0.066,0.223,0.066
				c0.076,0,0.145-0.021,0.201-0.066c0.137-0.094,0.354-0.313,0.652-0.664c0.189-0.232,0.336-0.377,0.441-0.441
				C199.38,229.818,199.499,229.795,199.63,229.795z"/>
			<path fill="#FFFFFF" d="M208.874,230.156c0.496,0.334,0.863,0.725,1.107,1.16c0.244,0.445,0.365,0.938,0.365,1.489
				c0,0.587-0.158,1.137-0.484,1.64c-0.324,0.505-0.789,0.887-1.406,1.142c-0.611,0.259-1.416,0.388-2.41,0.388
				c-1.293,0-2.266-0.201-2.916-0.606c-0.365-0.226-0.543-0.499-0.543-0.812c0-0.237,0.078-0.444,0.238-0.61
				c0.158-0.166,0.354-0.248,0.582-0.248c0.154,0,0.318,0.054,0.486,0.162c0.238,0.162,0.467,0.269,0.68,0.326
				c0.328,0.078,0.773,0.115,1.344,0.115c0.969,0,1.674-0.125,2.105-0.377c0.434-0.252,0.65-0.609,0.65-1.07
				c0-0.342-0.123-0.675-0.377-0.992c-0.254-0.314-0.59-0.562-1.014-0.736c-0.244-0.098-0.66-0.166-1.238-0.205
				c-0.275-0.018-0.49-0.1-0.641-0.256s-0.225-0.342-0.225-0.574c0-0.239,0.082-0.438,0.244-0.602
				c0.16-0.166,0.369-0.246,0.619-0.246c0.553,0,0.85-0.006,0.887-0.011c0.219-0.017,0.434-0.089,0.648-0.211
				c0.221-0.121,0.395-0.282,0.527-0.495c0.133-0.209,0.197-0.42,0.197-0.645c0-0.355-0.156-0.656-0.469-0.916
				c-0.312-0.261-0.781-0.389-1.406-0.389c-0.805,0-1.416,0.232-1.84,0.699c-0.123,0.135-0.227,0.225-0.303,0.262
				c-0.113,0.058-0.238,0.09-0.381,0.09c-0.227,0-0.424-0.082-0.586-0.246c-0.16-0.162-0.244-0.365-0.244-0.606
				c0-0.372,0.25-0.735,0.748-1.092c0.727-0.516,1.637-0.774,2.729-0.774c1.029,0,1.857,0.293,2.484,0.883
				c0.625,0.582,0.938,1.291,0.938,2.115c0,0.43-0.092,0.832-0.279,1.202C209.519,229.49,209.243,229.838,208.874,230.156z"/>
			<path fill="#FFFFFF" d="M204.933,254.08h3.658c0.199-0.16,0.391-0.245,0.57-0.245c0.258,0,0.459,0.086,0.609,0.253
				c0.148,0.166,0.225,0.457,0.225,0.864v0.797h-7.609v-1.767c3.006-2.483,4.824-4.078,5.447-4.789
				c0.316-0.365,0.473-0.71,0.473-1.035c0-0.404-0.178-0.766-0.533-1.076c-0.357-0.313-0.83-0.471-1.424-0.471
				c-0.598,0-1.092,0.176-1.488,0.523c-0.207,0.185-0.371,0.461-0.496,0.818c-0.08,0.229-0.184,0.393-0.316,0.488
				c-0.131,0.103-0.297,0.15-0.492,0.15c-0.227,0-0.426-0.082-0.59-0.246c-0.166-0.16-0.25-0.354-0.25-0.57
				c0-0.326,0.152-0.733,0.451-1.223c0.301-0.49,0.742-0.881,1.32-1.172c0.578-0.295,1.205-0.438,1.889-0.438
				c1.051,0,1.914,0.323,2.586,0.956c0.674,0.637,1.01,1.408,1.01,2.314c0,0.462-0.094,0.889-0.289,1.283
				c-0.191,0.394-0.654,0.937-1.389,1.631C207.722,251.678,206.601,252.662,204.933,254.08z"/>
			<path fill="#FFFFFF" d="M207.343,264.955v9.143h1.686c0.402,0,0.689,0.076,0.859,0.229c0.172,0.153,0.26,0.356,0.26,0.608
				c0,0.244-0.088,0.441-0.26,0.598c-0.17,0.156-0.457,0.23-0.859,0.23h-5.041c-0.4,0-0.688-0.076-0.859-0.23
				c-0.17-0.154-0.256-0.357-0.256-0.605c0-0.244,0.086-0.444,0.256-0.601c0.172-0.158,0.459-0.229,0.859-0.229h1.686v-6.967
				l-1.49,0.393c-0.236,0.064-0.418,0.096-0.539,0.096c-0.211,0-0.395-0.086-0.549-0.251c-0.156-0.167-0.23-0.375-0.23-0.62
				c0-0.225,0.055-0.398,0.172-0.525c0.113-0.127,0.354-0.238,0.715-0.336L207.343,264.955z"/>
			<path fill="#FFFFFF" d="M210.136,289.588v1.83c0,1.084-0.311,2.125-0.938,3.117c-0.627,0.99-1.525,1.49-2.695,1.49
				c-0.676,0-1.242-0.149-1.705-0.443c-0.467-0.295-0.906-0.842-1.32-1.641c-0.416-0.793-0.623-1.639-0.623-2.523v-1.83
				c0-1.086,0.311-2.119,0.938-3.118c0.625-0.993,1.52-1.493,2.688-1.493c0.668,0,1.234,0.146,1.699,0.438
				c0.465,0.296,0.906,0.838,1.326,1.634C209.927,287.846,210.136,288.689,210.136,289.588z M208.458,289.588
				c0-0.912-0.252-1.705-0.754-2.384c-0.289-0.37-0.691-0.562-1.213-0.562c-0.506,0-0.92,0.205-1.238,0.619
				c-0.482,0.625-0.723,1.396-0.723,2.322v1.834c0,0.91,0.256,1.703,0.766,2.377c0.281,0.371,0.686,0.559,1.215,0.559
				c0.498,0,0.908-0.201,1.229-0.616c0.484-0.624,0.725-1.399,0.725-2.315L208.458,289.588L208.458,289.588z"/>
		</g>
		<g>
			<path fill="#FFFFFF" d="M122.112,62.057c-18.94,0-25.991,26.039-6.706,38.899c-19.994,13.333-11.613,38.329,6.733,38.329
				c18.35,0,27.172-24.877,6.688-38.329C149.073,88.213,141.052,62.057,122.112,62.057L122.112,62.057z M122.112,68.896
				c13.666,0,17.98,19.311,0,28.295C104.801,88.029,108.444,68.896,122.112,68.896L122.112,68.896z M122.112,104.724
				c18.334,8.097,13.281,27.934-0.027,27.872C108.77,132.537,104.62,112.582,122.112,104.724z"/>
			<rect x="120.249" y="76.152" fill="#FFFFFF" width="3.781" height="11.463"/>
			<polygon fill="#FFFFFF" points="120.31,117.742 120.31,113.963 124.325,113.963 124.325,117.742 128.108,117.742 
				128.108,121.762 124.325,121.762 124.325,125.542 120.31,125.542 120.31,121.762 116.527,121.762 116.527,117.742 			"/>
			<path fill="#FFFFFF" d="M137.103,135.584h1.697v-0.471h0.348v1.26H138.8v-0.472h-1.697V135.584L137.103,135.584z
				 M137.103,136.574h2.045v0.48l-1.395,0.283l1.395,0.286v0.479h-2.045v-0.299h1.609l-1.609-0.312v-0.307l1.609-0.314h-1.609
				V136.574z"/>
			<path fill="#FFFFFF" d="M93.588,94.781c-3.718,0.016-5.518-1.894-5.399-5.584v-3.163h5.399h5.393v3.163
				C99.098,92.888,97.301,94.797,93.588,94.781L93.588,94.781z M93.588,92.136c2.123,0.011,3.135-1.101,3.033-3.337h-3.033h-3.036
				C90.45,91.035,91.461,92.146,93.588,92.136z"/>
			<path fill="#FFFFFF" d="M88.189,100.973c0-3.042,1.013-4.229,3.573-4.348h7.227v2.776h-7.107
				c-1.139-0.06-1.625,0.463-1.625,1.571c0,1.098,0.486,1.613,1.625,1.555h7.107v2.765h-7.227
				C89.202,105.174,88.189,104.006,88.189,100.973z"/>
			<polygon fill="#FFFFFF" points="98.989,111.482 98.989,107.438 96.676,107.438 96.676,110.123 93.588,110.123 90.499,110.123 
				90.499,107.438 88.189,107.438 88.189,111.482 88.189,115.529 90.499,115.529 90.499,112.842 93.588,112.842 96.676,112.842 
				96.676,115.529 98.989,115.529 			"/>
			<polygon fill="#FFFFFF" points="93.588,123.444 98.989,120.49 98.989,117.541 88.189,117.541 88.189,120.139 94.68,120.139 
				93.559,120.761 88.161,123.713 88.161,126.669 98.958,126.669 98.958,124.064 92.469,124.064 			"/>
			<path fill="#FFFFFF" d="M96.743,132.543c0-1.551-1.384-1.682-3.154-1.682c-1.773,0-3.154,0.127-3.154,1.682
				c0,1.551,1.383,1.666,3.154,1.666C95.359,134.213,96.743,134.094,96.743,132.543L96.743,132.543z M88.189,132.543
				c0-3.105,1.72-4.568,5.399-4.568c3.682,0,5.394,1.463,5.394,4.568c0,3.109-1.712,4.512-5.394,4.512
				C89.905,137.057,88.189,135.652,88.189,132.543z"/>
			<path fill="#FFFFFF" d="M88.189,74.182l10.8-3.631v-2.895l-10.8-3.652v3.121l2.261,0.578v2.909l-2.261,0.679V74.182
				L88.189,74.182z M92.577,70.049v-1.832l3.382,0.902L92.577,70.049z"/>
			<path fill="#FFFFFF" d="M98.989,75.676h-10.8v2.689h3.396v1.127l-3.396,1.945v3.161l3.989-2.465
				c1.209,2.847,6.811,2.925,6.811-2.23V75.676L98.989,75.676z M93.67,78.395h2.923v1.287c-0.024,2.439-2.966,1.654-2.923,0.031
				V78.395z"/>
			<g>
				<path fill="#FFFFFF" d="M123.697,201.258c0.36-0.339,0.649-0.744,0.864-1.216c0.216-0.472,0.324-0.988,0.324-1.546
					s-0.104-1.069-0.314-1.537c-0.211-0.467-0.497-0.867-0.857-1.2c-0.361-0.332-0.784-0.593-1.27-0.78
					c-0.484-0.189-1.002-0.281-1.553-0.281h-0.031c-0.549,0-1.07,0.092-1.56,0.281c-0.491,0.188-0.917,0.451-1.279,0.789
					c-0.359,0.338-0.649,0.742-0.865,1.216c-0.216,0.472-0.323,0.987-0.323,1.545c0,0.559,0.105,1.071,0.315,1.538
					c0.211,0.467,0.495,0.867,0.856,1.199c0.361,0.333,0.784,0.594,1.271,0.78c0.484,0.188,1.002,0.283,1.551,0.283h0.033
					c0.549,0,1.068-0.096,1.56-0.283C122.911,201.859,123.335,201.596,123.697,201.258z"/>
				<path fill="#FFFFFF" d="M122.809,242.037h0.032c0.617,0,1.085-0.205,1.404-0.616c0.319-0.41,0.479-0.989,0.479-1.735v-2.902
					h-3.816v2.919c0,0.713,0.172,1.28,0.513,1.702C121.76,241.827,122.224,242.037,122.809,242.037z"/>
				<polygon fill="#FFFFFF" points="119.696,224.188 119.696,228.084 124.224,226.128 				"/>
				<path fill="#FFFFFF" d="M123.628,254.365c0.342-0.34,0.609-0.751,0.805-1.236c0.194-0.485,0.291-1.023,0.291-1.617v-2.23h-7.729
					v2.23c0,0.594,0.095,1.132,0.284,1.617c0.19,0.485,0.455,0.896,0.797,1.236c0.34,0.341,0.745,0.604,1.218,0.793
					c0.47,0.188,0.982,0.282,1.533,0.282h0.033c0.551,0,1.064-0.094,1.542-0.282C122.879,254.969,123.286,254.706,123.628,254.365z"
					/>
				<path fill="#FFFFFF" d="M120.548,289.171c-0.007,0-0.014-0.001-0.021-0.001s-0.016,0.001-0.022,0.001H120.548z"/>
				<path fill="#FFFFFF" d="M120.504,153.015c0.007,0,0.015,0.001,0.022,0.001s0.015-0.001,0.021-0.001H120.504z"/>
				<path fill="#FFFFFF" d="M123.697,268.922c0.36-0.339,0.649-0.744,0.864-1.216c0.216-0.472,0.324-0.988,0.324-1.545
					c0-0.559-0.104-1.07-0.314-1.538c-0.211-0.467-0.497-0.867-0.857-1.199c-0.361-0.333-0.784-0.594-1.27-0.781
					c-0.484-0.188-1.002-0.281-1.553-0.281h-0.031c-0.549,0-1.07,0.094-1.56,0.281c-0.491,0.188-0.917,0.451-1.279,0.789
					c-0.359,0.339-0.649,0.743-0.865,1.216c-0.216,0.472-0.323,0.988-0.323,1.545c0,0.559,0.105,1.071,0.315,1.538
					c0.211,0.467,0.495,0.867,0.856,1.199c0.361,0.333,0.784,0.594,1.271,0.781c0.484,0.187,1.002,0.282,1.551,0.282h0.033
					c0.549,0,1.068-0.096,1.56-0.282C122.911,269.523,123.335,269.26,123.697,268.922z"/>
				<path fill="#FFFFFF" d="M135.781,273.895V168.292c0-8.43-6.828-15.265-15.255-15.276c-8.428,0.012-15.256,6.847-15.256,15.276
					v105.603c0,8.43,6.828,15.263,15.256,15.275C128.953,289.157,135.781,282.324,135.781,273.895z M115.201,178.561v-7.922h11.318
					v1.972h-9.523v5.95H115.201z M115.201,189.911v-8.456h11.318v8.376h-1.795v-6.404h-2.91v5.676h-1.793v-5.676h-3.025v6.484
					H115.201z M120.86,204.43c-0.799,0-1.549-0.146-2.256-0.437c-0.706-0.29-1.325-0.701-1.86-1.229
					c-0.534-0.528-0.956-1.154-1.269-1.875c-0.312-0.723-0.468-1.521-0.468-2.394s0.153-1.671,0.459-2.394
					c0.307-0.721,0.724-1.342,1.254-1.857c0.528-0.519,1.144-0.923,1.852-1.214c0.705-0.292,1.457-0.438,2.254-0.438h0.033
					c0.797,0,1.549,0.146,2.255,0.438c0.706,0.291,1.325,0.7,1.859,1.229c0.534,0.529,0.956,1.153,1.27,1.876
					c0.312,0.723,0.469,1.521,0.469,2.393c0,0.873-0.153,1.672-0.46,2.393c-0.309,0.723-0.726,1.343-1.254,1.86
					c-0.528,0.517-1.146,0.922-1.851,1.212c-0.706,0.291-1.458,0.437-2.257,0.437H120.86z M115.201,217.509v-1.661l8.052-6.228
					h-8.052v-1.974h11.318v1.84l-7.824,6.051h7.824v1.972H115.201z M115.201,229.959l2.733-1.148v-5.352l-2.733-1.163v-2.037
					l11.399,4.979v1.843l-11.399,4.98V229.959z M115.201,242.069l3.945-2.789v-0.032v-2.465h-3.945v-1.973h11.318v5.045
					c0,0.711-0.1,1.342-0.299,1.891c-0.199,0.55-0.477,1.008-0.833,1.375c-0.312,0.302-0.674,0.532-1.083,0.695
					c-0.41,0.161-0.862,0.242-1.357,0.242h-0.033c-0.464,0-0.881-0.067-1.252-0.202c-0.373-0.135-0.701-0.321-0.986-0.558
					c-0.287-0.237-0.529-0.521-0.729-0.849c-0.199-0.329-0.353-0.693-0.461-1.092l-4.285,3.056V242.069z M120.86,257.543
					c-0.799,0-1.543-0.146-2.232-0.436c-0.689-0.292-1.287-0.704-1.794-1.238c-0.507-0.533-0.905-1.169-1.196-1.907
					c-0.292-0.738-0.437-1.55-0.437-2.434v-4.22h11.318v4.22c0,0.884-0.143,1.695-0.429,2.434s-0.681,1.374-1.188,1.907
					c-0.507,0.534-1.103,0.946-1.787,1.238c-0.685,0.29-1.425,0.436-2.224,0.436H120.86z M120.86,272.095
					c-0.799,0-1.549-0.146-2.256-0.437c-0.706-0.291-1.325-0.701-1.86-1.229c-0.534-0.529-0.956-1.154-1.269-1.876
					c-0.312-0.723-0.468-1.521-0.468-2.393c0-0.873,0.153-1.672,0.459-2.394s0.724-1.343,1.254-1.858
					c0.528-0.519,1.144-0.923,1.852-1.214c0.705-0.291,1.457-0.437,2.254-0.437h0.033c0.797,0,1.549,0.146,2.255,0.437
					s1.325,0.7,1.859,1.229c0.534,0.529,0.956,1.154,1.27,1.876c0.312,0.723,0.469,1.521,0.469,2.393
					c0,0.873-0.153,1.672-0.46,2.394c-0.309,0.722-0.726,1.343-1.254,1.859c-0.528,0.518-1.146,0.922-1.851,1.213
					c-0.706,0.291-1.458,0.437-2.257,0.437H120.86z"/>
			</g>
		</g>
		<rect y="174.404" fill="#314848" width="17.505" height="125.345"/>
		<rect x="0.025" y="16.604" fill="#314848" width="17.505" height="23.46"/>
		<g>
			<path fill="#FFFFFF" d="M31.244,190.161H27.19l-0.406,1.021h0.406c0.399,0,0.686,0.078,0.856,0.23
				c0.171,0.15,0.259,0.355,0.259,0.604c0,0.246-0.086,0.443-0.259,0.607c-0.171,0.154-0.457,0.227-0.856,0.227h-2.248
				c-0.402,0-0.688-0.08-0.859-0.227c-0.17-0.16-0.257-0.364-0.257-0.613c0-0.248,0.087-0.453,0.269-0.605
				c0.179-0.159,0.474-0.23,0.886-0.222l2.623-6.532H26.51c-0.396,0-0.687-0.08-0.859-0.23c-0.168-0.156-0.256-0.361-0.256-0.613
				c0-0.244,0.086-0.45,0.256-0.605c0.173-0.157,0.463-0.23,0.859-0.23l3.607,0.01l3.324,8.202c0.391,0,0.646,0.042,0.773,0.128
				c0.25,0.179,0.377,0.415,0.377,0.709c0,0.246-0.086,0.443-0.257,0.604c-0.168,0.154-0.452,0.229-0.852,0.229h-2.247
				c-0.402,0-0.689-0.078-0.859-0.229c-0.172-0.16-0.26-0.361-0.26-0.61c0-0.245,0.088-0.44,0.26-0.597
				c0.17-0.156,0.457-0.232,0.859-0.232h0.405L31.244,190.161z M30.55,188.49l-1.341-3.307l-1.352,3.307H30.55z"/>
			<path fill="#FFFFFF" d="M42.86,186.65v1.831c0,1.085-0.312,2.13-0.941,3.12c-0.629,0.989-1.523,1.488-2.693,1.488
				c-0.674,0-1.242-0.148-1.707-0.441c-0.465-0.297-0.905-0.846-1.32-1.641c-0.414-0.794-0.621-1.639-0.621-2.526v-1.831
				c0-1.081,0.311-2.119,0.937-3.113c0.624-0.998,1.52-1.496,2.688-1.496c0.669,0,1.233,0.15,1.698,0.438
				c0.467,0.295,0.906,0.84,1.328,1.635S42.86,185.754,42.86,186.65z M41.182,186.65c0-0.91-0.254-1.7-0.76-2.383
				c-0.287-0.371-0.689-0.562-1.211-0.562c-0.504,0-0.92,0.207-1.238,0.621c-0.482,0.624-0.725,1.396-0.725,2.319v1.833
				c0,0.914,0.256,1.705,0.767,2.38c0.282,0.374,0.687,0.561,1.213,0.561c0.501,0,0.909-0.208,1.229-0.616
				c0.484-0.625,0.727-1.398,0.727-2.321L41.182,186.65L41.182,186.65z"/>
			<path fill="#FFFFFF" d="M31.244,210.181H27.19l-0.406,1.017h0.406c0.399,0,0.686,0.076,0.856,0.232
				c0.171,0.152,0.259,0.358,0.259,0.604c0,0.245-0.086,0.442-0.259,0.603c-0.171,0.156-0.457,0.229-0.856,0.229h-2.248
				c-0.402,0-0.688-0.08-0.859-0.229c-0.17-0.156-0.257-0.361-0.257-0.607s0.087-0.453,0.269-0.606
				c0.179-0.159,0.474-0.229,0.886-0.226l2.623-6.531H26.51c-0.396,0-0.687-0.08-0.859-0.232c-0.168-0.153-0.256-0.355-0.256-0.604
				c0-0.25,0.086-0.455,0.256-0.609c0.173-0.155,0.463-0.234,0.859-0.234l3.607,0.01l3.324,8.201c0.391,0,0.646,0.047,0.773,0.131
				c0.25,0.181,0.377,0.418,0.377,0.711c0,0.241-0.086,0.441-0.257,0.598c-0.168,0.158-0.452,0.23-0.852,0.23h-2.247
				c-0.402,0-0.689-0.078-0.859-0.23c-0.172-0.156-0.26-0.357-0.26-0.604c0-0.245,0.088-0.447,0.26-0.602
				c0.17-0.158,0.457-0.232,0.859-0.232h0.405L31.244,210.181z M30.55,208.508l-1.341-3.305l-1.352,3.305H30.55z"/>
			<path fill="#FFFFFF" d="M40.063,202.057v9.139h1.687c0.401,0,0.688,0.078,0.858,0.234c0.172,0.152,0.258,0.354,0.258,0.604
				c0,0.245-0.086,0.442-0.258,0.599c-0.171,0.156-0.457,0.233-0.858,0.233h-5.04c-0.402,0-0.688-0.08-0.859-0.233
				c-0.172-0.156-0.257-0.355-0.257-0.606c0-0.243,0.085-0.442,0.257-0.597c0.171-0.158,0.457-0.232,0.859-0.232h1.686v-6.963
				l-1.492,0.389c-0.236,0.064-0.416,0.1-0.535,0.1c-0.213,0-0.398-0.09-0.549-0.254c-0.158-0.168-0.234-0.373-0.234-0.619
				c0-0.225,0.057-0.398,0.171-0.527c0.115-0.125,0.353-0.238,0.716-0.336L40.063,202.057z"/>
			<path fill="#FFFFFF" d="M31.244,230.193H27.19l-0.406,1.02h0.406c0.399,0,0.686,0.08,0.856,0.232
				c0.171,0.156,0.259,0.356,0.259,0.609c0,0.24-0.086,0.444-0.259,0.6c-0.171,0.154-0.457,0.23-0.856,0.23h-2.248
				c-0.402,0-0.688-0.079-0.859-0.23c-0.17-0.155-0.257-0.361-0.257-0.611c0-0.246,0.087-0.451,0.269-0.604
				c0.179-0.162,0.474-0.233,0.886-0.224l2.623-6.531H26.51c-0.396,0-0.687-0.078-0.859-0.233c-0.168-0.154-0.256-0.357-0.256-0.607
				c0-0.248,0.086-0.451,0.256-0.604c0.173-0.16,0.463-0.236,0.859-0.236l3.607,0.01l3.324,8.202c0.391,0,0.646,0.042,0.773,0.128
				c0.25,0.182,0.377,0.418,0.377,0.711c0,0.248-0.086,0.444-0.257,0.602c-0.168,0.156-0.452,0.229-0.852,0.229h-2.247
				c-0.402,0-0.689-0.077-0.859-0.229c-0.172-0.157-0.26-0.361-0.26-0.609c0-0.245,0.088-0.441,0.26-0.598
				c0.17-0.156,0.457-0.23,0.859-0.23h0.405L31.244,230.193z M30.55,228.525l-1.341-3.309l-1.352,3.309H30.55z"/>
			<path fill="#FFFFFF" d="M37.655,231.213h3.657c0.2-0.16,0.392-0.246,0.569-0.246c0.258,0,0.461,0.088,0.607,0.257
				c0.15,0.165,0.226,0.456,0.226,0.862v0.799h-7.608v-1.768c3.006-2.484,4.822-4.078,5.448-4.791
				c0.316-0.363,0.474-0.709,0.474-1.029c0-0.412-0.18-0.77-0.537-1.084c-0.355-0.309-0.828-0.465-1.42-0.465
				c-0.6,0-1.094,0.176-1.49,0.52c-0.205,0.184-0.371,0.459-0.498,0.822c-0.076,0.227-0.182,0.391-0.313,0.488
				c-0.13,0.096-0.294,0.146-0.493,0.146c-0.226,0-0.426-0.082-0.592-0.244c-0.165-0.162-0.248-0.357-0.248-0.57
				c0-0.328,0.152-0.736,0.453-1.225c0.3-0.488,0.74-0.883,1.32-1.17c0.576-0.295,1.206-0.439,1.885-0.439
				c1.055,0,1.917,0.318,2.589,0.956c0.675,0.636,1.01,1.408,1.01,2.315c0,0.461-0.097,0.887-0.29,1.283
				c-0.191,0.396-0.655,0.938-1.389,1.631C40.442,228.814,39.321,229.798,37.655,231.213z"/>
			<path fill="#FFFFFF" d="M31.244,250.213H27.19l-0.406,1.016h0.406c0.399,0,0.686,0.079,0.856,0.234
				c0.171,0.152,0.259,0.357,0.259,0.605c0,0.246-0.086,0.445-0.259,0.603c-0.171,0.156-0.457,0.228-0.856,0.228h-2.248
				c-0.402,0-0.688-0.078-0.859-0.228c-0.17-0.157-0.257-0.36-0.257-0.608c0-0.246,0.087-0.451,0.269-0.609
				c0.179-0.156,0.474-0.229,0.886-0.223l2.623-6.529H26.51c-0.396,0-0.687-0.08-0.859-0.231c-0.168-0.157-0.256-0.359-0.256-0.606
				c0-0.25,0.086-0.451,0.256-0.609c0.173-0.156,0.463-0.234,0.859-0.234l3.607,0.01l3.324,8.201c0.391,0,0.646,0.049,0.773,0.133
				c0.25,0.18,0.377,0.415,0.377,0.711c0,0.246-0.086,0.439-0.257,0.6c-0.168,0.153-0.452,0.227-0.852,0.227h-2.247
				c-0.402,0-0.689-0.073-0.859-0.227c-0.172-0.16-0.26-0.362-0.26-0.609c0-0.244,0.088-0.445,0.26-0.6
				c0.17-0.157,0.457-0.232,0.859-0.232h0.405L31.244,250.213z M30.55,248.544l-1.341-3.308l-1.352,3.308H30.55z"/>
			<path fill="#FFFFFF" d="M41.596,247.319c0.493,0.337,0.863,0.728,1.107,1.169c0.244,0.439,0.367,0.939,0.367,1.488
				c0,0.589-0.163,1.135-0.484,1.638c-0.326,0.506-0.793,0.886-1.408,1.142c-0.612,0.26-1.417,0.383-2.411,0.383
				c-1.294,0-2.264-0.196-2.915-0.6c-0.367-0.229-0.547-0.498-0.547-0.82c0-0.234,0.082-0.438,0.241-0.603
				c0.159-0.168,0.354-0.251,0.581-0.251c0.157,0,0.322,0.053,0.49,0.162c0.238,0.164,0.464,0.271,0.676,0.33
				c0.327,0.074,0.774,0.113,1.342,0.113c0.973,0,1.678-0.125,2.11-0.381c0.435-0.252,0.65-0.609,0.65-1.069
				c0-0.343-0.124-0.672-0.378-0.987c-0.254-0.32-0.589-0.566-1.015-0.74c-0.245-0.1-0.655-0.167-1.236-0.203
				c-0.276-0.017-0.49-0.104-0.642-0.258c-0.15-0.156-0.226-0.345-0.226-0.574c0-0.24,0.083-0.441,0.245-0.602
				c0.164-0.164,0.371-0.244,0.619-0.244c0.555,0,0.85-0.004,0.886-0.012c0.22-0.021,0.436-0.088,0.651-0.213
				c0.217-0.118,0.393-0.281,0.526-0.492c0.133-0.209,0.2-0.424,0.2-0.646c0-0.357-0.157-0.658-0.469-0.918
				c-0.312-0.258-0.783-0.386-1.407-0.386c-0.805,0-1.419,0.229-1.841,0.699c-0.124,0.138-0.227,0.224-0.301,0.261
				c-0.114,0.059-0.242,0.086-0.384,0.086c-0.228,0-0.424-0.076-0.587-0.244c-0.161-0.16-0.243-0.359-0.243-0.602
				c0-0.373,0.254-0.74,0.749-1.094c0.727-0.515,1.637-0.773,2.727-0.773c1.03,0,1.86,0.293,2.486,0.877
				c0.625,0.59,0.936,1.297,0.936,2.119c0,0.428-0.092,0.828-0.275,1.201C42.237,246.655,41.965,247.007,41.596,247.319z"/>
			<path fill="#FFFFFF" d="M31.244,270.229H27.19l-0.406,1.02h0.406c0.399,0,0.686,0.078,0.856,0.23
				c0.171,0.155,0.259,0.357,0.259,0.61c0,0.245-0.086,0.442-0.259,0.599c-0.171,0.154-0.457,0.229-0.856,0.229h-2.248
				c-0.402,0-0.688-0.076-0.859-0.229c-0.17-0.156-0.257-0.359-0.257-0.607c0-0.247,0.087-0.451,0.269-0.607
				c0.179-0.155,0.474-0.231,0.886-0.224l2.623-6.53H26.51c-0.396,0-0.687-0.079-0.859-0.232c-0.168-0.154-0.256-0.359-0.256-0.606
				c0-0.249,0.086-0.45,0.256-0.61c0.173-0.152,0.463-0.229,0.859-0.229l3.607,0.007l3.324,8.201c0.391,0,0.646,0.048,0.773,0.131
				c0.25,0.183,0.377,0.417,0.377,0.712c0,0.244-0.086,0.441-0.257,0.596c-0.168,0.158-0.452,0.231-0.852,0.231h-2.247
				c-0.402,0-0.689-0.077-0.859-0.231c-0.172-0.154-0.26-0.359-0.26-0.607c0-0.242,0.088-0.441,0.26-0.598
				c0.17-0.153,0.457-0.227,0.859-0.227h0.405L31.244,270.229z M30.55,268.561l-1.341-3.309l-1.352,3.309H30.55z"/>
			<path fill="#FFFFFF" d="M41.661,262.377v6.535c0.354,0,0.613,0.073,0.783,0.231c0.166,0.147,0.252,0.351,0.252,0.595
				s-0.086,0.447-0.258,0.604c-0.17,0.16-0.432,0.236-0.78,0.236v0.67c0.354,0,0.616,0.078,0.785,0.234
				c0.167,0.159,0.251,0.361,0.251,0.606s-0.086,0.44-0.257,0.597s-0.458,0.231-0.857,0.231h-2.243
				c-0.399,0-0.688-0.077-0.857-0.231c-0.17-0.154-0.259-0.357-0.259-0.605c0-0.245,0.089-0.444,0.259-0.602
				c0.169-0.154,0.458-0.23,0.857-0.23h0.652v-0.67h-4.531v-1.393l3.998-6.809H41.661L41.661,262.377z M39.991,268.912v-4.106
				l-2.418,4.106H39.991z"/>
			<path fill="#FFFFFF" d="M31.244,290.247H27.19l-0.406,1.019h0.406c0.399,0,0.686,0.08,0.856,0.229
				c0.171,0.154,0.259,0.359,0.259,0.611c0,0.244-0.086,0.443-0.259,0.6c-0.171,0.152-0.457,0.229-0.856,0.229h-2.248
				c-0.402,0-0.688-0.076-0.859-0.229c-0.17-0.156-0.257-0.361-0.257-0.609s0.087-0.451,0.269-0.606
				c0.179-0.157,0.474-0.231,0.886-0.224l2.623-6.529H26.51c-0.396,0-0.687-0.08-0.859-0.232c-0.168-0.154-0.256-0.355-0.256-0.607
				c0-0.25,0.086-0.452,0.256-0.607c0.173-0.159,0.463-0.232,0.859-0.232l3.607,0.006l3.324,8.203c0.391,0,0.646,0.048,0.773,0.133
				c0.25,0.18,0.377,0.413,0.377,0.71c0,0.244-0.086,0.44-0.257,0.601c-0.168,0.153-0.452,0.229-0.852,0.229h-2.247
				c-0.402,0-0.689-0.081-0.859-0.229c-0.172-0.16-0.26-0.361-0.26-0.606c0-0.248,0.088-0.444,0.26-0.601
				c0.17-0.153,0.457-0.229,0.859-0.229h0.405L31.244,290.247z M30.55,288.577l-1.341-3.306l-1.352,3.306H30.55z"/>
			<path fill="#FFFFFF" d="M37.809,284.064v1.986c0.617-0.191,1.18-0.293,1.685-0.293c1.024,0,1.88,0.352,2.557,1.049
				c0.677,0.701,1.021,1.607,1.021,2.716c0,1.14-0.346,2.034-1.029,2.683c-0.689,0.648-1.742,0.975-3.157,0.975
				c-1.249,0-2.239-0.234-2.967-0.711c-0.423-0.272-0.636-0.582-0.636-0.936c0-0.227,0.084-0.416,0.25-0.582
				c0.162-0.164,0.363-0.251,0.59-0.251c0.189,0,0.396,0.095,0.618,0.274c0.222,0.182,0.456,0.311,0.7,0.379
				c0.35,0.102,0.791,0.154,1.338,0.154c1.01,0,1.701-0.158,2.068-0.483c0.367-0.324,0.554-0.817,0.554-1.483
				c0-0.658-0.18-1.174-0.534-1.548c-0.355-0.374-0.814-0.562-1.373-0.562c-0.605,0-1.291,0.196-2.063,0.586
				c-0.173,0.091-0.327,0.14-0.456,0.14c-0.239,0-0.437-0.088-0.598-0.262c-0.165-0.173-0.24-0.4-0.24-0.672v-4.827h5.105
				c0.402,0,0.688,0.08,0.859,0.233c0.172,0.153,0.258,0.361,0.258,0.607c0,0.244-0.086,0.444-0.258,0.603
				c-0.171,0.151-0.457,0.227-0.859,0.227L37.809,284.064L37.809,284.064z"/>
		</g>
	</g>
	<g>
		<path fill="#FFFFFF" d="M31.419,23.43c0.088-0.188,0.188-0.316,0.299-0.387s0.281-0.105,0.51-0.105
			c0.34,0,0.559,0.063,0.654,0.189c0.098,0.126,0.151,0.376,0.163,0.751l0.035,1.688v0.097c0,0.346-0.069,0.587-0.206,0.725
			c-0.139,0.138-0.371,0.207-0.699,0.207c-0.416,0-0.727-0.223-0.932-0.668c-0.029-0.064-0.053-0.117-0.07-0.158
			c-0.182-0.363-0.428-0.637-0.738-0.822s-0.677-0.277-1.099-0.277c-0.527,0-0.954,0.122-1.278,0.365
			c-0.326,0.243-0.488,0.555-0.488,0.936c0,0.539,0.744,0.964,2.232,1.274c0.252,0.053,0.451,0.094,0.598,0.123
			c1.125,0.246,1.939,0.621,2.443,1.125s0.756,1.192,0.756,2.065c0,1.078-0.366,1.909-1.099,2.492s-1.781,0.875-3.146,0.875
			c-0.533,0-1.01-0.035-1.429-0.105s-0.824-0.179-1.217-0.325c-0.094,0.152-0.202,0.262-0.325,0.33s-0.293,0.101-0.51,0.101
			c-0.369,0-0.627-0.07-0.773-0.211s-0.223-0.39-0.229-0.747l-0.035-2.065v-0.097c0-0.387,0.071-0.656,0.216-0.809
			c0.143-0.152,0.394-0.229,0.751-0.229c0.381,0,0.7,0.275,0.958,0.826c0.059,0.135,0.105,0.237,0.141,0.308
			c0.229,0.451,0.546,0.788,0.953,1.011s0.907,0.334,1.499,0.334c0.539,0,0.958-0.111,1.257-0.334s0.448-0.536,0.448-0.94
			c0-0.627-0.677-1.102-2.03-1.424c-0.404-0.094-0.724-0.173-0.958-0.237c-1.137-0.299-1.925-0.672-2.364-1.121
			s-0.659-1.062-0.659-1.841c0-1.002,0.376-1.821,1.13-2.457c0.752-0.636,1.727-0.954,2.922-0.954c0.398,0,0.789,0.041,1.174,0.123
			C30.656,23.143,31.039,23.266,31.419,23.43z"/>
		<path fill="#FFFFFF" d="M39.417,26.023h2.681c0.404,0,0.691,0.073,0.861,0.22s0.255,0.39,0.255,0.729
			c0,0.346-0.087,0.595-0.259,0.747c-0.174,0.152-0.459,0.229-0.857,0.229h-2.681v2.25c0,0.633,0.097,1.066,0.29,1.301
			s0.533,0.352,1.02,0.352c0.457,0,0.996-0.132,1.617-0.396s1.037-0.396,1.248-0.396c0.24,0,0.446,0.095,0.619,0.286
			s0.26,0.42,0.26,0.69c0,0.451-0.408,0.863-1.227,1.235c-0.816,0.372-1.744,0.558-2.781,0.558c-0.604,0-1.134-0.082-1.591-0.246
			s-0.817-0.398-1.081-0.703c-0.193-0.234-0.331-0.516-0.413-0.844s-0.123-0.876-0.123-1.644v-0.193v-2.25h-0.826
			c-0.398,0-0.681-0.076-0.849-0.229c-0.166-0.152-0.25-0.401-0.25-0.747s0.082-0.59,0.246-0.734s0.448-0.215,0.853-0.215h0.826
			v-2.057c0-0.404,0.083-0.688,0.251-0.853c0.166-0.164,0.443-0.246,0.83-0.246s0.664,0.082,0.83,0.246
			c0.168,0.164,0.251,0.448,0.251,0.853V26.023z"/>
		<path fill="#FFFFFF" d="M54.412,31.727h0.141c0.316,0,0.559,0.083,0.725,0.25c0.168,0.167,0.251,0.406,0.251,0.716
			c0,0.34-0.087,0.584-0.259,0.734c-0.174,0.149-0.459,0.224-0.857,0.224h-0.826c-0.293,0-0.512-0.056-0.654-0.167
			c-0.145-0.111-0.263-0.313-0.356-0.606c-0.486,0.322-1.002,0.568-1.547,0.738s-1.096,0.255-1.652,0.255
			c-0.943,0-1.685-0.234-2.224-0.703s-0.809-1.11-0.809-1.925c0-0.879,0.349-1.562,1.046-2.048s1.676-0.729,2.936-0.729
			c0.281,0,0.58,0.015,0.896,0.044s0.671,0.076,1.063,0.141v-0.167c0-0.527-0.127-0.929-0.383-1.204
			c-0.254-0.275-0.631-0.413-1.129-0.413c-0.387,0-0.881,0.144-1.48,0.431c-0.602,0.287-1.042,0.431-1.323,0.431
			c-0.275,0-0.498-0.081-0.668-0.242s-0.255-0.374-0.255-0.637c0-0.475,0.348-0.851,1.041-1.129c0.695-0.278,1.64-0.417,2.835-0.417
			c1.248,0,2.142,0.24,2.681,0.721s0.809,1.295,0.809,2.443V31.727z M52.285,30.031c-0.293-0.064-0.562-0.113-0.809-0.145
			s-0.475-0.048-0.686-0.048c-0.645,0-1.15,0.108-1.516,0.325c-0.367,0.217-0.55,0.516-0.55,0.896c0,0.34,0.117,0.599,0.352,0.778
			s0.571,0.268,1.011,0.268c0.404,0,0.785-0.059,1.143-0.176s0.709-0.299,1.055-0.545V30.031z"/>
		<path fill="#FFFFFF" d="M61.232,28.879v2.848h2.074c0.398,0,0.681,0.073,0.849,0.22c0.166,0.146,0.25,0.39,0.25,0.729
			c0,0.346-0.084,0.595-0.25,0.747c-0.168,0.152-0.45,0.229-0.849,0.229h-4.913c-0.404,0-0.691-0.076-0.861-0.229
			s-0.255-0.401-0.255-0.747c0-0.34,0.083-0.583,0.251-0.729c0.166-0.146,0.455-0.22,0.865-0.22h0.668v-4.271h-0.378
			c-0.398,0-0.681-0.075-0.849-0.224c-0.166-0.149-0.25-0.397-0.25-0.743s0.08-0.592,0.242-0.738c0.16-0.146,0.446-0.22,0.856-0.22
			h1.872c0.158,0,0.281,0.034,0.369,0.101s0.132,0.16,0.132,0.277v1.301c0.639-0.686,1.235-1.175,1.788-1.468
			c0.555-0.293,1.15-0.439,1.789-0.439c0.58,0,1.04,0.13,1.38,0.391s0.51,0.611,0.51,1.05c0,0.34-0.117,0.62-0.352,0.839
			s-0.536,0.33-0.905,0.33c-0.264,0-0.576-0.097-0.936-0.29c-0.361-0.193-0.611-0.29-0.752-0.29c-0.281,0-0.612,0.126-0.993,0.378
			S61.753,28.352,61.232,28.879z"/>
		<path fill="#FFFFFF" d="M71.823,26.023h2.681c0.404,0,0.691,0.073,0.861,0.22s0.255,0.39,0.255,0.729
			c0,0.346-0.087,0.595-0.259,0.747c-0.174,0.152-0.459,0.229-0.857,0.229h-2.681v2.25c0,0.633,0.097,1.066,0.29,1.301
			s0.533,0.352,1.02,0.352c0.457,0,0.996-0.132,1.617-0.396s1.037-0.396,1.248-0.396c0.24,0,0.446,0.095,0.619,0.286
			s0.26,0.42,0.26,0.69c0,0.451-0.408,0.863-1.227,1.235c-0.816,0.372-1.744,0.558-2.781,0.558c-0.604,0-1.134-0.082-1.591-0.246
			s-0.817-0.398-1.081-0.703c-0.193-0.234-0.331-0.516-0.413-0.844s-0.123-0.876-0.123-1.644v-0.193v-2.25h-0.826
			c-0.398,0-0.681-0.076-0.849-0.229c-0.166-0.152-0.25-0.401-0.25-0.747s0.082-0.59,0.246-0.734s0.448-0.215,0.853-0.215h0.826
			v-2.057c0-0.404,0.083-0.688,0.251-0.853c0.166-0.164,0.443-0.246,0.83-0.246s0.664,0.082,0.83,0.246
			c0.168,0.164,0.251,0.448,0.251,0.853V26.023z"/>
	</g>
</g>
</svg>
