<?xml version="1.0" encoding="utf-8"?>
<!-- Generator: Adobe Illustrator 16.0.0, SVG Export Plug-In . SVG Version: 6.00 Build 0)  -->
<!DOCTYPE svg PUBLIC "-//W3C//DTD SVG 1.1//EN" "http://www.w3.org/Graphics/SVG/1.1/DTD/svg11.dtd">
<svg version="1.1" id="Layer_1" xmlns="http://www.w3.org/2000/svg" xmlns:xlink="http://www.w3.org/1999/xlink" x="0px" y="0px"
	 width="240.704px" height="126.132px" viewBox="0 0 240.704 126.132" enable-background="new 0 0 240.704 126.132"
	 xml:space="preserve">
<g>
	<path fill="#84A2CD" d="M240.704,118.401c0,4.269-3.461,7.729-7.731,7.729H7.729c-4.266,0-7.729-3.463-7.729-7.729V7.732
		C0,3.46,3.463,0,7.729,0h225.243c4.271,0,7.731,3.46,7.731,7.732V118.401z"/>
	<path fill="#9EB6DD" d="M0,36.092v82.31c0,4.268,3.463,7.73,7.729,7.73h225.243c4.271,0,7.729-3.463,7.729-7.73v-82.31H0z"/>
	<g>
		<g>
			<path fill="#1B446B" d="M26.949,57.835c0.432,0,0.708,0.041,0.829,0.122c0.12,0.082,0.181,0.234,0.181,0.458
				c0,0.23-0.061,0.389-0.181,0.476c-0.121,0.087-0.397,0.13-0.829,0.13h-5.111h-0.396c-0.202,0-0.356-0.05-0.463-0.151
				c-0.107-0.101-0.16-0.253-0.16-0.455c0-0.224,0.062-0.377,0.186-0.458c0.123-0.082,0.401-0.122,0.833-0.122h1.903v-7.586h-1.903
				c-0.421,0-0.695-0.043-0.825-0.131c-0.129-0.087-0.193-0.245-0.193-0.476c0-0.208,0.054-0.36,0.16-0.459
				c0.106-0.098,0.267-0.147,0.479-0.147h0.379h5.111h0.396c0.202,0,0.354,0.05,0.459,0.151c0.104,0.101,0.155,0.252,0.155,0.455
				c0,0.23-0.063,0.389-0.189,0.476s-0.399,0.131-0.82,0.131h-1.903v7.586H26.949z"/>
			<path fill="#1B446B" d="M31.604,57.835v-5.397h-0.159c-0.382,0-0.645-0.045-0.788-0.135c-0.143-0.09-0.214-0.247-0.214-0.472
				c0-0.208,0.059-0.357,0.177-0.45c0.117-0.093,0.309-0.139,0.572-0.139h0.396h0.809c0.151,0,0.27,0.031,0.354,0.093
				s0.126,0.146,0.126,0.252v0.573c0.41-0.382,0.815-0.664,1.217-0.846c0.401-0.182,0.818-0.273,1.25-0.273
				c0.848,0,1.515,0.264,2,0.791c0.485,0.528,0.729,1.258,0.729,2.189v3.814h0.396c0.28,0,0.482,0.046,0.606,0.139
				c0.123,0.093,0.185,0.24,0.185,0.442c0,0.219-0.065,0.375-0.197,0.467c-0.132,0.093-0.366,0.139-0.703,0.139H36.5
				c-0.359,0-0.59-0.042-0.69-0.126c-0.102-0.084-0.152-0.244-0.152-0.48c0-0.219,0.06-0.37,0.177-0.455
				c0.118-0.084,0.34-0.126,0.666-0.126h0.294v-3.502c0-0.657-0.148-1.158-0.446-1.503c-0.297-0.345-0.729-0.518-1.296-0.518
				c-0.573,0-1.078,0.194-1.516,0.581s-0.657,0.867-0.657,1.44v3.502h0.295c0.337,0,0.564,0.042,0.682,0.126
				s0.177,0.236,0.177,0.455c0,0.236-0.05,0.396-0.151,0.48s-0.348,0.126-0.74,0.126H31.61h-0.46c-0.23,0-0.403-0.049-0.518-0.147
				c-0.115-0.098-0.173-0.251-0.173-0.459c0-0.224,0.065-0.377,0.197-0.458c0.132-0.081,0.389-0.122,0.771-0.122L31.604,57.835
				L31.604,57.835z"/>
			<path fill="#1B446B" d="M42.912,61.177h2.021c0.214,0,0.374,0.051,0.48,0.152s0.16,0.252,0.16,0.455
				c0,0.219-0.053,0.373-0.156,0.463s-0.287,0.135-0.552,0.135h-3.713c-0.225,0-0.394-0.05-0.509-0.151
				c-0.115-0.101-0.173-0.25-0.173-0.446c0-0.225,0.071-0.382,0.215-0.472c0.143-0.09,0.408-0.135,0.796-0.135h0.159v-8.739h-0.159
				c-0.388,0-0.653-0.045-0.796-0.135c-0.144-0.09-0.215-0.247-0.215-0.472c0-0.196,0.058-0.344,0.173-0.442
				c0.115-0.098,0.284-0.147,0.509-0.147h1.28c0.168,0,0.29,0.028,0.366,0.084c0.075,0.056,0.113,0.143,0.113,0.261v0.817
				c0.382-0.394,0.805-0.688,1.268-0.884c0.463-0.196,0.961-0.294,1.494-0.294c1.128,0,2.071,0.382,2.829,1.145
				c0.758,0.763,1.137,1.72,1.137,2.871c0,1.106-0.359,2.015-1.078,2.728c-0.718,0.713-1.636,1.069-2.753,1.069
				c-0.595,0-1.143-0.105-1.642-0.315c-0.5-0.21-0.918-0.512-1.255-0.905L42.912,61.177L42.912,61.177z M45.522,57.801
				c0.78,0,1.42-0.246,1.92-0.737c0.499-0.491,0.749-1.127,0.749-1.907c0-0.763-0.251-1.393-0.754-1.89
				c-0.502-0.497-1.141-0.745-1.915-0.745s-1.409,0.247-1.903,0.741c-0.493,0.494-0.74,1.125-0.74,1.895
				c0,0.775,0.245,1.409,0.736,1.903C44.106,57.554,44.742,57.801,45.522,57.801z"/>
			<path fill="#1B446B" d="M53.335,55.915c0,0.708,0.148,1.224,0.446,1.549c0.297,0.326,0.769,0.488,1.414,0.488
				c0.612,0,1.136-0.193,1.57-0.581c0.435-0.387,0.652-0.873,0.652-1.457v-3.477h-1.153c-0.219,0-0.377-0.046-0.476-0.139
				c-0.099-0.092-0.147-0.237-0.147-0.434c0-0.213,0.054-0.37,0.16-0.471c0.105-0.101,0.277-0.152,0.514-0.152h1.793
				c0.214,0,0.363,0.046,0.451,0.139c0.087,0.093,0.13,0.318,0.13,0.678v5.776h0.388c0.274,0,0.473,0.045,0.594,0.135
				c0.12,0.09,0.181,0.238,0.181,0.446c0,0.202-0.058,0.354-0.173,0.455c-0.115,0.101-0.282,0.151-0.501,0.151h-1.279
				c-0.151,0-0.27-0.031-0.354-0.093c-0.085-0.062-0.127-0.146-0.127-0.252v-0.572c-0.538,0.415-1,0.7-1.385,0.854
				c-0.385,0.154-0.79,0.231-1.217,0.231c-0.926,0-1.62-0.246-2.084-0.737c-0.463-0.491-0.694-1.233-0.694-2.227v-3.789h-0.177
				c-0.382,0-0.643-0.045-0.783-0.135c-0.14-0.09-0.21-0.247-0.21-0.472c0-0.196,0.055-0.344,0.164-0.442
				c0.109-0.098,0.279-0.146,0.509-0.146h1.271c0.196,0,0.333,0.04,0.408,0.118c0.076,0.079,0.114,0.252,0.114,0.522L53.335,55.915
				L53.335,55.915z"/>
			<path fill="#1B446B" d="M68.077,51.714c0.275,0,0.476,0.048,0.603,0.143c0.126,0.096,0.189,0.247,0.189,0.455
				c0,0.197-0.06,0.344-0.177,0.442c-0.118,0.098-0.295,0.147-0.53,0.147h-3.41v2.812c0,0.921,0.119,1.527,0.357,1.819
				c0.238,0.292,0.647,0.438,1.226,0.438c0.511,0,1.122-0.148,1.835-0.446c0.713-0.297,1.153-0.446,1.322-0.446
				c0.157,0,0.29,0.056,0.399,0.168c0.109,0.112,0.164,0.25,0.164,0.413c0,0.185-0.068,0.347-0.206,0.484
				c-0.138,0.138-0.372,0.271-0.703,0.4c-0.55,0.219-1.045,0.379-1.485,0.48c-0.441,0.101-0.855,0.151-1.242,0.151
				c-0.657,0-1.208-0.105-1.654-0.315c-0.446-0.21-0.779-0.523-0.998-0.939c-0.112-0.196-0.192-0.429-0.24-0.699
				c-0.048-0.27-0.071-0.685-0.071-1.246v-0.261v-2.812h-1.432c-0.235,0-0.406-0.046-0.513-0.139
				c-0.107-0.093-0.16-0.243-0.16-0.451c0-0.23,0.072-0.387,0.219-0.471c0.146-0.084,0.457-0.126,0.935-0.126h0.951v-1.726v-0.446
				c0-0.241,0.052-0.419,0.156-0.535c0.104-0.115,0.265-0.172,0.483-0.172c0.247,0,0.418,0.07,0.514,0.21
				c0.096,0.14,0.144,0.46,0.144,0.96v1.709L68.077,51.714L68.077,51.714z"/>
		</g>
	</g>
	<g>
		<g>
			<path fill="#1B446B" d="M177.84,54.021c0,1.538-0.426,2.799-1.279,3.784c-0.854,0.985-1.943,1.478-3.273,1.478
				c-1.319,0-2.408-0.494-3.264-1.482c-0.855-0.988-1.284-2.248-1.284-3.78c0-1.549,0.425-2.813,1.271-3.793
				s1.938-1.469,3.274-1.469c1.33,0,2.422,0.494,3.274,1.481C177.415,51.229,177.84,52.488,177.84,54.021z M173.286,58.087
				c0.942,0,1.686-0.36,2.228-1.082c0.542-0.721,0.812-1.716,0.812-2.984s-0.271-2.264-0.812-2.985
				c-0.541-0.721-1.284-1.082-2.228-1.082c-0.949,0-1.69,0.358-2.228,1.074c-0.536,0.715-0.804,1.713-0.804,2.993
				c0,1.269,0.271,2.263,0.812,2.984C171.608,57.727,172.349,58.087,173.286,58.087z"/>
			<path fill="#1B446B" d="M181.538,55.915c0,0.708,0.147,1.224,0.445,1.549c0.297,0.326,0.77,0.488,1.414,0.488
				c0.612,0,1.137-0.193,1.57-0.581c0.435-0.387,0.652-0.873,0.652-1.457v-3.477h-1.154c-0.219,0-0.377-0.046-0.476-0.139
				c-0.099-0.092-0.146-0.237-0.146-0.434c0-0.213,0.054-0.37,0.159-0.471c0.106-0.101,0.277-0.152,0.515-0.152h1.793
				c0.214,0,0.362,0.046,0.451,0.139c0.087,0.093,0.13,0.318,0.13,0.678v5.776h0.388c0.274,0,0.474,0.045,0.595,0.135
				c0.119,0.09,0.181,0.238,0.181,0.446c0,0.202-0.058,0.354-0.173,0.455c-0.115,0.101-0.282,0.151-0.502,0.151h-1.278
				c-0.151,0-0.271-0.031-0.354-0.093c-0.084-0.062-0.127-0.146-0.127-0.252v-0.572c-0.537,0.415-1,0.7-1.385,0.854
				s-0.79,0.231-1.217,0.231c-0.926,0-1.62-0.246-2.084-0.737c-0.463-0.491-0.694-1.233-0.694-2.227v-3.789h-0.177
				c-0.382,0-0.643-0.045-0.783-0.135c-0.14-0.09-0.21-0.247-0.21-0.472c0-0.196,0.056-0.344,0.164-0.442
				c0.109-0.098,0.279-0.146,0.509-0.146h1.271c0.195,0,0.333,0.04,0.408,0.118c0.076,0.079,0.113,0.252,0.113,0.522v4.035H181.538z
				"/>
			<path fill="#1B446B" d="M191.809,61.177h2.021c0.213,0,0.373,0.051,0.479,0.152s0.16,0.252,0.16,0.455
				c0,0.219-0.054,0.373-0.156,0.463s-0.287,0.135-0.552,0.135h-3.713c-0.226,0-0.395-0.05-0.51-0.151s-0.172-0.25-0.172-0.446
				c0-0.225,0.07-0.382,0.215-0.472c0.143-0.09,0.407-0.135,0.795-0.135h0.16v-8.739h-0.16c-0.388,0-0.652-0.045-0.795-0.135
				c-0.145-0.09-0.215-0.247-0.215-0.472c0-0.196,0.057-0.344,0.172-0.442s0.284-0.147,0.51-0.147h1.279
				c0.168,0,0.291,0.028,0.366,0.084c0.075,0.056,0.113,0.143,0.113,0.261v0.817c0.382-0.394,0.805-0.688,1.269-0.884
				c0.463-0.196,0.961-0.294,1.493-0.294c1.128,0,2.071,0.382,2.829,1.145c0.758,0.763,1.137,1.72,1.137,2.871
				c0,1.106-0.358,2.015-1.078,2.728c-0.718,0.713-1.636,1.069-2.752,1.069c-0.596,0-1.144-0.105-1.643-0.315
				c-0.5-0.21-0.918-0.512-1.255-0.905L191.809,61.177L191.809,61.177z M194.418,57.801c0.78,0,1.42-0.246,1.92-0.737
				c0.5-0.491,0.75-1.127,0.75-1.907c0-0.763-0.252-1.393-0.754-1.89s-1.142-0.745-1.916-0.745c-0.773,0-1.408,0.247-1.902,0.741
				c-0.493,0.494-0.74,1.125-0.74,1.895c0,0.775,0.245,1.409,0.736,1.903C193.002,57.554,193.639,57.801,194.418,57.801z"/>
			<path fill="#1B446B" d="M202.232,55.915c0,0.708,0.147,1.224,0.446,1.549c0.297,0.326,0.769,0.488,1.414,0.488
				c0.611,0,1.136-0.193,1.57-0.581c0.435-0.387,0.651-0.873,0.651-1.457v-3.477h-1.153c-0.219,0-0.377-0.046-0.476-0.139
				c-0.099-0.092-0.147-0.237-0.147-0.434c0-0.213,0.055-0.37,0.16-0.471c0.106-0.101,0.277-0.152,0.514-0.152h1.793
				c0.215,0,0.363,0.046,0.451,0.139c0.088,0.093,0.131,0.318,0.131,0.678v5.776h0.388c0.274,0,0.473,0.045,0.594,0.135
				c0.12,0.09,0.181,0.238,0.181,0.446c0,0.202-0.058,0.354-0.172,0.455c-0.115,0.101-0.283,0.151-0.502,0.151h-1.279
				c-0.15,0-0.27-0.031-0.354-0.093c-0.085-0.062-0.127-0.146-0.127-0.252v-0.572c-0.538,0.415-1,0.7-1.385,0.854
				s-0.79,0.231-1.217,0.231c-0.926,0-1.62-0.246-2.084-0.737c-0.463-0.491-0.694-1.233-0.694-2.227v-3.789h-0.177
				c-0.383,0-0.644-0.045-0.783-0.135c-0.141-0.09-0.21-0.247-0.21-0.472c0-0.196,0.055-0.344,0.164-0.442
				c0.108-0.098,0.278-0.146,0.509-0.146h1.271c0.195,0,0.332,0.04,0.408,0.118c0.075,0.079,0.113,0.252,0.113,0.522L202.232,55.915
				L202.232,55.915z"/>
			<path fill="#1B446B" d="M216.974,51.714c0.274,0,0.476,0.048,0.603,0.143c0.127,0.096,0.189,0.247,0.189,0.455
				c0,0.197-0.061,0.344-0.178,0.442c-0.117,0.098-0.295,0.147-0.529,0.147h-3.41v2.812c0,0.921,0.119,1.527,0.357,1.819
				s0.646,0.438,1.226,0.438c0.511,0,1.122-0.148,1.835-0.446c0.713-0.297,1.153-0.446,1.322-0.446c0.156,0,0.29,0.056,0.398,0.168
				c0.109,0.112,0.164,0.25,0.164,0.413c0,0.185-0.067,0.347-0.205,0.484c-0.139,0.138-0.373,0.271-0.703,0.4
				c-0.551,0.219-1.045,0.379-1.485,0.48s-0.854,0.151-1.242,0.151c-0.657,0-1.208-0.105-1.653-0.315
				c-0.447-0.21-0.779-0.523-0.998-0.939c-0.112-0.196-0.192-0.429-0.24-0.699c-0.049-0.27-0.071-0.685-0.071-1.246v-0.261v-2.812
				h-1.433c-0.234,0-0.405-0.046-0.513-0.139c-0.106-0.093-0.159-0.243-0.159-0.451c0-0.23,0.071-0.387,0.219-0.471
				c0.146-0.084,0.457-0.126,0.935-0.126h0.951v-1.726v-0.446c0-0.241,0.052-0.419,0.155-0.535c0.104-0.115,0.266-0.172,0.483-0.172
				c0.247,0,0.419,0.07,0.515,0.21c0.096,0.14,0.144,0.46,0.144,0.96v1.709L216.974,51.714L216.974,51.714z"/>
		</g>
	</g>
	<g>
		<g>
			<path fill="#1B446B" d="M26.905,84.233c0.23,0,0.405,0.052,0.526,0.151c0.12,0.104,0.181,0.25,0.181,0.445
				c0,0.203-0.058,0.354-0.172,0.455c-0.115,0.102-0.282,0.152-0.501,0.152h-5.507c-0.23,0-0.405-0.051-0.526-0.152
				c-0.12-0.101-0.181-0.252-0.181-0.455c0-0.195,0.058-0.344,0.173-0.445c0.114-0.102,0.281-0.151,0.501-0.151h1.431v-5.144h-1.381
				c-0.229,0-0.408-0.053-0.534-0.16c-0.126-0.105-0.189-0.258-0.189-0.453c0-0.203,0.059-0.354,0.177-0.455
				c0.118-0.102,0.289-0.152,0.514-0.152h1.33v-0.572c0-1.016,0.289-1.752,0.867-2.209c0.578-0.457,1.513-0.688,2.804-0.688
				c0.629,0,1.093,0.07,1.394,0.211c0.3,0.141,0.45,0.359,0.45,0.656c0,0.175-0.064,0.318-0.193,0.43
				c-0.129,0.113-0.295,0.17-0.497,0.17c-0.101,0-0.344-0.035-0.729-0.102c-0.384-0.068-0.714-0.102-0.989-0.102
				c-0.634,0-1.089,0.133-1.363,0.399c-0.275,0.267-0.413,0.708-0.413,1.326v0.479h2.98c0.23,0,0.405,0.051,0.526,0.151
				s0.181,0.252,0.181,0.455c0,0.19-0.062,0.34-0.185,0.448c-0.124,0.111-0.292,0.166-0.506,0.166H24.16v5.144H26.905z"/>
			<path fill="#1B446B" d="M33.835,84.251h2.795c0.219,0,0.38,0.047,0.484,0.139c0.104,0.093,0.155,0.24,0.155,0.441
				c0,0.229-0.049,0.389-0.147,0.477c-0.098,0.087-0.279,0.131-0.543,0.131h-5.506c-0.219,0-0.385-0.051-0.497-0.152
				c-0.112-0.101-0.168-0.252-0.168-0.455c0-0.195,0.058-0.342,0.172-0.438c0.115-0.096,0.294-0.143,0.535-0.143h1.465v-5.396
				h-0.572c-0.545,0-0.884-0.044-1.019-0.131c-0.135-0.088-0.202-0.246-0.202-0.477c0-0.195,0.055-0.345,0.164-0.441
				c0.109-0.098,0.276-0.146,0.501-0.146h1.92c0.151,0,0.266,0.029,0.345,0.088c0.078,0.06,0.118,0.146,0.118,0.256v1.433
				c0.533-0.668,1.089-1.164,1.667-1.489c0.578-0.326,1.201-0.488,1.869-0.488c0.499,0,0.903,0.102,1.212,0.303
				c0.309,0.203,0.463,0.464,0.463,0.783c0,0.207-0.077,0.393-0.231,0.551c-0.154,0.16-0.324,0.24-0.509,0.24
				c-0.13,0-0.347-0.084-0.652-0.256c-0.307-0.172-0.58-0.258-0.821-0.258c-0.438,0-0.899,0.155-1.385,0.469
				c-0.485,0.311-1.023,0.803-1.612,1.477L33.835,84.251L33.835,84.251z"/>
			<path fill="#1B446B" d="M49.428,81.557c0,1.2-0.41,2.185-1.229,2.946c-0.819,0.764-1.883,1.146-3.189,1.146
				c-1.303,0-2.363-0.382-3.183-1.146c-0.82-0.764-1.229-1.746-1.229-2.946c0-1.201,0.409-2.183,1.229-2.942
				c0.819-0.761,1.88-1.141,3.183-1.141c1.302,0,2.364,0.381,3.187,1.145C49.019,79.382,49.428,80.36,49.428,81.557z M45.008,84.47
				c0.864,0,1.572-0.273,2.126-0.82c0.553-0.548,0.829-1.244,0.829-2.093s-0.278-1.548-0.834-2.101
				c-0.556-0.554-1.263-0.83-2.121-0.83c-0.859,0-1.565,0.276-2.118,0.83c-0.553,0.553-0.829,1.252-0.829,2.101
				c0,0.853,0.275,1.552,0.825,2.097C43.436,84.199,44.143,84.47,45.008,84.47z"/>
			<path fill="#1B446B" d="M58.462,80.75c0-0.793-0.071-1.326-0.213-1.604c-0.143-0.278-0.386-0.417-0.731-0.417
				c-0.412,0-0.74,0.18-0.982,0.539c-0.242,0.359-0.363,0.854-0.363,1.482v3.502h0.151c0.343,0,0.571,0.041,0.688,0.121
				c0.114,0.082,0.172,0.234,0.172,0.459c0,0.203-0.047,0.354-0.143,0.455s-0.241,0.151-0.438,0.151h-1.069
				c-0.242,0-0.406-0.058-0.493-0.169s-0.13-0.354-0.13-0.725V84.3v-3.553v-0.656c0-0.422-0.095-0.754-0.284-0.998
				s-0.449-0.366-0.777-0.366c-0.251,0-0.481,0.073-0.689,0.224c-0.209,0.148-0.389,0.368-0.539,0.662v4.639h0.312
				c0.336,0,0.563,0.041,0.682,0.125c0.118,0.086,0.177,0.236,0.177,0.455c0,0.229-0.048,0.39-0.144,0.477
				c-0.095,0.087-0.277,0.131-0.547,0.131h-2.253c-0.22,0-0.382-0.049-0.486-0.148c-0.104-0.098-0.157-0.25-0.157-0.459
				c0-0.224,0.066-0.377,0.198-0.457c0.132-0.082,0.389-0.123,0.771-0.123h0.168v-5.396h-0.151c-0.393,0-0.661-0.045-0.804-0.136
				c-0.144-0.09-0.215-0.247-0.215-0.473c0-0.195,0.057-0.344,0.169-0.44c0.113-0.099,0.282-0.147,0.508-0.147h1.295
				c0.188,0,0.312,0.032,0.371,0.098c0.061,0.064,0.096,0.201,0.107,0.408c0.229-0.246,0.475-0.43,0.736-0.547
				c0.263-0.117,0.559-0.178,0.888-0.178c0.391,0,0.714,0.085,0.968,0.258c0.254,0.172,0.442,0.43,0.565,0.778
				c0.235-0.354,0.508-0.614,0.816-0.783c0.308-0.168,0.662-0.253,1.061-0.253c0.725,0,1.253,0.234,1.587,0.708
				c0.334,0.472,0.501,1.233,0.501,2.289v3.813h0.135c0.349,0,0.581,0.043,0.699,0.127c0.118,0.084,0.177,0.234,0.177,0.453
				c0,0.203-0.051,0.354-0.151,0.455c-0.102,0.103-0.25,0.152-0.446,0.152h-1.027c-0.228,0-0.395-0.068-0.503-0.203
				s-0.162-0.348-0.162-0.639V80.75H58.462z"/>
			<path fill="#1B446B" d="M63.824,84.251h0.572c0.326,0,0.556,0.045,0.69,0.135c0.134,0.09,0.202,0.238,0.202,0.445
				c0,0.225-0.059,0.383-0.177,0.473c-0.118,0.09-0.34,0.135-0.665,0.135h-2.829c-0.19,0-0.337-0.053-0.438-0.156
				c-0.102-0.104-0.151-0.254-0.151-0.451c0-0.207,0.056-0.354,0.168-0.445c0.112-0.09,0.298-0.135,0.556-0.135h0.278h0.488v-7.662
				H62.03c-0.421,0-0.693-0.039-0.817-0.116c-0.123-0.079-0.185-0.228-0.185-0.447c0-0.188,0.049-0.334,0.147-0.429
				c0.098-0.096,0.245-0.145,0.441-0.145h3.553c0.859,0,1.5,0.041,1.924,0.123c0.424,0.082,0.782,0.221,1.074,0.416
				c0.376,0.254,0.672,0.588,0.888,1.002c0.216,0.416,0.324,0.861,0.324,1.34c0,0.646-0.197,1.199-0.594,1.662
				c-0.396,0.463-0.947,0.785-1.654,0.965c0.146,0.084,0.276,0.183,0.392,0.293c0.115,0.113,0.226,0.248,0.333,0.404l1.692,2.594
				h0.277c0.314,0,0.53,0.043,0.648,0.131c0.118,0.086,0.177,0.236,0.177,0.449c0,0.197-0.049,0.349-0.147,0.451
				c-0.098,0.104-0.242,0.156-0.434,0.156H69.12c-0.275,0-0.545-0.203-0.809-0.607c-0.033-0.033-0.059-0.061-0.075-0.084
				l-1.617-2.449c-0.331-0.5-0.604-0.821-0.82-0.969c-0.217-0.146-0.501-0.219-0.854-0.219h-1.12v3.141H63.824z M63.824,76.589
				v3.402h1.743c0.785,0,1.376-0.144,1.772-0.427c0.396-0.282,0.593-0.705,0.593-1.269c0-0.565-0.193-0.992-0.581-1.278
				c-0.387-0.286-0.965-0.431-1.734-0.431h-1.793V76.589z"/>
			<path fill="#1B446B" d="M77.986,84.369c-0.461,0.416-0.962,0.731-1.503,0.951c-0.542,0.219-1.099,0.328-1.672,0.328
				c-0.836,0-1.511-0.232-2.024-0.697c-0.514-0.468-0.771-1.072-0.771-1.82c0-0.887,0.341-1.573,1.022-2.062
				c0.683-0.487,1.641-0.731,2.876-0.731c0.325,0,0.653,0.021,0.984,0.062c0.331,0.041,0.671,0.107,1.02,0.197v-0.059
				c0-0.646-0.155-1.123-0.464-1.433s-0.788-0.463-1.439-0.463c-0.438,0-0.926,0.116-1.465,0.354
				c-0.539,0.236-0.896,0.354-1.069,0.354c-0.163,0-0.298-0.066-0.404-0.197c-0.106-0.133-0.16-0.303-0.16-0.51
				c0-0.331,0.311-0.611,0.931-0.842s1.413-0.346,2.379-0.346c0.987,0,1.734,0.252,2.239,0.754c0.505,0.502,0.758,1.244,0.758,2.227
				v3.814h0.412c0.398,0,0.665,0.041,0.8,0.125c0.135,0.086,0.202,0.236,0.202,0.455c0,0.203-0.056,0.354-0.168,0.455
				c-0.112,0.102-0.281,0.151-0.505,0.151h-1.322c-0.157,0-0.286-0.049-0.388-0.144c-0.101-0.096-0.168-0.233-0.201-0.414
				L77.986,84.369z M77.919,81.716c-0.31-0.1-0.608-0.176-0.897-0.223s-0.576-0.072-0.862-0.072c-0.864,0-1.547,0.146-2.046,0.438
				c-0.5,0.291-0.75,0.685-0.75,1.179c0,0.383,0.156,0.695,0.468,0.942s0.708,0.371,1.191,0.371c0.713,0,1.373-0.188,1.982-0.562
				s0.914-0.762,0.914-1.166V81.716z"/>
			<path fill="#1B446B" d="M83.265,84.251v-5.396h-0.159c-0.382,0-0.645-0.045-0.788-0.135s-0.214-0.248-0.214-0.473
				c0-0.207,0.059-0.357,0.177-0.449c0.117-0.094,0.309-0.141,0.572-0.141h0.396h0.809c0.151,0,0.27,0.031,0.354,0.094
				c0.084,0.062,0.126,0.146,0.126,0.252v0.572c0.41-0.382,0.815-0.662,1.217-0.847c0.401-0.183,0.818-0.272,1.25-0.272
				c0.848,0,1.515,0.264,2,0.791s0.729,1.258,0.729,2.188v3.813h0.396c0.28,0,0.482,0.047,0.606,0.14
				c0.123,0.093,0.185,0.239,0.185,0.44c0,0.221-0.065,0.375-0.197,0.469c-0.132,0.093-0.366,0.14-0.703,0.14h-1.86
				c-0.359,0-0.59-0.043-0.69-0.127c-0.102-0.084-0.152-0.244-0.152-0.479c0-0.219,0.06-0.369,0.177-0.455
				c0.118-0.084,0.34-0.125,0.666-0.125h0.294V80.75c0-0.658-0.148-1.158-0.446-1.504c-0.297-0.346-0.729-0.519-1.296-0.519
				c-0.573,0-1.078,0.192-1.516,0.581c-0.438,0.389-0.657,0.867-0.657,1.439v3.502h0.295c0.337,0,0.564,0.043,0.682,0.127
				s0.177,0.234,0.177,0.453c0,0.236-0.05,0.396-0.151,0.48s-0.348,0.127-0.74,0.127h-1.533h-0.454c-0.23,0-0.403-0.049-0.518-0.148
				c-0.115-0.098-0.173-0.25-0.173-0.459c0-0.224,0.065-0.377,0.197-0.457c0.132-0.082,0.389-0.123,0.771-0.123h0.171V84.251z"/>
			<path fill="#1B446B" d="M100.163,84.992c0,0.785-0.039,1.344-0.118,1.672c-0.078,0.328-0.213,0.614-0.404,0.862
				c-0.314,0.415-0.755,0.729-1.321,0.947c-0.567,0.216-1.235,0.323-2.004,0.323c-0.64,0-1.107-0.062-1.402-0.186
				c-0.294-0.123-0.441-0.32-0.441-0.59c0-0.174,0.071-0.326,0.215-0.459c0.143-0.131,0.312-0.197,0.509-0.197
				c0.151,0,0.385,0.021,0.699,0.062c0.314,0.043,0.553,0.062,0.716,0.062c0.83,0,1.42-0.189,1.768-0.572
				c0.349-0.381,0.522-1.035,0.522-1.961v-1.02c-0.343,0.398-0.722,0.689-1.137,0.876c-0.416,0.185-0.893,0.276-1.432,0.276
				c-1.05,0-1.918-0.35-2.605-1.049c-0.688-0.697-1.031-1.584-1.031-2.656c0-1.076,0.354-1.971,1.061-2.682
				c0.707-0.709,1.583-1.063,2.627-1.063c0.432,0,0.854,0.079,1.267,0.239s0.83,0.402,1.251,0.729v-0.606
				c0-0.117,0.038-0.205,0.113-0.26c0.076-0.058,0.195-0.086,0.358-0.086h1.271c0.225,0,0.394,0.051,0.506,0.146
				c0.112,0.098,0.168,0.246,0.168,0.441c0,0.225-0.07,0.383-0.21,0.473c-0.141,0.091-0.404,0.136-0.792,0.136h-0.151v6.14H100.163z
				 M96.509,78.904c-0.735,0-1.336,0.229-1.802,0.684c-0.466,0.453-0.698,1.043-0.698,1.768c0,0.713,0.232,1.299,0.698,1.756
				s1.066,0.686,1.802,0.686c0.729,0,1.329-0.229,1.798-0.686c0.469-0.457,0.703-1.043,0.703-1.756s-0.234-1.299-0.703-1.76
				C97.838,79.134,97.238,78.904,96.509,78.904z"/>
			<path fill="#1B446B" d="M104.247,81.919c0.044,0.809,0.318,1.433,0.82,1.873s1.188,0.66,2.059,0.66
				c0.657,0,1.372-0.176,2.147-0.525c0.774-0.352,1.243-0.526,1.405-0.526c0.169,0,0.309,0.054,0.421,0.16
				c0.112,0.106,0.169,0.239,0.169,0.396c0,0.164-0.059,0.312-0.177,0.446c-0.118,0.134-0.306,0.267-0.564,0.396
				c-0.562,0.275-1.141,0.486-1.738,0.633s-1.191,0.219-1.781,0.219c-1.279,0-2.304-0.369-3.072-1.105
				c-0.77-0.738-1.154-1.717-1.154-2.937c0-1.239,0.407-2.243,1.222-3.015c0.813-0.768,1.874-1.152,3.182-1.152
				c1.185,0,2.167,0.359,2.947,1.077c0.78,0.72,1.17,1.589,1.17,2.61c0,0.313-0.065,0.525-0.197,0.631
				c-0.132,0.107-0.49,0.16-1.073,0.16h-0.127H104.247L104.247,81.919z M104.289,80.815h5.48c-0.084-0.668-0.363-1.205-0.838-1.61
				c-0.474-0.408-1.057-0.611-1.747-0.611c-0.746,0-1.375,0.197-1.886,0.59C104.787,79.576,104.451,80.121,104.289,80.815z"/>
			<path fill="#1B446B" d="M127.534,87.518h1.422c0.162,0,0.295,0.045,0.396,0.135c0.102,0.091,0.15,0.21,0.15,0.362
				c0,0.162-0.047,0.293-0.144,0.391c-0.096,0.1-0.226,0.148-0.389,0.148H126.7c-0.174,0-0.318-0.055-0.438-0.16
				c-0.118-0.107-0.178-0.238-0.178-0.396V76.009c0-0.158,0.06-0.289,0.178-0.396c0.117-0.105,0.264-0.16,0.438-0.16h2.271
				c0.162,0,0.293,0.047,0.389,0.139c0.096,0.095,0.145,0.222,0.145,0.385c0,0.15-0.051,0.273-0.151,0.369
				c-0.103,0.097-0.233,0.145-0.397,0.145h-1.42v11.028H127.534z"/>
			<path fill="#1B446B" d="M141.241,80.75c0-0.793-0.07-1.326-0.213-1.604s-0.386-0.417-0.73-0.417c-0.412,0-0.74,0.18-0.982,0.539
				s-0.363,0.854-0.363,1.482v3.502h0.151c0.343,0,0.571,0.041,0.687,0.121c0.114,0.082,0.172,0.234,0.172,0.459
				c0,0.203-0.047,0.354-0.143,0.455s-0.24,0.151-0.438,0.151h-1.069c-0.242,0-0.406-0.058-0.493-0.169s-0.13-0.354-0.13-0.725V84.3
				v-3.553v-0.656c0-0.422-0.095-0.754-0.284-0.998s-0.449-0.366-0.777-0.366c-0.25,0-0.48,0.073-0.688,0.224
				c-0.209,0.148-0.39,0.368-0.539,0.662v4.639h0.312c0.336,0,0.563,0.041,0.683,0.125c0.118,0.086,0.177,0.236,0.177,0.455
				c0,0.229-0.048,0.39-0.144,0.477c-0.095,0.087-0.277,0.131-0.548,0.131h-2.252c-0.221,0-0.383-0.049-0.486-0.148
				c-0.104-0.098-0.157-0.25-0.157-0.459c0-0.224,0.065-0.377,0.198-0.457c0.132-0.082,0.389-0.123,0.771-0.123h0.168v-5.396h-0.151
				c-0.394,0-0.661-0.045-0.804-0.136c-0.145-0.09-0.215-0.247-0.215-0.473c0-0.195,0.057-0.344,0.168-0.44
				c0.113-0.099,0.282-0.147,0.508-0.147h1.295c0.188,0,0.312,0.032,0.371,0.098c0.062,0.064,0.097,0.201,0.107,0.408
				c0.229-0.246,0.475-0.43,0.736-0.547c0.263-0.117,0.559-0.178,0.888-0.178c0.392,0,0.714,0.085,0.968,0.258
				c0.254,0.172,0.442,0.43,0.565,0.778c0.235-0.354,0.508-0.614,0.815-0.783c0.309-0.168,0.662-0.253,1.062-0.253
				c0.726,0,1.253,0.234,1.587,0.708c0.334,0.472,0.501,1.233,0.501,2.289v3.813h0.136c0.348,0,0.58,0.043,0.698,0.127
				s0.177,0.234,0.177,0.453c0,0.203-0.051,0.354-0.15,0.455c-0.103,0.103-0.25,0.152-0.446,0.152h-1.026
				c-0.229,0-0.396-0.068-0.504-0.203c-0.107-0.135-0.162-0.348-0.162-0.639V80.75H141.241z"/>
			<path fill="#1B446B" d="M149.265,84.251h2.703c0.219,0,0.38,0.047,0.483,0.139c0.104,0.093,0.155,0.24,0.155,0.441
				c0,0.229-0.049,0.389-0.147,0.477c-0.098,0.087-0.278,0.131-0.543,0.131h-6.533c-0.225,0-0.393-0.051-0.504-0.152
				c-0.112-0.101-0.17-0.252-0.17-0.455c0-0.195,0.061-0.342,0.178-0.438s0.295-0.143,0.529-0.143h2.568v-5.396h-1.643
				c-0.229,0-0.405-0.053-0.525-0.156c-0.121-0.104-0.181-0.254-0.181-0.451c0-0.195,0.056-0.344,0.168-0.44s0.28-0.147,0.505-0.147
				h2.467c0.152,0,0.271,0.031,0.357,0.094c0.088,0.062,0.131,0.146,0.131,0.252L149.265,84.251L149.265,84.251z M147.708,75.233
				c0-0.604,0.055-0.987,0.164-1.146c0.109-0.156,0.344-0.235,0.702-0.235c0.349,0,0.578,0.065,0.69,0.198
				c0.111,0.132,0.169,0.443,0.169,0.938c0,0.482-0.052,0.781-0.156,0.896s-0.338,0.173-0.703,0.173
				c-0.358,0-0.593-0.054-0.702-0.159S147.708,75.57,147.708,75.233z"/>
			<path fill="#1B446B" d="M155.697,84.251v-5.396h-0.159c-0.382,0-0.645-0.045-0.787-0.135c-0.144-0.09-0.215-0.248-0.215-0.473
				c0-0.207,0.06-0.357,0.178-0.449c0.117-0.094,0.309-0.141,0.572-0.141h0.396h0.809c0.151,0,0.271,0.031,0.354,0.094
				c0.084,0.062,0.126,0.146,0.126,0.252v0.572c0.409-0.382,0.815-0.662,1.217-0.847c0.401-0.183,0.817-0.272,1.25-0.272
				c0.849,0,1.515,0.264,2,0.791s0.729,1.258,0.729,2.188v3.813h0.396c0.28,0,0.481,0.047,0.606,0.14
				c0.123,0.093,0.185,0.239,0.185,0.44c0,0.221-0.065,0.375-0.197,0.469c-0.132,0.093-0.366,0.14-0.702,0.14h-1.86
				c-0.359,0-0.591-0.043-0.69-0.127c-0.102-0.084-0.152-0.244-0.152-0.479c0-0.219,0.061-0.369,0.178-0.455
				c0.117-0.084,0.34-0.125,0.666-0.125h0.294V80.75c0-0.658-0.147-1.158-0.446-1.504c-0.297-0.346-0.729-0.519-1.296-0.519
				c-0.573,0-1.078,0.192-1.517,0.581c-0.438,0.389-0.656,0.867-0.656,1.439v3.502h0.295c0.337,0,0.564,0.043,0.682,0.127
				c0.118,0.084,0.178,0.234,0.178,0.453c0,0.236-0.051,0.396-0.151,0.48s-0.349,0.127-0.74,0.127h-1.532h-0.455
				c-0.229,0-0.402-0.049-0.518-0.148c-0.115-0.098-0.173-0.25-0.173-0.459c0-0.224,0.065-0.377,0.196-0.457
				c0.133-0.082,0.39-0.123,0.771-0.123h0.171V84.251z"/>
			<path fill="#1B446B" d="M168.184,83.089c0.045-0.19,0.104-0.312,0.177-0.366s0.196-0.08,0.371-0.08h1.845
				c0.084,0,0.15,0.017,0.201,0.051s0.075,0.075,0.075,0.126c0,0.028-0.005,0.064-0.017,0.109c-0.013,0.045-0.028,0.088-0.051,0.127
				l-2.315,4.814c-0.039,0.086-0.093,0.151-0.159,0.203c-0.066,0.051-0.141,0.075-0.221,0.075c-0.017,0-0.034-0.004-0.055-0.009
				c-0.02-0.006-0.052-0.018-0.097-0.034l-0.589-0.22c-0.09-0.038-0.157-0.084-0.202-0.135s-0.067-0.108-0.067-0.176
				c0-0.062,0-0.105,0-0.131s0.006-0.053,0.018-0.08L168.184,83.089z"/>
			<path fill="#1B446B" d="M182.631,80.75c0-0.793-0.07-1.326-0.213-1.604s-0.385-0.417-0.73-0.417c-0.412,0-0.74,0.18-0.982,0.539
				s-0.362,0.854-0.362,1.482v3.502h0.151c0.342,0,0.57,0.041,0.687,0.121c0.114,0.082,0.172,0.234,0.172,0.459
				c0,0.203-0.047,0.354-0.144,0.455c-0.096,0.102-0.24,0.151-0.438,0.151h-1.068c-0.242,0-0.406-0.058-0.494-0.169
				c-0.086-0.111-0.129-0.354-0.129-0.725V84.3v-3.553v-0.656c0-0.422-0.096-0.754-0.285-0.998
				c-0.188-0.244-0.448-0.366-0.776-0.366c-0.251,0-0.481,0.073-0.688,0.224c-0.209,0.148-0.39,0.368-0.539,0.662v4.639h0.312
				c0.336,0,0.563,0.041,0.683,0.125c0.117,0.086,0.176,0.236,0.176,0.455c0,0.229-0.047,0.39-0.144,0.477
				c-0.095,0.087-0.276,0.131-0.547,0.131h-2.253c-0.221,0-0.382-0.049-0.486-0.148c-0.104-0.098-0.156-0.25-0.156-0.459
				c0-0.224,0.065-0.377,0.197-0.457c0.133-0.082,0.389-0.123,0.771-0.123h0.168v-5.396h-0.151c-0.393,0-0.661-0.045-0.804-0.136
				c-0.145-0.09-0.215-0.247-0.215-0.473c0-0.195,0.057-0.344,0.169-0.44c0.112-0.099,0.282-0.147,0.508-0.147h1.295
				c0.188,0,0.312,0.032,0.371,0.098c0.062,0.064,0.096,0.201,0.106,0.408c0.229-0.246,0.476-0.43,0.736-0.547
				c0.264-0.117,0.559-0.178,0.889-0.178c0.391,0,0.713,0.085,0.968,0.258c0.254,0.172,0.442,0.43,0.564,0.778
				c0.235-0.354,0.509-0.614,0.816-0.783c0.308-0.168,0.662-0.253,1.062-0.253c0.725,0,1.252,0.234,1.586,0.708
				c0.334,0.472,0.502,1.233,0.502,2.289v3.813h0.135c0.349,0,0.58,0.043,0.699,0.127c0.117,0.084,0.177,0.234,0.177,0.453
				c0,0.203-0.052,0.354-0.151,0.455c-0.102,0.103-0.25,0.152-0.445,0.152h-1.027c-0.229,0-0.396-0.068-0.504-0.203
				c-0.107-0.135-0.161-0.348-0.161-0.639V80.75H182.631z"/>
			<path fill="#1B446B" d="M191.809,84.369c-0.461,0.416-0.962,0.731-1.503,0.951c-0.542,0.219-1.099,0.328-1.672,0.328
				c-0.837,0-1.511-0.232-2.024-0.697c-0.514-0.468-0.771-1.072-0.771-1.82c0-0.887,0.342-1.573,1.022-2.062
				c0.683-0.487,1.642-0.731,2.876-0.731c0.325,0,0.653,0.021,0.984,0.062c0.331,0.041,0.671,0.107,1.02,0.197v-0.059
				c0-0.646-0.154-1.123-0.464-1.433c-0.309-0.31-0.788-0.463-1.438-0.463c-0.438,0-0.926,0.116-1.465,0.354
				c-0.539,0.236-0.896,0.354-1.069,0.354c-0.163,0-0.298-0.066-0.404-0.197c-0.106-0.133-0.16-0.303-0.16-0.51
				c0-0.331,0.312-0.611,0.931-0.842c0.621-0.23,1.414-0.346,2.379-0.346c0.988,0,1.734,0.252,2.24,0.754
				c0.504,0.502,0.758,1.244,0.758,2.227v3.814h0.412c0.397,0,0.664,0.041,0.8,0.125c0.135,0.086,0.202,0.236,0.202,0.455
				c0,0.203-0.057,0.354-0.168,0.455c-0.112,0.102-0.281,0.151-0.506,0.151h-1.322c-0.156,0-0.285-0.049-0.387-0.144
				c-0.102-0.096-0.168-0.233-0.201-0.414L191.809,84.369z M191.741,81.716c-0.31-0.1-0.607-0.176-0.896-0.223
				s-0.576-0.072-0.862-0.072c-0.864,0-1.547,0.146-2.046,0.438c-0.5,0.291-0.75,0.685-0.75,1.179c0,0.383,0.156,0.695,0.468,0.942
				s0.708,0.371,1.191,0.371c0.713,0,1.373-0.188,1.981-0.562c0.609-0.373,0.914-0.762,0.914-1.166V81.716z"/>
			<path fill="#1B446B" d="M198.375,84.251h0.244c0.28,0,0.5,0.051,0.656,0.156c0.157,0.104,0.235,0.25,0.235,0.44
				c0,0.202-0.068,0.353-0.206,0.446c-0.139,0.094-0.354,0.144-0.652,0.144h-2.324c-0.168,0-0.309-0.058-0.42-0.169
				c-0.113-0.111-0.169-0.253-0.169-0.421c0-0.207,0.076-0.358,0.229-0.455c0.151-0.095,0.393-0.144,0.724-0.144h0.169l2.728-2.795
				l-2.678-2.602h-0.117c-0.325,0-0.551-0.044-0.678-0.131c-0.127-0.088-0.188-0.24-0.188-0.459c0-0.23,0.071-0.389,0.214-0.477
				c0.145-0.086,0.417-0.131,0.82-0.131h1.728c0.304,0,0.522,0.051,0.66,0.146c0.138,0.098,0.207,0.253,0.207,0.459
				c0,0.191-0.078,0.338-0.231,0.439c-0.154,0.102-0.378,0.151-0.67,0.151h-0.066l1.811,1.774l1.727-1.774h-0.178
				c-0.313,0-0.547-0.047-0.699-0.14c-0.15-0.094-0.227-0.237-0.227-0.434c0-0.22,0.066-0.379,0.202-0.477
				c0.135-0.098,0.354-0.146,0.655-0.146h2.189c0.174,0,0.315,0.055,0.426,0.164c0.108,0.109,0.164,0.25,0.164,0.424
				c0,0.209-0.07,0.361-0.211,0.459c-0.141,0.1-0.365,0.148-0.674,0.148h-0.234l-2.418,2.518l2.947,2.879h0.084
				c0.213,0,0.379,0.053,0.497,0.156c0.117,0.104,0.177,0.25,0.177,0.441c0,0.225-0.066,0.379-0.201,0.463s-0.414,0.127-0.834,0.127
				h-1.719c-0.297,0-0.517-0.049-0.656-0.145c-0.141-0.094-0.211-0.244-0.211-0.445c0-0.186,0.067-0.331,0.203-0.438
				c0.135-0.107,0.319-0.16,0.555-0.16h0.473l-2.122-2.072L198.375,84.251z"/>
			<path fill="#1B446B" d="M210.836,76.488h-1.42c-0.17,0-0.304-0.046-0.401-0.14c-0.099-0.093-0.147-0.218-0.147-0.374
				c0-0.163,0.047-0.29,0.139-0.385c0.094-0.092,0.225-0.139,0.395-0.139h2.262c0.181,0,0.33,0.055,0.446,0.16
				c0.118,0.107,0.177,0.238,0.177,0.396v11.988c0,0.157-0.059,0.289-0.177,0.396c-0.116,0.106-0.267,0.159-0.446,0.159h-2.262
				c-0.164,0-0.294-0.049-0.39-0.147c-0.097-0.098-0.144-0.229-0.144-0.392c0-0.157,0.049-0.278,0.147-0.366
				c0.099-0.086,0.231-0.13,0.401-0.13h1.42V76.488z"/>
		</g>
	</g>
	<g>
		<g>
			<path fill="#1B446B" d="M26.497,102.13c0.275,0,0.476,0.047,0.603,0.143c0.126,0.096,0.189,0.248,0.189,0.455
				c0,0.197-0.06,0.344-0.177,0.441c-0.118,0.1-0.295,0.147-0.53,0.147h-3.41v2.812c0,0.922,0.119,1.527,0.357,1.82
				c0.238,0.291,0.647,0.438,1.226,0.438c0.511,0,1.122-0.148,1.835-0.446c0.713-0.298,1.153-0.446,1.322-0.446
				c0.157,0,0.29,0.057,0.399,0.168c0.109,0.113,0.164,0.25,0.164,0.414c0,0.184-0.068,0.346-0.206,0.482
				c-0.138,0.139-0.372,0.271-0.703,0.4c-0.55,0.219-1.045,0.379-1.485,0.479c-0.441,0.101-0.855,0.149-1.242,0.149
				c-0.657,0-1.208-0.104-1.654-0.313c-0.446-0.211-0.779-0.522-0.998-0.938c-0.112-0.196-0.192-0.43-0.24-0.699
				c-0.048-0.27-0.071-0.684-0.071-1.246v-0.262v-2.812h-1.432c-0.235,0-0.406-0.047-0.513-0.14c-0.107-0.094-0.16-0.242-0.16-0.45
				c0-0.229,0.072-0.388,0.219-0.472s0.457-0.127,0.935-0.127h0.951v-1.727v-0.445c0-0.242,0.052-0.42,0.156-0.535
				c0.104-0.114,0.265-0.172,0.483-0.172c0.247,0,0.418,0.07,0.514,0.211c0.096,0.14,0.144,0.459,0.144,0.959v1.709h3.324V102.13z"
				/>
			<path fill="#1B446B" d="M38.966,105.557c0,1.2-0.41,2.185-1.229,2.946c-0.819,0.764-1.883,1.146-3.19,1.146
				c-1.303,0-2.363-0.382-3.183-1.146c-0.82-0.764-1.229-1.746-1.229-2.946c0-1.201,0.409-2.183,1.229-2.942
				c0.819-0.761,1.88-1.141,3.183-1.141c1.302,0,2.364,0.381,3.187,1.145C38.557,103.382,38.966,104.36,38.966,105.557z
				 M34.546,108.47c0.864,0,1.572-0.273,2.126-0.82c0.553-0.548,0.829-1.244,0.829-2.093s-0.278-1.548-0.834-2.101
				c-0.556-0.554-1.263-0.83-2.121-0.83c-0.859,0-1.565,0.276-2.118,0.83c-0.553,0.553-0.829,1.252-0.829,2.101
				c0,0.853,0.275,1.552,0.825,2.097C32.974,108.199,33.681,108.47,34.546,108.47z"/>
			<path fill="#1B446B" d="M43.016,108.251h0.572c0.326,0,0.556,0.045,0.69,0.135c0.134,0.09,0.202,0.238,0.202,0.445
				c0,0.225-0.059,0.383-0.177,0.473c-0.118,0.09-0.34,0.135-0.665,0.135H40.81c-0.19,0-0.337-0.053-0.438-0.156
				c-0.102-0.104-0.151-0.254-0.151-0.451c0-0.207,0.056-0.354,0.168-0.445c0.112-0.09,0.298-0.135,0.556-0.135h0.278h0.488v-7.662
				h-0.488c-0.421,0-0.693-0.039-0.817-0.116c-0.123-0.079-0.185-0.228-0.185-0.447c0-0.188,0.049-0.334,0.147-0.429
				c0.098-0.096,0.245-0.145,0.441-0.145h3.553c0.859,0,1.5,0.041,1.924,0.123c0.424,0.082,0.782,0.221,1.074,0.416
				c0.376,0.254,0.672,0.588,0.888,1.002c0.216,0.416,0.324,0.861,0.324,1.34c0,0.646-0.197,1.199-0.594,1.662
				c-0.396,0.463-0.947,0.785-1.654,0.965c0.146,0.084,0.276,0.183,0.392,0.293c0.115,0.113,0.226,0.248,0.333,0.404l1.692,2.594
				h0.277c0.314,0,0.53,0.043,0.648,0.131c0.118,0.086,0.177,0.236,0.177,0.449c0,0.197-0.049,0.349-0.147,0.451
				c-0.098,0.104-0.242,0.156-0.434,0.156h-0.951c-0.275,0-0.545-0.203-0.809-0.607c-0.033-0.033-0.059-0.061-0.075-0.084
				l-1.617-2.449c-0.331-0.5-0.604-0.821-0.82-0.969c-0.217-0.146-0.501-0.219-0.854-0.219h-1.12V108.251z M43.016,100.589v3.402
				h1.743c0.785,0,1.376-0.144,1.772-0.427c0.396-0.282,0.593-0.705,0.593-1.269c0-0.565-0.193-0.992-0.581-1.278
				c-0.387-0.286-0.965-0.431-1.734-0.431h-1.793V100.589z"/>
			<path fill="#1B446B" d="M57.178,108.369c-0.461,0.416-0.962,0.731-1.503,0.951c-0.542,0.219-1.099,0.328-1.672,0.328
				c-0.836,0-1.511-0.232-2.024-0.697c-0.514-0.468-0.771-1.072-0.771-1.82c0-0.887,0.341-1.573,1.022-2.062
				c0.683-0.487,1.641-0.731,2.876-0.731c0.325,0,0.653,0.021,0.984,0.062c0.331,0.041,0.671,0.107,1.02,0.197v-0.059
				c0-0.646-0.155-1.123-0.464-1.433s-0.788-0.463-1.439-0.463c-0.438,0-0.926,0.116-1.465,0.354
				c-0.539,0.236-0.896,0.354-1.069,0.354c-0.163,0-0.298-0.066-0.404-0.197c-0.106-0.133-0.16-0.303-0.16-0.51
				c0-0.331,0.311-0.611,0.931-0.842s1.413-0.346,2.379-0.346c0.987,0,1.734,0.252,2.239,0.754c0.505,0.502,0.758,1.244,0.758,2.227
				v3.814h0.412c0.398,0,0.665,0.041,0.8,0.125c0.135,0.086,0.202,0.236,0.202,0.455c0,0.203-0.056,0.354-0.168,0.455
				c-0.112,0.102-0.281,0.151-0.505,0.151h-1.322c-0.157,0-0.286-0.049-0.388-0.144c-0.101-0.096-0.168-0.233-0.201-0.414
				L57.178,108.369z M57.111,105.716c-0.31-0.1-0.608-0.176-0.897-0.223s-0.576-0.072-0.862-0.072c-0.864,0-1.547,0.146-2.046,0.438
				c-0.5,0.291-0.75,0.685-0.75,1.179c0,0.383,0.156,0.695,0.468,0.942s0.708,0.371,1.191,0.371c0.713,0,1.373-0.188,1.982-0.562
				c0.609-0.373,0.914-0.762,0.914-1.166V105.716z"/>
			<path fill="#1B446B" d="M62.456,108.251v-5.396h-0.159c-0.382,0-0.645-0.045-0.788-0.135c-0.143-0.09-0.214-0.248-0.214-0.473
				c0-0.207,0.059-0.357,0.177-0.449c0.117-0.094,0.309-0.141,0.572-0.141h0.396h0.809c0.151,0,0.27,0.031,0.354,0.094
				c0.084,0.062,0.126,0.146,0.126,0.252v0.572c0.41-0.382,0.815-0.662,1.217-0.847c0.401-0.183,0.818-0.272,1.25-0.272
				c0.848,0,1.515,0.264,2,0.791c0.485,0.527,0.729,1.258,0.729,2.188v3.813h0.396c0.28,0,0.482,0.047,0.606,0.14
				c0.123,0.093,0.185,0.239,0.185,0.44c0,0.221-0.065,0.375-0.197,0.469c-0.132,0.093-0.366,0.14-0.703,0.14h-1.86
				c-0.359,0-0.59-0.043-0.69-0.127c-0.102-0.084-0.152-0.244-0.152-0.479c0-0.219,0.06-0.369,0.177-0.455
				c0.118-0.084,0.34-0.125,0.666-0.125h0.294v-3.502c0-0.658-0.148-1.158-0.446-1.504c-0.297-0.346-0.729-0.519-1.296-0.519
				c-0.573,0-1.078,0.192-1.516,0.581s-0.657,0.867-0.657,1.439v3.502h0.295c0.337,0,0.564,0.043,0.682,0.127
				s0.177,0.234,0.177,0.453c0,0.236-0.05,0.396-0.151,0.48c-0.101,0.084-0.348,0.127-0.74,0.127h-1.533h-0.454
				c-0.23,0-0.403-0.049-0.518-0.148c-0.115-0.098-0.173-0.25-0.173-0.459c0-0.224,0.065-0.377,0.197-0.457
				c0.132-0.082,0.389-0.123,0.771-0.123h0.171V108.251z"/>
			<path fill="#1B446B" d="M79.354,108.992c0,0.785-0.039,1.344-0.118,1.672c-0.078,0.328-0.213,0.614-0.404,0.862
				c-0.314,0.415-0.755,0.729-1.321,0.947c-0.567,0.216-1.235,0.323-2.004,0.323c-0.64,0-1.107-0.062-1.402-0.186
				c-0.294-0.123-0.441-0.32-0.441-0.59c0-0.174,0.071-0.326,0.215-0.459c0.143-0.131,0.312-0.197,0.509-0.197
				c0.151,0,0.385,0.021,0.699,0.062c0.314,0.043,0.553,0.062,0.716,0.062c0.83,0,1.42-0.189,1.768-0.572
				c0.349-0.381,0.522-1.035,0.522-1.961v-1.02c-0.343,0.398-0.722,0.689-1.137,0.876c-0.416,0.185-0.893,0.276-1.432,0.276
				c-1.05,0-1.918-0.35-2.605-1.049c-0.688-0.697-1.031-1.584-1.031-2.656c0-1.076,0.354-1.971,1.061-2.682
				c0.707-0.709,1.583-1.063,2.627-1.063c0.432,0,0.854,0.079,1.267,0.239c0.413,0.16,0.83,0.402,1.251,0.729v-0.606
				c0-0.117,0.038-0.205,0.113-0.26c0.076-0.058,0.195-0.086,0.358-0.086h1.271c0.225,0,0.394,0.051,0.506,0.146
				c0.112,0.098,0.168,0.246,0.168,0.441c0,0.225-0.07,0.383-0.21,0.473c-0.141,0.091-0.404,0.136-0.792,0.136h-0.151v6.14H79.354z
				 M75.7,102.904c-0.735,0-1.336,0.229-1.802,0.684c-0.466,0.453-0.698,1.043-0.698,1.768c0,0.713,0.232,1.299,0.698,1.756
				s1.066,0.686,1.802,0.686c0.729,0,1.329-0.229,1.798-0.686c0.469-0.457,0.703-1.043,0.703-1.756s-0.234-1.299-0.703-1.76
				C77.029,103.134,76.429,102.904,75.7,102.904z"/>
			<path fill="#1B446B" d="M83.438,105.919c0.044,0.809,0.318,1.433,0.82,1.873c0.502,0.44,1.188,0.66,2.059,0.66
				c0.657,0,1.372-0.176,2.147-0.525c0.774-0.352,1.243-0.526,1.405-0.526c0.169,0,0.309,0.054,0.421,0.16s0.169,0.239,0.169,0.396
				c0,0.164-0.059,0.312-0.177,0.446c-0.118,0.134-0.306,0.267-0.563,0.396c-0.562,0.275-1.141,0.486-1.738,0.633
				s-1.191,0.219-1.781,0.219c-1.279,0-2.304-0.369-3.072-1.105c-0.77-0.738-1.154-1.717-1.154-2.937
				c0-1.239,0.407-2.243,1.222-3.015c0.813-0.768,1.874-1.152,3.182-1.152c1.185,0,2.167,0.359,2.947,1.077
				c0.78,0.72,1.17,1.589,1.17,2.61c0,0.313-0.065,0.525-0.197,0.631c-0.132,0.107-0.49,0.16-1.073,0.16h-0.127H83.438
				L83.438,105.919z M83.48,104.815h5.48c-0.084-0.668-0.363-1.205-0.838-1.61c-0.474-0.408-1.057-0.611-1.747-0.611
				c-0.746,0-1.375,0.197-1.886,0.59C83.978,103.576,83.642,104.121,83.48,104.815z"/>
		</g>
	</g>
	<g>
		<g>
			<path fill="#1B446B" d="M23.531,19.406l1.956-5.814c0.123-0.383,0.294-0.662,0.512-0.835c0.219-0.175,0.509-0.262,0.871-0.262
				h1.598c0.465,0,0.798,0.089,1,0.267c0.202,0.178,0.303,0.468,0.303,0.872c0,0.369-0.098,0.649-0.292,0.841
				c-0.195,0.191-0.477,0.287-0.846,0.287h-0.164l0.297,7.649h0.174c0.369,0,0.646,0.094,0.831,0.282s0.277,0.463,0.277,0.826
				c0,0.403-0.097,0.694-0.292,0.872c-0.194,0.178-0.524,0.267-0.989,0.267H26.46c-0.469,0-0.801-0.087-0.998-0.262
				c-0.196-0.174-0.294-0.466-0.294-0.876c0-0.362,0.095-0.637,0.284-0.826c0.189-0.188,0.47-0.282,0.842-0.282h0.166l-0.154-6.255
				l-1.494,4.655c-0.109,0.349-0.265,0.6-0.466,0.753c-0.201,0.154-0.479,0.231-0.834,0.231c-0.355,0-0.637-0.077-0.845-0.231
				c-0.208-0.153-0.367-0.405-0.476-0.753l-1.484-4.655l-0.144,6.255h0.164c0.369,0,0.647,0.094,0.836,0.282
				c0.188,0.188,0.282,0.463,0.282,0.826c0,0.403-0.099,0.694-0.297,0.872c-0.198,0.178-0.526,0.267-0.984,0.267h-2.317
				c-0.458,0-0.786-0.089-0.984-0.267c-0.198-0.178-0.297-0.468-0.297-0.872c0-0.362,0.094-0.637,0.282-0.826
				c0.188-0.188,0.467-0.282,0.836-0.282h0.164l0.297-7.649h-0.164c-0.369,0-0.651-0.096-0.846-0.287
				c-0.194-0.191-0.292-0.472-0.292-0.841c0-0.403,0.101-0.694,0.303-0.872c0.201-0.178,0.535-0.267,1-0.267h1.598
				c0.355,0,0.64,0.085,0.855,0.256s0.391,0.451,0.528,0.841L23.531,19.406z"/>
			<path fill="#1B446B" d="M40.301,22.41h0.164c0.369,0,0.651,0.097,0.846,0.292c0.195,0.194,0.292,0.473,0.292,0.835
				c0,0.396-0.101,0.682-0.302,0.856c-0.202,0.175-0.535,0.262-1,0.262h-0.964c-0.342,0-0.597-0.065-0.764-0.195
				c-0.168-0.13-0.306-0.366-0.416-0.708c-0.567,0.376-1.169,0.663-1.805,0.861c-0.636,0.198-1.278,0.297-1.928,0.297
				c-1.101,0-1.965-0.273-2.594-0.82s-0.943-1.295-0.943-2.246c0-1.025,0.407-1.822,1.22-2.389c0.813-0.567,1.955-0.851,3.425-0.851
				c0.328,0,0.677,0.017,1.046,0.051c0.369,0.034,0.783,0.089,1.241,0.164v-0.195c0-0.615-0.148-1.083-0.446-1.405
				c-0.297-0.321-0.736-0.481-1.317-0.481c-0.451,0-1.027,0.167-1.728,0.502c-0.701,0.335-1.215,0.502-1.543,0.502
				c-0.321,0-0.581-0.094-0.779-0.282c-0.198-0.188-0.297-0.436-0.297-0.743c0-0.554,0.405-0.993,1.215-1.317
				c0.811-0.325,1.913-0.487,3.307-0.487c1.456,0,2.499,0.28,3.127,0.841s0.943,1.511,0.943,2.851V22.41z M37.819,20.431
				c-0.342-0.075-0.656-0.131-0.943-0.169c-0.287-0.038-0.554-0.057-0.8-0.057c-0.752,0-1.342,0.126-1.769,0.379
				c-0.428,0.253-0.641,0.602-0.641,1.046c0,0.396,0.137,0.699,0.41,0.908s0.667,0.312,1.179,0.312c0.472,0,0.916-0.068,1.333-0.205
				s0.827-0.349,1.23-0.636L37.819,20.431L37.819,20.431z"/>
			<path fill="#1B446B" d="M46.771,23.692v2.789h1.302c0.465,0,0.798,0.089,1,0.267c0.202,0.178,0.303,0.468,0.303,0.872
				c0,0.396-0.099,0.68-0.297,0.851c-0.198,0.171-0.533,0.256-1.005,0.256h-4.348c-0.472,0-0.803-0.084-0.995-0.251
				s-0.287-0.453-0.287-0.856c0-0.403,0.098-0.694,0.292-0.872c0.195-0.178,0.525-0.267,0.99-0.267h0.605v-9.054h-0.164
				c-0.362,0-0.639-0.096-0.831-0.287s-0.287-0.472-0.287-0.841c0-0.403,0.096-0.69,0.287-0.861s0.523-0.256,0.995-0.256h1.579
				c0.198,0,0.345,0.036,0.441,0.107c0.096,0.072,0.144,0.176,0.144,0.313v0.738c0.349-0.465,0.771-0.815,1.266-1.051
				c0.496-0.235,1.055-0.354,1.677-0.354c1.401,0,2.563,0.448,3.486,1.343c0.923,0.895,1.384,2.023,1.384,3.384
				c0,1.422-0.448,2.599-1.343,3.533c-0.896,0.933-2.023,1.399-3.384,1.399c-0.554,0-1.071-0.077-1.554-0.229
				C47.545,24.209,47.126,23.986,46.771,23.692z M49.14,17.119c-0.677,0-1.234,0.25-1.671,0.749
				c-0.438,0.499-0.656,1.138-0.656,1.917c0,0.779,0.219,1.418,0.656,1.917c0.437,0.499,0.995,0.749,1.671,0.749
				c0.676,0,1.236-0.251,1.676-0.753c0.441-0.503,0.662-1.14,0.662-1.913c0-0.779-0.219-1.418-0.656-1.917
				C50.385,17.369,49.823,17.119,49.14,17.119z"/>
		</g>
	</g>
</g>
</svg>
