<?xml version="1.0" encoding="utf-8"?>
<!-- Generator: Adobe Illustrator 16.0.0, SVG Export Plug-In . SVG Version: 6.00 Build 0)  -->
<!DOCTYPE svg PUBLIC "-//W3C//DTD SVG 1.1//EN" "http://www.w3.org/Graphics/SVG/1.1/DTD/svg11.dtd">
<svg version="1.1" id="Layer_1" xmlns="http://www.w3.org/2000/svg" xmlns:xlink="http://www.w3.org/1999/xlink" x="0px" y="0px"
	 width="78.986px" height="57.988px" viewBox="0 0 78.986 57.988" enable-background="new 0 0 78.986 57.988" xml:space="preserve">
<g>
	<g>
		<path fill="#84A2CD" d="M78.987,51.312c0,3.688-2.987,6.676-6.676,6.676H6.676C2.989,57.988,0,55,0,51.312V6.676
			C0,2.989,2.989,0,6.676,0h65.635c3.688,0,6.676,2.989,6.676,6.676V51.312z"/>
	</g>
</g>
<g>
	<path fill="#1B446B" d="M27.543,25.963c0.287-0.308,0.619-0.542,0.995-0.702c0.376-0.16,0.778-0.241,1.21-0.241
		c0.93,0,1.6,0.275,2.01,0.825c0.41,0.551,0.615,1.472,0.615,2.764v3.887h0.144c0.321,0,0.562,0.094,0.723,0.28
		c0.16,0.188,0.241,0.464,0.241,0.826c0,0.409-0.084,0.703-0.251,0.877s-0.453,0.263-0.855,0.263H30.63
		c-0.186,0-0.328-0.039-0.432-0.119c-0.103-0.078-0.153-0.187-0.153-0.322v-5.793c0-0.458-0.072-0.8-0.215-1.025
		c-0.144-0.225-0.353-0.338-0.625-0.338c-0.343,0-0.607,0.152-0.795,0.457c-0.188,0.305-0.282,0.74-0.282,1.307v3.589h0.153
		c0.314,0,0.555,0.094,0.719,0.28c0.164,0.188,0.246,0.464,0.246,0.826c0,0.41-0.085,0.703-0.257,0.877
		c-0.171,0.175-0.458,0.263-0.86,0.263h-1.743c-0.185,0-0.332-0.039-0.441-0.119c-0.108-0.078-0.164-0.187-0.164-0.322v-5.793
		c0-0.458-0.067-0.8-0.204-1.025c-0.138-0.225-0.343-0.338-0.615-0.338c-0.342,0-0.61,0.154-0.806,0.461
		c-0.194,0.308-0.292,0.742-0.292,1.302v3.588h0.154c0.321,0,0.562,0.092,0.724,0.277c0.16,0.184,0.24,0.461,0.24,0.83
		c0,0.41-0.085,0.703-0.256,0.877s-0.458,0.262-0.861,0.262h-2.327c-0.396,0-0.681-0.09-0.852-0.268s-0.256-0.469-0.256-0.871
		c0-0.361,0.081-0.637,0.241-0.826c0.16-0.188,0.4-0.281,0.723-0.281h0.145v-4.982h-0.145c-0.321,0-0.565-0.097-0.732-0.292
		c-0.167-0.194-0.251-0.473-0.251-0.835c0-0.396,0.087-0.682,0.262-0.856c0.174-0.175,0.463-0.262,0.866-0.262h1.384
		c0.28,0,0.47,0.057,0.568,0.169c0.1,0.113,0.149,0.33,0.149,0.651c0.253-0.349,0.557-0.613,0.913-0.795
		c0.355-0.181,0.752-0.271,1.189-0.271c0.396,0,0.741,0.077,1.035,0.23C27.068,25.405,27.325,25.642,27.543,25.963z"/>
	<path fill="#1B446B" d="M40.924,32.496h2.205c0.472,0,0.807,0.086,1.005,0.256c0.198,0.172,0.298,0.455,0.298,0.852
		c0,0.402-0.102,0.693-0.303,0.871c-0.202,0.178-0.535,0.268-1,0.268h-6.933c-0.465,0-0.798-0.09-1-0.268
		c-0.201-0.178-0.303-0.469-0.303-0.871c0-0.396,0.099-0.68,0.292-0.852c0.195-0.17,0.532-0.256,1.01-0.256h2.205v-4.984h-1.158
		c-0.458,0-0.786-0.087-0.984-0.261c-0.198-0.175-0.297-0.463-0.297-0.867c0-0.404,0.096-0.69,0.287-0.861
		c0.19-0.171,0.522-0.256,0.995-0.256h3.086c0.19,0,0.338,0.04,0.44,0.118c0.104,0.078,0.153,0.187,0.153,0.323L40.924,32.496
		L40.924,32.496z M39.448,20.631c0.499,0,0.831,0.096,0.995,0.287s0.246,0.649,0.246,1.374c0,0.697-0.074,1.13-0.22,1.297
		c-0.147,0.168-0.494,0.251-1.041,0.251c-0.533,0-0.877-0.079-1.03-0.236s-0.23-0.472-0.23-0.943c0-0.875,0.079-1.432,0.235-1.671
		C38.56,20.751,38.908,20.631,39.448,20.631z"/>
	<path fill="#1B446B" d="M56.398,32.475h0.134c0.384,0,0.671,0.095,0.861,0.282c0.191,0.187,0.287,0.47,0.287,0.846
		c0,0.402-0.098,0.693-0.293,0.871c-0.194,0.178-0.524,0.268-0.989,0.268h-2.521c-0.458,0-0.788-0.09-0.989-0.268
		c-0.202-0.178-0.303-0.469-0.303-0.871c0-0.376,0.098-0.658,0.292-0.846c0.194-0.188,0.486-0.282,0.877-0.282h0.123v-2.964
		c0-0.819-0.115-1.402-0.345-1.747c-0.229-0.345-0.608-0.518-1.143-0.518c-0.568,0-1.031,0.207-1.39,0.621
		c-0.359,0.414-0.538,0.962-0.538,1.646v2.963h0.123c0.389,0,0.68,0.096,0.871,0.281c0.19,0.188,0.287,0.471,0.287,0.847
		c0,0.403-0.101,0.692-0.298,0.871c-0.198,0.178-0.526,0.269-0.983,0.269h-2.543c-0.459,0-0.787-0.091-0.984-0.269
		c-0.199-0.179-0.298-0.468-0.298-0.871c0-0.376,0.096-0.657,0.287-0.847c0.19-0.188,0.48-0.281,0.872-0.281h0.123v-4.963h-0.175
		c-0.369,0-0.649-0.094-0.842-0.282c-0.191-0.188-0.287-0.463-0.287-0.826c0-0.403,0.101-0.694,0.298-0.872
		c0.198-0.178,0.532-0.267,1.006-0.267h1.742c0.19,0,0.337,0.038,0.437,0.113c0.099,0.075,0.148,0.185,0.148,0.328v0.8
		c0.313-0.492,0.716-0.863,1.205-1.113c0.487-0.249,1.054-0.374,1.695-0.374c1.094,0,1.909,0.332,2.446,0.995
		c0.536,0.663,0.805,1.675,0.805,3.035L56.398,32.475L56.398,32.475z"/>
</g>
</svg>
