<?xml version="1.0" encoding="utf-8"?>
<!-- Generator: Adobe Illustrator 16.0.0, SVG Export Plug-In . SVG Version: 6.00 Build 0)  -->
<!DOCTYPE svg PUBLIC "-//W3C//DTD SVG 1.1//EN" "http://www.w3.org/Graphics/SVG/1.1/DTD/svg11.dtd">
<svg version="1.1" id="Layer_1" xmlns="http://www.w3.org/2000/svg" xmlns:xlink="http://www.w3.org/1999/xlink" x="0px" y="0px"
	 width="57.986px" height="57.988px" viewBox="0 0 57.986 57.988" enable-background="new 0 0 57.986 57.988" xml:space="preserve">
<g>
	<g>
		<path fill="#46B7BE" d="M57.987,51.311c0,3.688-2.987,6.678-6.676,6.678H6.676C2.989,57.988,0,54.999,0,51.311V6.676
			C0,2.989,2.989,0,6.676,0h44.636C55,0,57.988,2.989,57.988,6.676L57.987,51.311L57.987,51.311z"/>
		<g>
			<path fill="#0C5657" d="M30.203,27.6l4.465-1.951c0.104-0.047,0.185-0.076,0.236-0.088c0.053-0.012,0.104-0.018,0.149-0.018
				c0.117,0,0.211,0.044,0.281,0.132c0.069,0.088,0.158,0.284,0.264,0.589l0.475,1.477c0.048,0.129,0.082,0.249,0.105,0.36
				s0.035,0.196,0.035,0.255c0,0.105-0.044,0.193-0.132,0.264c-0.088,0.071-0.227,0.123-0.413,0.158l-4.746,1.02l3.233,3.656
				c0.082,0.082,0.146,0.167,0.193,0.255s0.07,0.173,0.07,0.255c0,0.06-0.053,0.138-0.158,0.237
				c-0.105,0.099-0.246,0.214-0.422,0.343l-1.23,0.896c-0.129,0.105-0.252,0.186-0.369,0.237c-0.116,0.052-0.211,0.079-0.28,0.079
				c-0.07,0-0.146-0.035-0.229-0.105c-0.083-0.069-0.158-0.163-0.229-0.28l-2.461-4.185L26.6,35.37
				c-0.082,0.141-0.161,0.239-0.237,0.299c-0.075,0.06-0.148,0.088-0.22,0.088s-0.167-0.032-0.29-0.097
				c-0.123-0.065-0.255-0.149-0.396-0.255l-1.23-0.896c-0.188-0.129-0.325-0.239-0.413-0.334c-0.088-0.094-0.132-0.176-0.132-0.246
				c0-0.081,0.023-0.167,0.07-0.255s0.11-0.173,0.192-0.255l3.271-3.586l-4.793-1.055c-0.195-0.035-0.345-0.091-0.448-0.167
				c-0.103-0.076-0.155-0.161-0.155-0.255c0-0.059,0.013-0.149,0.037-0.272c0.023-0.123,0.062-0.249,0.109-0.378l0.529-1.441V26.23
				c0.17-0.457,0.341-0.686,0.512-0.686c0.072,0,0.147,0.009,0.229,0.026c0.078,0.018,0.155,0.044,0.229,0.079l4.402,2.021
				l-0.511-4.904V22.59c0-0.211,0.06-0.354,0.176-0.431c0.117-0.077,0.357-0.114,0.722-0.114H29.8c0.352,0,0.586,0.038,0.703,0.114
				c0.117,0.076,0.176,0.22,0.176,0.431v0.176L30.203,27.6z"/>
		</g>
	</g>
</g>
</svg>
