<?xml version="1.0" encoding="utf-8"?>
<!-- Generator: Adobe Illustrator 16.0.0, SVG Export Plug-In . SVG Version: 6.00 Build 0)  -->
<!DOCTYPE svg PUBLIC "-//W3C//DTD SVG 1.1//EN" "http://www.w3.org/Graphics/SVG/1.1/DTD/svg11.dtd">
<svg version="1.1" id="Layer_1" xmlns="http://www.w3.org/2000/svg" xmlns:xlink="http://www.w3.org/1999/xlink" x="0px" y="0px"
	 width="82px" height="54px" viewBox="0 0 82 54" enable-background="new 0 0 82 54" xml:space="preserve">
<g>
	<path fill="#46B7BE" d="M82,45.496C82,50.193,78.193,54,73.496,54H8.504C3.807,54,0,50.193,0,45.496V8.504C0,3.807,3.807,0,8.504,0
		h64.992C78.193,0,82,3.807,82,8.504V45.496z"/>
	<g>
		<path fill="#0C5657" d="M24.417,32.473c1.055,0,1.896,0.267,2.522,0.799c0.626,0.533,0.94,1.239,0.94,2.119
			c0,0.879-0.316,1.597-0.949,2.152c-0.633,0.557-1.471,0.835-2.514,0.835c-1.008,0-1.834-0.28-2.479-0.844
			s-0.967-1.277-0.967-2.146c0-0.854,0.322-1.556,0.967-2.101S23.409,32.473,24.417,32.473z M26.719,18.321l-0.668,11.407
			c-0.023,0.388-0.185,0.707-0.483,0.959c-0.298,0.252-0.683,0.377-1.151,0.377c-0.445,0-0.82-0.129-1.125-0.387
			s-0.469-0.574-0.492-0.949l-0.686-11.407V18.18c0-0.691,0.205-1.236,0.615-1.635s0.973-0.598,1.688-0.598
			c0.727,0,1.292,0.193,1.696,0.58c0.404,0.387,0.606,0.926,0.606,1.617V18.321z"/>
		<path fill="#0C5657" d="M38.18,22.136h15.732c0.504,0,0.9,0.161,1.188,0.483c0.289,0.322,0.43,0.759,0.43,1.31
			c0,0.562-0.143,1.005-0.43,1.327c-0.287,0.322-0.684,0.483-1.188,0.483H38.18c-0.504,0-0.904-0.161-1.203-0.483
			c-0.299-0.322-0.449-0.765-0.449-1.327c0-0.551,0.15-0.987,0.449-1.31C37.276,22.296,37.676,22.136,38.18,22.136z M38.18,28.042
			h15.732c0.492,0,0.885,0.161,1.178,0.483s0.439,0.759,0.439,1.31c0,0.562-0.143,1.005-0.43,1.327s-0.685,0.482-1.188,0.482H38.18
			c-0.504,0-0.904-0.164-1.203-0.492c-0.299-0.327-0.449-0.768-0.449-1.317c0-0.539,0.15-0.974,0.449-1.301
			C37.276,28.206,37.676,28.042,38.18,28.042z"/>
	</g>
</g>
</svg>
