<?xml version="1.0" encoding="utf-8"?>
<!-- Generator: Adobe Illustrator 16.0.0, SVG Export Plug-In . SVG Version: 6.00 Build 0)  -->
<!DOCTYPE svg PUBLIC "-//W3C//DTD SVG 1.1//EN" "http://www.w3.org/Graphics/SVG/1.1/DTD/svg11.dtd">
<svg version="1.1" id="Layer_1" xmlns="http://www.w3.org/2000/svg" xmlns:xlink="http://www.w3.org/1999/xlink" x="0px" y="0px"
	 width="82px" height="54px" viewBox="0 0 82 54" enable-background="new 0 0 82 54" xml:space="preserve">
<g>
	<path fill="#46B7BE" d="M82,45.496C82,50.191,78.193,54,73.497,54H8.504C3.807,54,0,50.191,0,45.496V8.504C0,3.807,3.807,0,8.504,0
		h64.993C78.193,0,82,3.807,82,8.504V45.496z"/>
	<path fill="#0C5657" d="M32.829,37.327v-20.7c0-0.663,0.212-1.184,0.636-1.561c0.424-0.378,0.999-0.567,1.723-0.567
		c0.74,0,1.322,0.189,1.746,0.567c0.424,0.377,0.636,0.898,0.636,1.561v20.7c0,0.662-0.212,1.19-0.636,1.584s-1.006,0.59-1.746,0.59
		c-0.725,0-1.299-0.196-1.723-0.59C33.041,38.52,32.829,37.989,32.829,37.327z M40.6,37.327v-20.7c0-0.647,0.212-1.164,0.636-1.55
		c0.424-0.385,0.999-0.578,1.723-0.578c0.74,0,1.322,0.189,1.746,0.567c0.424,0.377,0.636,0.898,0.636,1.561v20.7
		c0,0.662-0.216,1.19-0.647,1.584s-1.01,0.59-1.733,0.59c-0.709,0-1.28-0.196-1.712-0.59C40.816,38.52,40.6,37.989,40.6,37.327z"/>
</g>
</svg>
