<?xml version="1.0" encoding="utf-8"?>
<!-- Generator: Adobe Illustrator 16.0.0, SVG Export Plug-In . SVG Version: 6.00 Build 0)  -->
<!DOCTYPE svg PUBLIC "-//W3C//DTD SVG 1.1//EN" "http://www.w3.org/Graphics/SVG/1.1/DTD/svg11.dtd">
<svg version="1.1" id="Layer_1" xmlns="http://www.w3.org/2000/svg" xmlns:xlink="http://www.w3.org/1999/xlink" x="0px" y="0px"
	 width="252.188px" height="215.297px" viewBox="0 0 252.188 215.297" enable-background="new 0 0 252.188 215.297"
	 xml:space="preserve">
<g>
	<path fill="#79479C" d="M252.188,195.604c0,10.875-8.817,19.693-19.694,19.693H19.695C8.818,215.297,0,206.479,0,195.604V19.695
		C0,8.818,8.818,0,19.695,0h212.799c10.877,0,19.694,8.818,19.694,19.695V195.604z"/>
	<rect x="231.2" y="27.065" fill="#4C2870" width="20.987" height="158.107"/>
	<path fill="#FFFFFF" d="M70.898,40.722H38.344c-3.617,0-6.631,3.014-6.631,6.632v74.892c0,3.618,3.014,6.632,6.631,6.632h32.433
		c3.617,0,6.633-3.014,6.633-6.632V47.354C77.409,43.616,74.515,40.722,70.898,40.722z M51.004,46.991h7.233
		c0.361,0,0.603,0.242,0.603,0.604c0,0.362-0.241,0.604-0.603,0.604h-7.233c-0.361,0-0.604-0.241-0.604-0.604
		C50.522,47.233,50.762,46.991,51.004,46.991z M54.622,125.381c-2.171,0-3.979-1.81-3.979-3.979c0-2.17,1.809-3.979,3.979-3.979
		c2.167,0,3.977,1.809,3.977,3.979C58.599,123.571,56.79,125.381,54.622,125.381z M74.875,113.083c0,0.722-0.602,1.326-1.326,1.326
		H35.691c-0.723,0-1.324-0.604-1.324-1.326V54.949c0-0.723,0.603-1.326,1.324-1.326H73.55c0.725,0,1.326,0.603,1.326,1.326
		L74.875,113.083L74.875,113.083z"/>
	<g enable-background="new    ">
		<path fill="#FFFFFF" d="M203.555,35.95v4.597c0,0.814,0.143,1.393,0.426,1.736c0.285,0.342,0.758,0.514,1.42,0.514
			s1.137-0.173,1.424-0.519s0.431-0.923,0.431-1.731V35.95h-0.141c-0.311,0-0.546-0.082-0.708-0.246
			c-0.16-0.164-0.241-0.404-0.241-0.721c0-0.346,0.083-0.595,0.251-0.747c0.166-0.152,0.446-0.229,0.839-0.229h2.197
			c0.398,0,0.681,0.076,0.849,0.229c0.166,0.152,0.25,0.401,0.25,0.747c0,0.316-0.08,0.557-0.242,0.721
			c-0.16,0.164-0.396,0.246-0.707,0.246h-0.149v4.562c0,1.477-0.317,2.545-0.954,3.203c-0.635,0.66-1.659,0.989-3.071,0.989
			c-1.477,0-2.536-0.323-3.177-0.972c-0.643-0.646-0.963-1.721-0.963-3.221V35.95h-0.149c-0.316,0-0.557-0.082-0.721-0.246
			s-0.246-0.404-0.246-0.721c0-0.346,0.087-0.595,0.259-0.747c0.174-0.152,0.459-0.229,0.857-0.229h2.268
			c0.393,0,0.677,0.076,0.853,0.229s0.264,0.401,0.264,0.747c0,0.316-0.083,0.557-0.251,0.721c-0.166,0.164-0.408,0.246-0.725,0.246
			H203.555z"/>
		<path fill="#FFFFFF" d="M217.301,35.95v6.557h1.477c0.398,0,0.684,0.075,0.857,0.224c0.172,0.15,0.259,0.392,0.259,0.726
			c0,0.34-0.088,0.588-0.264,0.743s-0.46,0.232-0.853,0.232h-5.221c-0.398,0-0.684-0.076-0.857-0.229
			c-0.172-0.152-0.259-0.401-0.259-0.747c0-0.34,0.085-0.583,0.255-0.729s0.457-0.22,0.861-0.22h1.477V35.95h-1.477
			c-0.398,0-0.684-0.076-0.857-0.229c-0.172-0.152-0.259-0.398-0.259-0.738c0-0.346,0.085-0.592,0.255-0.738s0.457-0.22,0.861-0.22
			h5.221c0.416,0,0.706,0.073,0.87,0.22s0.246,0.393,0.246,0.738c0,0.34-0.085,0.586-0.255,0.738s-0.457,0.229-0.861,0.229H217.301z
			"/>
	</g>
	<g enable-background="new    ">
		<path fill="#FFFFFF" d="M177.39,64.106h0.149c0.316,0,0.557,0.081,0.721,0.241c0.164,0.162,0.246,0.397,0.246,0.708
			c0,0.346-0.086,0.595-0.26,0.747c-0.172,0.152-0.458,0.229-0.856,0.229h-2.646c-0.404,0-0.691-0.074-0.861-0.225
			c-0.17-0.148-0.255-0.399-0.255-0.751c0-0.34,0.085-0.583,0.255-0.729s0.457-0.22,0.861-0.22h0.308l-0.36-1.028h-3.797
			l-0.378,1.028h0.308c0.398,0,0.684,0.075,0.857,0.224c0.172,0.15,0.259,0.392,0.259,0.726c0,0.346-0.087,0.595-0.259,0.747
			c-0.174,0.152-0.459,0.229-0.857,0.229h-2.268c-0.404,0-0.691-0.076-0.861-0.229s-0.255-0.401-0.255-0.747
			c0-0.311,0.082-0.546,0.246-0.708c0.164-0.16,0.404-0.241,0.721-0.241h0.149l2.355-6.557h-0.703c-0.398,0-0.684-0.076-0.857-0.229
			c-0.172-0.152-0.259-0.398-0.259-0.738c0-0.346,0.087-0.595,0.259-0.747c0.174-0.152,0.459-0.229,0.857-0.229h3.296
			c0.521,0,0.888,0.281,1.099,0.844v0.026L177.39,64.106z M172.784,57.55l-1.274,3.709h2.549L172.784,57.55z"/>
		<path fill="#FFFFFF" d="M186.372,58.385c0.07-0.229,0.181-0.4,0.329-0.514c0.15-0.115,0.342-0.172,0.576-0.172
			c0.316,0,0.542,0.096,0.677,0.285c0.135,0.191,0.202,0.521,0.202,0.989v1.441c0,0.357-0.073,0.621-0.22,0.791
			s-0.372,0.255-0.677,0.255c-0.217,0-0.398-0.05-0.545-0.149s-0.302-0.29-0.466-0.571c-0.234-0.398-0.542-0.692-0.923-0.883
			s-0.847-0.286-1.397-0.286c-0.686,0-1.247,0.224-1.683,0.673c-0.438,0.447-0.655,1.021-0.655,1.718
			c0,0.732,0.226,1.321,0.677,1.767s1.058,0.668,1.819,0.668c0.691,0,1.378-0.191,2.062-0.576c0.682-0.383,1.1-0.575,1.252-0.575
			c0.217,0,0.396,0.083,0.541,0.251c0.143,0.166,0.215,0.376,0.215,0.628c0,0.551-0.418,1.043-1.252,1.477
			c-0.836,0.434-1.827,0.65-2.976,0.65c-1.418,0-2.571-0.398-3.458-1.195c-0.889-0.797-1.332-1.822-1.332-3.076
			c0-1.225,0.439-2.244,1.318-3.059s1.986-1.222,3.322-1.222c0.451,0,0.891,0.056,1.318,0.167S185.95,58.15,186.372,58.385z"/>
		<path fill="#FFFFFF" d="M197.174,58.385c0.07-0.229,0.18-0.4,0.33-0.514c0.148-0.115,0.341-0.172,0.575-0.172
			c0.316,0,0.542,0.096,0.677,0.285c0.135,0.191,0.202,0.521,0.202,0.989v1.441c0,0.357-0.073,0.621-0.22,0.791
			s-0.372,0.255-0.677,0.255c-0.217,0-0.398-0.05-0.545-0.149s-0.302-0.29-0.466-0.571c-0.234-0.398-0.542-0.692-0.923-0.883
			s-0.847-0.286-1.397-0.286c-0.686,0-1.246,0.224-1.684,0.673c-0.436,0.447-0.654,1.021-0.654,1.718
			c0,0.732,0.226,1.321,0.677,1.767s1.058,0.668,1.819,0.668c0.691,0,1.379-0.191,2.061-0.576c0.684-0.383,1.101-0.575,1.253-0.575
			c0.217,0,0.397,0.083,0.54,0.251c0.145,0.166,0.216,0.376,0.216,0.628c0,0.551-0.417,1.043-1.253,1.477
			c-0.834,0.434-1.826,0.65-2.975,0.65c-1.418,0-2.57-0.398-3.459-1.195c-0.887-0.797-1.331-1.822-1.331-3.076
			c0-1.225,0.439-2.244,1.318-3.059s1.986-1.222,3.322-1.222c0.451,0,0.891,0.056,1.318,0.167S196.752,58.15,197.174,58.385z"/>
		<path fill="#FFFFFF" d="M202.975,62.489c0.152,0.65,0.447,1.137,0.883,1.459c0.438,0.322,1.019,0.483,1.745,0.483
			s1.444-0.177,2.153-0.531s1.137-0.532,1.283-0.532c0.217,0,0.395,0.081,0.531,0.241c0.139,0.162,0.207,0.368,0.207,0.62
			c0,0.551-0.407,1.025-1.222,1.424s-1.822,0.598-3.023,0.598c-1.418,0-2.571-0.398-3.458-1.195
			c-0.889-0.797-1.332-1.822-1.332-3.076c0-1.248,0.443-2.271,1.332-3.067c0.887-0.797,2.04-1.195,3.458-1.195
			c1.266,0,2.314,0.373,3.146,1.121c0.832,0.746,1.248,1.662,1.248,2.746c0,0.346-0.083,0.583-0.251,0.712
			c-0.166,0.129-0.511,0.193-1.032,0.193H202.975z M207.712,61.118c-0.1-0.545-0.356-0.967-0.769-1.266
			c-0.414-0.299-0.951-0.448-1.613-0.448c-0.639,0-1.152,0.143-1.543,0.426c-0.389,0.285-0.66,0.714-0.812,1.288H207.712z"/>
		<path fill="#FFFFFF" d="M217.248,64.106h1.89c0.404,0,0.688,0.073,0.853,0.22s0.246,0.39,0.246,0.729
			c0,0.346-0.084,0.595-0.25,0.747c-0.168,0.152-0.45,0.229-0.849,0.229h-5.959c-0.393,0-0.673-0.076-0.839-0.229
			c-0.168-0.152-0.251-0.401-0.251-0.747s0.081-0.59,0.241-0.733c0.162-0.144,0.444-0.216,0.849-0.216h1.89v-7.629h-0.967
			c-0.398,0-0.684-0.077-0.857-0.233c-0.172-0.154-0.259-0.402-0.259-0.742c0-0.346,0.085-0.595,0.255-0.747
			s0.457-0.229,0.861-0.229h2.628c0.164,0,0.292,0.034,0.382,0.101c0.092,0.068,0.137,0.16,0.137,0.277V64.106z"/>
	</g>
	<g enable-background="new    ">
		<path fill="#FFFFFF" d="M186.434,77.498c0.111-0.211,0.229-0.36,0.355-0.448s0.283-0.132,0.471-0.132
			c0.287,0,0.49,0.076,0.61,0.229s0.181,0.413,0.181,0.782l0.018,2.285c0,0.404-0.066,0.677-0.198,0.817s-0.374,0.211-0.726,0.211
			c-0.246,0-0.438-0.06-0.575-0.181c-0.138-0.119-0.251-0.335-0.339-0.646c-0.158-0.562-0.4-0.964-0.729-1.204
			s-0.789-0.36-1.381-0.36c-0.902,0-1.592,0.305-2.069,0.914s-0.716,1.491-0.716,2.646s0.25,2.047,0.751,2.676
			c0.501,0.631,1.212,0.945,2.132,0.945c0.211,0,0.451-0.024,0.721-0.074s0.586-0.128,0.949-0.233v-1.389h-0.994
			c-0.398,0-0.681-0.073-0.848-0.22s-0.25-0.39-0.25-0.729c0-0.352,0.083-0.603,0.25-0.751c0.167-0.15,0.449-0.225,0.848-0.225
			h3.174c0.41,0,0.698,0.073,0.865,0.22s0.25,0.393,0.25,0.738c0,0.311-0.083,0.55-0.25,0.716c-0.167,0.168-0.408,0.251-0.725,0.251
			h-0.141v2.092v0.105c0,0.188-0.021,0.318-0.062,0.392s-0.123,0.147-0.246,0.224c-0.334,0.199-0.863,0.375-1.59,0.527
			s-1.463,0.229-2.207,0.229c-1.535,0-2.777-0.507-3.727-1.521s-1.424-2.338-1.424-3.973c0-1.576,0.48-2.886,1.441-3.929
			s2.18-1.564,3.656-1.564c0.41,0,0.819,0.047,1.227,0.141S185.977,77.299,186.434,77.498z"/>
		<path fill="#FFFFFF" d="M193.016,81.436l1.582,3.744l1.662-3.744h-0.141c-0.316,0-0.559-0.082-0.726-0.246
			s-0.251-0.404-0.251-0.721c0-0.346,0.084-0.592,0.251-0.738s0.456-0.22,0.866-0.22h2.064c0.41,0,0.699,0.074,0.866,0.225
			c0.167,0.148,0.251,0.394,0.251,0.733c0,0.316-0.082,0.557-0.246,0.721s-0.404,0.246-0.721,0.246h-0.15l-3.611,7.761h0.395
			c0.398,0,0.685,0.076,0.857,0.229s0.26,0.401,0.26,0.747c0,0.34-0.087,0.586-0.26,0.738s-0.459,0.229-0.857,0.229h-3.85
			c-0.404,0-0.691-0.075-0.861-0.224c-0.17-0.15-0.254-0.397-0.254-0.743s0.084-0.595,0.254-0.747s0.457-0.229,0.861-0.229h1.363
			l0.826-1.767l-2.664-5.994h-0.141c-0.316,0-0.558-0.082-0.725-0.246s-0.25-0.404-0.25-0.721c0-0.346,0.084-0.592,0.254-0.738
			s0.457-0.22,0.861-0.22h2.232c0.404,0,0.691,0.074,0.861,0.225c0.17,0.148,0.256,0.394,0.256,0.733
			c0,0.316-0.084,0.557-0.251,0.721s-0.405,0.246-0.716,0.246H193.016z"/>
		<path fill="#FFFFFF" d="M204.969,82.859v2.848h2.074c0.398,0,0.682,0.073,0.849,0.22s0.251,0.39,0.251,0.729
			c0,0.346-0.084,0.595-0.251,0.747s-0.45,0.229-0.849,0.229h-4.912c-0.404,0-0.691-0.076-0.861-0.229s-0.256-0.401-0.256-0.747
			c0-0.34,0.084-0.583,0.251-0.729s0.456-0.22,0.866-0.22h0.668v-4.271h-0.379c-0.398,0-0.681-0.075-0.848-0.224
			c-0.167-0.15-0.25-0.397-0.25-0.743s0.08-0.592,0.241-0.738s0.446-0.22,0.856-0.22h1.873c0.158,0,0.281,0.034,0.369,0.102
			s0.131,0.159,0.131,0.276v1.301c0.639-0.686,1.235-1.175,1.789-1.468s1.15-0.439,1.789-0.439c0.58,0,1.039,0.131,1.379,0.391
			c0.34,0.262,0.51,0.611,0.51,1.051c0,0.34-0.117,0.619-0.352,0.84c-0.234,0.219-0.535,0.329-0.904,0.329
			c-0.264,0-0.576-0.097-0.937-0.29s-0.61-0.29-0.751-0.29c-0.281,0-0.613,0.126-0.994,0.378S205.49,82.332,204.969,82.859z"/>
		<path fill="#FFFFFF" d="M216.166,79.317c1.424,0,2.578,0.398,3.463,1.195s1.328,1.819,1.328,3.067
			c0,1.254-0.443,2.279-1.328,3.076s-2.039,1.195-3.463,1.195c-1.418,0-2.568-0.398-3.453-1.195s-1.328-1.822-1.328-3.076
			c0-1.248,0.444-2.271,1.332-3.067S214.754,79.317,216.166,79.317z M216.166,81.172c-0.686,0-1.249,0.224-1.691,0.673
			c-0.442,0.447-0.664,1.021-0.664,1.718c0,0.703,0.222,1.285,0.664,1.745s1.006,0.689,1.691,0.689s1.252-0.229,1.697-0.689
			s0.668-1.042,0.668-1.745c0-0.697-0.222-1.271-0.664-1.718C217.425,81.396,216.858,81.172,216.166,81.172z"/>
	</g>
	<g enable-background="new    ">
		<path fill="#FFFFFF" d="M154.029,99.098c0.111-0.211,0.229-0.36,0.356-0.448c0.125-0.088,0.282-0.132,0.47-0.132
			c0.287,0,0.491,0.076,0.61,0.229c0.121,0.152,0.181,0.413,0.181,0.782l0.018,2.285c0,0.404-0.065,0.677-0.198,0.817
			c-0.131,0.141-0.373,0.211-0.725,0.211c-0.246,0-0.438-0.06-0.576-0.181c-0.137-0.119-0.25-0.335-0.338-0.646
			c-0.158-0.562-0.401-0.964-0.729-1.204s-0.788-0.36-1.38-0.36c-0.902,0-1.592,0.305-2.07,0.914
			c-0.477,0.609-0.716,1.491-0.716,2.646s0.251,2.047,0.751,2.676c0.502,0.631,1.212,0.945,2.132,0.945
			c0.211,0,0.451-0.024,0.721-0.074s0.586-0.128,0.949-0.233v-1.389h-0.993c-0.398,0-0.682-0.073-0.848-0.22
			c-0.168-0.146-0.251-0.39-0.251-0.729c0-0.352,0.083-0.603,0.251-0.751c0.166-0.15,0.449-0.225,0.848-0.225h3.173
			c0.41,0,0.698,0.073,0.866,0.22c0.166,0.146,0.25,0.393,0.25,0.738c0,0.311-0.084,0.55-0.25,0.716
			c-0.168,0.168-0.409,0.251-0.726,0.251h-0.141v2.092v0.105c0,0.188-0.021,0.318-0.062,0.392s-0.123,0.147-0.246,0.224
			c-0.334,0.199-0.864,0.375-1.591,0.527s-1.462,0.229-2.206,0.229c-1.535,0-2.777-0.507-3.727-1.521s-1.424-2.338-1.424-3.973
			c0-1.576,0.48-2.886,1.441-3.929s2.18-1.564,3.656-1.564c0.41,0,0.818,0.047,1.227,0.141
			C153.139,98.752,153.572,98.898,154.029,99.098z"/>
		<path fill="#FFFFFF" d="M161.763,104.459v2.848h2.074c0.398,0,0.681,0.073,0.849,0.22c0.166,0.146,0.25,0.39,0.25,0.729
			c0,0.346-0.084,0.595-0.25,0.747c-0.168,0.152-0.45,0.229-0.849,0.229h-4.913c-0.404,0-0.691-0.076-0.861-0.229
			s-0.255-0.401-0.255-0.747c0-0.34,0.083-0.583,0.251-0.729c0.166-0.146,0.455-0.22,0.865-0.22h0.668v-4.271h-0.378
			c-0.398,0-0.681-0.075-0.849-0.224c-0.166-0.15-0.25-0.397-0.25-0.743s0.08-0.592,0.242-0.738c0.16-0.146,0.446-0.22,0.856-0.22
			h1.872c0.158,0,0.281,0.034,0.369,0.102s0.132,0.159,0.132,0.276v1.301c0.639-0.686,1.235-1.175,1.788-1.468
			c0.555-0.293,1.15-0.439,1.789-0.439c0.58,0,1.04,0.131,1.38,0.391c0.34,0.262,0.51,0.611,0.51,1.051
			c0,0.34-0.117,0.619-0.352,0.84c-0.234,0.219-0.536,0.329-0.905,0.329c-0.264,0-0.576-0.097-0.936-0.29
			c-0.361-0.193-0.611-0.29-0.752-0.29c-0.281,0-0.612,0.126-0.993,0.378S162.284,103.932,161.763,104.459z"/>
		<path fill="#FFFFFF" d="M176.546,107.307h0.141c0.316,0,0.558,0.083,0.726,0.251c0.166,0.166,0.25,0.405,0.25,0.716
			c0,0.34-0.086,0.585-0.26,0.733c-0.172,0.15-0.458,0.225-0.856,0.225h-0.826c-0.293,0-0.511-0.056-0.655-0.167
			c-0.143-0.111-0.262-0.313-0.355-0.606c-0.486,0.322-1.002,0.568-1.547,0.738s-1.096,0.255-1.652,0.255
			c-0.943,0-1.685-0.234-2.224-0.703s-0.809-1.11-0.809-1.925c0-0.879,0.349-1.562,1.046-2.048s1.676-0.729,2.936-0.729
			c0.281,0,0.58,0.015,0.896,0.044s0.671,0.076,1.063,0.141v-0.167c0-0.527-0.128-0.929-0.382-1.204
			c-0.256-0.275-0.632-0.413-1.13-0.413c-0.387,0-0.88,0.144-1.481,0.431c-0.6,0.287-1.041,0.431-1.322,0.431
			c-0.275,0-0.498-0.08-0.668-0.242c-0.17-0.16-0.255-0.373-0.255-0.637c0-0.475,0.347-0.851,1.042-1.129
			c0.693-0.278,1.639-0.418,2.834-0.418c1.248,0,2.142,0.24,2.681,0.721s0.809,1.295,0.809,2.443V107.307z M174.419,105.61
			c-0.293-0.064-0.562-0.112-0.809-0.145s-0.475-0.049-0.686-0.049c-0.645,0-1.149,0.108-1.517,0.325
			c-0.365,0.217-0.549,0.516-0.549,0.896c0,0.34,0.117,0.6,0.352,0.778s0.571,0.268,1.011,0.268c0.404,0,0.785-0.059,1.143-0.176
			s0.709-0.299,1.055-0.545V105.61z"/>
		<path fill="#FFFFFF" d="M182.215,103.035l1.582,3.744l1.661-3.744h-0.141c-0.316,0-0.558-0.082-0.726-0.246
			c-0.166-0.164-0.25-0.404-0.25-0.721c0-0.346,0.084-0.592,0.25-0.738c0.168-0.146,0.456-0.22,0.866-0.22h2.065
			c0.41,0,0.699,0.074,0.865,0.225c0.168,0.148,0.251,0.394,0.251,0.733c0,0.316-0.082,0.557-0.246,0.721s-0.404,0.246-0.721,0.246
			h-0.149l-2.61,5.546c-0.193,0.398-0.368,0.644-0.522,0.734c-0.156,0.09-0.395,0.136-0.717,0.136c-0.586,0-0.981-0.246-1.187-0.738
			c-0.023-0.059-0.041-0.103-0.053-0.132l-2.452-5.546h-0.141c-0.316,0-0.559-0.082-0.725-0.246
			c-0.168-0.164-0.251-0.404-0.251-0.721c0-0.346,0.085-0.592,0.255-0.738s0.457-0.22,0.861-0.22h2.232
			c0.404,0,0.691,0.074,0.861,0.225c0.17,0.148,0.255,0.394,0.255,0.733c0,0.316-0.083,0.557-0.251,0.721
			c-0.166,0.164-0.405,0.246-0.716,0.246H182.215z"/>
		<path fill="#FFFFFF" d="M195.794,107.307h1.89c0.404,0,0.691,0.073,0.861,0.22s0.255,0.39,0.255,0.729
			c0,0.346-0.087,0.595-0.259,0.747c-0.174,0.152-0.459,0.229-0.857,0.229h-5.941c-0.398,0-0.684-0.076-0.857-0.229
			c-0.172-0.152-0.259-0.401-0.259-0.747c0-0.34,0.083-0.583,0.251-0.729c0.166-0.146,0.455-0.22,0.865-0.22h1.89v-4.271h-0.993
			c-0.393,0-0.674-0.075-0.844-0.224c-0.17-0.15-0.255-0.397-0.255-0.743s0.082-0.592,0.246-0.738s0.448-0.22,0.853-0.22h2.646
			c0.164,0,0.29,0.034,0.378,0.102s0.132,0.159,0.132,0.276V107.307z M194.529,97.138c0.428,0,0.712,0.082,0.853,0.246
			s0.211,0.557,0.211,1.178c0,0.598-0.062,0.969-0.189,1.111c-0.125,0.145-0.423,0.216-0.892,0.216
			c-0.457,0-0.751-0.067-0.884-0.202c-0.131-0.135-0.197-0.404-0.197-0.809c0-0.75,0.067-1.228,0.202-1.433
			S194.066,97.138,194.529,97.138z"/>
		<path fill="#FFFFFF" d="M204.759,101.603h2.681c0.404,0,0.691,0.073,0.861,0.22s0.255,0.39,0.255,0.729
			c0,0.346-0.087,0.595-0.259,0.747c-0.174,0.152-0.459,0.229-0.857,0.229h-2.681v2.25c0,0.633,0.097,1.066,0.29,1.301
			s0.533,0.352,1.02,0.352c0.457,0,0.996-0.132,1.617-0.396s1.037-0.396,1.248-0.396c0.24,0,0.447,0.096,0.619,0.286
			c0.174,0.19,0.26,0.42,0.26,0.689c0,0.451-0.408,0.863-1.227,1.234c-0.816,0.373-1.744,0.559-2.781,0.559
			c-0.604,0-1.134-0.082-1.591-0.246s-0.817-0.398-1.081-0.703c-0.193-0.234-0.331-0.516-0.413-0.844s-0.123-0.876-0.123-1.644
			v-0.193v-2.25h-0.826c-0.398,0-0.681-0.076-0.849-0.229c-0.166-0.152-0.25-0.401-0.25-0.747s0.082-0.59,0.246-0.734
			c0.164-0.143,0.448-0.215,0.853-0.215h0.826v-2.057c0-0.404,0.083-0.688,0.251-0.853c0.166-0.164,0.443-0.246,0.83-0.246
			s0.664,0.082,0.83,0.246c0.168,0.164,0.251,0.448,0.251,0.853V101.603z"/>
		<path fill="#FFFFFF" d="M214.62,103.035l1.582,3.744l1.661-3.744h-0.141c-0.316,0-0.559-0.082-0.725-0.246
			c-0.168-0.164-0.251-0.404-0.251-0.721c0-0.346,0.083-0.592,0.251-0.738c0.166-0.146,0.455-0.22,0.865-0.22h2.065
			c0.41,0,0.698,0.074,0.866,0.225c0.166,0.148,0.25,0.394,0.25,0.733c0,0.316-0.082,0.557-0.246,0.721s-0.404,0.246-0.721,0.246
			h-0.149l-3.612,7.761h0.396c0.398,0,0.685,0.076,0.856,0.229c0.174,0.152,0.26,0.401,0.26,0.747c0,0.34-0.086,0.586-0.26,0.738
			c-0.172,0.152-0.458,0.229-0.856,0.229h-3.85c-0.404,0-0.691-0.075-0.861-0.224c-0.17-0.15-0.255-0.397-0.255-0.743
			s0.085-0.595,0.255-0.747s0.457-0.229,0.861-0.229h1.362l0.826-1.767l-2.663-5.994h-0.141c-0.316,0-0.558-0.082-0.726-0.246
			c-0.166-0.164-0.25-0.404-0.25-0.721c0-0.346,0.085-0.592,0.255-0.738s0.457-0.22,0.861-0.22h2.232
			c0.404,0,0.691,0.074,0.861,0.225c0.17,0.148,0.255,0.394,0.255,0.733c0,0.316-0.084,0.557-0.25,0.721
			c-0.168,0.164-0.406,0.246-0.717,0.246H214.62z"/>
	</g>
	<g enable-background="new    ">
		<path fill="#FFFFFF" d="M111.12,122.333h-1.837v6.557h1.477c0.393,0,0.674,0.076,0.844,0.229s0.255,0.398,0.255,0.738
			c0,0.346-0.085,0.595-0.255,0.747s-0.451,0.229-0.844,0.229h-5.221c-0.387,0-0.665-0.076-0.835-0.229s-0.255-0.401-0.255-0.747
			s0.083-0.593,0.25-0.743c0.167-0.148,0.447-0.224,0.839-0.224h1.477v-6.557h-1.837l-0.053,1.784v0.22
			c0,0.281-0.078,0.501-0.233,0.659s-0.371,0.237-0.646,0.237c-0.328,0-0.57-0.083-0.725-0.251
			c-0.155-0.166-0.233-0.432-0.233-0.795v-0.07l0.097-2.628c0.018-0.521,0.089-0.835,0.215-0.94s0.382-0.158,0.769-0.158h7.559
			c0.387,0,0.643,0.053,0.769,0.158s0.201,0.419,0.224,0.94l0.088,2.628v0.07c0,0.369-0.073,0.636-0.22,0.8
			s-0.384,0.246-0.712,0.246c-0.316,0-0.543-0.08-0.681-0.241s-0.212-0.453-0.224-0.875L111.12,122.333z"/>
		<path fill="#FFFFFF" d="M116.561,127.29c0.152,0.65,0.447,1.137,0.883,1.459s1.018,0.483,1.745,0.483s1.444-0.177,2.153-0.531
			s1.137-0.532,1.283-0.532c0.217,0,0.394,0.081,0.532,0.241c0.138,0.162,0.207,0.368,0.207,0.62c0,0.551-0.407,1.025-1.222,1.424
			s-1.822,0.598-3.023,0.598c-1.418,0-2.571-0.398-3.458-1.195s-1.332-1.822-1.332-3.076c0-1.248,0.444-2.271,1.332-3.067
			s2.041-1.195,3.458-1.195c1.266,0,2.314,0.373,3.146,1.121c0.832,0.746,1.248,1.662,1.248,2.746c0,0.346-0.083,0.583-0.25,0.712
			s-0.511,0.193-1.033,0.193H116.561z M121.298,125.919c-0.1-0.545-0.356-0.967-0.769-1.266s-0.951-0.448-1.613-0.448
			c-0.639,0-1.153,0.143-1.542,0.426c-0.39,0.285-0.661,0.714-0.813,1.288H121.298z"/>
		<path fill="#FFFFFF" d="M130.316,123.309c0.246-0.264,0.53-0.464,0.853-0.602s0.668-0.207,1.037-0.207
			c0.797,0,1.371,0.236,1.723,0.707c0.352,0.473,0.527,1.262,0.527,2.369v3.331h0.123c0.275,0,0.482,0.081,0.619,0.241
			c0.139,0.162,0.207,0.397,0.207,0.708c0,0.352-0.072,0.603-0.215,0.751c-0.145,0.15-0.389,0.225-0.734,0.225h-1.494
			c-0.158,0-0.281-0.033-0.369-0.102c-0.088-0.066-0.132-0.159-0.132-0.276v-4.966c0-0.393-0.062-0.686-0.185-0.879
			s-0.302-0.29-0.536-0.29c-0.293,0-0.521,0.131-0.681,0.392c-0.162,0.261-0.242,0.634-0.242,1.12v3.076h0.132
			c0.27,0,0.475,0.081,0.615,0.241c0.141,0.162,0.211,0.397,0.211,0.708c0,0.352-0.073,0.603-0.22,0.751
			c-0.146,0.15-0.393,0.225-0.738,0.225h-1.494c-0.158,0-0.284-0.033-0.378-0.102c-0.094-0.066-0.141-0.159-0.141-0.276v-4.966
			c0-0.393-0.059-0.686-0.176-0.879s-0.293-0.29-0.527-0.29c-0.293,0-0.522,0.132-0.69,0.396c-0.166,0.264-0.25,0.636-0.25,1.116
			v3.076h0.132c0.275,0,0.481,0.079,0.62,0.237c0.137,0.158,0.206,0.396,0.206,0.712c0,0.352-0.073,0.603-0.22,0.751
			c-0.146,0.15-0.393,0.225-0.738,0.225h-1.995c-0.34,0-0.583-0.076-0.729-0.229s-0.22-0.401-0.22-0.747
			c0-0.311,0.069-0.546,0.207-0.708c0.138-0.16,0.344-0.241,0.62-0.241h0.123v-4.271h-0.123c-0.275,0-0.485-0.083-0.628-0.251
			c-0.144-0.166-0.215-0.405-0.215-0.716c0-0.34,0.075-0.585,0.224-0.733c0.149-0.15,0.397-0.225,0.743-0.225h1.187
			c0.24,0,0.402,0.049,0.488,0.145c0.084,0.098,0.127,0.283,0.127,0.559c0.217-0.299,0.478-0.525,0.782-0.682
			c0.305-0.154,0.645-0.232,1.02-0.232c0.34,0,0.636,0.066,0.888,0.197C129.908,122.83,130.128,123.033,130.316,123.309z"/>
		<path fill="#FFFFFF" d="M138.885,130.006v2.391h1.116c0.398,0,0.685,0.076,0.856,0.229c0.174,0.152,0.26,0.401,0.26,0.747
			c0,0.34-0.085,0.583-0.255,0.729s-0.457,0.22-0.861,0.22h-3.727c-0.404,0-0.688-0.072-0.853-0.216s-0.246-0.388-0.246-0.733
			s0.084-0.595,0.25-0.747c0.168-0.152,0.45-0.229,0.849-0.229h0.519v-7.761h-0.141c-0.311,0-0.548-0.082-0.712-0.246
			s-0.246-0.404-0.246-0.721c0-0.346,0.082-0.592,0.246-0.738s0.448-0.22,0.853-0.22h1.354c0.17,0,0.296,0.031,0.378,0.092
			c0.082,0.062,0.123,0.151,0.123,0.269v0.633c0.299-0.398,0.661-0.698,1.085-0.901c0.426-0.201,0.904-0.303,1.438-0.303
			c1.201,0,2.197,0.384,2.988,1.151s1.187,1.734,1.187,2.9c0,1.219-0.384,2.228-1.151,3.028c-0.768,0.799-1.734,1.199-2.9,1.199
			c-0.475,0-0.918-0.066-1.332-0.197C139.549,130.449,139.19,130.258,138.885,130.006z M140.915,124.372
			c-0.58,0-1.058,0.214-1.433,0.642s-0.562,0.976-0.562,1.644s0.188,1.216,0.562,1.644s0.853,0.642,1.433,0.642
			s1.06-0.216,1.437-0.646c0.379-0.432,0.567-0.978,0.567-1.64c0-0.668-0.188-1.216-0.562-1.644S141.501,124.372,140.915,124.372z"
			/>
		<path fill="#FFFFFF" d="M148.966,127.29c0.152,0.65,0.446,1.137,0.884,1.459c0.436,0.322,1.018,0.483,1.744,0.483
			s1.444-0.177,2.153-0.531s1.137-0.532,1.283-0.532c0.217,0,0.394,0.081,0.532,0.241c0.137,0.162,0.206,0.368,0.206,0.62
			c0,0.551-0.407,1.025-1.222,1.424s-1.822,0.598-3.023,0.598c-1.418,0-2.57-0.398-3.459-1.195
			c-0.887-0.797-1.331-1.822-1.331-3.076c0-1.248,0.444-2.271,1.331-3.067c0.889-0.797,2.041-1.195,3.459-1.195
			c1.266,0,2.314,0.373,3.146,1.121c0.832,0.746,1.248,1.662,1.248,2.746c0,0.346-0.084,0.583-0.25,0.712
			c-0.168,0.129-0.512,0.193-1.033,0.193H148.966z M153.703,125.919c-0.1-0.545-0.355-0.967-0.77-1.266
			c-0.412-0.299-0.95-0.448-1.612-0.448c-0.639,0-1.153,0.143-1.542,0.426c-0.391,0.285-0.661,0.714-0.813,1.288H153.703z"/>
		<path fill="#FFFFFF" d="M161.763,126.06v2.848h2.074c0.398,0,0.681,0.073,0.849,0.22c0.166,0.146,0.25,0.39,0.25,0.729
			c0,0.346-0.084,0.595-0.25,0.747c-0.168,0.152-0.45,0.229-0.849,0.229h-4.913c-0.404,0-0.691-0.076-0.861-0.229
			s-0.255-0.401-0.255-0.747c0-0.34,0.083-0.583,0.251-0.729c0.166-0.146,0.455-0.22,0.865-0.22h0.668v-4.271h-0.378
			c-0.398,0-0.681-0.075-0.849-0.224c-0.166-0.15-0.25-0.397-0.25-0.743s0.08-0.592,0.242-0.738c0.16-0.146,0.446-0.22,0.856-0.22
			h1.872c0.158,0,0.281,0.034,0.369,0.102s0.132,0.159,0.132,0.276v1.301c0.639-0.686,1.235-1.175,1.788-1.468
			c0.555-0.293,1.15-0.439,1.789-0.439c0.58,0,1.04,0.131,1.38,0.391c0.34,0.262,0.51,0.611,0.51,1.051
			c0,0.34-0.117,0.619-0.352,0.84c-0.234,0.219-0.536,0.329-0.905,0.329c-0.264,0-0.576-0.097-0.936-0.29
			c-0.361-0.193-0.611-0.29-0.752-0.29c-0.281,0-0.612,0.126-0.993,0.378S162.284,125.532,161.763,126.06z"/>
		<path fill="#FFFFFF" d="M176.546,128.907h0.141c0.316,0,0.558,0.083,0.726,0.251c0.166,0.166,0.25,0.405,0.25,0.716
			c0,0.34-0.086,0.585-0.26,0.733c-0.172,0.15-0.458,0.225-0.856,0.225h-0.826c-0.293,0-0.511-0.056-0.655-0.167
			c-0.143-0.111-0.262-0.313-0.355-0.606c-0.486,0.322-1.002,0.568-1.547,0.738s-1.096,0.255-1.652,0.255
			c-0.943,0-1.685-0.234-2.224-0.703s-0.809-1.11-0.809-1.925c0-0.879,0.349-1.562,1.046-2.048s1.676-0.729,2.936-0.729
			c0.281,0,0.58,0.015,0.896,0.044s0.671,0.076,1.063,0.141v-0.167c0-0.527-0.128-0.929-0.382-1.204
			c-0.256-0.275-0.632-0.413-1.13-0.413c-0.387,0-0.88,0.144-1.481,0.431c-0.6,0.287-1.041,0.431-1.322,0.431
			c-0.275,0-0.498-0.08-0.668-0.242c-0.17-0.16-0.255-0.373-0.255-0.637c0-0.475,0.347-0.851,1.042-1.129
			c0.693-0.278,1.639-0.418,2.834-0.418c1.248,0,2.142,0.24,2.681,0.721s0.809,1.295,0.809,2.443V128.907z M174.419,127.211
			c-0.293-0.064-0.562-0.112-0.809-0.145s-0.475-0.049-0.686-0.049c-0.645,0-1.149,0.108-1.517,0.325
			c-0.365,0.217-0.549,0.516-0.549,0.896c0,0.34,0.117,0.6,0.352,0.778s0.571,0.268,1.011,0.268c0.404,0,0.785-0.059,1.143-0.176
			s0.709-0.299,1.055-0.545V127.211z"/>
		<path fill="#FFFFFF" d="M183.156,123.203h2.681c0.404,0,0.691,0.073,0.861,0.22s0.255,0.39,0.255,0.729
			c0,0.346-0.087,0.595-0.259,0.747c-0.174,0.152-0.459,0.229-0.857,0.229h-2.681v2.25c0,0.633,0.097,1.066,0.29,1.301
			s0.533,0.352,1.02,0.352c0.457,0,0.996-0.132,1.617-0.396s1.037-0.396,1.248-0.396c0.24,0,0.447,0.096,0.619,0.286
			c0.174,0.19,0.26,0.42,0.26,0.689c0,0.451-0.408,0.863-1.227,1.234c-0.816,0.373-1.744,0.559-2.781,0.559
			c-0.604,0-1.134-0.082-1.591-0.246s-0.817-0.398-1.081-0.703c-0.193-0.234-0.331-0.516-0.413-0.844s-0.123-0.876-0.123-1.644
			v-0.193v-2.25h-0.826c-0.398,0-0.681-0.076-0.849-0.229c-0.166-0.152-0.25-0.401-0.25-0.747s0.082-0.59,0.246-0.734
			c0.164-0.143,0.448-0.215,0.853-0.215h0.826v-2.057c0-0.404,0.083-0.688,0.251-0.853c0.166-0.164,0.443-0.246,0.83-0.246
			s0.664,0.082,0.83,0.246c0.168,0.164,0.251,0.448,0.251,0.853V123.203z"/>
		<path fill="#FFFFFF" d="M195.952,124.636h-0.141c-0.316,0-0.556-0.082-0.716-0.246c-0.162-0.164-0.242-0.404-0.242-0.721
			c0-0.346,0.082-0.592,0.246-0.738s0.448-0.22,0.853-0.22h1.661c0.158,0,0.281,0.034,0.369,0.102s0.132,0.159,0.132,0.276v5.818
			h0.141c0.316,0,0.558,0.082,0.726,0.246c0.166,0.164,0.25,0.398,0.25,0.703c0,0.352-0.085,0.603-0.255,0.751
			c-0.17,0.15-0.457,0.225-0.861,0.225h-1.477c-0.164,0-0.292-0.035-0.382-0.105c-0.092-0.07-0.137-0.167-0.137-0.29v-0.668
			c-0.281,0.422-0.625,0.738-1.033,0.949c-0.406,0.211-0.886,0.316-1.437,0.316c-0.943,0-1.644-0.284-2.101-0.853
			s-0.686-1.438-0.686-2.61v-2.936h-0.149c-0.316,0-0.557-0.082-0.721-0.246s-0.246-0.404-0.246-0.721
			c0-0.346,0.083-0.592,0.251-0.738c0.166-0.146,0.455-0.22,0.865-0.22h1.652c0.158,0,0.278,0.034,0.36,0.102
			s0.123,0.159,0.123,0.276v4.087c0,0.721,0.1,1.228,0.299,1.521s0.527,0.439,0.984,0.439c0.486,0,0.886-0.181,1.2-0.54
			c0.312-0.361,0.47-0.834,0.47-1.42V124.636z"/>
		<path fill="#FFFFFF" d="M204.97,126.06v2.848h2.074c0.398,0,0.681,0.073,0.849,0.22c0.166,0.146,0.25,0.39,0.25,0.729
			c0,0.346-0.084,0.595-0.25,0.747c-0.168,0.152-0.45,0.229-0.849,0.229h-4.913c-0.404,0-0.691-0.076-0.861-0.229
			s-0.255-0.401-0.255-0.747c0-0.34,0.083-0.583,0.251-0.729c0.166-0.146,0.455-0.22,0.865-0.22h0.668v-4.271h-0.378
			c-0.398,0-0.681-0.075-0.849-0.224c-0.166-0.15-0.25-0.397-0.25-0.743s0.08-0.592,0.242-0.738c0.16-0.146,0.446-0.22,0.856-0.22
			h1.872c0.158,0,0.281,0.034,0.369,0.102s0.132,0.159,0.132,0.276v1.301c0.639-0.686,1.235-1.175,1.788-1.468
			c0.555-0.293,1.15-0.439,1.789-0.439c0.58,0,1.04,0.131,1.38,0.391c0.34,0.262,0.51,0.611,0.51,1.051
			c0,0.34-0.117,0.619-0.352,0.84c-0.234,0.219-0.536,0.329-0.905,0.329c-0.264,0-0.576-0.097-0.936-0.29
			c-0.361-0.193-0.611-0.29-0.752-0.29c-0.281,0-0.612,0.126-0.993,0.378S205.491,125.532,204.97,126.06z"/>
		<path fill="#FFFFFF" d="M213.777,127.29c0.152,0.65,0.446,1.137,0.884,1.459c0.436,0.322,1.018,0.483,1.744,0.483
			s1.444-0.177,2.153-0.531s1.137-0.532,1.283-0.532c0.217,0,0.394,0.081,0.532,0.241c0.137,0.162,0.206,0.368,0.206,0.62
			c0,0.551-0.407,1.025-1.222,1.424s-1.822,0.598-3.023,0.598c-1.418,0-2.57-0.398-3.459-1.195
			c-0.887-0.797-1.331-1.822-1.331-3.076c0-1.248,0.444-2.271,1.331-3.067c0.889-0.797,2.041-1.195,3.459-1.195
			c1.266,0,2.314,0.373,3.146,1.121c0.832,0.746,1.248,1.662,1.248,2.746c0,0.346-0.084,0.583-0.25,0.712
			c-0.168,0.129-0.512,0.193-1.033,0.193H213.777z M218.514,125.919c-0.1-0.545-0.355-0.967-0.77-1.266
			c-0.412-0.299-0.95-0.448-1.612-0.448c-0.639,0-1.153,0.143-1.542,0.426c-0.391,0.285-0.661,0.714-0.813,1.288H218.514z"/>
	</g>
	<g enable-background="new    ">
		<path fill="#FFFFFF" d="M197.235,142.298c0.111-0.211,0.23-0.36,0.356-0.448s0.282-0.132,0.47-0.132
			c0.287,0,0.491,0.076,0.611,0.229s0.18,0.413,0.18,0.782l0.018,2.285c0,0.404-0.065,0.677-0.197,0.817s-0.373,0.211-0.725,0.211
			c-0.246,0-0.438-0.06-0.576-0.181c-0.138-0.119-0.25-0.335-0.338-0.646c-0.158-0.562-0.402-0.964-0.73-1.204
			s-0.787-0.36-1.379-0.36c-0.902,0-1.593,0.305-2.07,0.914s-0.717,1.491-0.717,2.646s0.251,2.047,0.752,2.676
			c0.501,0.631,1.211,0.945,2.131,0.945c0.211,0,0.451-0.024,0.721-0.074s0.586-0.128,0.949-0.233v-1.389h-0.992
			c-0.398,0-0.682-0.073-0.849-0.22s-0.251-0.39-0.251-0.729c0-0.352,0.084-0.603,0.251-0.751c0.167-0.15,0.45-0.225,0.849-0.225
			h3.172c0.41,0,0.699,0.073,0.866,0.22s0.251,0.393,0.251,0.738c0,0.311-0.084,0.55-0.251,0.716
			c-0.167,0.168-0.409,0.251-0.726,0.251h-0.141v2.092v0.105c0,0.188-0.02,0.318-0.061,0.392s-0.123,0.147-0.246,0.224
			c-0.334,0.199-0.865,0.375-1.592,0.527s-1.461,0.229-2.205,0.229c-1.535,0-2.777-0.507-3.727-1.521s-1.424-2.338-1.424-3.973
			c0-1.576,0.48-2.886,1.441-3.929s2.18-1.564,3.656-1.564c0.41,0,0.818,0.047,1.226,0.141S196.778,142.099,197.235,142.298z"/>
		<path fill="#FFFFFF" d="M204.178,148.705v1.802h0.906c0.381,0,0.651,0.073,0.812,0.22s0.242,0.39,0.242,0.729
			c0,0.346-0.082,0.595-0.246,0.747s-0.434,0.229-0.809,0.229h-3.041c-0.387,0-0.664-0.076-0.831-0.229s-0.251-0.401-0.251-0.747
			c0-0.311,0.08-0.546,0.238-0.708c0.158-0.16,0.389-0.241,0.693-0.241h0.15v-6.557h-0.15c-0.299,0-0.528-0.083-0.689-0.251
			c-0.161-0.166-0.242-0.405-0.242-0.716c0-0.34,0.086-0.587,0.256-0.743c0.17-0.154,0.445-0.232,0.826-0.232h3.629
			c1.436,0,2.521,0.275,3.257,0.826s1.103,1.362,1.103,2.435c0,1.131-0.365,1.986-1.098,2.566s-1.82,0.87-3.262,0.87H204.178z
			 M204.178,143.95v2.777h1.248c0.691,0,1.212-0.117,1.561-0.352s0.523-0.586,0.523-1.055c0-0.439-0.181-0.778-0.541-1.015
			c-0.36-0.238-0.875-0.356-1.543-0.356H204.178z"/>
		<path fill="#FFFFFF" d="M218.364,142.21c0.088-0.188,0.188-0.316,0.299-0.387s0.281-0.105,0.51-0.105
			c0.34,0,0.559,0.063,0.655,0.188c0.097,0.127,0.151,0.377,0.163,0.752l0.035,1.688v0.097c0,0.346-0.069,0.588-0.207,0.726
			s-0.371,0.206-0.699,0.206c-0.416,0-0.727-0.223-0.932-0.668c-0.029-0.064-0.053-0.117-0.07-0.158
			c-0.182-0.363-0.428-0.638-0.738-0.821c-0.311-0.186-0.676-0.277-1.098-0.277c-0.527,0-0.954,0.122-1.279,0.365
			s-0.488,0.555-0.488,0.936c0,0.539,0.744,0.964,2.232,1.274c0.252,0.053,0.451,0.094,0.598,0.123
			c1.125,0.246,1.939,0.621,2.443,1.125s0.756,1.192,0.756,2.065c0,1.078-0.365,1.909-1.098,2.492s-1.781,0.874-3.146,0.874
			c-0.533,0-1.01-0.035-1.429-0.105s-0.825-0.179-1.218-0.325c-0.094,0.152-0.201,0.262-0.324,0.33
			c-0.123,0.066-0.293,0.101-0.51,0.101c-0.369,0-0.627-0.07-0.773-0.211s-0.223-0.39-0.229-0.747l-0.035-2.065v-0.097
			c0-0.387,0.071-0.656,0.215-0.809s0.395-0.229,0.752-0.229c0.381,0,0.699,0.275,0.957,0.826c0.059,0.135,0.105,0.237,0.141,0.308
			c0.229,0.451,0.547,0.788,0.954,1.011s0.907,0.334,1.499,0.334c0.539,0,0.957-0.111,1.256-0.334s0.449-0.536,0.449-0.94
			c0-0.627-0.678-1.102-2.031-1.424c-0.404-0.094-0.723-0.173-0.957-0.237c-1.137-0.299-1.926-0.672-2.365-1.121
			c-0.439-0.447-0.658-1.062-0.658-1.841c0-1.002,0.376-1.82,1.129-2.456s1.727-0.954,2.922-0.954c0.398,0,0.79,0.041,1.174,0.123
			S217.983,142.046,218.364,142.21z"/>
	</g>
	<g enable-background="new    ">
		<path fill="#FFFFFF" d="M132.706,168.503c0.639,0.234,1.107,0.556,1.406,0.962c0.299,0.408,0.448,0.928,0.448,1.561
			c0,0.533-0.129,1.02-0.387,1.459s-0.627,0.8-1.107,1.081c-0.281,0.164-0.596,0.283-0.945,0.356
			c-0.348,0.073-0.842,0.109-1.48,0.109h-0.738h-3.85c-0.387,0-0.664-0.076-0.831-0.229s-0.25-0.401-0.25-0.747
			c0-0.311,0.079-0.546,0.237-0.708c0.158-0.16,0.39-0.241,0.694-0.241h0.149v-6.557h-0.149c-0.305,0-0.536-0.082-0.694-0.246
			s-0.237-0.404-0.237-0.721c0-0.34,0.085-0.587,0.255-0.743c0.17-0.154,0.445-0.232,0.826-0.232h4.043
			c1.236,0,2.176,0.24,2.816,0.721c0.643,0.48,0.963,1.184,0.963,2.109c0,0.457-0.098,0.86-0.295,1.209
			C133.385,167.995,133.093,168.28,132.706,168.503z M128.224,165.497v2.215h1.187c0.721,0,1.229-0.085,1.525-0.255
			c0.295-0.17,0.443-0.457,0.443-0.861c0-0.381-0.133-0.659-0.4-0.835c-0.266-0.176-0.698-0.264-1.296-0.264H128.224z
			 M128.224,169.479v2.681h1.318c0.932,0,1.588-0.103,1.969-0.308s0.571-0.548,0.571-1.028c0-0.486-0.182-0.832-0.545-1.037
			s-0.999-0.308-1.907-0.308H128.224z"/>
		<path fill="#FFFFFF" d="M141.636,172.106h1.89c0.404,0,0.688,0.073,0.853,0.22s0.246,0.39,0.246,0.729
			c0,0.346-0.083,0.595-0.251,0.747c-0.166,0.152-0.449,0.229-0.848,0.229h-5.959c-0.393,0-0.672-0.076-0.84-0.229
			c-0.166-0.152-0.25-0.401-0.25-0.747s0.08-0.59,0.242-0.733c0.16-0.144,0.443-0.216,0.848-0.216h1.89v-7.629h-0.967
			c-0.398,0-0.685-0.077-0.856-0.233c-0.174-0.154-0.26-0.402-0.26-0.742c0-0.346,0.085-0.595,0.255-0.747s0.457-0.229,0.861-0.229
			h2.628c0.164,0,0.291,0.034,0.383,0.101c0.09,0.068,0.136,0.16,0.136,0.277V172.106z"/>
		<path fill="#FFFFFF" d="M152.745,167.835h-0.141c-0.316,0-0.556-0.082-0.716-0.246c-0.162-0.164-0.242-0.404-0.242-0.721
			c0-0.346,0.082-0.592,0.246-0.738s0.448-0.22,0.853-0.22h1.661c0.158,0,0.281,0.034,0.369,0.102s0.132,0.159,0.132,0.276v5.818
			h0.141c0.316,0,0.558,0.082,0.726,0.246c0.166,0.164,0.25,0.398,0.25,0.703c0,0.352-0.085,0.603-0.255,0.751
			c-0.17,0.15-0.457,0.225-0.861,0.225h-1.477c-0.164,0-0.292-0.035-0.382-0.105c-0.092-0.07-0.137-0.167-0.137-0.29v-0.668
			c-0.281,0.422-0.625,0.738-1.033,0.949c-0.406,0.211-0.886,0.316-1.437,0.316c-0.943,0-1.644-0.284-2.101-0.853
			s-0.686-1.438-0.686-2.61v-2.936h-0.149c-0.316,0-0.557-0.082-0.721-0.246s-0.246-0.404-0.246-0.721
			c0-0.346,0.083-0.592,0.251-0.738c0.166-0.146,0.455-0.22,0.865-0.22h1.652c0.158,0,0.278,0.034,0.36,0.102
			s0.123,0.159,0.123,0.276v4.087c0,0.721,0.1,1.228,0.299,1.521s0.527,0.439,0.984,0.439c0.486,0,0.886-0.181,1.2-0.54
			c0.312-0.361,0.47-0.834,0.47-1.42V167.835z"/>
		<path fill="#FFFFFF" d="M159.768,170.489c0.152,0.65,0.447,1.137,0.883,1.459c0.438,0.322,1.019,0.483,1.745,0.483
			s1.444-0.177,2.153-0.531s1.137-0.532,1.283-0.532c0.217,0,0.395,0.081,0.531,0.241c0.139,0.162,0.207,0.368,0.207,0.62
			c0,0.551-0.407,1.025-1.222,1.424s-1.822,0.598-3.023,0.598c-1.418,0-2.571-0.398-3.458-1.195
			c-0.889-0.797-1.332-1.822-1.332-3.076c0-1.248,0.443-2.271,1.332-3.067c0.887-0.797,2.04-1.195,3.458-1.195
			c1.266,0,2.314,0.373,3.146,1.121c0.832,0.746,1.248,1.662,1.248,2.746c0,0.346-0.083,0.583-0.251,0.712
			c-0.166,0.129-0.511,0.193-1.032,0.193H159.768z M164.505,169.118c-0.1-0.545-0.356-0.967-0.769-1.266
			c-0.414-0.299-0.951-0.448-1.613-0.448c-0.639,0-1.152,0.143-1.543,0.426c-0.389,0.285-0.66,0.714-0.812,1.288H164.505z"/>
		<path fill="#FFFFFF" d="M172.354,166.402h2.681c0.404,0,0.691,0.073,0.861,0.22s0.255,0.39,0.255,0.729
			c0,0.346-0.086,0.595-0.26,0.747c-0.172,0.152-0.458,0.229-0.856,0.229h-2.681v2.25c0,0.633,0.097,1.066,0.29,1.301
			s0.533,0.352,1.02,0.352c0.457,0,0.996-0.132,1.617-0.396s1.037-0.396,1.248-0.396c0.24,0,0.446,0.096,0.62,0.286
			c0.172,0.19,0.259,0.42,0.259,0.689c0,0.451-0.409,0.863-1.226,1.234c-0.818,0.373-1.745,0.559-2.782,0.559
			c-0.604,0-1.134-0.082-1.591-0.246s-0.817-0.398-1.081-0.703c-0.193-0.234-0.331-0.516-0.413-0.844s-0.123-0.876-0.123-1.644
			v-0.193v-2.25h-0.826c-0.398,0-0.682-0.076-0.848-0.229c-0.168-0.152-0.251-0.401-0.251-0.747s0.082-0.59,0.246-0.734
			c0.164-0.143,0.448-0.215,0.853-0.215h0.826v-2.057c0-0.404,0.084-0.688,0.25-0.853c0.168-0.164,0.444-0.246,0.831-0.246
			s0.663,0.082,0.831,0.246c0.166,0.164,0.25,0.448,0.25,0.853V166.402z"/>
		<path fill="#FFFFFF" d="M183.762,165.717c1.424,0,2.578,0.398,3.463,1.195s1.327,1.819,1.327,3.067
			c0,1.254-0.442,2.279-1.327,3.076s-2.039,1.195-3.463,1.195c-1.418,0-2.569-0.398-3.454-1.195s-1.327-1.822-1.327-3.076
			c0-1.248,0.443-2.271,1.332-3.067C181.199,166.115,182.35,165.717,183.762,165.717z M183.762,167.571
			c-0.686,0-1.25,0.224-1.691,0.673c-0.443,0.447-0.664,1.021-0.664,1.718c0,0.703,0.221,1.285,0.664,1.745
			c0.441,0.46,1.006,0.689,1.691,0.689s1.251-0.229,1.696-0.689s0.668-1.042,0.668-1.745c0-0.697-0.222-1.271-0.663-1.718
			C185.02,167.795,184.453,167.571,183.762,167.571z"/>
		<path fill="#FFFFFF" d="M194.564,165.717c1.424,0,2.578,0.398,3.463,1.195s1.327,1.819,1.327,3.067
			c0,1.254-0.442,2.279-1.327,3.076s-2.039,1.195-3.463,1.195c-1.418,0-2.569-0.398-3.454-1.195s-1.327-1.822-1.327-3.076
			c0-1.248,0.444-2.271,1.331-3.067C192.002,166.115,193.152,165.717,194.564,165.717z M194.564,167.571
			c-0.686,0-1.249,0.224-1.692,0.673c-0.441,0.447-0.663,1.021-0.663,1.718c0,0.703,0.222,1.285,0.663,1.745
			c0.443,0.46,1.007,0.689,1.692,0.689s1.251-0.229,1.696-0.689s0.668-1.042,0.668-1.745c0-0.697-0.221-1.271-0.664-1.718
			C195.823,167.795,195.255,167.571,194.564,167.571z"/>
		<path fill="#FFFFFF" d="M204.759,166.402h2.681c0.404,0,0.691,0.073,0.861,0.22s0.255,0.39,0.255,0.729
			c0,0.346-0.087,0.595-0.259,0.747c-0.174,0.152-0.459,0.229-0.857,0.229h-2.681v2.25c0,0.633,0.097,1.066,0.29,1.301
			s0.533,0.352,1.02,0.352c0.457,0,0.996-0.132,1.617-0.396s1.037-0.396,1.248-0.396c0.24,0,0.447,0.096,0.619,0.286
			c0.174,0.19,0.26,0.42,0.26,0.689c0,0.451-0.408,0.863-1.227,1.234c-0.816,0.373-1.744,0.559-2.781,0.559
			c-0.604,0-1.134-0.082-1.591-0.246s-0.817-0.398-1.081-0.703c-0.193-0.234-0.331-0.516-0.413-0.844s-0.123-0.876-0.123-1.644
			v-0.193v-2.25h-0.826c-0.398,0-0.681-0.076-0.849-0.229c-0.166-0.152-0.25-0.401-0.25-0.747s0.082-0.59,0.246-0.734
			c0.164-0.143,0.448-0.215,0.853-0.215h0.826v-2.057c0-0.404,0.083-0.688,0.251-0.853c0.166-0.164,0.443-0.246,0.83-0.246
			s0.664,0.082,0.83,0.246c0.168,0.164,0.251,0.448,0.251,0.853V166.402z"/>
		<path fill="#FFFFFF" d="M214.752,166.798c0.205-0.357,0.495-0.63,0.87-0.817s0.823-0.281,1.345-0.281
			c0.926,0,1.639,0.27,2.141,0.809c0.5,0.539,0.751,1.312,0.751,2.32v3.278h0.149c0.311,0,0.547,0.081,0.707,0.241
			c0.162,0.162,0.242,0.397,0.242,0.708c0,0.346-0.084,0.595-0.25,0.747c-0.168,0.152-0.45,0.229-0.849,0.229h-2.18
			c-0.393,0-0.673-0.076-0.839-0.229c-0.168-0.152-0.251-0.401-0.251-0.747c0-0.316,0.079-0.554,0.237-0.712
			s0.396-0.237,0.712-0.237h0.141v-2.558c0-0.75-0.093-1.27-0.276-1.561c-0.186-0.289-0.5-0.435-0.945-0.435
			c-0.469,0-0.87,0.188-1.204,0.567c-0.334,0.377-0.501,0.854-0.501,1.428v2.558h0.141c0.316,0,0.555,0.081,0.717,0.241
			c0.16,0.162,0.241,0.397,0.241,0.708c0,0.346-0.085,0.595-0.255,0.747s-0.451,0.229-0.844,0.229h-2.18
			c-0.404,0-0.688-0.074-0.853-0.225c-0.164-0.148-0.246-0.399-0.246-0.751c0-0.311,0.081-0.546,0.241-0.708
			c0.162-0.16,0.397-0.241,0.708-0.241h0.149v-7.629h-0.149c-0.311,0-0.55-0.083-0.716-0.251c-0.168-0.166-0.251-0.408-0.251-0.725
			c0-0.346,0.085-0.595,0.255-0.747s0.457-0.229,0.861-0.229h1.652c0.199,0,0.337,0.041,0.413,0.123s0.114,0.234,0.114,0.457
			V166.798z"/>
	</g>
</g>
</svg>
