<?xml version="1.0" encoding="utf-8"?>
<!-- Generator: Adobe Illustrator 16.0.0, SVG Export Plug-In . SVG Version: 6.00 Build 0)  -->
<!DOCTYPE svg PUBLIC "-//W3C//DTD SVG 1.1//EN" "http://www.w3.org/Graphics/SVG/1.1/DTD/svg11.dtd">
<svg version="1.1" id="Layer_1" xmlns="http://www.w3.org/2000/svg" xmlns:xlink="http://www.w3.org/1999/xlink" x="0px" y="0px"
	 width="287.111px" height="235.085px" viewBox="0 0 287.111 235.085" enable-background="new 0 0 287.111 235.085"
	 xml:space="preserve">
<g>
	<path fill="#BD96E2" d="M14.173,235.085H272.94c7.828,0,14.173-6.771,14.173-15.123V51.853H0v168.109
		C0,228.314,6.346,235.085,14.173,235.085z"/>
	<path fill="#79479C" d="M287.111,11.906C287.111,5.331,280.767,0,272.938,0H14.173C6.346,0,0,5.331,0,11.906v39.947h287.111V11.906
		z"/>
	<g enable-background="new    ">
		<path fill="#FFFFFF" d="M37.264,31.552c0.362,0,0.628,0.061,0.792,0.184c0.164,0.122,0.243,0.317,0.243,0.585
			c0,0.298-0.076,0.506-0.232,0.624c-0.156,0.119-0.454,0.179-0.894,0.179h-5.449c-0.253,0-0.446-0.068-0.58-0.206
			c-0.136-0.138-0.201-0.336-0.201-0.597c0-0.26,0.063-0.453,0.195-0.579c0.13-0.127,0.332-0.189,0.605-0.189h1.438V21.508h-0.78
			c-0.654,0-1.062-0.058-1.221-0.173c-0.16-0.115-0.24-0.325-0.24-0.63c0-0.26,0.065-0.459,0.201-0.597
			c0.134-0.137,0.327-0.206,0.58-0.206h5.159c1.808,0,3.179,0.35,4.113,1.048c0.938,0.699,1.405,1.728,1.405,3.088
			s-0.465,2.386-1.396,3.076c-0.929,0.691-2.304,1.037-4.125,1.037H34.93v3.4L37.264,31.552L37.264,31.552z M34.935,21.508v5.172
			h2.084c1.167,0,2.04-0.215,2.62-0.646c0.58-0.431,0.868-1.081,0.868-1.95c0-0.854-0.292-1.498-0.875-1.929
			c-0.583-0.431-1.453-0.646-2.612-0.646L34.935,21.508L34.935,21.508z"/>
		<path fill="#FFFFFF" d="M47.843,31.552h0.747c0.438,0,0.747,0.06,0.927,0.178c0.179,0.119,0.268,0.316,0.268,0.591
			c0,0.305-0.078,0.515-0.234,0.63c-0.154,0.115-0.497,0.173-1.023,0.173h-2.441H45.58c-0.273,0-0.479-0.066-0.619-0.2
			c-0.138-0.134-0.207-0.335-0.207-0.603c0-0.29,0.08-0.49,0.24-0.602c0.16-0.112,0.463-0.167,0.909-0.167h0.201V21.508h-0.181
			c-0.444,0-0.752-0.06-0.919-0.179c-0.167-0.118-0.251-0.327-0.251-0.624c0-0.274,0.069-0.478,0.207-0.607
			c0.139-0.13,0.353-0.195,0.643-0.195h0.479h2.33c0.595,0,0.972,0.058,1.132,0.173c0.16,0.115,0.239,0.325,0.239,0.63
			c0,0.297-0.1,0.506-0.301,0.624c-0.201,0.119-0.58,0.179-1.137,0.179h-0.501v3.879h5.339v-3.879h-0.76
			c-0.424,0-0.727-0.063-0.907-0.189c-0.184-0.126-0.273-0.331-0.273-0.613c0-0.305,0.083-0.515,0.251-0.63
			c0.167-0.115,0.578-0.173,1.231-0.173h2.218h0.502c0.268,0,0.47,0.067,0.607,0.201c0.137,0.134,0.204,0.334,0.204,0.602
			c0,0.29-0.076,0.496-0.232,0.619c-0.156,0.122-0.437,0.184-0.836,0.184H54.92v10.044H55.1c0.444,0,0.75,0.058,0.914,0.172
			c0.164,0.116,0.243,0.314,0.243,0.597c0,0.305-0.076,0.515-0.232,0.63c-0.156,0.115-0.519,0.173-1.082,0.173h-2.307
			c-0.604,0-0.985-0.058-1.148-0.173c-0.163-0.115-0.245-0.325-0.245-0.63c0-0.29,0.097-0.49,0.29-0.602
			c0.193-0.111,0.562-0.167,1.104-0.167h0.546v-4.638h-5.339v4.636H47.843z"/>
		<path fill="#FFFFFF" d="M70.238,26.502c0,2.036-0.565,3.706-1.694,5.011c-1.13,1.304-2.573,1.956-4.336,1.956
			c-1.746,0-3.186-0.654-4.317-1.962c-1.135-1.308-1.7-2.977-1.7-5.005c0-2.052,0.561-3.726,1.684-5.022
			c1.122-1.297,2.567-1.945,4.336-1.945c1.763,0,3.207,0.654,4.336,1.962C69.673,22.805,70.238,24.473,70.238,26.502z
			 M64.207,31.886c1.249,0,2.231-0.478,2.949-1.433c0.717-0.955,1.076-2.271,1.076-3.951s-0.359-2.997-1.076-3.952
			c-0.717-0.955-1.7-1.433-2.949-1.433c-1.256,0-2.239,0.474-2.948,1.422c-0.71,0.947-1.062,2.269-1.062,3.963
			c0,1.68,0.358,2.996,1.076,3.951C61.987,31.409,62.966,31.886,64.207,31.886z"/>
		<path fill="#FFFFFF" d="M74.875,31.552h0.568h0.825c0.399,0,0.688,0.06,0.856,0.178c0.171,0.119,0.256,0.316,0.256,0.591
			c0,0.305-0.08,0.515-0.238,0.63c-0.16,0.115-0.513,0.173-1.055,0.173h-2.787H72.78c-0.268,0-0.468-0.066-0.602-0.2
			c-0.136-0.134-0.201-0.335-0.201-0.603c0-0.297,0.076-0.5,0.229-0.607c0.153-0.107,0.448-0.161,0.886-0.161h0.214V21.508h-0.279
			c-0.624,0-1.046-0.06-1.267-0.179c-0.219-0.118-0.327-0.327-0.327-0.624c0-0.274,0.095-0.474,0.283-0.597
			c0.189-0.122,0.496-0.184,0.919-0.184c0.299-0.015,0.521-0.022,0.671-0.022h1.048c0.342,0,0.581,0.039,0.719,0.117
			s0.299,0.277,0.485,0.597l5.616,9.697v-8.806h-0.435h-0.792c-0.401,0-0.693-0.065-0.875-0.195s-0.273-0.332-0.273-0.607
			c0-0.305,0.078-0.515,0.234-0.63c0.156-0.115,0.483-0.173,0.981-0.173h2.664h0.533c0.27,0,0.468,0.067,0.598,0.201
			s0.193,0.334,0.193,0.602c0,0.297-0.08,0.506-0.238,0.624c-0.16,0.119-0.451,0.179-0.875,0.179h-0.136v11.225
			c0,0.216-0.05,0.364-0.148,0.446c-0.103,0.082-0.333,0.123-0.697,0.123s-0.589-0.021-0.674-0.062s-0.229-0.232-0.429-0.574
			l-5.932-10.222L74.875,31.552L74.875,31.552z"/>
		<path fill="#FFFFFF" d="M86.836,33.124h-0.522c-0.27,0-0.472-0.066-0.607-0.2c-0.137-0.134-0.206-0.335-0.206-0.603
			c0-0.297,0.08-0.5,0.24-0.607s0.525-0.161,1.098-0.161h0.713V21.508h-0.713c-0.557,0-0.919-0.058-1.087-0.173
			c-0.167-0.115-0.25-0.325-0.25-0.63c0-0.274,0.068-0.478,0.206-0.607c0.14-0.129,0.349-0.195,0.63-0.195h0.501h9.208
			c0.253,0,0.444,0.076,0.574,0.229c0.13,0.153,0.195,0.374,0.195,0.663v2.631c0,0.387-0.058,0.654-0.167,0.803
			c-0.111,0.149-0.312,0.223-0.604,0.223c-0.305,0-0.515-0.081-0.63-0.245c-0.115-0.163-0.172-0.531-0.172-1.104v-1.594H89.31v3.757
			h2.921v-0.591c0-0.401,0.054-0.681,0.162-0.836c0.105-0.156,0.295-0.234,0.562-0.234c0.26,0,0.44,0.083,0.541,0.251
			c0.102,0.167,0.15,0.525,0.15,1.075v2.073c0,0.558-0.052,0.914-0.156,1.07c-0.104,0.156-0.29,0.234-0.557,0.234
			c-0.269,0-0.452-0.089-0.554-0.268c-0.101-0.179-0.148-0.524-0.148-1.037v-0.39H89.31v4.938h5.931v-1.807
			c0-0.572,0.057-0.939,0.172-1.104c0.115-0.163,0.325-0.245,0.63-0.245c0.283,0,0.481,0.076,0.599,0.229
			c0.114,0.153,0.173,0.44,0.173,0.864v2.809c0,0.268-0.067,0.473-0.201,0.613c-0.134,0.142-0.323,0.212-0.569,0.212h-9.207
			L86.836,33.124L86.836,33.124z"/>
		<path fill="#FFFFFF" d="M103.122,25.131c0-0.58,0.202-1.056,0.607-1.427c0.403-0.372,0.931-0.558,1.577-0.558
			c0.662,0,1.191,0.182,1.594,0.546c0.399,0.364,0.602,0.844,0.602,1.438c0,0.594-0.203,1.073-0.606,1.438
			c-0.405,0.364-0.937,0.546-1.588,0.546c-0.653,0-1.184-0.182-1.583-0.546C103.323,26.205,103.122,25.726,103.122,25.131z
			 M103.122,31.295c0-0.58,0.202-1.055,0.607-1.427c0.403-0.372,0.931-0.558,1.577-0.558c0.662,0,1.191,0.183,1.594,0.546
			c0.399,0.364,0.602,0.844,0.602,1.438c0,0.594-0.203,1.074-0.606,1.438c-0.405,0.364-0.937,0.547-1.588,0.547
			c-0.653,0-1.184-0.183-1.583-0.547C103.323,32.37,103.122,31.89,103.122,31.295z"/>
		<path fill="#FFFFFF" d="M115.752,32.733c-0.037,0.335-0.123,0.567-0.256,0.697c-0.133,0.13-0.346,0.195-0.635,0.195
			c-0.312,0-0.544-0.092-0.697-0.273c-0.15-0.183-0.24-0.478-0.262-0.886l-0.146-2.587v-0.2c0-0.356,0.068-0.609,0.206-0.758
			c0.139-0.148,0.366-0.224,0.688-0.224c0.446,0,0.765,0.32,0.958,0.959c0.089,0.319,0.175,0.562,0.256,0.725
			c0.26,0.521,0.671,0.922,1.232,1.204c0.561,0.282,1.23,0.424,2.012,0.424c0.958,0,1.737-0.228,2.335-0.681
			c0.598-0.453,0.896-1.032,0.896-1.738c0-0.588-0.184-1.06-0.552-1.416s-0.905-0.587-1.611-0.691l-1.647-0.223
			c-1.539-0.216-2.661-0.62-3.367-1.215c-0.706-0.595-1.059-1.431-1.059-2.509c0-1.137,0.47-2.092,1.41-2.864
			c0.938-0.773,2.11-1.159,3.517-1.159c0.409,0,0.84,0.054,1.293,0.161c0.453,0.108,0.966,0.277,1.539,0.508
			c0.015-0.216,0.074-0.364,0.178-0.446c0.104-0.082,0.282-0.123,0.535-0.123c0.327,0,0.553,0.049,0.68,0.146
			c0.127,0.097,0.205,0.327,0.234,0.69l0.156,2.33v0.111c0,0.261-0.074,0.463-0.225,0.607c-0.147,0.146-0.355,0.218-0.625,0.218
			c-0.394,0-0.697-0.274-0.914-0.825c-0.104-0.312-0.208-0.546-0.312-0.702c-0.245-0.371-0.598-0.657-1.06-0.858
			c-0.462-0.2-0.984-0.301-1.571-0.301c-0.899,0-1.629,0.223-2.19,0.669c-0.561,0.446-0.841,1.029-0.841,1.75
			c0,0.564,0.21,1.011,0.63,1.338c0.419,0.327,1.062,0.55,1.923,0.669l1.783,0.223c1.293,0.171,2.268,0.566,2.921,1.188
			c0.654,0.62,0.981,1.458,0.981,2.514c0,1.248-0.465,2.25-1.396,3.004c-0.929,0.754-2.17,1.132-3.723,1.132
			c-0.535,0-1.066-0.063-1.594-0.19C116.907,33.198,116.346,33,115.752,32.733z"/>
		<path fill="#FFFFFF" d="M136.909,28.631c0-0.558,0.056-0.918,0.167-1.081c0.112-0.164,0.323-0.245,0.636-0.245
			c0.27,0,0.47,0.068,0.604,0.206c0.134,0.138,0.201,0.351,0.201,0.641v0.479v3.667c0,0.261-0.07,0.463-0.211,0.607
			c-0.144,0.146-0.34,0.218-0.593,0.218h-9.888H127.3c-0.268,0-0.468-0.066-0.602-0.2c-0.134-0.134-0.201-0.335-0.201-0.603
			c0-0.297,0.08-0.5,0.24-0.607s0.521-0.161,1.087-0.161h1.394V21.508h-1.394c-0.55,0-0.909-0.058-1.076-0.173
			c-0.167-0.115-0.251-0.325-0.251-0.63c0-0.274,0.069-0.478,0.207-0.607c0.137-0.13,0.353-0.195,0.643-0.195h0.479h5.027h0.522
			c0.27,0,0.474,0.067,0.613,0.201s0.211,0.334,0.211,0.602c0,0.305-0.083,0.515-0.25,0.63c-0.167,0.115-0.534,0.173-1.098,0.173
			h-1.873v10.044h5.93L136.909,28.631L136.909,28.631z"/>
		<path fill="#FFFFFF" d="M149.795,31.552c0.572,0,0.938,0.054,1.101,0.161c0.159,0.107,0.237,0.311,0.237,0.607
			c0,0.305-0.078,0.515-0.237,0.63c-0.16,0.115-0.526,0.173-1.101,0.173h-6.766h-0.524c-0.268,0-0.472-0.066-0.611-0.2
			c-0.143-0.134-0.211-0.335-0.211-0.603c0-0.297,0.082-0.5,0.243-0.607c0.163-0.107,0.531-0.161,1.104-0.161h2.519V21.508h-2.519
			c-0.558,0-0.921-0.058-1.092-0.173c-0.171-0.115-0.256-0.325-0.256-0.63c0-0.274,0.068-0.478,0.211-0.607
			c0.141-0.129,0.353-0.195,0.636-0.195h0.501h6.766h0.524c0.268,0,0.47,0.067,0.607,0.201c0.137,0.134,0.204,0.334,0.204,0.602
			c0,0.305-0.083,0.515-0.251,0.63c-0.167,0.115-0.527,0.173-1.087,0.173h-2.519v10.044L149.795,31.552L149.795,31.552z"/>
		<path fill="#FFFFFF" d="M157.442,33.124h-1.762h-0.501c-0.275,0-0.481-0.066-0.618-0.2c-0.141-0.134-0.207-0.335-0.207-0.603
			c0-0.29,0.08-0.49,0.24-0.602c0.157-0.111,0.463-0.167,0.906-0.167h0.201V21.508h-0.18c-0.445,0-0.752-0.06-0.919-0.179
			c-0.167-0.118-0.251-0.327-0.251-0.624c0-0.274,0.066-0.478,0.207-0.607c0.137-0.13,0.351-0.195,0.641-0.195h0.479h1.762h2.463
			c1.852,0,3.326,0.597,4.426,1.789c1.102,1.193,1.65,2.804,1.65,4.832c0,0.989-0.158,1.906-0.477,2.754
			c-0.313,0.847-0.772,1.59-1.376,2.229c-0.558,0.579-1.233,1.001-2.032,1.265c-0.801,0.265-1.826,0.396-3.082,0.396
			c-0.149,0-0.4-0.008-0.754-0.022C157.909,33.13,157.635,33.124,157.442,33.124z M157.442,31.552
			c0.238,0.021,0.474,0.038,0.708,0.05c0.231,0.011,0.462,0.017,0.686,0.017c1.828,0,3.167-0.408,4.021-1.227
			c0.851-0.817,1.274-2.106,1.274-3.868c0-1.769-0.428-3.056-1.28-3.862c-0.854-0.806-2.225-1.209-4.104-1.209
			c-0.35,0-0.615,0.004-0.797,0.011c-0.183,0.008-0.352,0.022-0.508,0.045V31.552z"/>
		<path fill="#FFFFFF" d="M169.035,33.124h-0.522c-0.27,0-0.471-0.066-0.607-0.2c-0.137-0.134-0.205-0.335-0.205-0.603
			c0-0.297,0.079-0.5,0.239-0.607c0.159-0.107,0.523-0.161,1.098-0.161h0.714V21.508h-0.714c-0.558,0-0.919-0.058-1.087-0.173
			c-0.167-0.115-0.25-0.325-0.25-0.63c0-0.274,0.068-0.478,0.205-0.607c0.139-0.13,0.348-0.195,0.631-0.195h0.501h9.208
			c0.252,0,0.443,0.076,0.574,0.229c0.129,0.152,0.195,0.374,0.195,0.663v2.631c0,0.387-0.059,0.654-0.168,0.803
			c-0.111,0.149-0.312,0.223-0.604,0.223c-0.305,0-0.516-0.081-0.631-0.245c-0.115-0.163-0.172-0.531-0.172-1.104v-1.594h-5.931
			v3.757h2.921v-0.591c0-0.401,0.054-0.681,0.162-0.836c0.105-0.156,0.295-0.234,0.562-0.234c0.26,0,0.439,0.083,0.541,0.251
			c0.1,0.167,0.15,0.525,0.15,1.075v2.073c0,0.558-0.055,0.914-0.156,1.07c-0.104,0.156-0.29,0.234-0.56,0.234
			c-0.268,0-0.45-0.089-0.552-0.268c-0.101-0.179-0.148-0.524-0.148-1.037v-0.39h-2.923v4.938h5.933v-1.807
			c0-0.572,0.057-0.939,0.172-1.104c0.115-0.163,0.326-0.245,0.631-0.245c0.282,0,0.48,0.076,0.596,0.229
			c0.116,0.153,0.176,0.44,0.176,0.864v2.809c0,0.268-0.067,0.473-0.201,0.613c-0.134,0.142-0.323,0.212-0.568,0.212h-9.208
			L169.035,33.124L169.035,33.124z"/>
		<path fill="#FFFFFF" d="M185.02,31.552h0.758c0.431,0,0.735,0.06,0.914,0.178c0.178,0.119,0.268,0.316,0.268,0.591
			c0,0.298-0.078,0.506-0.232,0.624c-0.156,0.119-0.449,0.179-0.881,0.179H182.1c-0.253,0-0.446-0.068-0.579-0.206
			c-0.135-0.138-0.201-0.336-0.201-0.597c0-0.274,0.074-0.472,0.223-0.591c0.148-0.118,0.396-0.178,0.736-0.178h0.367h0.646V21.408
			h-0.646c-0.559,0-0.918-0.052-1.081-0.156s-0.245-0.301-0.245-0.591c0-0.252,0.063-0.441,0.195-0.568
			c0.13-0.126,0.322-0.189,0.585-0.189h4.704c1.137,0,1.984,0.054,2.547,0.162c0.561,0.107,1.035,0.291,1.422,0.552
			c0.498,0.334,0.89,0.776,1.176,1.326c0.285,0.55,0.43,1.141,0.43,1.772c0,0.854-0.263,1.589-0.787,2.201
			c-0.521,0.613-1.254,1.039-2.188,1.276c0.193,0.112,0.365,0.242,0.518,0.391c0.153,0.149,0.301,0.327,0.441,0.535l2.24,3.434
			h0.367c0.416,0,0.701,0.058,0.857,0.172c0.155,0.116,0.233,0.314,0.233,0.597c0,0.261-0.065,0.459-0.195,0.597
			s-0.321,0.206-0.573,0.206h-1.26c-0.365,0-0.721-0.268-1.07-0.803c-0.045-0.045-0.076-0.082-0.101-0.111l-2.14-3.244
			c-0.439-0.661-0.803-1.088-1.089-1.281c-0.284-0.193-0.662-0.29-1.132-0.29h-1.48L185.02,31.552L185.02,31.552z M185.02,21.408
			v4.504h2.307c1.041,0,1.823-0.188,2.348-0.563c0.523-0.375,0.785-0.935,0.785-1.678c0-0.75-0.256-1.315-0.77-1.694
			c-0.512-0.379-1.277-0.568-2.296-0.568L185.02,21.408L185.02,21.408z"/>
	</g>
	<g>
		<path fill="#4C2870" d="M28.942,96.558c-0.294-0.014-0.504-0.077-0.63-0.189c-0.127-0.113-0.19-0.296-0.19-0.549
			c0-0.239,0.062-0.422,0.182-0.549c0.117-0.126,0.296-0.189,0.525-0.189h2.584c0.253,0,0.446,0.063,0.579,0.189
			c0.134,0.127,0.2,0.31,0.2,0.549c0,0.232-0.085,0.414-0.256,0.544c-0.171,0.13-0.407,0.194-0.708,0.194h-0.195H30.93l2.325,3.292
			l2.423-3.292h-0.104H35.36c-0.328,0-0.584-0.066-0.771-0.2c-0.185-0.133-0.274-0.312-0.274-0.538c0-0.226,0.072-0.405,0.215-0.538
			c0.144-0.134,0.338-0.2,0.584-0.2h2.584c0.232,0,0.408,0.063,0.528,0.189c0.12,0.127,0.18,0.31,0.18,0.549
			c0,0.26-0.07,0.448-0.21,0.563c-0.141,0.117-0.371,0.175-0.692,0.175l-3.271,4.43l3.565,4.81c0.304,0.02,0.523,0.089,0.667,0.205
			c0.146,0.116,0.218,0.283,0.218,0.502c0,0.226-0.068,0.405-0.205,0.538c-0.14,0.134-0.321,0.2-0.557,0.2h-2.748
			c-0.354,0-0.595-0.055-0.718-0.164s-0.185-0.301-0.185-0.574c0-0.267,0.075-0.451,0.226-0.554
			c0.151-0.103,0.444-0.153,0.882-0.153h0.42l-2.625-3.62l-2.584,3.62h0.462c0.474,0,0.789,0.051,0.953,0.153
			s0.246,0.287,0.246,0.554c0,0.273-0.062,0.465-0.192,0.574c-0.132,0.109-0.373,0.164-0.729,0.164H28.6
			c-0.232,0-0.417-0.066-0.557-0.2c-0.137-0.133-0.205-0.312-0.205-0.538c0-0.232,0.072-0.406,0.218-0.523
			c0.144-0.115,0.373-0.177,0.687-0.184l3.466-4.748L28.942,96.558z"/>
		<path fill="#4C2870" d="M35.515,130.998c0.523,0,0.86,0.049,1.01,0.148c0.146,0.1,0.221,0.285,0.221,0.559
			c0,0.28-0.074,0.477-0.221,0.58c-0.147,0.105-0.442,0.158-0.887,0.158h-4.871c-0.444,0-0.738-0.053-0.884-0.158
			c-0.145-0.104-0.216-0.3-0.216-0.58c0-0.271,0.08-0.459,0.241-0.559c0.16-0.1,0.494-0.148,1-0.148h1.487v-3.402l-3.415-5.834
			h-0.174c-0.41,0-0.69-0.057-0.843-0.164c-0.149-0.109-0.227-0.303-0.227-0.574c0-0.253,0.062-0.438,0.188-0.561
			c0.127-0.121,0.321-0.18,0.591-0.18h0.461h2.348c0.403,0,0.675,0.055,0.815,0.164c0.14,0.108,0.21,0.301,0.21,0.573
			s-0.084,0.465-0.251,0.573c-0.168,0.109-0.477,0.164-0.918,0.164h-0.338l2.479,4.451l2.574-4.451h-0.42
			c-0.369,0-0.625-0.055-0.771-0.164c-0.144-0.108-0.215-0.301-0.215-0.573c0-0.287,0.062-0.481,0.188-0.585
			c0.122-0.102,0.434-0.152,0.933-0.152h0.267h1.62c0.521,0,0.854,0.053,1,0.158c0.146,0.105,0.223,0.299,0.223,0.579
			c0,0.272-0.074,0.465-0.223,0.573c-0.146,0.109-0.426,0.164-0.836,0.164h-0.164l-3.483,5.979v3.262H35.515z"/>
		<path fill="#4C2870" d="M30.614,155.017l1.764-6.133c0.062-0.219,0.132-0.356,0.21-0.414c0.079-0.059,0.224-0.088,0.429-0.088
			h0.461c0.195,0,0.34,0.031,0.425,0.093s0.159,0.185,0.221,0.368l2,6.174l1.005-8.152H35.52c-0.314,0-0.545-0.054-0.692-0.164
			c-0.146-0.105-0.22-0.283-0.22-0.521c0-0.261,0.067-0.438,0.21-0.545c0.14-0.104,0.398-0.152,0.784-0.152h3.312
			c0.15,0,0.284,0.065,0.4,0.2c0.116,0.133,0.174,0.299,0.174,0.497c0,0.231-0.065,0.403-0.195,0.518
			c-0.13,0.115-0.325,0.171-0.584,0.171h-0.123l-1.456,10.254c-0.021,0.213-0.06,0.354-0.117,0.42
			c-0.059,0.067-0.15,0.104-0.28,0.104H36c-0.157,0-0.274-0.03-0.356-0.092s-0.154-0.179-0.218-0.351l-2.225-7.057l-1.969,7.076
			c-0.048,0.171-0.109,0.281-0.188,0.338c-0.073,0.057-0.195,0.082-0.366,0.082h-0.771c-0.137,0-0.238-0.032-0.302-0.1
			c-0.065-0.062-0.111-0.213-0.142-0.443l-1.559-10.232h-0.123c-0.267,0-0.467-0.06-0.6-0.176c-0.137-0.115-0.2-0.285-0.2-0.513
			c0-0.205,0.055-0.372,0.164-0.505c0.106-0.129,0.243-0.192,0.397-0.192h3.322c0.376,0,0.634,0.054,0.774,0.152
			c0.14,0.104,0.21,0.284,0.21,0.545c0,0.237-0.074,0.414-0.223,0.521c-0.146,0.11-0.375,0.164-0.682,0.164H29.5L30.614,155.017z"/>
		<path fill="#4C2870" d="M46.815,156.197h3.292c0.267,0,0.463,0.057,0.59,0.17c0.126,0.111,0.189,0.291,0.189,0.537
			c0,0.28-0.062,0.475-0.183,0.579c-0.12,0.106-0.34,0.159-0.661,0.159h-7.957c-0.271,0-0.479-0.062-0.612-0.186
			c-0.139-0.123-0.205-0.31-0.205-0.556c0-0.237,0.069-0.417,0.215-0.53c0.143-0.117,0.356-0.176,0.646-0.176h3.127v-6.572h-2
			c-0.277,0-0.491-0.062-0.641-0.188c-0.146-0.127-0.221-0.31-0.221-0.55c0-0.238,0.065-0.418,0.205-0.537
			c0.137-0.12,0.342-0.18,0.612-0.18h3.005c0.187,0,0.329,0.037,0.438,0.111c0.104,0.074,0.159,0.18,0.159,0.309v7.607
			L46.815,156.197L46.815,156.197z M44.918,145.214c0-0.738,0.066-1.203,0.2-1.396c0.133-0.189,0.418-0.285,0.856-0.285
			c0.424,0,0.704,0.079,0.841,0.239s0.205,0.542,0.205,1.146c0,0.588-0.063,0.951-0.19,1.093c-0.126,0.14-0.412,0.209-0.854,0.209
			c-0.438,0-0.726-0.062-0.856-0.193C44.984,145.895,44.918,145.625,44.918,145.214z"/>
		<path fill="#4C2870" d="M61.55,157.642c-0.144,0-0.242-0.036-0.302-0.107c-0.059-0.072-0.087-0.211-0.087-0.416v-0.84
			c-0.41,0.512-0.923,0.91-1.538,1.194c-0.615,0.282-1.282,0.425-2,0.425c-1.292,0-2.374-0.459-3.245-1.379
			c-0.872-0.919-1.308-2.062-1.308-3.43c0-1.416,0.465-2.594,1.395-3.532c0.933-0.94,2.091-1.41,3.479-1.41
			c0.704,0,1.336,0.125,1.896,0.374c0.562,0.25,1.042,0.617,1.446,1.104v-3.928H60.74c-0.595,0-0.979-0.054-1.153-0.158
			s-0.262-0.299-0.262-0.58c0-0.246,0.07-0.432,0.21-0.555s0.344-0.184,0.61-0.184h2.102c0.205,0,0.354,0.033,0.446,0.102
			c0.093,0.069,0.139,0.176,0.139,0.318v11.557h0.461c0.335,0,0.578,0.057,0.729,0.17c0.147,0.111,0.226,0.291,0.226,0.537
			c0,0.232-0.062,0.414-0.192,0.543c-0.133,0.131-0.307,0.195-0.523,0.195H61.55L61.55,157.642z M54.833,153.039
			c0,0.943,0.307,1.717,0.913,2.316c0.608,0.604,1.381,0.902,2.317,0.902c0.94,0,1.719-0.312,2.328-0.938
			c0.605-0.626,0.913-1.42,0.913-2.385c0-0.949-0.305-1.731-0.908-2.349c-0.604-0.615-1.382-0.922-2.333-0.922
			c-0.964,0-1.743,0.312-2.338,0.932C55.131,151.22,54.833,152.033,54.833,153.039z"/>
		<path fill="#4C2870" d="M73.865,148.742c0.335,0,0.58,0.061,0.733,0.174c0.151,0.117,0.229,0.305,0.229,0.557
			c0,0.238-0.072,0.419-0.215,0.539c-0.145,0.117-0.359,0.179-0.646,0.179h-4.151v3.429c0,1.118,0.145,1.856,0.436,2.215
			c0.291,0.354,0.788,0.53,1.492,0.53c0.622,0,1.367-0.183,2.235-0.544c0.868-0.359,1.402-0.544,1.607-0.544
			c0.191,0,0.354,0.069,0.487,0.205c0.134,0.14,0.2,0.308,0.2,0.503c0,0.229-0.084,0.422-0.251,0.59
			c-0.168,0.168-0.453,0.33-0.856,0.487c-0.67,0.269-1.271,0.461-1.81,0.584s-1.041,0.187-1.515,0.187
			c-0.801,0-1.473-0.127-2.016-0.387c-0.544-0.256-0.949-0.637-1.215-1.146c-0.137-0.235-0.234-0.521-0.292-0.85
			c-0.059-0.33-0.087-0.834-0.087-1.52v-0.316v-3.426H66.49c-0.287,0-0.496-0.057-0.625-0.169c-0.13-0.112-0.195-0.295-0.195-0.548
			c0-0.28,0.09-0.473,0.27-0.574c0.178-0.104,0.557-0.154,1.138-0.154h1.159v-2.102v-0.545c0-0.293,0.062-0.51,0.188-0.65
			s0.322-0.21,0.592-0.21c0.301,0,0.509,0.086,0.625,0.257c0.113,0.172,0.174,0.562,0.174,1.168v2.082H73.865L73.865,148.742z"/>
		<path fill="#4C2870" d="M79.812,156.197v-10.5h-0.195c-0.465,0-0.785-0.055-0.958-0.164c-0.175-0.109-0.262-0.301-0.262-0.574
			c0-0.246,0.067-0.432,0.21-0.555c0.14-0.123,0.344-0.184,0.607-0.184h1.562c0.185,0,0.328,0.037,0.431,0.111
			c0.104,0.074,0.154,0.178,0.154,0.309v4.645c0.499-0.463,0.993-0.808,1.48-1.029c0.487-0.223,0.995-0.334,1.521-0.334
			c1.032,0,1.844,0.322,2.437,0.967c0.593,0.643,0.889,1.529,0.889,2.666v4.646h0.479c0.345,0,0.588,0.055,0.738,0.168
			c0.15,0.111,0.226,0.293,0.226,0.538s-0.065,0.431-0.202,0.554c-0.14,0.123-0.345,0.187-0.615,0.187h-2.729
			c-0.318,0-0.539-0.054-0.648-0.159c-0.113-0.104-0.169-0.299-0.169-0.578c0-0.272,0.067-0.459,0.21-0.56
			c0.14-0.101,0.402-0.147,0.794-0.147h0.356v-4.267c0-0.802-0.181-1.41-0.543-1.831c-0.359-0.42-0.889-0.63-1.579-0.63
			c-0.701,0-1.318,0.233-1.851,0.707c-0.53,0.472-0.794,1.057-0.794,1.754v4.267h0.359c0.407,0,0.687,0.051,0.829,0.152
			c0.146,0.104,0.217,0.287,0.217,0.555c0,0.279-0.06,0.475-0.169,0.578c-0.113,0.105-0.33,0.159-0.651,0.159h-2.729
			c-0.268,0-0.468-0.062-0.601-0.187c-0.134-0.123-0.2-0.309-0.2-0.554c0-0.272,0.08-0.461,0.241-0.561
			c0.16-0.101,0.473-0.146,0.938-0.146h0.214v-0.003L79.812,156.197L79.812,156.197z"/>
		<path fill="#4C2870" d="M30.808,181.397h0.687c0.403,0,0.688,0.056,0.854,0.164s0.243,0.29,0.243,0.543
			c0,0.28-0.069,0.474-0.215,0.579c-0.144,0.105-0.458,0.158-0.94,0.158H29.19h-0.461c-0.253,0-0.443-0.062-0.569-0.186
			c-0.126-0.121-0.188-0.309-0.188-0.555c0-0.27,0.07-0.451,0.221-0.557c0.146-0.102,0.425-0.15,0.835-0.15h0.185v-9.236h-0.164
			c-0.407,0-0.689-0.058-0.846-0.164c-0.153-0.109-0.229-0.304-0.229-0.574c0-0.254,0.062-0.439,0.188-0.562s0.323-0.181,0.59-0.181
			h0.441h2.143c0.547,0,0.896,0.054,1.041,0.158c0.146,0.104,0.223,0.301,0.223,0.578c0,0.273-0.095,0.465-0.277,0.574
			c-0.188,0.109-0.533,0.164-1.046,0.164H30.81v3.568h4.912v-3.568h-0.697c-0.392,0-0.668-0.058-0.836-0.175
			c-0.167-0.114-0.251-0.304-0.251-0.563c0-0.277,0.077-0.474,0.229-0.578c0.154-0.104,0.532-0.158,1.134-0.158h2.04h0.464
			c0.243,0,0.432,0.062,0.559,0.186c0.126,0.123,0.188,0.311,0.188,0.557c0,0.267-0.07,0.455-0.216,0.566
			c-0.144,0.112-0.397,0.17-0.769,0.17H37.32v9.238h0.164c0.41,0,0.688,0.053,0.841,0.158c0.15,0.104,0.229,0.287,0.229,0.549
			c0,0.277-0.072,0.477-0.218,0.579c-0.144,0.104-0.475,0.157-0.995,0.157h-2.12c-0.557,0-0.906-0.053-1.059-0.157
			c-0.147-0.104-0.226-0.302-0.226-0.579c0-0.27,0.089-0.451,0.267-0.557c0.178-0.102,0.519-0.15,1.018-0.15h0.502v-4.268H30.81
			L30.808,181.397L30.808,181.397z"/>
		<path fill="#4C2870" d="M42.395,178.556c0.055,0.984,0.388,1.744,1,2.281c0.608,0.537,1.444,0.806,2.507,0.806
			c0.8,0,1.671-0.214,2.615-0.642c0.94-0.43,1.514-0.644,1.712-0.644c0.205,0,0.376,0.063,0.513,0.194s0.205,0.291,0.205,0.48
			c0,0.197-0.072,0.379-0.215,0.543c-0.146,0.164-0.373,0.324-0.688,0.481c-0.684,0.335-1.39,0.592-2.114,0.771
			c-0.729,0.176-1.451,0.268-2.171,0.268c-1.56,0-2.807-0.449-3.741-1.35c-0.938-0.897-1.405-2.09-1.405-3.574
			c0-1.51,0.496-2.731,1.487-3.67c0.988-0.938,2.28-1.403,3.876-1.403c1.439,0,2.639,0.438,3.589,1.312
			c0.95,0.875,1.425,1.937,1.425,3.18c0,0.384-0.081,0.641-0.241,0.771c-0.16,0.131-0.596,0.193-1.307,0.193h-0.154h-6.891
			L42.395,178.556L42.395,178.556z M42.447,177.212h6.675c-0.103-0.812-0.44-1.469-1.021-1.963
			c-0.578-0.496-1.287-0.744-2.127-0.744c-0.909,0-1.678,0.24-2.297,0.718C43.055,175.703,42.645,176.367,42.447,177.212z"/>
		<path fill="#4C2870" d="M59.417,181.397h3.292c0.27,0,0.463,0.056,0.59,0.169c0.126,0.111,0.189,0.292,0.189,0.538
			c0,0.28-0.06,0.474-0.18,0.579s-0.342,0.158-0.661,0.158H54.69c-0.273,0-0.479-0.062-0.615-0.186
			c-0.136-0.121-0.205-0.309-0.205-0.555c0-0.238,0.072-0.417,0.215-0.533c0.146-0.113,0.359-0.174,0.646-0.174h3.127v-6.572h-2
			c-0.28,0-0.494-0.062-0.644-0.188c-0.146-0.127-0.221-0.312-0.221-0.549c0-0.24,0.068-0.42,0.205-0.539s0.342-0.18,0.615-0.18
			h3.004c0.185,0,0.33,0.037,0.436,0.111c0.105,0.075,0.159,0.18,0.159,0.309v7.608L59.417,181.397L59.417,181.397z M57.52,170.416
			c0-0.736,0.063-1.203,0.2-1.396c0.133-0.19,0.418-0.287,0.854-0.287c0.424,0,0.704,0.08,0.841,0.241
			c0.14,0.16,0.205,0.542,0.205,1.145c0,0.588-0.062,0.95-0.188,1.092s-0.412,0.209-0.856,0.209c-0.438,0-0.723-0.062-0.854-0.191
			C57.586,171.095,57.52,170.826,57.52,170.416z"/>
		<path fill="#4C2870" d="M75.228,182.298c0,0.957-0.048,1.636-0.146,2.035c-0.096,0.397-0.26,0.75-0.492,1.051
			c-0.383,0.507-0.919,0.892-1.607,1.154c-0.69,0.264-1.504,0.396-2.44,0.396c-0.776,0-1.348-0.076-1.708-0.228
			c-0.355-0.149-0.538-0.391-0.538-0.719c0-0.213,0.087-0.396,0.265-0.561c0.174-0.159,0.381-0.24,0.62-0.24
			c0.185,0,0.468,0.023,0.851,0.077c0.383,0.052,0.673,0.075,0.872,0.075c1.012,0,1.729-0.23,2.153-0.695
			c0.424-0.465,0.636-1.264,0.636-2.391v-1.239c-0.417,0.483-0.878,0.841-1.384,1.063c-0.509,0.228-1.087,0.34-1.743,0.34
			c-1.278,0-2.336-0.426-3.173-1.275c-0.838-0.854-1.258-1.932-1.258-3.232c0-1.312,0.433-2.4,1.294-3.269
			c0.858-0.864,1.928-1.298,3.196-1.298c0.526,0,1.041,0.099,1.543,0.293c0.502,0.193,1.013,0.488,1.522,0.887v-0.736
			c0-0.145,0.046-0.248,0.139-0.316c0.092-0.068,0.237-0.104,0.438-0.104h1.548c0.271,0,0.479,0.062,0.615,0.181
			c0.136,0.119,0.202,0.3,0.202,0.539c0,0.271-0.085,0.465-0.256,0.574c-0.171,0.107-0.489,0.163-0.964,0.163h-0.185V182.298z
			 M70.778,174.884c-0.896,0-1.627,0.277-2.194,0.83c-0.564,0.556-0.851,1.271-0.851,2.154c0,0.867,0.284,1.578,0.851,2.139
			c0.567,0.557,1.299,0.834,2.194,0.834c0.889,0,1.618-0.277,2.188-0.834c0.57-0.561,0.856-1.271,0.856-2.139
			s-0.286-1.582-0.856-2.146C72.396,175.166,71.667,174.884,70.778,174.884z"/>
		<path fill="#4C2870" d="M79.812,181.397v-10.5h-0.195c-0.465,0-0.785-0.056-0.958-0.164c-0.175-0.108-0.262-0.301-0.262-0.573
			c0-0.246,0.067-0.433,0.21-0.556c0.14-0.123,0.344-0.185,0.607-0.185h1.562c0.185,0,0.328,0.037,0.431,0.113
			c0.104,0.072,0.154,0.178,0.154,0.307v4.646c0.499-0.464,0.993-0.808,1.48-1.03c0.487-0.222,0.995-0.332,1.521-0.332
			c1.032,0,1.844,0.32,2.437,0.963c0.593,0.646,0.889,1.531,0.889,2.666v4.646h0.479c0.345,0,0.588,0.057,0.738,0.169
			s0.226,0.292,0.226,0.538s-0.065,0.432-0.202,0.555c-0.14,0.123-0.345,0.186-0.615,0.186h-2.729c-0.318,0-0.539-0.055-0.648-0.158
			c-0.113-0.104-0.169-0.299-0.169-0.579c0-0.271,0.067-0.46,0.21-0.562c0.14-0.1,0.402-0.146,0.794-0.146h0.356v-4.269
			c0-0.801-0.181-1.407-0.543-1.828c-0.359-0.422-0.889-0.633-1.579-0.633c-0.701,0-1.318,0.236-1.851,0.707
			c-0.53,0.475-0.794,1.06-0.794,1.754v4.269h0.359c0.407,0,0.687,0.054,0.829,0.153c0.146,0.102,0.217,0.285,0.217,0.554
			c0,0.28-0.06,0.476-0.169,0.579c-0.113,0.104-0.33,0.158-0.651,0.158h-2.729c-0.268,0-0.468-0.062-0.601-0.186
			c-0.134-0.123-0.2-0.309-0.2-0.555c0-0.273,0.08-0.46,0.241-0.559c0.16-0.102,0.473-0.148,0.938-0.148L79.812,181.397
			L79.812,181.397z"/>
		<path fill="#4C2870" d="M99.069,173.942c0.335,0,0.58,0.06,0.733,0.175c0.151,0.116,0.229,0.301,0.229,0.555
			c0,0.238-0.072,0.418-0.215,0.537c-0.146,0.119-0.359,0.182-0.646,0.182h-4.15v3.426c0,1.121,0.145,1.857,0.436,2.215
			s0.788,0.533,1.492,0.533c0.622,0,1.367-0.184,2.235-0.544c0.865-0.362,1.402-0.544,1.607-0.544c0.191,0,0.354,0.066,0.487,0.205
			c0.134,0.138,0.2,0.305,0.2,0.503c0,0.228-0.084,0.422-0.251,0.59c-0.168,0.167-0.453,0.33-0.856,0.485
			c-0.67,0.268-1.271,0.463-1.81,0.586c-0.538,0.121-1.041,0.185-1.516,0.185c-0.8,0-1.472-0.128-2.015-0.385
			c-0.544-0.257-0.949-0.64-1.215-1.146c-0.137-0.236-0.234-0.521-0.292-0.852c-0.06-0.33-0.087-0.834-0.087-1.518v-0.317v-3.427
			h-1.743c-0.287,0-0.496-0.055-0.625-0.168c-0.13-0.112-0.195-0.295-0.195-0.549c0-0.279,0.089-0.475,0.27-0.574
			c0.178-0.104,0.557-0.153,1.138-0.153h1.159v-2.103v-0.543c0-0.295,0.062-0.512,0.188-0.651s0.323-0.21,0.593-0.21
			c0.301,0,0.509,0.086,0.625,0.257c0.113,0.171,0.174,0.562,0.174,1.168v2.082H99.069L99.069,173.942z"/>
		<path fill="#4C2870" d="M30.972,206.597h0.694c0.396,0,0.68,0.055,0.842,0.164c0.163,0.109,0.245,0.289,0.245,0.543
			c0,0.273-0.069,0.465-0.215,0.574c-0.143,0.107-0.414,0.164-0.81,0.164h-3.445c-0.229,0-0.41-0.063-0.533-0.189
			c-0.123-0.127-0.185-0.311-0.185-0.549c0-0.254,0.066-0.434,0.205-0.543c0.137-0.109,0.36-0.164,0.677-0.164h0.338h0.595v-9.332
			h-0.595c-0.513,0-0.844-0.047-0.995-0.143c-0.148-0.099-0.226-0.277-0.226-0.545c0-0.232,0.06-0.406,0.179-0.521
			c0.119-0.116,0.299-0.176,0.539-0.176h4.327c1.046,0,1.827,0.051,2.343,0.146c0.519,0.102,0.952,0.271,1.31,0.51
			c0.458,0.309,0.815,0.715,1.082,1.221c0.263,0.507,0.395,1.05,0.395,1.631c0,0.785-0.241,1.461-0.723,2.025
			c-0.481,0.562-1.153,0.955-2.018,1.174c0.181,0.103,0.336,0.223,0.479,0.356c0.141,0.138,0.272,0.304,0.402,0.492l2.062,3.157
			h0.338c0.383,0,0.646,0.054,0.79,0.156c0.144,0.106,0.215,0.289,0.215,0.549c0,0.24-0.06,0.425-0.18,0.552
			c-0.12,0.126-0.295,0.188-0.528,0.188H37.42c-0.335,0-0.663-0.246-0.981-0.738c-0.041-0.04-0.072-0.073-0.092-0.103l-1.972-2.983
			c-0.4-0.606-0.734-1.002-1-1.18c-0.264-0.179-0.607-0.268-1.041-0.268H30.97v3.827h0.002V206.597z M30.972,197.265v4.143h2.123
			c0.957,0,1.677-0.172,2.155-0.518c0.482-0.346,0.726-0.859,0.726-1.543c0-0.689-0.236-1.211-0.708-1.559
			c-0.475-0.352-1.179-0.523-2.112-0.523H30.972z"/>
		<path fill="#4C2870" d="M48.219,206.74c-0.562,0.508-1.174,0.893-1.83,1.159c-0.66,0.267-1.34,0.399-2.036,0.399
			c-1.021,0-1.84-0.283-2.466-0.854c-0.625-0.564-0.938-1.306-0.938-2.215c0-1.08,0.416-1.917,1.246-2.516
			c0.831-0.594,1.998-0.891,3.502-0.891c0.396,0,0.796,0.024,1.2,0.076c0.4,0.051,0.814,0.133,1.241,0.24v-0.07
			c0-0.787-0.188-1.367-0.564-1.744c-0.376-0.375-0.96-0.562-1.753-0.562c-0.533,0-1.128,0.146-1.784,0.433s-1.09,0.432-1.302,0.432
			c-0.198,0-0.362-0.08-0.492-0.24c-0.13-0.161-0.195-0.367-0.195-0.621c0-0.402,0.377-0.744,1.136-1.025
			c0.755-0.279,1.721-0.42,2.896-0.42c1.203,0,2.112,0.307,2.729,0.918c0.612,0.611,0.923,1.516,0.923,2.713v4.646h0.502
			c0.482,0,0.81,0.051,0.974,0.152c0.164,0.103,0.246,0.287,0.246,0.555c0,0.244-0.068,0.431-0.205,0.554s-0.342,0.187-0.615,0.187
			h-1.607c-0.191,0-0.352-0.06-0.475-0.174c-0.122-0.117-0.202-0.285-0.243-0.504L48.219,206.74z M48.137,203.509
			c-0.376-0.123-0.74-0.213-1.095-0.271c-0.353-0.061-0.703-0.088-1.051-0.088c-1.053,0-1.883,0.18-2.492,0.533
			c-0.606,0.354-0.913,0.834-0.913,1.438c0,0.465,0.19,0.848,0.569,1.146c0.38,0.301,0.863,0.451,1.451,0.451
			c0.868,0,1.673-0.229,2.415-0.686c0.741-0.453,1.111-0.928,1.111-1.42L48.137,203.509L48.137,203.509z"/>
		<path fill="#4C2870" d="M54.649,206.597v-6.573h-0.195c-0.465,0-0.785-0.056-0.958-0.164c-0.175-0.108-0.262-0.301-0.262-0.573
			c0-0.254,0.072-0.437,0.215-0.549c0.146-0.113,0.376-0.17,0.697-0.17h0.479h0.984c0.185,0,0.328,0.038,0.431,0.113
			c0.104,0.074,0.154,0.178,0.154,0.307v0.697c0.499-0.465,0.993-0.809,1.481-1.029c0.486-0.223,0.994-0.334,1.521-0.334
			c1.032,0,1.844,0.321,2.438,0.965c0.591,0.645,0.887,1.53,0.887,2.666v4.646h0.479c0.345,0,0.589,0.056,0.738,0.169
			c0.15,0.11,0.229,0.292,0.229,0.538c0,0.267-0.081,0.456-0.241,0.568c-0.161,0.11-0.446,0.168-0.856,0.168h-2.266
			c-0.438,0-0.718-0.051-0.841-0.152s-0.188-0.299-0.188-0.584c0-0.268,0.072-0.451,0.215-0.555
			c0.146-0.104,0.414-0.152,0.812-0.152h0.356v-4.268c0-0.802-0.181-1.41-0.543-1.83c-0.359-0.42-0.889-0.631-1.578-0.631
			c-0.695,0-1.312,0.234-1.847,0.707c-0.534,0.474-0.8,1.058-0.8,1.754v4.268h0.359c0.407,0,0.687,0.051,0.829,0.152
			c0.146,0.103,0.217,0.287,0.217,0.555c0,0.285-0.062,0.48-0.188,0.584c-0.123,0.104-0.424,0.152-0.899,0.152h-1.866h-0.556
			c-0.278,0-0.489-0.061-0.632-0.181c-0.14-0.118-0.21-0.306-0.21-0.559c0-0.273,0.08-0.462,0.241-0.56
			c0.16-0.102,0.474-0.147,0.938-0.147L54.649,206.597L54.649,206.597z"/>
		<path fill="#4C2870" d="M75.228,207.5c0,0.957-0.048,1.637-0.146,2.035c-0.096,0.399-0.26,0.75-0.492,1.051
			c-0.383,0.506-0.919,0.894-1.607,1.154c-0.69,0.264-1.504,0.396-2.44,0.396c-0.776,0-1.348-0.075-1.708-0.229
			c-0.355-0.15-0.538-0.389-0.538-0.717c0-0.213,0.087-0.398,0.265-0.561c0.174-0.16,0.381-0.24,0.62-0.24
			c0.185,0,0.468,0.025,0.851,0.076c0.383,0.053,0.673,0.078,0.872,0.078c1.012,0,1.729-0.232,2.153-0.697
			c0.424-0.465,0.636-1.262,0.636-2.389v-1.242c-0.417,0.486-0.878,0.842-1.384,1.064c-0.509,0.227-1.087,0.342-1.743,0.342
			c-1.278,0-2.336-0.428-3.173-1.277c-0.838-0.852-1.258-1.93-1.258-3.234c0-1.312,0.433-2.4,1.294-3.268
			c0.858-0.863,1.928-1.297,3.196-1.297c0.526,0,1.041,0.099,1.543,0.293c0.502,0.195,1.013,0.49,1.522,0.887v-0.738
			c0-0.143,0.046-0.248,0.139-0.316c0.092-0.066,0.237-0.104,0.438-0.104h1.548c0.271,0,0.479,0.061,0.615,0.18
			c0.136,0.119,0.202,0.299,0.202,0.539c0,0.272-0.085,0.465-0.256,0.573s-0.489,0.164-0.964,0.164h-0.185V207.5z M70.778,200.085
			c-0.896,0-1.627,0.275-2.194,0.83c-0.564,0.555-0.851,1.271-0.851,2.151c0,0.868,0.284,1.58,0.851,2.14
			c0.567,0.558,1.299,0.836,2.194,0.836c0.889,0,1.618-0.278,2.188-0.836c0.57-0.56,0.856-1.271,0.856-2.14
			c0-0.866-0.286-1.583-0.856-2.146C72.396,200.367,71.667,200.085,70.778,200.085z"/>
		<path fill="#4C2870" d="M80.201,203.755c0.055,0.982,0.388,1.746,1,2.281c0.611,0.535,1.447,0.807,2.507,0.807
			c0.8,0,1.671-0.215,2.615-0.643c0.943-0.429,1.514-0.643,1.712-0.643c0.205,0,0.376,0.062,0.513,0.191
			c0.14,0.131,0.205,0.291,0.205,0.482c0,0.198-0.069,0.379-0.215,0.543c-0.143,0.164-0.373,0.325-0.687,0.482
			c-0.687,0.334-1.393,0.592-2.117,0.77c-0.729,0.178-1.451,0.266-2.169,0.266c-1.562,0-2.808-0.446-3.743-1.348
			c-0.937-0.898-1.405-2.09-1.405-3.574c0-1.51,0.496-2.73,1.487-3.67c0.991-0.937,2.283-1.404,3.876-1.404
			c1.442,0,2.639,0.438,3.589,1.312s1.425,1.936,1.425,3.18c0,0.383-0.081,0.642-0.238,0.771c-0.16,0.13-0.599,0.193-1.31,0.193
			h-0.153h-6.892V203.755z M80.253,202.414h6.678c-0.104-0.812-0.443-1.469-1.021-1.963c-0.578-0.496-1.287-0.744-2.127-0.744
			c-0.909,0-1.675,0.24-2.297,0.717C80.861,200.903,80.451,201.566,80.253,202.414z"/>
		<path fill="#4C2870" d="M95.962,210.576h1.73c0.199,0,0.36,0.055,0.482,0.164c0.123,0.108,0.188,0.256,0.188,0.44
			c0,0.198-0.059,0.356-0.175,0.478c-0.117,0.119-0.274,0.18-0.477,0.18h-2.766c-0.212,0-0.39-0.063-0.533-0.192
			c-0.144-0.132-0.215-0.291-0.215-0.479V196.56c0-0.189,0.072-0.354,0.215-0.48c0.146-0.129,0.321-0.194,0.533-0.194h2.766
			c0.199,0,0.357,0.058,0.477,0.17c0.117,0.112,0.175,0.271,0.175,0.467c0,0.187-0.062,0.335-0.188,0.451
			c-0.122,0.114-0.283,0.174-0.482,0.174h-1.73V210.576z"/>
		<path fill="#4C2870" d="M112.655,202.332c0-0.965-0.086-1.615-0.26-1.953c-0.173-0.338-0.473-0.508-0.894-0.508
			c-0.502,0-0.898,0.219-1.193,0.656s-0.443,1.039-0.443,1.805v4.269h0.185c0.417,0,0.695,0.049,0.838,0.146
			c0.14,0.102,0.21,0.285,0.21,0.562c0,0.244-0.061,0.431-0.177,0.554c-0.113,0.123-0.294,0.188-0.53,0.188h-1.305
			c-0.294,0-0.494-0.068-0.6-0.205c-0.106-0.137-0.159-0.432-0.159-0.883v-0.297v-4.326v-0.801c0-0.515-0.115-0.918-0.346-1.218
			c-0.23-0.297-0.546-0.442-0.947-0.442c-0.305,0-0.585,0.09-0.84,0.271c-0.254,0.181-0.473,0.448-0.656,0.806v5.649h0.379
			c0.41,0,0.688,0.051,0.831,0.153c0.146,0.102,0.215,0.287,0.215,0.553c0,0.281-0.058,0.475-0.174,0.58s-0.338,0.158-0.667,0.158
			h-2.744c-0.268,0-0.466-0.062-0.593-0.182c-0.127-0.117-0.188-0.306-0.188-0.559c0-0.271,0.077-0.461,0.238-0.561
			c0.16-0.101,0.476-0.146,0.938-0.146h0.205v-6.573h-0.188c-0.479,0-0.805-0.056-0.979-0.164c-0.175-0.106-0.264-0.301-0.264-0.571
			c0-0.24,0.068-0.42,0.205-0.539c0.141-0.119,0.347-0.182,0.619-0.182h1.577c0.229,0,0.379,0.039,0.452,0.118
			c0.073,0.077,0.116,0.243,0.13,0.497c0.279-0.303,0.578-0.521,0.897-0.666c0.316-0.146,0.68-0.217,1.081-0.217
			c0.476,0,0.866,0.104,1.178,0.312c0.309,0.209,0.539,0.525,0.688,0.948c0.287-0.432,0.619-0.748,0.995-0.953
			s0.81-0.309,1.292-0.309c0.882,0,1.526,0.287,1.936,0.861c0.403,0.572,0.607,1.504,0.607,2.789v4.646h0.164
			c0.424,0,0.708,0.052,0.854,0.153c0.143,0.103,0.215,0.287,0.215,0.554c0,0.245-0.062,0.432-0.188,0.555s-0.304,0.187-0.543,0.187
			h-1.25c-0.274,0-0.479-0.082-0.61-0.246c-0.133-0.164-0.197-0.424-0.197-0.778v-4.687h0.005V202.332z"/>
		<path fill="#4C2870" d="M122.427,206.597h3.292c0.267,0,0.463,0.056,0.59,0.169c0.126,0.112,0.188,0.292,0.188,0.538
			c0,0.279-0.06,0.474-0.18,0.578c-0.12,0.105-0.34,0.16-0.661,0.16H117.7c-0.271,0-0.479-0.062-0.615-0.188
			c-0.136-0.123-0.205-0.311-0.205-0.555c0-0.238,0.072-0.416,0.218-0.532c0.143-0.116,0.356-0.175,0.646-0.175h3.127v-6.572h-2
			c-0.28,0-0.494-0.062-0.641-0.188c-0.147-0.127-0.224-0.312-0.224-0.549c0-0.238,0.068-0.418,0.205-0.537
			c0.14-0.121,0.345-0.183,0.615-0.183h3.004c0.188,0,0.33,0.038,0.438,0.113c0.104,0.073,0.156,0.178,0.156,0.308v7.609
			L122.427,206.597L122.427,206.597z M120.53,195.615c0-0.738,0.066-1.203,0.2-1.395c0.133-0.191,0.418-0.287,0.854-0.287
			c0.426,0,0.704,0.08,0.844,0.24c0.137,0.16,0.202,0.543,0.202,1.145c0,0.588-0.062,0.951-0.188,1.092
			c-0.126,0.143-0.412,0.211-0.856,0.211c-0.438,0-0.723-0.062-0.854-0.195C120.596,196.294,120.53,196.025,120.53,195.615z"/>
		<path fill="#4C2870" d="M130.261,206.597v-6.573h-0.194c-0.465,0-0.785-0.056-0.959-0.164c-0.175-0.108-0.262-0.301-0.262-0.573
			c0-0.254,0.069-0.437,0.215-0.549c0.145-0.113,0.377-0.17,0.694-0.17h0.482h0.984c0.185,0,0.326,0.038,0.431,0.113
			c0.103,0.074,0.153,0.178,0.153,0.307v0.697c0.499-0.465,0.991-0.809,1.479-1.029c0.488-0.223,0.996-0.334,1.522-0.334
			c1.03,0,1.844,0.321,2.436,0.965c0.591,0.645,0.888,1.53,0.888,2.666v4.646h0.48c0.342,0,0.588,0.056,0.738,0.169
			c0.147,0.11,0.227,0.292,0.227,0.538c0,0.267-0.081,0.456-0.241,0.568c-0.158,0.11-0.443,0.168-0.854,0.168h-2.268
			c-0.438,0-0.72-0.051-0.843-0.152s-0.184-0.299-0.184-0.584c0-0.268,0.07-0.451,0.215-0.555c0.145-0.104,0.413-0.152,0.812-0.152
			h0.357v-4.268c0-0.802-0.182-1.41-0.544-1.83s-0.889-0.631-1.578-0.631c-0.697,0-1.312,0.234-1.846,0.707
			c-0.534,0.474-0.801,1.058-0.801,1.754v4.268h0.356c0.41,0,0.688,0.051,0.83,0.152c0.146,0.104,0.216,0.287,0.216,0.555
			c0,0.285-0.062,0.48-0.185,0.584s-0.424,0.152-0.902,0.152h-1.865h-0.555c-0.279,0-0.49-0.061-0.631-0.181
			c-0.14-0.118-0.21-0.306-0.21-0.559c0-0.273,0.08-0.462,0.241-0.56c0.159-0.102,0.473-0.147,0.938-0.147L130.261,206.597
			L130.261,206.597z"/>
		<path fill="#4C2870" d="M145.469,205.181c0.055-0.23,0.125-0.381,0.215-0.445c0.088-0.064,0.235-0.098,0.449-0.098h2.245
			c0.104,0,0.187,0.021,0.246,0.062c0.062,0.039,0.094,0.092,0.094,0.15c0,0.035-0.01,0.079-0.021,0.134
			c-0.016,0.058-0.035,0.104-0.062,0.153l-2.82,5.863c-0.047,0.104-0.111,0.188-0.193,0.246c-0.082,0.062-0.172,0.092-0.268,0.092
			c-0.021,0-0.043-0.004-0.066-0.01c-0.021-0.008-0.062-0.021-0.117-0.041l-0.719-0.267c-0.106-0.049-0.188-0.104-0.246-0.164
			c-0.055-0.062-0.082-0.134-0.082-0.216c0-0.074,0-0.128,0-0.159c0-0.03,0.006-0.063,0.021-0.099L145.469,205.181z"/>
		<path fill="#4C2870" d="M163.063,202.332c0-0.965-0.086-1.615-0.26-1.953c-0.175-0.338-0.472-0.508-0.894-0.508
			c-0.502,0-0.897,0.219-1.195,0.656c-0.295,0.438-0.44,1.039-0.44,1.805v4.269h0.184c0.418,0,0.697,0.049,0.836,0.146
			c0.144,0.102,0.211,0.285,0.211,0.562c0,0.244-0.059,0.431-0.174,0.554c-0.117,0.123-0.295,0.188-0.533,0.188h-1.303
			c-0.295,0-0.494-0.068-0.6-0.205c-0.106-0.137-0.16-0.432-0.16-0.883v-0.297v-4.326v-0.801c0-0.515-0.115-0.918-0.346-1.218
			c-0.23-0.297-0.545-0.442-0.945-0.442c-0.307,0-0.586,0.09-0.84,0.271c-0.256,0.181-0.478,0.448-0.658,0.806v5.649h0.381
			c0.41,0,0.688,0.051,0.83,0.153c0.142,0.102,0.215,0.287,0.215,0.553c0,0.281-0.059,0.475-0.174,0.58
			c-0.117,0.105-0.338,0.158-0.666,0.158h-2.744c-0.268,0-0.465-0.062-0.594-0.182c-0.127-0.117-0.189-0.306-0.189-0.559
			c0-0.271,0.08-0.461,0.24-0.561c0.16-0.101,0.476-0.146,0.938-0.146h0.205v-6.573h-0.187c-0.479,0-0.805-0.056-0.979-0.164
			c-0.179-0.106-0.265-0.301-0.265-0.571c0-0.24,0.068-0.42,0.205-0.539c0.142-0.119,0.346-0.182,0.619-0.182h1.578
			c0.229,0,0.379,0.039,0.451,0.118c0.071,0.077,0.115,0.243,0.129,0.497c0.279-0.303,0.578-0.521,0.896-0.666
			c0.319-0.146,0.682-0.217,1.082-0.217c0.477,0,0.866,0.104,1.18,0.312c0.309,0.209,0.539,0.525,0.688,0.948
			c0.287-0.432,0.619-0.748,0.994-0.953c0.377-0.205,0.808-0.309,1.293-0.309c0.881,0,1.525,0.287,1.937,0.861
			c0.403,0.572,0.606,1.504,0.606,2.789v4.646h0.164c0.424,0,0.707,0.052,0.854,0.153c0.143,0.104,0.215,0.287,0.215,0.554
			c0,0.245-0.062,0.432-0.188,0.555s-0.303,0.187-0.543,0.187h-1.25c-0.274,0-0.479-0.082-0.612-0.246
			c-0.132-0.164-0.195-0.424-0.195-0.778L163.063,202.332L163.063,202.332z"/>
		<path fill="#4C2870" d="M174.241,206.74c-0.561,0.508-1.172,0.893-1.83,1.159c-0.66,0.267-1.338,0.399-2.035,0.399
			c-1.02,0-1.842-0.283-2.467-0.854s-0.938-1.306-0.938-2.215c0-1.08,0.412-1.917,1.241-2.516c0.832-0.594,1.998-0.891,3.502-0.891
			c0.396,0,0.8,0.024,1.201,0.076c0.402,0.051,0.816,0.133,1.24,0.24v-0.07c0-0.787-0.188-1.367-0.562-1.744
			c-0.379-0.375-0.964-0.562-1.757-0.562c-0.53,0-1.127,0.146-1.78,0.433c-0.656,0.286-1.095,0.432-1.306,0.432
			c-0.196,0-0.36-0.08-0.489-0.24c-0.134-0.161-0.195-0.367-0.195-0.621c0-0.402,0.379-0.744,1.133-1.025
			c0.756-0.279,1.721-0.42,2.898-0.42c1.198,0,2.108,0.307,2.727,0.918c0.615,0.611,0.924,1.516,0.924,2.713v4.646h0.502
			c0.484,0,0.812,0.051,0.978,0.152c0.164,0.103,0.246,0.287,0.246,0.555c0,0.244-0.07,0.431-0.205,0.554
			c-0.142,0.123-0.347,0.187-0.615,0.187h-1.611c-0.188,0-0.348-0.06-0.471-0.174c-0.123-0.117-0.205-0.285-0.246-0.504
			L174.241,206.74z M174.159,203.509c-0.377-0.123-0.74-0.213-1.092-0.271c-0.354-0.061-0.703-0.088-1.051-0.088
			c-1.058,0-1.888,0.18-2.492,0.533c-0.609,0.354-0.912,0.834-0.912,1.438c0,0.465,0.188,0.848,0.568,1.146
			c0.379,0.3,0.86,0.451,1.448,0.451c0.867,0,1.675-0.229,2.414-0.686c0.742-0.453,1.113-0.928,1.113-1.42L174.159,203.509
			L174.159,203.509z"/>
		<path fill="#4C2870" d="M182.239,206.597h0.297c0.342,0,0.607,0.062,0.799,0.189c0.191,0.125,0.287,0.305,0.287,0.535
			c0,0.246-0.084,0.43-0.25,0.547c-0.168,0.113-0.434,0.174-0.795,0.174h-2.83c-0.205,0-0.377-0.068-0.514-0.205
			s-0.205-0.311-0.205-0.516c0-0.252,0.094-0.438,0.277-0.554c0.186-0.116,0.479-0.175,0.883-0.175h0.205l3.319-3.403l-3.262-3.169
			h-0.143c-0.398,0-0.672-0.053-0.826-0.158c-0.154-0.104-0.23-0.293-0.23-0.561c0-0.279,0.086-0.475,0.265-0.578
			c0.174-0.104,0.508-0.159,1-0.159h2.102c0.369,0,0.637,0.062,0.805,0.183c0.168,0.117,0.252,0.305,0.252,0.559
			c0,0.232-0.096,0.41-0.28,0.533c-0.188,0.123-0.459,0.185-0.814,0.185h-0.082l2.205,2.163l2.104-2.163h-0.218
			c-0.385,0-0.668-0.058-0.852-0.169c-0.188-0.113-0.277-0.289-0.277-0.527c0-0.268,0.082-0.461,0.246-0.58s0.435-0.18,0.801-0.18
			h2.666c0.211,0,0.386,0.066,0.521,0.2c0.133,0.133,0.199,0.306,0.199,0.519c0,0.252-0.086,0.438-0.258,0.561
			c-0.173,0.117-0.443,0.18-0.818,0.18h-0.287l-2.943,3.062l3.591,3.511h0.104c0.26,0,0.461,0.062,0.604,0.188
			s0.217,0.308,0.217,0.539c0,0.271-0.082,0.461-0.246,0.562c-0.164,0.104-0.502,0.153-1.019,0.153h-2.092
			c-0.36,0-0.629-0.06-0.799-0.174c-0.172-0.117-0.256-0.3-0.256-0.546c0-0.226,0.082-0.401,0.246-0.532
			c0.164-0.129,0.389-0.192,0.676-0.192h0.574l-2.584-2.522L182.239,206.597z"/>
		<path fill="#4C2870" d="M197.413,197.142h-1.729c-0.205,0-0.367-0.057-0.488-0.169c-0.119-0.112-0.18-0.265-0.18-0.456
			c0-0.198,0.057-0.354,0.17-0.467c0.11-0.112,0.271-0.17,0.479-0.17h2.756c0.222,0,0.4,0.064,0.543,0.195
			c0.146,0.131,0.218,0.291,0.218,0.479v14.604c0,0.188-0.07,0.352-0.218,0.479c-0.143,0.129-0.321,0.192-0.543,0.192h-2.756
			c-0.199,0-0.354-0.061-0.475-0.18c-0.115-0.119-0.174-0.279-0.174-0.479c0-0.189,0.061-0.34,0.18-0.445
			c0.121-0.105,0.283-0.158,0.488-0.158h1.729V197.142z"/>
		<g>
			<path fill="#4C2870" d="M30.153,71.188h-0.164c-0.41,0-0.692-0.055-0.846-0.164c-0.154-0.109-0.231-0.301-0.231-0.574
				c0-0.253,0.065-0.439,0.195-0.559s0.325-0.18,0.584-0.18h0.461h2.102c0.555,0,0.906,0.053,1.057,0.159
				c0.149,0.105,0.226,0.299,0.226,0.579c0,0.273-0.089,0.465-0.267,0.574c-0.179,0.109-0.517,0.164-1.016,0.164h-0.44v5.619
				c0,0.759,0.036,1.311,0.106,1.656c0.072,0.345,0.19,0.661,0.354,0.948c0.239,0.417,0.572,0.742,1,0.975
				c0.428,0.233,0.9,0.348,1.42,0.348c0.978,0,1.689-0.293,2.138-0.881c0.447-0.588,0.671-1.539,0.671-2.852v-5.813H36.96
				c-0.532,0-0.891-0.053-1.07-0.159c-0.183-0.105-0.272-0.299-0.272-0.579c0-0.28,0.072-0.474,0.215-0.579
				c0.145-0.106,0.441-0.159,0.893-0.159h2.266h0.492c0.246,0,0.432,0.062,0.559,0.185s0.19,0.308,0.19,0.554
				c0,0.273-0.075,0.465-0.227,0.574c-0.15,0.109-0.424,0.164-0.819,0.164h-0.145v6.04c0,1.66-0.371,2.906-1.112,3.737
				c-0.742,0.83-1.857,1.245-3.349,1.245c-1.347,0-2.422-0.415-3.225-1.245c-0.805-0.831-1.205-1.95-1.205-3.358v-6.419H30.153z"/>
			<path fill="#4C2870" d="M50.301,80.427c0.527,0,0.863,0.049,1.011,0.148c0.146,0.099,0.221,0.285,0.221,0.559
				c0,0.28-0.073,0.474-0.221,0.579c-0.146,0.106-0.482,0.159-1.011,0.159h-6.224h-0.48c-0.246,0-0.436-0.062-0.564-0.185
				s-0.195-0.308-0.195-0.554c0-0.273,0.076-0.46,0.228-0.559c0.149-0.1,0.488-0.147,1.015-0.147h2.317v-9.239h-2.317
				c-0.513,0-0.848-0.053-1.005-0.159c-0.157-0.105-0.236-0.299-0.236-0.579c0-0.253,0.065-0.438,0.195-0.559s0.324-0.18,0.584-0.18
				h0.462h6.225h0.481c0.246,0,0.432,0.062,0.56,0.185c0.127,0.123,0.188,0.308,0.188,0.554c0,0.28-0.076,0.474-0.229,0.579
				c-0.154,0.106-0.486,0.159-1,0.159h-2.316v9.239L50.301,80.427L50.301,80.427z"/>
		</g>
	</g>
	<g>
		<path fill="#4C2870" d="M196.15,71.42h-0.134c-0.342,0-0.585-0.057-0.728-0.169c-0.145-0.113-0.216-0.303-0.216-0.569
			c0-0.239,0.062-0.422,0.185-0.549c0.123-0.126,0.301-0.189,0.533-0.189h3.107c0.402,0,0.675,0.055,0.814,0.164
			c0.141,0.109,0.211,0.301,0.211,0.574c0,0.253-0.076,0.439-0.227,0.559c-0.15,0.12-0.389,0.18-0.717,0.18h-1.129l3.486,8.941
			l3.395-8.941h-1.363c-0.322,0-0.56-0.06-0.713-0.18c-0.154-0.119-0.23-0.306-0.23-0.559c0-0.273,0.071-0.465,0.215-0.574
			s0.413-0.164,0.811-0.164h3.219c0.232,0,0.409,0.063,0.528,0.189c0.12,0.127,0.18,0.31,0.18,0.549
			c0,0.267-0.071,0.456-0.216,0.569c-0.143,0.112-0.393,0.169-0.748,0.169h-0.123l-3.691,9.659
			c-0.212,0.513-0.379,0.832-0.502,0.959c-0.123,0.126-0.281,0.189-0.473,0.189h-0.584c-0.451,0-0.817-0.362-1.098-1.087
			l-0.02-0.062L196.15,71.42z"/>
		<path fill="#4C2870" d="M216.185,80.802c-0.561,0.507-1.171,0.893-1.83,1.159c-0.66,0.267-1.338,0.399-2.035,0.399
			c-1.02,0-1.841-0.283-2.467-0.851c-0.625-0.567-0.938-1.306-0.938-2.215c0-1.08,0.415-1.917,1.245-2.513
			c0.831-0.594,1.998-0.892,3.502-0.892c0.396,0,0.796,0.025,1.2,0.077c0.402,0.051,0.816,0.132,1.24,0.24v-0.071
			c0-0.786-0.188-1.367-0.564-1.743s-0.96-0.564-1.753-0.564c-0.533,0-1.128,0.145-1.784,0.432s-1.091,0.43-1.303,0.43
			c-0.198,0-0.362-0.08-0.492-0.24c-0.13-0.161-0.194-0.367-0.194-0.621c0-0.402,0.378-0.744,1.133-1.025
			c0.756-0.279,1.721-0.42,2.897-0.42c1.202,0,2.111,0.306,2.727,0.918c0.615,0.611,0.924,1.516,0.924,2.712v4.646h0.502
			c0.485,0,0.811,0.051,0.975,0.153s0.246,0.287,0.246,0.554c0,0.246-0.069,0.431-0.205,0.554c-0.138,0.123-0.343,0.185-0.615,0.185
			h-1.61c-0.191,0-0.349-0.058-0.472-0.174s-0.205-0.284-0.246-0.503L216.185,80.802z M216.103,77.573
			c-0.376-0.123-0.74-0.214-1.092-0.271c-0.353-0.059-0.703-0.087-1.051-0.087c-1.054,0-1.884,0.178-2.492,0.533
			s-0.912,0.834-0.912,1.436c0,0.465,0.189,0.848,0.568,1.148c0.38,0.301,0.863,0.451,1.451,0.451c0.868,0,1.673-0.228,2.415-0.683
			c0.741-0.454,1.112-0.928,1.112-1.42V77.573z"/>
		<path fill="#4C2870" d="M225.743,70.16h-1.744c-0.663,0-1.078-0.054-1.245-0.159c-0.168-0.106-0.251-0.299-0.251-0.579
			c0-0.246,0.069-0.432,0.21-0.555c0.14-0.123,0.343-0.184,0.61-0.184h3.383c0.186,0,0.328,0.037,0.432,0.112
			c0.102,0.075,0.153,0.178,0.153,0.308V80.66h3.22c0.26,0,0.449,0.056,0.569,0.169c0.119,0.112,0.179,0.292,0.179,0.538
			c0,0.28-0.058,0.474-0.174,0.579c-0.116,0.106-0.335,0.159-0.656,0.159h-7.567c-0.267,0-0.47-0.062-0.61-0.185
			c-0.14-0.123-0.21-0.308-0.21-0.554c0-0.239,0.071-0.417,0.216-0.533c0.143-0.116,0.358-0.174,0.646-0.174h2.841V70.16z"/>
		<path fill="#4C2870" d="M236.478,78.322c0,0.861,0.182,1.49,0.544,1.887s0.937,0.594,1.723,0.594c0.745,0,1.383-0.235,1.912-0.707
			c0.53-0.472,0.795-1.062,0.795-1.773v-4.235h-1.405c-0.266,0-0.459-0.057-0.579-0.169c-0.119-0.113-0.179-0.289-0.179-0.528
			c0-0.26,0.064-0.451,0.194-0.574s0.339-0.185,0.626-0.185h2.184c0.26,0,0.442,0.057,0.549,0.169
			c0.105,0.113,0.158,0.389,0.158,0.825v7.035h0.473c0.334,0,0.575,0.055,0.723,0.164c0.146,0.109,0.221,0.29,0.221,0.543
			c0,0.246-0.07,0.431-0.211,0.554c-0.14,0.123-0.344,0.185-0.609,0.185h-1.559c-0.186,0-0.328-0.037-0.432-0.113
			c-0.102-0.074-0.153-0.177-0.153-0.307v-0.697c-0.656,0.506-1.219,0.853-1.687,1.04c-0.469,0.188-0.963,0.282-1.482,0.282
			c-1.127,0-1.974-0.299-2.537-0.897c-0.564-0.598-0.846-1.502-0.846-2.712v-4.614h-0.216c-0.465,0-0.783-0.055-0.954-0.164
			s-0.256-0.301-0.256-0.574c0-0.239,0.066-0.419,0.2-0.538c0.133-0.12,0.34-0.18,0.62-0.18h1.549c0.238,0,0.404,0.048,0.497,0.144
			c0.092,0.096,0.138,0.308,0.138,0.636V78.322z"/>
		<path fill="#4C2870" d="M248.168,77.819c0.055,0.984,0.388,1.745,1,2.281c0.611,0.537,1.447,0.806,2.507,0.806
			c0.8,0,1.671-0.214,2.614-0.642c0.943-0.427,1.515-0.641,1.713-0.641c0.205,0,0.376,0.065,0.513,0.194
			c0.137,0.131,0.205,0.291,0.205,0.482c0,0.198-0.071,0.379-0.216,0.543c-0.143,0.164-0.372,0.325-0.687,0.482
			c-0.684,0.335-1.39,0.592-2.117,0.77c-0.729,0.177-1.451,0.266-2.169,0.266c-1.559,0-2.807-0.449-3.742-1.348
			c-0.938-0.899-1.405-2.09-1.405-3.574c0-1.51,0.495-2.733,1.487-3.67c0.99-0.937,2.282-1.405,3.875-1.405
			c1.442,0,2.639,0.438,3.59,1.312c0.949,0.875,1.425,1.935,1.425,3.179c0,0.383-0.08,0.64-0.241,0.77
			c-0.16,0.13-0.597,0.194-1.307,0.194h-0.154H248.168z M248.219,76.476h6.676c-0.103-0.813-0.442-1.469-1.021-1.964
			c-0.577-0.496-1.286-0.743-2.128-0.743c-0.909,0-1.675,0.239-2.297,0.717C248.827,74.965,248.417,75.628,248.219,76.476z"/>
	</g>
</g>
</svg>
