<?xml version="1.0" encoding="utf-8"?>
<!-- Generator: Adobe Illustrator 16.0.0, SVG Export Plug-In . SVG Version: 6.00 Build 0)  -->
<!DOCTYPE svg PUBLIC "-//W3C//DTD SVG 1.1//EN" "http://www.w3.org/Graphics/SVG/1.1/DTD/svg11.dtd">
<svg version="1.1" id="Layer_1" xmlns="http://www.w3.org/2000/svg" xmlns:xlink="http://www.w3.org/1999/xlink" x="0px" y="0px"
	 width="287.111px" height="205.085px" viewBox="0 0 287.111 205.085" enable-background="new 0 0 287.111 205.085"
	 xml:space="preserve">
<g>
	<path fill="#BD96E2" d="M14.173,205.085H272.94c7.828,0,14.173-6.771,14.173-15.123V51.853H0v138.109
		C0,198.314,6.346,205.085,14.173,205.085z"/>
	<path fill="#79479C" d="M287.111,11.906C287.111,5.331,280.767,0,272.938,0H14.173C6.346,0,0,5.331,0,11.906v39.947h287.111V11.906
		z"/>
	<text transform="matrix(1 0 0 1 29.9631 33.1235)" fill="#FFFFFF" font-family="'Courier'" font-size="22.8294">PHONE:LEDMATRIX</text>
	<g>
		<path fill="#4C2870" d="M28.942,96.558c-0.294-0.014-0.504-0.077-0.63-0.189c-0.127-0.113-0.19-0.296-0.19-0.549
			c0-0.239,0.062-0.422,0.182-0.549c0.117-0.126,0.296-0.189,0.525-0.189h2.584c0.253,0,0.446,0.063,0.579,0.189
			c0.134,0.127,0.2,0.31,0.2,0.549c0,0.232-0.085,0.414-0.256,0.544c-0.171,0.13-0.407,0.194-0.708,0.194h-0.195H30.93l2.325,3.292
			l2.423-3.292h-0.104H35.36c-0.328,0-0.584-0.066-0.771-0.2c-0.185-0.133-0.274-0.312-0.274-0.538c0-0.226,0.072-0.405,0.215-0.538
			c0.144-0.134,0.338-0.2,0.584-0.2h2.584c0.232,0,0.408,0.063,0.528,0.189c0.12,0.127,0.18,0.31,0.18,0.549
			c0,0.26-0.07,0.448-0.21,0.563c-0.141,0.117-0.371,0.175-0.692,0.175l-3.271,4.43l3.565,4.81c0.304,0.02,0.523,0.089,0.667,0.205
			c0.146,0.116,0.218,0.283,0.218,0.502c0,0.226-0.068,0.405-0.205,0.538c-0.14,0.134-0.321,0.2-0.557,0.2h-2.748
			c-0.354,0-0.595-0.055-0.718-0.164s-0.185-0.301-0.185-0.574c0-0.267,0.075-0.451,0.226-0.554
			c0.151-0.103,0.444-0.153,0.882-0.153h0.42l-2.625-3.62l-2.584,3.62h0.462c0.474,0,0.789,0.051,0.953,0.153
			s0.246,0.287,0.246,0.554c0,0.273-0.062,0.465-0.192,0.574c-0.132,0.109-0.373,0.164-0.729,0.164H28.6
			c-0.232,0-0.417-0.066-0.557-0.2c-0.137-0.133-0.205-0.312-0.205-0.538c0-0.232,0.072-0.406,0.218-0.523
			c0.144-0.115,0.373-0.177,0.687-0.184l3.466-4.748L28.942,96.558z"/>
		<path fill="#4C2870" d="M35.515,130.998c0.523,0,0.86,0.049,1.01,0.148c0.146,0.1,0.221,0.285,0.221,0.559
			c0,0.28-0.074,0.477-0.221,0.58c-0.147,0.105-0.442,0.158-0.887,0.158h-4.871c-0.444,0-0.738-0.053-0.884-0.158
			c-0.145-0.104-0.216-0.3-0.216-0.58c0-0.271,0.08-0.459,0.241-0.559c0.16-0.1,0.494-0.148,1-0.148h1.487v-3.402l-3.415-5.834
			h-0.174c-0.41,0-0.69-0.057-0.843-0.164c-0.149-0.109-0.227-0.303-0.227-0.574c0-0.253,0.062-0.438,0.188-0.561
			c0.127-0.121,0.321-0.18,0.591-0.18h0.461h2.348c0.403,0,0.675,0.055,0.815,0.164c0.14,0.108,0.21,0.301,0.21,0.573
			s-0.084,0.465-0.251,0.573c-0.168,0.109-0.477,0.164-0.918,0.164h-0.338l2.479,4.451l2.574-4.451h-0.42
			c-0.369,0-0.625-0.055-0.771-0.164c-0.144-0.108-0.215-0.301-0.215-0.573c0-0.287,0.062-0.481,0.188-0.585
			c0.122-0.102,0.434-0.152,0.933-0.152h0.267h1.62c0.521,0,0.854,0.053,1,0.158c0.146,0.105,0.223,0.299,0.223,0.579
			c0,0.272-0.074,0.465-0.223,0.573c-0.146,0.109-0.426,0.164-0.836,0.164h-0.164l-3.483,5.979v3.262H35.515z"/>
		<path fill="#4C2870" d="M30.614,154.017l1.764-6.133c0.062-0.219,0.132-0.356,0.21-0.414c0.079-0.059,0.224-0.088,0.429-0.088
			h0.461c0.195,0,0.34,0.031,0.425,0.093s0.159,0.185,0.221,0.368l2,6.174l1.005-8.152H35.52c-0.314,0-0.545-0.054-0.692-0.164
			c-0.146-0.105-0.22-0.283-0.22-0.521c0-0.261,0.067-0.438,0.21-0.545c0.14-0.104,0.398-0.152,0.784-0.152h3.312
			c0.15,0,0.284,0.065,0.4,0.2c0.116,0.133,0.174,0.299,0.174,0.497c0,0.231-0.065,0.403-0.195,0.518
			c-0.13,0.115-0.325,0.171-0.584,0.171h-0.123l-1.456,10.254c-0.021,0.213-0.06,0.354-0.117,0.42
			c-0.059,0.067-0.15,0.104-0.28,0.104H36c-0.157,0-0.274-0.03-0.356-0.092s-0.154-0.179-0.218-0.351l-2.225-7.057l-1.969,7.076
			c-0.048,0.171-0.109,0.281-0.188,0.338c-0.073,0.057-0.195,0.082-0.366,0.082h-0.771c-0.137,0-0.238-0.032-0.302-0.1
			c-0.065-0.062-0.111-0.213-0.142-0.443l-1.559-10.232h-0.123c-0.267,0-0.467-0.06-0.6-0.176c-0.137-0.115-0.2-0.285-0.2-0.513
			c0-0.205,0.055-0.372,0.164-0.505c0.106-0.129,0.243-0.192,0.397-0.192h3.322c0.376,0,0.634,0.054,0.774,0.152
			c0.14,0.104,0.21,0.284,0.21,0.545c0,0.237-0.074,0.414-0.223,0.521c-0.146,0.11-0.375,0.164-0.682,0.164H29.5L30.614,154.017z"/>
		<path fill="#4C2870" d="M46.815,155.197h3.292c0.267,0,0.463,0.057,0.59,0.17c0.126,0.111,0.189,0.291,0.189,0.537
			c0,0.28-0.062,0.475-0.183,0.579c-0.12,0.106-0.34,0.159-0.661,0.159h-7.957c-0.271,0-0.479-0.062-0.612-0.186
			c-0.139-0.123-0.205-0.31-0.205-0.556c0-0.237,0.069-0.417,0.215-0.53c0.143-0.117,0.356-0.176,0.646-0.176h3.127v-6.572h-2
			c-0.277,0-0.491-0.062-0.641-0.188c-0.146-0.127-0.221-0.31-0.221-0.55c0-0.238,0.065-0.418,0.205-0.537
			c0.137-0.12,0.342-0.18,0.612-0.18h3.005c0.187,0,0.329,0.037,0.438,0.111c0.104,0.074,0.159,0.18,0.159,0.309v7.607
			L46.815,155.197L46.815,155.197z M44.918,144.214c0-0.738,0.066-1.203,0.2-1.396c0.133-0.189,0.418-0.285,0.856-0.285
			c0.424,0,0.704,0.079,0.841,0.239s0.205,0.542,0.205,1.146c0,0.588-0.063,0.951-0.19,1.093c-0.126,0.14-0.412,0.209-0.854,0.209
			c-0.438,0-0.726-0.062-0.856-0.193C44.984,144.895,44.918,144.625,44.918,144.214z"/>
		<path fill="#4C2870" d="M61.55,156.642c-0.144,0-0.242-0.036-0.302-0.107c-0.059-0.072-0.087-0.211-0.087-0.416v-0.84
			c-0.41,0.512-0.923,0.91-1.538,1.194c-0.615,0.282-1.282,0.425-2,0.425c-1.292,0-2.374-0.459-3.245-1.379
			c-0.872-0.919-1.308-2.062-1.308-3.43c0-1.416,0.465-2.594,1.395-3.532c0.933-0.94,2.091-1.41,3.479-1.41
			c0.704,0,1.336,0.125,1.896,0.374c0.562,0.25,1.042,0.617,1.446,1.104v-3.928H60.74c-0.595,0-0.979-0.054-1.153-0.158
			s-0.262-0.299-0.262-0.58c0-0.246,0.07-0.432,0.21-0.555s0.344-0.184,0.61-0.184h2.102c0.205,0,0.354,0.033,0.446,0.102
			c0.093,0.069,0.139,0.176,0.139,0.318v11.557h0.461c0.335,0,0.578,0.057,0.729,0.17c0.147,0.111,0.226,0.291,0.226,0.537
			c0,0.232-0.062,0.414-0.192,0.543c-0.133,0.131-0.307,0.195-0.523,0.195H61.55L61.55,156.642z M54.833,152.039
			c0,0.943,0.307,1.717,0.913,2.316c0.608,0.604,1.381,0.902,2.317,0.902c0.94,0,1.719-0.312,2.328-0.938
			c0.605-0.626,0.913-1.42,0.913-2.385c0-0.949-0.305-1.731-0.908-2.349c-0.604-0.615-1.382-0.922-2.333-0.922
			c-0.964,0-1.743,0.312-2.338,0.932C55.131,150.22,54.833,151.033,54.833,152.039z"/>
		<path fill="#4C2870" d="M73.865,147.742c0.335,0,0.58,0.061,0.733,0.174c0.151,0.117,0.229,0.305,0.229,0.557
			c0,0.238-0.072,0.419-0.215,0.539c-0.145,0.117-0.359,0.179-0.646,0.179h-4.151v3.429c0,1.118,0.145,1.856,0.436,2.215
			c0.291,0.354,0.788,0.53,1.492,0.53c0.622,0,1.367-0.183,2.235-0.544c0.868-0.359,1.402-0.544,1.607-0.544
			c0.191,0,0.354,0.069,0.487,0.205c0.134,0.14,0.2,0.308,0.2,0.503c0,0.229-0.084,0.422-0.251,0.59
			c-0.168,0.168-0.453,0.33-0.856,0.487c-0.67,0.269-1.271,0.461-1.81,0.584s-1.041,0.187-1.515,0.187
			c-0.801,0-1.473-0.127-2.016-0.387c-0.544-0.256-0.949-0.637-1.215-1.146c-0.137-0.235-0.234-0.521-0.292-0.85
			c-0.059-0.33-0.087-0.834-0.087-1.52v-0.316v-3.426H66.49c-0.287,0-0.496-0.057-0.625-0.169c-0.13-0.112-0.195-0.295-0.195-0.548
			c0-0.28,0.09-0.473,0.27-0.574c0.178-0.104,0.557-0.154,1.138-0.154h1.159v-2.102v-0.545c0-0.293,0.062-0.51,0.188-0.65
			s0.322-0.21,0.592-0.21c0.301,0,0.509,0.086,0.625,0.257c0.113,0.172,0.174,0.562,0.174,1.168v2.082H73.865L73.865,147.742z"/>
		<path fill="#4C2870" d="M79.812,155.197v-10.5h-0.195c-0.465,0-0.785-0.055-0.958-0.164c-0.175-0.109-0.262-0.301-0.262-0.574
			c0-0.246,0.067-0.432,0.21-0.555c0.14-0.123,0.344-0.184,0.607-0.184h1.562c0.185,0,0.328,0.037,0.431,0.111
			c0.104,0.074,0.154,0.178,0.154,0.309v4.645c0.499-0.463,0.993-0.808,1.48-1.029c0.487-0.223,0.995-0.334,1.521-0.334
			c1.032,0,1.844,0.322,2.437,0.967c0.593,0.643,0.889,1.529,0.889,2.666v4.646h0.479c0.345,0,0.588,0.055,0.738,0.168
			c0.15,0.111,0.226,0.293,0.226,0.538s-0.065,0.431-0.202,0.554c-0.14,0.123-0.345,0.187-0.615,0.187h-2.729
			c-0.318,0-0.539-0.054-0.648-0.159c-0.113-0.104-0.169-0.299-0.169-0.578c0-0.272,0.067-0.459,0.21-0.56
			c0.14-0.101,0.402-0.147,0.794-0.147h0.356v-4.267c0-0.802-0.181-1.41-0.543-1.831c-0.359-0.42-0.889-0.63-1.579-0.63
			c-0.701,0-1.318,0.233-1.851,0.707c-0.53,0.472-0.794,1.057-0.794,1.754v4.267h0.359c0.407,0,0.687,0.051,0.829,0.152
			c0.146,0.104,0.217,0.287,0.217,0.555c0,0.279-0.06,0.475-0.169,0.578c-0.113,0.105-0.33,0.159-0.651,0.159h-2.729
			c-0.268,0-0.468-0.062-0.601-0.187c-0.134-0.123-0.2-0.309-0.2-0.554c0-0.272,0.08-0.461,0.241-0.561
			c0.16-0.101,0.473-0.146,0.938-0.146h0.214v-0.003L79.812,155.197L79.812,155.197z"/>
	</g>
	<g>
		<path fill="#4C2870" d="M231.382,80.598h0.697c0.396,0,0.677,0.055,0.841,0.164c0.164,0.109,0.246,0.29,0.246,0.543
			c0,0.273-0.069,0.465-0.216,0.574c-0.143,0.109-0.413,0.164-0.81,0.164h-3.445c-0.232,0-0.41-0.063-0.533-0.189
			c-0.123-0.127-0.185-0.31-0.185-0.549c0-0.253,0.066-0.434,0.205-0.543c0.137-0.109,0.36-0.164,0.677-0.164h0.339h0.594v-9.332
			h-0.594c-0.514,0-0.845-0.047-0.995-0.143c-0.148-0.096-0.226-0.277-0.226-0.544c0-0.232,0.06-0.406,0.18-0.522
			c0.119-0.116,0.299-0.175,0.538-0.175h4.327c1.046,0,1.826,0.05,2.344,0.148c0.516,0.1,0.951,0.269,1.307,0.508
			c0.458,0.308,0.818,0.715,1.082,1.22c0.265,0.507,0.396,1.05,0.396,1.631c0,0.786-0.24,1.461-0.723,2.025
			c-0.482,0.563-1.154,0.955-2.018,1.174c0.178,0.103,0.337,0.223,0.479,0.359c0.141,0.137,0.273,0.301,0.404,0.492l2.062,3.158
			h0.338c0.383,0,0.646,0.053,0.79,0.158c0.144,0.106,0.216,0.289,0.216,0.549c0,0.239-0.061,0.422-0.18,0.549
			c-0.12,0.126-0.296,0.189-0.528,0.189h-1.159c-0.334,0-0.662-0.246-0.982-0.738c-0.041-0.041-0.071-0.075-0.094-0.103
			l-1.969-2.983c-0.401-0.608-0.734-1.002-1-1.18c-0.264-0.178-0.607-0.267-1.041-0.267h-1.363L231.382,80.598L231.382,80.598z
			 M231.382,71.266v4.143h2.123c0.957,0,1.678-0.172,2.158-0.518c0.482-0.345,0.725-0.859,0.725-1.543
			c0-0.69-0.236-1.21-0.707-1.559c-0.475-0.349-1.178-0.523-2.113-0.523H231.382z"/>
		<path fill="#4C2870" d="M251.653,77.316c0,1.463-0.498,2.659-1.496,3.588c-0.998,0.931-2.294,1.395-3.887,1.395
			c-1.586,0-2.878-0.464-3.876-1.395c-0.998-0.929-1.497-2.125-1.497-3.588s0.499-2.658,1.497-3.584
			c0.998-0.927,2.29-1.39,3.876-1.39s2.879,0.465,3.881,1.395C251.153,74.667,251.653,75.859,251.653,77.316z M246.27,80.863
			c1.053,0,1.916-0.333,2.589-0.999c0.673-0.667,1.011-1.516,1.011-2.548c0-1.032-0.339-1.886-1.016-2.559
			c-0.677-0.674-1.538-1.01-2.584-1.01s-1.906,0.336-2.579,1.01c-0.673,0.673-1.01,1.526-1.01,2.559c0,1.039,0.335,1.89,1.005,2.553
			C244.356,80.532,245.219,80.863,246.27,80.863z"/>
		<path fill="#4C2870" d="M258.811,76.834l-1.323,4.871c-0.068,0.26-0.171,0.44-0.308,0.543c-0.139,0.103-0.344,0.154-0.615,0.154
			c-0.246,0-0.438-0.065-0.574-0.195s-0.26-0.365-0.369-0.707l-2.348-7.476h-0.093c-0.287,0-0.494-0.057-0.62-0.169
			c-0.127-0.113-0.189-0.303-0.189-0.569c0-0.232,0.066-0.41,0.199-0.533s0.33-0.185,0.59-0.185h2.738
			c0.369,0,0.618,0.053,0.748,0.159c0.13,0.105,0.193,0.292,0.193,0.559c0,0.164-0.036,0.306-0.111,0.426
			c-0.075,0.119-0.171,0.193-0.287,0.22c-0.116,0.035-0.252,0.059-0.404,0.072c-0.152,0.014-0.341,0.021-0.56,0.021h-0.597
			l1.766,6.152l1.322-4.471c0.074-0.26,0.182-0.44,0.316-0.544c0.137-0.102,0.338-0.153,0.605-0.153c0.246,0,0.438,0.066,0.578,0.2
			c0.141,0.133,0.266,0.367,0.375,0.702l1.279,4.266l1.692-6.152h-0.246h-0.44c-0.473,0-0.79-0.053-0.952-0.159
			c-0.164-0.105-0.246-0.299-0.246-0.579c0-0.273,0.062-0.462,0.185-0.563c0.123-0.104,0.362-0.154,0.718-0.154h2.748
			c0.212,0,0.37,0.062,0.479,0.185c0.104,0.123,0.156,0.301,0.156,0.533c0,0.26-0.062,0.444-0.185,0.554
			c-0.123,0.11-0.354,0.171-0.697,0.185l-2.308,7.681c-0.088,0.26-0.199,0.44-0.332,0.543c-0.135,0.103-0.334,0.154-0.601,0.154
			c-0.246,0-0.44-0.067-0.587-0.2c-0.143-0.134-0.263-0.367-0.356-0.702L258.811,76.834z"/>
		<path fill="#4C2870" d="M236.909,95.421c0.068-0.186,0.164-0.314,0.287-0.391c0.123-0.074,0.301-0.112,0.533-0.112
			c0.252,0,0.43,0.062,0.533,0.185c0.102,0.123,0.151,0.376,0.151,0.759c0,0.67,0.007,1.294,0.021,1.871
			c0.014,0.578,0.021,0.829,0.021,0.754c0,0.321-0.055,0.538-0.164,0.651c-0.107,0.112-0.304,0.169-0.585,0.169
			c-0.451,0-0.744-0.321-0.881-0.964c-0.049-0.191-0.086-0.338-0.113-0.441c-0.13-0.512-0.439-0.931-0.934-1.256
			c-0.492-0.324-1.069-0.486-1.732-0.486c-1.21,0-2.181,0.442-2.91,1.327c-0.731,0.886-1.1,2.073-1.1,3.563
			c0,1.49,0.371,2.678,1.113,3.563c0.741,0.885,1.721,1.327,2.938,1.327c0.396,0,0.802-0.056,1.21-0.169
			c0.41-0.112,0.813-0.282,1.21-0.507c0.187-0.096,0.438-0.259,0.761-0.487c0.319-0.229,0.55-0.344,0.687-0.344
			c0.213,0,0.394,0.07,0.539,0.21c0.146,0.141,0.221,0.312,0.221,0.518s-0.081,0.402-0.24,0.59c-0.16,0.188-0.459,0.419-0.896,0.692
			c-0.574,0.376-1.151,0.653-1.73,0.831c-0.582,0.177-1.193,0.266-1.837,0.266c-1.688,0-3.083-0.596-4.185-1.789
			c-1.101-1.192-1.65-2.719-1.65-4.578c0-1.839,0.559-3.366,1.673-4.584c1.112-1.216,2.516-1.824,4.202-1.824
			c0.451,0,0.91,0.055,1.381,0.164C235.898,95.038,236.389,95.202,236.909,95.421z"/>
		<path fill="#4C2870" d="M251.653,102.517c0,1.463-0.498,2.659-1.496,3.588c-0.998,0.931-2.294,1.395-3.887,1.395
			c-1.586,0-2.878-0.464-3.876-1.395c-0.998-0.929-1.497-2.125-1.497-3.588s0.499-2.658,1.497-3.584
			c0.998-0.927,2.29-1.39,3.876-1.39s2.879,0.465,3.881,1.395S251.653,101.06,251.653,102.517z M246.27,106.063
			c1.053,0,1.916-0.333,2.589-0.999c0.673-0.667,1.011-1.516,1.011-2.548c0-1.032-0.339-1.886-1.016-2.559
			c-0.677-0.674-1.538-1.01-2.584-1.01s-1.906,0.336-2.579,1.01c-0.673,0.673-1.01,1.526-1.01,2.559c0,1.039,0.335,1.89,1.005,2.553
			S245.219,106.063,246.27,106.063z"/>
		<path fill="#4C2870" d="M258.185,95.298h-1.743c-0.663,0-1.078-0.054-1.246-0.159c-0.168-0.106-0.251-0.299-0.251-0.579
			c0-0.246,0.069-0.432,0.21-0.555s0.344-0.184,0.61-0.184h3.384c0.185,0,0.328,0.037,0.431,0.112
			c0.104,0.075,0.153,0.178,0.153,0.308v11.557h3.221c0.26,0,0.449,0.056,0.568,0.169c0.119,0.112,0.18,0.292,0.18,0.538
			c0,0.28-0.059,0.474-0.174,0.579c-0.117,0.106-0.336,0.159-0.656,0.159h-7.566c-0.268,0-0.472-0.062-0.609-0.185
			c-0.141-0.123-0.211-0.308-0.211-0.554c0-0.239,0.072-0.417,0.216-0.533c0.146-0.116,0.358-0.174,0.646-0.174h2.841V95.298
			H258.185z"/>
		<path fill="#4C2870" d="M201.409,126.353c0,1.873-0.52,3.408-1.559,4.609c-1.039,1.199-2.368,1.799-3.988,1.799
			c-1.606,0-2.932-0.602-3.974-1.805s-1.563-2.738-1.563-4.604c0-1.888,0.516-3.429,1.549-4.619
			c1.031-1.192,2.361-1.791,3.988-1.791c1.62,0,2.949,0.604,3.988,1.806C200.889,122.953,201.409,124.486,201.409,126.353z
			 M195.862,131.304c1.146,0,2.053-0.438,2.712-1.316c0.659-0.878,0.989-2.09,0.989-3.635s-0.33-2.758-0.989-3.635
			c-0.659-0.879-1.562-1.318-2.712-1.318c-1.155,0-2.06,0.436-2.712,1.307c-0.653,0.873-0.979,2.088-0.979,3.646
			c0,1.545,0.33,2.756,0.989,3.635S194.72,131.304,195.862,131.304z"/>
		<path fill="#4C2870" d="M204.649,130.998v-6.572h-0.194c-0.465,0-0.784-0.055-0.958-0.162c-0.176-0.109-0.262-0.303-0.262-0.574
			c0-0.254,0.071-0.438,0.215-0.549c0.146-0.113,0.376-0.17,0.697-0.17h0.48h0.984c0.184,0,0.328,0.037,0.43,0.111
			c0.104,0.076,0.154,0.18,0.154,0.309v0.695c0.499-0.463,0.992-0.807,1.482-1.027c0.486-0.225,0.994-0.334,1.521-0.334
			c1.033,0,1.844,0.32,2.438,0.965c0.592,0.645,0.887,1.531,0.887,2.666V131h0.48c0.344,0,0.588,0.058,0.738,0.17
			c0.15,0.11,0.228,0.291,0.228,0.537c0,0.269-0.081,0.457-0.241,0.569c-0.16,0.111-0.445,0.168-0.855,0.168h-2.267
			c-0.438,0-0.718-0.051-0.841-0.153c-0.123-0.102-0.187-0.297-0.187-0.584c0-0.267,0.071-0.451,0.216-0.554
			c0.145-0.104,0.413-0.153,0.812-0.153h0.356v-4.267c0-0.801-0.181-1.41-0.543-1.83c-0.36-0.42-0.889-0.631-1.579-0.631
			c-0.695,0-1.312,0.235-1.846,0.707c-0.533,0.474-0.8,1.058-0.8,1.754V131h0.359c0.408,0,0.687,0.051,0.829,0.153
			c0.144,0.103,0.216,0.287,0.216,0.554c0,0.287-0.062,0.481-0.186,0.584c-0.123,0.104-0.424,0.153-0.9,0.153h-1.867h-0.553
			c-0.281,0-0.491-0.059-0.633-0.18c-0.141-0.119-0.211-0.306-0.211-0.56c0-0.272,0.08-0.459,0.242-0.56
			c0.16-0.101,0.473-0.147,0.938-0.147H204.649L204.649,130.998z"/>
		<path fill="#4C2870" d="M218.759,132.72c-0.148,0.342-0.292,0.574-0.425,0.697c-0.134,0.123-0.292,0.184-0.478,0.184
			c-0.191,0-0.358-0.068-0.502-0.209c-0.146-0.141-0.215-0.311-0.215-0.508c0-0.055,0.01-0.117,0.028-0.189
			c0.021-0.072,0.048-0.148,0.082-0.23l6.398-13.793c0.171-0.354,0.321-0.596,0.451-0.72c0.13-0.126,0.287-0.189,0.472-0.189
			c0.205,0,0.379,0.068,0.523,0.205c0.143,0.136,0.215,0.3,0.215,0.493c0,0.055-0.011,0.117-0.025,0.186
			c-0.018,0.068-0.043,0.133-0.077,0.193L218.759,132.72z"/>
		<path fill="#4C2870" d="M239.216,126.353c0,1.873-0.52,3.408-1.559,4.609c-1.039,1.199-2.369,1.799-3.988,1.799
			c-1.605,0-2.932-0.602-3.975-1.805c-1.042-1.203-1.562-2.738-1.562-4.604c0-1.888,0.518-3.429,1.55-4.619
			c1.03-1.192,2.36-1.791,3.987-1.791c1.619,0,2.949,0.604,3.988,1.806C238.696,122.953,239.216,124.486,239.216,126.353z
			 M233.669,131.304c1.148,0,2.054-0.438,2.711-1.316c0.66-0.879,0.99-2.09,0.99-3.635s-0.33-2.758-0.99-3.635
			c-0.657-0.879-1.562-1.318-2.711-1.318c-1.154,0-2.061,0.436-2.713,1.307c-0.65,0.873-0.979,2.088-0.979,3.646
			c0,1.545,0.329,2.756,0.986,3.635C231.626,130.867,232.526,131.304,233.669,131.304z"/>
		<path fill="#4C2870" d="M246.188,130.998h0.398c0.287,0,0.495,0.059,0.625,0.17c0.132,0.111,0.195,0.291,0.195,0.537
			c0,0.24-0.062,0.422-0.186,0.549s-0.303,0.189-0.533,0.189h-5.057c-0.23,0-0.408-0.062-0.531-0.189s-0.187-0.309-0.187-0.549
			c0-0.252,0.066-0.434,0.2-0.543c0.133-0.107,0.36-0.164,0.682-0.164h0.34h0.646v-9.236h-0.646c-0.521,0-0.854-0.055-0.999-0.16
			c-0.147-0.104-0.223-0.301-0.223-0.578c0-0.24,0.062-0.422,0.187-0.549s0.301-0.188,0.532-0.188h9.073
			c0.232,0,0.408,0.068,0.528,0.209s0.18,0.344,0.18,0.609v2.646c0,0.238-0.06,0.42-0.18,0.539c-0.12,0.117-0.296,0.18-0.528,0.18
			c-0.287,0-0.479-0.076-0.584-0.227c-0.103-0.152-0.152-0.488-0.152-1.018v-1.465h-5.567v3.453h2.707v-0.268
			c0-0.498,0.048-0.832,0.144-1.004c0.098-0.17,0.269-0.256,0.515-0.256c0.219,0,0.378,0.064,0.477,0.193
			c0.101,0.131,0.149,0.34,0.149,0.627v2.604c0,0.342-0.047,0.578-0.141,0.707c-0.093,0.131-0.255,0.195-0.485,0.195
			c-0.246,0-0.417-0.084-0.515-0.256c-0.096-0.17-0.144-0.506-0.144-1.006v-0.297h-2.707v4.543H246.188L246.188,130.998z"/>
		<path fill="#4C2870" d="M258.79,130.998h0.4c0.287,0,0.496,0.059,0.625,0.17c0.131,0.111,0.195,0.291,0.195,0.537
			c0,0.24-0.062,0.422-0.187,0.549s-0.301,0.189-0.533,0.189h-5.056c-0.232,0-0.41-0.062-0.533-0.189s-0.184-0.309-0.184-0.549
			c0-0.252,0.064-0.434,0.198-0.543c0.134-0.107,0.36-0.164,0.683-0.164h0.339h0.646v-9.236h-0.646c-0.52,0-0.853-0.055-0.999-0.16
			c-0.146-0.104-0.221-0.301-0.221-0.578c0-0.24,0.061-0.422,0.184-0.549s0.301-0.188,0.533-0.188h9.075
			c0.23,0,0.408,0.068,0.526,0.209c0.119,0.141,0.182,0.344,0.182,0.609v2.646c0,0.238-0.062,0.42-0.182,0.539
			c-0.118,0.117-0.296,0.18-0.526,0.18c-0.287,0-0.481-0.076-0.585-0.227s-0.153-0.488-0.153-1.018v-1.465h-5.567v3.453h2.707
			v-0.268c0-0.498,0.049-0.832,0.145-1.004c0.096-0.17,0.268-0.256,0.514-0.256c0.219,0,0.377,0.064,0.479,0.193
			c0.099,0.131,0.146,0.34,0.146,0.627v2.604c0,0.342-0.047,0.578-0.139,0.707c-0.092,0.131-0.254,0.195-0.486,0.195
			c-0.246,0-0.418-0.084-0.514-0.256c-0.096-0.17-0.145-0.506-0.145-1.006v-0.297h-2.707v4.543H258.79L258.79,130.998z"/>
		<g>
			<path fill="#4C2870" d="M32.656,180.023c-1.189-0.342-2.142-1.068-2.856-2.18c-0.714-1.112-1.069-2.414-1.069-3.912
				c0-1.805,0.533-3.32,1.6-4.547c1.067-1.228,2.379-1.842,3.938-1.842c1.57,0,2.89,0.615,3.953,1.846
				c1.062,1.23,1.594,2.752,1.594,4.564c0,1.887-0.518,3.406-1.548,4.562c-1.032,1.155-2.388,1.731-4.062,1.731
				c-0.171,0-0.303,0-0.395,0c-0.095,0-0.185-0.007-0.272-0.021l-1.097,1.075c0.41-0.163,0.824-0.284,1.241-0.362
				c0.417-0.08,0.851-0.119,1.302-0.119c0.301,0,0.716,0.08,1.246,0.242c0.527,0.16,0.921,0.239,1.174,0.239
				c0.212,0,0.467-0.062,0.764-0.188c0.298-0.127,0.498-0.188,0.602-0.188c0.171,0,0.316,0.072,0.439,0.222
				c0.123,0.146,0.187,0.317,0.187,0.519c0,0.211-0.208,0.433-0.625,0.659c-0.417,0.23-0.853,0.345-1.304,0.345
				c-0.383,0-0.932-0.112-1.646-0.338c-0.715-0.228-1.253-0.338-1.615-0.338c-0.513,0-1.058,0.122-1.636,0.368
				s-0.9,0.369-0.969,0.369c-0.15,0-0.305-0.082-0.456-0.246c-0.154-0.164-0.231-0.336-0.231-0.514c0-0.185,0.328-0.589,0.984-1.209
				C32.211,180.46,32.464,180.214,32.656,180.023z M34.265,178.884c1.121,0,2.018-0.443,2.689-1.328s1.01-2.086,1.01-3.604
				c0-1.525-0.335-2.73-1.005-3.621c-0.67-0.889-1.567-1.332-2.695-1.332c-1.121,0-2.019,0.443-2.688,1.332
				c-0.67,0.891-1.005,2.096-1.005,3.621c0,1.521,0.335,2.727,1.005,3.607C32.249,178.443,33.144,178.884,34.265,178.884z"/>
			<path fill="#4C2870" d="M49.667,171.142c0.335,0,0.58,0.059,0.732,0.174c0.154,0.117,0.229,0.303,0.229,0.555
				c0,0.24-0.068,0.418-0.215,0.539c-0.143,0.119-0.356,0.178-0.646,0.178h-4.153v3.428c0,1.119,0.145,1.857,0.436,2.215
				s0.788,0.533,1.492,0.533c0.622,0,1.367-0.184,2.235-0.543c0.868-0.363,1.405-0.547,1.61-0.547c0.189,0,0.354,0.07,0.484,0.205
				c0.135,0.141,0.201,0.307,0.201,0.504c0,0.227-0.084,0.424-0.252,0.592c-0.168,0.166-0.453,0.33-0.855,0.484
				c-0.67,0.268-1.272,0.461-1.81,0.584s-1.041,0.188-1.513,0.188c-0.801,0-1.474-0.129-2.017-0.385
				c-0.544-0.258-0.947-0.639-1.215-1.146c-0.137-0.238-0.232-0.521-0.292-0.85c-0.058-0.329-0.087-0.834-0.087-1.518v-0.318v-3.426
				H42.29c-0.287,0-0.496-0.057-0.625-0.168c-0.129-0.113-0.193-0.295-0.193-0.549c0-0.279,0.089-0.475,0.267-0.574
				c0.178-0.104,0.557-0.154,1.138-0.154h1.159v-2.102v-0.543c0-0.295,0.063-0.514,0.189-0.652s0.321-0.209,0.59-0.209
				c0.301,0,0.509,0.086,0.625,0.256c0.116,0.172,0.174,0.561,0.174,1.168v2.082H49.667L49.667,171.142z"/>
			<path fill="#4C2870" d="M58.701,182.667h0.44c0.499,0,0.837,0.053,1.015,0.16c0.178,0.104,0.268,0.299,0.268,0.576
				c0,0.24-0.068,0.422-0.211,0.543c-0.14,0.123-0.344,0.188-0.607,0.188h-4.729c-0.319,0-0.545-0.055-0.672-0.164
				c-0.126-0.109-0.188-0.297-0.188-0.564c0-0.246,0.064-0.43,0.198-0.553c0.135-0.123,0.333-0.186,0.602-0.186h2.225l1.662-3.271
				l-3.764-7.371c-0.451,0-0.762-0.055-0.93-0.164s-0.252-0.301-0.252-0.574c0-0.24,0.068-0.42,0.205-0.539
				c0.139-0.119,0.344-0.18,0.615-0.18h2.861c0.383,0,0.639,0.053,0.77,0.16c0.129,0.105,0.194,0.291,0.194,0.559
				c0,0.273-0.086,0.465-0.257,0.574s-0.485,0.164-0.943,0.164h-0.379l2.779,5.648l2.83-5.648h-0.4
				c-0.472,0-0.797-0.055-0.975-0.164c-0.18-0.109-0.268-0.301-0.268-0.574c0-0.268,0.064-0.453,0.194-0.559
				c0.13-0.107,0.39-0.16,0.779-0.16h2.53c0.28,0,0.487,0.061,0.621,0.18c0.133,0.119,0.199,0.299,0.199,0.539
				c0,0.26-0.075,0.443-0.225,0.553c-0.151,0.109-0.418,0.174-0.803,0.188L58.701,182.667z"/>
		</g>
	</g>
	<g>
		<path fill="#4C2870" d="M28.225,71.72h-0.164c-0.41,0-0.692-0.055-0.847-0.164c-0.153-0.109-0.23-0.301-0.23-0.574
			c0-0.253,0.064-0.439,0.195-0.559c0.13-0.12,0.323-0.18,0.584-0.18h0.462h2.103c0.553,0,0.905,0.053,1.056,0.159
			c0.151,0.106,0.227,0.299,0.227,0.579c0,0.273-0.089,0.465-0.268,0.574c-0.178,0.109-0.517,0.164-1.015,0.164h-0.44v5.619
			c0,0.759,0.035,1.311,0.106,1.656c0.072,0.345,0.189,0.661,0.354,0.948c0.238,0.417,0.572,0.742,1,0.975
			c0.428,0.232,0.899,0.348,1.42,0.348c0.978,0,1.689-0.293,2.139-0.881c0.447-0.588,0.672-1.538,0.672-2.851V71.72h-0.544
			c-0.533,0-0.891-0.053-1.071-0.159c-0.182-0.105-0.271-0.299-0.271-0.579c0-0.28,0.071-0.473,0.215-0.579
			c0.145-0.106,0.441-0.159,0.893-0.159h2.267h0.492c0.246,0,0.433,0.062,0.559,0.185c0.127,0.123,0.189,0.308,0.189,0.554
			c0,0.273-0.075,0.465-0.226,0.574c-0.15,0.109-0.425,0.164-0.819,0.164h-0.146v6.04c0,1.661-0.37,2.907-1.112,3.738
			c-0.74,0.83-1.856,1.245-3.348,1.245c-1.347,0-2.422-0.415-3.225-1.245c-0.805-0.831-1.205-1.95-1.205-3.358V71.72H28.225z"/>
		<path fill="#4C2870" d="M48.374,80.959c0.526,0,0.863,0.049,1.01,0.148c0.147,0.099,0.222,0.285,0.222,0.559
			c0,0.28-0.073,0.474-0.222,0.579c-0.146,0.106-0.482,0.159-1.01,0.159H42.15h-0.482c-0.246,0-0.435-0.062-0.563-0.185
			c-0.129-0.123-0.194-0.308-0.194-0.554c0-0.273,0.075-0.46,0.227-0.559c0.149-0.1,0.487-0.148,1.016-0.148h2.315V71.72H42.15
			c-0.514,0-0.85-0.053-1.006-0.159c-0.157-0.105-0.235-0.299-0.235-0.579c0-0.253,0.064-0.439,0.194-0.559
			c0.13-0.12,0.325-0.18,0.585-0.18h0.462h6.224h0.481c0.246,0,0.433,0.062,0.56,0.185c0.126,0.123,0.189,0.308,0.189,0.554
			c0,0.28-0.077,0.474-0.23,0.579c-0.153,0.106-0.486,0.159-1,0.159h-2.316v9.239H48.374z"/>
	</g>
	<g>
		<path fill="#4C2870" d="M219.015,155.488h-1.621h-0.461c-0.253,0-0.442-0.062-0.569-0.185c-0.126-0.123-0.189-0.308-0.189-0.554
			c0-0.268,0.073-0.451,0.222-0.555c0.146-0.104,0.425-0.152,0.835-0.152h0.186v-9.239h-0.164c-0.41,0-0.691-0.056-0.847-0.164
			c-0.153-0.109-0.23-0.302-0.23-0.574c0-0.253,0.063-0.438,0.189-0.56c0.127-0.119,0.323-0.18,0.59-0.18h0.44h1.621h2.266
			c1.702,0,3.059,0.549,4.07,1.646s1.518,2.578,1.518,4.445c0,0.908-0.145,1.754-0.436,2.533c-0.29,0.778-0.713,1.463-1.267,2.051
			c-0.514,0.533-1.137,0.92-1.872,1.162c-0.733,0.243-1.68,0.364-2.835,0.364c-0.137,0-0.366-0.007-0.691-0.021
			C219.444,155.496,219.192,155.488,219.015,155.488z M219.015,154.042c0.218,0.02,0.436,0.035,0.649,0.045
			c0.216,0.011,0.426,0.016,0.631,0.016c1.683,0,2.914-0.375,3.696-1.127c0.783-0.752,1.175-1.938,1.175-3.559
			c0-1.627-0.394-2.812-1.18-3.554c-0.786-0.741-2.044-1.112-3.773-1.112c-0.32,0-0.564,0.004-0.732,0.011
			c-0.167,0.007-0.323,0.021-0.466,0.041V154.042z"/>
		<path fill="#4C2870" d="M233.062,154.042h3.403c0.268,0,0.464,0.056,0.591,0.168c0.126,0.112,0.188,0.293,0.188,0.539
			c0,0.279-0.06,0.474-0.18,0.578c-0.119,0.106-0.34,0.159-0.661,0.159h-6.706c-0.267,0-0.469-0.062-0.604-0.185
			c-0.137-0.123-0.205-0.309-0.205-0.555c0-0.238,0.069-0.416,0.211-0.533c0.14-0.115,0.355-0.174,0.649-0.174h1.785v-6.572h-0.697
			c-0.664,0-1.076-0.053-1.24-0.159c-0.164-0.104-0.246-0.299-0.246-0.579c0-0.238,0.065-0.419,0.199-0.538s0.337-0.18,0.609-0.18
			h2.338c0.187,0,0.325,0.036,0.421,0.106c0.097,0.072,0.145,0.176,0.145,0.312v1.744c0.648-0.814,1.326-1.42,2.029-1.815
			c0.704-0.396,1.464-0.595,2.276-0.595c0.608,0,1.102,0.123,1.478,0.369s0.563,0.563,0.563,0.953c0,0.254-0.095,0.478-0.282,0.672
			c-0.188,0.195-0.396,0.293-0.62,0.293c-0.157,0-0.423-0.104-0.795-0.313c-0.373-0.208-0.706-0.312-1-0.312
			c-0.532,0-1.096,0.189-1.687,0.568c-0.592,0.379-1.246,0.979-1.964,1.799L233.062,154.042L233.062,154.042z"/>
		<path fill="#4C2870" d="M249.028,154.185c-0.562,0.507-1.171,0.893-1.83,1.159c-0.66,0.267-1.338,0.399-2.035,0.399
			c-1.02,0-1.841-0.283-2.467-0.852c-0.625-0.566-0.938-1.307-0.938-2.215c0-1.08,0.415-1.917,1.245-2.514
			c0.831-0.594,1.998-0.892,3.502-0.892c0.396,0,0.796,0.024,1.2,0.077c0.402,0.051,0.816,0.131,1.24,0.24v-0.071
			c0-0.786-0.188-1.367-0.564-1.743s-0.96-0.564-1.753-0.564c-0.532,0-1.128,0.146-1.783,0.433c-0.656,0.287-1.092,0.43-1.304,0.43
			c-0.197,0-0.361-0.079-0.492-0.239c-0.13-0.16-0.193-0.367-0.193-0.621c0-0.402,0.378-0.744,1.133-1.025
			c0.756-0.279,1.721-0.42,2.897-0.42c1.201,0,2.11,0.307,2.727,0.918s0.924,1.516,0.924,2.712v4.646h0.502
			c0.485,0,0.812,0.052,0.976,0.153c0.164,0.103,0.245,0.287,0.245,0.554c0,0.246-0.068,0.432-0.204,0.555
			c-0.139,0.123-0.344,0.185-0.615,0.185h-1.61c-0.19,0-0.349-0.058-0.472-0.174s-0.205-0.284-0.246-0.503L249.028,154.185z
			 M248.946,150.957c-0.376-0.123-0.74-0.215-1.092-0.271c-0.354-0.059-0.703-0.087-1.051-0.087c-1.055,0-1.885,0.178-2.492,0.532
			c-0.608,0.355-0.912,0.834-0.912,1.437c0,0.465,0.188,0.849,0.567,1.147c0.381,0.302,0.863,0.451,1.451,0.451
			c0.868,0,1.673-0.228,2.415-0.683c0.741-0.454,1.112-0.928,1.112-1.42L248.946,150.957L248.946,150.957z"/>
		<path fill="#4C2870" d="M259.211,150.279l-1.321,4.871c-0.069,0.26-0.173,0.439-0.31,0.543s-0.342,0.154-0.615,0.154
			c-0.245,0-0.438-0.064-0.573-0.195c-0.137-0.13-0.261-0.365-0.369-0.707l-2.349-7.476h-0.092c-0.287,0-0.494-0.058-0.621-0.169
			c-0.126-0.113-0.188-0.303-0.188-0.569c0-0.231,0.065-0.41,0.2-0.533c0.133-0.122,0.329-0.185,0.589-0.185h2.737
			c0.369,0,0.618,0.053,0.748,0.158c0.131,0.106,0.195,0.293,0.195,0.56c0,0.164-0.038,0.306-0.113,0.426
			c-0.074,0.12-0.171,0.192-0.286,0.22c-0.116,0.035-0.252,0.06-0.404,0.072c-0.154,0.014-0.341,0.021-0.56,0.021h-0.596
			l1.764,6.152l1.323-4.472c0.075-0.26,0.182-0.44,0.317-0.544c0.137-0.102,0.339-0.152,0.604-0.152
			c0.246,0,0.439,0.065,0.579,0.199c0.142,0.133,0.266,0.367,0.374,0.702l1.282,4.267l1.692-6.152h-0.246h-0.441
			c-0.472,0-0.789-0.053-0.953-0.159c-0.164-0.104-0.246-0.299-0.246-0.579c0-0.273,0.062-0.462,0.185-0.562
			c0.123-0.104,0.361-0.154,0.719-0.154h2.748c0.211,0,0.37,0.062,0.477,0.186c0.105,0.122,0.158,0.301,0.158,0.532
			c0,0.261-0.061,0.444-0.184,0.554c-0.123,0.11-0.356,0.172-0.697,0.186l-2.308,7.681c-0.09,0.261-0.2,0.44-0.333,0.543
			c-0.135,0.103-0.334,0.154-0.601,0.154c-0.246,0-0.44-0.067-0.585-0.2c-0.144-0.134-0.264-0.367-0.357-0.702L259.211,150.279z"/>
	</g>
</g>
</svg>
