<?xml version="1.0" encoding="utf-8"?>
<!-- Generator: Adobe Illustrator 16.0.0, SVG Export Plug-In . SVG Version: 6.00 Build 0)  -->
<!DOCTYPE svg PUBLIC "-//W3C//DTD SVG 1.1//EN" "http://www.w3.org/Graphics/SVG/1.1/DTD/svg11.dtd">
<svg version="1.1" id="Layer_1" xmlns="http://www.w3.org/2000/svg" xmlns:xlink="http://www.w3.org/1999/xlink" x="0px" y="0px"
	 width="73.95px" height="100.77px" viewBox="0 0 73.95 100.77" enable-background="new 0 0 73.95 100.77" xml:space="preserve">
<g>
	<path fill="#757575" d="M48.141,25.163l-2-22.329c0-1.563-1.27-2.834-2.835-2.834h-13.33c-1.565,0-2.835,1.271-2.835,2.834
		l-2,22.329H48.141z"/>
	<path fill="#757575" d="M25.141,73.496l2,24.438c0,1.563,1.27,2.835,2.835,2.835h13.33c1.565,0,2.835-1.271,2.835-2.835l2-24.438
		H25.141z"/>
</g>
<path d="M36.642,13.257c-20.106,0-36.405,16.622-36.405,37.127s16.299,37.127,36.405,37.127c20.104,0,36.403-16.622,36.403-37.127
	S56.747,13.257,36.642,13.257z M36.642,56.55c-3.406,0-6.167-2.761-6.167-6.166c0-3.404,2.761-6.167,6.167-6.167
	c3.405,0,6.166,2.763,6.166,6.167C42.808,53.789,40.047,56.55,36.642,56.55z"/>
</svg>
