<?xml version="1.0" encoding="utf-8"?>
<!-- Generator: Adobe Illustrator 16.0.0, SVG Export Plug-In . SVG Version: 6.00 Build 0)  -->
<!DOCTYPE svg PUBLIC "-//W3C//DTD SVG 1.1//EN" "http://www.w3.org/Graphics/SVG/1.1/DTD/svg11.dtd">
<svg version="1.1" id="Layer_1" xmlns="http://www.w3.org/2000/svg" xmlns:xlink="http://www.w3.org/1999/xlink" x="0px" y="0px"
	 width="267.704px" height="78.132px" viewBox="0 0 267.704 78.132" enable-background="new 0 0 267.704 78.132"
	 xml:space="preserve">
<g>
	<path fill="#84A2CD" d="M267.704,70.401c0,4.269-3.461,7.729-7.731,7.729H7.729C3.463,78.132,0,74.669,0,70.401V7.732
		C0,3.46,3.463,0,7.729,0h252.243c4.271,0,7.731,3.46,7.731,7.732V70.401z"/>
	<path fill="#9EB6DD" d="M0,36.092v34.31c0,4.268,3.463,7.73,7.729,7.73h252.243c4.27,0,7.729-3.463,7.729-7.73v-34.31H0z"/>
	<g>
		<g>
			<path fill="#1B446B" d="M203.84,54.021c0,1.538-0.426,2.801-1.279,3.785s-1.945,1.479-3.275,1.479
				c-1.317,0-2.406-0.494-3.262-1.482c-0.857-0.987-1.285-2.247-1.285-3.78c0-1.549,0.424-2.812,1.271-3.793
				c0.848-0.979,1.938-1.47,3.275-1.47c1.329,0,2.422,0.494,3.274,1.482C203.415,51.229,203.84,52.488,203.84,54.021z
				 M199.286,58.087c0.943,0,1.687-0.359,2.228-1.082c0.543-0.721,0.812-1.715,0.812-2.984c0-1.268-0.27-2.264-0.812-2.984
				c-0.541-0.721-1.283-1.082-2.228-1.082c-0.949,0-1.69,0.357-2.227,1.074c-0.537,0.715-0.805,1.713-0.805,2.992
				c0,1.27,0.271,2.264,0.812,2.984C197.608,57.728,198.348,58.087,199.286,58.087z"/>
			<path fill="#1B446B" d="M207.538,55.916c0,0.707,0.148,1.224,0.445,1.549c0.297,0.326,0.77,0.488,1.414,0.488
				c0.613,0,1.137-0.193,1.57-0.58c0.436-0.389,0.652-0.873,0.652-1.457v-3.478h-1.152c-0.219,0-0.377-0.047-0.478-0.14
				c-0.098-0.094-0.146-0.237-0.146-0.434c0-0.214,0.053-0.371,0.16-0.473c0.104-0.102,0.276-0.15,0.514-0.15h1.793
				c0.213,0,0.363,0.045,0.451,0.139c0.086,0.093,0.129,0.318,0.129,0.679v5.774h0.389c0.273,0,0.473,0.045,0.594,0.135
				c0.119,0.091,0.181,0.238,0.181,0.445c0,0.203-0.058,0.354-0.173,0.455c-0.114,0.102-0.282,0.152-0.502,0.152H212.1
				c-0.15,0-0.27-0.031-0.354-0.094c-0.084-0.061-0.127-0.145-0.127-0.252v-0.572c-0.537,0.415-1,0.699-1.386,0.854
				c-0.385,0.154-0.789,0.231-1.217,0.231c-0.927,0-1.619-0.246-2.084-0.735c-0.463-0.492-0.693-1.234-0.693-2.229v-3.788h-0.178
				c-0.381,0-0.644-0.045-0.783-0.136c-0.139-0.09-0.209-0.248-0.209-0.473c0-0.195,0.056-0.344,0.164-0.441
				c0.109-0.096,0.279-0.146,0.509-0.146h1.271c0.196,0,0.334,0.041,0.407,0.118c0.076,0.078,0.115,0.252,0.115,0.521v4.037H207.538
				z"/>
			<path fill="#1B446B" d="M217.809,61.177h2.02c0.215,0,0.375,0.051,0.48,0.152c0.107,0.102,0.16,0.252,0.16,0.455
				c0,0.219-0.053,0.373-0.156,0.463s-0.287,0.135-0.551,0.135h-3.713c-0.226,0-0.396-0.051-0.51-0.152
				c-0.115-0.102-0.172-0.25-0.172-0.445c0-0.225,0.069-0.383,0.215-0.473c0.143-0.09,0.407-0.135,0.795-0.135h0.16v-8.738h-0.16
				c-0.388,0-0.652-0.045-0.795-0.135c-0.146-0.09-0.215-0.248-0.215-0.473c0-0.195,0.057-0.344,0.172-0.441
				c0.114-0.098,0.285-0.146,0.51-0.146h1.279c0.168,0,0.291,0.027,0.366,0.084c0.074,0.057,0.113,0.143,0.113,0.26v0.818
				c0.381-0.395,0.805-0.689,1.269-0.885c0.463-0.197,0.961-0.295,1.493-0.295c1.127,0,2.07,0.382,2.828,1.145
				c0.758,0.764,1.138,1.721,1.138,2.871c0,1.106-0.359,2.016-1.078,2.729c-0.717,0.714-1.636,1.068-2.752,1.068
				c-0.597,0-1.144-0.104-1.644-0.313c-0.5-0.211-0.918-0.513-1.254-0.906L217.809,61.177L217.809,61.177z M220.418,57.802
				c0.78,0,1.42-0.246,1.92-0.737s0.75-1.127,0.75-1.907c0-0.764-0.252-1.393-0.754-1.891c-0.502-0.496-1.142-0.744-1.916-0.744
				c-0.773,0-1.408,0.246-1.902,0.74s-0.74,1.126-0.74,1.895c0,0.775,0.244,1.409,0.736,1.902
				C219.002,57.554,219.639,57.802,220.418,57.802z"/>
			<path fill="#1B446B" d="M228.233,55.916c0,0.707,0.148,1.224,0.445,1.549c0.297,0.326,0.77,0.488,1.414,0.488
				c0.613,0,1.137-0.193,1.57-0.58c0.436-0.389,0.651-0.873,0.651-1.457v-3.478h-1.151c-0.22,0-0.377-0.047-0.478-0.14
				c-0.099-0.094-0.146-0.237-0.146-0.434c0-0.214,0.053-0.371,0.16-0.473c0.104-0.102,0.276-0.15,0.514-0.15h1.793
				c0.213,0,0.363,0.045,0.451,0.139c0.086,0.093,0.129,0.318,0.129,0.679v5.774h0.389c0.273,0,0.473,0.045,0.594,0.135
				c0.119,0.091,0.18,0.238,0.18,0.445c0,0.203-0.057,0.354-0.172,0.455c-0.115,0.102-0.283,0.152-0.502,0.152h-1.279
				c-0.149,0-0.27-0.031-0.354-0.094c-0.084-0.061-0.127-0.145-0.127-0.252v-0.572c-0.537,0.415-1,0.699-1.385,0.854
				s-0.789,0.231-1.217,0.231c-0.926,0-1.619-0.246-2.084-0.735c-0.463-0.492-0.693-1.234-0.693-2.229v-3.788h-0.178
				c-0.381,0-0.643-0.045-0.783-0.136c-0.139-0.09-0.209-0.248-0.209-0.473c0-0.195,0.055-0.344,0.164-0.441
				c0.109-0.096,0.279-0.146,0.508-0.146h1.271c0.196,0,0.334,0.041,0.408,0.118c0.075,0.078,0.114,0.252,0.114,0.521
				L228.233,55.916L228.233,55.916z"/>
			<path fill="#1B446B" d="M242.973,51.714c0.275,0,0.477,0.047,0.604,0.143c0.125,0.096,0.189,0.248,0.189,0.455
				c0,0.197-0.061,0.344-0.178,0.441c-0.117,0.099-0.295,0.147-0.529,0.147h-3.41v2.812c0,0.922,0.119,1.527,0.357,1.82
				c0.238,0.291,0.646,0.438,1.225,0.438c0.512,0,1.123-0.148,1.836-0.446s1.152-0.446,1.322-0.446c0.156,0,0.289,0.057,0.398,0.168
				c0.108,0.113,0.164,0.25,0.164,0.414c0,0.184-0.068,0.346-0.205,0.482c-0.14,0.139-0.373,0.271-0.703,0.4
				c-0.551,0.219-1.045,0.379-1.486,0.479s-0.855,0.149-1.242,0.149c-0.656,0-1.207-0.104-1.654-0.313
				c-0.445-0.211-0.779-0.522-0.998-0.938c-0.11-0.196-0.19-0.43-0.24-0.699c-0.047-0.27-0.069-0.684-0.069-1.246v-0.262v-2.812
				h-1.433c-0.235,0-0.405-0.047-0.514-0.14c-0.107-0.094-0.16-0.242-0.16-0.45c0-0.229,0.072-0.388,0.219-0.472
				s0.457-0.127,0.937-0.127h0.951v-1.727v-0.445c0-0.242,0.051-0.42,0.155-0.535c0.104-0.114,0.265-0.172,0.482-0.172
				c0.248,0,0.418,0.07,0.514,0.211c0.097,0.14,0.146,0.459,0.146,0.959v1.709h3.323V51.714z"/>
		</g>
	</g>
	<g>
		<g>
			<path fill="#1B446B" d="M22.435,57.251h0.572c0.326,0,0.556,0.045,0.69,0.135c0.134,0.09,0.202,0.238,0.202,0.445
				c0,0.225-0.059,0.383-0.177,0.473c-0.118,0.09-0.34,0.135-0.665,0.135h-2.829c-0.19,0-0.337-0.053-0.438-0.156
				c-0.102-0.104-0.151-0.254-0.151-0.451c0-0.207,0.056-0.354,0.168-0.445c0.112-0.09,0.298-0.135,0.556-0.135h0.278h0.488v-7.662
				h-0.488c-0.421,0-0.693-0.039-0.817-0.116c-0.123-0.079-0.185-0.228-0.185-0.447c0-0.188,0.049-0.334,0.147-0.429
				c0.098-0.096,0.245-0.145,0.441-0.145h3.553c0.859,0,1.5,0.041,1.924,0.123c0.424,0.082,0.782,0.221,1.074,0.416
				c0.376,0.254,0.672,0.588,0.888,1.002c0.216,0.416,0.324,0.861,0.324,1.34c0,0.646-0.197,1.199-0.594,1.662
				c-0.396,0.463-0.947,0.785-1.654,0.965c0.146,0.084,0.276,0.183,0.392,0.293c0.115,0.113,0.226,0.248,0.333,0.404l1.692,2.594
				h0.277c0.314,0,0.53,0.043,0.648,0.131c0.118,0.086,0.177,0.236,0.177,0.449c0,0.197-0.049,0.349-0.147,0.451
				c-0.098,0.104-0.242,0.156-0.434,0.156h-0.95c-0.275,0-0.545-0.203-0.809-0.607c-0.033-0.033-0.059-0.061-0.075-0.084
				l-1.617-2.449c-0.331-0.5-0.604-0.821-0.82-0.969c-0.217-0.146-0.501-0.219-0.854-0.219h-1.12V57.251z M22.435,49.589v3.402
				h1.743c0.785,0,1.376-0.144,1.772-0.427c0.396-0.282,0.593-0.705,0.593-1.269c0-0.565-0.193-0.992-0.581-1.278
				c-0.387-0.286-0.965-0.431-1.734-0.431h-1.793V49.589z"/>
			<path fill="#1B446B" d="M36.597,57.369c-0.461,0.416-0.962,0.731-1.503,0.951c-0.542,0.219-1.099,0.328-1.672,0.328
				c-0.836,0-1.511-0.232-2.024-0.697c-0.514-0.468-0.771-1.072-0.771-1.82c0-0.887,0.341-1.573,1.022-2.062
				c0.683-0.487,1.641-0.731,2.876-0.731c0.325,0,0.653,0.021,0.984,0.062c0.331,0.041,0.671,0.107,1.02,0.197v-0.059
				c0-0.646-0.155-1.123-0.464-1.433s-0.788-0.463-1.439-0.463c-0.438,0-0.926,0.116-1.465,0.354
				c-0.539,0.236-0.896,0.354-1.069,0.354c-0.163,0-0.298-0.066-0.404-0.197c-0.106-0.133-0.16-0.303-0.16-0.51
				c0-0.331,0.311-0.611,0.931-0.842s1.413-0.346,2.379-0.346c0.987,0,1.734,0.252,2.239,0.754c0.505,0.502,0.758,1.244,0.758,2.227
				v3.814h0.412c0.398,0,0.665,0.041,0.8,0.125c0.135,0.086,0.202,0.236,0.202,0.455c0,0.203-0.056,0.354-0.168,0.455
				s-0.281,0.151-0.505,0.151h-1.322c-0.157,0-0.286-0.049-0.388-0.144c-0.101-0.096-0.168-0.233-0.201-0.414L36.597,57.369z
				 M36.529,54.716c-0.31-0.1-0.608-0.176-0.897-0.223c-0.289-0.047-0.576-0.072-0.862-0.072c-0.864,0-1.547,0.146-2.046,0.438
				c-0.5,0.291-0.75,0.685-0.75,1.179c0,0.383,0.156,0.695,0.468,0.942s0.708,0.371,1.191,0.371c0.713,0,1.373-0.188,1.982-0.562
				c0.609-0.373,0.914-0.762,0.914-1.166V54.716z"/>
			<path fill="#1B446B" d="M41.875,57.251v-5.396h-0.159c-0.382,0-0.645-0.045-0.788-0.135c-0.143-0.09-0.214-0.248-0.214-0.473
				c0-0.207,0.059-0.357,0.177-0.449c0.117-0.094,0.309-0.141,0.572-0.141h0.396h0.809c0.151,0,0.27,0.031,0.354,0.094
				c0.084,0.062,0.126,0.146,0.126,0.252v0.572c0.41-0.382,0.815-0.662,1.217-0.847c0.401-0.183,0.818-0.272,1.25-0.272
				c0.848,0,1.515,0.264,2,0.791c0.485,0.527,0.729,1.258,0.729,2.188v3.813h0.396c0.28,0,0.482,0.047,0.606,0.14
				c0.123,0.093,0.185,0.239,0.185,0.44c0,0.221-0.065,0.375-0.197,0.469c-0.132,0.093-0.366,0.14-0.703,0.14h-1.86
				c-0.359,0-0.59-0.043-0.69-0.127c-0.102-0.084-0.152-0.244-0.152-0.479c0-0.219,0.06-0.369,0.177-0.455
				c0.118-0.084,0.34-0.125,0.666-0.125h0.294V53.75c0-0.658-0.148-1.158-0.446-1.504c-0.297-0.346-0.729-0.519-1.296-0.519
				c-0.573,0-1.078,0.192-1.516,0.581s-0.657,0.867-0.657,1.439v3.502h0.295c0.337,0,0.564,0.043,0.682,0.127
				c0.118,0.084,0.177,0.234,0.177,0.453c0,0.236-0.05,0.396-0.151,0.48c-0.101,0.084-0.348,0.127-0.74,0.127h-1.533h-0.454
				c-0.23,0-0.403-0.049-0.518-0.148c-0.115-0.098-0.173-0.25-0.173-0.459c0-0.224,0.065-0.377,0.197-0.457
				c0.132-0.082,0.389-0.123,0.771-0.123h0.171V57.251z"/>
			<path fill="#1B446B" d="M58.773,57.992c0,0.785-0.039,1.344-0.118,1.672c-0.078,0.328-0.213,0.614-0.404,0.862
				c-0.314,0.415-0.755,0.729-1.321,0.947c-0.567,0.216-1.235,0.323-2.004,0.323c-0.64,0-1.107-0.062-1.402-0.186
				c-0.294-0.123-0.441-0.32-0.441-0.59c0-0.174,0.071-0.326,0.215-0.459c0.143-0.131,0.312-0.197,0.509-0.197
				c0.151,0,0.385,0.021,0.699,0.062c0.314,0.043,0.553,0.062,0.716,0.062c0.83,0,1.42-0.189,1.768-0.572
				c0.349-0.381,0.522-1.035,0.522-1.961v-1.02c-0.343,0.398-0.722,0.689-1.137,0.876c-0.416,0.185-0.893,0.276-1.432,0.276
				c-1.05,0-1.918-0.35-2.605-1.049c-0.688-0.697-1.031-1.584-1.031-2.656c0-1.076,0.354-1.971,1.061-2.682
				c0.707-0.709,1.583-1.063,2.627-1.063c0.432,0,0.854,0.079,1.267,0.239c0.413,0.16,0.83,0.402,1.251,0.729v-0.606
				c0-0.117,0.038-0.205,0.113-0.26c0.076-0.058,0.195-0.086,0.358-0.086h1.271c0.225,0,0.394,0.051,0.506,0.146
				c0.112,0.098,0.168,0.246,0.168,0.441c0,0.225-0.07,0.383-0.21,0.473c-0.141,0.091-0.404,0.136-0.792,0.136h-0.151v6.14H58.773z
				 M55.119,51.904c-0.735,0-1.336,0.229-1.802,0.684c-0.466,0.453-0.698,1.043-0.698,1.768c0,0.713,0.232,1.299,0.698,1.756
				c0.466,0.457,1.066,0.686,1.802,0.686c0.729,0,1.329-0.229,1.798-0.686s0.703-1.043,0.703-1.756s-0.234-1.299-0.703-1.76
				S55.849,51.904,55.119,51.904z"/>
			<path fill="#1B446B" d="M62.856,54.919c0.044,0.809,0.318,1.433,0.82,1.873c0.502,0.44,1.188,0.66,2.059,0.66
				c0.657,0,1.372-0.176,2.147-0.525c0.774-0.352,1.243-0.526,1.405-0.526c0.169,0,0.309,0.054,0.421,0.16s0.169,0.239,0.169,0.396
				c0,0.164-0.059,0.312-0.177,0.446c-0.118,0.134-0.306,0.267-0.564,0.396c-0.562,0.275-1.141,0.486-1.738,0.633
				c-0.597,0.146-1.191,0.219-1.781,0.219c-1.279,0-2.304-0.369-3.072-1.105c-0.77-0.738-1.154-1.717-1.154-2.937
				c0-1.239,0.407-2.243,1.222-3.015c0.813-0.768,1.874-1.152,3.182-1.152c1.185,0,2.167,0.359,2.947,1.077
				c0.78,0.72,1.17,1.589,1.17,2.61c0,0.313-0.065,0.524-0.197,0.631c-0.132,0.107-0.49,0.16-1.073,0.16h-0.127H62.856
				L62.856,54.919z M62.898,53.815h5.48c-0.084-0.668-0.363-1.205-0.838-1.61c-0.474-0.408-1.057-0.611-1.747-0.611
				c-0.746,0-1.375,0.197-1.886,0.59C63.396,52.576,63.061,53.121,62.898,53.815z"/>
			<path fill="#1B446B" d="M86.145,60.518h1.421c0.163,0,0.296,0.045,0.397,0.135c0.101,0.091,0.151,0.21,0.151,0.362
				c0,0.162-0.048,0.293-0.144,0.391c-0.096,0.1-0.226,0.148-0.389,0.148H85.31c-0.174,0-0.319-0.055-0.438-0.16
				c-0.118-0.107-0.177-0.238-0.177-0.396V49.009c0-0.158,0.059-0.289,0.177-0.396c0.118-0.105,0.264-0.16,0.438-0.16h2.271
				c0.163,0,0.293,0.047,0.389,0.139c0.096,0.095,0.144,0.222,0.144,0.385c0,0.15-0.051,0.273-0.151,0.369
				c-0.102,0.097-0.234,0.145-0.397,0.145h-1.421V60.518z"/>
			<path fill="#1B446B" d="M99.852,53.75c0-0.793-0.071-1.326-0.213-1.604c-0.143-0.278-0.386-0.417-0.731-0.417
				c-0.412,0-0.74,0.18-0.982,0.539c-0.242,0.359-0.363,0.854-0.363,1.482v3.502h0.151c0.343,0,0.571,0.041,0.687,0.121
				c0.114,0.082,0.172,0.234,0.172,0.459c0,0.203-0.047,0.354-0.143,0.455c-0.096,0.102-0.241,0.151-0.438,0.151h-1.069
				c-0.242,0-0.406-0.058-0.493-0.169s-0.13-0.354-0.13-0.725V57.3v-3.553v-0.656c0-0.422-0.095-0.754-0.284-0.998
				s-0.449-0.366-0.777-0.366c-0.251,0-0.481,0.073-0.689,0.224c-0.209,0.148-0.389,0.368-0.539,0.662v4.639h0.312
				c0.336,0,0.563,0.041,0.682,0.125c0.118,0.086,0.177,0.236,0.177,0.455c0,0.229-0.048,0.389-0.144,0.477
				c-0.095,0.087-0.277,0.131-0.547,0.131h-2.253c-0.22,0-0.382-0.049-0.486-0.148c-0.104-0.098-0.157-0.25-0.157-0.459
				c0-0.224,0.066-0.377,0.198-0.457c0.132-0.082,0.389-0.123,0.771-0.123h0.168v-5.396h-0.151c-0.393,0-0.661-0.045-0.804-0.136
				c-0.144-0.09-0.215-0.247-0.215-0.473c0-0.195,0.057-0.344,0.169-0.44c0.113-0.099,0.282-0.147,0.508-0.147h1.295
				c0.188,0,0.312,0.032,0.371,0.098c0.061,0.064,0.096,0.201,0.107,0.408c0.229-0.246,0.475-0.43,0.736-0.547
				c0.263-0.117,0.559-0.178,0.888-0.178c0.391,0,0.714,0.085,0.968,0.258c0.254,0.172,0.442,0.43,0.565,0.778
				c0.235-0.354,0.508-0.614,0.816-0.783c0.308-0.168,0.662-0.253,1.061-0.253c0.725,0,1.253,0.234,1.587,0.708
				c0.334,0.472,0.501,1.233,0.501,2.289v3.813h0.135c0.349,0,0.581,0.043,0.699,0.127c0.118,0.084,0.177,0.234,0.177,0.453
				c0,0.203-0.051,0.354-0.151,0.455c-0.102,0.103-0.25,0.152-0.446,0.152h-1.027c-0.228,0-0.395-0.068-0.503-0.203
				s-0.162-0.348-0.162-0.639V53.75H99.852z"/>
			<path fill="#1B446B" d="M107.875,57.251h2.703c0.219,0,0.38,0.047,0.484,0.139c0.104,0.093,0.155,0.24,0.155,0.441
				c0,0.229-0.049,0.389-0.147,0.477c-0.098,0.087-0.279,0.131-0.543,0.131h-6.533c-0.225,0-0.393-0.051-0.505-0.152
				c-0.112-0.101-0.169-0.252-0.169-0.455c0-0.195,0.06-0.342,0.177-0.438c0.118-0.096,0.295-0.143,0.53-0.143h2.568v-5.396h-1.642
				c-0.23,0-0.406-0.053-0.526-0.156c-0.121-0.104-0.181-0.254-0.181-0.451c0-0.195,0.056-0.344,0.168-0.44s0.28-0.147,0.505-0.147
				h2.467c0.152,0,0.271,0.031,0.358,0.094c0.087,0.062,0.13,0.146,0.13,0.252L107.875,57.251L107.875,57.251z M106.317,48.233
				c0-0.604,0.055-0.987,0.165-1.146c0.109-0.156,0.344-0.235,0.702-0.235c0.349,0,0.578,0.065,0.69,0.198
				c0.112,0.132,0.169,0.443,0.169,0.938c0,0.482-0.052,0.781-0.156,0.896s-0.338,0.173-0.703,0.173
				c-0.358,0-0.593-0.054-0.702-0.159C106.372,48.792,106.317,48.57,106.317,48.233z"/>
			<path fill="#1B446B" d="M114.308,57.251v-5.396h-0.159c-0.382,0-0.645-0.045-0.788-0.135c-0.143-0.09-0.214-0.248-0.214-0.473
				c0-0.207,0.059-0.357,0.177-0.449c0.117-0.094,0.309-0.141,0.572-0.141h0.396h0.809c0.151,0,0.27,0.031,0.354,0.094
				c0.084,0.062,0.126,0.146,0.126,0.252v0.572c0.41-0.382,0.815-0.662,1.217-0.847c0.401-0.183,0.818-0.272,1.25-0.272
				c0.848,0,1.515,0.264,2,0.791c0.485,0.527,0.729,1.258,0.729,2.188v3.813h0.396c0.28,0,0.482,0.047,0.606,0.14
				c0.123,0.093,0.185,0.239,0.185,0.44c0,0.221-0.065,0.375-0.197,0.469c-0.132,0.093-0.366,0.14-0.703,0.14h-1.86
				c-0.359,0-0.59-0.043-0.69-0.127c-0.102-0.084-0.152-0.244-0.152-0.479c0-0.219,0.06-0.369,0.177-0.455
				c0.118-0.084,0.34-0.125,0.666-0.125h0.294V53.75c0-0.658-0.148-1.158-0.446-1.504c-0.297-0.346-0.729-0.519-1.296-0.519
				c-0.573,0-1.078,0.192-1.516,0.581s-0.657,0.867-0.657,1.439v3.502h0.295c0.337,0,0.564,0.043,0.682,0.127
				s0.177,0.234,0.177,0.453c0,0.236-0.05,0.396-0.151,0.48s-0.348,0.127-0.74,0.127h-1.533h-0.454c-0.23,0-0.403-0.049-0.518-0.148
				c-0.115-0.098-0.173-0.25-0.173-0.459c0-0.224,0.065-0.377,0.197-0.457c0.132-0.082,0.389-0.123,0.771-0.123h0.171V57.251z"/>
			<path fill="#1B446B" d="M126.793,56.089c0.045-0.19,0.104-0.312,0.177-0.366c0.073-0.054,0.196-0.08,0.371-0.08h1.844
				c0.084,0,0.151,0.017,0.202,0.051c0.05,0.034,0.075,0.075,0.075,0.126c0,0.028-0.005,0.064-0.017,0.109
				c-0.012,0.045-0.028,0.088-0.051,0.127l-2.315,4.814c-0.039,0.086-0.092,0.151-0.159,0.203c-0.067,0.051-0.141,0.075-0.22,0.075
				c-0.017,0-0.035-0.004-0.055-0.009c-0.02-0.006-0.052-0.018-0.097-0.034l-0.589-0.22c-0.09-0.038-0.157-0.084-0.202-0.135
				c-0.045-0.051-0.067-0.108-0.067-0.176c0-0.062,0-0.105,0-0.131s0.006-0.053,0.017-0.08L126.793,56.089z"/>
			<path fill="#1B446B" d="M141.241,53.75c0-0.793-0.07-1.326-0.213-1.604s-0.385-0.417-0.73-0.417c-0.411,0-0.739,0.18-0.981,0.539
				c-0.241,0.359-0.362,0.854-0.362,1.482v3.502h0.149c0.344,0,0.571,0.041,0.688,0.121c0.112,0.082,0.172,0.234,0.172,0.459
				c0,0.203-0.047,0.354-0.144,0.455c-0.096,0.102-0.241,0.151-0.438,0.151h-1.069c-0.242,0-0.406-0.058-0.492-0.169
				c-0.088-0.111-0.131-0.354-0.131-0.725V57.3v-3.553v-0.656c0-0.422-0.094-0.754-0.283-0.998
				c-0.188-0.244-0.448-0.366-0.776-0.366c-0.252,0-0.482,0.073-0.689,0.224c-0.209,0.148-0.389,0.368-0.539,0.662v4.639h0.311
				c0.336,0,0.564,0.041,0.683,0.125c0.119,0.086,0.178,0.236,0.178,0.455c0,0.229-0.049,0.389-0.145,0.477
				c-0.095,0.087-0.277,0.131-0.548,0.131h-2.251c-0.22,0-0.382-0.049-0.486-0.148c-0.104-0.098-0.157-0.25-0.157-0.459
				c0-0.224,0.066-0.377,0.198-0.457c0.132-0.082,0.389-0.123,0.771-0.123h0.168v-5.396h-0.151c-0.393,0-0.661-0.045-0.804-0.136
				c-0.144-0.09-0.215-0.247-0.215-0.473c0-0.195,0.057-0.344,0.169-0.44c0.113-0.099,0.282-0.147,0.508-0.147h1.295
				c0.188,0,0.311,0.032,0.371,0.098c0.06,0.064,0.096,0.201,0.106,0.408c0.229-0.246,0.476-0.43,0.736-0.547
				c0.262-0.117,0.559-0.178,0.887-0.178c0.392,0,0.715,0.085,0.97,0.258c0.254,0.172,0.44,0.43,0.563,0.778
				c0.235-0.354,0.508-0.614,0.815-0.783c0.309-0.168,0.662-0.253,1.062-0.253c0.726,0,1.254,0.234,1.588,0.708
				c0.334,0.472,0.5,1.233,0.5,2.289v3.813h0.135c0.351,0,0.582,0.043,0.699,0.127c0.119,0.084,0.179,0.234,0.179,0.453
				c0,0.203-0.052,0.354-0.152,0.455c-0.103,0.103-0.25,0.152-0.445,0.152h-1.027c-0.229,0-0.395-0.068-0.504-0.203
				c-0.107-0.135-0.162-0.348-0.162-0.639V53.75H141.241z"/>
			<path fill="#1B446B" d="M150.418,57.369c-0.461,0.416-0.961,0.731-1.502,0.951c-0.543,0.219-1.101,0.328-1.672,0.328
				c-0.836,0-1.513-0.232-2.025-0.697c-0.514-0.468-0.771-1.072-0.771-1.82c0-0.887,0.341-1.573,1.021-2.062
				c0.684-0.487,1.641-0.731,2.877-0.731c0.323,0,0.651,0.021,0.983,0.062c0.33,0.041,0.67,0.107,1.021,0.197v-0.059
				c0-0.646-0.156-1.123-0.465-1.433c-0.31-0.31-0.787-0.463-1.439-0.463c-0.438,0-0.926,0.116-1.465,0.354
				c-0.539,0.236-0.896,0.354-1.067,0.354c-0.164,0-0.3-0.066-0.404-0.197c-0.107-0.133-0.16-0.303-0.16-0.51
				c0-0.331,0.311-0.611,0.93-0.842c0.621-0.23,1.414-0.346,2.379-0.346c0.988,0,1.734,0.252,2.24,0.754
				c0.504,0.502,0.758,1.244,0.758,2.227v3.814h0.412c0.398,0,0.664,0.041,0.799,0.125c0.135,0.086,0.203,0.236,0.203,0.455
				c0,0.203-0.057,0.354-0.168,0.455c-0.113,0.102-0.281,0.151-0.506,0.151h-1.322c-0.156,0-0.285-0.049-0.387-0.144
				c-0.102-0.096-0.168-0.233-0.201-0.414L150.418,57.369z M150.352,54.716c-0.311-0.1-0.609-0.176-0.898-0.223
				s-0.576-0.072-0.86-0.072c-0.865,0-1.548,0.146-2.048,0.438c-0.5,0.291-0.75,0.685-0.75,1.179c0,0.383,0.156,0.695,0.47,0.942
				c0.312,0.247,0.707,0.371,1.19,0.371c0.713,0,1.373-0.188,1.982-0.562s0.914-0.762,0.914-1.166V54.716z"/>
			<path fill="#1B446B" d="M156.987,57.251h0.244c0.279,0,0.498,0.051,0.656,0.156c0.156,0.104,0.234,0.25,0.234,0.44
				c0,0.202-0.068,0.353-0.205,0.446c-0.14,0.095-0.355,0.144-0.652,0.144h-2.324c-0.168,0-0.309-0.058-0.422-0.169
				c-0.111-0.111-0.168-0.253-0.168-0.421c0-0.207,0.076-0.358,0.229-0.455c0.15-0.095,0.394-0.144,0.724-0.144h0.17l2.728-2.795
				l-2.679-2.602h-0.117c-0.325,0-0.551-0.044-0.678-0.131c-0.127-0.088-0.188-0.24-0.188-0.459c0-0.23,0.071-0.389,0.215-0.477
				c0.143-0.086,0.416-0.131,0.819-0.131h1.728c0.303,0,0.522,0.051,0.66,0.146c0.139,0.099,0.207,0.252,0.207,0.459
				c0,0.191-0.078,0.338-0.232,0.439s-0.377,0.151-0.668,0.151h-0.068l1.812,1.774l1.727-1.774h-0.178
				c-0.313,0-0.547-0.048-0.699-0.14c-0.149-0.094-0.227-0.237-0.227-0.435c0-0.219,0.067-0.378,0.202-0.476
				c0.136-0.098,0.354-0.146,0.656-0.146h2.189c0.174,0,0.314,0.055,0.424,0.164s0.164,0.25,0.164,0.424
				c0,0.209-0.07,0.361-0.209,0.459c-0.141,0.1-0.365,0.148-0.674,0.148h-0.236l-2.416,2.518l2.947,2.879h0.084
				c0.213,0,0.379,0.053,0.496,0.156s0.178,0.25,0.178,0.441c0,0.225-0.068,0.379-0.203,0.463s-0.412,0.127-0.834,0.127h-1.717
				c-0.297,0-0.518-0.049-0.656-0.145c-0.141-0.094-0.211-0.244-0.211-0.445c0-0.186,0.066-0.331,0.201-0.438
				c0.135-0.107,0.32-0.16,0.557-0.16h0.471l-2.12-2.072L156.987,57.251z"/>
			<path fill="#1B446B" d="M169.448,49.488h-1.422c-0.168,0-0.303-0.046-0.4-0.14c-0.1-0.093-0.147-0.218-0.147-0.374
				c0-0.163,0.047-0.29,0.14-0.385c0.094-0.092,0.225-0.139,0.395-0.139h2.262c0.18,0,0.328,0.055,0.445,0.16
				c0.119,0.107,0.178,0.238,0.178,0.396v11.988c0,0.157-0.059,0.289-0.178,0.396c-0.117,0.106-0.266,0.159-0.445,0.159h-2.262
				c-0.164,0-0.295-0.049-0.391-0.147c-0.097-0.098-0.144-0.229-0.144-0.392c0-0.157,0.049-0.278,0.147-0.366
				c0.099-0.086,0.232-0.13,0.4-0.13h1.422V49.488z"/>
		</g>
	</g>
	<g>
		<g>
			<path fill="#1B446B" d="M26.079,19.067c0.178,0.109,0.352,0.308,0.523,0.595c0.027,0.041,0.051,0.075,0.072,0.103l1.671,2.646
				h0.113h0.205c0.396,0,0.695,0.092,0.897,0.277c0.201,0.185,0.302,0.461,0.302,0.831c0,0.403-0.101,0.694-0.302,0.872
				c-0.202,0.178-0.535,0.267-1,0.267h-1.261c-0.465,0-0.827-0.202-1.087-0.605l-0.031-0.021l-2.512-3.866
				c-0.096-0.15-0.205-0.265-0.328-0.344c-0.123-0.078-0.253-0.118-0.39-0.118h-0.964v2.707h0.164c0.369,0,0.647,0.094,0.835,0.282
				s0.282,0.463,0.282,0.826c0,0.403-0.098,0.694-0.292,0.872c-0.195,0.178-0.525,0.267-0.99,0.267H19.34
				c-0.458,0-0.786-0.089-0.984-0.267c-0.198-0.178-0.297-0.468-0.297-0.872c0-0.362,0.094-0.637,0.282-0.826
				c0.188-0.188,0.463-0.282,0.825-0.282h0.174v-7.649h-0.174c-0.355,0-0.629-0.097-0.82-0.292
				c-0.191-0.194-0.287-0.473-0.287-0.835c0-0.396,0.101-0.685,0.303-0.867c0.201-0.181,0.528-0.271,0.979-0.271h4.727
				c1.449,0,2.546,0.282,3.292,0.846c0.745,0.564,1.118,1.396,1.118,2.497c0,0.766-0.207,1.429-0.62,1.989
				C27.444,18.387,26.851,18.801,26.079,19.067z M21.864,14.699v2.902h1.384c0.854,0,1.453-0.111,1.794-0.333
				s0.513-0.593,0.513-1.113c0-0.513-0.156-0.883-0.466-1.113c-0.312-0.229-0.812-0.343-1.502-0.343H21.864z"/>
			<path fill="#1B446B" d="M40.301,22.41h0.164c0.369,0,0.651,0.097,0.846,0.292c0.195,0.194,0.292,0.473,0.292,0.835
				c0,0.396-0.101,0.682-0.302,0.856c-0.202,0.175-0.535,0.262-1,0.262h-0.964c-0.342,0-0.597-0.065-0.764-0.195
				c-0.168-0.13-0.306-0.366-0.416-0.708c-0.567,0.376-1.169,0.663-1.805,0.861c-0.636,0.198-1.278,0.297-1.928,0.297
				c-1.101,0-1.965-0.273-2.594-0.82s-0.943-1.295-0.943-2.246c0-1.025,0.407-1.822,1.22-2.389c0.813-0.567,1.955-0.851,3.425-0.851
				c0.328,0,0.677,0.017,1.046,0.051c0.369,0.034,0.783,0.089,1.241,0.164v-0.195c0-0.615-0.148-1.083-0.446-1.405
				c-0.297-0.321-0.736-0.481-1.317-0.481c-0.451,0-1.027,0.167-1.728,0.502c-0.701,0.335-1.215,0.502-1.543,0.502
				c-0.321,0-0.581-0.094-0.779-0.282c-0.198-0.188-0.297-0.436-0.297-0.743c0-0.554,0.405-0.993,1.215-1.317
				c0.811-0.325,1.913-0.487,3.307-0.487c1.456,0,2.499,0.28,3.127,0.841s0.943,1.511,0.943,2.851V22.41z M37.819,20.431
				c-0.342-0.075-0.656-0.131-0.943-0.169c-0.287-0.038-0.554-0.057-0.8-0.057c-0.752,0-1.342,0.126-1.769,0.379
				c-0.428,0.253-0.641,0.602-0.641,1.046c0,0.396,0.137,0.699,0.41,0.908s0.667,0.312,1.179,0.312c0.472,0,0.916-0.068,1.333-0.205
				s0.827-0.349,1.23-0.636L37.819,20.431L37.819,20.431z"/>
			<path fill="#1B446B" d="M53.026,22.39h0.133c0.383,0,0.67,0.094,0.861,0.282s0.287,0.47,0.287,0.846
				c0,0.403-0.097,0.694-0.292,0.872c-0.194,0.178-0.524,0.267-0.989,0.267h-2.522c-0.458,0-0.788-0.089-0.989-0.267
				c-0.202-0.178-0.303-0.468-0.303-0.872c0-0.376,0.098-0.658,0.292-0.846c0.195-0.188,0.487-0.282,0.877-0.282h0.123v-2.963
				c0-0.82-0.115-1.403-0.344-1.748c-0.229-0.345-0.61-0.518-1.143-0.518c-0.567,0-1.031,0.207-1.389,0.621
				c-0.359,0.414-0.539,0.962-0.539,1.646v2.963h0.123c0.39,0,0.68,0.094,0.872,0.282c0.191,0.188,0.287,0.47,0.287,0.846
				c0,0.403-0.099,0.694-0.297,0.872c-0.198,0.178-0.526,0.267-0.984,0.267h-2.543c-0.458,0-0.786-0.089-0.984-0.267
				c-0.198-0.178-0.297-0.468-0.297-0.872c0-0.376,0.096-0.658,0.287-0.846c0.191-0.188,0.482-0.282,0.872-0.282h0.123v-4.963
				h-0.174c-0.369,0-0.649-0.094-0.841-0.282c-0.192-0.188-0.287-0.463-0.287-0.826c0-0.403,0.099-0.694,0.297-0.872
				c0.198-0.178,0.533-0.267,1.005-0.267h1.743c0.191,0,0.336,0.038,0.436,0.113c0.099,0.075,0.148,0.185,0.148,0.328v0.8
				c0.314-0.492,0.716-0.863,1.205-1.113c0.488-0.249,1.054-0.374,1.697-0.374c1.094,0,1.909,0.332,2.446,0.995
				c0.536,0.663,0.805,1.675,0.805,3.035v3.425H53.026z"/>
			<path fill="#1B446B" d="M65.689,22.41h0.174c0.369,0,0.646,0.094,0.831,0.282c0.185,0.188,0.277,0.463,0.277,0.826
				c0,0.403-0.097,0.694-0.292,0.872c-0.194,0.178-0.524,0.267-0.989,0.267h-1.569c-0.198,0-0.351-0.039-0.457-0.118
				c-0.106-0.078-0.159-0.186-0.159-0.323v-0.718c-0.335,0.458-0.766,0.809-1.292,1.051c-0.526,0.242-1.118,0.364-1.774,0.364
				c-1.34,0-2.461-0.457-3.363-1.369c-0.902-0.913-1.354-2.053-1.354-3.42c0-1.422,0.456-2.601,1.369-3.538
				c0.912-0.937,2.073-1.405,3.481-1.405c0.485,0,0.958,0.081,1.42,0.241c0.461,0.161,0.883,0.388,1.266,0.682V13.51h-1.364
				c-0.472,0-0.807-0.09-1.005-0.271c-0.198-0.181-0.297-0.47-0.297-0.866c0-0.403,0.099-0.694,0.297-0.872
				c0.198-0.178,0.533-0.267,1.005-0.267h3.189c0.232,0,0.391,0.048,0.477,0.144c0.085,0.096,0.128,0.273,0.128,0.533L65.689,22.41
				L65.689,22.41z M60.88,17.365c-0.67,0-1.225,0.251-1.667,0.753c-0.44,0.503-0.661,1.14-0.661,1.913
				c0,0.793,0.219,1.441,0.656,1.943c0.438,0.503,0.995,0.754,1.671,0.754c0.676,0,1.236-0.253,1.676-0.759
				c0.441-0.506,0.662-1.152,0.662-1.938c0-0.766-0.222-1.401-0.667-1.907C62.105,17.618,61.55,17.365,60.88,17.365z"/>
			<path fill="#1B446B" d="M73.923,14.956c1.661,0,3.008,0.465,4.04,1.395c1.032,0.93,1.548,2.123,1.548,3.579
				c0,1.463-0.516,2.659-1.548,3.589c-1.032,0.93-2.379,1.395-4.04,1.395c-1.654,0-2.998-0.465-4.03-1.395
				c-1.032-0.93-1.548-2.126-1.548-3.589c0-1.456,0.518-2.649,1.554-3.579C70.934,15.42,72.276,14.956,73.923,14.956z
				 M73.923,17.119c-0.8,0-1.458,0.261-1.974,0.785c-0.517,0.521-0.774,1.19-0.774,2.004c0,0.82,0.258,1.499,0.774,2.036
				c0.516,0.537,1.174,0.805,1.974,0.805c0.8,0,1.459-0.268,1.979-0.805c0.52-0.537,0.779-1.215,0.779-2.036
				c0-0.813-0.258-1.482-0.774-2.004C75.391,17.38,74.73,17.119,73.923,17.119z"/>
			<path fill="#1B446B" d="M87.182,15.878c0.287-0.308,0.619-0.542,0.995-0.702c0.376-0.16,0.779-0.241,1.21-0.241
				c0.93,0,1.6,0.275,2.01,0.825c0.41,0.551,0.615,1.472,0.615,2.764v3.886h0.144c0.321,0,0.562,0.094,0.723,0.282
				c0.16,0.188,0.241,0.463,0.241,0.826c0,0.41-0.084,0.703-0.251,0.876c-0.167,0.175-0.453,0.262-0.856,0.262H90.27
				c-0.185,0-0.328-0.039-0.431-0.118c-0.103-0.078-0.154-0.186-0.154-0.323v-5.793c0-0.458-0.072-0.8-0.215-1.025
				c-0.143-0.225-0.352-0.338-0.625-0.338c-0.342,0-0.607,0.152-0.795,0.457s-0.282,0.74-0.282,1.307v3.589h0.154
				c0.314,0,0.554,0.094,0.718,0.282s0.246,0.463,0.246,0.826c0,0.41-0.085,0.703-0.256,0.876c-0.171,0.175-0.458,0.262-0.861,0.262
				h-1.743c-0.185,0-0.332-0.039-0.441-0.118c-0.109-0.078-0.164-0.186-0.164-0.323v-5.793c0-0.458-0.068-0.8-0.205-1.025
				c-0.137-0.225-0.342-0.338-0.615-0.338c-0.342,0-0.61,0.154-0.805,0.461c-0.195,0.308-0.292,0.742-0.292,1.302v3.589h0.154
				c0.321,0,0.562,0.092,0.723,0.277c0.161,0.185,0.241,0.461,0.241,0.831c0,0.41-0.085,0.703-0.256,0.876
				c-0.171,0.175-0.458,0.262-0.861,0.262h-2.328c-0.396,0-0.68-0.089-0.851-0.267c-0.171-0.178-0.256-0.468-0.256-0.872
				c0-0.362,0.081-0.637,0.241-0.826c0.16-0.188,0.401-0.282,0.723-0.282h0.144v-4.983h-0.144c-0.321,0-0.566-0.097-0.733-0.292
				c-0.167-0.194-0.251-0.473-0.251-0.835c0-0.396,0.087-0.682,0.262-0.855c0.174-0.175,0.463-0.262,0.866-0.262h1.384
				c0.28,0,0.47,0.057,0.569,0.169c0.099,0.113,0.149,0.33,0.149,0.651c0.253-0.349,0.557-0.613,0.913-0.795
				c0.355-0.181,0.752-0.271,1.189-0.271c0.396,0,0.742,0.077,1.036,0.23C86.707,15.32,86.963,15.557,87.182,15.878z"/>
		</g>
	</g>
</g>
</svg>
