<?xml version="1.0" encoding="utf-8"?>
<!-- Generator: Adobe Illustrator 16.0.0, SVG Export Plug-In . SVG Version: 6.00 Build 0)  -->
<!DOCTYPE svg PUBLIC "-//W3C//DTD SVG 1.1//EN" "http://www.w3.org/Graphics/SVG/1.1/DTD/svg11.dtd">
<svg version="1.1" id="Layer_1" xmlns="http://www.w3.org/2000/svg" xmlns:xlink="http://www.w3.org/1999/xlink" x="0px" y="0px"
	 width="17.901px" height="17.902px" viewBox="0 0 17.901 17.902" enable-background="new 0 0 17.901 17.902" xml:space="preserve">
<path id="refresh_1_" fill="#A87B4F" d="M15.309,8.952c-0.008,3.51-2.85,6.351-6.358,6.358c-3.512-0.007-6.354-2.848-6.359-6.358
	C2.597,5.44,5.438,2.599,8.95,2.592c1.417,0,2.716,0.466,3.77,1.249l-1.319,1.321l6.242,1.671l-1.674-6.242l-1.398,1.4
	C13.036,0.749,11.077,0,8.95,0C4.007,0.002,0.001,4.008,0,8.952c0.001,4.944,4.007,8.951,8.95,8.951s8.951-4.007,8.951-8.951H15.309
	z"/>
</svg>
