<?xml version="1.0" encoding="utf-8"?>
<!-- Generator: Adobe Illustrator 16.0.0, SVG Export Plug-In . SVG Version: 6.00 Build 0)  -->
<!DOCTYPE svg PUBLIC "-//W3C//DTD SVG 1.1//EN" "http://www.w3.org/Graphics/SVG/1.1/DTD/svg11.dtd">
<svg version="1.1" id="Layer_1" xmlns="http://www.w3.org/2000/svg" xmlns:xlink="http://www.w3.org/1999/xlink" x="0px" y="0px"
	 width="50.354px" height="109.954px" viewBox="0 0 50.354 109.954" enable-background="new 0 0 50.354 109.954"
	 xml:space="preserve">
<g>
	<g>
		<rect x="0" y="29.809" fill="#CCCCCE" width="50.354" height="80.145"/>
	</g>
	<g enable-background="new    ">
		<path fill="#545554" d="M14.492,35.449c0.093,0.058,0.185,0.162,0.272,0.312c0.014,0.021,0.027,0.039,0.038,0.053l0.875,1.387
			h0.059h0.107c0.208,0,0.364,0.048,0.47,0.145c0.106,0.097,0.159,0.242,0.159,0.438c0,0.211-0.053,0.363-0.159,0.456
			c-0.104,0.093-0.278,0.14-0.521,0.14h-0.661c-0.244,0-0.435-0.105-0.569-0.316l-0.016-0.012l-1.316-2.024
			c-0.05-0.079-0.105-0.139-0.172-0.18c-0.063-0.041-0.132-0.062-0.204-0.062h-0.505v1.418h0.086c0.193,0,0.339,0.049,0.438,0.147
			c0.098,0.099,0.146,0.242,0.146,0.433c0,0.211-0.051,0.363-0.151,0.456c-0.104,0.093-0.274,0.14-0.52,0.14h-1.386
			c-0.24,0-0.412-0.047-0.518-0.14c-0.104-0.093-0.154-0.245-0.154-0.456c0-0.19,0.049-0.334,0.146-0.433
			c0.101-0.099,0.243-0.147,0.435-0.147h0.091v-4.008H10.87c-0.188,0-0.33-0.051-0.432-0.152c-0.1-0.103-0.148-0.248-0.148-0.438
			c0-0.208,0.053-0.359,0.156-0.454c0.106-0.095,0.277-0.143,0.515-0.143h2.476c0.759,0,1.334,0.147,1.726,0.443
			c0.39,0.295,0.585,0.731,0.585,1.308c0,0.401-0.108,0.748-0.325,1.042C15.208,35.094,14.897,35.31,14.492,35.449z M12.285,33.162
			v1.52h0.725c0.448,0,0.761-0.059,0.94-0.175c0.179-0.116,0.269-0.311,0.269-0.583c0-0.268-0.082-0.462-0.245-0.582
			c-0.163-0.12-0.425-0.18-0.787-0.18H12.285z"/>
	</g>
	<g enable-background="new    ">
		<path fill="#545554" d="M14.781,44.125c0.068-0.129,0.143-0.22,0.22-0.273c0.077-0.054,0.172-0.08,0.287-0.08
			c0.175,0,0.3,0.046,0.373,0.139c0.072,0.094,0.108,0.253,0.108,0.479l0.011,1.396c0,0.247-0.038,0.414-0.119,0.5
			c-0.08,0.086-0.229,0.129-0.443,0.129c-0.15,0-0.27-0.037-0.354-0.11c-0.084-0.073-0.151-0.205-0.205-0.396
			c-0.099-0.344-0.245-0.589-0.446-0.735s-0.481-0.22-0.843-0.22c-0.553,0-0.975,0.186-1.267,0.559
			c-0.292,0.372-0.438,0.911-0.438,1.616s0.151,1.251,0.459,1.636c0.307,0.385,0.74,0.577,1.303,0.577
			c0.129,0,0.276-0.016,0.44-0.046c0.162-0.029,0.356-0.078,0.578-0.143v-0.848H13.84c-0.244,0-0.417-0.047-0.52-0.137
			s-0.151-0.236-0.151-0.443c0-0.217,0.051-0.369,0.151-0.461c0.104-0.092,0.274-0.138,0.52-0.138h1.938
			c0.25,0,0.429,0.045,0.529,0.134c0.104,0.092,0.153,0.24,0.153,0.451c0,0.189-0.051,0.336-0.153,0.438
			c-0.103,0.103-0.25,0.152-0.443,0.152H15.78v1.277v0.064c0,0.113-0.013,0.192-0.036,0.237c-0.025,0.045-0.075,0.093-0.15,0.14
			c-0.204,0.121-0.528,0.229-0.972,0.32c-0.444,0.094-0.896,0.141-1.35,0.141c-0.938,0-1.695-0.312-2.275-0.931
			c-0.58-0.618-0.87-1.429-0.87-2.428c0-0.963,0.293-1.764,0.881-2.401c0.587-0.637,1.332-0.955,2.232-0.955
			c0.25,0,0.5,0.028,0.75,0.086C14.239,43.914,14.503,44.004,14.781,44.125z"/>
	</g>
	<g enable-background="new    ">
		<path fill="#545554" d="M14.954,60.438c0.39,0.145,0.677,0.341,0.857,0.59c0.184,0.248,0.274,0.564,0.274,0.953
			c0,0.326-0.079,0.623-0.236,0.892s-0.383,0.487-0.677,0.66c-0.172,0.101-0.364,0.173-0.578,0.218
			c-0.213,0.045-0.515,0.066-0.905,0.066h-0.45h-2.353c-0.236,0-0.406-0.047-0.507-0.141c-0.104-0.093-0.153-0.244-0.153-0.456
			c0-0.188,0.048-0.334,0.146-0.433c0.097-0.1,0.236-0.146,0.424-0.146h0.091v-4.009h-0.091c-0.188,0-0.328-0.05-0.424-0.149
			c-0.099-0.101-0.146-0.245-0.146-0.438c0-0.208,0.052-0.358,0.156-0.454c0.104-0.095,0.271-0.143,0.505-0.143h2.471
			c0.755,0,1.33,0.146,1.723,0.438c0.393,0.296,0.588,0.726,0.588,1.289c0,0.279-0.062,0.525-0.182,0.738
			C15.369,60.129,15.191,60.303,14.954,60.438z M12.215,58.603v1.354h0.725c0.44,0,0.751-0.053,0.934-0.156
			c0.181-0.104,0.271-0.278,0.271-0.526c0-0.23-0.082-0.401-0.245-0.51c-0.163-0.107-0.427-0.16-0.792-0.16h-0.891L12.215,58.603
			L12.215,58.603z M12.215,61.036v1.638h0.806c0.569,0,0.972-0.062,1.203-0.188c0.233-0.125,0.349-0.334,0.349-0.629
			c0-0.297-0.109-0.508-0.333-0.633c-0.222-0.125-0.608-0.188-1.166-0.188H12.215z"/>
	</g>
	<g enable-background="new    ">
		<path fill="#545554" d="M14.745,99.055h-2.498v1.375h0.938v-0.063c0-0.201,0.045-0.354,0.137-0.455
			c0.093-0.103,0.229-0.151,0.411-0.151c0.161,0,0.292,0.046,0.396,0.137c0.102,0.093,0.153,0.207,0.153,0.349v0.188v1.111
			c0,0.24-0.045,0.412-0.131,0.516s-0.226,0.156-0.419,0.156c-0.183,0-0.318-0.049-0.411-0.143c-0.092-0.097-0.137-0.24-0.137-0.435
			v-0.099h-0.938v1.574h0.301c0.236,0,0.405,0.045,0.508,0.139c0.104,0.091,0.153,0.236,0.153,0.441
			c0,0.211-0.054,0.363-0.156,0.456c-0.104,0.093-0.272,0.14-0.505,0.14h-1.606c-0.231,0-0.399-0.047-0.505-0.14
			c-0.104-0.093-0.156-0.245-0.156-0.456c0-0.188,0.05-0.334,0.146-0.433s0.238-0.147,0.424-0.147h0.091v-4.008H10.85
			c-0.183,0-0.323-0.051-0.422-0.152c-0.098-0.103-0.147-0.248-0.147-0.438c0-0.208,0.055-0.359,0.158-0.454
			c0.106-0.095,0.273-0.143,0.502-0.143h4.399c0.218,0,0.366,0.032,0.443,0.1c0.075,0.066,0.113,0.197,0.113,0.396v1.203
			c0,0.239-0.046,0.412-0.137,0.521c-0.092,0.105-0.239,0.162-0.443,0.162s-0.351-0.055-0.438-0.159s-0.134-0.278-0.134-0.522
			L14.745,99.055L14.745,99.055z"/>
		<path fill="#545554" d="M19.203,100.407l0.567,0.672l0.618-0.672c-0.118,0-0.204-0.043-0.258-0.127s-0.081-0.217-0.081-0.398
			c0-0.18,0.046-0.315,0.137-0.41c0.092-0.095,0.227-0.145,0.4-0.145h1.144c0.24,0,0.412,0.047,0.518,0.142
			c0.104,0.093,0.154,0.245,0.154,0.456c0,0.195-0.051,0.344-0.151,0.438c-0.104,0.094-0.26,0.143-0.477,0.143h-0.209l-1.123,1.225
			l1.345,1.375h0.124c0.208,0,0.362,0.051,0.47,0.148c0.104,0.099,0.159,0.244,0.159,0.441c0,0.211-0.057,0.363-0.164,0.456
			c-0.109,0.093-0.286,0.14-0.529,0.14h-1.3c-0.175,0-0.311-0.047-0.4-0.143c-0.091-0.095-0.137-0.229-0.137-0.404
			c0-0.188,0.028-0.32,0.083-0.404c0.056-0.084,0.145-0.127,0.266-0.127h0.043l-0.682-0.758l-0.661,0.758h0.021
			c0.129,0,0.222,0.041,0.277,0.119c0.059,0.082,0.086,0.205,0.086,0.373c0,0.201-0.044,0.351-0.131,0.443
			c-0.088,0.096-0.223,0.143-0.404,0.143h-1.146c-0.244,0-0.416-0.047-0.519-0.14c-0.104-0.093-0.153-0.245-0.153-0.456
			c0-0.197,0.049-0.345,0.146-0.441c0.1-0.1,0.246-0.148,0.443-0.148h0.104l1.271-1.289l-1.229-1.311H17.66
			c-0.212,0-0.371-0.049-0.479-0.146c-0.105-0.097-0.161-0.242-0.161-0.436c0-0.211,0.056-0.363,0.161-0.456
			c0.107-0.093,0.281-0.14,0.521-0.14h1.3c0.183,0,0.316,0.049,0.406,0.145c0.087,0.098,0.131,0.244,0.131,0.441
			c0,0.164-0.028,0.287-0.083,0.369C19.403,100.366,19.318,100.407,19.203,100.407z"/>
	</g>
	<g enable-background="new    ">
		<path fill="#545554" d="M14.836,84.875c0.072-0.129,0.145-0.22,0.22-0.272c0.075-0.054,0.17-0.08,0.285-0.08
			c0.175,0,0.3,0.045,0.373,0.14c0.074,0.094,0.108,0.253,0.108,0.479l0.013,1.396c0,0.247-0.04,0.414-0.121,0.5
			c-0.08,0.086-0.228,0.129-0.438,0.129c-0.148,0-0.266-0.036-0.347-0.106c-0.08-0.072-0.149-0.205-0.207-0.397
			c-0.093-0.341-0.242-0.584-0.446-0.732c-0.204-0.146-0.485-0.223-0.849-0.223c-0.551,0-0.974,0.187-1.268,0.56
			c-0.293,0.371-0.44,0.91-0.44,1.615c0,0.702,0.148,1.241,0.446,1.616c0.297,0.377,0.722,0.563,1.271,0.563
			c0.376,0,0.791-0.125,1.243-0.375c0.453-0.252,0.739-0.377,0.857-0.377c0.14,0,0.257,0.06,0.352,0.178
			c0.095,0.117,0.142,0.266,0.142,0.438c0,0.315-0.275,0.613-0.833,0.894c-0.556,0.281-1.18,0.418-1.875,0.418
			c-0.938,0-1.695-0.311-2.275-0.928c-0.58-0.619-0.87-1.431-0.87-2.43c0-0.963,0.293-1.764,0.881-2.4
			c0.587-0.638,1.332-0.955,2.234-0.955c0.254,0,0.505,0.027,0.752,0.086C14.294,84.664,14.557,84.754,14.836,84.875z"/>
		<path fill="#545554" d="M19.751,85.987c0.87,0,1.576,0.242,2.116,0.729c0.538,0.487,0.811,1.112,0.811,1.874
			c0,0.769-0.271,1.396-0.811,1.881c-0.541,0.486-1.246,0.73-2.116,0.73c-0.867,0-1.57-0.244-2.111-0.73
			c-0.541-0.485-0.811-1.112-0.811-1.881c0-0.762,0.271-1.387,0.812-1.874C18.185,86.229,18.888,85.987,19.751,85.987z
			 M19.751,87.121c-0.419,0-0.766,0.137-1.034,0.41c-0.271,0.274-0.405,0.624-0.405,1.051c0,0.43,0.135,0.784,0.405,1.065
			c0.271,0.279,0.615,0.422,1.034,0.422s0.765-0.143,1.037-0.422c0.271-0.281,0.406-0.638,0.406-1.065
			c0-0.427-0.135-0.776-0.404-1.051C20.52,87.258,20.173,87.121,19.751,87.121z"/>
		<path fill="#545554" d="M27.013,89.892h1.154c0.247,0,0.421,0.045,0.521,0.135c0.102,0.091,0.15,0.238,0.15,0.445
			c0,0.211-0.052,0.363-0.153,0.456c-0.103,0.093-0.272,0.14-0.519,0.14h-3.644c-0.238,0-0.411-0.047-0.513-0.14
			c-0.104-0.093-0.153-0.245-0.153-0.456c0-0.212,0.049-0.361,0.147-0.449c0.098-0.088,0.271-0.131,0.519-0.131h1.155v-4.662H25.09
			c-0.244,0-0.418-0.047-0.524-0.143c-0.104-0.095-0.156-0.246-0.156-0.454c0-0.211,0.052-0.362,0.154-0.456
			c0.104-0.094,0.279-0.141,0.526-0.141h1.604c0.103,0,0.181,0.021,0.233,0.062c0.056,0.041,0.084,0.098,0.084,0.168L27.013,89.892
			L27.013,89.892z"/>
		<path fill="#545554" d="M32.952,85.987c0.869,0,1.574,0.242,2.115,0.729c0.54,0.487,0.812,1.112,0.812,1.874
			c0,0.769-0.271,1.396-0.812,1.881c-0.541,0.486-1.246,0.73-2.115,0.73c-0.866,0-1.57-0.244-2.11-0.73
			c-0.54-0.485-0.812-1.112-0.812-1.881c0-0.762,0.271-1.387,0.814-1.874C31.387,86.229,32.09,85.987,32.952,85.987z M32.952,87.121
			c-0.418,0-0.766,0.137-1.033,0.41c-0.271,0.274-0.406,0.624-0.406,1.051c0,0.43,0.136,0.784,0.406,1.065
			c0.27,0.279,0.615,0.422,1.033,0.422c0.42,0,0.766-0.143,1.035-0.422c0.271-0.281,0.408-0.638,0.408-1.065
			c0-0.427-0.135-0.776-0.404-1.051C33.722,87.258,33.375,87.121,32.952,87.121z"/>
		<path fill="#545554" d="M39.312,88.151v1.74h1.27c0.242,0,0.417,0.045,0.519,0.135c0.104,0.09,0.153,0.238,0.153,0.444
			c0,0.212-0.051,0.363-0.153,0.456c-0.102,0.094-0.272,0.141-0.519,0.141h-3.002c-0.247,0-0.424-0.047-0.526-0.141
			c-0.104-0.093-0.155-0.244-0.155-0.456c0-0.206,0.051-0.354,0.152-0.444c0.103-0.09,0.279-0.135,0.529-0.135h0.406v-2.61h-0.229
			c-0.244,0-0.417-0.046-0.521-0.138c-0.103-0.092-0.151-0.242-0.151-0.453s0.049-0.361,0.146-0.45
			c0.101-0.091,0.273-0.136,0.524-0.136h1.144c0.099,0,0.172,0.021,0.228,0.062c0.054,0.041,0.08,0.099,0.08,0.169v0.795
			c0.391-0.418,0.755-0.718,1.094-0.896c0.338-0.18,0.703-0.27,1.093-0.27c0.354,0,0.636,0.08,0.843,0.239
			c0.208,0.159,0.312,0.373,0.312,0.642c0,0.208-0.072,0.379-0.215,0.514c-0.146,0.136-0.328,0.201-0.556,0.201
			c-0.159,0-0.352-0.06-0.57-0.178c-0.222-0.117-0.373-0.177-0.459-0.177c-0.172,0-0.374,0.076-0.606,0.229
			C39.906,87.592,39.631,87.83,39.312,88.151z"/>
	</g>
	<g>
		<path fill="#545554" d="M24.851,37.621c0.176,0,0.303,0.03,0.382,0.088c0.079,0.06,0.118,0.153,0.118,0.282
			c0,0.143-0.037,0.244-0.113,0.301c-0.073,0.057-0.218,0.086-0.43,0.086h-2.626c-0.122,0-0.215-0.033-0.279-0.1
			c-0.063-0.066-0.097-0.162-0.097-0.287s0.031-0.218,0.094-0.279c0.063-0.061,0.16-0.091,0.293-0.091h0.693v-4.839h-0.377
			c-0.314,0-0.511-0.028-0.588-0.083c-0.077-0.056-0.115-0.157-0.115-0.304c0-0.125,0.032-0.221,0.097-0.287s0.157-0.1,0.279-0.1
			h2.487c0.869,0,1.529,0.168,1.98,0.505c0.451,0.337,0.678,0.833,0.678,1.488s-0.225,1.149-0.673,1.482
			c-0.446,0.333-1.108,0.5-1.985,0.5h-0.94v1.638H24.851z M23.729,32.781v2.492h1.005c0.562,0,0.982-0.104,1.263-0.312
			c0.279-0.208,0.419-0.521,0.419-0.94c0-0.412-0.142-0.722-0.422-0.929c-0.281-0.207-0.7-0.312-1.26-0.312L23.729,32.781
			L23.729,32.781z"/>
		<path fill="#545554" d="M31.731,37.621h1.726c0.14,0,0.241,0.03,0.309,0.088c0.066,0.06,0.1,0.153,0.1,0.282
			c0,0.146-0.03,0.248-0.094,0.304c-0.062,0.055-0.179,0.083-0.347,0.083h-4.168c-0.145,0-0.251-0.032-0.322-0.097
			c-0.071-0.065-0.106-0.161-0.106-0.29c0-0.125,0.037-0.218,0.111-0.279c0.076-0.061,0.188-0.091,0.339-0.091h1.639v-3.443h-1.047
			c-0.146,0-0.26-0.033-0.336-0.1c-0.077-0.066-0.115-0.162-0.115-0.287s0.036-0.219,0.106-0.282
			c0.071-0.062,0.18-0.094,0.322-0.094h1.574c0.096,0,0.172,0.02,0.228,0.059c0.057,0.039,0.083,0.093,0.083,0.161L31.731,37.621
			L31.731,37.621z M30.738,31.868c0-0.387,0.035-0.63,0.104-0.73c0.07-0.1,0.22-0.149,0.449-0.149c0.222,0,0.368,0.042,0.438,0.126
			c0.072,0.084,0.107,0.284,0.107,0.599c0,0.308-0.032,0.499-0.1,0.572c-0.065,0.074-0.216,0.11-0.447,0.11
			c-0.229,0-0.379-0.034-0.449-0.102C30.773,32.225,30.738,32.083,30.738,31.868z"/>
		<path fill="#545554" d="M35.835,37.621v-3.443h-0.104c-0.243,0-0.41-0.029-0.502-0.086c-0.091-0.057-0.137-0.158-0.137-0.301
			c0-0.132,0.037-0.229,0.113-0.287c0.073-0.06,0.195-0.089,0.364-0.089h0.252h0.517c0.097,0,0.172,0.02,0.226,0.059
			c0.055,0.039,0.081,0.093,0.081,0.161V34c0.261-0.244,0.521-0.423,0.775-0.54c0.256-0.117,0.521-0.175,0.798-0.175
			c0.541,0,0.966,0.168,1.275,0.505c0.309,0.337,0.465,0.802,0.465,1.396v2.433h0.253c0.179,0,0.308,0.03,0.387,0.088
			c0.078,0.06,0.117,0.153,0.117,0.282c0,0.14-0.042,0.239-0.126,0.298c-0.084,0.06-0.233,0.089-0.448,0.089h-1.188
			c-0.229,0-0.375-0.027-0.439-0.081c-0.063-0.054-0.098-0.156-0.098-0.306c0-0.14,0.038-0.236,0.112-0.29
			c0.075-0.054,0.218-0.081,0.425-0.081h0.188v-2.234c0-0.419-0.095-0.739-0.284-0.958c-0.189-0.221-0.466-0.331-0.828-0.331
			c-0.364,0-0.688,0.124-0.967,0.371c-0.278,0.247-0.418,0.553-0.418,0.918v2.234h0.188c0.215,0,0.358,0.027,0.436,0.081
			c0.074,0.054,0.112,0.15,0.112,0.29c0,0.15-0.032,0.252-0.097,0.306c-0.065,0.054-0.223,0.081-0.474,0.081h-0.978h-0.29
			c-0.146,0-0.257-0.031-0.33-0.094c-0.073-0.063-0.11-0.161-0.11-0.293c0-0.144,0.042-0.241,0.126-0.293
			c0.084-0.052,0.248-0.078,0.492-0.078h0.114V37.621z"/>
	</g>
	<g>
		<path fill="#545554" d="M24.851,49.644c0.176,0,0.303,0.029,0.382,0.088c0.079,0.06,0.118,0.152,0.118,0.281
			c0,0.145-0.037,0.244-0.113,0.301c-0.073,0.059-0.218,0.086-0.43,0.086h-2.626c-0.122,0-0.215-0.032-0.279-0.1
			c-0.063-0.064-0.097-0.16-0.097-0.287c0-0.125,0.031-0.218,0.094-0.279c0.062-0.061,0.16-0.09,0.293-0.09h0.693v-4.84h-0.377
			c-0.314,0-0.511-0.028-0.588-0.083c-0.077-0.056-0.115-0.157-0.115-0.304c0-0.125,0.032-0.221,0.097-0.287
			c0.064-0.066,0.157-0.1,0.279-0.1h2.487c0.869,0,1.529,0.168,1.98,0.505s0.678,0.833,0.678,1.488s-0.225,1.149-0.673,1.482
			c-0.446,0.333-1.108,0.5-1.985,0.5h-0.94v1.639H24.851z M23.729,44.803v2.493h1.005c0.562,0,0.982-0.104,1.263-0.312
			c0.279-0.208,0.419-0.521,0.419-0.94c0-0.412-0.142-0.722-0.422-0.929c-0.281-0.207-0.7-0.312-1.26-0.312H23.729z"/>
		<path fill="#545554" d="M31.731,49.644h1.726c0.14,0,0.241,0.029,0.309,0.088c0.067,0.06,0.1,0.152,0.1,0.281
			c0,0.147-0.03,0.248-0.094,0.305c-0.062,0.056-0.179,0.082-0.347,0.082h-4.168c-0.145,0-0.251-0.03-0.322-0.096
			c-0.071-0.064-0.106-0.162-0.106-0.291c0-0.125,0.037-0.218,0.111-0.279c0.076-0.061,0.188-0.09,0.339-0.09h1.639V46.2h-1.047
			c-0.146,0-0.26-0.033-0.336-0.1c-0.077-0.066-0.115-0.162-0.115-0.287s0.036-0.219,0.106-0.282
			c0.071-0.062,0.18-0.094,0.322-0.094h1.574c0.096,0,0.172,0.02,0.228,0.059c0.057,0.039,0.083,0.093,0.083,0.161L31.731,49.644
			L31.731,49.644z M30.738,43.89c0-0.387,0.035-0.63,0.104-0.73c0.07-0.1,0.22-0.15,0.449-0.15c0.222,0,0.368,0.042,0.438,0.126
			c0.072,0.084,0.107,0.284,0.107,0.599c0,0.308-0.032,0.499-0.1,0.572c-0.065,0.074-0.216,0.11-0.447,0.11
			c-0.229,0-0.379-0.034-0.449-0.102C30.773,44.247,30.738,44.105,30.738,43.89z"/>
		<path fill="#545554" d="M35.835,49.644V46.2h-0.104c-0.243,0-0.41-0.029-0.502-0.086c-0.091-0.057-0.137-0.158-0.137-0.301
			c0-0.132,0.037-0.229,0.113-0.287c0.073-0.06,0.195-0.089,0.364-0.089h0.252h0.517c0.097,0,0.172,0.02,0.226,0.059
			c0.055,0.039,0.081,0.093,0.081,0.161v0.365c0.261-0.244,0.521-0.423,0.775-0.54c0.256-0.117,0.521-0.175,0.798-0.175
			c0.541,0,0.966,0.168,1.275,0.505c0.309,0.337,0.465,0.802,0.465,1.397v2.433h0.253c0.179,0,0.308,0.03,0.387,0.09
			c0.078,0.059,0.117,0.151,0.117,0.28c0,0.142-0.042,0.24-0.126,0.3c-0.084,0.059-0.233,0.088-0.448,0.088h-1.188
			c-0.229,0-0.375-0.026-0.439-0.08c-0.063-0.055-0.098-0.156-0.098-0.308c0-0.139,0.038-0.235,0.112-0.288
			c0.075-0.056,0.218-0.082,0.425-0.082h0.188v-2.233c0-0.419-0.095-0.739-0.284-0.958c-0.189-0.221-0.466-0.331-0.828-0.331
			c-0.364,0-0.688,0.124-0.967,0.371c-0.278,0.247-0.418,0.553-0.418,0.918v2.233h0.188c0.215,0,0.358,0.026,0.436,0.082
			c0.074,0.053,0.112,0.149,0.112,0.288c0,0.15-0.032,0.253-0.097,0.308c-0.065,0.054-0.223,0.08-0.474,0.08h-0.978h-0.29
			c-0.146,0-0.257-0.031-0.33-0.094c-0.073-0.063-0.11-0.16-0.11-0.294c0-0.143,0.042-0.239,0.126-0.293
			c0.084-0.051,0.248-0.077,0.492-0.077h0.114V49.644z"/>
	</g>
	<g>
		<path fill="#545554" d="M24.934,63.062c0.176,0,0.303,0.029,0.382,0.088c0.079,0.06,0.118,0.152,0.118,0.281
			c0,0.145-0.037,0.244-0.113,0.301c-0.073,0.059-0.218,0.086-0.43,0.086h-2.626c-0.122,0-0.215-0.032-0.279-0.1
			c-0.063-0.064-0.097-0.16-0.097-0.287c0-0.125,0.031-0.218,0.094-0.279c0.062-0.061,0.16-0.09,0.293-0.09h0.693v-4.84h-0.377
			c-0.314,0-0.511-0.027-0.588-0.084c-0.077-0.055-0.115-0.156-0.115-0.303c0-0.126,0.032-0.222,0.097-0.287
			c0.064-0.066,0.157-0.1,0.279-0.1h2.487c0.869,0,1.529,0.168,1.98,0.504c0.451,0.337,0.678,0.833,0.678,1.488
			c0,0.654-0.225,1.148-0.673,1.481c-0.446,0.333-1.108,0.5-1.985,0.5h-0.94v1.638h1.122V63.062z M23.812,58.222v2.492h1.005
			c0.562,0,0.982-0.104,1.263-0.312c0.278-0.207,0.419-0.521,0.419-0.938c0-0.412-0.142-0.722-0.422-0.93
			c-0.281-0.207-0.7-0.312-1.26-0.312H23.812z"/>
		<path fill="#545554" d="M31.814,63.062h1.726c0.14,0,0.241,0.029,0.309,0.088c0.067,0.06,0.1,0.152,0.1,0.281
			c0,0.147-0.03,0.248-0.094,0.305c-0.062,0.056-0.179,0.082-0.347,0.082h-4.168c-0.145,0-0.251-0.03-0.322-0.096
			c-0.071-0.064-0.106-0.162-0.106-0.291c0-0.125,0.037-0.218,0.111-0.279c0.076-0.061,0.188-0.09,0.339-0.09h1.639v-3.442H29.95
			c-0.146,0-0.26-0.033-0.337-0.101c-0.076-0.066-0.114-0.162-0.114-0.287s0.036-0.22,0.106-0.282
			c0.071-0.062,0.18-0.095,0.322-0.095h1.574c0.096,0,0.172,0.021,0.228,0.061c0.057,0.04,0.083,0.093,0.083,0.161L31.814,63.062
			L31.814,63.062z M30.821,57.308c0-0.387,0.035-0.63,0.104-0.729c0.07-0.101,0.22-0.15,0.449-0.15c0.222,0,0.368,0.043,0.438,0.128
			c0.072,0.084,0.107,0.282,0.107,0.599c0,0.308-0.032,0.499-0.1,0.571c-0.065,0.073-0.216,0.11-0.447,0.11
			c-0.229,0-0.379-0.035-0.449-0.103C30.856,57.665,30.821,57.522,30.821,57.308z"/>
		<path fill="#545554" d="M35.918,63.062v-3.442h-0.104c-0.243,0-0.41-0.029-0.502-0.086c-0.091-0.058-0.137-0.158-0.137-0.302
			c0-0.133,0.037-0.229,0.113-0.287c0.073-0.061,0.195-0.09,0.364-0.09h0.252h0.517c0.097,0,0.172,0.021,0.226,0.061
			c0.055,0.04,0.081,0.093,0.081,0.161v0.364c0.261-0.243,0.521-0.424,0.775-0.539c0.256-0.116,0.521-0.176,0.798-0.176
			c0.541,0,0.966,0.17,1.275,0.506s0.465,0.803,0.465,1.396v2.434h0.253c0.179,0,0.308,0.029,0.387,0.088
			c0.078,0.06,0.117,0.152,0.117,0.281c0,0.142-0.042,0.24-0.126,0.299c-0.084,0.06-0.233,0.088-0.448,0.088h-1.188
			c-0.229,0-0.375-0.025-0.439-0.079c-0.063-0.054-0.098-0.156-0.098-0.308c0-0.139,0.038-0.236,0.112-0.289
			c0.075-0.055,0.218-0.08,0.425-0.08h0.188v-2.234c0-0.419-0.095-0.739-0.284-0.958c-0.189-0.222-0.466-0.331-0.828-0.331
			c-0.364,0-0.688,0.124-0.967,0.37c-0.278,0.248-0.418,0.554-0.418,0.919v2.234h0.188c0.215,0,0.358,0.025,0.436,0.08
			c0.074,0.053,0.112,0.15,0.112,0.289c0,0.15-0.032,0.254-0.097,0.308c-0.065,0.054-0.223,0.079-0.474,0.079h-0.978h-0.29
			c-0.146,0-0.257-0.03-0.33-0.094c-0.073-0.062-0.11-0.16-0.11-0.293c0-0.143,0.042-0.24,0.126-0.293
			c0.084-0.051,0.248-0.076,0.492-0.076H35.918z"/>
	</g>
	<g>
		<path fill="#545554" d="M12.761,76.604h0.944c0.203,0,0.346,0.037,0.432,0.11c0.084,0.073,0.127,0.195,0.127,0.364
			c0,0.174-0.043,0.298-0.13,0.374c-0.086,0.076-0.229,0.114-0.429,0.114h-2.971c-0.199,0-0.342-0.038-0.428-0.114
			c-0.087-0.076-0.13-0.2-0.13-0.374c0-0.169,0.042-0.291,0.125-0.364c0.084-0.073,0.228-0.11,0.433-0.11h0.945V74.47h-0.496
			c-0.197,0-0.338-0.038-0.422-0.112c-0.086-0.075-0.128-0.198-0.128-0.372c0-0.172,0.041-0.295,0.123-0.369
			c0.082-0.072,0.224-0.109,0.427-0.109h1.322c0.082,0,0.145,0.017,0.189,0.051c0.043,0.033,0.065,0.08,0.065,0.139V76.604z
			 M12.128,71.521c0.214,0,0.356,0.041,0.427,0.123s0.105,0.278,0.105,0.589c0,0.299-0.032,0.484-0.095,0.556
			c-0.063,0.072-0.212,0.107-0.446,0.107c-0.229,0-0.376-0.033-0.441-0.101c-0.066-0.067-0.1-0.202-0.1-0.404
			c0-0.375,0.034-0.613,0.102-0.716S11.897,71.521,12.128,71.521z"/>
		<path fill="#545554" d="M16.386,77.506c-0.076,0.059-0.154,0.104-0.235,0.134c-0.08,0.031-0.163,0.047-0.248,0.047
			c-0.126,0-0.215-0.034-0.266-0.102c-0.052-0.067-0.077-0.193-0.077-0.378v-0.585c0-0.193,0.032-0.33,0.097-0.41
			c0.064-0.081,0.176-0.121,0.334-0.121c0.173,0,0.313,0.084,0.422,0.25c0.064,0.092,0.119,0.158,0.162,0.203
			c0.144,0.129,0.311,0.226,0.502,0.289c0.189,0.065,0.406,0.098,0.65,0.098c0.211,0,0.379-0.041,0.505-0.123
			s0.188-0.189,0.188-0.321c0-0.237-0.338-0.401-1.015-0.492c-0.149-0.018-0.267-0.033-0.352-0.048
			c-0.51-0.07-0.89-0.209-1.138-0.416c-0.25-0.206-0.374-0.483-0.374-0.832c0-0.414,0.149-0.732,0.448-0.959
			c0.299-0.225,0.725-0.338,1.279-0.338c0.189,0,0.386,0.016,0.586,0.046c0.201,0.031,0.406,0.079,0.617,0.144
			c0.062-0.073,0.127-0.128,0.196-0.163c0.068-0.035,0.146-0.053,0.23-0.053c0.12,0,0.212,0.037,0.274,0.112
			c0.063,0.074,0.095,0.187,0.095,0.336v0.541c0,0.126-0.032,0.223-0.097,0.292c-0.064,0.068-0.155,0.103-0.272,0.103
			c-0.12,0-0.326-0.104-0.617-0.313c-0.292-0.21-0.584-0.314-0.877-0.314c-0.229,0-0.406,0.037-0.532,0.112
			c-0.126,0.074-0.188,0.178-0.188,0.31c0,0.205,0.264,0.343,0.791,0.413c0.152,0.018,0.272,0.032,0.36,0.044
			c0.662,0.097,1.117,0.241,1.364,0.433c0.248,0.192,0.372,0.477,0.372,0.855c0,0.442-0.164,0.784-0.49,1.025
			c-0.327,0.242-0.791,0.363-1.391,0.363c-0.235,0-0.461-0.016-0.678-0.047C16.797,77.609,16.588,77.564,16.386,77.506z"/>
		<path fill="#545554" d="M25.162,76.604h0.075c0.158,0,0.277,0.041,0.359,0.121c0.082,0.081,0.123,0.199,0.123,0.354
			c0,0.174-0.043,0.298-0.129,0.374c-0.087,0.076-0.229,0.114-0.429,0.114h-1.323c-0.201,0-0.346-0.037-0.43-0.112
			c-0.086-0.074-0.128-0.2-0.128-0.376c0-0.169,0.042-0.291,0.128-0.364c0.084-0.073,0.229-0.11,0.43-0.11h0.154l-0.18-0.514h-1.898
			l-0.189,0.514h0.154c0.198,0,0.342,0.038,0.428,0.112c0.087,0.075,0.13,0.196,0.13,0.362c0,0.174-0.043,0.298-0.13,0.374
			c-0.086,0.076-0.229,0.114-0.428,0.114h-1.135c-0.201,0-0.346-0.038-0.43-0.114c-0.085-0.076-0.128-0.2-0.128-0.374
			c0-0.154,0.041-0.272,0.123-0.354c0.082-0.08,0.202-0.121,0.36-0.121h0.074l1.178-3.277h-0.352c-0.199,0-0.342-0.038-0.428-0.115
			c-0.087-0.075-0.13-0.198-0.13-0.369c0-0.172,0.043-0.297,0.13-0.373c0.086-0.076,0.229-0.114,0.428-0.114h1.648
			c0.261,0,0.443,0.141,0.549,0.422v0.013L25.162,76.604z M22.86,73.327l-0.638,1.854h1.275L22.86,73.327z"/>
		<path fill="#545554" d="M30.195,76.597h0.058c0.163,0,0.286,0.04,0.369,0.12c0.081,0.081,0.123,0.202,0.123,0.362
			c0,0.174-0.042,0.298-0.126,0.374c-0.083,0.076-0.225,0.114-0.424,0.114h-1.081c-0.196,0-0.338-0.038-0.424-0.114
			c-0.087-0.076-0.13-0.2-0.13-0.374c0-0.16,0.042-0.281,0.125-0.362c0.084-0.08,0.209-0.12,0.376-0.12h0.053v-1.271
			c0-0.352-0.049-0.602-0.147-0.749c-0.098-0.148-0.261-0.223-0.489-0.223c-0.244,0-0.442,0.089-0.596,0.267
			c-0.154,0.177-0.23,0.412-0.23,0.705v1.271h0.053c0.166,0,0.291,0.04,0.373,0.12c0.082,0.081,0.123,0.202,0.123,0.362
			c0,0.174-0.043,0.298-0.127,0.374c-0.086,0.076-0.227,0.114-0.422,0.114h-1.09c-0.197,0-0.338-0.038-0.422-0.114
			c-0.086-0.076-0.128-0.2-0.128-0.374c0-0.16,0.041-0.281,0.123-0.362c0.082-0.08,0.206-0.12,0.374-0.12h0.053V74.47h-0.075
			c-0.158,0-0.278-0.041-0.36-0.121c-0.082-0.081-0.123-0.198-0.123-0.354c0-0.173,0.042-0.298,0.127-0.374s0.229-0.114,0.432-0.114
			h0.746c0.082,0,0.145,0.017,0.188,0.049c0.042,0.032,0.063,0.078,0.063,0.141v0.342c0.135-0.211,0.307-0.369,0.517-0.477
			c0.209-0.106,0.451-0.16,0.727-0.16c0.469,0,0.818,0.143,1.049,0.426c0.229,0.285,0.345,0.719,0.345,1.301V76.597z"/>
		<path fill="#545554" d="M33.749,73.41c0.712,0,1.289,0.199,1.731,0.598s0.664,0.909,0.664,1.534c0,0.627-0.222,1.14-0.664,1.537
			c-0.442,0.399-1.02,0.598-1.731,0.598c-0.709,0-1.285-0.198-1.728-0.598c-0.442-0.397-0.663-0.91-0.663-1.537
			c0-0.625,0.222-1.136,0.666-1.534C32.468,73.609,33.043,73.41,33.749,73.41z M33.749,74.337c-0.343,0-0.625,0.112-0.846,0.337
			c-0.222,0.224-0.332,0.511-0.332,0.858c0,0.352,0.11,0.643,0.332,0.873c0.221,0.229,0.503,0.345,0.846,0.345
			s0.625-0.115,0.849-0.345c0.222-0.23,0.334-0.521,0.334-0.873c0-0.348-0.111-0.635-0.332-0.858
			C34.378,74.449,34.095,74.337,33.749,74.337z"/>
		<path fill="#545554" d="M41.022,76.604h0.074c0.158,0,0.277,0.041,0.356,0.121c0.079,0.081,0.118,0.199,0.118,0.354
			c0,0.174-0.041,0.298-0.125,0.374c-0.083,0.076-0.225,0.114-0.424,0.114H40.35c-0.086,0-0.15-0.017-0.196-0.051
			c-0.045-0.033-0.067-0.079-0.067-0.139v-0.307c-0.145,0.196-0.329,0.346-0.555,0.45c-0.226,0.104-0.479,0.155-0.76,0.155
			c-0.574,0-1.055-0.195-1.441-0.586c-0.387-0.392-0.58-0.88-0.58-1.466c0-0.609,0.195-1.114,0.587-1.517
			c0.391-0.4,0.888-0.602,1.491-0.602c0.208,0,0.411,0.034,0.609,0.104c0.197,0.068,0.378,0.166,0.543,0.292V72.79h-0.585
			c-0.202,0-0.346-0.038-0.431-0.116c-0.085-0.077-0.127-0.201-0.127-0.371c0-0.173,0.042-0.297,0.127-0.374
			c0.085-0.075,0.229-0.113,0.431-0.113h1.366c0.1,0,0.168,0.021,0.205,0.061c0.036,0.042,0.055,0.118,0.055,0.229V76.604z
			 M38.961,74.442c-0.288,0-0.525,0.108-0.715,0.323c-0.188,0.216-0.283,0.489-0.283,0.819c0,0.341,0.094,0.618,0.281,0.833
			c0.188,0.216,0.426,0.323,0.717,0.323c0.289,0,0.529-0.108,0.718-0.325c0.189-0.217,0.284-0.493,0.284-0.831
			c0-0.327-0.096-0.6-0.286-0.816S39.247,74.442,38.961,74.442z"/>
		<path fill="#545554" d="M43.356,75.796c0.076,0.326,0.224,0.569,0.441,0.73c0.219,0.161,0.509,0.241,0.872,0.241
			s0.723-0.089,1.077-0.266c0.354-0.178,0.568-0.267,0.642-0.267c0.108,0,0.197,0.041,0.266,0.121
			c0.069,0.081,0.104,0.185,0.104,0.311c0,0.275-0.204,0.513-0.611,0.711c-0.407,0.199-0.911,0.299-1.512,0.299
			c-0.709,0-1.285-0.198-1.729-0.598c-0.444-0.397-0.666-0.91-0.666-1.537c0-0.625,0.222-1.136,0.666-1.534
			c0.443-0.398,1.02-0.598,1.729-0.598c0.633,0,1.157,0.187,1.574,0.561c0.415,0.373,0.623,0.831,0.623,1.373
			c0,0.173-0.041,0.292-0.125,0.356c-0.083,0.064-0.256,0.096-0.516,0.096H43.356z M45.724,75.11
			c-0.05-0.271-0.178-0.482-0.384-0.633c-0.207-0.148-0.476-0.224-0.807-0.224c-0.319,0-0.576,0.071-0.771,0.213
			c-0.194,0.143-0.33,0.357-0.406,0.644H45.724z"/>
	</g>
</g>
</svg>
