<?xml version="1.0" encoding="utf-8"?>
<!-- Generator: Adobe Illustrator 16.0.0, SVG Export Plug-In . SVG Version: 6.00 Build 0)  -->
<!DOCTYPE svg PUBLIC "-//W3C//DTD SVG 1.1//EN" "http://www.w3.org/Graphics/SVG/1.1/DTD/svg11.dtd">
<svg version="1.1" id="Layer_1" xmlns="http://www.w3.org/2000/svg" xmlns:xlink="http://www.w3.org/1999/xlink" x="0px" y="0px"
	 width="12.711px" height="12.614px" viewBox="0 0 12.711 12.614" enable-background="new 0 0 12.711 12.614" xml:space="preserve">
<g id="XMLID_13_">
	<g>
		<g id="XMLID_10_">
			<g>
				<path fill="#136B77" d="M11.042,12.551L8.057,9.564c-0.818,0.535-1.796,0.85-2.852,0.85C2.327,10.414,0,8.082,0,5.204
					C0,2.333,2.327,0,5.205,0c2.873,0,5.205,2.333,5.205,5.204c0,1.004-0.283,1.941-0.772,2.734l3.007,3.006
					c0.159,0.155,0.025,0.54-0.294,0.859l-0.447,0.448C11.583,12.571,11.196,12.705,11.042,12.551z M8.679,5.204
					c0-1.92-1.555-3.475-3.474-3.475c-1.92,0-3.48,1.555-3.48,3.475c0,1.92,1.56,3.48,3.48,3.48
					C7.124,8.685,8.679,7.125,8.679,5.204z"/>
			</g>
		</g>
	</g>
</g>
</svg>
