<?xml version="1.0" encoding="utf-8"?>
<!-- Generator: Adobe Illustrator 16.0.0, SVG Export Plug-In . SVG Version: 6.00 Build 0)  -->
<!DOCTYPE svg PUBLIC "-//W3C//DTD SVG 1.1//EN" "http://www.w3.org/Graphics/SVG/1.1/DTD/svg11.dtd">
<svg version="1.1" id="Layer_1" xmlns="http://www.w3.org/2000/svg" xmlns:xlink="http://www.w3.org/1999/xlink" x="0px" y="0px"
	 width="130.779px" height="153.86px" viewBox="0 0 130.779 153.86" enable-background="new 0 0 130.779 153.86"
	 xml:space="preserve">
<g>
	<g>
		<path fill="#F7C55A" d="M130.78,146.131c0,4.27-3.461,7.729-7.729,7.729H7.805c-4.268,0-7.729-3.461-7.729-7.729V7.732
			C0.077,3.46,3.54,0,7.805,0h115.241c4.271,0,7.729,3.46,7.729,7.732L130.78,146.131L130.78,146.131z"/>
		<path fill="#F8E5AE" d="M0.077,36.092v110.039c0,4.271,3.463,7.729,7.729,7.729h115.241c4.271,0,7.729-3.463,7.729-7.729V36.092
			H0.077z"/>
		<g>
			<path fill="#754E1F" d="M24.101,55.186h0.328c0.233,0,0.405,0.047,0.514,0.139c0.105,0.094,0.16,0.24,0.16,0.443
				c0,0.197-0.051,0.346-0.148,0.451c-0.104,0.104-0.247,0.154-0.438,0.154h-4.148c-0.188,0-0.339-0.051-0.438-0.154
				c-0.103-0.104-0.151-0.254-0.151-0.451c0-0.209,0.059-0.357,0.164-0.447c0.107-0.09,0.296-0.135,0.562-0.135h0.273h0.53V47.6
				h-0.53c-0.427,0-0.696-0.043-0.816-0.131c-0.121-0.086-0.186-0.244-0.186-0.477c0-0.195,0.055-0.347,0.151-0.449
				c0.102-0.104,0.245-0.156,0.438-0.156h7.451c0.188,0,0.335,0.06,0.438,0.172c0.1,0.115,0.146,0.283,0.146,0.502v2.172
				c0,0.195-0.05,0.344-0.146,0.441c-0.103,0.098-0.242,0.146-0.438,0.146c-0.232,0-0.396-0.062-0.479-0.187
				c-0.084-0.123-0.126-0.399-0.126-0.834v-1.203h-4.569v2.836h2.223v-0.22c0-0.409,0.039-0.688,0.117-0.823
				c0.079-0.144,0.222-0.211,0.421-0.211c0.184,0,0.312,0.054,0.396,0.159c0.082,0.105,0.122,0.277,0.122,0.515v2.14
				c0,0.281-0.038,0.475-0.111,0.58c-0.076,0.105-0.21,0.16-0.399,0.16c-0.199,0-0.343-0.07-0.422-0.209
				c-0.077-0.142-0.114-0.416-0.114-0.826v-0.244h-2.226v3.729L24.101,55.186L24.101,55.186z"/>
			<path fill="#754E1F" d="M32.672,55.186h0.244c0.276,0,0.499,0.053,0.652,0.156c0.157,0.104,0.235,0.252,0.235,0.441
				c0,0.203-0.068,0.352-0.206,0.446c-0.14,0.095-0.354,0.144-0.649,0.144h-2.323c-0.168,0-0.312-0.057-0.421-0.168
				c-0.11-0.111-0.168-0.252-0.168-0.422c0-0.207,0.072-0.357,0.229-0.455c0.15-0.096,0.396-0.144,0.724-0.144h0.173l2.729-2.795
				l-2.68-2.603h-0.116c-0.325,0-0.553-0.043-0.679-0.131c-0.127-0.086-0.188-0.24-0.188-0.459c0-0.229,0.069-0.389,0.214-0.476
				c0.146-0.088,0.417-0.131,0.821-0.131h1.728c0.306,0,0.521,0.049,0.659,0.146c0.142,0.098,0.207,0.25,0.207,0.459
				c0,0.19-0.078,0.336-0.229,0.438c-0.152,0.102-0.377,0.15-0.669,0.15h-0.065l1.812,1.776l1.727-1.776h-0.178
				c-0.312,0-0.547-0.045-0.698-0.139c-0.15-0.093-0.229-0.236-0.229-0.436c0-0.219,0.065-0.377,0.2-0.479
				c0.139-0.1,0.354-0.146,0.656-0.146h2.188c0.174,0,0.312,0.056,0.425,0.166c0.105,0.107,0.164,0.25,0.164,0.425
				c0,0.209-0.068,0.36-0.21,0.459c-0.145,0.099-0.364,0.146-0.674,0.146H37.84L35.423,52.3l2.947,2.879h0.084
				c0.213,0,0.379,0.052,0.497,0.155c0.113,0.105,0.177,0.25,0.177,0.441c0,0.225-0.065,0.379-0.201,0.463s-0.412,0.125-0.835,0.125
				h-1.718c-0.297,0-0.521-0.047-0.655-0.144c-0.142-0.094-0.212-0.244-0.212-0.445c0-0.186,0.063-0.332,0.202-0.438
				c0.136-0.107,0.316-0.16,0.558-0.16h0.472l-2.119-2.072L32.672,55.186z"/>
		</g>
		<g>
			<path fill="#754E1F" d="M23.049,75.87h0.328c0.232,0,0.404,0.047,0.514,0.139c0.105,0.094,0.16,0.24,0.16,0.443
				c0,0.197-0.051,0.346-0.149,0.451c-0.104,0.104-0.247,0.154-0.438,0.154h-4.149c-0.188,0-0.338-0.052-0.438-0.154
				c-0.104-0.105-0.151-0.254-0.151-0.451c0-0.209,0.059-0.357,0.164-0.447c0.107-0.09,0.296-0.135,0.562-0.135h0.273h0.53v-7.585
				h-0.53c-0.427,0-0.697-0.043-0.816-0.131c-0.121-0.086-0.186-0.244-0.186-0.478c0-0.195,0.054-0.347,0.151-0.449
				c0.102-0.104,0.245-0.156,0.438-0.156h7.451c0.188,0,0.335,0.059,0.438,0.172c0.1,0.115,0.146,0.283,0.146,0.502v2.172
				c0,0.195-0.05,0.344-0.146,0.441c-0.103,0.098-0.242,0.146-0.438,0.146c-0.233,0-0.396-0.062-0.479-0.187
				c-0.084-0.123-0.126-0.399-0.126-0.834v-1.203H21.59v2.836h2.223v-0.22c0-0.409,0.039-0.688,0.117-0.823
				c0.079-0.144,0.221-0.211,0.421-0.211c0.184,0,0.312,0.054,0.396,0.159c0.082,0.105,0.122,0.277,0.122,0.515v2.139
				c0,0.281-0.038,0.476-0.111,0.58c-0.076,0.107-0.21,0.16-0.4,0.16c-0.198,0-0.342-0.069-0.421-0.209
				c-0.078-0.142-0.115-0.416-0.115-0.826v-0.244h-2.225v3.73L23.049,75.87L23.049,75.87z"/>
			<path fill="#754E1F" d="M31.619,75.87h0.243c0.277,0,0.499,0.053,0.653,0.156c0.157,0.104,0.235,0.252,0.235,0.44
				c0,0.203-0.068,0.353-0.206,0.447c-0.141,0.094-0.354,0.144-0.649,0.144h-2.324c-0.168,0-0.312-0.058-0.421-0.168
				c-0.109-0.111-0.168-0.253-0.168-0.423c0-0.207,0.073-0.356,0.229-0.455c0.149-0.096,0.396-0.143,0.724-0.143h0.172l2.729-2.795
				l-2.681-2.604h-0.115c-0.325,0-0.554-0.043-0.68-0.131c-0.127-0.086-0.188-0.24-0.188-0.459c0-0.229,0.069-0.389,0.214-0.475
				c0.146-0.088,0.417-0.131,0.821-0.131h1.728c0.306,0,0.521,0.049,0.659,0.146c0.141,0.098,0.207,0.25,0.207,0.459
				c0,0.19-0.078,0.336-0.229,0.438s-0.377,0.15-0.669,0.15H31.84l1.812,1.776l1.728-1.776h-0.178c-0.312,0-0.548-0.045-0.698-0.139
				c-0.15-0.093-0.229-0.236-0.229-0.436c0-0.219,0.066-0.377,0.201-0.479c0.138-0.1,0.354-0.146,0.656-0.146h2.188
				c0.175,0,0.312,0.056,0.426,0.166c0.105,0.107,0.164,0.25,0.164,0.425c0,0.209-0.068,0.36-0.211,0.459
				c-0.144,0.099-0.363,0.146-0.674,0.146h-0.235l-2.417,2.521l2.946,2.879h0.084c0.213,0,0.379,0.051,0.497,0.154
				c0.114,0.104,0.178,0.25,0.178,0.44c0,0.226-0.065,0.379-0.201,0.463c-0.137,0.084-0.412,0.125-0.835,0.125h-1.719
				c-0.297,0-0.52-0.047-0.654-0.143c-0.143-0.095-0.212-0.244-0.212-0.445c0-0.187,0.063-0.332,0.201-0.438
				c0.137-0.106,0.317-0.159,0.559-0.159h0.472l-2.12-2.072L31.619,75.87z"/>
		</g>
		<g>
			<path fill="#754E1F" d="M23.633,96.917h0.328c0.232,0,0.405,0.047,0.514,0.139c0.105,0.094,0.16,0.24,0.16,0.443
				c0,0.197-0.051,0.346-0.149,0.451c-0.104,0.104-0.247,0.154-0.438,0.154h-4.149c-0.188,0-0.338-0.052-0.438-0.154
				c-0.104-0.105-0.151-0.254-0.151-0.451c0-0.209,0.059-0.357,0.164-0.447c0.107-0.09,0.296-0.135,0.562-0.135h0.273h0.53v-7.585
				h-0.53c-0.427,0-0.697-0.043-0.816-0.131c-0.121-0.086-0.186-0.244-0.186-0.478c0-0.194,0.054-0.348,0.151-0.449
				c0.102-0.104,0.245-0.155,0.438-0.155h7.451c0.188,0,0.335,0.059,0.438,0.172c0.1,0.115,0.146,0.283,0.146,0.502v2.172
				c0,0.195-0.05,0.345-0.146,0.441c-0.103,0.098-0.242,0.146-0.438,0.146c-0.233,0-0.396-0.062-0.479-0.188
				c-0.084-0.123-0.126-0.398-0.126-0.834v-1.203h-4.569v2.836h2.223v-0.219c0-0.41,0.039-0.688,0.117-0.824
				c0.079-0.143,0.221-0.211,0.421-0.211c0.184,0,0.312,0.055,0.396,0.16c0.082,0.104,0.122,0.276,0.122,0.514v2.141
				c0,0.28-0.038,0.475-0.111,0.579c-0.076,0.107-0.21,0.16-0.4,0.16c-0.198,0-0.342-0.069-0.421-0.209
				c-0.078-0.141-0.115-0.416-0.115-0.825v-0.244H22.18v3.729L23.633,96.917L23.633,96.917z"/>
			<path fill="#754E1F" d="M32.203,96.917h0.243c0.277,0,0.499,0.053,0.653,0.156c0.157,0.104,0.235,0.252,0.235,0.441
				c0,0.202-0.068,0.352-0.206,0.446c-0.141,0.095-0.354,0.144-0.649,0.144h-2.324c-0.168,0-0.312-0.058-0.421-0.168
				c-0.109-0.111-0.168-0.252-0.168-0.422c0-0.207,0.073-0.357,0.229-0.455c0.149-0.097,0.396-0.144,0.724-0.144h0.172l2.729-2.795
				l-2.68-2.603h-0.116c-0.325,0-0.554-0.043-0.68-0.132c-0.127-0.086-0.188-0.239-0.188-0.459c0-0.229,0.069-0.389,0.214-0.475
				c0.146-0.088,0.417-0.131,0.821-0.131h1.728c0.306,0,0.521,0.049,0.659,0.146c0.141,0.098,0.207,0.25,0.207,0.459
				c0,0.189-0.078,0.336-0.229,0.438c-0.152,0.102-0.378,0.149-0.67,0.149h-0.064l1.812,1.775l1.728-1.775h-0.178
				c-0.312,0-0.548-0.045-0.698-0.139s-0.229-0.236-0.229-0.436c0-0.219,0.066-0.377,0.201-0.479c0.138-0.1,0.354-0.146,0.656-0.146
				h2.188c0.175,0,0.312,0.055,0.426,0.166c0.105,0.106,0.164,0.25,0.164,0.424c0,0.209-0.068,0.361-0.211,0.459
				c-0.144,0.1-0.363,0.146-0.674,0.146h-0.235l-2.417,2.521l2.946,2.879h0.084c0.213,0,0.379,0.051,0.497,0.153
				c0.114,0.105,0.178,0.25,0.178,0.441c0,0.225-0.065,0.379-0.201,0.463c-0.137,0.084-0.412,0.125-0.835,0.125h-1.719
				c-0.297,0-0.52-0.047-0.654-0.143c-0.143-0.094-0.212-0.244-0.212-0.445c0-0.186,0.063-0.332,0.202-0.438
				c0.136-0.107,0.316-0.16,0.558-0.16h0.472l-2.12-2.072L32.203,96.917z"/>
		</g>
		<g>
			<path fill="#754E1F" d="M23.633,119.113h0.328c0.232,0,0.405,0.047,0.514,0.139c0.105,0.094,0.16,0.24,0.16,0.442
				c0,0.197-0.051,0.347-0.149,0.451c-0.104,0.104-0.247,0.154-0.438,0.154h-4.149c-0.188,0-0.338-0.051-0.438-0.154
				c-0.104-0.104-0.151-0.254-0.151-0.451c0-0.209,0.059-0.356,0.164-0.446c0.107-0.09,0.296-0.135,0.562-0.135h0.273h0.53v-7.585
				h-0.53c-0.427,0-0.697-0.043-0.816-0.131c-0.121-0.086-0.186-0.244-0.186-0.478c0-0.194,0.054-0.348,0.151-0.449
				c0.102-0.104,0.245-0.155,0.438-0.155h7.451c0.188,0,0.335,0.059,0.438,0.172c0.1,0.115,0.146,0.283,0.146,0.502v2.172
				c0,0.195-0.05,0.344-0.146,0.441c-0.103,0.098-0.242,0.146-0.438,0.146c-0.233,0-0.396-0.062-0.479-0.188
				c-0.084-0.123-0.126-0.397-0.126-0.834v-1.203h-4.569v2.836h2.223v-0.219c0-0.41,0.039-0.688,0.117-0.824
				c0.079-0.143,0.221-0.211,0.421-0.211c0.184,0,0.312,0.056,0.396,0.16c0.082,0.105,0.122,0.277,0.122,0.515v2.14
				c0,0.281-0.038,0.475-0.111,0.58c-0.076,0.107-0.21,0.16-0.4,0.16c-0.198,0-0.342-0.07-0.421-0.209
				c-0.078-0.141-0.115-0.416-0.115-0.825v-0.244H22.18v3.729L23.633,119.113L23.633,119.113z"/>
			<path fill="#754E1F" d="M32.203,119.113h0.243c0.277,0,0.499,0.053,0.653,0.155c0.157,0.104,0.235,0.252,0.235,0.441
				c0,0.203-0.068,0.352-0.206,0.447c-0.141,0.094-0.354,0.143-0.649,0.143h-2.324c-0.168,0-0.312-0.057-0.421-0.168
				s-0.168-0.252-0.168-0.422c0-0.207,0.073-0.357,0.229-0.455c0.149-0.096,0.396-0.143,0.724-0.143h0.172l2.729-2.795l-2.68-2.604
				h-0.116c-0.325,0-0.554-0.043-0.68-0.131c-0.127-0.086-0.188-0.24-0.188-0.459c0-0.229,0.069-0.389,0.214-0.475
				c0.146-0.088,0.417-0.131,0.821-0.131h1.728c0.306,0,0.521,0.049,0.659,0.146c0.141,0.098,0.207,0.25,0.207,0.459
				c0,0.188-0.078,0.336-0.229,0.438c-0.152,0.102-0.378,0.149-0.67,0.149h-0.064l1.812,1.775l1.728-1.775h-0.178
				c-0.312,0-0.548-0.045-0.698-0.139c-0.15-0.095-0.229-0.236-0.229-0.437c0-0.219,0.066-0.377,0.201-0.479
				c0.138-0.1,0.354-0.146,0.656-0.146h2.188c0.175,0,0.312,0.055,0.426,0.166c0.105,0.107,0.164,0.25,0.164,0.424
				c0,0.209-0.068,0.361-0.211,0.459c-0.144,0.101-0.363,0.146-0.674,0.146h-0.235l-2.417,2.521l2.946,2.879h0.084
				c0.213,0,0.379,0.051,0.497,0.153c0.114,0.105,0.178,0.25,0.178,0.441c0,0.225-0.065,0.379-0.201,0.463
				c-0.137,0.084-0.412,0.125-0.835,0.125h-1.719c-0.297,0-0.52-0.047-0.654-0.144c-0.143-0.094-0.212-0.244-0.212-0.444
				c0-0.187,0.063-0.332,0.202-0.438c0.136-0.106,0.316-0.16,0.558-0.16h0.472l-2.12-2.071L32.203,119.113z"/>
		</g>
		<g>
			<path fill="#754E1F" d="M23.633,140.081h0.328c0.232,0,0.405,0.047,0.514,0.139c0.105,0.094,0.16,0.24,0.16,0.443
				c0,0.197-0.051,0.346-0.149,0.451c-0.104,0.104-0.247,0.154-0.438,0.154h-4.149c-0.188,0-0.338-0.052-0.438-0.154
				c-0.104-0.105-0.151-0.254-0.151-0.451c0-0.209,0.059-0.357,0.164-0.447c0.107-0.09,0.296-0.135,0.562-0.135h0.273h0.53v-7.585
				h-0.53c-0.427,0-0.697-0.043-0.816-0.131c-0.121-0.086-0.186-0.244-0.186-0.478c0-0.195,0.054-0.348,0.151-0.449
				c0.102-0.104,0.245-0.155,0.438-0.155h7.451c0.188,0,0.335,0.059,0.438,0.172c0.1,0.114,0.146,0.283,0.146,0.502v2.172
				c0,0.195-0.05,0.345-0.146,0.44c-0.103,0.099-0.242,0.146-0.438,0.146c-0.233,0-0.396-0.062-0.479-0.188
				c-0.084-0.123-0.126-0.398-0.126-0.834v-1.203h-4.569v2.836h2.223v-0.219c0-0.41,0.039-0.688,0.117-0.824
				c0.079-0.143,0.221-0.211,0.421-0.211c0.184,0,0.312,0.055,0.396,0.16c0.082,0.104,0.122,0.276,0.122,0.514v2.14
				c0,0.281-0.038,0.476-0.111,0.58c-0.076,0.107-0.21,0.16-0.4,0.16c-0.198,0-0.342-0.069-0.421-0.209
				c-0.078-0.142-0.115-0.416-0.115-0.825v-0.244H22.18v3.729L23.633,140.081L23.633,140.081z"/>
			<path fill="#754E1F" d="M32.203,140.081h0.243c0.277,0,0.499,0.053,0.653,0.156c0.157,0.104,0.235,0.252,0.235,0.44
				c0,0.203-0.068,0.353-0.206,0.447c-0.141,0.094-0.354,0.144-0.649,0.144h-2.324c-0.168,0-0.312-0.058-0.421-0.168
				c-0.109-0.111-0.168-0.252-0.168-0.423c0-0.207,0.073-0.356,0.229-0.454c0.149-0.097,0.396-0.144,0.724-0.144h0.172l2.729-2.795
				l-2.68-2.603h-0.116c-0.325,0-0.554-0.043-0.68-0.132c-0.127-0.086-0.188-0.239-0.188-0.459c0-0.229,0.069-0.389,0.214-0.475
				c0.146-0.088,0.417-0.132,0.821-0.132h1.728c0.306,0,0.521,0.05,0.659,0.146c0.141,0.098,0.207,0.25,0.207,0.459
				c0,0.189-0.078,0.336-0.229,0.438c-0.152,0.102-0.378,0.149-0.67,0.149h-0.064l1.812,1.775l1.728-1.775h-0.178
				c-0.312,0-0.548-0.045-0.698-0.139s-0.229-0.236-0.229-0.436c0-0.22,0.066-0.377,0.201-0.479
				c0.138-0.101,0.354-0.146,0.656-0.146h2.188c0.175,0,0.312,0.055,0.426,0.166c0.105,0.106,0.164,0.25,0.164,0.424
				c0,0.209-0.068,0.361-0.211,0.459c-0.144,0.1-0.363,0.146-0.674,0.146h-0.235l-2.417,2.521l2.946,2.879h0.084
				c0.213,0,0.379,0.051,0.497,0.153c0.114,0.105,0.178,0.25,0.178,0.441c0,0.225-0.065,0.379-0.201,0.463
				c-0.137,0.084-0.412,0.125-0.835,0.125h-1.719c-0.297,0-0.52-0.047-0.654-0.143c-0.143-0.094-0.212-0.244-0.212-0.445
				c0-0.186,0.063-0.332,0.202-0.438c0.136-0.107,0.316-0.16,0.558-0.16h0.472l-2.12-2.072L32.203,140.081z"/>
		</g>
		<g>
			<path fill="#754E1F" d="M89.021,51.88c0,1.605-0.444,2.922-1.336,3.951c-0.892,1.027-2.03,1.542-3.419,1.542
				c-1.377,0-2.514-0.516-3.406-1.547c-0.894-1.031-1.34-2.347-1.34-3.946c0-1.617,0.441-2.938,1.327-3.959
				c0.885-1.023,2.023-1.534,3.419-1.534c1.389,0,2.527,0.516,3.419,1.547C88.576,48.965,89.021,50.28,89.021,51.88z M84.266,56.125
				c0.983,0,1.759-0.376,2.323-1.13c0.564-0.752,0.85-1.791,0.85-3.115c0-1.324-0.283-2.363-0.85-3.115
				c-0.564-0.754-1.34-1.13-2.323-1.13c-0.99,0-1.767,0.374-2.324,1.12c-0.562,0.748-0.84,1.789-0.84,3.125
				c0,1.324,0.282,2.363,0.849,3.115C82.515,55.749,83.287,56.125,84.266,56.125z"/>
			<path fill="#754E1F" d="M92.879,53.857c0,0.738,0.155,1.277,0.467,1.617c0.311,0.34,0.803,0.51,1.477,0.51
				c0.64,0,1.186-0.202,1.64-0.606c0.454-0.404,0.683-0.911,0.683-1.521v-3.63h-1.204c-0.229,0-0.396-0.049-0.497-0.145
				c-0.104-0.098-0.152-0.248-0.152-0.453c0-0.223,0.057-0.387,0.167-0.492c0.11-0.104,0.29-0.158,0.536-0.158h1.871
				c0.224,0,0.38,0.049,0.472,0.145c0.091,0.098,0.137,0.333,0.137,0.708v6.029h0.403c0.287,0,0.493,0.047,0.62,0.141
				c0.125,0.094,0.188,0.249,0.188,0.466c0,0.211-0.062,0.369-0.182,0.475s-0.294,0.158-0.521,0.158h-1.336
				c-0.158,0-0.281-0.032-0.369-0.097s-0.132-0.152-0.132-0.264v-0.598c-0.562,0.434-1.045,0.731-1.444,0.892
				c-0.402,0.162-0.825,0.242-1.271,0.242c-0.968,0-1.692-0.256-2.176-0.77c-0.483-0.512-0.727-1.287-0.727-2.324v-3.955h-0.186
				c-0.397,0-0.671-0.047-0.816-0.141s-0.22-0.258-0.22-0.492c0-0.205,0.057-0.359,0.172-0.461c0.112-0.104,0.291-0.154,0.53-0.154
				h1.327c0.205,0,0.348,0.041,0.428,0.123c0.077,0.082,0.117,0.264,0.117,0.545V53.857L92.879,53.857z"/>
			<path fill="#754E1F" d="M108.269,49.472c0.287,0,0.497,0.05,0.628,0.149c0.133,0.1,0.198,0.258,0.198,0.475
				c0,0.205-0.062,0.358-0.186,0.462c-0.123,0.102-0.309,0.153-0.555,0.153h-3.561v2.936c0,0.961,0.124,1.594,0.373,1.898
				c0.249,0.304,0.677,0.457,1.278,0.457c0.533,0,1.173-0.155,1.916-0.466c0.744-0.311,1.204-0.466,1.381-0.466
				c0.163,0,0.304,0.059,0.417,0.176c0.114,0.117,0.172,0.261,0.172,0.431c0,0.193-0.071,0.361-0.216,0.506
				c-0.145,0.143-0.389,0.282-0.732,0.417c-0.574,0.229-1.093,0.396-1.552,0.501c-0.461,0.105-0.894,0.158-1.297,0.158
				c-0.687,0-1.263-0.109-1.728-0.33c-0.467-0.219-0.812-0.546-1.042-0.979c-0.117-0.205-0.201-0.448-0.251-0.729
				c-0.051-0.281-0.074-0.715-0.074-1.301v-0.272v-2.936h-1.494c-0.245,0-0.425-0.048-0.535-0.146
				c-0.11-0.096-0.167-0.253-0.167-0.47c0-0.24,0.075-0.404,0.229-0.492c0.152-0.088,0.479-0.132,0.976-0.132h0.993V47.67v-0.466
				c0-0.252,0.055-0.438,0.162-0.559c0.107-0.119,0.276-0.18,0.506-0.18c0.259,0,0.438,0.073,0.536,0.22
				c0.1,0.147,0.148,0.48,0.148,1.002v1.784h3.474v0.001H108.269z"/>
		</g>
		<g>
			<path fill="#754E1F" d="M25.796,13.068c0.103-0.219,0.219-0.369,0.349-0.451s0.328-0.123,0.595-0.123
				c0.396,0,0.651,0.074,0.765,0.22c0.113,0.147,0.176,0.439,0.188,0.877l0.041,1.969v0.113c0,0.403-0.08,0.686-0.239,0.846
				c-0.161,0.161-0.434,0.241-0.815,0.241c-0.485,0-0.848-0.26-1.087-0.779c-0.034-0.075-0.062-0.137-0.082-0.185
				c-0.212-0.424-0.499-0.744-0.861-0.958c-0.361-0.216-0.789-0.323-1.28-0.323c-0.615,0-1.113,0.142-1.492,0.426
				c-0.38,0.284-0.569,0.647-0.569,1.092c0,0.629,0.868,1.125,2.604,1.487c0.294,0.062,0.525,0.109,0.696,0.144
				c1.312,0.287,2.264,0.725,2.852,1.312s0.882,1.391,0.882,2.41c0,1.258-0.428,2.228-1.281,2.906
				c-0.854,0.681-2.079,1.021-3.672,1.021c-0.622,0-1.177-0.041-1.666-0.123c-0.488-0.082-0.962-0.208-1.42-0.38
				c-0.109,0.178-0.236,0.307-0.379,0.385c-0.146,0.078-0.343,0.118-0.596,0.118c-0.431,0-0.731-0.082-0.902-0.246
				s-0.26-0.454-0.266-0.872l-0.041-2.409v-0.112c0-0.451,0.083-0.766,0.251-0.943c0.167-0.178,0.459-0.268,0.876-0.268
				c0.443,0,0.816,0.322,1.117,0.965c0.068,0.156,0.123,0.276,0.164,0.358c0.268,0.526,0.639,0.919,1.112,1.179
				c0.476,0.26,1.058,0.391,1.748,0.391c0.629,0,1.118-0.131,1.467-0.391c0.35-0.26,0.523-0.625,0.523-1.097
				c0-0.731-0.79-1.285-2.369-1.661c-0.472-0.109-0.845-0.201-1.117-0.277c-1.327-0.348-2.246-0.783-2.759-1.307
				s-0.77-1.239-0.77-2.148c0-1.169,0.438-2.124,1.317-2.866c0.878-0.742,2.015-1.113,3.409-1.113c0.465,0,0.921,0.048,1.369,0.144
				C24.905,12.733,25.351,12.877,25.796,13.068z"/>
			<path fill="#754E1F" d="M33.046,20.861c0.178,0.759,0.521,1.326,1.03,1.702s1.188,0.563,2.034,0.563
				c0.848,0,1.687-0.206,2.514-0.619c0.827-0.414,1.326-0.621,1.497-0.621c0.253,0,0.46,0.094,0.62,0.281
				c0.16,0.189,0.24,0.43,0.24,0.724c0,0.643-0.476,1.196-1.426,1.661c-0.95,0.465-2.126,0.697-3.527,0.697
				c-1.653,0-2.999-0.465-4.033-1.395c-1.036-0.93-1.555-2.126-1.555-3.589c0-1.456,0.519-2.649,1.555-3.579
				c1.034-0.93,2.38-1.395,4.033-1.395c1.478,0,2.7,0.436,3.673,1.308c0.97,0.871,1.454,1.94,1.454,3.204
				c0,0.404-0.097,0.681-0.292,0.831c-0.193,0.15-0.597,0.226-1.203,0.226L33.046,20.861L33.046,20.861z M38.572,19.262
				c-0.115-0.636-0.415-1.128-0.896-1.477c-0.482-0.349-1.109-0.523-1.882-0.523c-0.745,0-1.346,0.166-1.8,0.497
				c-0.454,0.333-0.771,0.833-0.948,1.502L38.572,19.262L38.572,19.262z"/>
			<path fill="#754E1F" d="M50.64,16.678V15.94c0-0.137,0.05-0.241,0.149-0.313c0.099-0.071,0.247-0.107,0.445-0.107h1.568
				c0.472,0,0.803,0.087,0.994,0.262c0.19,0.174,0.287,0.459,0.287,0.855c0,0.369-0.095,0.649-0.281,0.841
				c-0.188,0.191-0.464,0.287-0.826,0.287h-0.174v9.054h0.615c0.458,0,0.786,0.09,0.983,0.268c0.198,0.178,0.297,0.468,0.297,0.871
				c0,0.396-0.097,0.68-0.292,0.852c-0.193,0.17-0.523,0.256-0.988,0.256H49.07c-0.472,0-0.804-0.084-0.993-0.252
				c-0.192-0.167-0.287-0.452-0.287-0.855c0-0.41,0.097-0.703,0.292-0.877c0.193-0.174,0.523-0.262,0.988-0.262h1.304v-2.789
				c-0.356,0.295-0.774,0.518-1.257,0.672c-0.481,0.154-1.004,0.23-1.563,0.23c-1.354,0-2.475-0.467-3.363-1.398
				C43.302,22.6,42.858,21.422,42.858,20c0-1.36,0.456-2.488,1.369-3.384c0.912-0.896,2.072-1.343,3.481-1.343
				c0.614,0,1.172,0.118,1.671,0.354C49.879,15.863,50.299,16.213,50.64,16.678z M47.996,17.457c-0.679,0-1.234,0.25-1.673,0.748
				c-0.438,0.5-0.655,1.139-0.655,1.918c0,0.779,0.219,1.418,0.655,1.918c0.438,0.498,0.994,0.748,1.673,0.748
				c0.676,0,1.234-0.252,1.676-0.754c0.44-0.502,0.662-1.14,0.662-1.912c0-0.779-0.221-1.418-0.656-1.918
				C49.239,17.707,48.678,17.457,47.996,17.457z"/>
			<path fill="#754E1F" d="M62.658,17.765h-0.164c-0.369,0-0.647-0.096-0.836-0.287s-0.281-0.472-0.281-0.841
				c0-0.403,0.095-0.689,0.287-0.861c0.189-0.171,0.521-0.256,0.994-0.256h1.938c0.186,0,0.328,0.04,0.432,0.118
				c0.103,0.079,0.153,0.187,0.153,0.323v6.788h0.164c0.369,0,0.651,0.096,0.846,0.287c0.195,0.191,0.292,0.465,0.292,0.82
				c0,0.41-0.099,0.703-0.297,0.877c-0.198,0.174-0.533,0.262-1.005,0.262h-1.723c-0.191,0-0.34-0.041-0.446-0.123
				c-0.105-0.082-0.158-0.195-0.158-0.339v-0.779c-0.328,0.492-0.729,0.861-1.205,1.107c-0.476,0.246-1.034,0.369-1.677,0.369
				c-1.101,0-1.917-0.331-2.45-0.995c-0.533-0.662-0.801-1.678-0.801-3.045v-3.425h-0.174c-0.369,0-0.649-0.096-0.841-0.287
				c-0.192-0.191-0.287-0.472-0.287-0.841c0-0.403,0.098-0.689,0.292-0.861c0.194-0.171,0.531-0.256,1.01-0.256h1.928
				c0.187,0,0.325,0.04,0.421,0.118c0.097,0.078,0.145,0.186,0.145,0.323v4.769c0,0.84,0.116,1.432,0.349,1.773
				c0.233,0.341,0.615,0.513,1.148,0.513c0.566,0,1.034-0.21,1.398-0.63c0.366-0.422,0.55-0.973,0.55-1.656L62.658,17.765
				L62.658,17.765z"/>
			<path fill="#754E1F" d="M70.851,20.861c0.178,0.759,0.521,1.326,1.03,1.702c0.51,0.376,1.188,0.563,2.035,0.563
				c0.847,0,1.686-0.206,2.513-0.619c0.827-0.414,1.326-0.621,1.497-0.621c0.253,0,0.46,0.094,0.62,0.281
				c0.161,0.189,0.241,0.43,0.241,0.724c0,0.643-0.477,1.196-1.427,1.661c-0.949,0.465-2.126,0.697-3.526,0.697
				c-1.654,0-2.999-0.465-4.034-1.395c-1.036-0.93-1.554-2.126-1.554-3.589c0-1.456,0.518-2.649,1.554-3.579
				c1.035-0.93,2.38-1.395,4.034-1.395c1.477,0,2.7,0.436,3.672,1.308c0.97,0.871,1.455,1.94,1.455,3.204
				c0,0.404-0.098,0.681-0.292,0.831c-0.194,0.15-0.598,0.226-1.204,0.226L70.851,20.861L70.851,20.861z M76.378,19.262
				c-0.116-0.636-0.415-1.128-0.896-1.477C75,17.436,74.373,17.262,73.6,17.262c-0.745,0-1.345,0.166-1.8,0.497
				c-0.454,0.333-0.771,0.833-0.948,1.502L76.378,19.262L76.378,19.262z"/>
			<path fill="#754E1F" d="M90.55,22.728h0.134c0.382,0,0.669,0.095,0.861,0.282c0.189,0.188,0.287,0.47,0.287,0.846
				c0,0.403-0.099,0.693-0.293,0.871s-0.524,0.268-0.989,0.268h-2.522c-0.458,0-0.788-0.09-0.988-0.268
				c-0.202-0.178-0.304-0.468-0.304-0.871c0-0.376,0.099-0.658,0.292-0.846c0.195-0.188,0.487-0.282,0.877-0.282h0.123v-2.964
				c0-0.82-0.113-1.402-0.344-1.748c-0.229-0.345-0.608-0.518-1.143-0.518c-0.568,0-1.031,0.207-1.391,0.621
				c-0.358,0.413-0.538,0.961-0.538,1.645v2.964h0.123c0.39,0,0.681,0.095,0.871,0.282c0.191,0.188,0.287,0.47,0.287,0.846
				c0,0.403-0.1,0.693-0.297,0.871c-0.199,0.178-0.527,0.268-0.984,0.268H82.07c-0.459,0-0.786-0.09-0.983-0.268
				c-0.199-0.178-0.298-0.468-0.298-0.871c0-0.376,0.096-0.658,0.287-0.846c0.19-0.188,0.48-0.282,0.871-0.282h0.123v-4.963h-0.175
				c-0.369,0-0.648-0.094-0.841-0.282s-0.287-0.463-0.287-0.826c0-0.403,0.099-0.694,0.297-0.872
				c0.198-0.178,0.533-0.267,1.006-0.267h1.742c0.191,0,0.337,0.038,0.438,0.113c0.099,0.075,0.147,0.185,0.147,0.328v0.8
				c0.314-0.492,0.716-0.863,1.205-1.113c0.488-0.249,1.054-0.374,1.696-0.374c1.094,0,1.909,0.332,2.446,0.995
				c0.535,0.663,0.805,1.675,0.805,3.035L90.55,22.728L90.55,22.728z"/>
			<path fill="#754E1F" d="M101.89,16.073c0.082-0.267,0.21-0.467,0.384-0.6c0.175-0.134,0.398-0.2,0.672-0.2
				c0.369,0,0.633,0.111,0.79,0.333c0.156,0.223,0.235,0.607,0.235,1.154v1.682c0,0.417-0.086,0.725-0.257,0.923
				c-0.171,0.198-0.435,0.298-0.789,0.298c-0.253,0-0.465-0.059-0.636-0.175c-0.171-0.116-0.354-0.339-0.544-0.667
				c-0.273-0.465-0.633-0.809-1.076-1.03c-0.444-0.222-0.988-0.333-1.631-0.333c-0.8,0-1.454,0.261-1.963,0.785
				c-0.511,0.521-0.765,1.19-0.765,2.004c0,0.854,0.263,1.541,0.789,2.061s1.233,0.779,2.123,0.779c0.806,0,1.607-0.223,2.404-0.672
				c0.796-0.447,1.283-0.671,1.461-0.671c0.253,0,0.463,0.097,0.631,0.292c0.167,0.195,0.251,0.439,0.251,0.733
				c0,0.643-0.487,1.217-1.461,1.723c-0.975,0.506-2.132,0.759-3.472,0.759c-1.654,0-2.999-0.465-4.034-1.395
				c-1.036-0.93-1.555-2.126-1.555-3.589c0-1.429,0.514-2.618,1.538-3.568c1.025-0.95,2.317-1.425,3.876-1.425
				c0.526,0,1.039,0.065,1.538,0.195C100.9,15.599,101.398,15.799,101.89,16.073z"/>
			<path fill="#754E1F" d="M108.656,20.861c0.179,0.759,0.521,1.326,1.03,1.702c0.51,0.376,1.188,0.563,2.035,0.563
				s1.687-0.206,2.513-0.619c0.827-0.414,1.326-0.621,1.497-0.621c0.253,0,0.46,0.094,0.62,0.281
				c0.161,0.189,0.241,0.43,0.241,0.724c0,0.643-0.476,1.196-1.426,1.661c-0.95,0.465-2.126,0.697-3.527,0.697
				c-1.654,0-2.999-0.465-4.034-1.395c-1.036-0.93-1.554-2.126-1.554-3.589c0-1.456,0.518-2.649,1.554-3.579
				c1.035-0.93,2.38-1.395,4.034-1.395c1.478,0,2.7,0.436,3.672,1.308c0.97,0.871,1.455,1.94,1.455,3.204
				c0,0.404-0.097,0.681-0.292,0.831c-0.194,0.15-0.597,0.226-1.204,0.226L108.656,20.861L108.656,20.861z M114.183,19.262
				c-0.116-0.636-0.415-1.128-0.896-1.477c-0.482-0.349-1.109-0.523-1.883-0.523c-0.744,0-1.345,0.166-1.8,0.497
				c-0.454,0.333-0.771,0.833-0.948,1.502L114.183,19.262L114.183,19.262z"/>
		</g>
		<g>
			<path fill="#754E1F" d="M45.422,49.038c-0.061,0.009-0.104,0.016-0.134,0.021c-0.029,0.004-0.057,0.007-0.078,0.007
				c-0.143,0-0.256-0.04-0.347-0.12c-0.088-0.08-0.133-0.187-0.133-0.318c0-0.109,0.039-0.205,0.116-0.287s0.189-0.144,0.335-0.185
				l2.03-0.547c0.05-0.014,0.099-0.024,0.146-0.031c0.047-0.007,0.098-0.01,0.146-0.01c0.087,0,0.155,0.04,0.205,0.12
				s0.075,0.188,0.075,0.325v7.396h1.094c0.405,0,0.663,0.033,0.771,0.099c0.109,0.066,0.164,0.19,0.164,0.373
				c0,0.164-0.046,0.287-0.137,0.369s-0.228,0.123-0.41,0.123H45.18c-0.183,0-0.319-0.041-0.41-0.123s-0.137-0.205-0.137-0.369
				c0-0.182,0.055-0.307,0.164-0.373c0.108-0.066,0.367-0.099,0.771-0.099h1.136V48.73L45.422,49.038z"/>
		</g>
		<g>
			<path fill="#754E1F" d="M44.677,77.058c-0.241,0-0.42-0.05-0.537-0.146c-0.115-0.1-0.174-0.25-0.174-0.455
				c0-0.297,0.438-0.852,1.312-1.668l0.198-0.191c0.132-0.127,0.323-0.311,0.574-0.547c1.577-1.486,2.365-2.568,2.365-3.247
				c0-0.488-0.14-0.883-0.417-1.186c-0.278-0.303-0.639-0.455-1.08-0.455c-0.287,0-0.562,0.059-0.824,0.178
				s-0.473,0.278-0.632,0.479c-0.027,0.037-0.07,0.098-0.13,0.185c-0.169,0.305-0.357,0.458-0.567,0.458
				c-0.164,0-0.28-0.05-0.349-0.15c-0.069-0.1-0.104-0.292-0.104-0.574c0-0.164,0.017-0.284,0.048-0.359
				c0.032-0.075,0.092-0.156,0.179-0.243c0.292-0.283,0.651-0.507,1.084-0.673c0.43-0.167,0.871-0.25,1.321-0.25
				c0.758,0,1.39,0.244,1.896,0.731c0.509,0.488,0.763,1.087,0.763,1.798c0,0.893-0.773,2.08-2.324,3.562
				c-0.396,0.369-0.698,0.659-0.908,0.868l-0.842,0.808h3.124c0.02-0.195,0.072-0.347,0.16-0.447
				c0.09-0.104,0.209-0.154,0.359-0.154c0.149,0,0.269,0.051,0.354,0.15c0.086,0.099,0.131,0.236,0.131,0.41
				c0,0.014-0.003,0.037-0.008,0.071c-0.005,0.033-0.007,0.058-0.007,0.071l-0.055,0.525c-0.014,0.142-0.055,0.252-0.123,0.332
				s-0.157,0.119-0.268,0.119H44.677L44.677,77.058z"/>
		</g>
		<g>
			<path fill="#754E1F" d="M48.122,93.401c0.532,0.146,0.946,0.412,1.239,0.797c0.295,0.386,0.441,0.854,0.441,1.412
				c0,0.797-0.282,1.449-0.848,1.959c-0.565,0.508-1.297,0.762-2.194,0.762c-0.692,0-1.31-0.133-1.849-0.4
				c-0.541-0.266-0.812-0.559-0.812-0.878c0-0.137,0.049-0.249,0.146-0.339c0.099-0.088,0.218-0.133,0.358-0.133
				c0.077,0,0.359,0.116,0.845,0.35c0.485,0.231,0.938,0.349,1.356,0.349c0.542,0,0.983-0.154,1.322-0.466
				c0.34-0.311,0.51-0.711,0.51-1.203c0-0.405-0.117-0.747-0.352-1.028c-0.235-0.279-0.559-0.459-0.969-0.536
				c-0.123-0.021-0.284-0.041-0.484-0.055c-0.383-0.022-0.574-0.184-0.574-0.479c0-0.269,0.187-0.427,0.561-0.472
				c0.146-0.014,0.268-0.029,0.362-0.048c0.355-0.056,0.644-0.2,0.861-0.438s0.328-0.523,0.328-0.861
				c0-0.433-0.136-0.785-0.403-1.06s-0.61-0.409-1.025-0.409c-0.383,0-0.774,0.118-1.18,0.354c-0.402,0.235-0.654,0.354-0.755,0.354
				c-0.128,0-0.233-0.041-0.317-0.123c-0.085-0.082-0.127-0.185-0.127-0.308c0-0.278,0.255-0.555,0.767-0.831
				c0.511-0.275,1.074-0.413,1.694-0.413c0.711,0,1.304,0.216,1.773,0.646c0.473,0.432,0.708,0.961,0.708,1.59
				c0,0.479-0.112,0.873-0.339,1.183C48.946,92.987,48.595,93.229,48.122,93.401z"/>
		</g>
		<g>
			<path fill="#754E1F" d="M46.891,120.301c-0.219,0-0.367-0.034-0.444-0.104c-0.076-0.071-0.115-0.199-0.115-0.387
				c0-0.164,0.04-0.283,0.119-0.359c0.079-0.074,0.209-0.112,0.387-0.112h0.793v-1.147h-3.192c-0.114,0-0.203-0.036-0.267-0.109
				c-0.064-0.073-0.096-0.178-0.096-0.314v-0.472c0-0.182,0.065-0.373,0.197-0.574c0.022-0.036,0.041-0.065,0.056-0.089l2.885-4.895
				c0.062-0.114,0.116-0.188,0.157-0.219c0.041-0.033,0.096-0.049,0.164-0.049c0.026,0,0.074,0.004,0.144,0.014
				c0.019,0.005,0.036,0.011,0.055,0.015l0.697,0.108c0.063,0.011,0.115,0.045,0.153,0.105c0.039,0.062,0.059,0.143,0.059,0.243
				v5.194h0.349c0.102,0,0.179-0.039,0.232-0.119c0.055-0.079,0.116-0.119,0.186-0.119c0.091,0,0.169,0.033,0.231,0.104
				c0.063,0.068,0.096,0.152,0.096,0.252c0,0.041-0.002,0.078-0.007,0.113c-0.005,0.033-0.014,0.068-0.026,0.105l-0.056,0.279
				c-0.032,0.164-0.079,0.276-0.14,0.336c-0.062,0.059-0.159,0.088-0.291,0.088h-0.574v1.148h0.239c0.292,0,0.492,0.035,0.602,0.105
				s0.164,0.191,0.164,0.365c0,0.164-0.046,0.287-0.137,0.369s-0.229,0.123-0.41,0.123L46.891,120.301L46.891,120.301z
				 M47.63,117.149v-4.635l-2.591,4.635H47.63z"/>
		</g>
		<g>
			<path fill="#754E1F" d="M45.517,135.923c0.301-0.109,0.579-0.189,0.834-0.242s0.499-0.078,0.731-0.078
				c0.798,0,1.462,0.276,1.991,0.83c0.531,0.555,0.798,1.24,0.798,2.062c0,0.87-0.294,1.589-0.883,2.153
				c-0.588,0.563-1.34,0.848-2.256,0.848c-0.766,0-1.406-0.104-1.925-0.311c-0.517-0.209-0.774-0.459-0.774-0.757
				c0-0.118,0.048-0.225,0.144-0.317c0.096-0.094,0.207-0.141,0.335-0.141c0.05,0,0.318,0.088,0.803,0.264
				c0.486,0.176,0.937,0.264,1.352,0.264c0.609,0,1.105-0.184,1.486-0.551c0.381-0.366,0.57-0.84,0.57-1.418
				c0-0.564-0.18-1.035-0.54-1.412c-0.36-0.375-0.812-0.563-1.36-0.563c-0.409,0-0.812,0.104-1.207,0.308
				c-0.394,0.205-0.632,0.309-0.714,0.309c-0.137,0-0.232-0.05-0.29-0.15s-0.086-0.281-0.086-0.547v-3.404
				c0-0.149,0.047-0.258,0.142-0.324c0.093-0.065,0.256-0.1,0.487-0.1h3.459c0.22,0,0.384,0.045,0.492,0.135
				c0.109,0.088,0.164,0.222,0.164,0.398c0,0.17-0.057,0.301-0.171,0.395c-0.114,0.093-0.275,0.14-0.485,0.14h-3.097V135.923z"/>
		</g>
	</g>
</g>
</svg>
