<?xml version="1.0" encoding="utf-8"?>
<!-- Generator: Adobe Illustrator 16.0.0, SVG Export Plug-In . SVG Version: 6.00 Build 0)  -->
<!DOCTYPE svg PUBLIC "-//W3C//DTD SVG 1.1//EN" "http://www.w3.org/Graphics/SVG/1.1/DTD/svg11.dtd">
<svg version="1.1" id="Layer_1" xmlns="http://www.w3.org/2000/svg" xmlns:xlink="http://www.w3.org/1999/xlink" x="0px" y="0px"
	 width="65.818px" height="86.836px" viewBox="0 0 65.818 86.836" enable-background="new 0 0 65.818 86.836" xml:space="preserve">
<g>
	<path d="M0,83.354c0,1.924,1.562,3.482,3.481,3.482h41.562c1.923,0,3.481-1.561,3.481-3.482V3.482C48.524,1.558,46.964,0,45.043,0
		H3.482C1.559,0,0,1.559,0,3.482V83.354z"/>
	<path fill="#A7A9AC" d="M17.499,33.715c1.396,0.897,2.898,1.491,4.433,1.831l34.464,14.246c2.88,1.849,6.712,1.013,8.562-1.864
		c1.851-2.882,1.015-6.713-1.866-8.563l-27.3-25.407c-0.942-1.253-2.108-2.37-3.51-3.266c-6.357-4.082-14.82-2.236-18.901,4.12
		C9.296,21.17,11.141,29.633,17.499,33.715z M18.869,23.846c-1.104-3.124,0.529-6.553,3.652-7.659
		c3.125-1.106,6.554,0.529,7.659,3.653c1.104,3.124-0.528,6.552-3.653,7.659C23.404,28.604,19.975,26.969,18.869,23.846z"/>
</g>
<g>
	<path fill="#FFFFFF" d="M11.447,53.292c0.112,0,0.192,0.021,0.243,0.058c0.05,0.037,0.075,0.098,0.075,0.18
		c0,0.094-0.024,0.154-0.072,0.191c-0.048,0.036-0.139,0.055-0.273,0.055H9.748c-0.078,0-0.137-0.021-0.178-0.062
		s-0.062-0.104-0.062-0.185c0-0.078,0.021-0.139,0.062-0.178s0.102-0.06,0.187-0.06h0.441v-3.079h-0.24
		c-0.201,0-0.325-0.018-0.375-0.053c-0.049-0.036-0.073-0.102-0.073-0.193c0-0.078,0.021-0.141,0.062-0.183
		c0.041-0.043,0.1-0.063,0.178-0.063h1.583c0.557,0,0.977,0.106,1.262,0.321c0.286,0.215,0.433,0.528,0.433,0.946
		c0,0.416-0.146,0.73-0.427,0.943c-0.285,0.211-0.707,0.315-1.268,0.315h-0.599v1.042L11.447,53.292L11.447,53.292z M10.733,50.212
		v1.586h0.639c0.358,0,0.625-0.065,0.803-0.198c0.181-0.133,0.27-0.332,0.27-0.598c0-0.264-0.089-0.459-0.271-0.592
		c-0.179-0.133-0.443-0.198-0.801-0.198H10.733z"/>
	<path fill="#FFFFFF" d="M16.547,53.292c0.178,0,0.288,0.019,0.337,0.05c0.052,0.033,0.073,0.096,0.073,0.188
		c0,0.096-0.021,0.158-0.073,0.193c-0.049,0.034-0.159,0.053-0.337,0.053h-2.072h-0.161c-0.082,0-0.146-0.021-0.188-0.062
		s-0.062-0.104-0.062-0.187c0-0.092,0.022-0.151,0.072-0.188c0.053-0.031,0.163-0.05,0.341-0.05h0.771v-3.079h-0.771
		c-0.173,0-0.283-0.02-0.335-0.053c-0.055-0.036-0.079-0.102-0.079-0.193c0-0.085,0.021-0.146,0.062-0.188
		c0.043-0.039,0.108-0.061,0.195-0.061h0.154h2.072h0.161c0.082,0,0.146,0.02,0.188,0.061s0.062,0.104,0.062,0.187
		c0,0.095-0.022,0.157-0.077,0.192c-0.051,0.033-0.162,0.054-0.333,0.054h-0.771v3.079L16.547,53.292L16.547,53.292z"/>
	<path fill="#FFFFFF" d="M18.779,53.292h0.174h0.253c0.123,0,0.211,0.019,0.266,0.056c0.052,0.036,0.076,0.098,0.076,0.182
		c0,0.096-0.021,0.158-0.071,0.193c-0.052,0.034-0.156,0.053-0.323,0.053h-0.854H18.14c-0.082,0-0.146-0.021-0.188-0.062
		s-0.062-0.104-0.062-0.187c0-0.092,0.021-0.151,0.067-0.188c0.046-0.031,0.14-0.05,0.271-0.05h0.062v-3.079H18.21
		c-0.188,0-0.318-0.02-0.388-0.057c-0.067-0.034-0.101-0.1-0.101-0.189c0-0.085,0.026-0.146,0.087-0.184
		c0.058-0.037,0.149-0.057,0.279-0.057c0.094-0.004,0.16-0.008,0.205-0.008h0.321c0.105,0,0.178,0.012,0.22,0.035
		c0.042,0.021,0.095,0.084,0.149,0.184l1.723,2.976v-2.7h-0.133H20.33c-0.123,0-0.212-0.021-0.268-0.061
		c-0.059-0.041-0.084-0.104-0.084-0.188c0-0.093,0.021-0.154,0.07-0.191c0.05-0.035,0.147-0.053,0.303-0.053h0.814h0.164
		c0.082,0,0.146,0.02,0.186,0.061s0.06,0.104,0.06,0.186c0,0.092-0.021,0.155-0.074,0.189c-0.049,0.037-0.138,0.057-0.268,0.057
		h-0.041v3.441c0,0.063-0.016,0.111-0.046,0.138c-0.03,0.022-0.104,0.037-0.213,0.037c-0.111,0-0.184-0.007-0.207-0.021
		c-0.026-0.014-0.07-0.07-0.132-0.178l-1.816-3.13L18.779,53.292L18.779,53.292z"/>
</g>
<g>
	<path fill="#FFFFFF" d="M10.545,61.958h0.232c0.132,0,0.226,0.019,0.28,0.056c0.055,0.036,0.082,0.098,0.082,0.182
		c0,0.094-0.024,0.154-0.072,0.191c-0.048,0.036-0.137,0.053-0.271,0.053H9.649c-0.078,0-0.137-0.021-0.178-0.062
		S9.41,62.273,9.41,62.193c0-0.084,0.023-0.146,0.068-0.182s0.121-0.057,0.226-0.057h0.113h0.198v-3.107H9.817
		c-0.171,0-0.281-0.019-0.332-0.051c-0.05-0.029-0.075-0.092-0.075-0.181c0-0.077,0.021-0.138,0.062-0.177
		c0.037-0.039,0.1-0.059,0.179-0.059h1.439c0.352,0,0.609,0.018,0.781,0.051s0.317,0.09,0.438,0.168
		c0.15,0.104,0.271,0.238,0.358,0.408c0.087,0.168,0.131,0.35,0.131,0.543c0,0.262-0.078,0.486-0.238,0.674
		c-0.161,0.188-0.388,0.319-0.672,0.395c0.059,0.031,0.109,0.072,0.156,0.117c0.046,0.048,0.094,0.103,0.138,0.164l0.687,1.055
		h0.113c0.127,0,0.215,0.02,0.263,0.057c0.048,0.032,0.072,0.096,0.072,0.182c0,0.08-0.021,0.142-0.062,0.184
		s-0.099,0.062-0.176,0.062h-0.386c-0.112,0-0.221-0.082-0.328-0.246c-0.014-0.014-0.024-0.024-0.031-0.033l-0.653-0.995
		c-0.137-0.202-0.246-0.334-0.333-0.394c-0.09-0.061-0.203-0.088-0.35-0.088h-0.454V61.958z M10.545,58.848v1.381h0.708
		c0.319,0,0.562-0.059,0.723-0.172c0.157-0.115,0.238-0.287,0.238-0.516c0-0.23-0.079-0.402-0.233-0.52
		c-0.157-0.117-0.395-0.174-0.704-0.174H10.545L10.545,58.848z"/>
	<path fill="#FFFFFF" d="M16.294,62.006c-0.187,0.168-0.39,0.297-0.607,0.387c-0.223,0.088-0.446,0.133-0.681,0.133
		c-0.339,0-0.611-0.096-0.819-0.281c-0.209-0.188-0.313-0.438-0.313-0.738c0-0.357,0.139-0.643,0.416-0.837
		c0.276-0.196,0.666-0.298,1.167-0.298c0.132,0,0.269,0.009,0.4,0.023c0.134,0.02,0.271,0.043,0.414,0.08v-0.021
		c0-0.266-0.062-0.456-0.188-0.581s-0.318-0.188-0.584-0.188c-0.178,0-0.376,0.047-0.595,0.145
		c-0.219,0.096-0.363,0.146-0.437,0.146c-0.063,0-0.118-0.027-0.161-0.082c-0.046-0.055-0.065-0.121-0.065-0.205
		c0-0.137,0.126-0.25,0.378-0.342c0.251-0.096,0.573-0.143,0.965-0.143c0.401,0,0.704,0.104,0.909,0.306
		c0.205,0.204,0.308,0.507,0.308,0.904v1.548h0.167c0.162,0,0.271,0.02,0.325,0.053c0.058,0.033,0.082,0.096,0.082,0.186
		c0,0.082-0.021,0.145-0.065,0.186c-0.047,0.041-0.114,0.062-0.205,0.062H16.56c-0.064,0-0.116-0.021-0.157-0.059
		s-0.068-0.096-0.082-0.168L16.294,62.006z M16.266,60.93c-0.125-0.041-0.247-0.072-0.364-0.092s-0.234-0.029-0.353-0.029
		c-0.351,0-0.628,0.062-0.828,0.178c-0.203,0.119-0.307,0.279-0.307,0.479c0,0.155,0.063,0.283,0.19,0.384
		c0.126,0.103,0.288,0.149,0.48,0.149c0.29,0,0.561-0.075,0.808-0.228c0.248-0.151,0.371-0.312,0.371-0.476L16.266,60.93
		L16.266,60.93z"/>
	<path fill="#FFFFFF" d="M18.437,61.958v-2.19h-0.065c-0.155,0-0.261-0.019-0.317-0.055c-0.061-0.035-0.09-0.102-0.09-0.191
		c0-0.084,0.024-0.146,0.072-0.183c0.048-0.038,0.125-0.058,0.232-0.058h0.161h0.325c0.062,0,0.109,0.014,0.146,0.037
		c0.034,0.025,0.051,0.061,0.051,0.104v0.23c0.167-0.153,0.331-0.271,0.494-0.344c0.163-0.074,0.333-0.109,0.508-0.109
		c0.344,0,0.615,0.105,0.812,0.32c0.194,0.213,0.296,0.51,0.296,0.89v1.548h0.161c0.111,0,0.193,0.021,0.246,0.059
		c0.05,0.037,0.072,0.098,0.072,0.18c0,0.09-0.024,0.152-0.081,0.188c-0.053,0.038-0.146,0.06-0.282,0.06h-0.758
		c-0.146,0-0.236-0.021-0.277-0.051c-0.041-0.035-0.062-0.103-0.062-0.195c0-0.09,0.024-0.15,0.072-0.188s0.138-0.052,0.27-0.052
		h0.12v-1.422c0-0.269-0.061-0.472-0.181-0.606c-0.121-0.144-0.296-0.214-0.526-0.214c-0.229,0-0.438,0.079-0.612,0.236
		c-0.18,0.155-0.27,0.354-0.27,0.584v1.422h0.12c0.137,0,0.229,0.021,0.277,0.052c0.048,0.034,0.069,0.098,0.069,0.188
		c0,0.096-0.021,0.16-0.062,0.195c-0.041,0.03-0.141,0.051-0.301,0.051h-0.622H18.25c-0.093,0-0.164-0.021-0.21-0.062
		c-0.047-0.04-0.067-0.104-0.067-0.188c0-0.092,0.024-0.151,0.079-0.188c0.055-0.031,0.156-0.05,0.312-0.05L18.437,61.958
		L18.437,61.958z"/>
	<path fill="#FFFFFF" d="M25.297,62.258c0,0.319-0.016,0.547-0.048,0.68s-0.086,0.25-0.164,0.353
		c-0.127,0.168-0.307,0.297-0.537,0.385c-0.229,0.091-0.501,0.134-0.812,0.134c-0.26,0-0.45-0.025-0.569-0.074
		c-0.12-0.051-0.18-0.131-0.18-0.24c0-0.07,0.029-0.133,0.087-0.186c0.059-0.057,0.127-0.08,0.207-0.08
		c0.062,0,0.156,0.008,0.284,0.022c0.127,0.019,0.225,0.022,0.291,0.022c0.337,0,0.577-0.078,0.718-0.229s0.212-0.42,0.212-0.797
		v-0.413c-0.139,0.161-0.293,0.277-0.461,0.354c-0.168,0.074-0.362,0.111-0.581,0.111c-0.426,0-0.779-0.143-1.058-0.425
		c-0.279-0.284-0.418-0.644-0.418-1.079c0-0.438,0.144-0.8,0.431-1.088c0.287-0.289,0.643-0.434,1.066-0.434
		c0.175,0,0.347,0.033,0.514,0.099c0.168,0.063,0.337,0.163,0.508,0.296v-0.246c0-0.049,0.019-0.084,0.046-0.105
		c0.031-0.021,0.08-0.035,0.146-0.035h0.516c0.091,0,0.16,0.021,0.205,0.062c0.045,0.039,0.068,0.102,0.068,0.18
		c0,0.092-0.028,0.156-0.085,0.19c-0.06,0.036-0.164,0.056-0.321,0.056H25.3v2.49h-0.003V62.258z M23.813,59.788
		c-0.298,0-0.542,0.092-0.731,0.276c-0.188,0.185-0.284,0.424-0.284,0.717c0,0.291,0.098,0.527,0.284,0.714
		c0.189,0.187,0.436,0.278,0.731,0.278s0.54-0.094,0.729-0.278c0.19-0.187,0.286-0.423,0.286-0.714c0-0.288-0.095-0.526-0.286-0.713
		C24.353,59.881,24.11,59.788,23.813,59.788z"/>
	<path fill="#FFFFFF" d="M26.954,61.012c0.021,0.327,0.129,0.58,0.333,0.76c0.204,0.182,0.483,0.271,0.836,0.271
		c0.27,0,0.56-0.067,0.872-0.213c0.315-0.146,0.505-0.216,0.571-0.216c0.065,0,0.125,0.021,0.171,0.064
		c0.045,0.043,0.068,0.096,0.068,0.16c0,0.066-0.024,0.127-0.072,0.182c-0.048,0.058-0.124,0.107-0.229,0.16
		c-0.228,0.111-0.463,0.197-0.706,0.256c-0.239,0.062-0.48,0.09-0.723,0.09c-0.52,0-0.936-0.147-1.248-0.447
		c-0.312-0.303-0.468-0.696-0.468-1.188c0-0.507,0.165-0.912,0.496-1.228c0.331-0.312,0.761-0.47,1.292-0.47
		c0.479,0,0.879,0.146,1.193,0.438c0.317,0.292,0.478,0.646,0.478,1.062c0,0.127-0.027,0.213-0.08,0.257
		c-0.054,0.044-0.199,0.063-0.436,0.063H29.25h-2.296V61.012z M26.971,60.562h2.225c-0.034-0.271-0.147-0.487-0.34-0.653
		c-0.193-0.165-0.429-0.248-0.709-0.248c-0.303,0-0.561,0.08-0.769,0.239C27.174,60.061,27.037,60.281,26.971,60.562z"/>
</g>
<g>
	<path fill="#FFFFFF" d="M10.029,77.6c-0.004,0.172-0.024,0.279-0.06,0.326c-0.036,0.047-0.104,0.07-0.207,0.07
		c-0.08,0-0.143-0.021-0.183-0.062c-0.04-0.043-0.06-0.104-0.06-0.188c0.004-0.07,0.007-0.123,0.007-0.16l0.034-1.128
		c0.004-0.085,0.024-0.146,0.065-0.183c0.041-0.039,0.105-0.057,0.191-0.057h2.97c0.086,0,0.15,0.018,0.191,0.057
		c0.041,0.037,0.062,0.098,0.062,0.183l0.038,1.128c0,0.041,0.001,0.08,0.003,0.116s0.003,0.054,0.003,0.052
		c0,0.082-0.021,0.143-0.062,0.184c-0.044,0.039-0.108,0.062-0.195,0.062c-0.091,0-0.152-0.021-0.188-0.067
		c-0.034-0.05-0.057-0.156-0.061-0.326l-0.033-0.892h-0.979v3.08H12.1h0.133c0.096,0,0.165,0.021,0.208,0.058
		c0.043,0.039,0.062,0.098,0.062,0.18c0,0.08-0.021,0.142-0.062,0.184c-0.041,0.043-0.102,0.062-0.178,0.062H10.35
		c-0.078,0-0.14-0.021-0.181-0.062s-0.062-0.104-0.062-0.184c0-0.084,0.021-0.146,0.063-0.18c0.048-0.037,0.121-0.058,0.229-0.058
		h0.113h0.523v-3.08h-0.979L10.029,77.6z"/>
	<path fill="#FFFFFF" d="M15.251,81.148h0.147c0.167,0,0.279,0.018,0.338,0.053s0.089,0.102,0.089,0.193
		c0,0.078-0.021,0.14-0.07,0.181c-0.047,0.041-0.112,0.062-0.204,0.062h-1.573c-0.107,0-0.185-0.019-0.227-0.055
		c-0.042-0.037-0.062-0.1-0.062-0.188c0-0.082,0.021-0.146,0.063-0.188c0.045-0.041,0.111-0.062,0.2-0.062h0.742l0.554-1.09
		L13.997,77.6c-0.147,0-0.253-0.018-0.31-0.055c-0.059-0.037-0.083-0.1-0.083-0.191c0-0.08,0.021-0.14,0.065-0.18
		c0.045-0.039,0.114-0.061,0.205-0.061h0.954c0.127,0,0.213,0.019,0.256,0.054c0.043,0.036,0.065,0.099,0.065,0.187
		c0,0.092-0.028,0.154-0.085,0.191c-0.06,0.037-0.162,0.055-0.315,0.055h-0.126l0.926,1.883l0.943-1.883H16.36
		c-0.157,0-0.266-0.018-0.325-0.055c-0.059-0.037-0.089-0.1-0.089-0.191c0-0.088,0.021-0.147,0.065-0.187
		c0.043-0.035,0.13-0.054,0.26-0.054h0.844c0.093,0,0.163,0.021,0.207,0.061c0.045,0.04,0.067,0.1,0.067,0.18
		c0,0.086-0.025,0.148-0.075,0.188s-0.142,0.061-0.27,0.062L15.251,81.148z"/>
	<path fill="#FFFFFF" d="M18.826,81.148h0.82c0.086,0,0.148,0.021,0.192,0.062s0.065,0.103,0.065,0.185
		c0,0.09-0.021,0.151-0.063,0.188c-0.042,0.036-0.114,0.056-0.224,0.056H18.11c-0.091,0-0.16-0.021-0.207-0.062
		s-0.07-0.103-0.07-0.183c0-0.09,0.029-0.153,0.087-0.189c0.062-0.036,0.166-0.057,0.323-0.057h0.065V77.6h-0.065
		c-0.157,0-0.265-0.018-0.323-0.055c-0.058-0.037-0.087-0.1-0.087-0.191c0-0.08,0.023-0.14,0.07-0.18
		c0.046-0.039,0.115-0.061,0.207-0.061h0.52c0.068,0,0.118,0.012,0.149,0.035c0.03,0.021,0.046,0.059,0.046,0.104v0.332
		c0.155-0.16,0.326-0.277,0.515-0.357c0.189-0.08,0.393-0.119,0.606-0.119c0.458,0,0.841,0.154,1.148,0.465
		c0.307,0.312,0.461,0.697,0.461,1.166c0,0.447-0.146,0.816-0.438,1.107c-0.292,0.287-0.664,0.434-1.118,0.434
		c-0.242,0-0.464-0.043-0.667-0.129s-0.373-0.207-0.509-0.366L18.826,81.148L18.826,81.148z M19.886,79.777
		c0.314,0,0.574-0.1,0.776-0.299c0.203-0.199,0.307-0.457,0.307-0.774c0-0.31-0.104-0.565-0.309-0.767
		c-0.204-0.203-0.463-0.306-0.774-0.306c-0.314,0-0.572,0.103-0.772,0.304c-0.2,0.197-0.301,0.457-0.301,0.769
		c0,0.313,0.1,0.571,0.299,0.772S19.569,79.777,19.886,79.777z"/>
	<path fill="#FFFFFF" d="M22.754,78.844c0.021,0.328,0.129,0.582,0.333,0.762c0.204,0.181,0.483,0.271,0.836,0.271
		c0.27,0,0.56-0.069,0.872-0.214c0.314-0.145,0.505-0.217,0.571-0.217c0.068,0,0.125,0.021,0.171,0.064
		c0.045,0.045,0.068,0.098,0.068,0.161c0,0.065-0.024,0.126-0.072,0.181s-0.124,0.109-0.229,0.162
		c-0.229,0.111-0.466,0.196-0.706,0.256c-0.242,0.062-0.483,0.088-0.726,0.088c-0.52,0-0.936-0.146-1.248-0.446
		c-0.312-0.302-0.468-0.696-0.468-1.188c0-0.506,0.165-0.912,0.496-1.226s0.761-0.472,1.292-0.472c0.48,0,0.879,0.146,1.196,0.438
		c0.314,0.292,0.475,0.646,0.475,1.06c0,0.129-0.027,0.213-0.08,0.258c-0.054,0.045-0.199,0.064-0.436,0.064h-0.054H22.75v-0.002
		H22.754z M22.771,78.396h2.225c-0.034-0.271-0.146-0.49-0.34-0.654c-0.193-0.165-0.429-0.247-0.709-0.247
		c-0.303,0-0.558,0.079-0.766,0.237C22.973,77.893,22.837,78.113,22.771,78.396z"/>
</g>
<rect x="0" y="47.418" fill="#353535" width="7.159" height="34.221"/>
<g>
	<path fill="#FFFFFF" d="M12.14,68.059c0.112,0,0.193,0.02,0.245,0.059c0.051,0.038,0.077,0.1,0.077,0.184
		c0,0.08-0.024,0.14-0.072,0.18s-0.119,0.061-0.215,0.061h-1.385v1.141c0,0.374,0.049,0.62,0.146,0.738
		c0.097,0.119,0.263,0.178,0.497,0.178c0.207,0,0.456-0.06,0.745-0.181s0.468-0.181,0.536-0.181c0.064,0,0.118,0.022,0.163,0.068
		c0.044,0.045,0.066,0.101,0.066,0.167c0,0.075-0.028,0.141-0.084,0.196s-0.15,0.11-0.285,0.162
		c-0.224,0.09-0.425,0.154-0.604,0.195s-0.347,0.062-0.504,0.062c-0.267,0-0.49-0.043-0.672-0.128
		c-0.181-0.086-0.315-0.213-0.405-0.381c-0.045-0.08-0.077-0.175-0.097-0.284s-0.029-0.278-0.029-0.506v-0.106v-1.141H9.683
		c-0.096,0-0.165-0.02-0.209-0.057c-0.043-0.038-0.064-0.099-0.064-0.184c0-0.093,0.029-0.156,0.089-0.191
		c0.06-0.033,0.186-0.051,0.38-0.051h0.386v-0.701v-0.181c0-0.098,0.021-0.17,0.063-0.217s0.107-0.07,0.196-0.07
		c0.101,0,0.17,0.028,0.208,0.085c0.039,0.058,0.059,0.188,0.059,0.391v0.693H12.14z"/>
	<path fill="#FFFFFF" d="M17.203,69.449c0,0.488-0.166,0.887-0.498,1.197c-0.333,0.31-0.765,0.465-1.296,0.465
		c-0.528,0-0.959-0.155-1.292-0.465c-0.333-0.311-0.499-0.709-0.499-1.197c0-0.487,0.166-0.886,0.499-1.194s0.764-0.463,1.292-0.463
		s0.96,0.155,1.294,0.465S17.203,68.965,17.203,69.449z M15.409,70.633c0.351,0,0.639-0.111,0.863-0.334
		c0.225-0.222,0.337-0.505,0.337-0.85c0-0.344-0.113-0.628-0.339-0.853s-0.513-0.337-0.861-0.337s-0.635,0.112-0.859,0.337
		s-0.337,0.509-0.337,0.853c0,0.347,0.111,0.631,0.335,0.852S15.058,70.633,15.409,70.633z"/>
	<path fill="#FFFFFF" d="M19.749,70.543c0.112,0,0.193,0.02,0.243,0.057c0.05,0.038,0.075,0.098,0.075,0.18
		c0,0.091-0.023,0.155-0.072,0.191c-0.047,0.036-0.139,0.055-0.273,0.055h-1.671c-0.077,0-0.137-0.021-0.178-0.063
		s-0.062-0.103-0.062-0.183s0.02-0.139,0.06-0.178s0.103-0.059,0.187-0.059h0.441v-3.079h-0.24c-0.2,0-0.325-0.018-0.374-0.053
		s-0.073-0.1-0.073-0.193c0-0.08,0.021-0.141,0.062-0.183s0.101-0.063,0.178-0.063h1.583c0.553,0,0.974,0.107,1.261,0.321
		s0.431,0.529,0.431,0.947c0,0.416-0.143,0.73-0.428,0.943c-0.284,0.211-0.706,0.317-1.264,0.317h-0.599v1.042H19.749z
		 M19.035,67.464v1.586h0.64c0.357,0,0.625-0.066,0.803-0.198s0.267-0.332,0.267-0.598c0-0.263-0.09-0.46-0.269-0.592
		s-0.445-0.198-0.801-0.198H19.035z"/>
	<path fill="#FFFFFF" d="M25.603,69.449c0,0.488-0.166,0.887-0.498,1.197c-0.333,0.31-0.765,0.465-1.296,0.465
		c-0.528,0-0.959-0.155-1.292-0.465c-0.333-0.311-0.499-0.709-0.499-1.197c0-0.487,0.166-0.886,0.499-1.194s0.764-0.463,1.292-0.463
		s0.96,0.155,1.294,0.465S25.603,68.965,25.603,69.449z M23.809,70.633c0.351,0,0.639-0.111,0.863-0.334
		c0.225-0.222,0.337-0.505,0.337-0.85c0-0.344-0.113-0.628-0.339-0.853s-0.513-0.337-0.861-0.337s-0.635,0.112-0.859,0.337
		s-0.337,0.509-0.337,0.853c0,0.347,0.111,0.631,0.335,0.852S23.459,70.633,23.809,70.633z"/>
	<path fill="#FFFFFF" d="M26.52,70.779v-0.608c0-0.101,0.019-0.172,0.057-0.216c0.037-0.043,0.099-0.064,0.183-0.064
		c0.094,0,0.168,0.063,0.223,0.191c0.036,0.077,0.069,0.136,0.099,0.174c0.096,0.123,0.237,0.222,0.424,0.296
		s0.394,0.111,0.618,0.111c0.242,0,0.436-0.049,0.582-0.147c0.146-0.098,0.219-0.227,0.219-0.386c0-0.162-0.06-0.276-0.177-0.345
		s-0.318-0.104-0.603-0.104h-0.188c-0.465,0-0.819-0.08-1.063-0.242c-0.243-0.162-0.365-0.396-0.365-0.704
		c0-0.301,0.119-0.534,0.357-0.7c0.238-0.167,0.572-0.25,1.003-0.25c0.176,0,0.354,0.024,0.536,0.073
		c0.183,0.049,0.278,0.073,0.287,0.073c0.025,0,0.073-0.021,0.145-0.066c0.07-0.044,0.14-0.066,0.208-0.066
		c0.077,0,0.135,0.028,0.173,0.086c0.037,0.057,0.057,0.142,0.057,0.256v0.4c0,0.12-0.019,0.207-0.055,0.261
		c-0.037,0.054-0.095,0.081-0.175,0.081c-0.068,0-0.152-0.059-0.253-0.175c-0.07-0.08-0.129-0.14-0.174-0.181
		c-0.121-0.112-0.25-0.192-0.387-0.241s-0.297-0.073-0.482-0.073c-0.214,0-0.387,0.047-0.518,0.142s-0.196,0.215-0.196,0.36
		c0,0.144,0.067,0.246,0.202,0.308c0.134,0.062,0.424,0.097,0.867,0.106c0.475,0.011,0.82,0.094,1.039,0.247
		c0.219,0.154,0.328,0.392,0.328,0.713c0,0.308-0.12,0.554-0.361,0.738c-0.242,0.185-0.568,0.276-0.979,0.276
		c-0.129,0-0.274-0.012-0.434-0.035c-0.159-0.024-0.36-0.064-0.602-0.121c-0.08,0.052-0.148,0.091-0.205,0.117
		s-0.104,0.039-0.144,0.039c-0.08,0-0.141-0.027-0.183-0.083S26.52,70.884,26.52,70.779z"/>
</g>
</svg>
