<?xml version="1.0" encoding="utf-8"?>
<!-- Generator: Adobe Illustrator 16.0.0, SVG Export Plug-In . SVG Version: 6.00 Build 0)  -->
<!DOCTYPE svg PUBLIC "-//W3C//DTD SVG 1.1//EN" "http://www.w3.org/Graphics/SVG/1.1/DTD/svg11.dtd">
<svg version="1.1" id="Layer_1" xmlns="http://www.w3.org/2000/svg" xmlns:xlink="http://www.w3.org/1999/xlink" x="0px" y="0px"
	 width="78.988px" height="57.988px" viewBox="0 0 78.988 57.988" enable-background="new 0 0 78.988 57.988" xml:space="preserve">
<g>
	<g>
		<path fill="#84A2CD" d="M78.988,51.312c0,3.688-2.988,6.676-6.676,6.676H6.677C2.99,57.988,0,55,0,51.312V6.676
			C0,2.989,2.99,0,6.677,0h65.637C76,0,78.988,2.989,78.988,6.676V51.312z"/>
	</g>
</g>
<g>
	<path fill="#1B446B" d="M25.181,34.597c-0.179,0.137-0.361,0.242-0.55,0.312c-0.188,0.071-0.381,0.107-0.578,0.107
		c-0.295,0-0.501-0.079-0.62-0.234c-0.12-0.158-0.181-0.451-0.181-0.884v-1.362c0-0.451,0.075-0.771,0.227-0.959
		c0.149-0.188,0.41-0.281,0.778-0.281c0.403,0,0.731,0.193,0.984,0.584c0.15,0.211,0.277,0.369,0.379,0.472
		c0.335,0.301,0.726,0.526,1.169,0.677c0.444,0.151,0.95,0.227,1.519,0.227c0.491,0,0.885-0.096,1.179-0.287s0.441-0.44,0.441-0.75
		c0-0.553-0.79-0.936-2.369-1.146c-0.35-0.041-0.622-0.078-0.82-0.113c-1.189-0.164-2.075-0.486-2.656-0.969
		s-0.872-1.13-0.872-1.943c0-0.964,0.35-1.709,1.046-2.235c0.697-0.526,1.692-0.79,2.984-0.79c0.444,0,0.9,0.036,1.369,0.107
		c0.468,0.072,0.949,0.183,1.441,0.333c0.144-0.171,0.295-0.297,0.456-0.379c0.16-0.082,0.341-0.123,0.538-0.123
		c0.28,0,0.494,0.087,0.642,0.262c0.146,0.174,0.221,0.436,0.221,0.784v1.261c0,0.294-0.075,0.521-0.226,0.682
		c-0.151,0.161-0.362,0.241-0.637,0.241c-0.279,0-0.761-0.244-1.439-0.733c-0.682-0.489-1.362-0.733-2.046-0.733
		c-0.533,0-0.947,0.087-1.241,0.262c-0.294,0.174-0.441,0.415-0.441,0.723c0,0.479,0.615,0.8,1.847,0.964
		c0.354,0.041,0.636,0.075,0.841,0.103c1.545,0.226,2.605,0.562,3.184,1.011c0.578,0.448,0.867,1.112,0.867,1.994
		c0,1.032-0.381,1.832-1.143,2.395c-0.764,0.564-1.845,0.847-3.246,0.847c-0.547,0-1.073-0.036-1.579-0.108
		C26.141,34.839,25.652,34.733,25.181,34.597z"/>
	<path fill="#1B446B" d="M41.927,32.496h2.203c0.473,0,0.808,0.086,1.006,0.256c0.197,0.172,0.297,0.455,0.297,0.852
		c0,0.402-0.102,0.693-0.304,0.871c-0.2,0.178-0.533,0.268-0.999,0.268h-6.932c-0.465,0-0.798-0.09-1-0.268
		s-0.303-0.469-0.303-0.871c0-0.396,0.098-0.68,0.292-0.852c0.194-0.17,0.532-0.256,1.01-0.256h2.205v-4.984h-1.159
		c-0.458,0-0.786-0.087-0.984-0.261c-0.197-0.175-0.297-0.463-0.297-0.867c0-0.404,0.097-0.69,0.287-0.861
		c0.191-0.171,0.523-0.256,0.995-0.256h3.086c0.191,0,0.339,0.04,0.441,0.118c0.102,0.078,0.153,0.187,0.153,0.323v6.788H41.927z
		 M40.449,20.631c0.498,0,0.83,0.096,0.994,0.287s0.246,0.649,0.246,1.374c0,0.697-0.074,1.13-0.221,1.297
		c-0.146,0.168-0.494,0.251-1.041,0.251c-0.533,0-0.876-0.079-1.03-0.236s-0.231-0.472-0.231-0.943c0-0.875,0.079-1.432,0.236-1.671
		C39.559,20.751,39.909,20.631,40.449,20.631z"/>
	<path fill="#1B446B" d="M57.398,32.475h0.133c0.383,0,0.67,0.095,0.861,0.282c0.19,0.187,0.287,0.47,0.287,0.846
		c0,0.402-0.098,0.693-0.292,0.871s-0.524,0.268-0.989,0.268h-2.522c-0.458,0-0.788-0.09-0.988-0.268
		c-0.202-0.178-0.304-0.469-0.304-0.871c0-0.376,0.099-0.658,0.292-0.846c0.195-0.188,0.487-0.282,0.877-0.282h0.123v-2.964
		c0-0.819-0.113-1.402-0.344-1.747c-0.229-0.345-0.61-0.518-1.144-0.518c-0.566,0-1.03,0.207-1.39,0.621
		c-0.358,0.414-0.539,0.962-0.539,1.646v2.963h0.123c0.392,0,0.682,0.096,0.872,0.281c0.191,0.188,0.287,0.471,0.287,0.847
		c0,0.403-0.099,0.692-0.298,0.871c-0.197,0.178-0.525,0.269-0.984,0.269h-2.543c-0.457,0-0.785-0.091-0.983-0.269
		c-0.197-0.179-0.297-0.468-0.297-0.871c0-0.376,0.096-0.657,0.286-0.847c0.191-0.188,0.482-0.281,0.871-0.281h0.123v-4.963h-0.174
		c-0.369,0-0.648-0.094-0.841-0.282s-0.287-0.463-0.287-0.826c0-0.403,0.099-0.694,0.298-0.872c0.197-0.178,0.533-0.267,1.004-0.267
		h1.744c0.191,0,0.336,0.038,0.437,0.113c0.099,0.075,0.147,0.185,0.147,0.328v0.8c0.314-0.492,0.716-0.863,1.205-1.113
		c0.488-0.249,1.055-0.374,1.697-0.374c1.094,0,1.908,0.332,2.444,0.995c0.536,0.663,0.806,1.675,0.806,3.035L57.398,32.475
		L57.398,32.475z"/>
</g>
</svg>
