<?xml version="1.0" encoding="utf-8"?>
<!-- Generator: Adobe Illustrator 16.0.0, SVG Export Plug-In . SVG Version: 6.00 Build 0)  -->
<!DOCTYPE svg PUBLIC "-//W3C//DTD SVG 1.1//EN" "http://www.w3.org/Graphics/SVG/1.1/DTD/svg11.dtd">
<svg version="1.1" id="Layer_1" xmlns="http://www.w3.org/2000/svg" xmlns:xlink="http://www.w3.org/1999/xlink" x="0px" y="0px"
	 width="376.352px" height="39.785px" viewBox="5 3.76 376.352 39.785" enable-background="new 5 3.76 376.352 39.785"
	 xml:space="preserve">
<g>
	<path fill="#F7C55A" d="M381.351,36.911c0,3.662-2.971,6.634-6.635,6.634H11.633C7.97,43.544,5,40.573,5,36.911V10.394
		C5,6.729,7.97,3.76,11.633,3.76h363.084c3.664,0,6.635,2.97,6.635,6.634V36.911z"/>
	<path fill="#F8E5AE" d="M375.103,3.76H99.665v39.785h275.438c3.438,0,6.225-2.972,6.225-6.634V10.394
		C381.327,6.729,378.542,3.76,375.103,3.76z"/>
	<g>
		<path fill="#754E1F" d="M22.852,17.577c0.103-0.219,0.219-0.369,0.349-0.451s0.328-0.123,0.595-0.123
			c0.396,0,0.651,0.074,0.765,0.22c0.112,0.147,0.176,0.439,0.189,0.877l0.041,1.969v0.112c0,0.404-0.081,0.687-0.241,0.847
			c-0.16,0.161-0.433,0.241-0.814,0.241c-0.485,0-0.848-0.26-1.087-0.779c-0.034-0.074-0.062-0.137-0.082-0.186
			c-0.212-0.423-0.499-0.744-0.861-0.958c-0.361-0.216-0.79-0.323-1.282-0.323c-0.614,0-1.112,0.142-1.491,0.426
			c-0.38,0.284-0.569,0.647-0.569,1.093c0,0.629,0.868,1.125,2.604,1.486c0.295,0.062,0.526,0.109,0.697,0.145
			c1.312,0.287,2.264,0.725,2.852,1.312s0.882,1.392,0.882,2.409c0,1.259-0.427,2.229-1.282,2.906
			c-0.854,0.682-2.078,1.021-3.671,1.021c-0.622,0-1.178-0.041-1.667-0.123s-0.962-0.208-1.42-0.38
			c-0.109,0.179-0.236,0.308-0.379,0.385c-0.144,0.078-0.342,0.118-0.596,0.118c-0.431,0-0.73-0.082-0.901-0.246
			s-0.26-0.453-0.268-0.872l-0.041-2.409v-0.111c0-0.451,0.083-0.766,0.251-0.943c0.167-0.178,0.459-0.268,0.876-0.268
			c0.444,0,0.817,0.322,1.118,0.965c0.068,0.156,0.123,0.275,0.164,0.357c0.268,0.526,0.638,0.92,1.112,1.18
			s1.058,0.391,1.749,0.391c0.629,0,1.118-0.131,1.466-0.391s0.523-0.625,0.523-1.098c0-0.73-0.79-1.285-2.369-1.66
			c-0.473-0.109-0.844-0.203-1.118-0.277c-1.326-0.35-2.246-0.784-2.758-1.309c-0.514-0.521-0.77-1.238-0.77-2.147
			c0-1.169,0.439-2.124,1.318-2.866c0.878-0.742,2.015-1.113,3.409-1.113c0.465,0,0.921,0.048,1.369,0.144
			C21.961,17.242,22.407,17.386,22.852,17.577z"/>
		<path fill="#754E1F" d="M31.783,19.608v7.649h4.666v-1.826c0-0.471,0.083-0.807,0.251-1.004c0.167-0.199,0.446-0.297,0.835-0.297
			s0.673,0.1,0.852,0.303c0.178,0.201,0.267,0.535,0.267,1v3.146c0,0.369-0.072,0.615-0.215,0.738
			c-0.144,0.123-0.432,0.186-0.861,0.186h-9.3c-0.444,0-0.762-0.09-0.954-0.268s-0.287-0.469-0.287-0.871
			c0-0.396,0.094-0.68,0.282-0.852c0.188-0.17,0.508-0.256,0.959-0.256h0.902v-7.649h-0.902c-0.444,0-0.762-0.089-0.954-0.267
			c-0.192-0.178-0.287-0.465-0.287-0.861c0-0.396,0.102-0.685,0.302-0.867c0.202-0.181,0.521-0.271,0.959-0.271h4.368
			c0.438,0,0.757,0.091,0.959,0.271c0.201,0.182,0.303,0.47,0.303,0.867c0,0.397-0.1,0.685-0.298,0.861
			c-0.197,0.177-0.52,0.267-0.964,0.267H31.783z"/>
		<path fill="#754E1F" d="M46.815,19.608v7.649h1.723c0.465,0,0.798,0.088,1,0.262s0.303,0.455,0.303,0.846
			c0,0.396-0.103,0.686-0.308,0.867c-0.205,0.181-0.537,0.271-0.995,0.271h-6.091c-0.465,0-0.798-0.091-1-0.269
			c-0.202-0.179-0.303-0.468-0.303-0.871c0-0.396,0.099-0.681,0.297-0.853c0.198-0.17,0.533-0.256,1.005-0.256h1.723v-7.648h-1.723
			c-0.465,0-0.798-0.089-1-0.267c-0.202-0.178-0.303-0.465-0.303-0.861c0-0.403,0.099-0.689,0.297-0.861
			c0.198-0.171,0.533-0.256,1.005-0.256h6.091c0.485,0,0.824,0.085,1.016,0.256c0.19,0.171,0.286,0.458,0.286,0.861
			c0,0.396-0.099,0.684-0.297,0.861c-0.197,0.177-0.533,0.267-1.005,0.267L46.815,19.608L46.815,19.608z"/>
		<path fill="#754E1F" d="M53.777,27.257v-7.649h-0.174c-0.369,0-0.649-0.096-0.841-0.287c-0.192-0.191-0.287-0.472-0.287-0.841
			c0-0.396,0.103-0.685,0.308-0.867c0.205-0.181,0.537-0.271,0.995-0.271h1.928h0.605c1.429,0,2.475,0.062,3.138,0.185
			s1.228,0.328,1.692,0.615c0.827,0.492,1.461,1.194,1.901,2.108c0.441,0.911,0.662,1.967,0.662,3.162
			c0,1.266-0.251,2.371-0.753,3.318c-0.503,0.945-1.215,1.662-2.138,2.146c-0.417,0.219-0.906,0.379-1.466,0.479
			c-0.562,0.099-1.396,0.148-2.502,0.148h-1.139H53.78c-0.472,0-0.807-0.088-1.005-0.263c-0.198-0.174-0.297-0.467-0.297-0.877
			c0-0.362,0.096-0.638,0.287-0.826c0.19-0.188,0.472-0.28,0.841-0.28H53.777z M56.423,19.567v7.69h0.584
			c1.292,0,2.246-0.316,2.861-0.949c0.615-0.631,0.923-1.604,0.923-2.918c0-1.291-0.312-2.256-0.938-2.891
			c-0.626-0.637-1.567-0.955-2.825-0.955c-0.164,0-0.289,0.002-0.374,0.005C56.568,19.555,56.491,19.56,56.423,19.567z"/>
		<path fill="#754E1F" d="M73.639,19.505h-4.769v2.625h1.806v-0.123c0-0.391,0.085-0.681,0.256-0.873
			c0.171-0.191,0.431-0.287,0.778-0.287c0.309,0,0.56,0.088,0.753,0.263c0.195,0.174,0.292,0.396,0.292,0.661
			c0,0.014,0.003,0.058,0.011,0.133c0.007,0.074,0.01,0.15,0.01,0.227v2.123c0,0.457-0.082,0.785-0.246,0.984
			c-0.164,0.197-0.431,0.297-0.8,0.297c-0.35,0-0.612-0.092-0.79-0.277c-0.178-0.184-0.268-0.457-0.268-0.82v-0.184h-1.805v3.065
			h4.769v-1.22c0-0.459,0.087-0.787,0.261-0.984c0.175-0.199,0.46-0.298,0.855-0.298c0.391,0,0.668,0.097,0.836,0.292
			c0.167,0.195,0.251,0.525,0.251,0.99v2.479c0,0.369-0.071,0.615-0.215,0.738c-0.143,0.123-0.427,0.187-0.851,0.187h-8.398
			c-0.451,0-0.773-0.091-0.969-0.269c-0.194-0.179-0.292-0.468-0.292-0.871c0-0.362,0.092-0.638,0.277-0.826
			c0.185-0.188,0.455-0.28,0.81-0.28h0.174v-7.649h-0.174c-0.349,0-0.617-0.097-0.805-0.292c-0.188-0.194-0.282-0.473-0.282-0.835
			c0-0.396,0.099-0.685,0.297-0.867c0.198-0.181,0.521-0.271,0.964-0.271h8.398c0.417,0,0.699,0.063,0.846,0.189
			c0.147,0.127,0.221,0.378,0.221,0.754v2.298c0,0.465-0.085,0.797-0.256,1c-0.171,0.201-0.447,0.301-0.831,0.301
			c-0.396,0-0.682-0.103-0.855-0.308c-0.174-0.204-0.261-0.536-0.261-0.995v-1.077H73.639z"/>
		<path fill="#754E1F" d="M85.862,23.914c0.178,0.109,0.352,0.309,0.523,0.596c0.026,0.041,0.051,0.074,0.071,0.103l1.671,2.646
			h0.113h0.205c0.396,0,0.695,0.092,0.897,0.277c0.2,0.184,0.302,0.461,0.302,0.83c0,0.402-0.102,0.693-0.302,0.871
			c-0.202,0.178-0.535,0.268-1,0.268h-1.262c-0.465,0-0.827-0.201-1.087-0.604l-0.031-0.021l-2.512-3.867
			c-0.096-0.149-0.205-0.264-0.328-0.344c-0.123-0.078-0.253-0.117-0.39-0.117H81.77v2.707h0.164c0.369,0,0.646,0.094,0.835,0.281
			c0.188,0.189,0.282,0.465,0.282,0.826c0,0.402-0.099,0.693-0.292,0.871c-0.195,0.178-0.525,0.268-0.99,0.268h-2.646
			c-0.458,0-0.786-0.09-0.983-0.268c-0.198-0.178-0.298-0.469-0.298-0.871c0-0.361,0.095-0.637,0.282-0.826
			c0.188-0.188,0.463-0.281,0.825-0.281h0.174v-7.648h-0.174c-0.354,0-0.629-0.097-0.82-0.292c-0.19-0.194-0.287-0.473-0.287-0.835
			c0-0.396,0.102-0.685,0.304-0.867c0.201-0.181,0.527-0.271,0.979-0.271h4.728c1.448,0,2.546,0.282,3.292,0.846
			c0.745,0.564,1.118,1.396,1.118,2.497c0,0.766-0.207,1.429-0.62,1.988C87.227,23.234,86.635,23.648,85.862,23.914z M81.647,19.546
			v2.902h1.384c0.854,0,1.453-0.11,1.794-0.333s0.513-0.594,0.513-1.113c0-0.513-0.155-0.883-0.466-1.113
			c-0.312-0.229-0.812-0.343-1.502-0.343H81.647z"/>
	</g>
	<rect x="112.784" y="28.654" fill="#FFFFFF" width="245.604" height="1.461"/>
</g>
</svg>
