<?xml version="1.0" encoding="utf-8"?>
<!-- Generator: Adobe Illustrator 16.0.0, SVG Export Plug-In . SVG Version: 6.00 Build 0)  -->
<!DOCTYPE svg PUBLIC "-//W3C//DTD SVG 1.1//EN" "http://www.w3.org/Graphics/SVG/1.1/DTD/svg11.dtd">
<svg version="1.1" id="Layer_1" xmlns="http://www.w3.org/2000/svg" xmlns:xlink="http://www.w3.org/1999/xlink" x="0px" y="0px"
	 width="78.988px" height="57.988px" viewBox="0 0 78.988 57.988" enable-background="new 0 0 78.988 57.988" xml:space="preserve">
<g>
	<g>
		<path fill="#84A2CD" d="M78.988,51.312c0,3.688-2.988,6.676-6.676,6.676H6.677C2.99,57.988,0,55,0,51.312V6.676
			C0,2.989,2.99,0,6.677,0h65.637C76,0,78.988,2.989,78.988,6.676V51.312z"/>
	</g>
</g>
<g>
	<path fill="#1B446B" d="M19.181,34.597c-0.179,0.137-0.361,0.242-0.55,0.312c-0.188,0.071-0.381,0.107-0.578,0.107
		c-0.295,0-0.501-0.079-0.62-0.234c-0.12-0.158-0.181-0.451-0.181-0.884v-1.362c0-0.451,0.075-0.771,0.227-0.959
		c0.149-0.188,0.41-0.281,0.778-0.281c0.403,0,0.731,0.193,0.984,0.584c0.15,0.211,0.277,0.369,0.379,0.472
		c0.335,0.301,0.726,0.526,1.169,0.677c0.444,0.151,0.95,0.227,1.519,0.227c0.491,0,0.885-0.096,1.179-0.287s0.441-0.44,0.441-0.75
		c0-0.553-0.79-0.936-2.369-1.146c-0.35-0.041-0.622-0.078-0.82-0.113c-1.189-0.164-2.075-0.486-2.656-0.969
		s-0.872-1.13-0.872-1.943c0-0.964,0.35-1.709,1.046-2.235c0.697-0.526,1.692-0.79,2.984-0.79c0.444,0,0.9,0.036,1.369,0.107
		c0.468,0.072,0.949,0.183,1.441,0.333c0.144-0.171,0.295-0.297,0.456-0.379c0.16-0.082,0.341-0.123,0.538-0.123
		c0.28,0,0.494,0.087,0.642,0.262c0.146,0.174,0.221,0.436,0.221,0.784v1.261c0,0.294-0.075,0.521-0.226,0.682
		c-0.151,0.161-0.362,0.241-0.637,0.241c-0.279,0-0.761-0.244-1.439-0.733c-0.682-0.489-1.362-0.733-2.046-0.733
		c-0.533,0-0.947,0.087-1.241,0.262c-0.294,0.174-0.441,0.415-0.441,0.723c0,0.479,0.615,0.8,1.847,0.964
		c0.354,0.041,0.636,0.075,0.841,0.103c1.545,0.226,2.605,0.562,3.184,1.011c0.578,0.448,0.867,1.112,0.867,1.994
		c0,1.032-0.381,1.832-1.143,2.395c-0.764,0.564-1.845,0.847-3.246,0.847c-0.547,0-1.073-0.036-1.579-0.108
		C20.141,34.839,19.652,34.733,19.181,34.597z"/>
	<path fill="#1B446B" d="M36.694,26.425v-0.738c0-0.137,0.049-0.241,0.149-0.313c0.099-0.071,0.247-0.107,0.445-0.107h1.569
		c0.472,0,0.803,0.087,0.995,0.262c0.19,0.174,0.287,0.459,0.287,0.855c0,0.369-0.095,0.649-0.282,0.841
		c-0.188,0.191-0.463,0.287-0.826,0.287h-0.174v9.054h0.615c0.458,0,0.785,0.091,0.983,0.269s0.297,0.467,0.297,0.871
		c0,0.396-0.097,0.68-0.292,0.852c-0.193,0.17-0.523,0.256-0.988,0.256h-4.349c-0.472,0-0.803-0.084-0.995-0.252
		c-0.19-0.167-0.286-0.452-0.286-0.855c0-0.41,0.097-0.703,0.292-0.877c0.193-0.174,0.523-0.262,0.988-0.262h1.303v-2.789
		c-0.355,0.295-0.774,0.518-1.257,0.672c-0.48,0.154-1.003,0.23-1.562,0.23c-1.354,0-2.476-0.467-3.363-1.398
		c-0.889-0.934-1.333-2.111-1.333-3.533c0-1.359,0.456-2.488,1.369-3.383c0.912-0.896,2.073-1.343,3.481-1.343
		c0.614,0,1.172,0.118,1.671,0.354C35.932,25.61,36.353,25.96,36.694,26.425z M34.049,27.204c-0.677,0-1.233,0.25-1.671,0.749
		c-0.437,0.499-0.655,1.138-0.655,1.917c0,0.778,0.219,1.418,0.655,1.918c0.438,0.498,0.995,0.748,1.671,0.748
		c0.677,0,1.236-0.252,1.677-0.754s0.662-1.141,0.662-1.912c0-0.78-0.22-1.418-0.656-1.917
		C35.294,27.454,34.732,27.204,34.049,27.204z"/>
	<path fill="#1B446B" d="M46.631,29.173v3.323h2.421c0.465,0,0.794,0.086,0.988,0.256c0.194,0.172,0.292,0.455,0.292,0.852
		c0,0.402-0.098,0.693-0.292,0.871s-0.523,0.268-0.988,0.268h-5.732c-0.472,0-0.807-0.09-1.005-0.268s-0.298-0.469-0.298-0.871
		c0-0.396,0.098-0.68,0.293-0.852c0.193-0.17,0.53-0.256,1.01-0.256h0.779v-4.984h-0.441c-0.465,0-0.794-0.087-0.989-0.261
		c-0.193-0.175-0.292-0.463-0.292-0.867c0-0.404,0.095-0.69,0.282-0.861c0.188-0.171,0.521-0.256,0.999-0.256h2.185
		c0.186,0,0.328,0.04,0.432,0.118c0.103,0.078,0.154,0.187,0.154,0.323v1.518c0.743-0.8,1.439-1.371,2.086-1.712
		C49.158,25.17,49.854,25,50.599,25c0.677,0,1.214,0.152,1.609,0.456c0.396,0.305,0.595,0.713,0.595,1.226
		c0,0.396-0.138,0.723-0.41,0.979c-0.273,0.256-0.625,0.384-1.057,0.384c-0.308,0-0.672-0.113-1.092-0.338
		c-0.421-0.226-0.713-0.338-0.877-0.338c-0.328,0-0.714,0.147-1.159,0.441C47.766,28.103,47.238,28.558,46.631,29.173z"/>
	<path fill="#1B446B" d="M58.986,25.84h3.127c0.473,0,0.807,0.085,1.006,0.256c0.197,0.171,0.297,0.455,0.297,0.852
		c0,0.403-0.102,0.694-0.303,0.872c-0.201,0.178-0.535,0.267-1,0.267h-3.127v2.625c0,0.738,0.113,1.244,0.338,1.519
		c0.228,0.272,0.623,0.41,1.189,0.41c0.532,0,1.161-0.153,1.887-0.462c0.725-0.307,1.211-0.461,1.457-0.461
		c0.279,0,0.521,0.111,0.723,0.334c0.201,0.222,0.303,0.49,0.303,0.805c0,0.525-0.477,1.006-1.432,1.439
		c-0.953,0.436-2.035,0.652-3.244,0.652c-0.705,0-1.322-0.097-1.855-0.287c-0.533-0.191-0.954-0.466-1.262-0.82
		c-0.227-0.273-0.387-0.602-0.481-0.984c-0.095-0.382-0.145-1.021-0.145-1.918V30.71v-2.625H55.5c-0.465,0-0.795-0.089-0.989-0.267
		c-0.193-0.178-0.291-0.468-0.291-0.872c0-0.404,0.096-0.688,0.286-0.856c0.191-0.167,0.522-0.251,0.994-0.251h0.964v-2.399
		c0-0.472,0.098-0.803,0.292-0.995c0.195-0.192,0.519-0.287,0.97-0.287s0.774,0.096,0.969,0.287c0.195,0.19,0.293,0.522,0.293,0.995
		L58.986,25.84L58.986,25.84z"/>
</g>
</svg>
