<?xml version="1.0" encoding="utf-8"?>
<!-- Generator: Adobe Illustrator 16.0.0, SVG Export Plug-In . SVG Version: 6.00 Build 0)  -->
<!DOCTYPE svg PUBLIC "-//W3C//DTD SVG 1.1//EN" "http://www.w3.org/Graphics/SVG/1.1/DTD/svg11.dtd">
<svg version="1.1" id="Layer_1" xmlns="http://www.w3.org/2000/svg" xmlns:xlink="http://www.w3.org/1999/xlink" x="0px" y="0px"
	 width="57.986px" height="57.988px" viewBox="0 0 57.986 57.988" enable-background="new 0 0 57.986 57.988" xml:space="preserve">
<g>
	<g>
		<path fill="#46B7BE" d="M57.987,51.311c0,3.688-2.987,6.678-6.676,6.678H6.676C2.989,57.988,0,54.999,0,51.311V6.676
			C0,2.989,2.989,0,6.676,0h44.636C55,0,57.988,2.989,57.988,6.676L57.987,51.311L57.987,51.311z"/>
		<g>
			<path fill="#0C5657" d="M21.713,26.786h14.572c0.28,0,0.494,0.07,0.642,0.211c0.146,0.141,0.22,0.346,0.22,0.615v2.196
				c0,0.246-0.091,0.469-0.271,0.668c-0.182,0.199-0.378,0.299-0.589,0.299H21.713c-0.234,0-0.419-0.088-0.554-0.264
				c-0.136-0.176-0.202-0.41-0.202-0.703v-2.196c0-0.246,0.069-0.445,0.211-0.598C21.309,26.861,21.49,26.786,21.713,26.786z"/>
		</g>
	</g>
</g>
</svg>
