<?xml version="1.0" encoding="utf-8"?>
<!-- Generator: Adobe Illustrator 16.0.0, SVG Export Plug-In . SVG Version: 6.00 Build 0)  -->
<!DOCTYPE svg PUBLIC "-//W3C//DTD SVG 1.1//EN" "http://www.w3.org/Graphics/SVG/1.1/DTD/svg11.dtd">
<svg version="1.1" id="Layer_1" xmlns="http://www.w3.org/2000/svg" xmlns:xlink="http://www.w3.org/1999/xlink" x="0px" y="0px"
	 width="212.703px" height="109.132px" viewBox="0 0 212.703 109.132" enable-background="new 0 0 212.703 109.132"
	 xml:space="preserve">
<g>
	<g>
		<path fill="#F7C55A" d="M212.703,101.401c0,4.268-3.459,7.73-7.732,7.73H7.729c-4.266,0-7.729-3.463-7.729-7.73V7.732
			C0,3.46,3.463,0,7.729,0H204.97c4.273,0,7.732,3.46,7.732,7.732V101.401z"/>
		<path fill="#F8E5AE" d="M0,36.092v65.31c0,4.268,3.463,7.73,7.729,7.73H204.97c4.27,0,7.73-3.463,7.73-7.73v-65.31H0z"/>
		<g>
			<path fill="#754E1F" d="M26.949,57.835c0.432,0,0.708,0.041,0.829,0.122c0.12,0.081,0.181,0.234,0.181,0.458
				c0,0.23-0.061,0.39-0.181,0.477c-0.121,0.087-0.397,0.131-0.829,0.131h-5.111h-0.396c-0.202,0-0.356-0.051-0.463-0.152
				c-0.106-0.101-0.16-0.252-0.16-0.455c0-0.224,0.062-0.377,0.186-0.458c0.123-0.081,0.401-0.122,0.833-0.122h1.903v-7.586h-1.903
				c-0.421,0-0.695-0.043-0.825-0.131c-0.129-0.087-0.193-0.245-0.193-0.476c0-0.208,0.054-0.36,0.16-0.459
				c0.106-0.098,0.267-0.147,0.479-0.147h0.379h5.111h0.396c0.202,0,0.354,0.05,0.459,0.151c0.104,0.101,0.155,0.252,0.155,0.455
				c0,0.23-0.063,0.389-0.189,0.476c-0.126,0.087-0.399,0.131-0.82,0.131h-1.903v7.586H26.949z"/>
			<path fill="#754E1F" d="M31.604,57.835v-5.397h-0.159c-0.382,0-0.645-0.045-0.788-0.135c-0.143-0.09-0.214-0.247-0.214-0.472
				c0-0.208,0.059-0.357,0.177-0.45c0.117-0.093,0.309-0.139,0.572-0.139h0.396h0.809c0.151,0,0.27,0.031,0.354,0.093
				c0.084,0.062,0.126,0.146,0.126,0.252v0.573c0.41-0.382,0.815-0.664,1.217-0.846c0.401-0.182,0.818-0.273,1.25-0.273
				c0.848,0,1.515,0.264,2,0.791c0.485,0.528,0.729,1.258,0.729,2.189v3.814h0.396c0.28,0,0.482,0.047,0.606,0.139
				c0.123,0.093,0.185,0.24,0.185,0.441c0,0.22-0.065,0.375-0.197,0.468s-0.366,0.14-0.703,0.14h-1.86
				c-0.359,0-0.59-0.043-0.69-0.127c-0.102-0.084-0.152-0.244-0.152-0.48c0-0.219,0.06-0.369,0.177-0.454
				c0.118-0.084,0.34-0.126,0.666-0.126h0.294v-3.502c0-0.657-0.148-1.158-0.446-1.503c-0.297-0.345-0.729-0.518-1.296-0.518
				c-0.573,0-1.078,0.194-1.516,0.581c-0.438,0.387-0.657,0.867-0.657,1.44v3.502h0.295c0.337,0,0.564,0.042,0.682,0.126
				c0.118,0.085,0.177,0.235,0.177,0.454c0,0.236-0.05,0.396-0.151,0.48c-0.101,0.084-0.348,0.127-0.74,0.127h-1.533H31.15
				c-0.23,0-0.403-0.049-0.518-0.148c-0.115-0.098-0.173-0.25-0.173-0.459c0-0.224,0.065-0.377,0.197-0.458s0.389-0.122,0.771-0.122
				H31.604z"/>
			<path fill="#754E1F" d="M47.383,51.714c0.275,0,0.476,0.048,0.603,0.143c0.126,0.096,0.189,0.247,0.189,0.455
				c0,0.197-0.06,0.344-0.177,0.442c-0.118,0.098-0.295,0.147-0.53,0.147h-3.41v2.812c0,0.921,0.119,1.526,0.357,1.819
				c0.238,0.291,0.647,0.438,1.226,0.438c0.511,0,1.122-0.148,1.835-0.446s1.153-0.446,1.322-0.446c0.157,0,0.29,0.057,0.399,0.168
				c0.109,0.113,0.164,0.25,0.164,0.413c0,0.185-0.068,0.347-0.206,0.483c-0.138,0.139-0.372,0.271-0.703,0.4
				c-0.55,0.219-1.045,0.379-1.485,0.48c-0.441,0.101-0.855,0.15-1.242,0.15c-0.657,0-1.208-0.104-1.654-0.314
				c-0.446-0.211-0.779-0.523-0.998-0.939c-0.112-0.196-0.192-0.43-0.24-0.699s-0.071-0.684-0.071-1.246v-0.261v-2.812h-1.432
				c-0.235,0-0.406-0.046-0.513-0.139c-0.107-0.093-0.16-0.243-0.16-0.451c0-0.23,0.072-0.387,0.219-0.471
				c0.146-0.084,0.457-0.126,0.935-0.126h0.951v-1.726v-0.446c0-0.241,0.052-0.419,0.156-0.535c0.104-0.115,0.265-0.172,0.483-0.172
				c0.247,0,0.418,0.07,0.514,0.21s0.144,0.46,0.144,0.96v1.709H47.383z"/>
			<path fill="#754E1F" d="M52.587,55.502c0.044,0.809,0.318,1.433,0.82,1.874c0.502,0.441,1.188,0.661,2.059,0.661
				c0.657,0,1.372-0.176,2.147-0.526c0.774-0.351,1.243-0.526,1.405-0.526c0.169,0,0.309,0.054,0.421,0.16s0.169,0.239,0.169,0.396
				c0,0.163-0.059,0.312-0.177,0.446s-0.306,0.267-0.564,0.396c-0.562,0.275-1.141,0.486-1.738,0.632s-1.191,0.219-1.781,0.219
				c-1.279,0-2.304-0.369-3.072-1.106c-0.77-0.738-1.154-1.717-1.154-2.935c0-1.24,0.407-2.245,1.222-3.014
				c0.813-0.769,1.874-1.153,3.182-1.153c1.185,0,2.167,0.359,2.947,1.078c0.78,0.719,1.17,1.588,1.17,2.61
				c0,0.314-0.065,0.525-0.197,0.631s-0.49,0.16-1.073,0.16h-0.127H52.587z M52.629,54.4h5.48c-0.084-0.668-0.363-1.206-0.838-1.612
				c-0.474-0.407-1.057-0.611-1.747-0.611c-0.746,0-1.375,0.197-1.886,0.589C53.128,53.159,52.791,53.704,52.629,54.4z"/>
			<path fill="#754E1F" d="M64.954,57.835h2.795c0.219,0,0.38,0.047,0.484,0.139c0.104,0.093,0.155,0.24,0.155,0.441
				c0,0.23-0.049,0.39-0.147,0.477c-0.098,0.087-0.279,0.131-0.543,0.131h-5.506c-0.219,0-0.385-0.051-0.497-0.152
				c-0.112-0.101-0.168-0.252-0.168-0.455c0-0.195,0.058-0.342,0.172-0.438c0.115-0.095,0.294-0.143,0.535-0.143h1.465v-5.397
				h-0.572c-0.545,0-0.884-0.043-1.019-0.13s-0.202-0.246-0.202-0.476c0-0.196,0.055-0.344,0.164-0.442s0.276-0.147,0.501-0.147
				h1.92c0.151,0,0.266,0.03,0.345,0.088c0.078,0.059,0.118,0.145,0.118,0.257v1.432c0.533-0.668,1.089-1.165,1.667-1.49
				c0.578-0.326,1.201-0.488,1.869-0.488c0.499,0,0.903,0.101,1.212,0.303s0.463,0.463,0.463,0.783c0,0.208-0.077,0.392-0.231,0.551
				c-0.154,0.16-0.324,0.24-0.509,0.24c-0.13,0-0.347-0.085-0.652-0.257c-0.307-0.171-0.58-0.257-0.821-0.257
				c-0.438,0-0.899,0.156-1.385,0.467s-1.023,0.804-1.612,1.478V57.835z"/>
			<path fill="#754E1F" d="M72.271,52.438c-0.37,0-0.625-0.045-0.762-0.135c-0.138-0.09-0.207-0.247-0.207-0.472
				c0-0.196,0.057-0.344,0.169-0.442s0.28-0.147,0.505-0.147h2.357c0.32,0,0.533,0.044,0.64,0.131c0.107,0.087,0.16,0.24,0.16,0.458
				c0,0.225-0.07,0.382-0.21,0.472c-0.141,0.09-0.398,0.135-0.774,0.135h-0.312l2.188,5.448l2.434-5.448h-0.506
				c-0.432,0-0.724-0.043-0.875-0.13s-0.228-0.246-0.228-0.476c0-0.219,0.054-0.372,0.16-0.458s0.319-0.131,0.64-0.131h2.602
				c0.225,0,0.393,0.049,0.505,0.147s0.169,0.246,0.169,0.442c0,0.225-0.069,0.382-0.206,0.472c-0.138,0.09-0.392,0.135-0.763,0.135
				h-0.151l-2.778,6.137c-0.141,0.309-0.279,0.51-0.417,0.603s-0.338,0.14-0.602,0.14c-0.241,0-0.428-0.046-0.56-0.135
				c-0.133-0.09-0.269-0.293-0.409-0.607L72.271,52.438z"/>
			<path fill="#754E1F" d="M88.411,57.952c-0.461,0.416-0.962,0.732-1.503,0.952c-0.542,0.219-1.099,0.328-1.672,0.328
				c-0.836,0-1.511-0.233-2.024-0.698c-0.514-0.467-0.771-1.072-0.771-1.819c0-0.887,0.341-1.574,1.022-2.062
				c0.683-0.488,1.641-0.732,2.876-0.732c0.325,0,0.653,0.021,0.984,0.063s0.671,0.108,1.02,0.198v-0.059
				c0-0.646-0.155-1.123-0.464-1.432c-0.309-0.309-0.788-0.463-1.439-0.463c-0.438,0-0.926,0.118-1.465,0.354
				s-0.896,0.354-1.069,0.354c-0.163,0-0.298-0.066-0.404-0.198s-0.16-0.302-0.16-0.509c0-0.331,0.311-0.612,0.931-0.842
				c0.62-0.23,1.413-0.345,2.379-0.345c0.987,0,1.734,0.251,2.239,0.753s0.758,1.245,0.758,2.227v3.814h0.412
				c0.398,0,0.665,0.042,0.8,0.126c0.135,0.085,0.202,0.235,0.202,0.454c0,0.203-0.056,0.354-0.168,0.455
				c-0.112,0.102-0.281,0.152-0.505,0.152h-1.322c-0.157,0-0.286-0.049-0.388-0.144c-0.101-0.095-0.168-0.233-0.201-0.413
				L88.411,57.952z M88.344,55.301c-0.31-0.101-0.608-0.176-0.897-0.223c-0.289-0.048-0.576-0.072-0.862-0.072
				c-0.864,0-1.547,0.146-2.046,0.438c-0.5,0.292-0.75,0.684-0.75,1.178c0,0.383,0.156,0.696,0.468,0.943s0.708,0.371,1.191,0.371
				c0.713,0,1.373-0.188,1.982-0.561s0.914-0.762,0.914-1.166V55.301z"/>
			<path fill="#754E1F" d="M96.258,49.213h-1.432c-0.544,0-0.885-0.043-1.022-0.13c-0.138-0.087-0.206-0.246-0.206-0.476
				c0-0.202,0.057-0.354,0.172-0.455s0.282-0.151,0.501-0.151h2.778c0.152,0,0.27,0.031,0.354,0.093
				c0.084,0.062,0.126,0.146,0.126,0.252v9.489h2.644c0.213,0,0.369,0.047,0.467,0.139c0.099,0.093,0.147,0.24,0.147,0.441
				c0,0.23-0.048,0.39-0.143,0.477c-0.096,0.087-0.275,0.131-0.539,0.131h-6.214c-0.219,0-0.386-0.051-0.501-0.152
				c-0.115-0.101-0.172-0.252-0.172-0.455c0-0.195,0.059-0.342,0.177-0.438c0.117-0.095,0.294-0.143,0.53-0.143h2.332V49.213z"/>
		</g>
		<g>
			<path fill="#754E1F" d="M170.532,54.021c0,1.538-0.427,2.799-1.28,3.784c-0.853,0.985-1.944,1.478-3.274,1.478
				c-1.319,0-2.407-0.494-3.263-1.481c-0.856-0.987-1.284-2.248-1.284-3.78c0-1.549,0.424-2.813,1.271-3.793
				s1.939-1.469,3.275-1.469c1.33,0,2.422,0.494,3.274,1.481C170.105,51.228,170.532,52.488,170.532,54.021z M165.977,58.087
				c0.942,0,1.685-0.36,2.227-1.082c0.542-0.721,0.812-1.716,0.812-2.984s-0.271-2.264-0.812-2.985s-1.284-1.082-2.227-1.082
				c-0.949,0-1.691,0.358-2.228,1.074c-0.536,0.715-0.804,1.713-0.804,2.993c0,1.269,0.271,2.264,0.812,2.984
				C164.299,57.727,165.04,58.087,165.977,58.087z"/>
			<path fill="#754E1F" d="M174.228,55.915c0,0.708,0.148,1.223,0.446,1.549c0.297,0.326,0.769,0.488,1.414,0.488
				c0.612,0,1.136-0.193,1.57-0.581s0.652-0.872,0.652-1.457v-3.477h-1.153c-0.219,0-0.377-0.046-0.476-0.139
				c-0.099-0.092-0.147-0.237-0.147-0.434c0-0.213,0.054-0.37,0.16-0.471s0.277-0.152,0.514-0.152h1.793
				c0.214,0,0.363,0.046,0.451,0.139c0.087,0.093,0.13,0.318,0.13,0.678v5.776h0.388c0.274,0,0.473,0.045,0.594,0.135
				c0.12,0.09,0.181,0.238,0.181,0.445c0,0.202-0.058,0.354-0.173,0.455s-0.282,0.151-0.501,0.151h-1.279
				c-0.151,0-0.27-0.03-0.354-0.093c-0.085-0.062-0.127-0.146-0.127-0.252v-0.572c-0.538,0.414-1,0.699-1.385,0.854
				s-0.79,0.232-1.217,0.232c-0.926,0-1.62-0.246-2.084-0.737c-0.463-0.491-0.694-1.233-0.694-2.228v-3.788h-0.177
				c-0.382,0-0.643-0.045-0.783-0.135c-0.14-0.09-0.21-0.247-0.21-0.472c0-0.196,0.055-0.344,0.164-0.442s0.279-0.147,0.509-0.147
				h1.271c0.196,0,0.333,0.04,0.408,0.118c0.076,0.079,0.114,0.252,0.114,0.522V55.915z"/>
			<path fill="#754E1F" d="M188.97,51.713c0.275,0,0.476,0.048,0.603,0.143c0.126,0.096,0.189,0.247,0.189,0.455
				c0,0.197-0.06,0.344-0.177,0.442c-0.118,0.098-0.295,0.147-0.53,0.147h-3.41v2.812c0,0.921,0.119,1.527,0.357,1.819
				s0.647,0.438,1.226,0.438c0.511,0,1.122-0.149,1.835-0.447c0.713-0.297,1.153-0.445,1.322-0.445c0.157,0,0.29,0.056,0.399,0.168
				s0.164,0.25,0.164,0.412c0,0.186-0.068,0.348-0.206,0.484c-0.138,0.138-0.372,0.271-0.703,0.4
				c-0.55,0.219-1.045,0.379-1.485,0.479c-0.441,0.101-0.855,0.151-1.242,0.151c-0.657,0-1.208-0.105-1.654-0.315
				s-0.779-0.523-0.998-0.938c-0.112-0.197-0.192-0.43-0.24-0.699s-0.071-0.685-0.071-1.246v-0.261V52.9h-1.432
				c-0.235,0-0.406-0.046-0.513-0.139c-0.107-0.093-0.16-0.243-0.16-0.451c0-0.23,0.072-0.387,0.219-0.471
				c0.146-0.084,0.457-0.126,0.935-0.126h0.951v-1.726v-0.446c0-0.241,0.052-0.419,0.156-0.535c0.104-0.115,0.265-0.172,0.483-0.172
				c0.247,0,0.418,0.07,0.514,0.21s0.144,0.46,0.144,0.96v1.709H188.97z"/>
		</g>
		<g>
			<path fill="#754E1F" d="M49.868,84.437c0,1.538-0.427,2.8-1.28,3.785c-0.853,0.984-1.944,1.478-3.274,1.478
				c-1.319,0-2.407-0.494-3.263-1.481c-0.856-0.988-1.284-2.248-1.284-3.781c0-1.549,0.424-2.812,1.271-3.793
				c0.848-0.979,1.939-1.469,3.275-1.469c1.33,0,2.422,0.494,3.274,1.481C49.441,81.645,49.868,82.904,49.868,84.437z
				 M45.313,88.503c0.942,0,1.685-0.359,2.227-1.082c0.542-0.721,0.812-1.715,0.812-2.984c0-1.268-0.271-2.264-0.812-2.984
				s-1.284-1.082-2.227-1.082c-0.949,0-1.691,0.357-2.228,1.074c-0.536,0.715-0.804,1.713-0.804,2.992
				c0,1.27,0.271,2.264,0.812,2.984C43.635,88.144,44.375,88.503,45.313,88.503z"/>
			<path fill="#754E1F" d="M52.528,88.251v-5.396h-0.159c-0.382,0-0.645-0.045-0.788-0.135c-0.143-0.09-0.214-0.248-0.214-0.473
				c0-0.207,0.059-0.357,0.177-0.449c0.117-0.094,0.309-0.14,0.572-0.14h0.396h0.809c0.151,0,0.27,0.031,0.354,0.093
				c0.084,0.062,0.126,0.146,0.126,0.252v0.573c0.41-0.382,0.815-0.663,1.217-0.847c0.401-0.182,0.818-0.273,1.25-0.273
				c0.848,0,1.515,0.264,2,0.791c0.485,0.528,0.729,1.258,0.729,2.189v3.814h0.396c0.28,0,0.482,0.047,0.606,0.139
				c0.123,0.093,0.185,0.24,0.185,0.441c0,0.22-0.065,0.375-0.197,0.468s-0.366,0.14-0.703,0.14h-1.86
				c-0.359,0-0.59-0.043-0.69-0.127c-0.102-0.084-0.152-0.244-0.152-0.48c0-0.219,0.06-0.369,0.177-0.454
				c0.118-0.084,0.34-0.126,0.666-0.126h0.294v-3.502c0-0.657-0.148-1.158-0.446-1.504c-0.297-0.345-0.729-0.518-1.296-0.518
				c-0.573,0-1.078,0.193-1.516,0.581c-0.438,0.388-0.657,0.867-0.657,1.44v3.502h0.295c0.337,0,0.564,0.042,0.682,0.126
				c0.118,0.085,0.177,0.235,0.177,0.454c0,0.236-0.05,0.396-0.151,0.48c-0.101,0.084-0.348,0.127-0.74,0.127h-1.533h-0.454
				c-0.23,0-0.403-0.049-0.518-0.148c-0.115-0.098-0.173-0.25-0.173-0.459c0-0.224,0.065-0.377,0.197-0.458s0.389-0.122,0.771-0.122
				H52.528z"/>
			<path fill="#754E1F" d="M68.542,82.163V82.13c0-0.186,0.053-0.321,0.16-0.408c0.106-0.087,0.271-0.131,0.496-0.131
				c0.23,0,0.389,0.067,0.476,0.202s0.131,0.413,0.131,0.833v1.566c0,0.208-0.054,0.363-0.16,0.468
				c-0.106,0.104-0.267,0.155-0.479,0.155c-0.151,0-0.282-0.043-0.392-0.131c-0.109-0.086-0.243-0.268-0.4-0.543
				c-0.27-0.454-0.597-0.798-0.98-1.031c-0.385-0.232-0.827-0.35-1.326-0.35c-0.876,0-1.587,0.259-2.135,0.775
				c-0.547,0.516-0.82,1.184-0.82,2.004c0,0.836,0.262,1.52,0.787,2.05c0.524,0.53,1.199,0.796,2.024,0.796
				c0.376,0,0.734-0.053,1.074-0.156c0.339-0.104,0.66-0.26,0.964-0.467c0.106-0.067,0.249-0.172,0.43-0.312
				c0.364-0.298,0.65-0.446,0.858-0.446c0.174,0,0.315,0.055,0.425,0.164s0.164,0.252,0.164,0.426c0,0.443-0.419,0.896-1.259,1.359
				c-0.839,0.463-1.729,0.694-2.673,0.694c-1.218,0-2.232-0.39-3.044-1.171c-0.811-0.779-1.216-1.754-1.216-2.921
				s0.404-2.143,1.212-2.926c0.809-0.783,1.818-1.175,3.031-1.175c0.427,0,0.854,0.059,1.284,0.173
				C67.603,81.744,68.059,81.923,68.542,82.163z"/>
			<path fill="#754E1F" d="M73.51,85.919c0.044,0.809,0.318,1.433,0.82,1.873c0.502,0.441,1.188,0.661,2.059,0.661
				c0.657,0,1.372-0.176,2.147-0.526c0.774-0.351,1.243-0.526,1.405-0.526c0.169,0,0.309,0.054,0.421,0.16s0.169,0.239,0.169,0.396
				c0,0.163-0.059,0.312-0.177,0.446s-0.306,0.267-0.564,0.396c-0.562,0.275-1.141,0.486-1.738,0.632s-1.191,0.219-1.781,0.219
				c-1.279,0-2.304-0.369-3.072-1.106c-0.77-0.738-1.154-1.717-1.154-2.936c0-1.24,0.407-2.244,1.222-3.014
				c0.813-0.769,1.874-1.153,3.182-1.153c1.185,0,2.167,0.359,2.947,1.077c0.78,0.719,1.17,1.589,1.17,2.611
				c0,0.313-0.065,0.524-0.197,0.631s-0.49,0.16-1.073,0.16h-0.127H73.51z M73.552,84.815h5.48
				c-0.084-0.668-0.363-1.205-0.838-1.611c-0.474-0.408-1.057-0.611-1.747-0.611c-0.746,0-1.375,0.197-1.886,0.59
				S73.714,84.12,73.552,84.815z"/>
		</g>
		<g>
			<path fill="#754E1F" d="M138.226,88.204h0.572c0.326,0,0.555,0.045,0.689,0.135s0.203,0.238,0.203,0.445
				c0,0.225-0.059,0.383-0.178,0.473c-0.117,0.09-0.34,0.135-0.664,0.135h-2.83c-0.189,0-0.336-0.053-0.438-0.156
				s-0.15-0.254-0.15-0.451c0-0.207,0.055-0.355,0.168-0.445c0.111-0.09,0.297-0.135,0.555-0.135h0.279h0.488v-7.662h-0.488
				c-0.422,0-0.693-0.039-0.818-0.117c-0.123-0.079-0.184-0.228-0.184-0.447c0-0.189,0.049-0.334,0.146-0.429
				s0.246-0.144,0.441-0.144h3.553c0.859,0,1.5,0.041,1.924,0.123c0.424,0.081,0.783,0.22,1.074,0.416
				c0.377,0.253,0.672,0.587,0.889,1.002c0.215,0.416,0.324,0.861,0.324,1.339c0,0.646-0.197,1.2-0.594,1.663
				s-0.947,0.784-1.654,0.964c0.146,0.084,0.275,0.183,0.391,0.294c0.115,0.113,0.227,0.248,0.334,0.404l1.691,2.594h0.277
				c0.314,0,0.531,0.043,0.648,0.131c0.119,0.086,0.178,0.236,0.178,0.449c0,0.197-0.049,0.348-0.148,0.451
				c-0.098,0.104-0.242,0.156-0.434,0.156h-0.951c-0.275,0-0.545-0.203-0.809-0.607c-0.033-0.033-0.059-0.061-0.074-0.084
				l-1.617-2.449c-0.332-0.5-0.605-0.822-0.82-0.969c-0.217-0.146-0.502-0.219-0.855-0.219h-1.119V88.204z M138.226,80.542v3.402
				h1.742c0.785,0,1.377-0.143,1.773-0.426c0.395-0.283,0.592-0.705,0.592-1.268c0-0.566-0.193-0.993-0.58-1.279
				s-0.965-0.43-1.734-0.43H138.226z"/>
			<path fill="#754E1F" d="M147.605,85.872c0.045,0.809,0.318,1.433,0.82,1.873c0.502,0.441,1.189,0.661,2.059,0.661
				c0.658,0,1.373-0.176,2.148-0.526c0.773-0.351,1.242-0.526,1.404-0.526c0.17,0,0.309,0.054,0.422,0.16
				c0.111,0.106,0.168,0.239,0.168,0.396c0,0.163-0.059,0.312-0.176,0.446c-0.119,0.135-0.307,0.267-0.564,0.396
				c-0.562,0.275-1.141,0.486-1.738,0.632s-1.191,0.219-1.781,0.219c-1.279,0-2.305-0.369-3.072-1.106
				c-0.77-0.738-1.154-1.717-1.154-2.936c0-1.24,0.406-2.244,1.221-3.014c0.814-0.769,1.875-1.153,3.182-1.153
				c1.186,0,2.168,0.359,2.947,1.077c0.781,0.719,1.17,1.589,1.17,2.611c0,0.313-0.064,0.524-0.197,0.631
				c-0.131,0.106-0.49,0.16-1.072,0.16h-0.127H147.605z M147.648,84.769h5.48c-0.084-0.668-0.363-1.205-0.838-1.611
				c-0.475-0.408-1.057-0.611-1.748-0.611c-0.746,0-1.375,0.197-1.885,0.59C148.146,83.528,147.81,84.073,147.648,84.769z"/>
			<path fill="#754E1F" d="M158.626,91.546h2.02c0.215,0,0.375,0.051,0.48,0.152c0.107,0.102,0.16,0.252,0.16,0.455
				c0,0.219-0.053,0.373-0.156,0.463s-0.287,0.135-0.551,0.135h-3.713c-0.225,0-0.395-0.051-0.51-0.152
				c-0.115-0.101-0.172-0.25-0.172-0.445c0-0.225,0.07-0.383,0.215-0.473c0.143-0.09,0.408-0.135,0.795-0.135h0.16v-8.738h-0.16
				c-0.387,0-0.652-0.045-0.795-0.135c-0.145-0.09-0.215-0.248-0.215-0.473c0-0.195,0.057-0.344,0.172-0.441s0.285-0.147,0.51-0.147
				h1.279c0.168,0,0.291,0.028,0.367,0.085c0.074,0.056,0.113,0.143,0.113,0.26v0.817c0.381-0.394,0.805-0.688,1.268-0.884
				c0.463-0.197,0.961-0.295,1.494-0.295c1.127,0,2.07,0.382,2.828,1.145c0.758,0.764,1.137,1.721,1.137,2.871
				c0,1.106-0.359,2.016-1.078,2.729c-0.717,0.713-1.635,1.068-2.752,1.068c-0.596,0-1.143-0.104-1.643-0.314
				c-0.5-0.211-0.918-0.513-1.254-0.906V91.546z M161.236,88.171c0.781,0,1.42-0.246,1.92-0.737s0.75-1.127,0.75-1.907
				c0-0.764-0.252-1.393-0.754-1.891c-0.502-0.496-1.141-0.744-1.916-0.744c-0.773,0-1.408,0.246-1.902,0.74s-0.74,1.126-0.74,1.895
				c0,0.775,0.244,1.409,0.736,1.902C159.82,87.923,160.457,88.171,161.236,88.171z"/>
			<path fill="#754E1F" d="M168.3,85.872c0.045,0.809,0.318,1.433,0.82,1.873c0.502,0.441,1.189,0.661,2.059,0.661
				c0.658,0,1.373-0.176,2.148-0.526c0.773-0.351,1.242-0.526,1.404-0.526c0.17,0,0.309,0.054,0.422,0.16
				c0.111,0.106,0.168,0.239,0.168,0.396c0,0.163-0.059,0.312-0.176,0.446c-0.119,0.135-0.307,0.267-0.564,0.396
				c-0.562,0.275-1.141,0.486-1.738,0.632s-1.191,0.219-1.781,0.219c-1.279,0-2.305-0.369-3.072-1.106
				c-0.77-0.738-1.154-1.717-1.154-2.936c0-1.24,0.406-2.244,1.221-3.014c0.814-0.769,1.875-1.153,3.182-1.153
				c1.186,0,2.168,0.359,2.947,1.077c0.781,0.719,1.17,1.589,1.17,2.611c0,0.313-0.064,0.524-0.197,0.631
				c-0.131,0.106-0.49,0.16-1.072,0.16h-0.127H168.3z M168.343,84.769h5.48c-0.084-0.668-0.363-1.205-0.838-1.611
				c-0.475-0.408-1.057-0.611-1.748-0.611c-0.746,0-1.375,0.197-1.885,0.59C168.841,83.528,168.505,84.073,168.343,84.769z"/>
			<path fill="#754E1F" d="M183.429,88.321c-0.461,0.416-0.961,0.732-1.502,0.952c-0.543,0.219-1.1,0.328-1.672,0.328
				c-0.836,0-1.512-0.233-2.025-0.698c-0.514-0.467-0.77-1.072-0.77-1.819c0-0.887,0.34-1.574,1.021-2.062
				c0.684-0.488,1.641-0.732,2.877-0.732c0.324,0,0.652,0.021,0.984,0.063c0.33,0.041,0.67,0.107,1.02,0.197v-0.059
				c0-0.646-0.156-1.123-0.465-1.432s-0.787-0.463-1.439-0.463c-0.438,0-0.926,0.117-1.465,0.354s-0.895,0.354-1.068,0.354
				c-0.164,0-0.299-0.066-0.404-0.197c-0.107-0.133-0.16-0.303-0.16-0.51c0-0.331,0.311-0.611,0.93-0.842
				c0.621-0.23,1.414-0.346,2.379-0.346c0.988,0,1.734,0.252,2.24,0.754c0.504,0.502,0.758,1.244,0.758,2.227v3.814h0.412
				c0.398,0,0.664,0.042,0.799,0.126c0.135,0.085,0.203,0.235,0.203,0.454c0,0.203-0.057,0.354-0.168,0.455
				c-0.113,0.102-0.281,0.152-0.506,0.152h-1.322c-0.156,0-0.285-0.049-0.387-0.144s-0.168-0.233-0.201-0.413L183.429,88.321z
				 M183.363,85.67c-0.311-0.101-0.609-0.176-0.898-0.224c-0.289-0.047-0.576-0.071-0.861-0.071c-0.865,0-1.547,0.146-2.047,0.438
				c-0.5,0.291-0.75,0.684-0.75,1.178c0,0.383,0.156,0.696,0.469,0.943c0.311,0.247,0.707,0.371,1.191,0.371
				c0.713,0,1.373-0.188,1.982-0.561s0.914-0.762,0.914-1.166V85.67z"/>
			<path fill="#754E1F" d="M194.138,82.083c0.275,0,0.477,0.048,0.604,0.143c0.125,0.096,0.189,0.248,0.189,0.455
				c0,0.197-0.061,0.344-0.178,0.442s-0.295,0.147-0.529,0.147h-3.41v2.812c0,0.921,0.119,1.526,0.357,1.819
				c0.238,0.291,0.646,0.438,1.225,0.438c0.512,0,1.123-0.148,1.836-0.446s1.152-0.446,1.322-0.446c0.156,0,0.289,0.057,0.398,0.168
				c0.109,0.113,0.164,0.25,0.164,0.413c0,0.185-0.068,0.347-0.205,0.483c-0.139,0.139-0.373,0.271-0.703,0.4
				c-0.551,0.219-1.045,0.379-1.486,0.48c-0.441,0.101-0.855,0.15-1.242,0.15c-0.656,0-1.207-0.104-1.654-0.314
				c-0.445-0.211-0.779-0.523-0.998-0.939c-0.111-0.196-0.191-0.43-0.24-0.699c-0.047-0.27-0.07-0.684-0.07-1.246v-0.261v-2.812
				h-1.432c-0.236,0-0.406-0.047-0.514-0.139c-0.107-0.094-0.16-0.243-0.16-0.451c0-0.23,0.072-0.387,0.219-0.471
				c0.146-0.085,0.457-0.127,0.936-0.127h0.951v-1.727v-0.445c0-0.242,0.051-0.42,0.156-0.535c0.104-0.115,0.264-0.172,0.482-0.172
				c0.248,0,0.418,0.07,0.514,0.21s0.145,0.46,0.145,0.96v1.709H194.138z"/>
		</g>
		<g>
			<path fill="#754E1F" d="M26.981,14.74h-2.143v7.649h1.723c0.458,0,0.786,0.089,0.984,0.267s0.297,0.465,0.297,0.861
				c0,0.403-0.099,0.694-0.297,0.872s-0.526,0.267-0.984,0.267H20.47c-0.451,0-0.776-0.089-0.974-0.267s-0.297-0.468-0.297-0.872
				s0.097-0.692,0.292-0.867c0.194-0.174,0.521-0.261,0.979-0.261h1.723V14.74H20.05l-0.062,2.082v0.256
				c0,0.328-0.091,0.584-0.271,0.769c-0.182,0.185-0.433,0.277-0.754,0.277c-0.383,0-0.665-0.097-0.846-0.292
				c-0.182-0.194-0.272-0.504-0.272-0.928v-0.082l0.113-3.066c0.021-0.608,0.104-0.974,0.251-1.097s0.446-0.185,0.897-0.185h8.818
				c0.451,0,0.75,0.062,0.897,0.185c0.146,0.123,0.234,0.489,0.261,1.097l0.103,3.066v0.082c0,0.431-0.085,0.742-0.256,0.933
				s-0.448,0.287-0.831,0.287c-0.369,0-0.634-0.094-0.794-0.282c-0.161-0.188-0.248-0.528-0.262-1.021L26.981,14.74z"/>
			<path fill="#754E1F" d="M37.553,22.41h2.205c0.472,0,0.807,0.085,1.005,0.256s0.297,0.455,0.297,0.851
				c0,0.403-0.101,0.694-0.303,0.872s-0.535,0.267-1,0.267h-6.932c-0.465,0-0.798-0.089-1-0.267
				c-0.202-0.178-0.303-0.468-0.303-0.872c0-0.396,0.098-0.68,0.292-0.851c0.195-0.171,0.532-0.256,1.01-0.256h2.205v-4.983h-1.159
				c-0.458,0-0.786-0.087-0.984-0.261c-0.198-0.175-0.297-0.463-0.297-0.867s0.096-0.69,0.287-0.861s0.523-0.256,0.995-0.256h3.086
				c0.191,0,0.338,0.04,0.441,0.118s0.154,0.186,0.154,0.323V22.41z M36.077,10.546c0.499,0,0.831,0.096,0.995,0.287
				s0.246,0.649,0.246,1.374c0,0.697-0.074,1.13-0.22,1.297c-0.147,0.168-0.494,0.251-1.041,0.251c-0.533,0-0.877-0.079-1.03-0.236
				c-0.154-0.157-0.231-0.472-0.231-0.943c0-0.875,0.079-1.432,0.236-1.671S35.537,10.546,36.077,10.546z"/>
			<path fill="#754E1F" d="M49.376,15.878c0.287-0.308,0.619-0.542,0.995-0.702s0.779-0.241,1.21-0.241c0.93,0,1.6,0.275,2.01,0.825
				c0.41,0.551,0.615,1.472,0.615,2.764v3.886h0.144c0.321,0,0.562,0.094,0.723,0.282c0.16,0.188,0.241,0.463,0.241,0.826
				c0,0.41-0.084,0.703-0.251,0.876c-0.167,0.175-0.453,0.262-0.856,0.262h-1.743c-0.185,0-0.328-0.039-0.431-0.118
				c-0.103-0.078-0.154-0.186-0.154-0.323v-5.793c0-0.458-0.072-0.8-0.215-1.025s-0.352-0.338-0.625-0.338
				c-0.342,0-0.607,0.152-0.795,0.457s-0.282,0.74-0.282,1.307v3.589h0.154c0.314,0,0.554,0.094,0.718,0.282
				c0.164,0.188,0.246,0.463,0.246,0.826c0,0.41-0.085,0.703-0.256,0.876c-0.171,0.175-0.458,0.262-0.861,0.262h-1.743
				c-0.185,0-0.332-0.039-0.441-0.118c-0.109-0.078-0.164-0.186-0.164-0.323v-5.793c0-0.458-0.068-0.8-0.205-1.025
				s-0.342-0.338-0.615-0.338c-0.342,0-0.61,0.154-0.805,0.461c-0.195,0.308-0.292,0.742-0.292,1.302v3.589h0.154
				c0.321,0,0.562,0.092,0.723,0.277s0.241,0.461,0.241,0.831c0,0.41-0.085,0.703-0.256,0.876c-0.171,0.175-0.458,0.262-0.861,0.262
				h-2.328c-0.396,0-0.68-0.089-0.851-0.267s-0.256-0.468-0.256-0.872c0-0.362,0.081-0.637,0.241-0.826
				c0.16-0.188,0.401-0.282,0.723-0.282h0.144v-4.983h-0.144c-0.321,0-0.566-0.097-0.733-0.292
				c-0.167-0.194-0.251-0.473-0.251-0.835c0-0.396,0.087-0.682,0.262-0.856c0.174-0.175,0.463-0.262,0.866-0.262h1.384
				c0.28,0,0.47,0.057,0.569,0.169c0.099,0.113,0.149,0.33,0.149,0.651c0.253-0.349,0.557-0.613,0.913-0.795
				c0.355-0.181,0.752-0.271,1.189-0.271c0.396,0,0.742,0.077,1.036,0.23C48.901,15.32,49.157,15.557,49.376,15.878z"/>
			<path fill="#754E1F" d="M58.533,20.523c0.178,0.759,0.521,1.326,1.03,1.702s1.188,0.564,2.036,0.564s1.685-0.207,2.512-0.62
				s1.326-0.621,1.497-0.621c0.253,0,0.459,0.094,0.62,0.282c0.161,0.188,0.241,0.429,0.241,0.723c0,0.643-0.475,1.196-1.425,1.661
				s-2.126,0.697-3.527,0.697c-1.654,0-3-0.465-4.035-1.395c-1.036-0.93-1.554-2.126-1.554-3.589c0-1.456,0.518-2.649,1.554-3.579
				c1.035-0.93,2.38-1.395,4.035-1.395c1.477,0,2.7,0.436,3.671,1.308c0.971,0.871,1.456,1.939,1.456,3.204
				c0,0.403-0.097,0.68-0.292,0.831c-0.194,0.15-0.596,0.226-1.205,0.226H58.533z M64.06,18.924
				c-0.116-0.636-0.416-1.128-0.897-1.477c-0.482-0.349-1.109-0.523-1.882-0.523c-0.745,0-1.345,0.166-1.8,0.497
				c-0.455,0.332-0.771,0.833-0.948,1.502H64.06z"/>
			<path fill="#754E1F" d="M73.462,19.088v3.322h2.42c0.465,0,0.794,0.085,0.99,0.256c0.194,0.171,0.292,0.455,0.292,0.851
				c0,0.403-0.098,0.694-0.292,0.872c-0.195,0.178-0.525,0.267-0.99,0.267H70.15c-0.472,0-0.807-0.089-1.005-0.267
				s-0.297-0.468-0.297-0.872c0-0.396,0.097-0.68,0.292-0.851c0.194-0.171,0.531-0.256,1.01-0.256h0.779v-4.983h-0.441
				c-0.465,0-0.794-0.087-0.99-0.261c-0.194-0.175-0.292-0.463-0.292-0.867s0.094-0.69,0.282-0.861c0.188-0.171,0.521-0.256,1-0.256
				h2.184c0.185,0,0.328,0.04,0.431,0.118s0.154,0.186,0.154,0.323v1.518c0.745-0.8,1.441-1.371,2.086-1.712
				c0.646-0.342,1.342-0.513,2.087-0.513c0.677,0,1.213,0.152,1.61,0.456c0.396,0.305,0.595,0.713,0.595,1.226
				c0,0.396-0.137,0.723-0.41,0.979c-0.273,0.256-0.625,0.384-1.056,0.384c-0.308,0-0.672-0.113-1.092-0.338
				c-0.421-0.226-0.713-0.338-0.877-0.338c-0.328,0-0.714,0.147-1.159,0.441S74.071,18.473,73.462,19.088z"/>
		</g>
		<circle fill="#FFFFFF" cx="21.725" cy="83.501" r="9.936"/>
		<circle fill="#FFFFFF" cx="116.515" cy="83.501" r="9.936"/>
	</g>
</g>
<circle fill="#754E1F" cx="21.292" cy="83.852" r="4.446"/>
<circle fill="#754E1F" cx="116.515" cy="83.852" r="4.446"/>
</svg>
