<?xml version="1.0" encoding="utf-8"?>
<!-- Generator: Adobe Illustrator 16.0.0, SVG Export Plug-In . SVG Version: 6.00 Build 0)  -->
<!DOCTYPE svg PUBLIC "-//W3C//DTD SVG 1.1//EN" "http://www.w3.org/Graphics/SVG/1.1/DTD/svg11.dtd">
<svg version="1.1" id="Layer_1" xmlns="http://www.w3.org/2000/svg" xmlns:xlink="http://www.w3.org/1999/xlink" x="0px" y="0px"
	 width="170.985px" height="39.784px" viewBox="0 0 170.985 39.784" enable-background="new 0 0 170.985 39.784"
	 xml:space="preserve">
<g>
	<path fill="#F7C55A" d="M170.985,33.151c0,3.662-2.971,6.633-6.635,6.633H6.633C2.97,39.784,0,36.813,0,33.151V6.634
		C0,2.97,2.97,0,6.633,0h157.718c3.664,0,6.635,2.97,6.635,6.634V33.151z"/>
	<path fill="#F8E5AE" d="M164.737,0H94.665v39.784h70.072c3.439,0,6.225-2.971,6.225-6.633V6.634C170.962,2.97,168.177,0,164.737,0z
		"/>
	<g>
		<path fill="#754E1F" d="M18.754,15.827h-2.143v7.649h1.723c0.458,0,0.786,0.089,0.984,0.267s0.297,0.465,0.297,0.861
			c0,0.403-0.099,0.693-0.297,0.871s-0.526,0.268-0.984,0.268h-6.091c-0.451,0-0.776-0.09-0.974-0.268s-0.297-0.468-0.297-0.871
			s0.097-0.691,0.292-0.867c0.194-0.174,0.521-0.261,0.979-0.261h1.723v-7.649h-2.143l-0.062,2.082v0.256
			c0,0.328-0.091,0.584-0.271,0.769c-0.182,0.185-0.433,0.277-0.754,0.277c-0.383,0-0.665-0.097-0.846-0.292
			c-0.182-0.194-0.272-0.504-0.272-0.928v-0.082l0.113-3.066c0.021-0.608,0.104-0.974,0.251-1.097s0.446-0.185,0.897-0.185h8.818
			c0.451,0,0.75,0.062,0.897,0.185c0.146,0.123,0.234,0.489,0.261,1.097l0.103,3.066v0.082c0,0.431-0.085,0.742-0.256,0.933
			s-0.448,0.287-0.831,0.287c-0.369,0-0.634-0.094-0.794-0.282c-0.161-0.188-0.248-0.528-0.262-1.021L18.754,15.827z"/>
		<path fill="#754E1F" d="M27.89,16.042c1.661,0,3.008,0.465,4.04,1.395s1.548,2.123,1.548,3.579c0,1.463-0.516,2.659-1.548,3.589
			s-2.379,1.395-4.04,1.395c-1.654,0-2.998-0.465-4.03-1.395s-1.548-2.126-1.548-3.589c0-1.456,0.518-2.649,1.554-3.579
			C24.901,16.507,26.243,16.042,27.89,16.042z M27.89,18.206c-0.8,0-1.458,0.261-1.974,0.785c-0.517,0.522-0.774,1.191-0.774,2.004
			c0,0.82,0.258,1.499,0.774,2.035c0.516,0.537,1.174,0.805,1.974,0.805s1.459-0.268,1.979-0.805
			c0.52-0.536,0.779-1.215,0.779-2.035c0-0.813-0.258-1.482-0.774-2.004C29.358,18.467,28.697,18.206,27.89,18.206z"/>
		<path fill="#754E1F" d="M42.594,17.222v-0.533c0-0.137,0.049-0.241,0.149-0.313c0.099-0.071,0.248-0.107,0.446-0.107h1.671
			c0.472,0,0.803,0.087,0.995,0.262c0.191,0.174,0.287,0.459,0.287,0.856c0,0.369-0.094,0.649-0.282,0.841
			c-0.188,0.191-0.463,0.287-0.826,0.287H44.86v7.065c0,1.496-0.407,2.584-1.22,3.26c-0.813,0.678-2.119,1.016-3.917,1.016
			c-1.114,0-1.933-0.109-2.456-0.328c-0.523-0.219-0.785-0.564-0.785-1.035c0-0.328,0.106-0.596,0.318-0.801
			s0.492-0.307,0.841-0.307c0.089,0,0.383,0.03,0.882,0.092s0.96,0.092,1.384,0.092c0.978,0,1.652-0.184,2.025-0.553
			s0.559-1.033,0.559-1.99v-0.461c-0.485,0.28-0.966,0.486-1.441,0.621c-0.475,0.133-0.969,0.199-1.481,0.199
			c-1.374,0-2.497-0.429-3.368-1.287c-0.872-0.857-1.308-1.96-1.308-3.307c0-1.388,0.456-2.529,1.369-3.425
			c0.912-0.896,2.08-1.343,3.501-1.343c0.615,0,1.155,0.098,1.62,0.292C41.849,16.509,42.252,16.812,42.594,17.222z M40.051,18.186
			c-0.67,0-1.225,0.243-1.667,0.728c-0.44,0.485-0.661,1.104-0.661,1.856c0,0.738,0.221,1.349,0.661,1.831
			c0.441,0.48,0.997,0.723,1.667,0.723c0.677,0,1.236-0.242,1.676-0.723c0.441-0.482,0.662-1.093,0.662-1.831
			c0-0.752-0.22-1.371-0.662-1.856C41.287,18.428,40.728,18.186,40.051,18.186z"/>
		<path fill="#754E1F" d="M55.196,17.222v-0.533c0-0.137,0.049-0.241,0.149-0.313c0.099-0.071,0.248-0.107,0.446-0.107h1.671
			c0.472,0,0.803,0.087,0.995,0.262c0.191,0.174,0.287,0.459,0.287,0.856c0,0.369-0.094,0.649-0.282,0.841
			c-0.188,0.191-0.463,0.287-0.826,0.287h-0.174v7.065c0,1.496-0.407,2.584-1.22,3.26c-0.813,0.678-2.119,1.016-3.917,1.016
			c-1.114,0-1.933-0.109-2.456-0.328c-0.523-0.219-0.785-0.564-0.785-1.035c0-0.328,0.106-0.596,0.318-0.801
			s0.492-0.307,0.841-0.307c0.089,0,0.383,0.03,0.882,0.092s0.96,0.092,1.384,0.092c0.978,0,1.652-0.184,2.025-0.553
			s0.559-1.033,0.559-1.99v-0.461c-0.485,0.28-0.966,0.486-1.441,0.621c-0.475,0.133-0.969,0.199-1.481,0.199
			c-1.374,0-2.497-0.429-3.368-1.287c-0.872-0.857-1.308-1.96-1.308-3.307c0-1.388,0.456-2.529,1.369-3.425
			c0.912-0.896,2.08-1.343,3.501-1.343c0.615,0,1.155,0.098,1.62,0.292C54.451,16.509,54.854,16.812,55.196,17.222z M52.653,18.186
			c-0.67,0-1.225,0.243-1.667,0.728c-0.44,0.485-0.661,1.104-0.661,1.856c0,0.738,0.221,1.349,0.661,1.831
			c0.441,0.48,0.997,0.723,1.667,0.723c0.677,0,1.236-0.242,1.676-0.723c0.441-0.482,0.662-1.093,0.662-1.831
			c0-0.752-0.22-1.371-0.662-1.856C53.889,18.428,53.33,18.186,52.653,18.186z"/>
		<path fill="#754E1F" d="M66.958,23.497h2.205c0.472,0,0.803,0.086,0.995,0.256c0.191,0.172,0.287,0.455,0.287,0.852
			c0,0.403-0.097,0.693-0.292,0.871c-0.194,0.178-0.524,0.268-0.989,0.268H62.21c-0.458,0-0.784-0.09-0.979-0.268
			c-0.194-0.178-0.292-0.468-0.292-0.871s0.094-0.688,0.282-0.855c0.188-0.168,0.518-0.252,0.989-0.252h2.205v-8.9h-1.128
			c-0.465,0-0.798-0.09-1-0.272c-0.202-0.181-0.303-0.47-0.303-0.866c0-0.403,0.099-0.694,0.297-0.872s0.533-0.267,1.005-0.267
			h3.066c0.191,0,0.34,0.04,0.446,0.118c0.105,0.079,0.159,0.187,0.159,0.323V23.497z"/>
		<path fill="#754E1F" d="M75.509,21.61c0.178,0.759,0.521,1.326,1.03,1.702s1.188,0.563,2.036,0.563s1.685-0.206,2.512-0.619
			c0.827-0.414,1.326-0.621,1.497-0.621c0.253,0,0.459,0.094,0.62,0.281c0.161,0.189,0.241,0.43,0.241,0.724
			c0,0.643-0.475,1.196-1.425,1.661s-2.126,0.697-3.527,0.697c-1.654,0-3-0.465-4.035-1.395c-1.036-0.93-1.554-2.126-1.554-3.589
			c0-1.456,0.518-2.649,1.554-3.579c1.035-0.93,2.38-1.395,4.035-1.395c1.477,0,2.7,0.436,3.671,1.308
			c0.971,0.871,1.456,1.939,1.456,3.204c0,0.403-0.097,0.68-0.292,0.831c-0.194,0.15-0.596,0.226-1.205,0.226H75.509z
			 M81.036,20.011c-0.116-0.636-0.416-1.128-0.897-1.477c-0.482-0.349-1.109-0.523-1.882-0.523c-0.745,0-1.345,0.166-1.8,0.497
			c-0.455,0.332-0.771,0.833-0.948,1.502H81.036z"/>
	</g>
	<g>
		<path fill="#754E1F" d="M111.1,12.309c0,1.252-0.347,2.28-1.042,3.082s-1.584,1.203-2.667,1.203c-1.074,0-1.96-0.402-2.657-1.207
			s-1.045-1.831-1.045-3.079c0-1.261,0.345-2.291,1.035-3.088c0.689-0.798,1.579-1.197,2.667-1.197c1.083,0,1.972,0.402,2.667,1.207
			C110.753,10.035,111.1,11.062,111.1,12.309z M107.391,15.621c0.768,0,1.372-0.293,1.813-0.881s0.662-1.397,0.662-2.431
			c0-1.033-0.221-1.843-0.662-2.43s-1.046-0.881-1.813-0.881c-0.772,0-1.378,0.292-1.813,0.875
			c-0.438,0.583-0.654,1.395-0.654,2.437c0,1.033,0.22,1.843,0.661,2.431C106.024,15.327,106.627,15.621,107.391,15.621z"/>
		<path fill="#754E1F" d="M115.762,15.415h0.268c0.192,0,0.331,0.038,0.418,0.113c0.087,0.075,0.13,0.195,0.13,0.36
			c0,0.16-0.041,0.282-0.123,0.367c-0.082,0.085-0.201,0.127-0.356,0.127h-3.38c-0.156,0-0.274-0.042-0.356-0.127
			c-0.083-0.084-0.124-0.207-0.124-0.367c0-0.169,0.045-0.29,0.135-0.363c0.088-0.073,0.24-0.11,0.455-0.11h0.227h0.432V9.238
			h-0.432c-0.348,0-0.57-0.036-0.668-0.106c-0.1-0.071-0.148-0.2-0.148-0.387c0-0.16,0.041-0.282,0.124-0.367
			c0.082-0.084,0.2-0.126,0.356-0.126h6.068c0.154,0,0.272,0.047,0.353,0.141c0.079,0.093,0.12,0.229,0.12,0.408v1.769
			c0,0.16-0.041,0.28-0.12,0.36c-0.08,0.08-0.198,0.12-0.353,0.12c-0.193,0-0.322-0.05-0.392-0.151
			c-0.068-0.101-0.103-0.327-0.103-0.679v-0.98h-3.723v2.311h1.81V11.37c0-0.334,0.032-0.558,0.097-0.672
			c0.063-0.114,0.178-0.172,0.342-0.172c0.146,0,0.253,0.044,0.319,0.13c0.065,0.087,0.099,0.227,0.099,0.418v1.741
			c0,0.229-0.03,0.387-0.092,0.473c-0.062,0.087-0.17,0.13-0.326,0.13c-0.164,0-0.278-0.057-0.342-0.171
			c-0.064-0.114-0.097-0.338-0.097-0.672v-0.199h-1.81v3.037H115.762z"/>
		<path fill="#754E1F" d="M124.188,15.415h0.268c0.191,0,0.33,0.038,0.418,0.113c0.086,0.075,0.13,0.195,0.13,0.36
			c0,0.16-0.041,0.282-0.124,0.367c-0.082,0.085-0.201,0.127-0.355,0.127h-3.381c-0.155,0-0.273-0.042-0.355-0.127
			c-0.083-0.084-0.124-0.207-0.124-0.367c0-0.169,0.044-0.29,0.134-0.363c0.089-0.073,0.24-0.11,0.455-0.11h0.227h0.432V9.238
			h-0.432c-0.348,0-0.57-0.036-0.668-0.106c-0.099-0.071-0.147-0.2-0.147-0.387c0-0.16,0.041-0.282,0.124-0.367
			c0.082-0.084,0.2-0.126,0.355-0.126h6.068c0.155,0,0.273,0.047,0.354,0.141c0.079,0.093,0.119,0.229,0.119,0.408v1.769
			c0,0.16-0.04,0.28-0.119,0.36c-0.08,0.08-0.198,0.12-0.354,0.12c-0.192,0-0.322-0.05-0.391-0.151s-0.104-0.327-0.104-0.679v-0.98
			h-3.723v2.311h1.811V11.37c0-0.334,0.031-0.558,0.096-0.672s0.178-0.172,0.343-0.172c0.146,0,0.253,0.044,0.319,0.13
			c0.065,0.087,0.099,0.227,0.099,0.418v1.741c0,0.229-0.03,0.387-0.093,0.473c-0.062,0.087-0.17,0.13-0.325,0.13
			c-0.165,0-0.278-0.057-0.343-0.171s-0.096-0.338-0.096-0.672v-0.199h-1.811v3.037H124.188z"/>
	</g>
	<g>
		<path fill="#754E1F" d="M141.896,12.309c0,1.252-0.347,2.28-1.042,3.082s-1.584,1.203-2.667,1.203
			c-1.074,0-1.96-0.402-2.657-1.207s-1.045-1.831-1.045-3.079c0-1.261,0.345-2.291,1.035-3.088c0.689-0.798,1.579-1.197,2.667-1.197
			c1.083,0,1.972,0.402,2.667,1.207C141.55,10.035,141.896,11.062,141.896,12.309z M138.188,15.621c0.768,0,1.372-0.293,1.813-0.881
			s0.662-1.397,0.662-2.431c0-1.033-0.221-1.843-0.662-2.43s-1.046-0.881-1.813-0.881c-0.772,0-1.378,0.292-1.813,0.875
			c-0.438,0.583-0.654,1.395-0.654,2.437c0,1.033,0.22,1.843,0.661,2.431C136.821,15.327,137.424,15.621,138.188,15.621z"/>
		<path fill="#754E1F" d="M144.749,15.415h0.35h0.507c0.247,0,0.423,0.037,0.528,0.11s0.158,0.194,0.158,0.363
			c0,0.188-0.05,0.316-0.148,0.387c-0.098,0.071-0.314,0.106-0.647,0.106h-1.714h-0.322c-0.165,0-0.288-0.041-0.371-0.124
			c-0.082-0.082-0.123-0.206-0.123-0.37c0-0.183,0.047-0.307,0.141-0.374s0.275-0.1,0.545-0.1h0.131V9.238h-0.172
			c-0.384,0-0.643-0.037-0.777-0.11c-0.136-0.073-0.203-0.201-0.203-0.384c0-0.169,0.059-0.292,0.175-0.367
			c0.116-0.075,0.306-0.113,0.565-0.113c0.184-0.009,0.32-0.014,0.412-0.014h0.645c0.21,0,0.357,0.024,0.441,0.072
			c0.085,0.048,0.185,0.17,0.299,0.367l3.455,5.965V9.238h-0.268h-0.486c-0.246,0-0.426-0.04-0.538-0.12s-0.168-0.205-0.168-0.374
			c0-0.188,0.048-0.316,0.144-0.388c0.096-0.071,0.297-0.106,0.604-0.106h1.639h0.329c0.165,0,0.287,0.041,0.367,0.123
			c0.079,0.083,0.12,0.206,0.12,0.371c0,0.183-0.049,0.311-0.148,0.384c-0.098,0.073-0.277,0.11-0.537,0.11h-0.082v6.904
			c0,0.132-0.031,0.224-0.094,0.274c-0.061,0.05-0.204,0.076-0.428,0.076c-0.225,0-0.363-0.013-0.415-0.038
			c-0.053-0.025-0.141-0.143-0.265-0.353l-3.646-6.287V15.415z"/>
	</g>
	<rect x="105.784" y="24.894" fill="#FFFFFF" width="42.604" height="1.461"/>
</g>
</svg>
