<?xml version="1.0" encoding="utf-8"?>
<!-- Generator: Adobe Illustrator 16.0.0, SVG Export Plug-In . SVG Version: 6.00 Build 0)  -->
<!DOCTYPE svg PUBLIC "-//W3C//DTD SVG 1.1//EN" "http://www.w3.org/Graphics/SVG/1.1/DTD/svg11.dtd">
<svg version="1.1" id="Layer_1" xmlns="http://www.w3.org/2000/svg" xmlns:xlink="http://www.w3.org/1999/xlink" x="0px" y="0px"
	 width="280.418px" height="373.316px" viewBox="0 0 280.418 373.316" enable-background="new 0 0 280.418 373.316"
	 xml:space="preserve">
<g>
	<g>
		<path fill="#117494" d="M280.205,359.143c0,7.819-6.346,14.169-14.176,14.169H14.216c-7.828,0-14.173-6.35-14.173-14.169V14.174
			C0.042,6.344,6.388,0,14.216,0h251.815c7.828,0,14.174,6.346,14.174,14.174V359.143L280.205,359.143z"/>
		<rect x="259.215" y="17.224" fill="#314847" width="20.99" height="342.162"/>
		<g>
			<path fill="#FFFFFF" d="M236.385,26.267v10.958h2.02c0.48,0,0.824,0.094,1.025,0.274c0.209,0.189,0.312,0.431,0.312,0.732
				c0,0.291-0.104,0.531-0.312,0.716c-0.201,0.186-0.545,0.275-1.025,0.275h-6.045c-0.479,0-0.828-0.095-1.03-0.275
				c-0.206-0.187-0.308-0.427-0.308-0.727c0-0.294,0.102-0.533,0.308-0.724c0.202-0.184,0.551-0.274,1.03-0.274h2.021v-8.351
				l-1.79,0.468c-0.284,0.078-0.501,0.117-0.646,0.117c-0.256,0-0.475-0.101-0.658-0.305c-0.186-0.198-0.273-0.449-0.273-0.742
				c0-0.265,0.063-0.475,0.205-0.627c0.135-0.153,0.42-0.289,0.855-0.406L236.385,26.267z"/>
			<path fill="#FFFFFF" d="M250.219,32.538c0.594,0.406,1.036,0.872,1.327,1.402c0.294,0.522,0.438,1.122,0.438,1.779
				c0,0.711-0.189,1.364-0.58,1.971c-0.391,0.602-0.945,1.057-1.687,1.367c-0.733,0.31-1.698,0.463-2.892,0.463
				c-1.553,0-2.717-0.241-3.497-0.727c-0.438-0.27-0.649-0.6-0.649-0.979c0-0.285,0.094-0.524,0.285-0.729
				c0.188-0.194,0.426-0.294,0.696-0.294c0.188,0,0.384,0.067,0.585,0.194c0.285,0.19,0.561,0.326,0.812,0.391
				c0.395,0.092,0.928,0.139,1.61,0.139c1.162,0,2.007-0.146,2.526-0.457c0.52-0.305,0.779-0.726,0.779-1.278
				c0-0.411-0.148-0.812-0.453-1.188c-0.306-0.381-0.707-0.675-1.215-0.887c-0.293-0.117-0.793-0.201-1.486-0.242
				c-0.328-0.021-0.586-0.123-0.768-0.312c-0.181-0.186-0.271-0.415-0.271-0.687c0-0.286,0.099-0.522,0.292-0.723
				c0.193-0.195,0.441-0.293,0.742-0.293c0.662,0,1.02-0.002,1.062-0.012c0.262-0.027,0.521-0.11,0.778-0.253
				c0.263-0.147,0.472-0.343,0.631-0.59c0.159-0.254,0.235-0.515,0.235-0.779c0-0.419-0.188-0.789-0.562-1.102
				c-0.375-0.306-0.936-0.462-1.686-0.462c-0.965,0-1.698,0.28-2.205,0.839c-0.146,0.164-0.271,0.271-0.362,0.312
				c-0.138,0.077-0.288,0.103-0.457,0.103c-0.272,0-0.509-0.096-0.702-0.291c-0.191-0.191-0.293-0.437-0.293-0.72
				c0-0.454,0.299-0.888,0.896-1.308c0.871-0.619,1.961-0.937,3.271-0.937c1.231,0,2.229,0.356,2.979,1.061
				c0.748,0.703,1.123,1.553,1.123,2.54c0,0.513-0.109,0.992-0.334,1.435C250.99,31.744,250.661,32.16,250.219,32.538z"/>
			<path fill="#FFFFFF" d="M236.385,50.268v10.959h2.02c0.48,0,0.824,0.095,1.025,0.277c0.209,0.186,0.312,0.424,0.312,0.726
				c0,0.294-0.104,0.532-0.312,0.721c-0.201,0.185-0.545,0.276-1.025,0.276h-6.045c-0.479,0-0.828-0.096-1.03-0.276
				c-0.206-0.188-0.308-0.431-0.308-0.729c0-0.294,0.102-0.532,0.308-0.718c0.202-0.188,0.551-0.277,1.03-0.277h2.021v-8.353
				l-1.79,0.47c-0.284,0.077-0.501,0.113-0.646,0.113c-0.256,0-0.475-0.099-0.658-0.302c-0.186-0.2-0.273-0.447-0.273-0.743
				c0-0.264,0.063-0.475,0.205-0.628c0.135-0.153,0.42-0.287,0.855-0.402L236.385,50.268z"/>
			<path fill="#FFFFFF" d="M245.493,61.227h4.386c0.239-0.191,0.469-0.292,0.686-0.292c0.31,0,0.549,0.1,0.729,0.305
				c0.179,0.196,0.271,0.542,0.271,1.03v0.959h-9.125v-2.118c3.604-2.979,5.785-4.896,6.531-5.743
				c0.381-0.438,0.566-0.852,0.566-1.239c0-0.486-0.212-0.918-0.641-1.292c-0.428-0.377-0.994-0.562-1.705-0.562
				c-0.717,0-1.312,0.21-1.785,0.625c-0.247,0.222-0.444,0.553-0.596,0.982c-0.096,0.277-0.22,0.472-0.379,0.589
				c-0.156,0.113-0.354,0.179-0.588,0.179c-0.273,0-0.515-0.104-0.71-0.296c-0.198-0.193-0.301-0.423-0.301-0.688
				c0-0.389,0.185-0.877,0.541-1.463c0.36-0.589,0.892-1.056,1.583-1.401c0.691-0.354,1.443-0.53,2.268-0.53
				c1.26,0,2.293,0.383,3.101,1.147c0.807,0.767,1.211,1.688,1.211,2.777c0,0.553-0.112,1.062-0.349,1.538
				c-0.229,0.472-0.785,1.125-1.664,1.957C248.838,58.35,247.492,59.527,245.493,61.227z"/>
			<path fill="#FFFFFF" d="M227.133,80.109c0.289,0,0.529,0.099,0.727,0.293c0.195,0.195,0.295,0.429,0.295,0.699
				c0,0.278-0.147,0.597-0.438,0.938c-0.439,0.514-0.812,0.879-1.113,1.093c-0.439,0.327-0.916,0.488-1.414,0.488
				c-0.379,0-0.754-0.092-1.125-0.281c-0.371-0.188-0.834-0.548-1.393-1.082c-0.561-0.523-0.913-0.793-1.068-0.793
				c-0.078,0-0.15,0.026-0.226,0.076c-0.147,0.094-0.378,0.317-0.698,0.675c-0.322,0.36-0.55,0.576-0.68,0.652
				c-0.131,0.072-0.264,0.11-0.393,0.11c-0.271,0-0.516-0.104-0.719-0.309c-0.205-0.2-0.309-0.434-0.309-0.705
				c0-0.393,0.336-0.912,1.014-1.55c0.68-0.64,1.342-0.958,1.994-0.958c0.354,0,0.727,0.095,1.104,0.281
				c0.377,0.183,0.875,0.582,1.49,1.192c0.319,0.318,0.557,0.521,0.705,0.604c0.1,0.05,0.187,0.077,0.266,0.077
				c0.093,0,0.174-0.027,0.242-0.077c0.166-0.116,0.426-0.377,0.783-0.804c0.227-0.271,0.401-0.448,0.529-0.521
				C226.836,80.14,226.977,80.109,227.133,80.109z"/>
			<path fill="#FFFFFF" d="M236.385,74.269v10.957h2.02c0.48,0,0.824,0.091,1.025,0.271c0.209,0.19,0.312,0.434,0.312,0.733
				c0,0.293-0.104,0.526-0.312,0.717c-0.201,0.188-0.545,0.275-1.025,0.275h-6.045c-0.479,0-0.828-0.094-1.03-0.275
				c-0.206-0.188-0.308-0.425-0.308-0.726c0-0.293,0.102-0.534,0.308-0.726c0.202-0.184,0.551-0.271,1.03-0.271h2.021v-8.354
				l-1.79,0.472c-0.284,0.077-0.501,0.116-0.646,0.116c-0.256,0-0.475-0.102-0.658-0.302c-0.186-0.203-0.273-0.451-0.273-0.747
				c0-0.264,0.063-0.473,0.205-0.628c0.135-0.151,0.42-0.288,0.855-0.406L236.385,74.269z"/>
			<path fill="#FFFFFF" d="M248.385,74.269v10.957h2.02c0.482,0,0.826,0.091,1.031,0.271c0.205,0.19,0.312,0.434,0.312,0.733
				c0,0.293-0.105,0.526-0.312,0.717c-0.205,0.188-0.549,0.275-1.031,0.275h-6.043c-0.479,0-0.824-0.094-1.03-0.275
				c-0.203-0.188-0.308-0.425-0.308-0.726c0-0.293,0.104-0.534,0.308-0.726c0.206-0.184,0.551-0.271,1.03-0.271h2.021v-8.354
				l-1.785,0.472c-0.285,0.077-0.5,0.116-0.646,0.116c-0.252,0-0.475-0.102-0.658-0.302c-0.186-0.203-0.275-0.451-0.275-0.747
				c0-0.264,0.065-0.473,0.205-0.628c0.137-0.151,0.424-0.288,0.857-0.406L248.385,74.269z"/>
			<path fill="#FFFFFF" d="M227.133,104.109c0.289,0,0.529,0.097,0.727,0.292c0.195,0.194,0.295,0.429,0.295,0.701
				c0,0.278-0.147,0.595-0.438,0.938c-0.439,0.52-0.812,0.88-1.113,1.094c-0.439,0.327-0.916,0.492-1.414,0.492
				c-0.379,0-0.754-0.096-1.125-0.282c-0.371-0.191-0.834-0.552-1.393-1.08c-0.561-0.529-0.913-0.8-1.068-0.8
				c-0.078,0-0.15,0.025-0.226,0.079c-0.147,0.093-0.378,0.318-0.698,0.676c-0.322,0.358-0.55,0.573-0.68,0.646
				c-0.131,0.076-0.264,0.115-0.393,0.115c-0.271,0-0.516-0.104-0.719-0.307c-0.205-0.202-0.309-0.436-0.309-0.7
				c0-0.396,0.336-0.917,1.014-1.559c0.68-0.635,1.342-0.956,1.994-0.956c0.354,0,0.727,0.094,1.104,0.277
				c0.377,0.187,0.875,0.588,1.49,1.198c0.319,0.312,0.557,0.519,0.705,0.602c0.1,0.055,0.187,0.08,0.266,0.08
				c0.093,0,0.174-0.025,0.242-0.08c0.166-0.107,0.426-0.378,0.783-0.799c0.227-0.275,0.401-0.449,0.529-0.521
				C226.838,104.145,226.977,104.109,227.133,104.109z"/>
			<path fill="#FFFFFF" d="M236.385,98.269v10.958h2.02c0.48,0,0.824,0.096,1.025,0.272c0.209,0.189,0.312,0.434,0.312,0.73
				c0,0.293-0.104,0.527-0.312,0.718c-0.201,0.184-0.545,0.281-1.025,0.281h-6.045c-0.479,0-0.828-0.101-1.03-0.281
				c-0.206-0.188-0.308-0.425-0.308-0.729c0-0.294,0.102-0.528,0.308-0.72c0.202-0.184,0.551-0.274,1.03-0.274h2.021v-8.354
				l-1.79,0.469c-0.284,0.081-0.501,0.121-0.646,0.121c-0.256,0-0.475-0.104-0.658-0.305c-0.186-0.199-0.273-0.448-0.273-0.741
				c0-0.268,0.063-0.472,0.205-0.63c0.135-0.154,0.42-0.289,0.855-0.403L236.385,98.269z"/>
			<path fill="#FFFFFF" d="M251.73,103.795v2.197c0,1.304-0.371,2.55-1.123,3.743c-0.752,1.187-1.83,1.785-3.231,1.785
				c-0.812,0-1.489-0.183-2.044-0.532c-0.561-0.354-1.086-1.013-1.582-1.966c-0.499-0.95-0.748-1.966-0.748-3.03v-2.197
				c0-1.296,0.373-2.54,1.124-3.732c0.749-1.191,1.821-1.792,3.222-1.792c0.803,0,1.479,0.175,2.039,0.526
				c0.555,0.354,1.086,1.001,1.59,1.958C251.48,101.703,251.73,102.719,251.73,103.795z M249.721,103.795
				c0-1.086-0.302-2.037-0.904-2.85c-0.346-0.451-0.828-0.678-1.455-0.678c-0.604,0-1.102,0.247-1.481,0.741
				c-0.575,0.748-0.864,1.678-0.864,2.785v2.195c0,1.095,0.305,2.045,0.918,2.853c0.338,0.452,0.819,0.676,1.455,0.676
				c0.598,0,1.09-0.245,1.475-0.74c0.578-0.748,0.867-1.676,0.867-2.785L249.721,103.795L249.721,103.795z"/>
			<path fill="#FFFFFF" d="M239.137,128.109c0.286,0,0.525,0.096,0.725,0.293c0.195,0.188,0.293,0.427,0.293,0.703
				c0,0.275-0.145,0.591-0.438,0.937c-0.441,0.517-0.811,0.876-1.111,1.096c-0.44,0.321-0.918,0.485-1.42,0.485
				c-0.377,0-0.75-0.094-1.121-0.282c-0.369-0.188-0.836-0.551-1.393-1.078c-0.557-0.528-0.912-0.799-1.066-0.799
				c-0.08,0-0.151,0.028-0.229,0.08c-0.146,0.089-0.374,0.315-0.695,0.676c-0.32,0.357-0.551,0.571-0.681,0.648
				c-0.131,0.075-0.265,0.111-0.394,0.111c-0.271,0-0.512-0.105-0.719-0.307c-0.205-0.197-0.312-0.438-0.312-0.7
				c0-0.398,0.342-0.911,1.019-1.557c0.678-0.638,1.344-0.957,1.994-0.957c0.354,0,0.723,0.091,1.102,0.279
				c0.379,0.184,0.875,0.582,1.49,1.192c0.321,0.316,0.56,0.521,0.703,0.604c0.102,0.051,0.19,0.078,0.27,0.078
				c0.093,0,0.175-0.027,0.24-0.078c0.164-0.109,0.426-0.376,0.783-0.803c0.229-0.271,0.402-0.446,0.529-0.521
				C238.838,128.144,238.979,128.109,239.137,128.109z"/>
			<path fill="#FFFFFF" d="M250.184,129.974c-0.504,0.433-0.961,0.729-1.379,0.909c-0.416,0.186-0.854,0.271-1.316,0.271
				c-1.072,0-2.016-0.431-2.814-1.291c-0.804-0.861-1.203-1.925-1.203-3.2c0-0.998,0.273-1.901,0.824-2.716
				c0.758-1.124,1.821-1.679,3.193-1.679c0.982,0,1.845,0.293,2.576,0.883c0.734,0.587,1.276,1.437,1.623,2.551
				c0.345,1.106,0.519,2.266,0.519,3.468c0,2.041-0.79,3.688-2.372,4.929c-1.229,0.946-2.562,1.419-4.021,1.419
				c-0.809,0-1.435-0.158-1.873-0.483c-0.303-0.217-0.447-0.498-0.447-0.852c0-0.282,0.094-0.523,0.285-0.718
				c0.191-0.19,0.431-0.288,0.705-0.288c0.156,0,0.334,0.049,0.529,0.144c0.256,0.135,0.521,0.19,0.801,0.19
				c1.01,0,1.938-0.341,2.793-1.023C249.455,131.802,249.979,130.959,250.184,129.974z M249.896,126.819
				c-0.215-0.926-0.528-1.582-0.951-1.967c-0.418-0.391-0.896-0.582-1.438-0.582c-0.563,0-1.047,0.214-1.442,0.645
				c-0.396,0.437-0.598,1.014-0.598,1.729c0,0.749,0.199,1.354,0.602,1.813c0.398,0.463,0.855,0.695,1.371,0.695
				C248.344,129.153,249.161,128.377,249.896,126.819z"/>
			<path fill="#FFFFFF" d="M250.2,152.83c0.514,0.396,0.901,0.849,1.155,1.354c0.26,0.505,0.391,1.061,0.391,1.669
				c0,0.668-0.166,1.278-0.495,1.849c-0.328,0.563-0.849,1.009-1.548,1.332c-0.703,0.324-1.482,0.491-2.348,0.491
				c-0.858,0-1.635-0.167-2.321-0.491c-0.69-0.323-1.197-0.769-1.527-1.335c-0.327-0.569-0.491-1.187-0.491-1.846
				c0-0.609,0.127-1.164,0.387-1.669c0.259-0.506,0.646-0.953,1.156-1.354c-0.449-0.415-0.791-0.856-1.017-1.326
				c-0.229-0.468-0.345-0.969-0.345-1.484c0-1.021,0.394-1.896,1.174-2.643c0.781-0.74,1.781-1.104,3.007-1.104
				c1.228,0,2.229,0.366,3.009,1.104c0.78,0.742,1.176,1.62,1.176,2.643c0,0.527-0.112,1.023-0.34,1.496
				C250.996,151.98,250.656,152.419,250.2,152.83z M249.74,155.948c0-0.53-0.229-1.005-0.68-1.437
				c-0.449-0.426-1.014-0.641-1.687-0.641c-0.671,0-1.229,0.215-1.688,0.641c-0.449,0.432-0.679,0.908-0.679,1.448
				c0,0.416,0.194,0.78,0.589,1.089c0.391,0.314,0.979,0.469,1.774,0.469c0.801,0,1.396-0.152,1.78-0.469
				C249.545,156.745,249.74,156.375,249.74,155.948z M249.508,150.057c0-0.495-0.191-0.918-0.58-1.265
				c-0.391-0.349-0.91-0.523-1.566-0.523c-0.664,0-1.187,0.178-1.575,0.523c-0.39,0.347-0.581,0.77-0.581,1.265
				c0,0.501,0.191,0.93,0.581,1.271c0.392,0.352,0.911,0.522,1.575,0.522c0.656,0,1.183-0.172,1.566-0.522
				C249.312,150.987,249.508,150.558,249.508,150.057z"/>
		</g>
		<g>
			<path fill="#FFFFFF" d="M249.43,175.997h-4.58c-0.021,0.396-0.127,0.673-0.303,0.848c-0.178,0.175-0.406,0.26-0.691,0.26
				c-0.301,0-0.543-0.105-0.729-0.309c-0.188-0.196-0.275-0.543-0.275-1.02V174h8.688v2l-3.241,9.651
				c-0.138,0.401-0.285,0.674-0.451,0.806c-0.168,0.132-0.367,0.197-0.605,0.197c-0.277,0-0.521-0.096-0.717-0.292
				c-0.195-0.188-0.299-0.417-0.299-0.673c0-0.147,0.053-0.373,0.155-0.688L249.43,175.997z"/>
			<path fill="#FFFFFF" d="M239.137,203.517c0.286,0,0.525,0.098,0.725,0.293c0.195,0.189,0.293,0.432,0.293,0.701
				c0,0.274-0.145,0.596-0.438,0.938c-0.441,0.513-0.811,0.877-1.111,1.096c-0.44,0.321-0.918,0.483-1.42,0.483
				c-0.377,0-0.75-0.095-1.121-0.283c-0.369-0.188-0.836-0.551-1.393-1.079c-0.557-0.523-0.912-0.8-1.066-0.8
				c-0.08,0-0.151,0.031-0.229,0.081c-0.146,0.09-0.374,0.315-0.695,0.675c-0.32,0.358-0.551,0.572-0.681,0.65
				c-0.131,0.075-0.265,0.106-0.394,0.106c-0.271,0-0.512-0.102-0.719-0.304c-0.205-0.199-0.312-0.434-0.312-0.702
				c0-0.393,0.342-0.912,1.019-1.553c0.678-0.641,1.344-0.956,1.994-0.956c0.354,0,0.723,0.09,1.102,0.278
				c0.379,0.183,0.875,0.581,1.49,1.188c0.321,0.323,0.56,0.522,0.703,0.606c0.102,0.052,0.19,0.079,0.27,0.079
				c0.093,0,0.175-0.027,0.24-0.079c0.164-0.109,0.426-0.377,0.783-0.798c0.229-0.274,0.402-0.45,0.529-0.524
				C238.836,203.544,238.979,203.517,239.137,203.517z"/>
			<path fill="#FFFFFF" d="M245.482,203.794c0.479-0.397,0.938-0.692,1.377-0.883c0.439-0.184,0.899-0.271,1.396-0.271
				c1.052,0,1.97,0.412,2.754,1.251c0.79,0.83,1.187,1.878,1.187,3.131c0,1.167-0.365,2.105-1.1,2.829
				c-0.732,0.726-1.729,1.079-2.982,1.079c-1.049,0-1.91-0.245-2.588-0.732c-0.678-0.486-1.188-1.236-1.533-2.254
				c-0.348-1.02-0.52-2.148-0.52-3.4c0-1.494,0.344-2.741,1.021-3.729c0.688-0.992,1.486-1.77,2.414-2.313
				c0.923-0.547,1.898-0.815,2.93-0.815c0.812,0,1.446,0.154,1.896,0.478c0.295,0.215,0.438,0.484,0.438,0.819
				c0,0.289-0.1,0.538-0.294,0.732c-0.194,0.201-0.433,0.3-0.703,0.3c-0.153,0-0.379-0.077-0.671-0.231
				c-0.18-0.095-0.348-0.138-0.512-0.138c-0.637,0-1.299,0.185-1.979,0.544c-0.684,0.355-1.273,0.914-1.775,1.662
				C245.895,202.365,245.643,203.016,245.482,203.794z M245.775,206.893c0.209,0.777,0.492,1.312,0.847,1.603
				c0.354,0.289,0.86,0.433,1.521,0.433c0.662,0,1.164-0.174,1.521-0.513c0.354-0.354,0.532-0.819,0.532-1.41
				c0-0.682-0.202-1.239-0.609-1.688c-0.404-0.451-0.859-0.677-1.371-0.677c-0.4,0-0.835,0.195-1.294,0.599
				C246.455,205.635,246.077,206.183,245.775,206.893z"/>
			<path fill="#FFFFFF" d="M239.137,227.517c0.286,0,0.525,0.1,0.725,0.289c0.195,0.196,0.293,0.435,0.293,0.702
				c0,0.277-0.145,0.598-0.438,0.938c-0.441,0.516-0.811,0.881-1.111,1.096c-0.44,0.322-0.918,0.483-1.42,0.483
				c-0.377,0-0.75-0.09-1.121-0.28c-0.369-0.188-0.836-0.553-1.393-1.078s-0.912-0.798-1.066-0.798c-0.08,0-0.151,0.022-0.229,0.08
				c-0.146,0.089-0.374,0.313-0.695,0.673c-0.32,0.361-0.551,0.57-0.681,0.652c-0.131,0.069-0.265,0.104-0.394,0.104
				c-0.271,0-0.512-0.099-0.719-0.3c-0.205-0.201-0.312-0.438-0.312-0.705c0-0.396,0.342-0.911,1.019-1.55
				c0.678-0.646,1.344-0.961,1.994-0.961c0.354,0,0.723,0.096,1.102,0.279c0.379,0.185,0.875,0.583,1.49,1.192
				c0.321,0.321,0.56,0.522,0.703,0.604c0.102,0.059,0.19,0.081,0.27,0.081c0.093,0,0.175-0.022,0.24-0.081
				c0.164-0.108,0.426-0.374,0.783-0.802c0.229-0.271,0.402-0.441,0.529-0.521C238.836,227.545,238.979,227.517,239.137,227.517z"/>
			<path fill="#FFFFFF" d="M245.678,224.001v2.38c0.744-0.23,1.418-0.354,2.023-0.354c1.227,0,2.253,0.422,3.064,1.263
				c0.812,0.838,1.221,1.923,1.221,3.253c0,1.362-0.409,2.438-1.235,3.219c-0.823,0.772-2.086,1.167-3.78,1.167
				c-1.498,0-2.686-0.277-3.557-0.854c-0.508-0.325-0.764-0.699-0.764-1.122c0-0.268,0.103-0.497,0.299-0.701
				c0.197-0.188,0.438-0.298,0.71-0.298c0.228,0,0.478,0.11,0.739,0.328c0.269,0.219,0.547,0.373,0.84,0.459
				c0.416,0.118,0.949,0.181,1.604,0.181c1.214,0,2.035-0.185,2.479-0.583c0.438-0.388,0.664-0.975,0.664-1.773
				c0-0.789-0.217-1.404-0.641-1.854c-0.431-0.448-0.976-0.675-1.646-0.675c-0.725,0-1.547,0.237-2.471,0.706
				c-0.211,0.106-0.396,0.166-0.547,0.166c-0.291,0-0.525-0.104-0.723-0.313c-0.191-0.204-0.288-0.479-0.288-0.81V222h6.122
				c0.48,0,0.826,0.095,1.031,0.276c0.201,0.188,0.306,0.43,0.306,0.734c0,0.285-0.104,0.526-0.306,0.716
				c-0.205,0.185-0.551,0.275-1.031,0.275L245.678,224.001L245.678,224.001z"/>
			<path fill="#FFFFFF" d="M250.299,245.998v7.83c0.422,0,0.734,0.092,0.938,0.279c0.203,0.185,0.305,0.426,0.305,0.719
				s-0.104,0.529-0.309,0.721c-0.205,0.195-0.521,0.289-0.934,0.289v0.795c0.42,0,0.729,0.102,0.938,0.283
				c0.203,0.193,0.303,0.433,0.303,0.724c0,0.296-0.104,0.532-0.309,0.724c-0.205,0.183-0.551,0.272-1.028,0.272h-2.688
				c-0.479,0-0.826-0.092-1.031-0.272c-0.203-0.189-0.308-0.431-0.308-0.731c0-0.295,0.104-0.531,0.308-0.714
				c0.205-0.188,0.554-0.282,1.031-0.282h0.777v-0.796h-5.438v-1.674l4.795-8.161L250.299,245.998L250.299,245.998z
				 M248.296,253.828v-4.92l-2.899,4.92H248.296z"/>
			<path fill="#FFFFFF" d="M239.137,275.512c0.286,0,0.525,0.102,0.725,0.297c0.195,0.19,0.293,0.432,0.293,0.699
				c0,0.275-0.145,0.596-0.438,0.938c-0.441,0.513-0.811,0.881-1.111,1.094c-0.44,0.324-0.918,0.487-1.42,0.487
				c-0.377,0-0.75-0.091-1.121-0.281c-0.369-0.188-0.836-0.548-1.393-1.079c-0.557-0.528-0.912-0.798-1.066-0.798
				c-0.08,0-0.151,0.022-0.229,0.078c-0.146,0.092-0.374,0.316-0.695,0.675c-0.32,0.359-0.551,0.576-0.681,0.651
				c-0.131,0.071-0.265,0.104-0.394,0.104c-0.271,0-0.512-0.102-0.719-0.305c-0.205-0.198-0.312-0.434-0.312-0.705
				c0-0.392,0.342-0.912,1.019-1.55c0.678-0.642,1.344-0.955,1.994-0.955c0.354,0,0.723,0.092,1.102,0.28
				c0.379,0.182,0.875,0.582,1.49,1.188c0.321,0.32,0.56,0.521,0.703,0.605c0.102,0.055,0.19,0.08,0.27,0.08
				c0.093,0,0.175-0.025,0.24-0.08c0.164-0.111,0.426-0.376,0.783-0.796c0.229-0.278,0.402-0.452,0.529-0.529
				C238.836,275.544,238.979,275.512,239.137,275.512z"/>
			<path fill="#FFFFFF" d="M250.219,275.948c0.594,0.401,1.036,0.868,1.327,1.392c0.294,0.533,0.438,1.123,0.438,1.785
				c0,0.703-0.189,1.363-0.58,1.966c-0.391,0.604-0.945,1.062-1.687,1.369c-0.733,0.312-1.698,0.465-2.892,0.465
				c-1.553,0-2.717-0.241-3.497-0.728c-0.438-0.271-0.649-0.601-0.649-0.976c0-0.284,0.094-0.531,0.285-0.729
				c0.188-0.2,0.426-0.299,0.696-0.299c0.188,0,0.384,0.063,0.585,0.194c0.285,0.194,0.561,0.32,0.812,0.392
				c0.395,0.094,0.928,0.138,1.61,0.138c1.162,0,2.007-0.147,2.526-0.452c0.52-0.301,0.779-0.729,0.779-1.281
				c0-0.409-0.148-0.811-0.453-1.189c-0.306-0.377-0.707-0.673-1.215-0.883c-0.293-0.116-0.793-0.198-1.486-0.245
				c-0.328-0.021-0.586-0.12-0.768-0.308c-0.181-0.188-0.271-0.409-0.271-0.688c0-0.287,0.099-0.527,0.292-0.721
				c0.193-0.2,0.441-0.296,0.742-0.296c0.662,0,1.02-0.008,1.062-0.015c0.262-0.021,0.521-0.104,0.778-0.253
				c0.263-0.146,0.472-0.339,0.631-0.594c0.159-0.251,0.235-0.504,0.235-0.771c0-0.428-0.188-0.787-0.562-1.101
				c-0.375-0.312-0.936-0.465-1.686-0.465c-0.965,0-1.698,0.278-2.205,0.838c-0.146,0.162-0.271,0.271-0.362,0.314
				c-0.138,0.066-0.288,0.105-0.457,0.105c-0.272,0-0.509-0.098-0.702-0.294c-0.191-0.196-0.293-0.438-0.293-0.728
				c0-0.447,0.299-0.885,0.896-1.312c0.871-0.618,1.961-0.929,3.271-0.929c1.231,0,2.229,0.352,2.979,1.059
				c0.748,0.698,1.123,1.548,1.123,2.535c0,0.516-0.109,0.998-0.334,1.441C250.99,275.15,250.661,275.567,250.219,275.948z"/>
			<path fill="#FFFFFF" d="M245.493,304.632h4.386c0.239-0.189,0.469-0.294,0.686-0.294c0.31,0,0.549,0.104,0.729,0.306
				c0.179,0.197,0.271,0.547,0.271,1.035v0.954h-9.125v-2.117c3.604-2.978,5.785-4.889,6.531-5.741
				c0.381-0.438,0.566-0.854,0.566-1.239c0-0.485-0.212-0.92-0.641-1.29c-0.428-0.377-0.994-0.566-1.705-0.566
				c-0.717,0-1.312,0.212-1.785,0.63c-0.247,0.221-0.444,0.553-0.596,0.979c-0.096,0.274-0.22,0.47-0.379,0.585
				c-0.156,0.124-0.354,0.181-0.588,0.181c-0.273,0-0.515-0.099-0.71-0.296c-0.198-0.189-0.301-0.423-0.301-0.683
				c0-0.393,0.185-0.88,0.541-1.466c0.36-0.588,0.892-1.06,1.583-1.404c0.691-0.354,1.443-0.526,2.268-0.526
				c1.26,0,2.293,0.389,3.101,1.146c0.807,0.763,1.211,1.688,1.211,2.774c0,0.555-0.112,1.065-0.349,1.537
				c-0.229,0.474-0.785,1.124-1.664,1.956C248.838,301.752,247.492,302.929,245.493,304.632z"/>
			<path fill="#FFFFFF" d="M248.385,317.671v10.962h2.02c0.482,0,0.826,0.094,1.031,0.274c0.205,0.185,0.312,0.43,0.312,0.729
				c0,0.291-0.105,0.528-0.312,0.717c-0.207,0.188-0.549,0.275-1.031,0.275h-6.043c-0.479,0-0.824-0.093-1.03-0.275
				c-0.203-0.186-0.308-0.43-0.308-0.727c0-0.292,0.104-0.533,0.308-0.722c0.206-0.188,0.551-0.274,1.03-0.274h2.021v-8.354
				l-1.785,0.474c-0.285,0.076-0.5,0.113-0.646,0.113c-0.252,0-0.475-0.104-0.658-0.302c-0.188-0.199-0.275-0.45-0.275-0.743
				c0-0.27,0.065-0.479,0.205-0.63c0.137-0.152,0.424-0.286,0.857-0.403L248.385,317.671z"/>
			<path fill="#FFFFFF" d="M251.73,347.204v2.194c0,1.299-0.371,2.548-1.123,3.736c-0.752,1.188-1.83,1.786-3.231,1.786
				c-0.812,0-1.489-0.179-2.044-0.529c-0.561-0.354-1.086-1.01-1.582-1.968c-0.499-0.95-0.748-1.965-0.748-3.025v-2.194
				c0-1.302,0.373-2.541,1.124-3.737c0.749-1.19,1.821-1.79,3.222-1.79c0.803,0,1.479,0.177,2.039,0.522
				c0.555,0.354,1.086,1.006,1.59,1.959C251.48,345.116,251.73,346.129,251.73,347.204z M249.721,347.204
				c0-1.093-0.302-2.044-0.904-2.857c-0.346-0.442-0.828-0.673-1.455-0.673c-0.604,0-1.102,0.246-1.481,0.742
				c-0.575,0.748-0.864,1.676-0.864,2.784v2.198c0,1.093,0.305,2.042,0.918,2.85c0.338,0.445,0.819,0.672,1.455,0.672
				c0.598,0,1.09-0.243,1.475-0.739c0.578-0.748,0.867-1.678,0.867-2.774L249.721,347.204L249.721,347.204z"/>
		</g>
		<g>
			<path fill="#FFFFFF" d="M146.195,74.404c-22.708,0-31.161,31.219-8.042,46.639c-23.972,15.985-13.923,45.955,8.074,45.955
				c22,0,32.578-29.826,8.019-45.955C178.52,105.764,168.902,74.404,146.195,74.404L146.195,74.404z M146.195,82.603
				c16.385,0,21.558,23.151,0,33.926C125.44,105.544,129.808,82.603,146.195,82.603L146.195,82.603z M146.195,125.56
				c21.982,9.707,15.924,33.489-0.033,33.417C130.198,158.907,125.223,134.981,146.195,125.56z"/>
			<rect x="143.96" y="91.302" fill="#FFFFFF" width="4.534" height="13.742"/>
			<polygon fill="#FFFFFF" points="144.034,141.168 144.034,136.635 148.848,136.635 148.848,141.168 153.385,141.168 
				153.385,145.987 148.848,145.987 148.848,150.519 144.034,150.519 144.034,145.987 139.499,145.987 139.499,141.168 			"/>
			<path fill="#FFFFFF" d="M164.167,162.56h2.035v-0.566h0.417v1.511h-0.417v-0.563h-2.035V162.56L164.167,162.56z M164.167,163.746
				h2.452v0.576l-1.672,0.341l1.672,0.343v0.574h-2.452v-0.355h1.931l-1.931-0.375v-0.368l1.931-0.377h-1.931V163.746z"/>
			<path fill="#FFFFFF" d="M111.995,113.639c-4.456,0.019-6.615-2.271-6.472-6.696v-3.792h6.472h6.467v3.792
				C118.604,111.369,116.448,113.658,111.995,113.639L111.995,113.639z M111.995,110.469c2.548,0.014,3.759-1.319,3.638-4.002
				h-3.638h-3.639C108.233,109.148,109.446,110.481,111.995,110.469z"/>
			<path fill="#FFFFFF" d="M105.523,121.061c0-3.646,1.214-5.07,4.284-5.212h8.665v3.326h-8.521
				c-1.367-0.068-1.949,0.558-1.949,1.886c0,1.315,0.582,1.936,1.949,1.863h8.521v3.315h-8.665
				C106.737,126.099,105.523,124.698,105.523,121.061z"/>
			<polygon fill="#FFFFFF" points="118.471,133.662 118.471,128.814 115.698,128.814 115.698,132.034 111.995,132.034 
				108.292,132.034 108.292,128.814 105.523,128.814 105.523,133.662 105.523,138.514 108.292,138.514 108.292,135.294 
				111.995,135.294 115.698,135.294 115.698,138.514 118.471,138.514 			"/>
			<polygon fill="#FFFFFF" points="111.995,148.005 118.471,144.464 118.471,140.927 105.523,140.927 105.523,144.042 
				113.305,144.042 111.961,144.787 105.49,148.326 105.49,151.871 118.434,151.871 118.434,148.748 110.654,148.748 			"/>
			<path fill="#FFFFFF" d="M115.777,158.913c0-1.857-1.659-2.015-3.782-2.015c-2.125,0-3.781,0.151-3.781,2.015
				c0,1.86,1.658,1.999,3.781,1.999C114.119,160.915,115.777,160.773,115.777,158.913L115.777,158.913z M105.523,158.913
				c0-3.723,2.061-5.476,6.472-5.476c4.415,0,6.468,1.753,6.468,5.476c0,3.729-2.053,5.409-6.468,5.409
				C107.58,164.326,105.523,162.641,105.523,158.913z"/>
			<path fill="#FFFFFF" d="M105.523,88.94l12.948-4.354v-3.471l-12.948-4.379v3.742l2.71,0.691v3.488l-2.71,0.813V88.94
				L105.523,88.94z M110.784,83.986V81.79l4.054,1.081L110.784,83.986z"/>
			<path fill="#FFFFFF" d="M118.471,90.733h-12.948v3.224h4.072v1.353l-4.072,2.333v3.789l4.783-2.955
				c1.448,3.412,8.165,3.507,8.165-2.676V90.733L118.471,90.733z M112.094,93.992h3.505v1.542c-0.03,2.925-3.556,1.983-3.505,0.039
				V93.992z"/>
			<g>
				<path fill="#FFFFFF" d="M132.911,212.664c0-1.493,0.233-2.855,0.695-4.102c0.463-1.239,1.15-2.32,2.062-3.234
					c0.911-0.911,2.031-1.616,3.356-2.113c1.328-0.493,2.867-0.745,4.621-0.745h14.533v1.854h-14.354
					c-2.96,0-5.242,0.735-6.838,2.22c-1.6,1.479-2.4,3.545-2.4,6.196c0,1.257,0.188,2.394,0.57,3.412
					c0.376,1.018,0.943,1.891,1.705,2.61c0.757,0.724,1.706,1.276,2.843,1.674c1.135,0.392,2.451,0.586,3.941,0.586h14.535v1.847
					h-14.322c-1.772,0-3.346-0.251-4.707-0.745c-1.365-0.497-2.505-1.197-3.43-2.101c-0.923-0.9-1.623-1.975-2.097-3.21
					C133.148,215.56,132.911,214.177,132.911,212.664z"/>
				<path fill="#FFFFFF" d="M158.178,229.862v1.746l-21.641,17.161h21.641v1.771h-24.875v-1.386l22.106-17.516h-22.106v-1.779
					L158.178,229.862L158.178,229.862z"/>
				<path fill="#FFFFFF" d="M132.875,269.309c0-1.899,0.352-3.608,1.051-5.135c0.696-1.528,1.634-2.838,2.805-3.933
					c1.174-1.086,2.528-1.93,4.07-2.517c1.54-0.604,3.163-0.896,4.868-0.896h0.069c1.709,0,3.334,0.31,4.888,0.908
					c1.552,0.603,2.919,1.45,4.104,2.541c1.184,1.091,2.123,2.397,2.824,3.941c0.695,1.538,1.047,3.259,1.047,5.151
					c0,1.868-0.354,3.579-1.047,5.117c-0.701,1.539-1.639,2.859-2.811,3.943c-1.176,1.092-2.526,1.938-4.066,2.521
					c-1.539,0.592-3.16,0.887-4.867,0.887c-0.024,0.023-0.047,0.023-0.07,0c-1.706,0-3.334-0.299-4.887-0.908
					c-1.553-0.6-2.92-1.449-4.104-2.535c-1.185-1.089-2.128-2.412-2.825-3.961C133.227,272.892,132.875,271.178,132.875,269.309z
					 M134.547,269.377c0,1.545,0.29,2.958,0.87,4.246c0.581,1.293,1.374,2.408,2.383,3.341c1.004,0.939,2.184,1.663,3.535,2.188
					c1.349,0.521,2.796,0.78,4.335,0.78h0.07c1.541,0,2.992-0.268,4.352-0.795c1.361-0.535,2.547-1.271,3.555-2.212
					c1.011-0.935,1.81-2.053,2.398-3.354c0.592-1.304,0.889-2.729,0.889-4.267c0-1.535-0.291-2.952-0.869-4.246
					c-0.582-1.291-1.375-2.401-2.383-3.343c-1.007-0.938-2.185-1.66-3.535-2.185c-1.354-0.518-2.799-0.782-4.336-0.782h-0.069
					c-1.541,0-2.99,0.271-4.354,0.808c-1.366,0.522-2.544,1.265-3.554,2.197c-1.007,0.938-1.808,2.057-2.398,3.358
					C134.842,266.418,134.547,267.84,134.547,269.377z"/>
			</g>
			<path fill="#FFFFFF" d="M147.184,298.905c-1.476,0-2.953-0.133-4.394-0.393l0.599-3.243c1.243,0.225,2.521,0.345,3.795,0.345
				V298.905z M151.15,298.58l-0.535-3.247c1.253-0.209,2.494-0.531,3.688-0.964l1.125,3.102
				C154.042,297.969,152.604,298.344,151.15,298.58z M138.54,297.316c-1.37-0.521-2.703-1.185-3.96-1.951l1.721-2.81
				c1.084,0.668,2.234,1.229,3.415,1.686L138.54,297.316z M159.418,295.585l-1.666-2.835c1.094-0.646,2.135-1.394,3.098-2.229
				l2.16,2.495C161.889,293.981,160.684,294.851,159.418,295.585z M131.041,292.729c-1.095-0.979-2.107-2.07-3.005-3.233l2.61-2.01
				c0.774,1.001,1.648,1.942,2.593,2.793L131.041,292.729z M166.066,289.837l-2.57-2.06c0.793-0.993,1.502-2.063,2.104-3.186
				l2.9,1.562C167.809,287.45,166.988,288.687,166.066,289.837z M125.667,285.776c-0.672-1.313-1.23-2.689-1.651-4.101l3.156-0.943
				c0.365,1.215,0.843,2.404,1.426,3.536L125.667,285.776z M170.227,282.092l-3.142-1.003c0.388-1.207,0.663-2.462,0.821-3.724
				l3.271,0.417C170.994,279.241,170.674,280.69,170.227,282.092z M123.139,277.355c-0.093-0.87-0.139-1.756-0.139-2.632v-1.662
				h3.293v1.662c0,0.76,0.042,1.525,0.122,2.272L123.139,277.355z M171.369,273.467h-3.297v-4.121h3.297V273.467z M126.294,268.943
				h-3.295v-4.116h3.295V268.943z M171.369,265.226h-3.297v-4.121h3.297V265.226z M126.294,260.705h-3.295v-4.123h3.295V260.705z
				 M171.369,256.988h-3.297v-4.122h3.297V256.988z M126.294,252.464h-3.295v-4.117h3.295V252.464z M171.369,248.748h-3.297v-4.12
				h3.297V248.748z M126.294,244.227h-3.295v-4.118h3.295V244.227z M171.369,240.51h-3.297v-4.118h3.297V240.51z M126.294,235.984
				h-3.295v-4.114h3.295V235.984z M171.369,232.268h-3.297v-4.119h3.297V232.268z M126.294,227.746h-3.295v-4.119h3.295V227.746z
				 M171.369,224.033h-3.297v-4.12h3.297V224.033z M126.294,219.509h-3.295v-4.113h3.295V219.509z M171.369,215.792h-3.297v-4.122
				h3.297V215.792z M126.294,211.267h-3.295v-4.12h3.295V211.267z M171.369,207.552h-3.297v-1.863c0-0.693-0.032-1.4-0.102-2.086
				l3.275-0.326c0.079,0.801,0.121,1.609,0.121,2.412L171.369,207.552L171.369,207.552z M126.438,203.227l-3.275-0.388
				c0.171-1.461,0.479-2.911,0.915-4.312l3.147,0.974C126.851,200.714,126.585,201.966,126.438,203.227z M167.247,199.856
				c-0.353-1.215-0.819-2.411-1.392-3.548l2.942-1.481c0.66,1.318,1.202,2.696,1.614,4.108L167.247,199.856z M128.684,195.979
				l-2.916-1.531c0.683-1.298,1.491-2.543,2.399-3.703l2.592,2.037C129.973,193.781,129.272,194.857,128.684,195.979z
				 M163.839,193.079c-0.771-1.018-1.634-1.962-2.573-2.817l2.226-2.434c1.085,0.986,2.087,2.088,2.979,3.258L163.839,193.079z
				 M133.381,190.01l-2.182-2.473c1.106-0.975,2.303-1.851,3.562-2.604l1.696,2.826C135.371,188.413,134.335,189.17,133.381,190.01z
				 M158.229,187.956c-1.082-0.677-2.228-1.254-3.401-1.717l1.205-3.068c1.366,0.541,2.692,1.207,3.942,1.989L158.229,187.956z
				 M139.89,186.107l-1.149-3.089c1.383-0.516,2.813-0.9,4.263-1.153l0.566,3.247C142.316,185.33,141.081,185.665,139.89,186.107z
				 M151.163,185.175c-1.242-0.238-2.517-0.359-3.796-0.376l0.029-3.296c1.477,0.02,2.955,0.161,4.391,0.44L151.163,185.175z"/>
		</g>
		<rect x="-0.212" y="209.104" fill="#314847" width="20.988" height="150.281"/>
		<g>
			<path fill="#FFFFFF" d="M37.247,227.995h-4.86L31.9,229.22h0.487c0.479,0,0.822,0.095,1.027,0.275
				c0.206,0.18,0.311,0.425,0.311,0.724c0,0.297-0.104,0.53-0.311,0.729c-0.206,0.185-0.548,0.271-1.027,0.271h-2.695
				c-0.482,0-0.826-0.097-1.03-0.271c-0.204-0.191-0.308-0.438-0.308-0.735c0-0.297,0.104-0.542,0.322-0.726
				c0.214-0.191,0.568-0.276,1.062-0.267l3.146-7.833h-1.312c-0.476,0-0.823-0.097-1.03-0.273c-0.202-0.188-0.307-0.435-0.307-0.736
				c0-0.293,0.103-0.539,0.307-0.726c0.207-0.189,0.554-0.276,1.03-0.276l4.326,0.013l3.985,9.835c0.469,0,0.775,0.05,0.928,0.151
				c0.299,0.215,0.451,0.497,0.451,0.852c0,0.296-0.103,0.53-0.308,0.724c-0.201,0.186-0.543,0.275-1.021,0.275H37.24
				c-0.48,0-0.826-0.096-1.03-0.275c-0.205-0.19-0.311-0.433-0.311-0.73c0-0.296,0.105-0.527,0.311-0.717
				c0.205-0.187,0.549-0.276,1.03-0.276h0.487L37.247,227.995z M36.417,225.992l-1.607-3.964l-1.621,3.964H36.417z"/>
			<path fill="#FFFFFF" d="M51.174,223.786v2.195c0,1.301-0.375,2.555-1.129,3.741c-0.753,1.187-1.825,1.782-3.228,1.782
				c-0.809,0-1.489-0.178-2.047-0.527c-0.557-0.355-1.085-1.015-1.582-1.969c-0.497-0.949-0.746-1.964-0.746-3.027v-2.195
				c0-1.296,0.373-2.54,1.123-3.73c0.748-1.196,1.822-1.795,3.223-1.795c0.802,0,1.479,0.182,2.035,0.524
				c0.561,0.354,1.087,1.006,1.594,1.96C50.921,221.697,51.174,222.711,51.174,223.786z M49.163,223.786
				c0-1.092-0.305-2.039-0.909-2.855c-0.346-0.444-0.827-0.676-1.452-0.676c-0.606,0-1.104,0.248-1.486,0.745
				c-0.578,0.747-0.868,1.674-0.868,2.78v2.198c0,1.097,0.307,2.045,0.919,2.854c0.337,0.449,0.822,0.672,1.454,0.672
				c0.601,0,1.091-0.25,1.474-0.737c0.582-0.748,0.871-1.678,0.871-2.783L49.163,223.786L49.163,223.786z"/>
			<path fill="#FFFFFF" d="M37.247,251.998h-4.86l-0.487,1.221h0.487c0.479,0,0.822,0.092,1.027,0.276
				c0.206,0.185,0.311,0.431,0.311,0.727s-0.104,0.529-0.311,0.724c-0.206,0.188-0.548,0.272-1.027,0.272h-2.695
				c-0.482,0-0.826-0.095-1.03-0.272c-0.204-0.188-0.308-0.434-0.308-0.729c0-0.295,0.104-0.543,0.322-0.728
				c0.214-0.19,0.568-0.275,1.062-0.271l3.146-7.83h-1.312c-0.476,0-0.823-0.097-1.03-0.278c-0.202-0.186-0.307-0.428-0.307-0.725
				c0-0.3,0.103-0.546,0.307-0.729c0.207-0.186,0.554-0.28,1.03-0.28l4.326,0.012l3.985,9.834c0.469,0,0.775,0.057,0.928,0.155
				c0.299,0.217,0.451,0.502,0.451,0.854c0,0.29-0.103,0.527-0.308,0.717c-0.201,0.188-0.543,0.274-1.021,0.274H37.24
				c-0.48,0-0.826-0.093-1.03-0.274c-0.205-0.188-0.311-0.428-0.311-0.725c0-0.294,0.105-0.534,0.311-0.724
				c0.205-0.188,0.549-0.276,1.03-0.276h0.487L37.247,251.998z M36.417,249.992l-1.607-3.961l-1.621,3.961H36.417z"/>
			<path fill="#FFFFFF" d="M47.822,242.259v10.957h2.021c0.482,0,0.824,0.095,1.028,0.279c0.206,0.185,0.31,0.425,0.31,0.727
				c0,0.296-0.104,0.529-0.31,0.719c-0.204,0.188-0.546,0.278-1.028,0.278H43.8c-0.481,0-0.825-0.096-1.03-0.278
				c-0.206-0.188-0.307-0.426-0.307-0.729c0-0.291,0.102-0.528,0.307-0.716s0.549-0.276,1.03-0.276h2.022v-8.35l-1.789,0.466
				c-0.283,0.077-0.499,0.119-0.643,0.119c-0.255,0-0.477-0.105-0.657-0.304c-0.189-0.202-0.28-0.448-0.28-0.742
				c0-0.27,0.066-0.478,0.204-0.633c0.139-0.15,0.423-0.285,0.859-0.402L47.822,242.259z"/>
			<path fill="#FFFFFF" d="M37.247,275.994h-4.86l-0.487,1.221h0.487c0.479,0,0.822,0.1,1.027,0.278
				c0.206,0.188,0.311,0.429,0.311,0.731c0,0.288-0.104,0.53-0.311,0.72c-0.206,0.185-0.548,0.273-1.027,0.273h-2.695
				c-0.482,0-0.826-0.095-1.03-0.273c-0.204-0.188-0.308-0.437-0.308-0.733c0-0.295,0.104-0.541,0.322-0.725
				c0.214-0.192,0.568-0.279,1.062-0.27l3.146-7.83h-1.312c-0.476,0-0.823-0.094-1.03-0.278c-0.202-0.187-0.307-0.43-0.307-0.729
				c0-0.298,0.103-0.54,0.307-0.724c0.207-0.192,0.554-0.283,1.03-0.283l4.326,0.012l3.985,9.834c0.469,0,0.775,0.053,0.928,0.154
				c0.299,0.216,0.451,0.5,0.451,0.854c0,0.297-0.103,0.53-0.308,0.722c-0.201,0.187-0.543,0.273-1.021,0.273H37.24
				c-0.48,0-0.826-0.093-1.03-0.273c-0.205-0.189-0.311-0.434-0.311-0.731c0-0.293,0.105-0.526,0.311-0.717
				c0.205-0.186,0.549-0.273,1.03-0.273h0.487L37.247,275.994z M36.417,273.993l-1.607-3.968l-1.621,3.968H36.417z"/>
			<path fill="#FFFFFF" d="M44.935,277.215h4.384c0.24-0.189,0.47-0.295,0.683-0.295c0.308,0,0.552,0.105,0.729,0.311
				c0.181,0.195,0.271,0.547,0.271,1.033v0.957h-9.123v-2.12c3.604-2.979,5.782-4.891,6.532-5.743
				c0.38-0.437,0.567-0.853,0.567-1.234c0-0.493-0.215-0.924-0.643-1.299c-0.427-0.371-0.993-0.56-1.702-0.56
				c-0.719,0-1.312,0.213-1.789,0.624c-0.245,0.221-0.444,0.551-0.596,0.984c-0.091,0.271-0.218,0.468-0.376,0.585
				c-0.156,0.116-0.353,0.176-0.591,0.176c-0.27,0-0.511-0.099-0.709-0.293c-0.198-0.192-0.299-0.428-0.299-0.683
				c0-0.395,0.183-0.883,0.545-1.469c0.359-0.585,0.887-1.061,1.582-1.403c0.69-0.354,1.446-0.525,2.26-0.525
				c1.264,0,2.298,0.383,3.104,1.146c0.809,0.763,1.21,1.688,1.21,2.775c0,0.555-0.116,1.062-0.348,1.538
				c-0.229,0.478-0.786,1.124-1.665,1.955C48.276,274.339,46.932,275.517,44.935,277.215z"/>
			<path fill="#FFFFFF" d="M37.247,299.996h-4.86l-0.487,1.217h0.487c0.479,0,0.822,0.097,1.027,0.281
				c0.206,0.183,0.311,0.428,0.311,0.728c0,0.296-0.104,0.532-0.311,0.722c-0.206,0.188-0.548,0.271-1.027,0.271h-2.695
				c-0.482,0-0.826-0.094-1.03-0.271c-0.204-0.188-0.308-0.432-0.308-0.729c0-0.296,0.104-0.542,0.322-0.729
				c0.214-0.188,0.568-0.275,1.062-0.269l3.146-7.828h-1.312c-0.476,0-0.823-0.097-1.03-0.276c-0.202-0.188-0.307-0.434-0.307-0.729
				c0-0.298,0.103-0.54,0.307-0.729c0.207-0.188,0.554-0.282,1.03-0.282l4.326,0.012l3.985,9.834c0.469,0,0.775,0.061,0.928,0.16
				c0.299,0.214,0.451,0.496,0.451,0.854c0,0.295-0.103,0.524-0.308,0.717c-0.201,0.185-0.543,0.271-1.021,0.271H37.24
				c-0.48,0-0.826-0.089-1.03-0.271c-0.205-0.19-0.311-0.434-0.311-0.729c0-0.294,0.105-0.532,0.311-0.72
				c0.205-0.188,0.549-0.278,1.03-0.278h0.487L37.247,299.996z M36.417,297.995l-1.607-3.966l-1.621,3.966H36.417z"/>
			<path fill="#FFFFFF" d="M49.659,296.525c0.593,0.403,1.035,0.873,1.329,1.399c0.294,0.528,0.441,1.128,0.441,1.786
				c0,0.706-0.196,1.359-0.582,1.963c-0.391,0.606-0.951,1.062-1.688,1.368c-0.735,0.312-1.699,0.46-2.892,0.46
				c-1.551,0-2.714-0.234-3.496-0.72c-0.439-0.273-0.654-0.597-0.654-0.983c0-0.279,0.098-0.522,0.289-0.723
				c0.191-0.201,0.423-0.301,0.697-0.301c0.188,0,0.386,0.062,0.587,0.193c0.286,0.195,0.557,0.325,0.811,0.396
				c0.392,0.09,0.928,0.136,1.608,0.136c1.166,0,2.011-0.147,2.53-0.456c0.521-0.303,0.779-0.729,0.779-1.28
				c0-0.41-0.149-0.808-0.453-1.187c-0.304-0.383-0.706-0.679-1.216-0.887c-0.293-0.119-0.787-0.201-1.483-0.243
				c-0.332-0.021-0.588-0.125-0.769-0.31c-0.181-0.188-0.271-0.413-0.271-0.688c0-0.289,0.101-0.529,0.294-0.723
				c0.196-0.196,0.444-0.291,0.743-0.291c0.665,0,1.019-0.004,1.061-0.016c0.264-0.025,0.523-0.104,0.782-0.257
				c0.258-0.142,0.469-0.337,0.63-0.59c0.159-0.251,0.239-0.509,0.239-0.775c0-0.428-0.188-0.786-0.562-1.101
				c-0.375-0.309-0.939-0.463-1.687-0.463c-0.964,0-1.7,0.273-2.206,0.839c-0.149,0.165-0.271,0.269-0.361,0.312
				c-0.137,0.068-0.291,0.104-0.46,0.104c-0.271,0-0.508-0.092-0.703-0.293c-0.193-0.192-0.292-0.432-0.292-0.722
				c0-0.446,0.305-0.889,0.899-1.312c0.871-0.618,1.961-0.929,3.268-0.929c1.236,0,2.23,0.352,2.982,1.053
				c0.75,0.706,1.122,1.554,1.122,2.541c0,0.513-0.11,0.992-0.332,1.44C50.428,295.728,50.103,296.151,49.659,296.525z"/>
			<path fill="#FFFFFF" d="M37.247,323.993h-4.86l-0.487,1.223h0.487c0.479,0,0.822,0.096,1.027,0.276
				c0.206,0.187,0.311,0.43,0.311,0.73c0,0.295-0.104,0.531-0.311,0.719c-0.206,0.187-0.548,0.274-1.027,0.274h-2.695
				c-0.482,0-0.826-0.092-1.03-0.274c-0.204-0.188-0.308-0.433-0.308-0.729c0-0.297,0.104-0.541,0.322-0.729
				c0.214-0.188,0.568-0.278,1.062-0.27l3.146-7.829h-1.312c-0.476,0-0.823-0.096-1.03-0.277c-0.202-0.188-0.307-0.433-0.307-0.729
				c0-0.3,0.103-0.54,0.307-0.732c0.207-0.183,0.554-0.271,1.03-0.271l4.326,0.008l3.985,9.832c0.469,0,0.775,0.059,0.928,0.155
				c0.299,0.221,0.451,0.501,0.451,0.854c0,0.293-0.103,0.529-0.308,0.715c-0.201,0.189-0.543,0.276-1.021,0.276H37.24
				c-0.48,0-0.826-0.093-1.03-0.276c-0.205-0.186-0.311-0.433-0.311-0.729c0-0.29,0.105-0.528,0.311-0.717
				c0.205-0.185,0.549-0.271,1.03-0.271h0.487L37.247,323.993z M36.417,321.992l-1.607-3.966l-1.621,3.966H36.417z"/>
			<path fill="#FFFFFF" d="M49.737,314.58v7.835c0.423,0,0.735,0.089,0.939,0.277c0.199,0.179,0.302,0.42,0.302,0.713
				c0,0.294-0.104,0.537-0.31,0.725c-0.203,0.19-0.517,0.282-0.935,0.282v0.804c0.424,0,0.738,0.096,0.941,0.281
				c0.201,0.19,0.302,0.436,0.302,0.728c0,0.295-0.104,0.529-0.309,0.717c-0.204,0.188-0.55,0.276-1.028,0.276H46.95
				c-0.479,0-0.826-0.093-1.027-0.276c-0.205-0.186-0.311-0.431-0.311-0.728c0-0.292,0.106-0.531,0.311-0.722
				c0.202-0.186,0.549-0.276,1.027-0.276h0.782v-0.804h-5.433v-1.669l4.795-8.163H49.737L49.737,314.58z M47.734,322.415v-4.923
				l-2.899,4.923H47.734z"/>
			<path fill="#FFFFFF" d="M37.247,347.995h-4.86l-0.487,1.223h0.487c0.479,0,0.822,0.096,1.027,0.272
				c0.206,0.185,0.311,0.432,0.311,0.731c0,0.294-0.104,0.531-0.311,0.72c-0.206,0.183-0.548,0.273-1.027,0.273h-2.695
				c-0.482,0-0.826-0.093-1.03-0.273c-0.204-0.188-0.308-0.433-0.308-0.729c0-0.298,0.104-0.541,0.322-0.728
				c0.214-0.188,0.568-0.277,1.062-0.269l3.146-7.829h-1.312c-0.476,0-0.823-0.098-1.03-0.278c-0.202-0.186-0.307-0.426-0.307-0.729
				c0-0.302,0.103-0.542,0.307-0.729c0.207-0.19,0.554-0.278,1.03-0.278l4.326,0.007l3.985,9.837c0.469,0,0.775,0.058,0.928,0.158
				c0.299,0.216,0.451,0.495,0.451,0.853c0,0.293-0.103,0.525-0.308,0.72c-0.201,0.185-0.543,0.274-1.021,0.274H37.24
				c-0.48,0-0.826-0.099-1.03-0.274c-0.205-0.192-0.311-0.434-0.311-0.728c0-0.299,0.105-0.532,0.311-0.721
				c0.205-0.185,0.549-0.272,1.03-0.272h0.487L37.247,347.995z M36.417,345.993l-1.607-3.964l-1.621,3.964H36.417z"/>
			<path fill="#FFFFFF" d="M45.119,340.584v2.381c0.74-0.229,1.414-0.353,2.02-0.353c1.228,0,2.253,0.422,3.065,1.257
				c0.812,0.843,1.224,1.929,1.224,3.259c0,1.364-0.415,2.438-1.235,3.217c-0.825,0.775-2.088,1.167-3.785,1.167
				c-1.498,0-2.684-0.279-3.557-0.854c-0.507-0.324-0.762-0.696-0.762-1.121c0-0.271,0.1-0.499,0.3-0.697
				c0.194-0.195,0.435-0.303,0.707-0.303c0.227,0,0.476,0.114,0.741,0.329c0.265,0.221,0.547,0.374,0.84,0.455
				c0.419,0.122,0.948,0.186,1.604,0.186c1.211,0,2.04-0.188,2.479-0.579c0.441-0.391,0.664-0.979,0.664-1.777
				c0-0.789-0.215-1.407-0.641-1.854c-0.426-0.449-0.977-0.676-1.646-0.676c-0.725,0-1.547,0.236-2.475,0.702
				c-0.207,0.107-0.391,0.167-0.547,0.167c-0.286,0-0.523-0.104-0.716-0.312c-0.197-0.208-0.288-0.479-0.288-0.808v-5.787h6.121
				c0.482,0,0.826,0.098,1.032,0.28c0.204,0.184,0.308,0.435,0.308,0.729c0,0.293-0.104,0.53-0.308,0.723
				c-0.206,0.181-0.549,0.271-1.032,0.271L45.119,340.584L45.119,340.584z"/>
		</g>
	</g>
</g>
</svg>
