<?xml version="1.0" encoding="utf-8"?>
<!-- Generator: Adobe Illustrator 16.0.0, SVG Export Plug-In . SVG Version: 6.00 Build 0)  -->
<!DOCTYPE svg PUBLIC "-//W3C//DTD SVG 1.1//EN" "http://www.w3.org/Graphics/SVG/1.1/DTD/svg11.dtd">
<svg version="1.1" id="Layer_1" xmlns="http://www.w3.org/2000/svg" xmlns:xlink="http://www.w3.org/1999/xlink" x="0px" y="0px"
	 width="240.932px" height="121.132px" viewBox="0 0 240.932 121.132" enable-background="new 0 0 240.932 121.132"
	 xml:space="preserve">
<g>
	<g>
		<path fill="#F7C55A" d="M240.78,113.402c0,4.268-3.461,7.73-7.732,7.73H7.806c-4.267,0-7.729-3.463-7.729-7.73V7.732
			C0.077,3.46,3.54,0,7.806,0h225.241c4.271,0,7.732,3.46,7.732,7.732V113.402z"/>
		<path fill="#F8E5AE" d="M0.077,36.092v77.31c0,4.268,3.463,7.73,7.729,7.73h225.241c4.271,0,7.729-3.463,7.729-7.73v-77.31H0.077z
			"/>
		<g>
			<path fill="#754E1F" d="M27.026,57.835c0.432,0,0.708,0.041,0.829,0.122c0.12,0.082,0.181,0.234,0.181,0.458
				c0,0.23-0.061,0.389-0.181,0.476c-0.121,0.087-0.397,0.13-0.829,0.13h-5.111h-0.396c-0.202,0-0.356-0.05-0.463-0.151
				c-0.107-0.101-0.16-0.253-0.16-0.455c0-0.224,0.062-0.377,0.186-0.458c0.123-0.082,0.401-0.122,0.833-0.122h1.903v-7.586h-1.903
				c-0.421,0-0.694-0.043-0.825-0.131c-0.129-0.087-0.192-0.245-0.192-0.476c0-0.208,0.054-0.36,0.16-0.459
				c0.105-0.098,0.267-0.147,0.479-0.147h0.379h5.111h0.396c0.202,0,0.354,0.05,0.459,0.151s0.155,0.252,0.155,0.455
				c0,0.23-0.062,0.389-0.188,0.476s-0.399,0.131-0.82,0.131h-1.903v7.586H27.026z"/>
			<path fill="#754E1F" d="M31.681,57.835v-5.397h-0.159c-0.382,0-0.646-0.045-0.788-0.135c-0.144-0.09-0.214-0.247-0.214-0.472
				c0-0.208,0.059-0.357,0.177-0.45c0.117-0.093,0.309-0.139,0.572-0.139h0.396h0.81c0.15,0,0.27,0.031,0.354,0.093
				s0.126,0.146,0.126,0.252v0.573c0.41-0.382,0.815-0.664,1.217-0.846s0.818-0.273,1.25-0.273c0.849,0,1.516,0.264,2,0.791
				c0.485,0.528,0.729,1.258,0.729,2.189v3.814h0.396c0.28,0,0.482,0.046,0.606,0.139c0.123,0.093,0.185,0.24,0.185,0.442
				c0,0.219-0.064,0.375-0.196,0.467c-0.133,0.093-0.366,0.139-0.703,0.139h-1.86c-0.358,0-0.59-0.042-0.689-0.126
				c-0.103-0.084-0.152-0.244-0.152-0.48c0-0.219,0.06-0.37,0.177-0.455c0.118-0.084,0.34-0.126,0.666-0.126h0.294v-3.502
				c0-0.657-0.147-1.158-0.445-1.503c-0.298-0.345-0.729-0.518-1.297-0.518c-0.572,0-1.077,0.194-1.516,0.581
				c-0.438,0.387-0.657,0.867-0.657,1.44v3.502h0.295c0.337,0,0.564,0.042,0.683,0.126s0.177,0.236,0.177,0.455
				c0,0.236-0.05,0.396-0.151,0.48c-0.101,0.084-0.348,0.126-0.739,0.126h-1.533h-0.454c-0.23,0-0.403-0.049-0.519-0.147
				c-0.114-0.098-0.173-0.251-0.173-0.459c0-0.224,0.065-0.377,0.197-0.458s0.389-0.122,0.771-0.122L31.681,57.835L31.681,57.835z"
				/>
			<path fill="#754E1F" d="M42.989,61.177h2.021c0.214,0,0.373,0.051,0.479,0.152s0.16,0.252,0.16,0.455
				c0,0.219-0.053,0.373-0.156,0.463c-0.103,0.09-0.287,0.135-0.552,0.135h-3.713c-0.226,0-0.395-0.05-0.509-0.151
				c-0.115-0.101-0.174-0.25-0.174-0.446c0-0.225,0.071-0.382,0.216-0.472c0.143-0.09,0.407-0.135,0.796-0.135h0.158v-8.739h-0.158
				c-0.389,0-0.653-0.045-0.796-0.135c-0.145-0.09-0.216-0.247-0.216-0.472c0-0.196,0.059-0.344,0.174-0.442
				c0.114-0.098,0.283-0.147,0.509-0.147h1.279c0.169,0,0.29,0.028,0.366,0.084c0.075,0.056,0.113,0.143,0.113,0.261v0.817
				c0.382-0.394,0.805-0.688,1.268-0.884c0.464-0.196,0.961-0.294,1.494-0.294c1.128,0,2.071,0.382,2.829,1.145
				c0.758,0.763,1.137,1.72,1.137,2.871c0,1.106-0.358,2.015-1.077,2.728c-0.719,0.713-1.637,1.069-2.753,1.069
				c-0.596,0-1.144-0.105-1.643-0.315c-0.5-0.21-0.918-0.512-1.255-0.905L42.989,61.177L42.989,61.177z M45.599,57.801
				c0.779,0,1.42-0.246,1.92-0.737c0.499-0.491,0.749-1.127,0.749-1.907c0-0.763-0.251-1.393-0.754-1.89
				c-0.502-0.497-1.142-0.745-1.915-0.745c-0.774,0-1.409,0.247-1.903,0.741c-0.493,0.494-0.74,1.125-0.74,1.895
				c0,0.775,0.245,1.409,0.736,1.903C44.183,57.554,44.819,57.801,45.599,57.801z"/>
			<path fill="#754E1F" d="M53.413,55.915c0,0.708,0.148,1.224,0.446,1.549c0.297,0.326,0.769,0.488,1.414,0.488
				c0.612,0,1.136-0.193,1.57-0.581c0.435-0.387,0.651-0.873,0.651-1.457v-3.477h-1.153c-0.219,0-0.377-0.046-0.476-0.139
				c-0.099-0.092-0.146-0.237-0.146-0.434c0-0.213,0.054-0.37,0.159-0.471c0.106-0.101,0.277-0.152,0.515-0.152h1.793
				c0.214,0,0.362,0.046,0.451,0.139c0.087,0.093,0.13,0.318,0.13,0.678v5.776h0.388c0.274,0,0.473,0.045,0.594,0.135
				c0.12,0.09,0.182,0.238,0.182,0.446c0,0.202-0.059,0.354-0.174,0.455c-0.114,0.101-0.281,0.151-0.501,0.151h-1.278
				c-0.151,0-0.271-0.031-0.354-0.093c-0.085-0.062-0.127-0.146-0.127-0.252v-0.572c-0.538,0.415-1,0.7-1.385,0.854
				s-0.79,0.231-1.217,0.231c-0.926,0-1.62-0.246-2.084-0.737c-0.463-0.491-0.694-1.233-0.694-2.227v-3.789h-0.177
				c-0.382,0-0.644-0.045-0.783-0.135c-0.14-0.09-0.21-0.247-0.21-0.472c0-0.196,0.055-0.344,0.164-0.442
				c0.109-0.098,0.279-0.146,0.509-0.146h1.271c0.195,0,0.333,0.04,0.407,0.118c0.076,0.079,0.114,0.252,0.114,0.522L53.413,55.915
				L53.413,55.915z"/>
			<path fill="#754E1F" d="M68.154,51.714c0.275,0,0.476,0.048,0.603,0.143c0.126,0.096,0.189,0.247,0.189,0.455
				c0,0.197-0.06,0.344-0.177,0.442c-0.118,0.098-0.295,0.147-0.53,0.147h-3.41v2.812c0,0.921,0.119,1.527,0.357,1.819
				c0.237,0.292,0.646,0.438,1.226,0.438c0.511,0,1.122-0.148,1.835-0.446c0.713-0.297,1.153-0.446,1.322-0.446
				c0.157,0,0.29,0.056,0.399,0.168c0.108,0.112,0.163,0.25,0.163,0.413c0,0.185-0.067,0.347-0.205,0.484
				c-0.139,0.138-0.372,0.271-0.703,0.4c-0.551,0.219-1.045,0.379-1.485,0.48c-0.441,0.101-0.855,0.151-1.242,0.151
				c-0.657,0-1.208-0.105-1.654-0.315c-0.445-0.21-0.778-0.523-0.997-0.939c-0.112-0.196-0.192-0.429-0.24-0.699
				c-0.048-0.27-0.071-0.685-0.071-1.246v-0.261v-2.812H62.1c-0.235,0-0.406-0.046-0.514-0.139
				c-0.106-0.093-0.159-0.243-0.159-0.451c0-0.23,0.071-0.387,0.219-0.471c0.146-0.084,0.457-0.126,0.935-0.126h0.951v-1.726v-0.446
				c0-0.241,0.052-0.419,0.156-0.535c0.104-0.115,0.265-0.172,0.482-0.172c0.247,0,0.418,0.07,0.515,0.21
				c0.096,0.14,0.144,0.46,0.144,0.96v1.709L68.154,51.714L68.154,51.714z"/>
			<path fill="#754E1F" d="M74.191,49.988c-0.073,0.011-0.128,0.02-0.164,0.024c-0.036,0.006-0.069,0.008-0.097,0.008
				c-0.175,0-0.316-0.049-0.427-0.147c-0.108-0.098-0.164-0.229-0.164-0.391c0-0.135,0.049-0.253,0.145-0.354
				s0.231-0.177,0.412-0.227l2.501-0.674c0.062-0.017,0.122-0.029,0.181-0.038c0.061-0.008,0.119-0.013,0.183-0.013
				c0.105,0,0.189,0.049,0.252,0.147c0.062,0.098,0.093,0.231,0.093,0.4v9.11h1.348c0.499,0,0.816,0.041,0.951,0.122
				s0.202,0.234,0.202,0.458c0,0.202-0.058,0.354-0.169,0.455c-0.112,0.101-0.28,0.151-0.505,0.151h-5.035
				c-0.226,0-0.394-0.05-0.505-0.151c-0.112-0.101-0.168-0.253-0.168-0.455c0-0.224,0.066-0.377,0.202-0.458
				c0.134-0.082,0.45-0.122,0.95-0.122h1.397v-8.226L74.191,49.988z"/>
		</g>
		<g>
			<path fill="#754E1F" d="M27.126,99.539c0.057-0.152,0.136-0.26,0.235-0.32c0.102-0.061,0.247-0.094,0.438-0.094
				c0.207,0,0.354,0.051,0.438,0.152s0.126,0.309,0.126,0.623c0,0.551,0.006,1.062,0.018,1.536c0.012,0.476,0.018,0.681,0.018,0.618
				c0,0.265-0.045,0.443-0.135,0.535c-0.091,0.093-0.25,0.139-0.479,0.139c-0.371,0-0.612-0.264-0.725-0.791
				c-0.039-0.156-0.07-0.277-0.094-0.361c-0.105-0.422-0.361-0.766-0.766-1.031c-0.404-0.268-0.879-0.399-1.423-0.399
				c-0.994,0-1.791,0.362-2.392,1.09c-0.602,0.728-0.9,1.702-0.9,2.927c0,1.223,0.304,2.198,0.913,2.926
				c0.608,0.727,1.413,1.09,2.412,1.09c0.325,0,0.656-0.047,0.993-0.139s0.668-0.231,0.993-0.416c0.151-0.08,0.359-0.213,0.623-0.4
				c0.265-0.188,0.451-0.282,0.563-0.282c0.175,0,0.321,0.058,0.441,0.173c0.121,0.115,0.182,0.258,0.182,0.426
				s-0.065,0.33-0.197,0.483s-0.378,0.345-0.737,0.567c-0.471,0.31-0.944,0.537-1.423,0.684c-0.477,0.146-0.979,0.219-1.507,0.219
				c-1.387,0-2.531-0.49-3.435-1.47c-0.904-0.979-1.356-2.231-1.356-3.759c0-1.51,0.458-2.766,1.373-3.764
				c0.915-1,2.065-1.5,3.452-1.5c0.37,0,0.747,0.045,1.132,0.135C26.293,99.225,26.7,99.358,27.126,99.539z"/>
			<path fill="#754E1F" d="M39.234,105.365c0,1.2-0.41,2.184-1.229,2.945c-0.818,0.764-1.883,1.146-3.189,1.146
				c-1.303,0-2.363-0.383-3.184-1.146c-0.819-0.764-1.229-1.745-1.229-2.945c0-1.201,0.409-2.184,1.229-2.943
				s1.881-1.141,3.184-1.141c1.302,0,2.364,0.381,3.187,1.145C38.825,103.19,39.234,104.167,39.234,105.365z M34.814,108.277
				c0.864,0,1.572-0.273,2.126-0.82c0.553-0.547,0.829-1.244,0.829-2.092c0-0.849-0.278-1.549-0.834-2.102
				c-0.557-0.553-1.264-0.83-2.121-0.83c-0.859,0-1.565,0.277-2.118,0.83s-0.829,1.253-0.829,2.102c0,0.852,0.275,1.551,0.825,2.096
				S33.949,108.277,34.814,108.277z"/>
			<path fill="#754E1F" d="M42.029,108.058v-5.396H41.87c-0.382,0-0.645-0.045-0.788-0.135c-0.143-0.09-0.214-0.248-0.214-0.473
				c0-0.207,0.06-0.357,0.177-0.449c0.117-0.094,0.31-0.141,0.572-0.141h0.396h0.809c0.151,0,0.27,0.031,0.354,0.094
				c0.084,0.062,0.126,0.146,0.126,0.252v0.572c0.409-0.381,0.814-0.662,1.217-0.846c0.4-0.183,0.817-0.273,1.25-0.273
				c0.848,0,1.515,0.264,2,0.791c0.484,0.527,0.729,1.258,0.729,2.189v3.813h0.396c0.279,0,0.481,0.047,0.605,0.14
				c0.123,0.092,0.186,0.239,0.186,0.439c0,0.221-0.065,0.375-0.197,0.469s-0.366,0.141-0.703,0.141h-1.86
				c-0.358,0-0.59-0.043-0.689-0.127c-0.103-0.084-0.152-0.244-0.152-0.48c0-0.219,0.061-0.369,0.178-0.454
				c0.117-0.084,0.34-0.126,0.666-0.126h0.294v-3.502c0-0.657-0.148-1.158-0.446-1.504c-0.297-0.346-0.729-0.518-1.296-0.518
				c-0.573,0-1.078,0.192-1.517,0.58c-0.438,0.389-0.656,0.867-0.656,1.44v3.502H43.6c0.337,0,0.563,0.042,0.682,0.126
				c0.118,0.085,0.177,0.234,0.177,0.453c0,0.236-0.05,0.396-0.15,0.48c-0.102,0.084-0.349,0.127-0.74,0.127h-1.533h-0.454
				c-0.229,0-0.402-0.049-0.518-0.147s-0.173-0.25-0.173-0.46c0-0.223,0.064-0.377,0.196-0.457c0.133-0.081,0.39-0.122,0.771-0.122
				L42.029,108.058L42.029,108.058z"/>
			<path fill="#754E1F" d="M58.043,109.246c-0.118,0-0.201-0.029-0.249-0.088c-0.048-0.061-0.07-0.174-0.07-0.342v-0.689
				c-0.337,0.42-0.759,0.748-1.264,0.979c-0.505,0.233-1.053,0.351-1.642,0.351c-1.062,0-1.949-0.379-2.665-1.133
				c-0.716-0.756-1.073-1.693-1.073-2.816c0-1.162,0.381-2.129,1.146-2.899c0.764-0.772,1.715-1.157,2.854-1.157
				c0.578,0,1.099,0.102,1.559,0.307s0.854,0.508,1.188,0.906v-3.226h-0.446c-0.487,0-0.805-0.044-0.946-0.131
				c-0.145-0.089-0.216-0.246-0.216-0.478c0-0.201,0.059-0.354,0.174-0.453c0.113-0.102,0.28-0.151,0.501-0.151h1.726
				c0.168,0,0.29,0.026,0.366,0.084s0.113,0.144,0.113,0.263v9.487h0.379c0.274,0,0.475,0.047,0.598,0.14
				c0.124,0.092,0.187,0.239,0.187,0.44c0,0.19-0.055,0.34-0.16,0.446c-0.106,0.106-0.249,0.16-0.43,0.16H58.043z M52.529,105.464
				c0,0.775,0.249,1.408,0.749,1.902c0.499,0.493,1.134,0.741,1.902,0.741c0.774,0,1.411-0.258,1.91-0.771
				c0.5-0.514,0.75-1.166,0.75-1.957c0-0.779-0.249-1.424-0.744-1.928c-0.497-0.506-1.137-0.759-1.916-0.759
				c-0.791,0-1.432,0.257-1.919,0.767C52.773,103.972,52.529,104.64,52.529,105.464z"/>
			<path fill="#754E1F" d="M66.638,108.058h2.702c0.22,0,0.381,0.047,0.484,0.139c0.104,0.094,0.155,0.24,0.155,0.441
				c0,0.23-0.049,0.39-0.147,0.477c-0.098,0.088-0.278,0.131-0.543,0.131h-6.533c-0.225,0-0.393-0.051-0.505-0.152
				c-0.111-0.1-0.169-0.252-0.169-0.454c0-0.195,0.061-0.343,0.178-0.438c0.117-0.095,0.295-0.143,0.529-0.143h2.568v-5.396h-1.643
				c-0.229,0-0.405-0.053-0.525-0.156c-0.121-0.104-0.182-0.254-0.182-0.451c0-0.194,0.057-0.344,0.169-0.439
				c0.111-0.098,0.279-0.148,0.505-0.148h2.467c0.152,0,0.271,0.031,0.357,0.094c0.088,0.062,0.131,0.146,0.131,0.252
				L66.638,108.058L66.638,108.058z M65.081,99.041c0-0.604,0.056-0.988,0.165-1.145s0.344-0.236,0.702-0.236
				c0.349,0,0.578,0.066,0.69,0.198c0.111,0.132,0.169,0.444,0.169,0.938c0,0.481-0.053,0.781-0.156,0.896
				c-0.104,0.115-0.338,0.173-0.703,0.173c-0.358,0-0.593-0.054-0.702-0.158C65.135,99.599,65.081,99.376,65.081,99.041z"/>
			<path fill="#754E1F" d="M78.501,101.937c0.275,0,0.477,0.048,0.604,0.143c0.126,0.096,0.188,0.248,0.188,0.455
				c0,0.197-0.06,0.344-0.177,0.442c-0.118,0.099-0.295,0.147-0.53,0.147h-3.409v2.812c0,0.921,0.118,1.526,0.356,1.819
				c0.238,0.291,0.647,0.438,1.226,0.438c0.512,0,1.122-0.148,1.836-0.445c0.713-0.299,1.152-0.447,1.321-0.447
				c0.157,0,0.29,0.058,0.399,0.168c0.108,0.113,0.164,0.25,0.164,0.414c0,0.185-0.068,0.347-0.206,0.482
				c-0.138,0.139-0.372,0.271-0.703,0.4c-0.55,0.219-1.045,0.379-1.485,0.48c-0.44,0.1-0.854,0.149-1.241,0.149
				c-0.657,0-1.208-0.104-1.654-0.313c-0.446-0.211-0.779-0.523-0.998-0.939c-0.112-0.195-0.192-0.43-0.24-0.699
				s-0.071-0.684-0.071-1.246v-0.261v-2.812h-1.432c-0.235,0-0.406-0.047-0.513-0.14c-0.107-0.094-0.16-0.243-0.16-0.45
				c0-0.23,0.072-0.388,0.219-0.472c0.146-0.085,0.457-0.127,0.936-0.127h0.95v-1.728v-0.444c0-0.242,0.053-0.421,0.156-0.535
				c0.104-0.114,0.265-0.172,0.483-0.172c0.247,0,0.418,0.069,0.514,0.21s0.145,0.46,0.145,0.96v1.709L78.501,101.937
				L78.501,101.937z"/>
			<path fill="#754E1F" d="M87.333,108.058h2.703c0.219,0,0.38,0.047,0.484,0.139c0.104,0.094,0.154,0.24,0.154,0.441
				c0,0.23-0.049,0.39-0.146,0.477c-0.098,0.088-0.279,0.131-0.543,0.131h-6.533c-0.225,0-0.393-0.051-0.505-0.152
				c-0.112-0.1-0.169-0.252-0.169-0.454c0-0.195,0.06-0.343,0.177-0.438c0.118-0.095,0.295-0.143,0.53-0.143h2.568v-5.396h-1.643
				c-0.229,0-0.406-0.053-0.525-0.156c-0.121-0.104-0.182-0.254-0.182-0.451c0-0.194,0.057-0.344,0.168-0.439
				c0.112-0.098,0.28-0.148,0.505-0.148h2.468c0.151,0,0.271,0.031,0.357,0.094s0.13,0.146,0.13,0.252L87.333,108.058
				L87.333,108.058z M85.776,99.041c0-0.604,0.055-0.988,0.165-1.145c0.108-0.156,0.344-0.236,0.702-0.236
				c0.349,0,0.578,0.066,0.689,0.198c0.112,0.132,0.169,0.444,0.169,0.938c0,0.481-0.052,0.781-0.155,0.896
				c-0.104,0.115-0.339,0.173-0.703,0.173c-0.358,0-0.594-0.054-0.702-0.158C85.831,99.599,85.776,99.376,85.776,99.041z"/>
			<path fill="#754E1F" d="M101.319,105.365c0,1.2-0.41,2.184-1.229,2.945c-0.818,0.764-1.883,1.146-3.189,1.146
				c-1.303,0-2.363-0.383-3.184-1.146c-0.819-0.764-1.229-1.745-1.229-2.945c0-1.201,0.409-2.184,1.229-2.943
				s1.881-1.141,3.184-1.141c1.302,0,2.364,0.381,3.187,1.145C100.91,103.19,101.319,104.167,101.319,105.365z M96.899,108.277
				c0.864,0,1.572-0.273,2.126-0.82c0.553-0.547,0.829-1.244,0.829-2.092c0-0.849-0.278-1.549-0.834-2.102
				c-0.557-0.553-1.264-0.83-2.121-0.83c-0.859,0-1.565,0.277-2.118,0.83s-0.829,1.253-0.829,2.102c0,0.852,0.275,1.551,0.825,2.096
				S96.034,108.277,96.899,108.277z"/>
			<path fill="#754E1F" d="M104.114,108.058v-5.396h-0.159c-0.382,0-0.645-0.045-0.788-0.135c-0.143-0.09-0.214-0.248-0.214-0.473
				c0-0.207,0.06-0.357,0.177-0.449c0.117-0.094,0.31-0.141,0.572-0.141h0.396h0.809c0.151,0,0.271,0.031,0.354,0.094
				s0.126,0.146,0.126,0.252v0.572c0.409-0.381,0.814-0.662,1.217-0.846c0.4-0.183,0.817-0.273,1.25-0.273
				c0.848,0,1.515,0.264,2,0.791c0.484,0.527,0.729,1.258,0.729,2.189v3.813h0.396c0.28,0,0.481,0.047,0.605,0.14
				c0.123,0.092,0.186,0.239,0.186,0.439c0,0.221-0.065,0.375-0.197,0.469s-0.366,0.141-0.703,0.141h-1.859
				c-0.359,0-0.591-0.043-0.69-0.127c-0.102-0.084-0.152-0.244-0.152-0.48c0-0.219,0.061-0.369,0.178-0.454
				c0.117-0.084,0.34-0.126,0.666-0.126h0.294v-3.502c0-0.657-0.148-1.158-0.446-1.504c-0.297-0.346-0.729-0.518-1.296-0.518
				c-0.573,0-1.078,0.192-1.517,0.58c-0.438,0.389-0.656,0.867-0.656,1.44v3.502h0.295c0.337,0,0.563,0.042,0.682,0.126
				c0.118,0.085,0.177,0.234,0.177,0.453c0,0.236-0.05,0.396-0.15,0.48c-0.102,0.084-0.349,0.127-0.74,0.127h-1.533h-0.454
				c-0.229,0-0.402-0.049-0.518-0.147s-0.173-0.25-0.173-0.46c0-0.223,0.064-0.377,0.196-0.457c0.133-0.081,0.39-0.122,0.771-0.122
				L104.114,108.058L104.114,108.058z"/>
		</g>
		<g>
			<path fill="#754E1F" d="M204.338,57.835h0.328c0.235,0,0.407,0.046,0.515,0.139c0.105,0.093,0.159,0.24,0.159,0.442
				c0,0.197-0.051,0.347-0.151,0.451c-0.102,0.104-0.247,0.156-0.438,0.156H200.6c-0.191,0-0.337-0.052-0.438-0.156
				c-0.101-0.104-0.15-0.254-0.15-0.451c0-0.208,0.055-0.356,0.164-0.446c0.108-0.09,0.296-0.135,0.561-0.135h0.277h0.529v-7.586
				h-0.529c-0.428,0-0.7-0.043-0.82-0.131c-0.121-0.087-0.182-0.245-0.182-0.476c0-0.196,0.051-0.346,0.15-0.45
				c0.103-0.104,0.247-0.156,0.438-0.156h7.451c0.189,0,0.335,0.058,0.434,0.172c0.098,0.115,0.146,0.282,0.146,0.501v2.172
				c0,0.196-0.05,0.344-0.146,0.442c-0.099,0.098-0.243,0.146-0.434,0.146c-0.236,0-0.396-0.062-0.48-0.185
				c-0.084-0.124-0.126-0.401-0.126-0.834v-1.204h-4.571v2.837h2.224v-0.219c0-0.41,0.039-0.685,0.116-0.825
				c0.079-0.141,0.22-0.211,0.422-0.211c0.18,0,0.311,0.054,0.392,0.16c0.082,0.106,0.122,0.278,0.122,0.514v2.139
				c0,0.281-0.038,0.474-0.113,0.581c-0.076,0.107-0.209,0.16-0.399,0.16c-0.202,0-0.343-0.07-0.422-0.21
				c-0.077-0.14-0.116-0.416-0.116-0.825v-0.244h-2.224v3.73L204.338,57.835L204.338,57.835z"/>
			<path fill="#754E1F" d="M212.909,57.835h0.244c0.28,0,0.499,0.052,0.656,0.156c0.156,0.104,0.234,0.251,0.234,0.442
				c0,0.202-0.067,0.351-0.206,0.446c-0.138,0.095-0.354,0.143-0.651,0.143h-2.324c-0.168,0-0.309-0.056-0.421-0.168
				s-0.168-0.252-0.168-0.421c0-0.208,0.076-0.359,0.228-0.455c0.152-0.096,0.394-0.143,0.725-0.143h0.169l2.728-2.795l-2.678-2.602
				h-0.117c-0.326,0-0.552-0.043-0.678-0.13c-0.127-0.087-0.189-0.24-0.189-0.459c0-0.23,0.071-0.389,0.214-0.476
				c0.145-0.087,0.418-0.131,0.821-0.131h1.728c0.303,0,0.521,0.049,0.659,0.147c0.139,0.098,0.207,0.251,0.207,0.459
				c0,0.191-0.077,0.337-0.231,0.438c-0.154,0.101-0.377,0.151-0.669,0.151h-0.067l1.812,1.776l1.726-1.776h-0.177
				c-0.314,0-0.547-0.046-0.699-0.139c-0.151-0.092-0.227-0.237-0.227-0.434c0-0.219,0.066-0.377,0.201-0.477
				c0.136-0.099,0.354-0.146,0.656-0.146h2.189c0.174,0,0.314,0.055,0.425,0.165c0.109,0.109,0.164,0.251,0.164,0.425
				c0,0.208-0.07,0.361-0.21,0.459c-0.142,0.098-0.365,0.147-0.674,0.147h-0.235l-2.417,2.518l2.947,2.879h0.084
				c0.213,0,0.379,0.052,0.497,0.156c0.117,0.104,0.177,0.251,0.177,0.442c0,0.225-0.067,0.379-0.202,0.463
				s-0.413,0.126-0.834,0.126h-1.718c-0.297,0-0.518-0.048-0.656-0.143c-0.141-0.095-0.211-0.244-0.211-0.446
				c0-0.185,0.067-0.331,0.202-0.438c0.135-0.106,0.32-0.16,0.556-0.16h0.473l-2.122-2.071L212.909,57.835z"/>
		</g>
		<g>
			<path fill="#754E1F" d="M26.949,82.251c0.432,0,0.708,0.039,0.829,0.121c0.12,0.082,0.181,0.233,0.181,0.459
				c0,0.229-0.061,0.389-0.181,0.477c-0.121,0.086-0.397,0.13-0.829,0.13h-5.111h-0.396c-0.202,0-0.356-0.05-0.463-0.151
				c-0.107-0.101-0.16-0.252-0.16-0.455c0-0.225,0.062-0.377,0.186-0.459c0.123-0.08,0.401-0.121,0.833-0.121h1.903v-7.586h-1.903
				c-0.421,0-0.694-0.043-0.824-0.131s-0.193-0.246-0.193-0.477c0-0.207,0.054-0.359,0.16-0.459
				c0.105-0.098,0.267-0.146,0.479-0.146h0.379h5.111h0.396c0.201,0,0.354,0.051,0.459,0.151c0.104,0.101,0.154,0.253,0.154,0.454
				c0,0.23-0.062,0.389-0.188,0.477s-0.399,0.131-0.82,0.131h-1.903v7.586H26.949L26.949,82.251z"/>
			<path fill="#754E1F" d="M31.604,82.251v-5.397h-0.159c-0.382,0-0.646-0.045-0.788-0.136c-0.143-0.09-0.214-0.246-0.214-0.471
				c0-0.207,0.059-0.357,0.177-0.451c0.117-0.092,0.31-0.139,0.572-0.139h0.396h0.81c0.15,0,0.27,0.03,0.354,0.094
				c0.084,0.062,0.126,0.146,0.126,0.252v0.572c0.41-0.382,0.815-0.664,1.218-0.847c0.4-0.183,0.817-0.272,1.25-0.272
				c0.848,0,1.515,0.264,2,0.791c0.484,0.526,0.729,1.258,0.729,2.188v3.813h0.396c0.279,0,0.481,0.047,0.605,0.14
				c0.123,0.092,0.186,0.239,0.186,0.44c0,0.219-0.065,0.375-0.197,0.467c-0.132,0.095-0.366,0.141-0.703,0.141H36.5
				c-0.358,0-0.59-0.042-0.689-0.126c-0.103-0.084-0.152-0.244-0.152-0.479c0-0.219,0.061-0.371,0.177-0.455
				c0.118-0.084,0.34-0.125,0.666-0.125h0.294v-3.504c0-0.656-0.147-1.156-0.445-1.502c-0.297-0.347-0.729-0.519-1.296-0.519
				c-0.573,0-1.078,0.192-1.517,0.58c-0.438,0.388-0.657,0.866-0.657,1.44v3.502h0.295c0.338,0,0.564,0.041,0.683,0.125
				c0.118,0.086,0.177,0.236,0.177,0.455c0,0.236-0.05,0.396-0.151,0.48c-0.101,0.084-0.348,0.126-0.739,0.126H31.61h-0.46
				c-0.23,0-0.403-0.05-0.519-0.147c-0.114-0.098-0.173-0.25-0.173-0.459c0-0.225,0.065-0.377,0.197-0.459
				c0.132-0.08,0.389-0.121,0.771-0.121h0.177V82.251z"/>
			<path fill="#754E1F" d="M42.912,85.593h2.021c0.214,0,0.374,0.051,0.479,0.152c0.106,0.1,0.16,0.252,0.16,0.453
				c0,0.219-0.053,0.373-0.156,0.463c-0.103,0.09-0.287,0.135-0.552,0.135h-3.713c-0.225,0-0.395-0.049-0.509-0.15
				c-0.115-0.102-0.173-0.25-0.173-0.445c0-0.226,0.07-0.383,0.215-0.473c0.143-0.09,0.408-0.135,0.796-0.135h0.159v-8.739h-0.159
				c-0.388,0-0.653-0.045-0.796-0.136c-0.145-0.09-0.215-0.246-0.215-0.471c0-0.197,0.058-0.345,0.173-0.441
				c0.114-0.1,0.284-0.148,0.509-0.148h1.28c0.168,0,0.29,0.029,0.365,0.086c0.075,0.055,0.113,0.143,0.113,0.26v0.816
				c0.382-0.393,0.805-0.688,1.269-0.884c0.463-0.196,0.961-0.294,1.493-0.294c1.129,0,2.071,0.381,2.829,1.145
				c0.759,0.764,1.138,1.721,1.138,2.871c0,1.105-0.359,2.016-1.078,2.729c-0.718,0.714-1.637,1.068-2.753,1.068
				c-0.596,0-1.144-0.104-1.643-0.314c-0.5-0.211-0.918-0.514-1.255-0.905L42.912,85.593L42.912,85.593z M45.522,82.216
				c0.78,0,1.42-0.244,1.92-0.736c0.499-0.49,0.749-1.127,0.749-1.906c0-0.764-0.251-1.394-0.754-1.891
				c-0.502-0.496-1.142-0.745-1.915-0.745c-0.774,0-1.409,0.247-1.903,0.741c-0.493,0.494-0.74,1.125-0.74,1.895
				c0,0.774,0.245,1.408,0.736,1.902S44.742,82.216,45.522,82.216z"/>
			<path fill="#754E1F" d="M53.336,80.332c0,0.707,0.148,1.224,0.446,1.549c0.297,0.326,0.77,0.488,1.414,0.488
				c0.612,0,1.136-0.193,1.57-0.58c0.434-0.389,0.651-0.873,0.651-1.457v-3.478h-1.152c-0.22,0-0.377-0.046-0.477-0.14
				c-0.099-0.092-0.146-0.236-0.146-0.434c0-0.214,0.054-0.369,0.16-0.472c0.105-0.103,0.276-0.151,0.514-0.151h1.793
				c0.214,0,0.363,0.047,0.451,0.139c0.087,0.094,0.13,0.318,0.13,0.679v5.776h0.388c0.274,0,0.474,0.045,0.594,0.135
				s0.182,0.238,0.182,0.445c0,0.201-0.059,0.354-0.173,0.455c-0.115,0.1-0.282,0.15-0.501,0.15H57.9
				c-0.151,0-0.271-0.029-0.354-0.094c-0.085-0.061-0.127-0.145-0.127-0.252V82.52c-0.538,0.414-1,0.698-1.385,0.854
				c-0.385,0.154-0.79,0.231-1.217,0.231c-0.926,0-1.62-0.246-2.084-0.737c-0.463-0.49-0.694-1.232-0.694-2.228v-3.788h-0.177
				c-0.382,0-0.643-0.045-0.783-0.135c-0.14-0.09-0.21-0.248-0.21-0.473c0-0.195,0.055-0.344,0.164-0.44
				c0.109-0.099,0.279-0.147,0.509-0.147h1.271c0.196,0,0.333,0.039,0.408,0.118c0.075,0.078,0.113,0.252,0.113,0.521L53.336,80.332
				L53.336,80.332z"/>
			<path fill="#754E1F" d="M68.077,76.13c0.275,0,0.477,0.047,0.604,0.143c0.126,0.096,0.188,0.247,0.188,0.455
				c0,0.195-0.06,0.344-0.177,0.441c-0.118,0.099-0.295,0.146-0.53,0.146h-3.41v2.812c0,0.922,0.119,1.527,0.357,1.818
				c0.238,0.293,0.646,0.438,1.226,0.438c0.512,0,1.122-0.148,1.835-0.446c0.713-0.297,1.153-0.444,1.322-0.444
				c0.157,0,0.29,0.055,0.399,0.168c0.108,0.111,0.164,0.25,0.164,0.412c0,0.186-0.068,0.348-0.206,0.483
				c-0.139,0.138-0.372,0.271-0.703,0.399c-0.55,0.219-1.045,0.379-1.485,0.479s-0.854,0.151-1.242,0.151
				c-0.656,0-1.208-0.105-1.653-0.315c-0.446-0.21-0.779-0.522-0.998-0.938c-0.112-0.197-0.192-0.43-0.24-0.699
				c-0.048-0.268-0.071-0.684-0.071-1.245v-0.263v-2.812h-1.432c-0.235,0-0.406-0.046-0.513-0.14
				c-0.107-0.092-0.16-0.242-0.16-0.449c0-0.23,0.071-0.389,0.219-0.473c0.146-0.084,0.457-0.125,0.935-0.125h0.951v-1.728v-0.446
				c0-0.24,0.052-0.418,0.156-0.533c0.104-0.115,0.265-0.174,0.483-0.174c0.246,0,0.418,0.07,0.514,0.211s0.144,0.461,0.144,0.961
				v1.709h3.324V76.13z"/>
			<path fill="#754E1F" d="M73.196,83.438c-0.297,0-0.518-0.06-0.66-0.181c-0.144-0.121-0.215-0.309-0.215-0.561
				c0-0.365,0.538-1.05,1.616-2.056l0.244-0.235c0.163-0.156,0.397-0.382,0.707-0.673c1.941-1.83,2.913-3.163,2.913-4
				c0-0.601-0.172-1.087-0.515-1.461c-0.342-0.373-0.785-0.56-1.33-0.56c-0.354,0-0.69,0.072-1.015,0.22
				c-0.322,0.146-0.582,0.342-0.778,0.589c-0.034,0.045-0.087,0.12-0.16,0.229c-0.208,0.375-0.439,0.562-0.698,0.562
				c-0.202,0-0.346-0.062-0.43-0.186c-0.085-0.123-0.127-0.358-0.127-0.707c0-0.203,0.021-0.35,0.061-0.442
				c0.039-0.093,0.111-0.19,0.219-0.3c0.359-0.348,0.804-0.622,1.334-0.827c0.531-0.205,1.074-0.31,1.63-0.31
				c0.932,0,1.71,0.301,2.336,0.901s0.938,1.339,0.938,2.214c0,1.102-0.954,2.562-2.862,4.387c-0.488,0.455-0.861,0.812-1.12,1.07
				l-1.035,0.993h3.849c0.021-0.241,0.089-0.425,0.197-0.552c0.109-0.127,0.258-0.189,0.441-0.189c0.186,0,0.331,0.062,0.438,0.186
				s0.159,0.291,0.159,0.506c0,0.018-0.003,0.046-0.008,0.089c-0.006,0.041-0.009,0.071-0.009,0.088l-0.067,0.647
				c-0.017,0.174-0.066,0.312-0.15,0.408c-0.084,0.1-0.193,0.147-0.328,0.147h-5.574V83.438z"/>
		</g>
		<g>
			<path fill="#754E1F" d="M180.107,84.613h-0.396c-0.201,0-0.354-0.051-0.458-0.152c-0.104-0.102-0.155-0.252-0.155-0.455
				c0-0.225,0.061-0.377,0.181-0.459c0.121-0.08,0.396-0.121,0.83-0.121h0.538v-7.586h-0.538c-0.421,0-0.695-0.043-0.821-0.131
				s-0.188-0.246-0.188-0.477c0-0.207,0.052-0.359,0.155-0.459c0.104-0.098,0.263-0.146,0.477-0.146h0.379h6.954
				c0.189,0,0.335,0.059,0.434,0.172c0.099,0.115,0.147,0.283,0.147,0.502v1.986c0,0.293-0.042,0.494-0.126,0.606
				c-0.085,0.112-0.236,0.169-0.455,0.169c-0.23,0-0.39-0.062-0.477-0.186c-0.087-0.125-0.131-0.401-0.131-0.834v-1.203h-4.479
				v2.836h2.205V78.23c0-0.303,0.041-0.514,0.122-0.631c0.082-0.119,0.224-0.178,0.426-0.178c0.196,0,0.332,0.062,0.408,0.188
				c0.075,0.128,0.112,0.397,0.112,0.812v1.566c0,0.422-0.039,0.689-0.116,0.809c-0.079,0.117-0.221,0.177-0.422,0.177
				s-0.342-0.065-0.417-0.201s-0.113-0.396-0.113-0.782v-0.296h-2.205v3.729h4.479V82.06c0-0.432,0.044-0.709,0.131-0.833
				c0.087-0.123,0.245-0.185,0.477-0.185c0.213,0,0.363,0.057,0.45,0.172s0.131,0.332,0.131,0.652v2.121
				c0,0.202-0.051,0.355-0.151,0.463c-0.102,0.106-0.244,0.16-0.43,0.16h-6.956V84.613z"/>
			<path fill="#754E1F" d="M192.215,83.425h0.244c0.28,0,0.499,0.051,0.656,0.154c0.157,0.104,0.235,0.252,0.235,0.442
				c0,0.201-0.068,0.351-0.206,0.444c-0.139,0.097-0.354,0.145-0.652,0.145h-2.324c-0.168,0-0.309-0.056-0.421-0.169
				c-0.111-0.11-0.168-0.252-0.168-0.42c0-0.208,0.076-0.358,0.229-0.455c0.151-0.097,0.393-0.144,0.724-0.144h0.169l2.729-2.795
				l-2.679-2.603h-0.117c-0.325,0-0.552-0.044-0.678-0.13c-0.127-0.088-0.188-0.24-0.188-0.459c0-0.23,0.07-0.389,0.214-0.477
				c0.144-0.086,0.417-0.131,0.821-0.131h1.727c0.303,0,0.522,0.049,0.66,0.147s0.207,0.251,0.207,0.459
				c0,0.19-0.078,0.336-0.232,0.438c-0.153,0.101-0.377,0.15-0.669,0.15h-0.066l1.811,1.775l1.726-1.775h-0.177
				c-0.313,0-0.547-0.046-0.699-0.141c-0.15-0.092-0.227-0.235-0.227-0.434c0-0.219,0.067-0.377,0.202-0.475
				c0.135-0.1,0.354-0.148,0.656-0.148h2.188c0.174,0,0.315,0.055,0.425,0.166c0.109,0.108,0.164,0.25,0.164,0.424
				c0,0.209-0.069,0.361-0.21,0.459c-0.141,0.099-0.365,0.147-0.674,0.147h-0.235l-2.417,2.519l2.947,2.879h0.084
				c0.213,0,0.379,0.052,0.497,0.156c0.117,0.104,0.177,0.25,0.177,0.441c0,0.225-0.066,0.379-0.202,0.463
				c-0.135,0.084-0.412,0.126-0.834,0.126h-1.718c-0.297,0-0.517-0.048-0.656-0.144c-0.141-0.096-0.211-0.244-0.211-0.445
				c0-0.186,0.067-0.332,0.202-0.438c0.135-0.106,0.32-0.16,0.557-0.16h0.472l-2.122-2.071L192.215,83.425z"/>
			<path fill="#754E1F" d="M205.188,83.425h2.703c0.219,0,0.38,0.045,0.483,0.139c0.104,0.092,0.155,0.24,0.155,0.441
				c0,0.229-0.049,0.389-0.147,0.477c-0.098,0.086-0.278,0.131-0.543,0.131h-6.532c-0.226,0-0.394-0.051-0.505-0.152
				c-0.112-0.101-0.17-0.252-0.17-0.455c0-0.195,0.061-0.342,0.178-0.438c0.118-0.096,0.295-0.143,0.529-0.143h2.568v-5.397h-1.642
				c-0.23,0-0.406-0.052-0.526-0.155c-0.121-0.104-0.181-0.254-0.181-0.451c0-0.195,0.056-0.344,0.168-0.44
				c0.111-0.099,0.279-0.147,0.505-0.147h2.467c0.152,0,0.271,0.031,0.358,0.094s0.13,0.146,0.13,0.252L205.188,83.425
				L205.188,83.425z M203.631,74.408c0-0.605,0.056-0.988,0.165-1.146c0.109-0.156,0.345-0.234,0.702-0.234
				c0.35,0,0.578,0.066,0.69,0.197c0.111,0.133,0.169,0.445,0.169,0.939c0,0.481-0.052,0.78-0.156,0.896
				c-0.104,0.114-0.338,0.172-0.703,0.172c-0.357,0-0.593-0.054-0.702-0.159S203.631,74.744,203.631,74.408z"/>
			<path fill="#754E1F" d="M217.052,77.304c0.274,0,0.476,0.047,0.603,0.143c0.126,0.096,0.189,0.247,0.189,0.455
				c0,0.196-0.061,0.344-0.178,0.441c-0.118,0.099-0.295,0.146-0.529,0.146h-3.41v2.812c0,0.922,0.119,1.527,0.356,1.818
				c0.238,0.293,0.647,0.438,1.227,0.438c0.511,0,1.122-0.149,1.835-0.446c0.713-0.298,1.152-0.445,1.321-0.445
				c0.157,0,0.29,0.056,0.399,0.168c0.109,0.111,0.164,0.25,0.164,0.412c0,0.186-0.068,0.348-0.206,0.483
				c-0.138,0.138-0.372,0.271-0.703,0.399c-0.55,0.22-1.045,0.379-1.484,0.479c-0.441,0.101-0.855,0.151-1.242,0.151
				c-0.657,0-1.208-0.105-1.654-0.314c-0.446-0.211-0.779-0.523-0.998-0.939c-0.112-0.196-0.192-0.43-0.24-0.698
				s-0.07-0.685-0.07-1.246V81.3V78.49h-1.433c-0.234,0-0.406-0.047-0.513-0.14c-0.107-0.093-0.16-0.243-0.16-0.45
				c0-0.23,0.072-0.389,0.219-0.473s0.457-0.125,0.936-0.125h0.951v-1.727v-0.447c0-0.24,0.052-0.418,0.155-0.533
				c0.104-0.115,0.266-0.174,0.483-0.174c0.247,0,0.418,0.07,0.514,0.211c0.097,0.141,0.145,0.461,0.145,0.961v1.709h3.324V77.304z"
				/>
		</g>
		<g>
			<path fill="#754E1F" d="M20.639,14.761l0.368,6.009l1.262-4.43c0.096-0.328,0.253-0.574,0.472-0.738s0.502-0.246,0.851-0.246
				c0.35,0,0.628,0.079,0.837,0.236c0.208,0.157,0.363,0.407,0.466,0.749l1.282,4.43l0.358-6.009h-0.277
				c-0.396,0-0.689-0.092-0.882-0.277c-0.191-0.185-0.287-0.468-0.287-0.851c0-0.41,0.097-0.703,0.287-0.876
				c0.191-0.175,0.523-0.262,0.995-0.262h2.471c0.466,0,0.796,0.089,0.989,0.267c0.195,0.178,0.292,0.468,0.292,0.872
				c0,0.369-0.094,0.649-0.282,0.841c-0.188,0.191-0.463,0.287-0.825,0.287h-0.175l-0.983,9.034
				c-0.034,0.355-0.104,0.588-0.205,0.697c-0.103,0.109-0.342,0.164-0.718,0.164h-0.482c-0.287,0-0.498-0.053-0.63-0.159
				c-0.134-0.105-0.265-0.381-0.395-0.825l-1.876-6.091l-1.806,6.091c-0.123,0.431-0.251,0.702-0.385,0.815
				c-0.133,0.112-0.347,0.169-0.641,0.169h-0.482c-0.369,0-0.604-0.053-0.703-0.159c-0.099-0.105-0.166-0.34-0.2-0.702l-1.015-9.034
				h-0.164c-0.362,0-0.639-0.096-0.831-0.287s-0.287-0.472-0.287-0.841c0-0.403,0.1-0.694,0.297-0.872
				c0.198-0.178,0.526-0.267,0.984-0.267h2.48c0.466,0,0.796,0.089,0.989,0.267c0.195,0.178,0.292,0.468,0.292,0.872
				c0,0.383-0.096,0.667-0.287,0.851c-0.19,0.184-0.488,0.277-0.892,0.277h-0.263V14.761z"/>
			<path fill="#754E1F" d="M34.543,16.217c0.239-0.417,0.578-0.735,1.016-0.954c0.437-0.219,0.96-0.328,1.568-0.328
				c1.08,0,1.913,0.314,2.497,0.943c0.585,0.629,0.877,1.531,0.877,2.707v3.825h0.174c0.362,0,0.638,0.094,0.826,0.282
				s0.282,0.463,0.282,0.826c0,0.403-0.097,0.694-0.292,0.872c-0.194,0.178-0.524,0.267-0.989,0.267h-2.543
				c-0.458,0-0.784-0.089-0.979-0.267c-0.194-0.178-0.292-0.468-0.292-0.872c0-0.369,0.092-0.646,0.276-0.831
				c0.186-0.185,0.462-0.277,0.831-0.277h0.164v-2.984c0-0.875-0.106-1.481-0.322-1.82c-0.216-0.338-0.583-0.507-1.103-0.507
				c-0.547,0-1.015,0.22-1.405,0.662c-0.39,0.44-0.584,0.996-0.584,1.666v2.984h0.164c0.369,0,0.647,0.094,0.835,0.282
				c0.188,0.188,0.282,0.463,0.282,0.826c0,0.403-0.099,0.694-0.297,0.872c-0.198,0.178-0.526,0.267-0.984,0.267H32
				c-0.472,0-0.803-0.087-0.995-0.262c-0.19-0.174-0.286-0.466-0.286-0.876c0-0.362,0.094-0.637,0.281-0.826
				c0.188-0.188,0.463-0.282,0.825-0.282H32v-8.9h-0.174c-0.362,0-0.641-0.097-0.836-0.292c-0.194-0.194-0.292-0.477-0.292-0.846
				c0-0.403,0.099-0.694,0.297-0.872c0.198-0.178,0.533-0.267,1.005-0.267h1.929c0.231,0,0.393,0.048,0.481,0.144
				c0.089,0.096,0.133,0.273,0.133,0.533V16.217z"/>
			<path fill="#754E1F" d="M50.232,22.41h2.205c0.472,0,0.807,0.085,1.005,0.256s0.297,0.455,0.297,0.851
				c0,0.403-0.101,0.694-0.303,0.872c-0.202,0.178-0.535,0.267-1,0.267h-6.933c-0.465,0-0.798-0.089-1-0.267
				c-0.201-0.178-0.303-0.468-0.303-0.872c0-0.396,0.098-0.68,0.292-0.851c0.195-0.171,0.532-0.256,1.01-0.256h2.205v-4.983h-1.159
				c-0.458,0-0.785-0.087-0.983-0.261c-0.198-0.175-0.297-0.463-0.297-0.867c0-0.404,0.096-0.69,0.287-0.861
				c0.19-0.171,0.522-0.256,0.994-0.256h3.087c0.19,0,0.338,0.04,0.44,0.118c0.104,0.078,0.154,0.186,0.154,0.323L50.232,22.41
				L50.232,22.41z M48.755,10.546c0.499,0,0.831,0.096,0.995,0.287s0.246,0.649,0.246,1.374c0,0.697-0.074,1.13-0.22,1.297
				c-0.147,0.168-0.494,0.251-1.041,0.251c-0.533,0-0.877-0.079-1.03-0.236s-0.23-0.472-0.23-0.943c0-0.875,0.079-1.432,0.235-1.671
				C47.867,10.666,48.215,10.546,48.755,10.546z"/>
			<path fill="#754E1F" d="M62.66,22.41h2.205c0.472,0,0.803,0.085,0.995,0.256s0.287,0.455,0.287,0.851
				c0,0.403-0.098,0.694-0.292,0.872c-0.194,0.178-0.524,0.267-0.989,0.267h-6.952c-0.458,0-0.784-0.089-0.979-0.267
				c-0.194-0.178-0.292-0.468-0.292-0.872s0.094-0.688,0.281-0.856c0.188-0.167,0.519-0.251,0.989-0.251h2.205v-8.9h-1.128
				c-0.465,0-0.798-0.09-1-0.271c-0.202-0.181-0.303-0.47-0.303-0.866c0-0.403,0.099-0.694,0.297-0.872s0.533-0.267,1.005-0.267
				h3.066c0.19,0,0.34,0.04,0.445,0.118c0.105,0.079,0.159,0.187,0.159,0.323L62.66,22.41L62.66,22.41z"/>
			<path fill="#754E1F" d="M71.211,20.523c0.179,0.759,0.521,1.326,1.03,1.702s1.188,0.564,2.036,0.564s1.685-0.207,2.512-0.62
				s1.326-0.621,1.497-0.621c0.253,0,0.459,0.094,0.62,0.282s0.241,0.429,0.241,0.723c0,0.644-0.476,1.196-1.425,1.661
				c-0.95,0.465-2.126,0.697-3.527,0.697c-1.654,0-3-0.465-4.035-1.395c-1.036-0.93-1.554-2.126-1.554-3.589
				c0-1.456,0.518-2.649,1.554-3.579c1.035-0.93,2.38-1.395,4.035-1.395c1.477,0,2.7,0.436,3.671,1.308
				c0.971,0.871,1.456,1.939,1.456,3.204c0,0.403-0.097,0.68-0.292,0.831c-0.194,0.15-0.596,0.226-1.205,0.226L71.211,20.523
				L71.211,20.523z M76.738,18.924c-0.116-0.636-0.416-1.128-0.897-1.477c-0.481-0.349-1.108-0.523-1.882-0.523
				c-0.745,0-1.345,0.166-1.8,0.497c-0.455,0.332-0.771,0.833-0.948,1.502L76.738,18.924L76.738,18.924z"/>
			<path fill="#754E1F" d="M98.097,14.761v7.649h4.666v-1.825c0-0.472,0.083-0.807,0.251-1.005c0.167-0.198,0.445-0.297,0.835-0.297
				c0.389,0,0.673,0.101,0.851,0.303s0.267,0.535,0.267,1v3.148c0,0.369-0.071,0.615-0.215,0.738
				c-0.143,0.123-0.431,0.185-0.86,0.185h-9.301c-0.443,0-0.762-0.089-0.953-0.267c-0.192-0.178-0.287-0.468-0.287-0.872
				c0-0.396,0.094-0.68,0.281-0.851c0.188-0.171,0.509-0.256,0.959-0.256h0.902v-7.649H94.59c-0.443,0-0.762-0.089-0.953-0.267
				c-0.192-0.178-0.287-0.465-0.287-0.861c0-0.396,0.101-0.685,0.302-0.867c0.202-0.181,0.521-0.271,0.959-0.271h4.368
				c0.438,0,0.757,0.091,0.959,0.271c0.201,0.182,0.302,0.47,0.302,0.867c0,0.397-0.099,0.684-0.297,0.861
				c-0.198,0.177-0.521,0.267-0.964,0.267L98.097,14.761L98.097,14.761z"/>
			<path fill="#754E1F" d="M111.807,14.956c1.661,0,3.008,0.465,4.04,1.395c1.031,0.93,1.548,2.123,1.548,3.579
				c0,1.463-0.517,2.659-1.548,3.589c-1.032,0.93-2.379,1.395-4.04,1.395c-1.654,0-2.998-0.465-4.03-1.395s-1.548-2.126-1.548-3.589
				c0-1.456,0.518-2.649,1.554-3.579C108.817,15.42,110.159,14.956,111.807,14.956z M111.807,17.119
				c-0.801,0-1.458,0.261-1.975,0.785c-0.517,0.521-0.773,1.19-0.773,2.004c0,0.82,0.258,1.499,0.773,2.036
				c0.517,0.537,1.174,0.805,1.975,0.805c0.8,0,1.459-0.268,1.979-0.805c0.521-0.537,0.779-1.215,0.779-2.036
				c0-0.813-0.258-1.482-0.774-2.004C113.274,17.38,112.613,17.119,111.807,17.119z"/>
			<path fill="#754E1F" d="M124.409,14.956c1.66,0,3.008,0.465,4.039,1.395c1.033,0.93,1.549,2.123,1.549,3.579
				c0,1.463-0.516,2.659-1.549,3.589c-1.031,0.93-2.379,1.395-4.039,1.395c-1.654,0-2.998-0.465-4.03-1.395
				c-1.031-0.93-1.548-2.126-1.548-3.589c0-1.456,0.519-2.649,1.555-3.579C121.419,15.42,122.761,14.956,124.409,14.956z
				 M124.409,17.119c-0.801,0-1.459,0.261-1.975,0.785c-0.517,0.521-0.773,1.19-0.773,2.004c0,0.82,0.258,1.499,0.773,2.036
				c0.515,0.537,1.174,0.805,1.975,0.805c0.799,0,1.459-0.268,1.979-0.805c0.52-0.537,0.778-1.215,0.778-2.036
				c0-0.813-0.258-1.482-0.772-2.004C125.876,17.38,125.216,17.119,124.409,17.119z"/>
			<path fill="#754E1F" d="M135.062,23.692v2.789h1.302c0.465,0,0.799,0.089,1,0.267c0.201,0.178,0.303,0.468,0.303,0.872
				c0,0.396-0.1,0.68-0.297,0.851c-0.199,0.171-0.533,0.256-1.006,0.256h-4.348c-0.472,0-0.804-0.084-0.994-0.251
				c-0.191-0.167-0.287-0.453-0.287-0.856c0-0.403,0.098-0.694,0.292-0.872c0.195-0.178,0.524-0.267,0.989-0.267h0.604v-9.054
				h-0.164c-0.361,0-0.639-0.096-0.83-0.287c-0.19-0.191-0.287-0.472-0.287-0.841c0-0.403,0.097-0.69,0.287-0.861
				c0.191-0.171,0.522-0.256,0.994-0.256h1.579c0.198,0,0.345,0.036,0.44,0.107c0.096,0.072,0.145,0.176,0.145,0.313v0.738
				c0.348-0.465,0.771-0.815,1.267-1.051c0.495-0.235,1.055-0.354,1.677-0.354c1.4,0,2.562,0.448,3.485,1.343
				c0.924,0.895,1.385,2.023,1.385,3.384c0,1.422-0.447,2.599-1.344,3.533c-0.896,0.933-2.022,1.399-3.384,1.399
				c-0.554,0-1.071-0.077-1.554-0.229C135.837,24.209,135.418,23.986,135.062,23.692z M137.431,17.119
				c-0.677,0-1.233,0.25-1.671,0.749c-0.438,0.499-0.656,1.138-0.656,1.917c0,0.779,0.219,1.418,0.656,1.917
				c0.437,0.499,0.994,0.749,1.671,0.749c0.678,0,1.235-0.251,1.677-0.753c0.44-0.503,0.661-1.14,0.661-1.913
				c0-0.779-0.22-1.418-0.656-1.917C138.676,17.369,138.114,17.119,137.431,17.119z"/>
		</g>
	</g>
</g>
</svg>
