<?xml version="1.0" encoding="utf-8"?>
<!-- Generator: Adobe Illustrator 16.0.0, SVG Export Plug-In . SVG Version: 6.00 Build 0)  -->
<!DOCTYPE svg PUBLIC "-//W3C//DTD SVG 1.1//EN" "http://www.w3.org/Graphics/SVG/1.1/DTD/svg11.dtd">
<svg version="1.1" id="Layer_1" xmlns="http://www.w3.org/2000/svg" xmlns:xlink="http://www.w3.org/1999/xlink" x="0px" y="0px"
	 width="22.678px" height="22.678px" viewBox="0 0 22.678 22.678" enable-background="new 0 0 22.678 22.678" xml:space="preserve">
<g>
	<path fill="#FFFFFF" d="M19.394,6.29h-2.01v10.58h2.01c0.838,0,1.533-0.697,1.533-1.534v-7.51
		C20.929,6.988,20.232,6.29,19.394,6.29z M19.198,12.488c-0.504,0-0.922-0.419-0.922-0.922c0-0.502,0.418-0.921,0.922-0.921
		c0.502,0,0.92,0.418,0.92,0.921S19.7,12.488,19.198,12.488z"/>
	<rect x="4.385" y="6.29" fill="#FFFFFF" width="12.125" height="10.58"/>
	<path fill="#FFFFFF" d="M3.635,6.29H3.287c-0.866,0-1.536,0.67-1.536,1.508v7.538c0,0.837,0.696,1.534,1.534,1.534h0.351V6.29z
		 M2.726,12.404c0,0.087-0.057,0.141-0.139,0.141c-0.085-0.027-0.141-0.084-0.141-0.141V10.73c0-0.084,0.057-0.139,0.141-0.139
		c0.083,0,0.139,0.056,0.139,0.139V12.404z"/>
</g>
</svg>
