<?xml version="1.0" encoding="utf-8"?>
<!-- Generator: Adobe Illustrator 16.0.0, SVG Export Plug-In . SVG Version: 6.00 Build 0)  -->
<!DOCTYPE svg PUBLIC "-//W3C//DTD SVG 1.1//EN" "http://www.w3.org/Graphics/SVG/1.1/DTD/svg11.dtd">
<svg version="1.1" id="Layer_1" xmlns="http://www.w3.org/2000/svg" xmlns:xlink="http://www.w3.org/1999/xlink" x="0px" y="0px"
	 width="22.678px" height="22.678px" viewBox="0 0 22.678 22.678" enable-background="new 0 0 22.678 22.678" xml:space="preserve">
<g>
	<path fill="#FFFFFF" d="M11.54,9.304c-0.878-1.777-2.785-1.349-2.785,0S10.64,10.997,11.54,9.304z M10.597,9.476H9.462V9.112h1.135
		V9.476z"/>
	<path fill="#FFFFFF" d="M15.032,9.304c0.021-1.306-1.949-1.799-2.742,0C13.06,11.018,15.032,10.611,15.032,9.304z M13.189,9.09
		h0.387V8.705h0.387V9.09h0.363v0.386h-0.363v0.363h-0.387V9.476h-0.387V9.09z"/>
	<path fill="#FFFFFF" d="M20.132,7.353V5H4.424v2.784h-2.5c-0.171,0-0.321,0.149-0.321,0.32v2.356c0,0.171,0.15,0.319,0.321,0.319
		h2.5v4.5H2.995c-0.171,0-0.321,0.148-0.321,0.32v1.713c0,0.172,0.151,0.32,0.321,0.32h1.429v1.285h15.584l1.476-1.478V8.705
		L20.132,7.353z M18.521,13.35c0-0.127,0.086-0.213,0.215-0.213c0.131,0,0.215,0.086,0.217,0.215v0.213h-0.432V13.35z M17.878,13.35
		c0-0.127,0.086-0.213,0.215-0.213c0.128,0,0.214,0.086,0.214,0.215v0.213h-0.429V13.35z M17.235,13.35
		c0-0.127,0.088-0.213,0.218-0.213c0.129,0,0.215,0.086,0.215,0.215v0.213h-0.433V13.35z M16.594,13.35
		c0-0.127,0.086-0.213,0.215-0.213s0.215,0.086,0.215,0.215v0.213h-0.43V13.35z M15.95,13.35c0-0.127,0.086-0.213,0.215-0.213
		s0.215,0.086,0.215,0.215v0.213h-0.43V13.35z M15.739,13.352v0.213h-0.431V13.35c0-0.127,0.086-0.213,0.214-0.213
		C15.652,13.137,15.738,13.223,15.739,13.352z M8.073,9.304c0-1.863,2.591-2.655,3.833-0.664c1.327-2.013,3.771-1.135,3.771,0.664
		s-2.463,2.634-3.771,0.664C10.64,11.874,8.073,11.167,8.073,9.304z M15.094,13.352v0.213h-0.43V13.35
		c0-0.127,0.086-0.213,0.215-0.213S15.094,13.223,15.094,13.352z M14.454,13.352v0.213h-0.432V13.35
		c0-0.127,0.086-0.213,0.215-0.213C14.368,13.137,14.454,13.223,14.454,13.352z M13.81,13.352v0.213h-0.43V13.35
		c0-0.127,0.086-0.213,0.216-0.213C13.724,13.137,13.81,13.223,13.81,13.352z M13.169,13.352v0.213h-0.431V13.35
		c0-0.127,0.087-0.213,0.216-0.213S13.167,13.223,13.169,13.352z M12.525,13.352v0.213h-0.428V13.35
		c0-0.127,0.084-0.213,0.214-0.213C12.439,13.137,12.525,13.223,12.525,13.352z M11.882,13.352v0.213h-0.428V13.35
		c0-0.127,0.086-0.213,0.215-0.213C11.796,13.137,11.882,13.223,11.882,13.352z M11.241,13.352v0.213h-0.431V13.35
		c0-0.127,0.086-0.213,0.214-0.213C11.155,13.137,11.241,13.223,11.241,13.352z M10.598,13.352v0.213h-0.429V13.35
		c0-0.127,0.086-0.213,0.214-0.213C10.512,13.137,10.598,13.223,10.598,13.352z M10.598,16.135c0,0.129-0.086,0.215-0.215,0.215
		s-0.214-0.086-0.214-0.215V15.92h0.429V16.135z M11.241,16.135c0,0.129-0.087,0.215-0.217,0.215c-0.129,0-0.215-0.086-0.215-0.215
		V15.92h0.432V16.135z M11.882,16.135c0,0.129-0.086,0.215-0.213,0.215c-0.129,0-0.215-0.086-0.215-0.215V15.92h0.428V16.135z
		 M12.525,16.135c0,0.129-0.086,0.215-0.214,0.215c-0.13,0-0.214-0.086-0.214-0.215V15.92h0.428V16.135z M13.169,16.135
		c0,0.129-0.086,0.215-0.215,0.215s-0.216-0.086-0.216-0.215V15.92h0.431V16.135z M13.81,16.135c0,0.129-0.086,0.215-0.215,0.215
		c-0.13,0-0.216-0.086-0.216-0.215V15.92h0.431V16.135z M14.454,16.135c0,0.129-0.086,0.215-0.218,0.215
		c-0.128,0-0.214-0.086-0.215-0.215V15.92h0.433V16.135z M15.094,16.135c0,0.129-0.086,0.215-0.215,0.215s-0.215-0.086-0.215-0.215
		V15.92h0.43V16.135z M15.739,16.135c0,0.129-0.088,0.215-0.217,0.215c-0.128,0-0.214-0.086-0.214-0.215V15.92h0.431V16.135z
		 M16.38,16.135c0,0.129-0.086,0.215-0.215,0.215c-0.127,0-0.213-0.086-0.215-0.215V15.92h0.43V16.135z M17.023,16.135
		c0,0.129-0.086,0.215-0.215,0.215s-0.215-0.086-0.215-0.215V15.92h0.43V16.135z M17.665,16.135c0,0.129-0.086,0.215-0.213,0.215
		c-0.129,0-0.218-0.086-0.219-0.215V15.92h0.432V16.135z M18.306,16.135c0,0.129-0.086,0.215-0.214,0.215
		c-0.129,0-0.215-0.086-0.215-0.215V15.92h0.429V16.135z M18.95,16.135c0,0.129-0.084,0.215-0.216,0.215
		c-0.129,0-0.215-0.086-0.215-0.215V15.92h0.431V16.135z M19.378,15.493c0,0.129-0.086,0.215-0.213,0.215h-9.21
		c-0.128,0-0.214-0.086-0.214-0.215v-1.499c0-0.128,0.086-0.217,0.214-0.217h9.209c0.127,0,0.213,0.089,0.213,0.217L19.378,15.493
		L19.378,15.493z"/>
	<path fill="#FFFFFF" d="M18.735,14.743c0,0.235,0.193,0.43,0.431,0.43v-0.858C18.927,14.315,18.735,14.509,18.735,14.743z"/>
</g>
</svg>
