<?xml version="1.0" encoding="utf-8"?>
<!-- Generator: Adobe Illustrator 16.0.0, SVG Export Plug-In . SVG Version: 6.00 Build 0)  -->
<!DOCTYPE svg PUBLIC "-//W3C//DTD SVG 1.1//EN" "http://www.w3.org/Graphics/SVG/1.1/DTD/svg11.dtd">
<svg version="1.1" id="Layer_1" xmlns="http://www.w3.org/2000/svg" xmlns:xlink="http://www.w3.org/1999/xlink" x="0px" y="0px"
	 width="87px" height="55px" viewBox="0 0 87 55" enable-background="new 0 0 87 55" xml:space="preserve">
<path fill="#A7A9AC" d="M78.496,0H8.504C3.808,0,0,3.807,0,8.504v37.992C0,51.193,3.808,55,8.504,55h69.992
	C83.192,55,87,51.193,87,46.496V8.504C87,3.807,83.192,0,78.496,0z"/>
<g>
	<path fill="#414042" d="M23.578,30.762h0.174c0.369,0,0.649,0.094,0.841,0.281c0.191,0.189,0.287,0.464,0.287,0.826
		c0,0.403-0.101,0.693-0.302,0.871c-0.202,0.178-0.535,0.268-1,0.268h-3.086c-0.472,0-0.807-0.088-1.005-0.262
		s-0.297-0.467-0.297-0.877c0-0.396,0.099-0.68,0.297-0.852c0.198-0.17,0.533-0.256,1.005-0.256h0.359l-0.42-1.199H16l-0.441,1.199
		h0.359c0.465,0,0.798,0.088,1,0.262s0.303,0.456,0.303,0.846c0,0.403-0.101,0.693-0.303,0.871s-0.535,0.268-1,0.268h-2.646
		c-0.472,0-0.807-0.09-1.005-0.268s-0.297-0.468-0.297-0.871c0-0.362,0.096-0.637,0.287-0.826c0.191-0.188,0.472-0.281,0.841-0.281
		h0.174l2.748-7.649h-0.82c-0.465,0-0.798-0.089-1-0.267c-0.202-0.178-0.303-0.465-0.303-0.861c0-0.403,0.101-0.694,0.303-0.872
		c0.201-0.178,0.535-0.267,1-0.267h3.845c0.608,0,1.036,0.328,1.282,0.984v0.031L23.578,30.762z M18.205,23.112l-1.487,4.327h2.974
		L18.205,23.112z"/>
	<path fill="#414042" d="M30.551,27.439v3.322h2.42c0.465,0,0.794,0.086,0.99,0.256c0.194,0.172,0.292,0.455,0.292,0.852
		c0,0.403-0.098,0.693-0.292,0.871c-0.195,0.178-0.525,0.268-0.99,0.268h-5.732c-0.472,0-0.807-0.09-1.005-0.268
		s-0.297-0.468-0.297-0.871c0-0.396,0.097-0.68,0.292-0.852c0.194-0.17,0.531-0.256,1.01-0.256h0.779v-4.983h-0.441
		c-0.465,0-0.794-0.087-0.99-0.261c-0.194-0.175-0.292-0.463-0.292-0.867s0.094-0.69,0.282-0.861c0.188-0.171,0.521-0.256,1-0.256
		h2.184c0.185,0,0.328,0.04,0.431,0.118s0.154,0.186,0.154,0.323v1.518c0.745-0.8,1.441-1.371,2.086-1.712
		c0.646-0.342,1.342-0.513,2.087-0.513c0.677,0,1.213,0.152,1.61,0.456c0.396,0.305,0.595,0.713,0.595,1.226
		c0,0.396-0.137,0.723-0.41,0.979c-0.273,0.256-0.625,0.384-1.056,0.384c-0.308,0-0.672-0.113-1.092-0.338
		c-0.421-0.226-0.713-0.338-0.877-0.338c-0.328,0-0.714,0.147-1.159,0.441S31.159,26.824,30.551,27.439z"/>
	<path fill="#414042" d="M43.153,27.439v3.322h2.419c0.465,0,0.795,0.086,0.99,0.256c0.194,0.172,0.292,0.455,0.292,0.852
		c0,0.403-0.098,0.693-0.292,0.871c-0.195,0.178-0.525,0.268-0.99,0.268h-5.731c-0.472,0-0.807-0.09-1.005-0.268
		s-0.297-0.468-0.297-0.871c0-0.396,0.097-0.68,0.292-0.852c0.194-0.17,0.531-0.256,1.01-0.256h0.779v-4.983h-0.441
		c-0.465,0-0.794-0.087-0.99-0.261c-0.194-0.175-0.292-0.463-0.292-0.867s0.094-0.69,0.282-0.861c0.188-0.171,0.521-0.256,1-0.256
		h2.184c0.185,0,0.328,0.04,0.431,0.118s0.154,0.186,0.154,0.323v1.518c0.745-0.8,1.441-1.371,2.086-1.712
		c0.646-0.342,1.342-0.513,2.087-0.513c0.677,0,1.213,0.152,1.609,0.456c0.396,0.305,0.596,0.713,0.596,1.226
		c0,0.396-0.137,0.723-0.41,0.979c-0.273,0.256-0.626,0.384-1.057,0.384c-0.308,0-0.672-0.113-1.092-0.338
		c-0.421-0.226-0.713-0.338-0.877-0.338c-0.328,0-0.715,0.147-1.158,0.441C44.288,26.37,43.761,26.824,43.153,27.439z"/>
	<path fill="#414042" d="M60.4,30.762h0.164c0.369,0,0.65,0.098,0.846,0.293c0.195,0.193,0.292,0.473,0.292,0.835
		c0,0.396-0.101,0.683-0.302,0.856c-0.203,0.174-0.535,0.262-1,0.262h-0.965c-0.342,0-0.596-0.065-0.764-0.195
		s-0.306-0.365-0.415-0.707c-0.567,0.375-1.169,0.662-1.805,0.861c-0.636,0.197-1.278,0.297-1.928,0.297
		c-1.101,0-1.966-0.273-2.595-0.82s-0.943-1.295-0.943-2.246c0-1.025,0.407-1.821,1.221-2.389s1.955-0.851,3.425-0.851
		c0.328,0,0.677,0.017,1.046,0.051s0.783,0.089,1.24,0.164v-0.195c0-0.615-0.148-1.083-0.445-1.405s-0.736-0.482-1.318-0.482
		c-0.451,0-1.027,0.167-1.727,0.502c-0.701,0.335-1.216,0.502-1.544,0.502c-0.321,0-0.581-0.094-0.779-0.282
		c-0.198-0.188-0.298-0.436-0.298-0.743c0-0.554,0.406-0.993,1.215-1.317c0.811-0.325,1.913-0.487,3.308-0.487
		c1.456,0,2.499,0.28,3.128,0.841s0.943,1.511,0.943,2.851V30.762z M57.918,28.783c-0.342-0.075-0.656-0.131-0.943-0.169
		s-0.553-0.057-0.799-0.057c-0.752,0-1.342,0.126-1.77,0.379s-0.641,0.602-0.641,1.046c0,0.396,0.137,0.699,0.41,0.908
		c0.273,0.208,0.666,0.312,1.18,0.312c0.471,0,0.916-0.068,1.332-0.205c0.418-0.137,0.828-0.35,1.23-0.637V28.783z"/>
	<path fill="#414042" d="M67.014,25.778l1.846,4.368l1.938-4.368h-0.164c-0.369,0-0.65-0.096-0.846-0.287
		c-0.194-0.191-0.292-0.472-0.292-0.841c0-0.403,0.098-0.69,0.292-0.861c0.195-0.171,0.531-0.256,1.01-0.256h2.41
		c0.479,0,0.815,0.087,1.01,0.262c0.195,0.174,0.293,0.459,0.293,0.856c0,0.369-0.096,0.649-0.287,0.841s-0.473,0.287-0.842,0.287
		h-0.174l-4.215,9.054h0.462c0.465,0,0.798,0.09,1,0.268c0.201,0.178,0.302,0.468,0.302,0.871c0,0.396-0.101,0.684-0.302,0.861
		c-0.202,0.178-0.535,0.267-1,0.267h-4.491c-0.472,0-0.807-0.087-1.005-0.261c-0.198-0.176-0.298-0.464-0.298-0.867
		s0.1-0.693,0.298-0.871s0.533-0.268,1.005-0.268h1.59l0.963-2.061l-3.106-6.993h-0.164c-0.369,0-0.651-0.096-0.846-0.287
		c-0.195-0.191-0.292-0.472-0.292-0.841c0-0.403,0.099-0.69,0.297-0.861s0.533-0.256,1.005-0.256h2.604
		c0.472,0,0.807,0.087,1.005,0.262c0.198,0.174,0.298,0.459,0.298,0.856c0,0.369-0.098,0.649-0.293,0.841
		c-0.194,0.191-0.473,0.287-0.836,0.287H67.014z"/>
</g>
</svg>
