<?xml version="1.0" encoding="utf-8"?>
<!-- Generator: Adobe Illustrator 16.0.0, SVG Export Plug-In . SVG Version: 6.00 Build 0)  -->
<!DOCTYPE svg PUBLIC "-//W3C//DTD SVG 1.1//EN" "http://www.w3.org/Graphics/SVG/1.1/DTD/svg11.dtd">
<svg version="1.1" id="Layer_1" xmlns="http://www.w3.org/2000/svg" xmlns:xlink="http://www.w3.org/1999/xlink" x="0px" y="0px"
	 width="25.633px" height="24.6px" viewBox="0 0 25.633 24.6" enable-background="new 0 0 25.633 24.6" xml:space="preserve">
<path fill="#25A049" d="M25.633,19.793c0,2.653-2.15,4.807-4.807,4.807H4.805C2.152,24.599,0,22.446,0,19.793V4.807
	C0,2.151,2.152,0,4.805,0h16.021c2.656,0,4.807,2.151,4.807,4.808V19.793z"/>
<g>
	<g>
		<path fill="#FFFFFF" d="M13.629,7.55c0,0.448-0.363,0.812-0.812,0.812l0,0c-0.449,0-0.812-0.364-0.812-0.812V4.175
			c0-0.449,0.363-0.812,0.812-0.812l0,0c0.449,0,0.812,0.363,0.812,0.812V7.55z"/>
		<path fill="#FFFFFF" d="M13.629,20.425c0,0.449-0.363,0.812-0.812,0.812l0,0c-0.449,0-0.812-0.363-0.812-0.812V17.05
			c0-0.449,0.363-0.812,0.812-0.812l0,0c0.449,0,0.812,0.363,0.812,0.812V20.425z"/>
	</g>
	<g>
		<path fill="#FFFFFF" d="M8.066,11.487c0.449,0,0.812,0.363,0.812,0.812l0,0c0,0.449-0.363,0.812-0.812,0.812H4.691
			c-0.449,0-0.812-0.363-0.812-0.812l0,0c0-0.449,0.363-0.812,0.812-0.812H8.066z"/>
		<path fill="#FFFFFF" d="M20.941,11.487c0.449,0,0.812,0.363,0.812,0.812l0,0c0,0.449-0.363,0.812-0.812,0.812h-3.375
			c-0.449,0-0.812-0.363-0.812-0.812l0,0c0-0.449,0.363-0.812,0.812-0.812H20.941z"/>
	</g>
	<g>
		<path fill="#FFFFFF" d="M16.75,9.515c-0.317,0.317-0.832,0.317-1.149,0l0,0c-0.317-0.317-0.317-0.832,0-1.149l2.387-2.387
			c0.317-0.317,0.831-0.317,1.149,0l0,0c0.317,0.318,0.316,0.832-0.001,1.149L16.75,9.515z"/>
		<path fill="#FFFFFF" d="M7.646,18.62c-0.317,0.316-0.831,0.316-1.149,0l0,0c-0.316-0.318-0.316-0.832,0-1.15l2.387-2.387
			c0.318-0.316,0.832-0.316,1.149,0l0,0c0.317,0.318,0.317,0.832,0,1.15L7.646,18.62z"/>
	</g>
	<g>
		<path fill="#FFFFFF" d="M10.032,8.366c0.317,0.318,0.317,0.832,0,1.149l0,0c-0.317,0.317-0.831,0.317-1.149,0L6.496,7.129
			c-0.316-0.317-0.316-0.831,0-1.149l0,0c0.318-0.317,0.832-0.317,1.149,0L10.032,8.366z"/>
		<path fill="#FFFFFF" d="M19.136,17.469c0.318,0.318,0.318,0.832,0,1.15l0,0c-0.317,0.316-0.831,0.316-1.148,0l-2.387-2.387
			c-0.317-0.318-0.317-0.832,0-1.15l0,0c0.317-0.316,0.831-0.316,1.149,0L19.136,17.469z"/>
	</g>
</g>
</svg>
