<?xml version="1.0" encoding="utf-8"?>
<!-- Generator: Adobe Illustrator 16.0.0, SVG Export Plug-In . SVG Version: 6.00 Build 0)  -->
<!DOCTYPE svg PUBLIC "-//W3C//DTD SVG 1.1//EN" "http://www.w3.org/Graphics/SVG/1.1/DTD/svg11.dtd">
<svg version="1.1" id="Layer_1" xmlns="http://www.w3.org/2000/svg" xmlns:xlink="http://www.w3.org/1999/xlink" x="0px" y="0px"
	 width="78.988px" height="57.987px" viewBox="0 0 78.988 57.987" enable-background="new 0 0 78.988 57.987" xml:space="preserve">
<g>
	<g>
		<path fill="#84A2CD" d="M78.988,51.312c0,3.688-2.988,6.676-6.676,6.676H6.676C2.99,57.987,0,54.999,0,51.312V6.676
			C0,2.989,2.99,0,6.676,0h65.637C76,0,78.988,2.989,78.988,6.676V51.312z"/>
		<rect y="23.247" fill="#1B446B" width="11.496" height="11.494"/>
		<rect x="67.492" y="23.247" fill="#1B446B" width="11.496" height="11.494"/>
	</g>
</g>
<g>
	<path fill="#1B446B" d="M19.181,34.597c-0.178,0.137-0.361,0.242-0.549,0.312c-0.188,0.072-0.381,0.108-0.579,0.108
		c-0.294,0-0.501-0.079-0.62-0.235c-0.12-0.158-0.18-0.451-0.18-0.883v-1.363c0-0.451,0.075-0.771,0.226-0.959
		c0.15-0.188,0.41-0.281,0.779-0.281c0.403,0,0.731,0.194,0.984,0.584c0.15,0.212,0.277,0.369,0.379,0.472
		c0.335,0.301,0.725,0.526,1.169,0.677s0.95,0.226,1.518,0.226c0.492,0,0.885-0.096,1.179-0.287s0.441-0.44,0.441-0.749
		c0-0.553-0.79-0.936-2.369-1.148c-0.349-0.041-0.622-0.078-0.82-0.112c-1.189-0.164-2.075-0.487-2.656-0.97
		c-0.581-0.481-0.872-1.129-0.872-1.942c0-0.964,0.349-1.709,1.046-2.235s1.692-0.79,2.984-0.79c0.444,0,0.9,0.036,1.369,0.107
		c0.468,0.072,0.949,0.183,1.441,0.333c0.144-0.171,0.295-0.297,0.457-0.379c0.16-0.082,0.34-0.123,0.538-0.123
		c0.28,0,0.494,0.087,0.641,0.262c0.147,0.174,0.221,0.436,0.221,0.784v1.261c0,0.294-0.075,0.521-0.226,0.682
		s-0.362,0.241-0.636,0.241c-0.28,0-0.761-0.244-1.44-0.733c-0.681-0.489-1.362-0.733-2.046-0.733c-0.533,0-0.947,0.087-1.241,0.262
		c-0.294,0.174-0.441,0.415-0.441,0.723c0,0.479,0.615,0.8,1.846,0.964c0.355,0.041,0.636,0.075,0.841,0.103
		c1.545,0.226,2.606,0.562,3.184,1.01c0.578,0.449,0.867,1.113,0.867,1.995c0,1.032-0.381,1.831-1.143,2.394
		c-0.763,0.564-1.844,0.847-3.246,0.847c-0.547,0-1.073-0.036-1.579-0.108C20.141,34.839,19.652,34.733,19.181,34.597z"/>
	<path fill="#1B446B" d="M36.694,26.425v-0.738c0-0.137,0.049-0.241,0.149-0.313c0.099-0.071,0.248-0.107,0.446-0.107h1.569
		c0.472,0,0.803,0.087,0.995,0.262c0.191,0.174,0.287,0.459,0.287,0.856c0,0.369-0.094,0.649-0.282,0.841
		c-0.188,0.191-0.463,0.287-0.826,0.287h-0.174v9.054h0.615c0.458,0,0.786,0.09,0.984,0.268s0.297,0.468,0.297,0.871
		c0,0.396-0.097,0.68-0.292,0.852c-0.194,0.17-0.524,0.256-0.989,0.256h-4.348c-0.472,0-0.803-0.084-0.995-0.252
		c-0.191-0.167-0.287-0.452-0.287-0.855c0-0.41,0.097-0.703,0.292-0.877c0.194-0.174,0.524-0.262,0.989-0.262h1.302v-2.789
		c-0.355,0.295-0.774,0.518-1.256,0.672c-0.481,0.154-1.003,0.23-1.563,0.23c-1.354,0-2.475-0.467-3.363-1.398
		c-0.889-0.934-1.333-2.111-1.333-3.533c0-1.36,0.456-2.488,1.369-3.384c0.912-0.896,2.073-1.343,3.481-1.343
		c0.615,0,1.172,0.118,1.671,0.354C35.932,25.61,36.353,25.96,36.694,26.425z M34.049,27.204c-0.677,0-1.234,0.25-1.671,0.749
		s-0.656,1.138-0.656,1.917s0.219,1.418,0.656,1.918c0.438,0.498,0.995,0.748,1.671,0.748s1.236-0.252,1.676-0.754
		c0.441-0.502,0.662-1.14,0.662-1.912c0-0.779-0.219-1.418-0.656-1.917S34.732,27.204,34.049,27.204z"/>
	<path fill="#1B446B" d="M46.631,29.173v3.322h2.42c0.465,0,0.794,0.086,0.989,0.256c0.194,0.172,0.292,0.455,0.292,0.852
		c0,0.403-0.098,0.693-0.292,0.871c-0.195,0.178-0.524,0.268-0.989,0.268h-5.732c-0.472,0-0.807-0.09-1.005-0.268
		s-0.298-0.468-0.298-0.871c0-0.396,0.098-0.68,0.293-0.852c0.194-0.17,0.531-0.256,1.01-0.256h0.779v-4.983h-0.441
		c-0.465,0-0.794-0.087-0.989-0.261c-0.194-0.175-0.292-0.463-0.292-0.867s0.094-0.69,0.282-0.861
		c0.188-0.171,0.521-0.256,0.999-0.256h2.185c0.185,0,0.328,0.04,0.431,0.118s0.154,0.186,0.154,0.323v1.518
		c0.744-0.8,1.44-1.371,2.086-1.712C49.158,25.17,49.854,25,50.599,25c0.677,0,1.214,0.152,1.61,0.456
		c0.396,0.305,0.594,0.713,0.594,1.226c0,0.396-0.137,0.723-0.41,0.979c-0.273,0.256-0.625,0.384-1.056,0.384
		c-0.308,0-0.672-0.113-1.092-0.338c-0.421-0.226-0.713-0.338-0.877-0.338c-0.328,0-0.714,0.147-1.159,0.441
		C47.766,28.103,47.238,28.558,46.631,29.173z"/>
	<path fill="#1B446B" d="M58.986,25.84h3.127c0.473,0,0.807,0.085,1.006,0.256c0.197,0.171,0.297,0.455,0.297,0.851
		c0,0.403-0.102,0.694-0.303,0.872s-0.535,0.267-1,0.267h-3.127v2.625c0,0.738,0.113,1.244,0.338,1.518
		c0.227,0.273,0.623,0.41,1.189,0.41c0.533,0,1.162-0.153,1.887-0.462c0.725-0.307,1.211-0.461,1.457-0.461
		c0.279,0,0.521,0.111,0.723,0.334c0.201,0.222,0.303,0.49,0.303,0.805c0,0.525-0.477,1.006-1.432,1.439
		c-0.953,0.436-2.035,0.652-3.244,0.652c-0.705,0-1.323-0.096-1.856-0.287s-0.954-0.465-1.261-0.82
		c-0.227-0.273-0.387-0.602-0.482-0.984s-0.144-1.022-0.144-1.918v-0.226v-2.625H55.5c-0.465,0-0.795-0.089-0.99-0.267
		c-0.193-0.178-0.291-0.468-0.291-0.872s0.096-0.688,0.287-0.856c0.191-0.167,0.522-0.251,0.994-0.251h0.964v-2.399
		c0-0.472,0.097-0.803,0.292-0.995s0.518-0.287,0.969-0.287s0.775,0.096,0.969,0.287c0.195,0.191,0.293,0.523,0.293,0.995V25.84z"/>
</g>
</svg>
