<?xml version="1.0" encoding="utf-8"?>
<!-- Generator: Adobe Illustrator 16.0.0, SVG Export Plug-In . SVG Version: 6.00 Build 0)  -->
<!DOCTYPE svg PUBLIC "-//W3C//DTD SVG 1.1//EN" "http://www.w3.org/Graphics/SVG/1.1/DTD/svg11.dtd">
<svg version="1.1" id="Layer_1" xmlns="http://www.w3.org/2000/svg" xmlns:xlink="http://www.w3.org/1999/xlink" x="0px" y="0px"
	 width="48.703px" height="36.133px" viewBox="0 0 48.703 36.133" enable-background="new 0 0 48.703 36.133" xml:space="preserve">
<path fill="#F7C55A" d="M48.703,28.402c0,4.268-3.461,7.73-7.732,7.73H7.729C3.463,36.133,0,32.67,0,28.402V7.732
	C0,3.461,3.463,0,7.729,0h33.242c4.271,0,7.732,3.461,7.732,7.732V28.402z"/>
<g>
	<path fill="#754E1F" d="M21.883,22.41h0.174c0.369,0,0.646,0.095,0.831,0.282c0.185,0.188,0.277,0.464,0.277,0.825
		c0,0.404-0.097,0.694-0.292,0.872c-0.194,0.178-0.524,0.267-0.989,0.267h-1.569c-0.198,0-0.351-0.039-0.457-0.118
		c-0.106-0.078-0.159-0.187-0.159-0.323v-0.717c-0.335,0.457-0.766,0.809-1.292,1.051s-1.118,0.363-1.774,0.363
		c-1.34,0-2.461-0.456-3.363-1.368c-0.902-0.913-1.354-2.053-1.354-3.42c0-1.422,0.456-2.601,1.369-3.538
		c0.912-0.936,2.073-1.404,3.481-1.404c0.485,0,0.958,0.08,1.42,0.241c0.461,0.161,0.883,0.388,1.266,0.682V13.51h-1.364
		c-0.472,0-0.807-0.09-1.005-0.271c-0.198-0.181-0.297-0.47-0.297-0.866c0-0.403,0.099-0.694,0.297-0.872s0.533-0.266,1.005-0.266
		h3.189c0.232,0,0.391,0.047,0.477,0.143c0.085,0.096,0.128,0.273,0.128,0.533V22.41z M17.074,17.365
		c-0.67,0-1.225,0.252-1.667,0.754c-0.44,0.503-0.661,1.141-0.661,1.912c0,0.793,0.219,1.441,0.656,1.943
		c0.438,0.503,0.995,0.754,1.671,0.754s1.236-0.253,1.676-0.759c0.441-0.506,0.662-1.151,0.662-1.938c0-0.766-0.222-1.4-0.667-1.906
		S17.744,17.365,17.074,17.365z"/>
	<path fill="#754E1F" d="M30.117,14.956c1.661,0,3.008,0.465,4.04,1.395s1.548,2.122,1.548,3.579c0,1.463-0.516,2.658-1.548,3.588
		s-2.379,1.395-4.04,1.395c-1.654,0-2.998-0.465-4.029-1.395c-1.033-0.93-1.549-2.125-1.549-3.588c0-1.457,0.518-2.649,1.554-3.579
		C27.128,15.421,28.47,14.956,30.117,14.956z M30.117,17.119c-0.8,0-1.458,0.262-1.974,0.785c-0.517,0.522-0.774,1.191-0.774,2.004
		c0,0.82,0.258,1.5,0.774,2.036c0.516,0.536,1.174,0.805,1.974,0.805s1.459-0.269,1.979-0.805s0.779-1.216,0.779-2.036
		c0-0.812-0.258-1.481-0.773-2.004C31.585,17.381,30.924,17.119,30.117,17.119z"/>
</g>
</svg>
