<?xml version="1.0" encoding="utf-8"?>
<!-- Generator: Adobe Illustrator 16.0.0, SVG Export Plug-In . SVG Version: 6.00 Build 0)  -->
<!DOCTYPE svg PUBLIC "-//W3C//DTD SVG 1.1//EN" "http://www.w3.org/Graphics/SVG/1.1/DTD/svg11.dtd">
<svg version="1.1" id="Layer_1" xmlns="http://www.w3.org/2000/svg" xmlns:xlink="http://www.w3.org/1999/xlink" x="0px" y="0px"
	 width="144.002px" height="108.169px" viewBox="0 0 144.002 108.169" enable-background="new 0 0 144.002 108.169"
	 xml:space="preserve">
<g>
	<g>
		<path fill="#147496" d="M138.536,0c3.017,0,5.466,2.448,5.466,5.468v97.135c0,3.02-2.449,5.468-5.466,5.468H5.467
			c-3.02,0-5.467-2.448-5.467-5.468V5.467C0,2.448,2.447,0,5.467,0H138.536L138.536,0z"/>
		<rect x="6.644" fill="#314848" width="131.987" height="8.096"/>
		<g>
			<path fill="#FFFFFF" d="M10.132,16.903h4.227v-0.779c0-0.186,0.036-0.318,0.107-0.396c0.072-0.081,0.165-0.12,0.283-0.12
				c0.112,0,0.205,0.039,0.276,0.12c0.072,0.077,0.106,0.21,0.106,0.396v2.332c0,0.186-0.036,0.319-0.106,0.397
				c-0.071,0.08-0.165,0.118-0.28,0.118c-0.113,0-0.206-0.038-0.278-0.118c-0.071-0.078-0.107-0.212-0.107-0.397v-0.78h-3.221
				l0.181,0.689c0.03,0.111,0.045,0.193,0.045,0.25c0,0.098-0.039,0.184-0.118,0.254c-0.076,0.071-0.173,0.105-0.286,0.105
				c-0.102,0-0.183-0.024-0.242-0.078c-0.059-0.053-0.112-0.163-0.156-0.331L10.132,16.903z"/>
			<path fill="#FFFFFF" d="M12.551,11.566c0.156-0.229,0.336-0.399,0.541-0.512c0.202-0.113,0.433-0.17,0.687-0.17
				c0.274,0,0.526,0.074,0.759,0.225c0.232,0.15,0.408,0.365,0.528,0.65c0.119,0.283,0.178,0.655,0.178,1.115
				c0,0.598-0.093,1.047-0.279,1.349c-0.104,0.169-0.231,0.251-0.378,0.251c-0.11,0-0.202-0.036-0.281-0.11
				c-0.076-0.073-0.113-0.163-0.113-0.27c0-0.071,0.026-0.147,0.075-0.225c0.074-0.11,0.125-0.216,0.15-0.314
				c0.035-0.151,0.053-0.357,0.053-0.621c0-0.448-0.057-0.774-0.176-0.975c-0.117-0.2-0.279-0.301-0.493-0.301
				c-0.158,0-0.312,0.058-0.458,0.175c-0.147,0.117-0.261,0.272-0.342,0.469c-0.045,0.113-0.077,0.306-0.094,0.572
				c-0.009,0.127-0.047,0.228-0.121,0.297c-0.071,0.069-0.16,0.104-0.264,0.104c-0.11,0-0.202-0.037-0.279-0.112
				c-0.075-0.075-0.113-0.171-0.113-0.286c0-0.256,0-0.394-0.004-0.41c-0.01-0.102-0.042-0.201-0.098-0.301
				c-0.057-0.102-0.131-0.183-0.227-0.243c-0.098-0.062-0.198-0.092-0.301-0.092c-0.162,0-0.304,0.072-0.424,0.217
				c-0.118,0.145-0.179,0.361-0.179,0.65c0,0.372,0.108,0.655,0.324,0.852c0.063,0.057,0.104,0.104,0.121,0.14
				c0.029,0.053,0.04,0.11,0.04,0.176c0,0.105-0.037,0.196-0.112,0.271c-0.074,0.074-0.168,0.113-0.277,0.113
				c-0.175,0-0.343-0.116-0.505-0.347c-0.238-0.336-0.36-0.757-0.36-1.262c0-0.476,0.137-0.859,0.408-1.149
				c0.271-0.289,0.599-0.434,0.98-0.434c0.198,0,0.383,0.043,0.554,0.129C12.244,11.269,12.405,11.396,12.551,11.566z"/>
			<path fill="#FFFFFF" d="M19.391,16.903h4.227v-0.779c0-0.186,0.037-0.318,0.107-0.396c0.071-0.081,0.164-0.12,0.279-0.12
				c0.114,0,0.206,0.039,0.279,0.12c0.071,0.077,0.106,0.21,0.106,0.396v2.332c0,0.186-0.036,0.319-0.106,0.397
				c-0.073,0.08-0.167,0.118-0.281,0.118c-0.113,0-0.206-0.038-0.277-0.118c-0.072-0.078-0.107-0.212-0.107-0.397v-0.78h-3.222
				l0.182,0.689c0.03,0.111,0.044,0.193,0.044,0.25c0,0.098-0.038,0.184-0.116,0.254c-0.078,0.071-0.173,0.105-0.287,0.105
				c-0.102,0-0.183-0.024-0.242-0.078c-0.059-0.053-0.11-0.163-0.155-0.331L19.391,16.903z"/>
			<path fill="#FFFFFF" d="M23.617,13.39v-1.692c-0.074-0.092-0.112-0.181-0.112-0.264c0-0.119,0.039-0.212,0.117-0.281
				c0.076-0.069,0.209-0.104,0.397-0.104h0.37v3.52h-0.817c-1.148-1.391-1.888-2.231-2.215-2.52
				c-0.169-0.146-0.329-0.218-0.478-0.218c-0.188,0-0.354,0.082-0.498,0.246c-0.146,0.165-0.218,0.384-0.218,0.658
				c0,0.276,0.082,0.505,0.242,0.688c0.085,0.096,0.213,0.172,0.38,0.229c0.106,0.037,0.181,0.084,0.226,0.146
				c0.044,0.061,0.069,0.137,0.069,0.227c0,0.105-0.04,0.198-0.114,0.273c-0.075,0.077-0.163,0.116-0.265,0.116
				c-0.15,0-0.338-0.071-0.564-0.209c-0.228-0.14-0.408-0.343-0.541-0.61c-0.137-0.268-0.205-0.558-0.205-0.874
				c0-0.486,0.148-0.885,0.443-1.196c0.295-0.311,0.651-0.467,1.071-0.467c0.214,0,0.41,0.043,0.593,0.134
				c0.183,0.089,0.434,0.303,0.755,0.642C22.508,12.1,22.961,12.618,23.617,13.39z"/>
			<path fill="#FFFFFF" d="M30.901,20.472c0-0.111,0.037-0.204,0.113-0.28c0.075-0.075,0.165-0.113,0.27-0.113
				c0.108,0,0.23,0.058,0.363,0.169c0.198,0.171,0.339,0.313,0.421,0.431c0.126,0.17,0.188,0.353,0.188,0.545
				c0,0.146-0.036,0.291-0.108,0.434c-0.072,0.144-0.211,0.322-0.417,0.537c-0.203,0.216-0.306,0.353-0.306,0.412
				c0,0.03,0.01,0.059,0.029,0.087c0.036,0.058,0.122,0.146,0.26,0.27c0.139,0.124,0.223,0.212,0.252,0.262
				c0.027,0.051,0.042,0.102,0.042,0.151c0,0.104-0.041,0.198-0.119,0.277c-0.078,0.079-0.167,0.119-0.271,0.119
				c-0.151,0-0.352-0.131-0.598-0.392c-0.247-0.262-0.369-0.518-0.369-0.769c0-0.138,0.036-0.28,0.108-0.427
				c0.07-0.146,0.224-0.337,0.46-0.575c0.123-0.123,0.201-0.215,0.234-0.271c0.02-0.038,0.03-0.071,0.03-0.103
				c0-0.035-0.01-0.066-0.03-0.093c-0.045-0.064-0.146-0.164-0.31-0.303c-0.105-0.087-0.173-0.154-0.201-0.204
				C30.913,20.587,30.901,20.532,30.901,20.472z"/>
			<path fill="#FFFFFF" d="M28.648,16.903h4.227v-0.779c0-0.186,0.035-0.318,0.105-0.396c0.073-0.081,0.167-0.12,0.283-0.12
				c0.113,0,0.204,0.039,0.276,0.12c0.072,0.077,0.107,0.21,0.107,0.396v2.332c0,0.186-0.036,0.319-0.107,0.397
				c-0.072,0.08-0.164,0.118-0.279,0.118c-0.113,0-0.206-0.038-0.279-0.118c-0.071-0.078-0.105-0.212-0.105-0.397v-0.78h-3.222
				l0.182,0.689c0.03,0.111,0.045,0.193,0.045,0.25c0,0.098-0.039,0.184-0.116,0.254c-0.079,0.071-0.175,0.105-0.289,0.105
				c-0.102,0-0.182-0.024-0.242-0.078c-0.059-0.053-0.112-0.163-0.157-0.331L28.648,16.903z"/>
			<path fill="#FFFFFF" d="M28.648,12.275h4.227v-0.78c0-0.186,0.035-0.318,0.105-0.397c0.073-0.079,0.167-0.12,0.283-0.12
				c0.113,0,0.204,0.041,0.276,0.12s0.107,0.212,0.107,0.397v2.331c0,0.186-0.036,0.318-0.107,0.398
				c-0.072,0.078-0.164,0.118-0.279,0.118c-0.113,0-0.206-0.04-0.279-0.118c-0.071-0.08-0.105-0.213-0.105-0.398v-0.779h-3.222
				l0.182,0.689c0.03,0.109,0.045,0.193,0.045,0.249c0,0.098-0.039,0.183-0.116,0.254c-0.079,0.071-0.175,0.106-0.289,0.106
				c-0.102,0-0.182-0.025-0.242-0.079c-0.059-0.053-0.112-0.163-0.157-0.331L28.648,12.275z"/>
			<path fill="#FFFFFF" d="M40.159,20.472c0-0.111,0.038-0.204,0.113-0.28c0.075-0.075,0.165-0.113,0.27-0.113
				c0.108,0,0.23,0.058,0.362,0.169c0.2,0.171,0.34,0.313,0.422,0.431c0.126,0.17,0.189,0.353,0.189,0.545
				c0,0.146-0.037,0.291-0.109,0.434c-0.074,0.144-0.213,0.322-0.417,0.537c-0.205,0.216-0.308,0.353-0.308,0.412
				c0,0.03,0.01,0.059,0.03,0.087c0.036,0.058,0.123,0.146,0.26,0.27c0.139,0.124,0.221,0.212,0.249,0.262
				c0.03,0.051,0.044,0.102,0.044,0.151c0,0.104-0.04,0.198-0.118,0.277s-0.168,0.119-0.271,0.119c-0.153,0-0.354-0.131-0.601-0.392
				c-0.245-0.262-0.369-0.518-0.369-0.769c0-0.138,0.036-0.28,0.107-0.427c0.072-0.146,0.227-0.337,0.462-0.575
				c0.121-0.123,0.2-0.215,0.232-0.271c0.021-0.038,0.031-0.071,0.031-0.103c0-0.035-0.01-0.066-0.031-0.093
				c-0.042-0.064-0.146-0.164-0.309-0.303c-0.106-0.087-0.173-0.154-0.201-0.204C40.173,20.586,40.159,20.532,40.159,20.472z"/>
			<path fill="#FFFFFF" d="M37.906,16.903h4.228v-0.779c0-0.186,0.037-0.318,0.105-0.396c0.073-0.081,0.167-0.12,0.282-0.12
				c0.113,0,0.204,0.039,0.277,0.12c0.071,0.077,0.108,0.21,0.108,0.396v2.332c0,0.186-0.039,0.319-0.108,0.397
				c-0.072,0.08-0.164,0.118-0.282,0.118c-0.114,0-0.205-0.038-0.278-0.118c-0.071-0.078-0.106-0.212-0.106-0.397v-0.78H38.91
				l0.181,0.689c0.031,0.111,0.047,0.193,0.047,0.25c0,0.098-0.04,0.184-0.118,0.254c-0.077,0.071-0.172,0.105-0.286,0.105
				c-0.104,0-0.182-0.024-0.243-0.078c-0.06-0.053-0.111-0.163-0.155-0.331L37.906,16.903z"/>
			<path fill="#FFFFFF" d="M40.038,10.983h0.847c0.503,0,0.984,0.144,1.444,0.434c0.458,0.29,0.689,0.705,0.689,1.246
				c0,0.312-0.07,0.575-0.206,0.789c-0.136,0.216-0.391,0.418-0.758,0.61c-0.367,0.191-0.758,0.288-1.169,0.288h-0.847
				c-0.5,0-0.979-0.144-1.44-0.434c-0.459-0.289-0.691-0.702-0.691-1.243c0-0.309,0.068-0.57,0.204-0.785
				c0.137-0.216,0.386-0.42,0.756-0.614C39.231,11.08,39.624,10.983,40.038,10.983z M40.038,11.759
				c-0.418,0-0.786,0.116-1.099,0.349c-0.174,0.134-0.262,0.32-0.262,0.562c0,0.233,0.095,0.425,0.286,0.572
				c0.289,0.223,0.647,0.334,1.075,0.334h0.847c0.422,0,0.789-0.118,1.1-0.354c0.174-0.131,0.26-0.317,0.26-0.562
				c0-0.23-0.094-0.421-0.285-0.569c-0.289-0.224-0.647-0.335-1.075-0.335L40.038,11.759L40.038,11.759z"/>
			<path fill="#FFFFFF" d="M49.417,15.842c0-0.111,0.037-0.203,0.113-0.279c0.073-0.075,0.165-0.113,0.271-0.113
				c0.107,0,0.228,0.056,0.362,0.169c0.198,0.17,0.338,0.312,0.422,0.429c0.124,0.17,0.188,0.354,0.188,0.547
				c0,0.146-0.036,0.29-0.108,0.433c-0.073,0.144-0.213,0.323-0.417,0.537c-0.205,0.215-0.308,0.353-0.308,0.413
				c0,0.029,0.01,0.058,0.03,0.087c0.035,0.056,0.122,0.145,0.261,0.269c0.138,0.124,0.221,0.212,0.25,0.262
				c0.029,0.051,0.043,0.102,0.043,0.151c0,0.104-0.041,0.198-0.117,0.277c-0.077,0.079-0.169,0.12-0.271,0.12
				c-0.154,0-0.352-0.132-0.6-0.393c-0.246-0.262-0.37-0.518-0.37-0.77c0-0.137,0.036-0.278,0.108-0.425
				c0.071-0.146,0.224-0.337,0.459-0.575c0.123-0.123,0.201-0.215,0.234-0.271c0.02-0.038,0.03-0.073,0.03-0.103
				c0-0.036-0.011-0.067-0.03-0.093c-0.042-0.063-0.146-0.164-0.31-0.303c-0.105-0.088-0.172-0.155-0.201-0.203
				C49.43,15.957,49.417,15.902,49.417,15.842z"/>
			<path fill="#FFFFFF" d="M50.136,11.58c0.167,0.195,0.282,0.371,0.352,0.532c0.071,0.161,0.105,0.329,0.105,0.508
				c0,0.414-0.167,0.777-0.498,1.087s-0.742,0.464-1.234,0.464c-0.385,0-0.734-0.105-1.047-0.319
				c-0.434-0.291-0.647-0.701-0.647-1.231c0-0.379,0.113-0.711,0.34-0.994S48.06,11.134,48.489,11
				c0.427-0.133,0.874-0.199,1.338-0.199c0.787,0,1.422,0.305,1.9,0.915c0.365,0.473,0.547,0.989,0.547,1.552
				c0,0.312-0.061,0.553-0.187,0.723c-0.083,0.116-0.192,0.173-0.329,0.173c-0.108,0-0.202-0.036-0.276-0.11
				c-0.075-0.074-0.112-0.166-0.112-0.272c0-0.061,0.019-0.129,0.056-0.204c0.051-0.098,0.074-0.201,0.074-0.309
				c0-0.39-0.132-0.748-0.396-1.078C50.842,11.861,50.516,11.659,50.136,11.58z M48.919,11.69c-0.357,0.083-0.61,0.204-0.759,0.366
				c-0.15,0.162-0.225,0.348-0.225,0.556c0,0.218,0.083,0.404,0.249,0.557c0.167,0.153,0.391,0.231,0.666,0.231
				c0.289,0,0.522-0.078,0.7-0.233c0.178-0.153,0.268-0.329,0.268-0.528C49.819,12.29,49.52,11.975,48.919,11.69z"/>
			<path fill="#FFFFFF" d="M58.953,11.574c0.153-0.199,0.327-0.348,0.522-0.446c0.195-0.101,0.409-0.15,0.644-0.15
				c0.258,0,0.494,0.064,0.713,0.19c0.217,0.127,0.389,0.327,0.514,0.598c0.125,0.271,0.189,0.572,0.189,0.905
				c0,0.331-0.064,0.63-0.189,0.896c-0.125,0.267-0.297,0.462-0.516,0.589s-0.457,0.19-0.712,0.19c-0.235,0-0.449-0.049-0.644-0.149
				c-0.195-0.1-0.368-0.249-0.522-0.446c-0.161,0.174-0.332,0.305-0.512,0.392c-0.181,0.089-0.374,0.133-0.573,0.133
				c-0.393,0-0.731-0.151-1.019-0.452c-0.285-0.301-0.427-0.688-0.427-1.16s0.142-0.859,0.427-1.16
				c0.286-0.301,0.625-0.453,1.019-0.453c0.204,0,0.395,0.044,0.577,0.131C58.625,11.267,58.794,11.397,58.953,11.574z
				 M60.155,11.751c-0.205,0-0.388,0.088-0.554,0.262c-0.164,0.174-0.247,0.392-0.247,0.65s0.083,0.476,0.247,0.651
				c0.166,0.174,0.351,0.262,0.559,0.262c0.161,0,0.301-0.074,0.42-0.227c0.122-0.15,0.181-0.378,0.181-0.686
				c0-0.309-0.059-0.537-0.181-0.687C60.462,11.826,60.32,11.751,60.155,11.751z M57.883,11.841c-0.191,0-0.354,0.074-0.487,0.224
				c-0.134,0.15-0.203,0.352-0.203,0.604c0,0.257,0.069,0.458,0.203,0.608c0.134,0.149,0.296,0.225,0.487,0.225
				c0.193,0,0.359-0.075,0.491-0.225c0.135-0.15,0.202-0.352,0.202-0.608c0-0.253-0.066-0.456-0.202-0.604
				C58.242,11.916,58.076,11.841,57.883,11.841z"/>
		</g>
		<g>
			<path fill="#FFFFFF" d="M67.889,11.871v1.767c0.152,0.009,0.26,0.049,0.327,0.116c0.067,0.069,0.1,0.158,0.1,0.268
				c0,0.116-0.041,0.209-0.119,0.281c-0.076,0.072-0.209,0.106-0.393,0.106h-0.685v-3.353h0.771l3.723,1.251
				c0.155,0.053,0.26,0.11,0.311,0.175C71.975,12.547,72,12.623,72,12.716c0,0.106-0.037,0.201-0.113,0.276
				c-0.072,0.076-0.161,0.115-0.259,0.115c-0.057,0-0.145-0.02-0.266-0.061L67.889,11.871z"/>
			<path fill="#FFFFFF" d="M78.505,15.842c0-0.111,0.038-0.203,0.112-0.279c0.074-0.075,0.167-0.113,0.271-0.113
				c0.106,0,0.229,0.056,0.362,0.169c0.198,0.17,0.338,0.312,0.423,0.429c0.124,0.17,0.187,0.354,0.187,0.547
				c0,0.146-0.037,0.29-0.109,0.433c-0.073,0.144-0.212,0.323-0.416,0.537c-0.203,0.215-0.308,0.353-0.308,0.413
				c0,0.029,0.012,0.058,0.031,0.087c0.035,0.056,0.122,0.145,0.26,0.269s0.221,0.212,0.251,0.262
				c0.029,0.051,0.042,0.102,0.042,0.151c0,0.104-0.039,0.198-0.118,0.277c-0.077,0.079-0.167,0.12-0.27,0.12
				c-0.152,0-0.353-0.132-0.6-0.393c-0.247-0.262-0.369-0.518-0.369-0.77c0-0.137,0.035-0.278,0.108-0.425
				c0.07-0.146,0.225-0.337,0.459-0.575c0.125-0.123,0.201-0.215,0.234-0.271c0.02-0.038,0.031-0.073,0.031-0.103
				c0-0.036-0.011-0.067-0.031-0.093c-0.042-0.063-0.145-0.164-0.308-0.303c-0.106-0.088-0.173-0.155-0.202-0.203
				C78.516,15.957,78.505,15.902,78.505,15.842z"/>
			<path fill="#FFFFFF" d="M78.611,13.394c-0.154-0.185-0.268-0.362-0.341-0.531c-0.07-0.17-0.105-0.348-0.105-0.539
				c0-0.404,0.16-0.759,0.483-1.062c0.321-0.305,0.725-0.457,1.208-0.457c0.45,0,0.813,0.141,1.091,0.424
				c0.279,0.282,0.416,0.666,0.416,1.15c0,0.405-0.095,0.737-0.283,0.998c-0.188,0.262-0.477,0.459-0.869,0.592
				c-0.393,0.134-0.829,0.2-1.311,0.2c-0.578,0-1.059-0.133-1.44-0.395c-0.383-0.265-0.681-0.573-0.892-0.931
				c-0.211-0.356-0.316-0.733-0.316-1.131c0-0.312,0.061-0.558,0.185-0.731c0.083-0.113,0.187-0.169,0.315-0.169
				c0.112,0,0.208,0.038,0.284,0.113c0.077,0.076,0.115,0.167,0.115,0.271c0,0.06-0.03,0.146-0.089,0.259
				c-0.037,0.069-0.053,0.134-0.053,0.197c0,0.246,0.071,0.501,0.21,0.765c0.138,0.263,0.352,0.491,0.64,0.685
				C78.061,13.235,78.311,13.332,78.611,13.394z M79.807,13.28c0.301-0.08,0.507-0.189,0.618-0.326
				c0.112-0.138,0.167-0.332,0.167-0.587s-0.066-0.448-0.198-0.586c-0.136-0.137-0.315-0.205-0.543-0.205
				c-0.263,0-0.479,0.078-0.651,0.235c-0.174,0.156-0.262,0.332-0.262,0.528c0,0.155,0.077,0.322,0.231,0.5
				C79.321,13.019,79.533,13.164,79.807,13.28z"/>
			<path fill="#FFFFFF" d="M87.763,15.842c0-0.111,0.038-0.203,0.112-0.279c0.076-0.075,0.167-0.113,0.271-0.113
				c0.107,0,0.23,0.056,0.362,0.169c0.199,0.17,0.339,0.312,0.423,0.429c0.125,0.17,0.187,0.354,0.187,0.547
				c0,0.146-0.035,0.29-0.108,0.433c-0.072,0.144-0.213,0.323-0.416,0.537c-0.204,0.215-0.308,0.353-0.308,0.413
				c0,0.029,0.009,0.058,0.031,0.087c0.034,0.056,0.121,0.145,0.259,0.269c0.14,0.124,0.221,0.212,0.252,0.262
				c0.027,0.051,0.04,0.102,0.04,0.151c0,0.104-0.038,0.198-0.116,0.277c-0.077,0.079-0.17,0.12-0.272,0.12
				c-0.153,0-0.351-0.132-0.598-0.393c-0.249-0.262-0.371-0.518-0.371-0.77c0-0.137,0.037-0.278,0.107-0.425
				c0.072-0.146,0.225-0.337,0.46-0.575c0.124-0.123,0.202-0.215,0.232-0.271c0.022-0.038,0.031-0.073,0.031-0.103
				c0-0.036-0.009-0.067-0.031-0.093c-0.042-0.063-0.145-0.164-0.309-0.303c-0.105-0.088-0.171-0.155-0.201-0.203
				C87.773,15.957,87.763,15.902,87.763,15.842z"/>
			<path fill="#FFFFFF" d="M86.406,13.318h0.918c-0.09-0.287-0.136-0.547-0.136-0.78c0-0.474,0.163-0.869,0.487-1.183
				c0.323-0.312,0.742-0.471,1.255-0.471c0.525,0,0.94,0.158,1.241,0.476c0.299,0.318,0.451,0.806,0.451,1.459
				c0,0.578-0.107,1.036-0.329,1.372c-0.126,0.196-0.27,0.295-0.433,0.295c-0.104,0-0.192-0.04-0.271-0.116
				c-0.074-0.075-0.115-0.168-0.115-0.273c0-0.087,0.042-0.184,0.126-0.285c0.084-0.104,0.144-0.211,0.177-0.324
				c0.045-0.16,0.069-0.366,0.069-0.618c0-0.468-0.071-0.786-0.225-0.957c-0.149-0.169-0.375-0.256-0.685-0.256
				c-0.304,0-0.542,0.083-0.715,0.247c-0.173,0.165-0.26,0.376-0.26,0.635c0,0.279,0.091,0.597,0.272,0.953
				c0.041,0.082,0.064,0.152,0.064,0.211c0,0.112-0.041,0.203-0.122,0.278c-0.079,0.074-0.185,0.111-0.312,0.111h-2.231V11.73
				c0-0.187,0.036-0.319,0.107-0.398c0.072-0.078,0.166-0.117,0.284-0.117c0.11,0,0.203,0.039,0.275,0.117
				c0.071,0.079,0.107,0.212,0.107,0.398L86.406,13.318L86.406,13.318z"/>
			<path fill="#FFFFFF" d="M94.891,11.536h3.021c0-0.164,0.035-0.284,0.107-0.361c0.072-0.078,0.164-0.118,0.277-0.118
				c0.113,0,0.204,0.04,0.278,0.119c0.075,0.079,0.111,0.2,0.111,0.36h0.307c0-0.163,0.039-0.282,0.109-0.361
				c0.075-0.078,0.167-0.116,0.279-0.116c0.114,0,0.206,0.039,0.279,0.118c0.071,0.079,0.106,0.212,0.106,0.397v1.036
				c0,0.185-0.035,0.318-0.106,0.397c-0.073,0.079-0.166,0.119-0.282,0.119c-0.113,0-0.206-0.04-0.275-0.119
				c-0.073-0.079-0.109-0.213-0.109-0.397v-0.3h-0.307v2.097h-0.645l-3.149-1.849L94.891,11.536L94.891,11.536z M97.912,12.309
				h-1.898l1.898,1.118V12.309z"/>
			<path fill="#FFFFFF" d="M106.277,15.842c0-0.111,0.038-0.203,0.114-0.279c0.074-0.075,0.167-0.113,0.27-0.113
				c0.106,0,0.229,0.056,0.362,0.169c0.198,0.17,0.34,0.312,0.422,0.429c0.125,0.17,0.188,0.354,0.188,0.547
				c0,0.146-0.036,0.29-0.108,0.433c-0.073,0.144-0.211,0.323-0.417,0.537c-0.204,0.215-0.308,0.353-0.308,0.413
				c0,0.029,0.009,0.058,0.03,0.087c0.035,0.056,0.122,0.145,0.26,0.269c0.139,0.124,0.222,0.212,0.251,0.262
				c0.028,0.051,0.041,0.102,0.041,0.151c0,0.104-0.039,0.198-0.117,0.277c-0.077,0.079-0.168,0.12-0.273,0.12
				c-0.151,0-0.352-0.132-0.597-0.393c-0.248-0.262-0.369-0.518-0.369-0.77c0-0.137,0.036-0.278,0.108-0.425
				c0.07-0.146,0.225-0.337,0.459-0.575c0.124-0.123,0.201-0.215,0.233-0.271c0.021-0.038,0.031-0.073,0.031-0.103
				c0-0.036-0.01-0.067-0.031-0.093c-0.043-0.063-0.145-0.164-0.307-0.303c-0.108-0.088-0.175-0.155-0.205-0.203
				C106.288,15.957,106.277,15.902,106.277,15.842z"/>
			<path fill="#FFFFFF" d="M106.444,11.566c0.154-0.229,0.335-0.399,0.537-0.512c0.206-0.113,0.434-0.17,0.689-0.17
				c0.271,0,0.525,0.074,0.758,0.225c0.233,0.15,0.41,0.365,0.528,0.65c0.12,0.283,0.179,0.655,0.179,1.115
				c0,0.598-0.093,1.047-0.28,1.349c-0.104,0.169-0.231,0.251-0.376,0.251c-0.11,0-0.206-0.036-0.282-0.11
				c-0.077-0.073-0.115-0.163-0.115-0.27c0-0.071,0.025-0.147,0.075-0.225c0.075-0.11,0.124-0.216,0.151-0.314
				c0.036-0.151,0.053-0.357,0.053-0.621c0-0.448-0.058-0.774-0.174-0.975c-0.117-0.2-0.282-0.301-0.495-0.301
				c-0.158,0-0.312,0.058-0.459,0.175c-0.146,0.117-0.26,0.272-0.34,0.469c-0.045,0.113-0.077,0.306-0.095,0.572
				c-0.008,0.127-0.046,0.228-0.119,0.297s-0.158,0.104-0.266,0.104c-0.11,0-0.203-0.037-0.278-0.112
				c-0.077-0.075-0.114-0.171-0.114-0.286c0-0.256-0.002-0.394-0.005-0.41c-0.008-0.102-0.041-0.201-0.098-0.301
				c-0.056-0.102-0.13-0.183-0.229-0.243c-0.097-0.062-0.194-0.092-0.298-0.092c-0.165,0-0.303,0.072-0.424,0.217
				s-0.18,0.361-0.18,0.65c0,0.372,0.107,0.655,0.324,0.852c0.062,0.057,0.104,0.104,0.121,0.14c0.027,0.053,0.042,0.11,0.042,0.176
				c0,0.105-0.038,0.196-0.114,0.271c-0.075,0.074-0.168,0.113-0.28,0.113c-0.172,0-0.34-0.116-0.505-0.347
				c-0.239-0.336-0.358-0.757-0.358-1.262c0-0.476,0.136-0.859,0.409-1.149c0.269-0.289,0.597-0.434,0.978-0.434
				c0.199,0,0.385,0.043,0.556,0.129C106.136,11.269,106.297,11.396,106.444,11.566z"/>
			<path fill="#FFFFFF" d="M117.509,13.39v-1.692c-0.074-0.092-0.113-0.181-0.113-0.264c0-0.119,0.04-0.212,0.117-0.281
				c0.077-0.069,0.211-0.104,0.399-0.104h0.369v3.52h-0.817c-1.148-1.391-1.886-2.231-2.215-2.52
				c-0.169-0.146-0.329-0.218-0.479-0.218c-0.187,0-0.354,0.082-0.498,0.246c-0.145,0.165-0.218,0.384-0.218,0.658
				c0,0.276,0.081,0.505,0.242,0.688c0.085,0.096,0.213,0.172,0.378,0.229c0.106,0.037,0.182,0.084,0.226,0.146
				c0.047,0.061,0.069,0.137,0.069,0.227c0,0.105-0.038,0.198-0.114,0.273c-0.074,0.077-0.164,0.116-0.264,0.116
				c-0.151,0-0.339-0.071-0.566-0.209c-0.227-0.14-0.407-0.343-0.542-0.61c-0.136-0.268-0.203-0.558-0.203-0.874
				c0-0.486,0.15-0.885,0.442-1.196c0.294-0.311,0.651-0.467,1.07-0.467c0.213,0,0.411,0.043,0.593,0.134
				c0.182,0.089,0.434,0.303,0.754,0.642C116.398,12.1,116.853,12.618,117.509,13.39z"/>
			<path fill="#FFFFFF" d="M122.539,12.275h4.228v-0.78c0-0.186,0.036-0.318,0.106-0.397s0.165-0.12,0.281-0.12
				c0.113,0,0.204,0.041,0.276,0.12s0.106,0.212,0.106,0.397v2.331c0,0.186-0.035,0.318-0.106,0.398
				c-0.071,0.078-0.165,0.118-0.28,0.118c-0.113,0-0.206-0.04-0.278-0.118c-0.073-0.08-0.106-0.213-0.106-0.398v-0.779h-3.222
				l0.182,0.689c0.029,0.109,0.044,0.193,0.044,0.249c0,0.098-0.04,0.183-0.116,0.254c-0.077,0.072-0.173,0.106-0.287,0.106
				c-0.104,0-0.184-0.025-0.243-0.079c-0.059-0.053-0.11-0.163-0.156-0.331L122.539,12.275z"/>
			<path fill="#FFFFFF" d="M133.931,10.983h0.847c0.501,0,0.983,0.144,1.441,0.434c0.458,0.29,0.689,0.705,0.689,1.246
				c0,0.312-0.069,0.575-0.205,0.789c-0.136,0.216-0.389,0.418-0.759,0.61c-0.367,0.191-0.758,0.288-1.167,0.288h-0.847
				c-0.502,0-0.98-0.144-1.442-0.434c-0.459-0.289-0.69-0.702-0.69-1.243c0-0.309,0.068-0.57,0.202-0.785
				c0.137-0.216,0.388-0.42,0.756-0.614C133.125,11.08,133.516,10.983,133.931,10.983z M133.931,11.759
				c-0.422,0-0.788,0.116-1.102,0.349c-0.171,0.134-0.26,0.32-0.26,0.562c0,0.233,0.095,0.425,0.286,0.572
				c0.289,0.223,0.646,0.334,1.074,0.334h0.848c0.421,0,0.788-0.118,1.099-0.354c0.172-0.131,0.258-0.317,0.258-0.562
				c0-0.23-0.093-0.421-0.285-0.569c-0.289-0.224-0.647-0.335-1.071-0.335L133.931,11.759L133.931,11.759z"/>
		</g>
		<g>
			<path fill="#FFFFFF" d="M28.7,51.693c0,8.759,12.042,12.02,17.991,3.102c6.166,9.246,17.726,5.37,17.726-3.114
				c0-8.487-11.505-12.567-17.726-3.093C40.797,39.224,28.7,42.934,28.7,51.693L28.7,51.693z M31.863,51.693
				c0-6.32,8.931-8.316,13.086,0C40.712,59.699,31.863,58.015,31.863,51.693L31.863,51.693z M48.433,51.693
				c3.744-8.48,12.919-6.144,12.89,0.012C61.297,57.864,52.068,59.783,48.433,51.693z"/>
			<rect x="35.219" y="50.806" fill="#FFFFFF" width="5.302" height="1.749"/>
			<polygon fill="#FFFFFF" points="54.454,52.526 52.706,52.526 52.706,50.67 54.454,50.67 54.454,48.92 56.312,48.92 56.312,50.67 
				58.062,50.67 58.062,52.526 56.312,52.526 56.312,54.275 54.454,54.275 			"/>
			<path fill="#FFFFFF" d="M62.706,44.76v-0.784h-0.218v-0.161h0.583v0.161h-0.218v0.784H62.706L62.706,44.76z M63.163,44.76v-0.945
				h0.223l0.131,0.645l0.132-0.645h0.221v0.945h-0.138v-0.744l-0.145,0.744h-0.142l-0.146-0.744v0.744H63.163z"/>
			<path fill="#FFFFFF" d="M43.835,64.885c0.007,1.72-0.876,2.553-2.583,2.497H39.79v-2.497v-2.494h1.462
				C42.959,62.337,43.842,63.168,43.835,64.885L43.835,64.885z M42.611,64.885c0.005-0.982-0.509-1.45-1.543-1.402v1.402v1.404
				C42.103,66.336,42.616,65.868,42.611,64.885z"/>
			<path fill="#FFFFFF" d="M46.698,67.382c-1.407,0-1.956-0.468-2.011-1.652v-3.343h1.284v3.287
				c-0.027,0.527,0.214,0.752,0.727,0.752c0.508,0,0.746-0.225,0.719-0.752v-3.287h1.279v3.343
				C48.642,66.914,48.101,67.382,46.698,67.382z"/>
			<polygon fill="#FFFFFF" points="51.559,62.387 49.688,62.387 49.688,63.457 50.931,63.457 50.931,64.885 50.931,66.313 
				49.688,66.313 49.688,67.382 51.559,67.382 53.43,67.382 53.43,66.313 52.188,66.313 52.188,64.885 52.188,63.457 53.43,63.457 
				53.43,62.387 			"/>
			<polygon fill="#FFFFFF" points="57.091,64.885 55.725,62.387 54.361,62.387 54.361,67.382 55.562,67.382 55.562,64.38 
				55.85,64.898 57.215,67.395 58.583,67.395 58.583,62.401 57.378,62.401 57.378,65.402 			"/>
			<path fill="#FFFFFF" d="M61.299,63.427c-0.717,0-0.777,0.64-0.777,1.458c0,0.82,0.059,1.459,0.777,1.459
				c0.718,0,0.771-0.64,0.771-1.459C62.071,64.066,62.017,63.427,61.299,63.427L61.299,63.427z M61.299,67.382
				c-1.436,0-2.112-0.795-2.112-2.497s0.677-2.494,2.112-2.494c1.438,0,2.087,0.791,2.087,2.494
				C63.387,66.588,62.737,67.382,61.299,67.382z"/>
			<path fill="#FFFFFF" d="M34.308,67.382l-1.679-4.995H31.29l-1.689,4.995h1.444l0.267-1.046h1.346l0.313,1.046H34.308
				L34.308,67.382z M32.396,65.353h-0.847l0.417-1.563L32.396,65.353z"/>
			<path fill="#FFFFFF" d="M34.999,62.387v4.995h1.243v-1.571h0.521l0.9,1.571h1.462l-1.14-1.845c1.316-0.559,1.353-3.15-1.032-3.15
				H34.999L34.999,62.387z M36.256,64.848v-1.353h0.595c1.128,0.012,0.765,1.372,0.015,1.353H36.256z"/>
			<g>
				<path fill="#FFFFFF" d="M82.033,56.816c-0.576,0-1.102-0.09-1.582-0.268c-0.479-0.178-0.896-0.443-1.248-0.795
					c-0.351-0.352-0.624-0.783-0.816-1.295c-0.19-0.512-0.287-1.105-0.287-1.782V47.07h0.715v5.538c0,1.142,0.283,2.022,0.856,2.638
					c0.57,0.617,1.368,0.926,2.39,0.926c0.485,0,0.923-0.072,1.316-0.22c0.393-0.146,0.729-0.364,1.007-0.657
					c0.279-0.292,0.493-0.658,0.646-1.097c0.15-0.438,0.226-0.946,0.226-1.521V47.07h0.712v5.524c0,0.685-0.097,1.292-0.288,1.815
					c-0.191,0.527-0.461,0.967-0.81,1.324c-0.347,0.355-0.761,0.625-1.238,0.809C83.15,56.726,82.618,56.816,82.033,56.816z"/>
				<path fill="#FFFFFF" d="M88.667,47.07h0.673l6.621,8.349V47.07h0.684v9.596H96.11l-6.757-8.527v8.527h-0.686V47.07L88.667,47.07
					z"/>
				<path fill="#FFFFFF" d="M103.884,56.831c-0.733,0-1.392-0.136-1.98-0.405c-0.59-0.269-1.095-0.631-1.517-1.082
					c-0.419-0.453-0.744-0.976-0.971-1.57c-0.232-0.594-0.345-1.221-0.345-1.878v-0.027c0-0.658,0.118-1.286,0.351-1.885
					c0.232-0.599,0.559-1.126,0.98-1.583c0.421-0.456,0.926-0.819,1.521-1.09c0.594-0.269,1.257-0.403,1.987-0.403
					c0.721,0,1.38,0.136,1.974,0.403c0.594,0.271,1.103,0.632,1.521,1.084c0.421,0.453,0.747,0.975,0.974,1.568
					c0.228,0.594,0.341,1.22,0.341,1.878c0.01,0.01,0.01,0.019,0,0.027c0,0.658-0.115,1.286-0.351,1.885
					c-0.231,0.6-0.559,1.127-0.978,1.584c-0.42,0.457-0.93,0.82-1.528,1.089C105.266,56.695,104.605,56.831,103.884,56.831z
					 M103.91,56.186c0.595,0,1.141-0.111,1.638-0.335c0.499-0.224,0.929-0.53,1.289-0.919c0.362-0.389,0.641-0.843,0.844-1.364
					c0.202-0.521,0.301-1.079,0.301-1.673v-0.027c0-0.594-0.102-1.153-0.306-1.678c-0.207-0.525-0.491-0.982-0.853-1.371
					c-0.361-0.389-0.792-0.697-1.294-0.926c-0.503-0.229-1.052-0.343-1.646-0.343c-0.592,0-1.139,0.112-1.638,0.336
					c-0.498,0.225-0.926,0.53-1.289,0.919c-0.363,0.388-0.642,0.842-0.843,1.364c-0.2,0.521-0.302,1.079-0.302,1.672v0.027
					c0,0.595,0.104,1.153,0.311,1.68c0.203,0.526,0.488,0.981,0.849,1.371c0.361,0.388,0.792,0.696,1.295,0.925
					S103.316,56.186,103.91,56.186z"/>
			</g>
			<path fill="#FFFFFF" d="M115.3,51.312c0,0.569-0.051,1.14-0.151,1.694l-1.251-0.229c0.087-0.481,0.133-0.974,0.133-1.465H115.3z
				 M115.175,49.781l-1.253,0.206c-0.081-0.483-0.205-0.962-0.372-1.422l1.196-0.434C114.939,48.666,115.083,49.221,115.175,49.781z
				 M114.687,54.646c-0.201,0.529-0.456,1.043-0.752,1.528l-1.084-0.664c0.257-0.418,0.475-0.861,0.65-1.317L114.687,54.646z
				 M114.02,46.592l-1.094,0.643c-0.25-0.421-0.538-0.823-0.86-1.194l0.962-0.833C113.401,45.639,113.736,46.104,114.02,46.592z
				 M112.917,57.539c-0.377,0.422-0.798,0.812-1.248,1.158l-0.775-1.006c0.387-0.299,0.75-0.637,1.078-1.001L112.917,57.539z
				 M111.802,44.027l-0.795,0.992c-0.383-0.307-0.796-0.58-1.228-0.812l0.603-1.119C110.881,43.356,111.358,43.672,111.802,44.027z
				 M110.235,59.611c-0.506,0.26-1.037,0.475-1.581,0.637l-0.365-1.217c0.468-0.142,0.928-0.325,1.364-0.551L110.235,59.611z
				 M108.814,42.424l-0.387,1.211c-0.466-0.149-0.95-0.256-1.436-0.317l0.161-1.262C107.714,42.127,108.273,42.251,108.814,42.424z
				 M106.987,60.586c-0.335,0.037-0.677,0.055-1.015,0.055h-0.642v-1.271h0.642c0.293,0,0.589-0.016,0.877-0.047L106.987,60.586z
				 M105.487,41.982v1.271h-1.59v-1.271H105.487z M103.743,59.369v1.271h-1.588v-1.271H103.743z M102.309,41.982v1.271h-1.59v-1.271
				H102.309z M100.565,59.369v1.271h-1.591v-1.271H100.565z M99.13,41.982v1.271h-1.59v-1.271H99.13z M97.385,59.369v1.271h-1.588
				v-1.271H97.385z M95.952,41.982v1.271h-1.588v-1.271H95.952z M94.208,59.369v1.271H92.62v-1.271H94.208z M92.775,41.982v1.271
				h-1.589v-1.271H92.775z M91.029,59.369v1.271h-1.587v-1.271H91.029z M89.595,41.982v1.271h-1.588v-1.271H89.595z M87.851,59.369
				v1.271h-1.589v-1.271H87.851z M86.418,41.982v1.271h-1.589v-1.271H86.418z M84.673,59.369v1.271h-1.587v-1.271H84.673z
				 M83.24,41.982v1.271h-1.59v-1.271H83.24z M81.494,59.369v1.271h-1.589v-1.271H81.494z M80.062,41.982v1.271h-0.719
				c-0.268,0-0.541,0.012-0.805,0.039l-0.125-1.265c0.308-0.03,0.621-0.046,0.93-0.046H80.062L80.062,41.982z M78.394,59.314
				l-0.149,1.263c-0.563-0.066-1.124-0.185-1.664-0.353l0.375-1.214C77.423,59.154,77.906,59.257,78.394,59.314z M77.093,43.572
				c-0.469,0.136-0.931,0.316-1.369,0.537l-0.571-1.136c0.508-0.255,1.04-0.465,1.585-0.623L77.093,43.572z M75.597,58.447
				l-0.591,1.125c-0.5-0.264-0.981-0.575-1.428-0.926l0.786-0.999C74.75,57.95,75.164,58.221,75.597,58.447z M74.479,44.887
				c-0.393,0.297-0.757,0.631-1.087,0.992l-0.938-0.856c0.38-0.419,0.805-0.806,1.256-1.149L74.479,44.887z M73.295,56.637
				l-0.953,0.841c-0.377-0.427-0.714-0.889-1.005-1.374l1.09-0.654C72.679,55.868,72.97,56.268,73.295,56.637z M72.502,47.051
				c-0.261,0.418-0.483,0.859-0.663,1.312l-1.183-0.465c0.208-0.527,0.465-1.039,0.768-1.521L72.502,47.051z M71.789,54.125
				l-1.192,0.443c-0.198-0.533-0.347-1.085-0.445-1.645l1.253-0.219C71.489,53.189,71.618,53.666,71.789,54.125z M71.43,49.776
				c-0.093,0.479-0.14,0.971-0.146,1.464l-1.272-0.011c0.007-0.569,0.062-1.14,0.17-1.693L71.43,49.776z"/>
		</g>
		<rect x="80.66" y="100.072" fill="#314848" width="57.971" height="8.097"/>
		<rect x="7.678" y="100.061" fill="#314848" width="10.851" height="8.096"/>
		<g>
			<path fill="#FFFFFF" d="M87.947,93.719v1.875l0.472,0.188v-0.188c0-0.186,0.036-0.317,0.107-0.396
				c0.069-0.079,0.164-0.12,0.279-0.12c0.114,0,0.205,0.04,0.281,0.12c0.071,0.079,0.104,0.211,0.104,0.396v1.04
				c0,0.186-0.037,0.317-0.104,0.397c-0.074,0.078-0.169,0.118-0.284,0.118s-0.209-0.04-0.28-0.124
				c-0.074-0.083-0.106-0.22-0.103-0.41l-3.021-1.213v0.506c0,0.184-0.037,0.316-0.106,0.396c-0.072,0.078-0.167,0.119-0.284,0.119
				c-0.113,0-0.208-0.04-0.28-0.119c-0.073-0.08-0.107-0.213-0.107-0.396l0.004-1.669l3.793-1.537c0-0.181,0.02-0.3,0.059-0.358
				c0.083-0.115,0.192-0.174,0.328-0.174c0.114,0,0.205,0.04,0.279,0.119c0.071,0.077,0.106,0.209,0.106,0.394v1.04
				c0,0.186-0.036,0.318-0.106,0.396c-0.074,0.079-0.167,0.12-0.282,0.12c-0.114,0-0.204-0.041-0.276-0.12
				c-0.072-0.078-0.107-0.211-0.107-0.396v-0.188L87.947,93.719z M87.174,94.039l-1.529,0.62l1.529,0.625V94.039z"/>
			<path fill="#FFFFFF" d="M86.323,88.346h0.847c0.501,0,0.985,0.146,1.443,0.437c0.458,0.29,0.688,0.704,0.688,1.245
				c0,0.312-0.069,0.574-0.204,0.789c-0.138,0.215-0.391,0.419-0.759,0.611c-0.367,0.191-0.758,0.287-1.168,0.287h-0.847
				c-0.5,0-0.98-0.144-1.439-0.434c-0.462-0.288-0.692-0.703-0.692-1.243c0-0.31,0.07-0.57,0.203-0.784
				c0.136-0.217,0.388-0.42,0.756-0.615C85.518,88.444,85.909,88.346,86.323,88.346z M86.323,89.123
				c-0.421,0-0.786,0.117-1.102,0.351c-0.172,0.133-0.26,0.318-0.26,0.56c0,0.233,0.096,0.426,0.287,0.573
				c0.289,0.223,0.646,0.335,1.073,0.335h0.848c0.423,0,0.789-0.118,1.101-0.354c0.173-0.13,0.259-0.317,0.259-0.562
				c0-0.23-0.096-0.42-0.285-0.567c-0.289-0.225-0.647-0.337-1.074-0.337L86.323,89.123L86.323,89.123z"/>
			<path fill="#FFFFFF" d="M97.206,93.719v1.875l0.47,0.188v-0.188c0-0.186,0.035-0.317,0.107-0.396
				c0.07-0.079,0.166-0.12,0.279-0.12s0.205,0.04,0.279,0.12c0.072,0.079,0.106,0.211,0.106,0.396v1.04
				c0,0.186-0.037,0.317-0.106,0.397c-0.072,0.078-0.167,0.118-0.281,0.118s-0.209-0.04-0.281-0.124
				c-0.073-0.083-0.106-0.22-0.104-0.41l-3.021-1.213v0.506c0,0.184-0.037,0.316-0.107,0.396c-0.071,0.078-0.164,0.119-0.279,0.119
				c-0.116,0-0.21-0.04-0.282-0.119c-0.072-0.08-0.108-0.213-0.108-0.396l0.004-1.669l3.793-1.537c0-0.181,0.021-0.3,0.061-0.358
				c0.083-0.115,0.193-0.174,0.329-0.174c0.111,0,0.204,0.04,0.276,0.119c0.073,0.077,0.106,0.209,0.106,0.394v1.04
				c0,0.186-0.036,0.318-0.106,0.396c-0.072,0.079-0.165,0.12-0.279,0.12c-0.113,0-0.207-0.041-0.278-0.12
				c-0.073-0.078-0.108-0.211-0.108-0.396v-0.188L97.206,93.719z M96.432,94.039l-1.528,0.62l1.528,0.625V94.039z"/>
			<path fill="#FFFFFF" d="M93.449,89.64h4.227v-0.78c0-0.186,0.036-0.317,0.108-0.396c0.07-0.079,0.164-0.119,0.279-0.119
				c0.114,0,0.205,0.04,0.277,0.119s0.108,0.211,0.108,0.396v2.331c0,0.187-0.037,0.318-0.108,0.398
				c-0.072,0.079-0.164,0.118-0.28,0.118c-0.112,0-0.205-0.039-0.276-0.118c-0.073-0.08-0.107-0.212-0.107-0.398v-0.779h-3.22
				l0.18,0.69c0.03,0.109,0.046,0.192,0.046,0.248c0,0.098-0.042,0.184-0.117,0.253c-0.078,0.073-0.173,0.108-0.287,0.108
				c-0.104,0-0.184-0.025-0.244-0.079c-0.058-0.054-0.11-0.163-0.155-0.331L93.449,89.64z"/>
			<path fill="#FFFFFF" d="M106.461,93.719v1.875l0.472,0.188v-0.188c0-0.186,0.037-0.317,0.107-0.396
				c0.072-0.079,0.165-0.12,0.282-0.12c0.111,0,0.206,0.04,0.277,0.12c0.071,0.079,0.106,0.211,0.106,0.396v1.04
				c0,0.186-0.036,0.317-0.106,0.397c-0.072,0.078-0.167,0.118-0.283,0.118c-0.114,0-0.208-0.04-0.279-0.124
				c-0.075-0.083-0.108-0.22-0.104-0.41l-3.021-1.213v0.506c0,0.184-0.036,0.316-0.108,0.396c-0.071,0.078-0.165,0.119-0.281,0.119
				c-0.115,0-0.208-0.04-0.279-0.119c-0.074-0.08-0.109-0.213-0.109-0.396l0.004-1.669l3.793-1.537c0-0.181,0.02-0.3,0.059-0.358
				c0.084-0.115,0.193-0.174,0.329-0.174c0.115,0,0.206,0.04,0.278,0.119c0.072,0.077,0.106,0.209,0.106,0.394v1.04
				c0,0.186-0.036,0.318-0.106,0.396c-0.073,0.079-0.167,0.12-0.282,0.12c-0.113,0-0.204-0.041-0.276-0.12
				c-0.072-0.078-0.107-0.211-0.107-0.396v-0.188L106.461,93.719z M105.69,94.039l-1.53,0.62l1.53,0.625V94.039z"/>
			<path fill="#FFFFFF" d="M106.933,90.754v-1.691c-0.074-0.093-0.114-0.182-0.114-0.264c0-0.119,0.041-0.213,0.119-0.281
				c0.077-0.069,0.211-0.104,0.399-0.104h0.369v3.519h-0.817c-1.149-1.39-1.886-2.229-2.216-2.52
				c-0.168-0.146-0.328-0.219-0.476-0.219c-0.191,0-0.356,0.083-0.501,0.248c-0.143,0.165-0.215,0.384-0.215,0.657
				c0,0.277,0.082,0.506,0.24,0.689c0.085,0.095,0.212,0.172,0.381,0.229c0.104,0.035,0.18,0.084,0.226,0.146
				c0.044,0.061,0.068,0.137,0.068,0.228c0,0.104-0.038,0.198-0.113,0.274c-0.075,0.076-0.165,0.115-0.264,0.115
				c-0.152,0-0.34-0.071-0.566-0.21c-0.226-0.139-0.408-0.343-0.541-0.61c-0.136-0.267-0.203-0.559-0.203-0.872
				c0-0.488,0.147-0.887,0.442-1.197c0.294-0.312,0.651-0.467,1.071-0.467c0.213,0,0.41,0.044,0.593,0.134
				c0.183,0.089,0.434,0.303,0.754,0.642C105.824,89.465,106.279,89.982,106.933,90.754z"/>
			<path fill="#FFFFFF" d="M115.72,93.719v1.875l0.47,0.188v-0.188c0-0.186,0.037-0.317,0.108-0.396
				c0.071-0.079,0.166-0.12,0.28-0.12c0.114,0,0.206,0.04,0.279,0.12c0.072,0.079,0.105,0.211,0.105,0.396v1.04
				c0,0.186-0.036,0.317-0.105,0.397c-0.073,0.078-0.167,0.118-0.282,0.118c-0.114,0-0.208-0.04-0.282-0.124
				c-0.072-0.083-0.105-0.22-0.103-0.41l-3.02-1.213v0.506c0,0.184-0.037,0.316-0.107,0.396c-0.073,0.078-0.167,0.119-0.281,0.119
				c-0.116,0-0.208-0.04-0.282-0.119c-0.072-0.08-0.108-0.213-0.108-0.396l0.004-1.669l3.793-1.537c0-0.181,0.023-0.3,0.062-0.358
				c0.083-0.115,0.192-0.174,0.329-0.174c0.114,0,0.204,0.04,0.277,0.119c0.071,0.077,0.105,0.209,0.105,0.394v1.04
				c0,0.186-0.034,0.318-0.105,0.396c-0.074,0.079-0.167,0.12-0.282,0.12c-0.113,0-0.206-0.041-0.277-0.12
				c-0.073-0.078-0.107-0.211-0.107-0.396v-0.188L115.72,93.719z M114.948,94.039l-1.529,0.62l1.529,0.625V94.039z"/>
			<path fill="#FFFFFF" d="M114.382,88.931c0.156-0.229,0.336-0.399,0.541-0.512c0.203-0.113,0.435-0.171,0.688-0.171
				c0.272,0,0.524,0.076,0.757,0.225c0.234,0.15,0.41,0.367,0.528,0.651c0.12,0.283,0.177,0.655,0.177,1.115
				c0,0.599-0.091,1.047-0.277,1.349c-0.106,0.169-0.23,0.252-0.379,0.252c-0.108,0-0.203-0.038-0.279-0.111
				c-0.078-0.073-0.116-0.164-0.116-0.269c0-0.073,0.024-0.148,0.075-0.227c0.076-0.11,0.125-0.215,0.153-0.312
				c0.034-0.151,0.052-0.358,0.052-0.621c0-0.449-0.058-0.775-0.176-0.976c-0.117-0.201-0.282-0.301-0.495-0.301
				c-0.159,0-0.311,0.058-0.457,0.175c-0.148,0.117-0.262,0.272-0.342,0.469c-0.046,0.113-0.077,0.304-0.094,0.572
				c-0.007,0.128-0.048,0.227-0.119,0.296c-0.072,0.07-0.159,0.105-0.266,0.105c-0.111,0-0.204-0.039-0.278-0.113
				c-0.076-0.076-0.113-0.172-0.113-0.287c0-0.256-0.001-0.393-0.005-0.409c-0.01-0.103-0.041-0.202-0.098-0.302
				c-0.055-0.1-0.13-0.181-0.228-0.243c-0.097-0.062-0.196-0.093-0.299-0.093c-0.165,0-0.304,0.072-0.424,0.217
				c-0.12,0.145-0.179,0.363-0.179,0.65c0,0.373,0.106,0.656,0.324,0.852c0.063,0.058,0.103,0.105,0.12,0.14
				c0.027,0.053,0.04,0.112,0.04,0.177c0,0.105-0.035,0.196-0.113,0.271c-0.074,0.075-0.167,0.113-0.278,0.113
				c-0.172,0-0.342-0.118-0.506-0.347c-0.238-0.336-0.358-0.757-0.358-1.261c0-0.477,0.136-0.861,0.406-1.15
				c0.273-0.289,0.6-0.433,0.98-0.433c0.198,0,0.383,0.042,0.556,0.128C114.075,88.635,114.238,88.76,114.382,88.931z"/>
			<path fill="#FFFFFF" d="M124.978,93.719v1.875l0.471,0.188v-0.188c0-0.186,0.036-0.317,0.107-0.396
				c0.072-0.079,0.165-0.12,0.282-0.12c0.113,0,0.205,0.04,0.277,0.12c0.071,0.079,0.106,0.211,0.106,0.396v1.04
				c0,0.186-0.035,0.317-0.106,0.397c-0.072,0.078-0.167,0.118-0.281,0.118s-0.209-0.04-0.281-0.124
				c-0.072-0.083-0.107-0.22-0.104-0.41l-3.02-1.213v0.506c0,0.184-0.037,0.316-0.107,0.396c-0.071,0.078-0.167,0.119-0.281,0.119
				c-0.115,0-0.208-0.04-0.282-0.119c-0.07-0.08-0.105-0.213-0.105-0.396l0.003-1.669l3.793-1.537c0-0.181,0.022-0.3,0.061-0.358
				c0.084-0.115,0.193-0.174,0.329-0.174c0.113,0,0.205,0.04,0.276,0.119c0.073,0.077,0.107,0.209,0.107,0.394v1.04
				c0,0.186-0.036,0.318-0.107,0.396c-0.071,0.079-0.167,0.12-0.281,0.12c-0.112,0-0.205-0.041-0.277-0.12
				c-0.071-0.078-0.104-0.211-0.104-0.396v-0.188L124.978,93.719z M124.206,94.039l-1.53,0.62l1.53,0.625V94.039z"/>
			<path fill="#FFFFFF" d="M121.346,88.9h3.022c0-0.162,0.034-0.283,0.107-0.361c0.068-0.077,0.162-0.117,0.275-0.117
				c0.113,0,0.207,0.04,0.279,0.12c0.074,0.078,0.109,0.199,0.109,0.36h0.31c0-0.164,0.036-0.285,0.108-0.363
				c0.074-0.077,0.167-0.116,0.281-0.116s0.204,0.04,0.276,0.119s0.107,0.212,0.107,0.396v1.037c0,0.185-0.036,0.318-0.107,0.396
				c-0.071,0.079-0.166,0.12-0.28,0.12c-0.114,0-0.206-0.041-0.278-0.12c-0.071-0.078-0.107-0.212-0.107-0.396v-0.301h-0.31v2.095
				h-0.644l-3.149-1.849V88.9L121.346,88.9z M124.369,89.674h-1.899l1.899,1.118V89.674z"/>
			<path fill="#FFFFFF" d="M134.236,93.719v1.875l0.471,0.188v-0.188c0-0.186,0.037-0.317,0.105-0.396
				c0.071-0.079,0.166-0.12,0.283-0.12c0.113,0,0.205,0.04,0.277,0.12c0.07,0.079,0.106,0.211,0.106,0.396v1.04
				c0,0.186-0.036,0.317-0.106,0.397c-0.072,0.078-0.167,0.118-0.282,0.118s-0.209-0.04-0.281-0.124
				c-0.073-0.083-0.107-0.22-0.103-0.41l-3.02-1.213v0.506c0,0.184-0.037,0.316-0.107,0.396c-0.071,0.078-0.165,0.119-0.281,0.119
				c-0.116,0-0.209-0.04-0.281-0.119c-0.073-0.08-0.107-0.213-0.107-0.396l0.003-1.669l3.794-1.537c0-0.181,0.022-0.3,0.061-0.358
				c0.083-0.115,0.191-0.174,0.329-0.174c0.113,0,0.204,0.04,0.278,0.119c0.071,0.077,0.106,0.209,0.106,0.394v1.04
				c0,0.186-0.038,0.318-0.106,0.396c-0.074,0.079-0.167,0.12-0.281,0.12c-0.115,0-0.205-0.041-0.277-0.12
				c-0.071-0.078-0.106-0.211-0.106-0.396v-0.188L134.236,93.719z M133.463,94.039l-1.529,0.62l1.529,0.625V94.039z"/>
			<path fill="#FFFFFF" d="M131.376,90.683h0.918c-0.088-0.286-0.135-0.546-0.135-0.779c0-0.474,0.163-0.87,0.485-1.183
				c0.324-0.313,0.744-0.473,1.256-0.473c0.527,0,0.941,0.16,1.241,0.477c0.3,0.318,0.45,0.806,0.45,1.46
				c0,0.578-0.108,1.036-0.329,1.372c-0.126,0.195-0.269,0.294-0.433,0.294c-0.105,0-0.192-0.038-0.269-0.115
				c-0.076-0.075-0.116-0.168-0.116-0.272c0-0.088,0.044-0.184,0.127-0.286c0.084-0.103,0.144-0.211,0.175-0.324
				c0.047-0.161,0.071-0.365,0.071-0.618c0-0.467-0.073-0.787-0.224-0.957c-0.15-0.17-0.378-0.256-0.686-0.256
				c-0.304,0-0.543,0.083-0.716,0.247c-0.173,0.165-0.26,0.377-0.26,0.635c0,0.28,0.091,0.597,0.271,0.954
				c0.042,0.08,0.064,0.151,0.064,0.212c0,0.11-0.041,0.201-0.121,0.276c-0.08,0.076-0.185,0.111-0.311,0.111h-2.232v-2.361
				c0-0.187,0.037-0.319,0.108-0.398s0.167-0.119,0.281-0.119c0.113,0,0.206,0.04,0.279,0.119c0.07,0.079,0.105,0.212,0.105,0.398
				L131.376,90.683L131.376,90.683z"/>
		</g>
	</g>
	<rect x="9.71" fill="#737373" width="5.754" height="5.755"/>
	<rect x="19.012" fill="#737373" width="5.755" height="5.755"/>
	<rect x="28.27" fill="#737373" width="5.756" height="5.755"/>
	<rect x="37.527" fill="#737373" width="5.755" height="5.755"/>
	<rect x="36.913" fill="#737373" width="5.754" height="5.755"/>
	<rect x="46.812" fill="#737373" width="5.754" height="5.755"/>
	<rect x="56.551" fill="#737373" width="5.754" height="5.755"/>
	<rect x="66.246" fill="#737373" width="5.754" height="5.755"/>
	<rect x="75.93" fill="#737373" width="5.757" height="5.755"/>
	<rect x="85.438" fill="#737373" width="5.754" height="5.755"/>
	<rect x="94.451" fill="#737373" width="5.754" height="5.755"/>
	<rect x="103.697" fill="#737373" width="5.756" height="5.755"/>
	<rect x="112.904" fill="#737373" width="5.756" height="5.755"/>
	<rect x="122.162" fill="#737373" width="5.755" height="5.755"/>
	<rect x="131.476" fill="#737373" width="5.754" height="5.755"/>
	<rect x="83.557" y="102.315" fill="#737373" width="5.755" height="5.755"/>
	<rect x="92.572" y="102.315" fill="#737373" width="5.753" height="5.755"/>
	<rect x="101.819" y="102.315" fill="#737373" width="5.753" height="5.755"/>
	<rect x="111.023" y="102.315" fill="#737373" width="5.756" height="5.755"/>
	<rect x="120.281" y="102.315" fill="#737373" width="5.756" height="5.755"/>
	<rect x="129.596" y="102.315" fill="#737373" width="5.755" height="5.755"/>
	<rect x="9.809" y="102.315" fill="#737373" width="5.754" height="5.755"/>
	
		<text transform="matrix(-4.371139e-08 -1 1 -4.371139e-08 15.5625 97.1484)" fill="#FFFFFF" font-family="'Courier-Bold'" font-size="8.3248">Start</text>
</g>
</svg>
