<?xml version="1.0" encoding="utf-8"?>
<!-- Generator: Adobe Illustrator 16.0.0, SVG Export Plug-In . SVG Version: 6.00 Build 0)  -->
<!DOCTYPE svg PUBLIC "-//W3C//DTD SVG 1.1//EN" "http://www.w3.org/Graphics/SVG/1.1/DTD/svg11.dtd">
<svg version="1.1" id="Layer_1" xmlns="http://www.w3.org/2000/svg" xmlns:xlink="http://www.w3.org/1999/xlink" x="0px" y="0px"
	 width="22.677px" height="22.678px" viewBox="0 -4.201 22.677 22.678" enable-background="new 0 -4.201 22.677 22.678"
	 xml:space="preserve">
<g>
	<path fill="#FFFFFF" d="M9.552,4.892C9.313,6.069,9.105,7.091,8.931,7.958c-0.175,0.864-0.382,1.77-0.622,2.715
		c-0.118,0.461-0.313,0.914-0.588,1.361c-0.275,0.444-0.599,0.83-0.971,1.155c-0.392,0.343-0.815,0.609-1.271,0.802
		c-0.457,0.188-0.925,0.284-1.408,0.284c-0.435,0-0.786-0.043-1.057-0.129c-0.27-0.086-0.48-0.194-0.634-0.328
		c-0.148-0.135-0.249-0.282-0.301-0.444C2.026,13.214,2,13.054,2,12.896c0-0.274,0.099-0.52,0.297-0.731
		c0.197-0.213,0.463-0.318,0.797-0.318c0.258,0,0.479,0.068,0.668,0.203s0.35,0.299,0.483,0.49c0.133,0.186,0.251,0.395,0.354,0.623
		s0.182,0.405,0.239,0.535c0.201-0.22,0.389-0.55,0.564-0.99c0.177-0.441,0.341-1.029,0.493-1.765l1.278-6.051H5.791l0.172-0.735
		H7.34l0.12-0.552c0.098-0.446,0.278-0.888,0.545-1.318C8.269,1.854,8.59,1.47,8.966,1.13c0.362-0.334,0.781-0.605,1.256-0.814
		C10.696,0.104,11.172,0,11.648,0c0.415,0,0.761,0.039,1.034,0.118c0.273,0.078,0.489,0.188,0.646,0.325
		c0.144,0.129,0.239,0.272,0.289,0.433c0.051,0.16,0.075,0.317,0.075,0.477c0,0.104-0.02,0.222-0.061,0.351
		s-0.104,0.246-0.189,0.351c-0.104,0.119-0.216,0.212-0.332,0.278c-0.115,0.067-0.287,0.102-0.51,0.102
		c-0.258,0-0.479-0.067-0.664-0.205c-0.185-0.136-0.342-0.298-0.47-0.483c-0.138-0.195-0.255-0.404-0.35-0.629
		c-0.096-0.225-0.175-0.403-0.236-0.537c-0.194,0.225-0.371,0.551-0.528,0.98C10.197,1.99,10.034,2.58,9.867,3.333l-0.18,0.822
		h1.805L11.32,4.892H9.552z"/>
	<path fill="#FFFFFF" d="M19.401,4.907c0,0.414-0.133,0.743-0.396,0.989s-0.588,0.368-0.969,0.368c-0.229,0-0.453-0.027-0.677-0.086
		c-0.221-0.058-0.412-0.114-0.574-0.171c-0.075,0.053-0.188,0.166-0.335,0.343c-0.148,0.177-0.314,0.392-0.502,0.645
		c0.172,0.729,0.311,1.248,0.413,1.555c0.105,0.309,0.205,0.619,0.302,0.934c0.08,0.252,0.198,0.447,0.356,0.591
		c0.156,0.141,0.404,0.211,0.744,0.211c0.123,0,0.278-0.023,0.465-0.07s0.338-0.096,0.457-0.143l-0.157,0.647
		c-0.472,0.199-0.884,0.346-1.236,0.438c-0.353,0.092-0.666,0.137-0.943,0.137c-0.199,0-0.396-0.019-0.594-0.057
		c-0.194-0.039-0.373-0.107-0.535-0.209c-0.176-0.104-0.326-0.234-0.447-0.394s-0.225-0.377-0.311-0.658
		c-0.059-0.177-0.111-0.377-0.158-0.601c-0.049-0.225-0.097-0.422-0.145-0.594c-0.139,0.205-0.238,0.355-0.301,0.458
		c-0.062,0.1-0.152,0.239-0.271,0.422c-0.377,0.578-0.703,0.987-0.98,1.231c-0.274,0.248-0.606,0.369-0.994,0.369
		c-0.29,0-0.539-0.098-0.742-0.293c-0.205-0.195-0.309-0.451-0.309-0.766c0-0.424,0.133-0.759,0.397-1.004s0.589-0.368,0.971-0.368
		c0.229,0,0.449,0.026,0.659,0.083c0.21,0.055,0.408,0.114,0.594,0.183c0.072-0.059,0.185-0.17,0.334-0.337
		c0.15-0.167,0.313-0.374,0.49-0.622c-0.158-0.639-0.288-1.121-0.389-1.445c-0.103-0.323-0.205-0.646-0.312-0.965
		c-0.086-0.256-0.209-0.453-0.371-0.592c-0.163-0.141-0.406-0.209-0.729-0.209c-0.144,0-0.304,0.025-0.479,0.074
		c-0.176,0.051-0.324,0.098-0.442,0.14l0.156-0.646c0.43-0.191,0.835-0.336,1.219-0.433c0.385-0.096,0.704-0.145,0.963-0.145
		c0.231,0,0.434,0.018,0.6,0.051c0.167,0.033,0.344,0.105,0.529,0.215c0.172,0.104,0.319,0.236,0.446,0.396
		c0.125,0.16,0.229,0.379,0.312,0.653c0.058,0.191,0.111,0.39,0.158,0.595c0.049,0.205,0.09,0.382,0.124,0.528
		c0.101-0.151,0.204-0.311,0.312-0.472c0.107-0.162,0.198-0.306,0.275-0.429c0.367-0.577,0.694-0.99,0.985-1.242
		c0.291-0.25,0.619-0.375,0.986-0.375c0.301,0,0.551,0.1,0.751,0.297C19.302,4.336,19.401,4.593,19.401,4.907z"/>
</g>
</svg>
