<?xml version="1.0" encoding="utf-8"?>
<!-- Generator: Adobe Illustrator 16.0.0, SVG Export Plug-In . SVG Version: 6.00 Build 0)  -->
<!DOCTYPE svg PUBLIC "-//W3C//DTD SVG 1.1//EN" "http://www.w3.org/Graphics/SVG/1.1/DTD/svg11.dtd">
<svg version="1.1" id="Layer_1" xmlns="http://www.w3.org/2000/svg" xmlns:xlink="http://www.w3.org/1999/xlink" x="0px" y="0px"
	 width="144.002px" height="108.169px" viewBox="0 0 144.002 108.169" enable-background="new 0 0 144.002 108.169"
	 xml:space="preserve">
<g>
	<g>
		<path fill="#0A69A9" d="M139.356-1.075c3.01,0,5.453,2.442,5.453,5.455v96.914c0,3.013-2.443,5.454-5.453,5.454H6.591
			c-3.013,0.001-5.455-2.441-5.455-5.454V4.379c0-3.012,2.442-5.454,5.455-5.454H139.356L139.356-1.075z"/>
		<rect x="7.765" y="-1.075" fill="#314848" width="131.686" height="8.077"/>
		<g>
			<path fill="#FFFFFF" d="M11.245,15.789h4.218v-0.777c0-0.185,0.036-0.317,0.105-0.395c0.073-0.08,0.165-0.12,0.282-0.12
				c0.112,0,0.204,0.04,0.275,0.12c0.072,0.077,0.106,0.21,0.106,0.395v2.327c0,0.185-0.036,0.318-0.106,0.396
				c-0.071,0.079-0.164,0.118-0.279,0.118c-0.113,0-0.206-0.039-0.278-0.118c-0.07-0.078-0.105-0.212-0.105-0.396v-0.778h-3.214
				l0.18,0.688c0.03,0.11,0.045,0.193,0.045,0.249c0,0.099-0.039,0.184-0.117,0.254c-0.076,0.071-0.173,0.106-0.286,0.106
				c-0.102,0-0.183-0.025-0.241-0.08c-0.059-0.052-0.111-0.162-0.156-0.33L11.245,15.789z"/>
			<path fill="#FFFFFF" d="M13.658,10.465c0.156-0.229,0.336-0.398,0.54-0.511c0.202-0.112,0.432-0.169,0.685-0.169
				c0.273,0,0.525,0.073,0.758,0.224c0.232,0.149,0.408,0.364,0.526,0.649c0.119,0.281,0.178,0.653,0.178,1.111
				c0,0.597-0.093,1.046-0.279,1.346c-0.104,0.169-0.23,0.251-0.376,0.251c-0.11,0-0.202-0.036-0.28-0.11
				c-0.076-0.072-0.114-0.163-0.114-0.269c0-0.071,0.026-0.146,0.075-0.224c0.074-0.11,0.125-0.216,0.15-0.314
				c0.035-0.151,0.053-0.356,0.053-0.62c0-0.446-0.057-0.772-0.175-0.972c-0.117-0.199-0.279-0.3-0.492-0.3
				c-0.158,0-0.312,0.057-0.457,0.174c-0.147,0.117-0.26,0.272-0.341,0.468c-0.045,0.113-0.077,0.305-0.094,0.571
				c-0.008,0.128-0.047,0.227-0.12,0.296c-0.07,0.069-0.159,0.104-0.263,0.104c-0.111,0-0.202-0.037-0.278-0.112
				c-0.076-0.074-0.113-0.171-0.113-0.286c0-0.255-0.001-0.392-0.004-0.409c-0.011-0.101-0.042-0.2-0.097-0.299
				c-0.057-0.102-0.132-0.183-0.228-0.243c-0.097-0.062-0.197-0.092-0.3-0.092c-0.161,0-0.303,0.072-0.424,0.217
				c-0.117,0.145-0.177,0.36-0.177,0.648c0,0.372,0.108,0.654,0.323,0.85c0.063,0.057,0.104,0.104,0.121,0.14
				c0.029,0.052,0.04,0.11,0.04,0.176c0,0.104-0.037,0.195-0.112,0.271c-0.074,0.073-0.168,0.112-0.277,0.112
				c-0.174,0-0.342-0.115-0.504-0.345c-0.238-0.336-0.36-0.756-0.36-1.26c0-0.475,0.137-0.856,0.408-1.146
				c0.27-0.288,0.597-0.432,0.978-0.432c0.198,0,0.382,0.042,0.553,0.129C13.353,10.168,13.513,10.295,13.658,10.465z"/>
			<path fill="#FFFFFF" d="M20.482,15.789H24.7v-0.777c0-0.185,0.037-0.317,0.107-0.395c0.071-0.08,0.163-0.12,0.279-0.12
				c0.113,0,0.206,0.04,0.278,0.12c0.071,0.077,0.106,0.21,0.106,0.395v2.327c0,0.185-0.036,0.318-0.106,0.396
				c-0.072,0.079-0.166,0.118-0.281,0.118c-0.113,0-0.205-0.039-0.276-0.118c-0.072-0.078-0.107-0.212-0.107-0.396v-0.778h-3.214
				l0.18,0.688c0.03,0.11,0.044,0.193,0.044,0.249c0,0.099-0.038,0.184-0.116,0.254c-0.077,0.071-0.172,0.106-0.286,0.106
				c-0.102,0-0.183-0.025-0.242-0.08c-0.059-0.052-0.11-0.162-0.155-0.33L20.482,15.789z"/>
			<path fill="#FFFFFF" d="M24.7,12.283v-1.688c-0.074-0.092-0.112-0.181-0.112-0.264c0-0.118,0.038-0.211,0.117-0.281
				c0.076-0.068,0.208-0.104,0.396-0.104h0.369v3.512h-0.816c-1.146-1.387-1.882-2.227-2.209-2.514
				c-0.168-0.146-0.328-0.218-0.477-0.218c-0.188,0-0.353,0.082-0.497,0.246c-0.146,0.165-0.218,0.383-0.218,0.656
				c0,0.276,0.082,0.504,0.241,0.688c0.085,0.095,0.213,0.171,0.379,0.229c0.106,0.037,0.182,0.085,0.227,0.146
				c0.044,0.061,0.068,0.138,0.068,0.228c0,0.104-0.04,0.196-0.113,0.272c-0.075,0.076-0.164,0.115-0.265,0.115
				c-0.15,0-0.337-0.07-0.562-0.208c-0.227-0.139-0.406-0.343-0.54-0.609c-0.137-0.267-0.205-0.556-0.205-0.872
				c0-0.484,0.148-0.883,0.443-1.192c0.294-0.312,0.65-0.466,1.069-0.466c0.212,0,0.408,0.043,0.591,0.133
				c0.183,0.088,0.434,0.302,0.754,0.641C23.592,10.997,24.045,11.514,24.7,12.283z"/>
			<path fill="#FFFFFF" d="M31.967,19.351c0-0.112,0.037-0.204,0.113-0.279c0.075-0.076,0.165-0.114,0.269-0.114
				c0.107,0,0.229,0.057,0.361,0.169c0.198,0.17,0.339,0.312,0.421,0.429c0.126,0.17,0.188,0.353,0.188,0.545
				c0,0.146-0.036,0.29-0.108,0.432c-0.073,0.144-0.211,0.321-0.416,0.537c-0.202,0.214-0.305,0.352-0.305,0.41
				c0,0.03,0.01,0.059,0.029,0.087c0.035,0.057,0.122,0.146,0.26,0.27s0.221,0.211,0.25,0.261c0.028,0.051,0.042,0.101,0.042,0.151
				c0,0.104-0.04,0.197-0.118,0.275c-0.078,0.079-0.167,0.119-0.271,0.119c-0.15,0-0.351-0.13-0.597-0.39
				c-0.246-0.262-0.368-0.517-0.368-0.768c0-0.137,0.036-0.279,0.108-0.426c0.07-0.145,0.224-0.337,0.458-0.573
				c0.124-0.123,0.201-0.214,0.234-0.271c0.019-0.039,0.03-0.072,0.03-0.104c0-0.035-0.011-0.066-0.03-0.092
				c-0.045-0.064-0.145-0.164-0.309-0.303c-0.104-0.086-0.172-0.154-0.201-0.203S31.967,19.41,31.967,19.351z"/>
			<path fill="#FFFFFF" d="M29.72,15.789h4.216v-0.777c0-0.185,0.036-0.317,0.105-0.395c0.073-0.08,0.166-0.12,0.282-0.12
				c0.113,0,0.204,0.04,0.275,0.12c0.072,0.077,0.106,0.21,0.106,0.395v2.327c0,0.185-0.035,0.318-0.106,0.396
				c-0.071,0.079-0.163,0.118-0.279,0.118c-0.113,0-0.206-0.039-0.278-0.118c-0.071-0.078-0.105-0.212-0.105-0.396v-0.778h-3.214
				l0.181,0.688c0.031,0.11,0.045,0.193,0.045,0.249c0,0.099-0.039,0.184-0.116,0.254c-0.079,0.071-0.174,0.106-0.288,0.106
				c-0.101,0-0.182-0.025-0.241-0.08c-0.058-0.052-0.111-0.162-0.156-0.33L29.72,15.789z"/>
			<path fill="#FFFFFF" d="M29.72,11.172h4.216v-0.778c0-0.186,0.036-0.317,0.105-0.396c0.073-0.079,0.166-0.12,0.282-0.12
				c0.113,0,0.204,0.041,0.275,0.12c0.072,0.079,0.106,0.211,0.106,0.396v2.326c0,0.185-0.035,0.317-0.106,0.396
				s-0.163,0.118-0.279,0.118c-0.113,0-0.206-0.039-0.278-0.118c-0.071-0.079-0.105-0.212-0.105-0.396v-0.777h-3.214l0.181,0.688
				c0.031,0.108,0.045,0.192,0.045,0.249c0,0.097-0.039,0.182-0.116,0.253c-0.079,0.071-0.174,0.106-0.288,0.106
				c-0.101,0-0.182-0.025-0.241-0.079c-0.058-0.053-0.111-0.163-0.156-0.33L29.72,11.172z"/>
			<path fill="#FFFFFF" d="M41.203,19.351c0-0.112,0.038-0.204,0.112-0.279c0.076-0.076,0.165-0.114,0.27-0.114
				c0.108,0,0.229,0.057,0.362,0.169c0.199,0.17,0.338,0.312,0.42,0.429c0.125,0.17,0.189,0.353,0.189,0.545
				c0,0.146-0.037,0.29-0.109,0.432c-0.074,0.144-0.213,0.321-0.416,0.537c-0.205,0.214-0.308,0.352-0.308,0.41
				c0,0.03,0.01,0.059,0.03,0.087c0.035,0.057,0.122,0.146,0.259,0.27c0.139,0.124,0.221,0.211,0.249,0.261
				c0.03,0.051,0.044,0.101,0.044,0.151c0,0.104-0.04,0.197-0.117,0.275c-0.078,0.079-0.167,0.119-0.271,0.119
				c-0.152,0-0.352-0.13-0.598-0.39c-0.245-0.262-0.369-0.517-0.369-0.768c0-0.137,0.036-0.279,0.107-0.426
				c0.072-0.145,0.227-0.337,0.461-0.573c0.121-0.123,0.2-0.214,0.231-0.271c0.021-0.039,0.031-0.072,0.031-0.104
				c0-0.035-0.01-0.066-0.031-0.092c-0.042-0.064-0.145-0.164-0.308-0.303c-0.105-0.086-0.173-0.154-0.201-0.203
				C41.217,19.464,41.203,19.41,41.203,19.351z"/>
			<path fill="#FFFFFF" d="M38.955,15.789h4.218v-0.777c0-0.185,0.037-0.317,0.105-0.395c0.073-0.08,0.166-0.12,0.281-0.12
				c0.113,0,0.204,0.04,0.276,0.12c0.071,0.077,0.109,0.21,0.109,0.395v2.327c0,0.185-0.039,0.318-0.109,0.396
				c-0.072,0.079-0.164,0.118-0.281,0.118c-0.113,0-0.204-0.039-0.276-0.118c-0.071-0.078-0.106-0.212-0.106-0.396v-0.778h-3.215
				l0.18,0.688c0.031,0.11,0.047,0.193,0.047,0.249c0,0.099-0.04,0.184-0.117,0.254c-0.077,0.071-0.172,0.106-0.286,0.106
				c-0.103,0-0.182-0.025-0.242-0.08c-0.06-0.052-0.111-0.162-0.155-0.33L38.955,15.789z"/>
			<path fill="#FFFFFF" d="M41.082,9.883h0.846c0.502,0,0.981,0.144,1.44,0.433c0.457,0.289,0.688,0.704,0.688,1.243
				c0,0.312-0.07,0.574-0.205,0.787c-0.136,0.216-0.39,0.418-0.757,0.609c-0.366,0.192-0.756,0.287-1.166,0.287h-0.846
				c-0.498,0-0.977-0.143-1.437-0.432c-0.458-0.289-0.69-0.701-0.69-1.24c0-0.309,0.068-0.57,0.204-0.784
				c0.136-0.215,0.385-0.419,0.753-0.612C40.277,9.979,40.669,9.883,41.082,9.883z M41.082,10.657c-0.417,0-0.784,0.116-1.097,0.348
				c-0.173,0.134-0.26,0.319-0.26,0.56c0,0.233,0.095,0.425,0.286,0.571c0.288,0.223,0.646,0.334,1.071,0.334h0.845
				c0.421,0,0.787-0.118,1.098-0.354c0.173-0.13,0.259-0.316,0.259-0.561c0-0.229-0.094-0.419-0.284-0.567
				c-0.288-0.223-0.645-0.334-1.072-0.334L41.082,10.657L41.082,10.657z"/>
			<path fill="#FFFFFF" d="M50.44,14.73c0-0.111,0.036-0.203,0.112-0.279c0.073-0.075,0.165-0.112,0.271-0.112
				c0.107,0,0.228,0.056,0.361,0.168c0.198,0.171,0.337,0.312,0.421,0.429c0.124,0.169,0.187,0.352,0.187,0.546
				c0,0.145-0.036,0.288-0.108,0.432c-0.073,0.143-0.212,0.321-0.416,0.535c-0.204,0.215-0.307,0.352-0.307,0.412
				c0,0.029,0.01,0.058,0.03,0.087c0.034,0.056,0.121,0.144,0.26,0.268c0.138,0.124,0.22,0.212,0.25,0.262
				c0.029,0.051,0.043,0.102,0.043,0.15c0,0.104-0.041,0.198-0.117,0.277s-0.169,0.119-0.271,0.119
				c-0.153,0-0.351-0.131-0.599-0.392c-0.245-0.261-0.368-0.517-0.368-0.767c0-0.138,0.035-0.279,0.108-0.425
				c0.07-0.146,0.224-0.337,0.458-0.573c0.123-0.124,0.2-0.215,0.233-0.271c0.02-0.038,0.031-0.073,0.031-0.103
				c0-0.035-0.011-0.067-0.031-0.093c-0.042-0.063-0.144-0.163-0.308-0.301c-0.105-0.088-0.172-0.155-0.201-0.204
				C50.453,14.845,50.44,14.791,50.44,14.73z"/>
			<path fill="#FFFFFF" d="M51.158,10.479c0.167,0.194,0.282,0.37,0.351,0.531c0.07,0.16,0.104,0.328,0.104,0.506
				c0,0.414-0.166,0.776-0.497,1.084c-0.332,0.31-0.741,0.464-1.232,0.464c-0.384,0-0.732-0.105-1.045-0.318
				c-0.432-0.29-0.646-0.7-0.646-1.229c0-0.377,0.113-0.708,0.339-0.991c0.226-0.283,0.553-0.491,0.982-0.624
				c0.425-0.133,0.872-0.199,1.335-0.199c0.785,0,1.419,0.305,1.896,0.912c0.365,0.473,0.546,0.987,0.546,1.549
				c0,0.311-0.061,0.552-0.186,0.721c-0.083,0.116-0.192,0.172-0.328,0.172c-0.108,0-0.201-0.035-0.275-0.109
				c-0.074-0.074-0.111-0.165-0.111-0.271c0-0.061,0.018-0.129,0.055-0.203c0.051-0.099,0.074-0.2,0.074-0.309
				c0-0.389-0.132-0.746-0.395-1.075C51.862,10.759,51.537,10.558,51.158,10.479z M49.944,10.588
				c-0.356,0.084-0.609,0.205-0.757,0.366c-0.15,0.161-0.224,0.347-0.224,0.555c0,0.217,0.082,0.402,0.248,0.555
				c0.167,0.153,0.39,0.231,0.665,0.231c0.288,0,0.521-0.078,0.699-0.232c0.178-0.154,0.267-0.329,0.267-0.527
				C50.842,11.187,50.543,10.872,49.944,10.588z"/>
			<path fill="#FFFFFF" d="M59.954,10.473c0.152-0.199,0.326-0.348,0.521-0.445c0.195-0.1,0.408-0.15,0.643-0.15
				c0.257,0,0.493,0.064,0.711,0.19c0.216,0.127,0.388,0.326,0.513,0.596c0.124,0.271,0.188,0.571,0.188,0.903
				c0,0.33-0.064,0.629-0.188,0.894c-0.125,0.267-0.296,0.461-0.514,0.588c-0.219,0.126-0.456,0.19-0.71,0.19
				c-0.234,0-0.448-0.05-0.643-0.149s-0.367-0.248-0.521-0.444c-0.159,0.172-0.331,0.304-0.51,0.39
				c-0.181,0.089-0.373,0.133-0.572,0.133c-0.392,0-0.73-0.151-1.017-0.452c-0.285-0.3-0.426-0.686-0.426-1.156
				c0-0.473,0.142-0.858,0.426-1.158c0.286-0.301,0.624-0.452,1.017-0.452c0.204,0,0.395,0.044,0.576,0.13
				C59.627,10.166,59.796,10.297,59.954,10.473z M61.155,10.648c-0.205,0-0.387,0.089-0.553,0.262
				c-0.163,0.173-0.246,0.391-0.246,0.648c0,0.259,0.083,0.475,0.246,0.65c0.166,0.174,0.351,0.262,0.558,0.262
				c0.161,0,0.3-0.075,0.419-0.227c0.121-0.15,0.181-0.378,0.181-0.684c0-0.308-0.06-0.537-0.181-0.686
				C61.461,10.725,61.319,10.648,61.155,10.648z M58.887,10.739c-0.19,0-0.353,0.073-0.487,0.223
				c-0.134,0.15-0.202,0.351-0.202,0.603c0,0.256,0.068,0.457,0.202,0.607c0.134,0.149,0.296,0.224,0.487,0.224
				c0.193,0,0.358-0.074,0.489-0.224c0.135-0.15,0.201-0.352,0.201-0.607c0-0.252-0.066-0.454-0.201-0.603
				C59.245,10.813,59.08,10.739,58.887,10.739z"/>
		</g>
		<g>
			<path fill="#FFFFFF" d="M68.87,10.77v1.762c0.151,0.01,0.26,0.049,0.326,0.116c0.067,0.069,0.1,0.157,0.1,0.267
				c0,0.116-0.041,0.209-0.117,0.281c-0.076,0.071-0.209,0.105-0.393,0.105h-0.684V9.957h0.77l3.714,1.247
				c0.155,0.053,0.26,0.11,0.31,0.175c0.051,0.064,0.076,0.141,0.076,0.232c0,0.107-0.037,0.201-0.112,0.275
				c-0.072,0.076-0.161,0.115-0.259,0.115c-0.057,0-0.144-0.02-0.264-0.06L68.87,10.77z"/>
			<path fill="#FFFFFF" d="M79.462,14.73c0-0.111,0.038-0.203,0.112-0.279c0.074-0.075,0.166-0.112,0.271-0.112
				c0.106,0,0.228,0.056,0.361,0.168c0.197,0.171,0.337,0.312,0.422,0.429c0.123,0.169,0.186,0.352,0.186,0.546
				c0,0.145-0.037,0.288-0.109,0.432c-0.073,0.143-0.212,0.321-0.415,0.535c-0.203,0.215-0.308,0.352-0.308,0.412
				c0,0.029,0.012,0.058,0.031,0.087c0.034,0.056,0.122,0.144,0.259,0.268c0.138,0.124,0.22,0.212,0.25,0.262
				c0.029,0.051,0.042,0.102,0.042,0.15c0,0.104-0.039,0.198-0.117,0.277c-0.076,0.079-0.166,0.119-0.269,0.119
				c-0.151,0-0.352-0.131-0.599-0.392c-0.246-0.261-0.368-0.517-0.368-0.767c0-0.138,0.035-0.279,0.108-0.425
				c0.07-0.146,0.224-0.337,0.458-0.573c0.125-0.124,0.201-0.215,0.233-0.271c0.02-0.038,0.031-0.073,0.031-0.103
				c0-0.035-0.011-0.067-0.031-0.093c-0.042-0.063-0.145-0.163-0.307-0.301c-0.105-0.088-0.173-0.155-0.202-0.204
				C79.473,14.846,79.462,14.791,79.462,14.73z"/>
			<path fill="#FFFFFF" d="M79.568,12.288c-0.153-0.185-0.267-0.362-0.34-0.53c-0.07-0.17-0.105-0.347-0.105-0.537
				c0-0.404,0.159-0.758,0.482-1.061c0.32-0.304,0.723-0.456,1.205-0.456c0.449,0,0.812,0.141,1.089,0.424
				c0.279,0.281,0.416,0.665,0.416,1.147c0,0.404-0.095,0.736-0.282,0.996c-0.187,0.261-0.476,0.457-0.867,0.59
				c-0.392,0.134-0.827,0.2-1.308,0.2c-0.576,0-1.056-0.133-1.437-0.394c-0.382-0.264-0.68-0.572-0.89-0.929
				s-0.315-0.731-0.315-1.128c0-0.312,0.061-0.557,0.185-0.729c0.082-0.113,0.186-0.169,0.314-0.169
				c0.112,0,0.208,0.037,0.283,0.113c0.077,0.075,0.114,0.166,0.114,0.271c0,0.06-0.029,0.146-0.089,0.259
				c-0.037,0.068-0.053,0.133-0.053,0.196c0,0.245,0.071,0.499,0.21,0.763c0.137,0.262,0.352,0.49,0.639,0.683
				C79.019,12.13,79.269,12.227,79.568,12.288z M80.761,12.175c0.3-0.08,0.505-0.188,0.617-0.325
				c0.111-0.138,0.166-0.331,0.166-0.585c0-0.255-0.066-0.448-0.197-0.585c-0.136-0.137-0.315-0.205-0.542-0.205
				c-0.263,0-0.478,0.078-0.65,0.234c-0.174,0.157-0.261,0.332-0.261,0.528c0,0.154,0.076,0.321,0.23,0.497
				C80.277,11.913,80.488,12.06,80.761,12.175z"/>
			<path fill="#FFFFFF" d="M88.698,14.73c0-0.111,0.039-0.203,0.112-0.279c0.076-0.075,0.167-0.112,0.271-0.112
				c0.107,0,0.23,0.056,0.362,0.168c0.198,0.171,0.338,0.312,0.421,0.429c0.125,0.169,0.187,0.352,0.187,0.546
				c0,0.145-0.035,0.288-0.108,0.432c-0.072,0.143-0.213,0.321-0.416,0.535c-0.203,0.215-0.306,0.352-0.306,0.412
				c0,0.029,0.008,0.058,0.031,0.087c0.034,0.056,0.121,0.144,0.259,0.268c0.139,0.124,0.22,0.212,0.251,0.262
				c0.027,0.051,0.04,0.102,0.04,0.15c0,0.104-0.038,0.198-0.116,0.277c-0.077,0.079-0.169,0.119-0.271,0.119
				c-0.153,0-0.351-0.131-0.597-0.392c-0.248-0.261-0.37-0.517-0.37-0.767c0-0.138,0.037-0.279,0.107-0.425
				c0.071-0.146,0.224-0.337,0.459-0.573c0.124-0.124,0.202-0.215,0.232-0.271c0.023-0.038,0.031-0.073,0.031-0.103
				c0-0.035-0.008-0.067-0.031-0.093c-0.042-0.063-0.144-0.163-0.308-0.301c-0.104-0.088-0.17-0.155-0.2-0.204
				C88.709,14.846,88.698,14.791,88.698,14.73z"/>
			<path fill="#FFFFFF" d="M87.345,12.213h0.917c-0.089-0.286-0.136-0.546-0.136-0.779c0-0.472,0.163-0.867,0.486-1.18
				c0.323-0.312,0.74-0.47,1.252-0.47c0.524,0,0.938,0.158,1.238,0.476c0.298,0.316,0.45,0.803,0.45,1.455
				c0,0.577-0.107,1.034-0.328,1.369c-0.125,0.195-0.27,0.294-0.432,0.294c-0.103,0-0.191-0.04-0.27-0.115
				c-0.073-0.076-0.114-0.168-0.114-0.273c0-0.087,0.042-0.183,0.126-0.284c0.084-0.104,0.144-0.211,0.177-0.323
				c0.045-0.16,0.069-0.366,0.069-0.617c0-0.467-0.071-0.784-0.224-0.954c-0.149-0.17-0.375-0.256-0.683-0.256
				c-0.304,0-0.541,0.082-0.714,0.246c-0.173,0.165-0.26,0.375-0.26,0.634c0,0.278,0.091,0.595,0.272,0.951
				c0.041,0.081,0.064,0.151,0.064,0.21c0,0.111-0.041,0.203-0.121,0.277c-0.08,0.075-0.185,0.111-0.311,0.111h-2.227v-2.356
				c0-0.186,0.036-0.318,0.107-0.397c0.072-0.077,0.165-0.117,0.283-0.117c0.11,0,0.203,0.04,0.275,0.117
				c0.071,0.079,0.106,0.212,0.106,0.397L87.345,12.213L87.345,12.213z"/>
			<path fill="#FFFFFF" d="M95.811,10.435h3.014c0-0.163,0.035-0.283,0.107-0.36c0.071-0.078,0.164-0.117,0.276-0.117
				s0.204,0.039,0.278,0.117c0.075,0.08,0.111,0.2,0.111,0.36h0.306c0-0.162,0.038-0.281,0.109-0.36
				c0.074-0.078,0.166-0.117,0.278-0.117c0.113,0,0.205,0.04,0.278,0.119c0.07,0.079,0.105,0.211,0.105,0.396v1.034
				c0,0.184-0.035,0.317-0.105,0.396c-0.073,0.078-0.166,0.118-0.281,0.118c-0.113,0-0.205-0.04-0.275-0.118
				c-0.073-0.079-0.109-0.213-0.109-0.396v-0.3h-0.306v2.092h-0.644l-3.142-1.844L95.811,10.435L95.811,10.435z M98.825,11.205
				h-1.894l1.894,1.115V11.205z"/>
			<path fill="#FFFFFF" d="M107.171,14.73c0-0.111,0.039-0.203,0.114-0.279c0.074-0.075,0.166-0.112,0.27-0.112
				c0.106,0,0.229,0.056,0.361,0.168c0.197,0.171,0.339,0.312,0.421,0.429c0.125,0.169,0.188,0.352,0.188,0.546
				c0,0.145-0.035,0.288-0.108,0.432c-0.073,0.143-0.21,0.321-0.416,0.535c-0.204,0.215-0.307,0.352-0.307,0.412
				c0,0.029,0.009,0.058,0.03,0.087c0.035,0.056,0.122,0.144,0.26,0.268s0.222,0.212,0.25,0.262c0.028,0.051,0.041,0.102,0.041,0.15
				c0,0.104-0.039,0.198-0.116,0.277c-0.077,0.079-0.168,0.119-0.272,0.119c-0.15,0-0.351-0.131-0.596-0.392
				c-0.247-0.261-0.368-0.517-0.368-0.767c0-0.138,0.035-0.279,0.107-0.425c0.07-0.146,0.224-0.337,0.458-0.573
				c0.123-0.124,0.201-0.215,0.233-0.271c0.021-0.038,0.031-0.073,0.031-0.103c0-0.035-0.01-0.067-0.031-0.093
				c-0.043-0.063-0.145-0.163-0.306-0.301c-0.107-0.088-0.174-0.155-0.204-0.204C107.182,14.846,107.171,14.791,107.171,14.73z"/>
			<path fill="#FFFFFF" d="M107.338,10.465c0.154-0.229,0.334-0.398,0.535-0.511c0.206-0.112,0.433-0.169,0.688-0.169
				c0.271,0,0.524,0.073,0.756,0.224c0.233,0.149,0.409,0.364,0.527,0.649c0.119,0.281,0.179,0.653,0.179,1.111
				c0,0.597-0.093,1.046-0.28,1.346c-0.104,0.169-0.23,0.251-0.375,0.251c-0.109,0-0.205-0.036-0.281-0.11
				c-0.077-0.072-0.115-0.163-0.115-0.269c0-0.071,0.025-0.146,0.075-0.224c0.075-0.11,0.124-0.216,0.151-0.314
				c0.036-0.151,0.053-0.356,0.053-0.62c0-0.446-0.058-0.772-0.174-0.972s-0.281-0.3-0.494-0.3c-0.158,0-0.312,0.057-0.458,0.174
				c-0.145,0.117-0.259,0.272-0.34,0.468c-0.045,0.113-0.077,0.305-0.094,0.571c-0.008,0.128-0.046,0.227-0.118,0.296
				s-0.158,0.104-0.265,0.104c-0.11,0-0.202-0.037-0.277-0.112c-0.077-0.074-0.114-0.171-0.114-0.286
				c0-0.255-0.003-0.392-0.005-0.409c-0.008-0.101-0.041-0.2-0.098-0.299c-0.056-0.102-0.13-0.183-0.228-0.243
				c-0.097-0.062-0.194-0.092-0.297-0.092c-0.164,0-0.303,0.072-0.423,0.217s-0.179,0.36-0.179,0.648
				c0,0.372,0.107,0.654,0.323,0.85c0.062,0.057,0.104,0.104,0.121,0.14c0.026,0.052,0.042,0.11,0.042,0.176
				c0,0.104-0.038,0.195-0.114,0.271c-0.075,0.073-0.168,0.112-0.28,0.112c-0.172,0-0.339-0.115-0.504-0.345
				c-0.238-0.336-0.357-0.756-0.357-1.26c0-0.475,0.135-0.856,0.408-1.146c0.269-0.288,0.596-0.432,0.976-0.432
				c0.198,0,0.384,0.042,0.555,0.129C107.03,10.168,107.191,10.295,107.338,10.465z"/>
			<path fill="#FFFFFF" d="M118.377,12.283v-1.688c-0.074-0.092-0.113-0.181-0.113-0.264c0-0.118,0.04-0.211,0.117-0.281
				c0.077-0.068,0.211-0.104,0.398-0.104h0.368v3.512h-0.815c-1.146-1.387-1.882-2.227-2.21-2.514
				c-0.168-0.146-0.328-0.218-0.478-0.218c-0.187,0-0.354,0.082-0.497,0.246c-0.145,0.165-0.217,0.383-0.217,0.656
				c0,0.276,0.081,0.504,0.242,0.688c0.085,0.095,0.212,0.171,0.377,0.229c0.105,0.037,0.181,0.085,0.226,0.146
				c0.047,0.061,0.069,0.138,0.069,0.228c0,0.104-0.038,0.196-0.114,0.272c-0.074,0.076-0.163,0.115-0.263,0.115
				c-0.15,0-0.338-0.07-0.564-0.208c-0.226-0.139-0.407-0.343-0.541-0.609c-0.136-0.267-0.203-0.556-0.203-0.872
				c0-0.484,0.149-0.883,0.441-1.192c0.294-0.312,0.65-0.466,1.068-0.466c0.213,0,0.41,0.043,0.592,0.133
				c0.182,0.088,0.433,0.302,0.753,0.641C117.269,10.997,117.723,11.514,118.377,12.283z"/>
			<path fill="#FFFFFF" d="M123.395,11.172h4.219v-0.778c0-0.186,0.035-0.317,0.106-0.396s0.165-0.12,0.281-0.12
				c0.113,0,0.204,0.041,0.276,0.12s0.106,0.211,0.106,0.396v2.326c0,0.185-0.035,0.317-0.106,0.396s-0.165,0.118-0.279,0.118
				c-0.113,0-0.205-0.039-0.277-0.118c-0.073-0.079-0.106-0.212-0.106-0.396v-0.777h-3.214l0.181,0.688
				c0.03,0.108,0.044,0.192,0.044,0.249c0,0.097-0.04,0.182-0.116,0.253c-0.077,0.072-0.173,0.106-0.286,0.106
				c-0.104,0-0.184-0.025-0.243-0.079c-0.059-0.053-0.11-0.163-0.155-0.33L123.395,11.172z"/>
			<path fill="#FFFFFF" d="M134.762,9.883h0.844c0.5,0,0.981,0.144,1.438,0.433c0.457,0.289,0.688,0.704,0.688,1.243
				c0,0.312-0.069,0.574-0.205,0.787c-0.136,0.216-0.388,0.418-0.757,0.609c-0.366,0.192-0.756,0.287-1.165,0.287h-0.844
				c-0.501,0-0.978-0.143-1.439-0.432c-0.458-0.289-0.689-0.701-0.689-1.24c0-0.309,0.067-0.57,0.202-0.784
				c0.136-0.215,0.386-0.419,0.754-0.612C133.958,9.979,134.347,9.883,134.762,9.883z M134.762,10.657
				c-0.421,0-0.787,0.116-1.1,0.348c-0.171,0.134-0.259,0.319-0.259,0.56c0,0.233,0.095,0.425,0.286,0.571
				c0.288,0.223,0.644,0.334,1.071,0.334h0.846c0.42,0,0.786-0.118,1.097-0.354c0.171-0.13,0.258-0.316,0.258-0.561
				c0-0.229-0.093-0.419-0.285-0.567c-0.288-0.223-0.646-0.334-1.068-0.334L134.762,10.657L134.762,10.657z"/>
		</g>
		<g>
			<path fill="#FFFFFF" d="M29.771,50.5c0,8.739,12.015,11.993,17.949,3.094c6.152,9.227,17.687,5.359,17.687-3.106
				c0-8.468-11.479-12.538-17.687-3.086C41.84,38.059,29.771,41.761,29.771,50.5L29.771,50.5z M32.927,50.5
				c0-6.307,8.911-8.297,13.057,0C41.755,58.488,32.927,56.807,32.927,50.5L32.927,50.5z M49.459,50.5
				c3.736-8.46,12.89-6.129,12.861,0.013C62.293,56.656,53.085,58.572,49.459,50.5z"/>
			<rect x="36.275" y="49.615" fill="#FFFFFF" width="5.29" height="1.744"/>
			<polygon fill="#FFFFFF" points="55.466,51.332 53.722,51.332 53.722,49.479 55.466,49.479 55.466,47.733 57.321,47.733 
				57.321,49.479 59.065,49.479 59.065,51.332 57.321,51.332 57.321,53.077 55.466,53.077 			"/>
			<path fill="#FFFFFF" d="M63.699,43.583V42.8h-0.217v-0.161h0.582V42.8h-0.218v0.783H63.699L63.699,43.583z M64.156,43.583v-0.944
				h0.222l0.131,0.645l0.132-0.645h0.221v0.944h-0.138V42.84l-0.144,0.743h-0.142l-0.145-0.743v0.743H64.156z"/>
			<path fill="#FFFFFF" d="M44.871,63.662c0.007,1.715-0.874,2.546-2.577,2.491h-1.459v-2.491v-2.488h1.459
				C43.997,61.119,44.878,61.949,44.871,63.662L44.871,63.662z M43.65,63.662c0.005-0.979-0.508-1.446-1.54-1.399v1.399v1.4
				C43.143,65.11,43.655,64.644,43.65,63.662z"/>
			<path fill="#FFFFFF" d="M47.728,66.153c-1.404,0-1.952-0.467-2.006-1.648V61.17h1.281v3.279c-0.027,0.525,0.214,0.75,0.725,0.75
				c0.506,0,0.745-0.225,0.717-0.75V61.17h1.276v3.335C49.667,65.687,49.128,66.153,47.728,66.153z"/>
			<polygon fill="#FFFFFF" points="52.578,61.17 50.711,61.17 50.711,62.237 51.95,62.237 51.95,63.662 51.95,65.088 50.711,65.088 
				50.711,66.153 52.578,66.153 54.445,66.153 54.445,65.088 53.205,65.088 53.205,63.662 53.205,62.237 54.445,62.237 
				54.445,61.17 			"/>
			<polygon fill="#FFFFFF" points="58.097,63.662 56.734,61.17 55.373,61.17 55.373,66.153 56.572,66.153 56.572,63.158 
				56.859,63.676 58.221,66.166 59.585,66.166 59.585,61.185 58.383,61.185 58.383,64.179 			"/>
			<path fill="#FFFFFF" d="M62.296,62.207c-0.716,0-0.776,0.638-0.776,1.455c0,0.818,0.059,1.455,0.776,1.455
				c0.715,0,0.769-0.638,0.769-1.455C63.066,62.845,63.011,62.207,62.296,62.207L62.296,62.207z M62.296,66.153
				c-1.433,0-2.108-0.794-2.108-2.491c0-1.699,0.675-2.489,2.108-2.489c1.435,0,2.082,0.79,2.082,2.489
				C64.378,65.361,63.73,66.153,62.296,66.153z"/>
			<path fill="#FFFFFF" d="M35.366,66.153L33.69,61.17h-1.336l-1.685,4.983h1.44l0.267-1.043h1.342l0.313,1.043H35.366
				L35.366,66.153z M33.459,64.129h-0.846l0.417-1.561L33.459,64.129z"/>
			<path fill="#FFFFFF" d="M36.055,61.17v4.983h1.241v-1.567h0.521l0.897,1.567h1.458l-1.137-1.841
				c1.313-0.558,1.35-3.143-1.029-3.143H36.055L36.055,61.17z M37.31,63.624v-1.349h0.594c1.125,0.012,0.763,1.369,0.014,1.349
				H37.31z"/>
			<g>
				<path fill="#FFFFFF" d="M94.003,49.769c-0.156-0.166-0.343-0.3-0.561-0.399c-0.217-0.1-0.456-0.149-0.713-0.149
					c-0.257,0-0.493,0.049-0.709,0.146c-0.215,0.098-0.4,0.229-0.554,0.396c-0.153,0.167-0.273,0.362-0.36,0.586
					c-0.087,0.224-0.13,0.462-0.13,0.717v0.014c0,0.254,0.042,0.494,0.13,0.72c0.087,0.227,0.208,0.424,0.364,0.591
					c0.156,0.166,0.342,0.3,0.561,0.398c0.218,0.101,0.456,0.149,0.713,0.149c0.258,0,0.494-0.049,0.709-0.146
					c0.216-0.098,0.4-0.229,0.554-0.396c0.153-0.166,0.274-0.361,0.36-0.586c0.086-0.224,0.131-0.463,0.131-0.716v-0.016
					c0-0.253-0.044-0.493-0.131-0.72C94.281,50.131,94.159,49.936,94.003,49.769z"/>
				<path fill="#FFFFFF" d="M112.82,50.179v-0.015c0-0.285-0.095-0.501-0.285-0.648c-0.189-0.147-0.457-0.221-0.801-0.221h-1.339
					v1.761h1.347c0.329,0,0.591-0.079,0.786-0.236S112.82,50.448,112.82,50.179z"/>
				<polygon fill="#FFFFFF" points="104.583,51.615 106.382,51.615 105.479,49.525 				"/>
				<path fill="#FFFFFF" d="M118.509,49.801c-0.157-0.158-0.347-0.281-0.57-0.371c-0.224-0.09-0.473-0.135-0.747-0.135h-1.029v3.566
					h1.029c0.274,0,0.522-0.044,0.747-0.131c0.224-0.088,0.414-0.21,0.57-0.368c0.157-0.157,0.278-0.344,0.366-0.562
					c0.087-0.217,0.13-0.454,0.13-0.708v-0.016c0-0.254-0.043-0.491-0.13-0.711C118.787,50.146,118.666,49.958,118.509,49.801z"/>
				<polygon fill="#FFFFFF" points="134.569,51.222 134.569,51.231 134.569,51.242 				"/>
				<polygon fill="#FFFFFF" points="71.742,51.242 71.742,51.231 71.742,51.222 				"/>
				<path fill="#FFFFFF" d="M125.226,49.769c-0.156-0.166-0.343-0.3-0.561-0.399s-0.456-0.149-0.713-0.149
					c-0.258,0-0.494,0.049-0.709,0.146c-0.216,0.098-0.4,0.229-0.554,0.396c-0.153,0.167-0.274,0.362-0.36,0.586
					s-0.13,0.462-0.13,0.717v0.014c0,0.254,0.043,0.494,0.13,0.72c0.086,0.227,0.208,0.424,0.364,0.591
					c0.156,0.166,0.343,0.3,0.561,0.398c0.217,0.101,0.456,0.149,0.713,0.149c0.257,0,0.494-0.049,0.709-0.146
					c0.215-0.098,0.4-0.229,0.554-0.396c0.153-0.166,0.273-0.361,0.36-0.586c0.086-0.224,0.13-0.463,0.13-0.716v-0.016
					c0-0.253-0.044-0.493-0.13-0.72C125.503,50.131,125.382,49.936,125.226,49.769z"/>
				<path fill="#FFFFFF" d="M127.52,44.192H78.792c-3.89,0-7.043,3.151-7.049,7.039c0.006,3.889,3.16,7.04,7.049,7.04h48.729
					c3.89,0,7.043-3.151,7.049-7.04C134.563,47.344,131.41,44.192,127.52,44.192z M83.53,53.689h-3.655v-5.223h0.91v4.395h2.746
					V53.689z M88.768,53.689h-3.902v-5.223h3.865v0.828h-2.955v1.343h2.619v0.827h-2.619v1.396h2.992V53.689z M95.467,51.077
					c0,0.369-0.067,0.715-0.202,1.041c-0.134,0.325-0.323,0.612-0.567,0.858s-0.532,0.441-0.865,0.586s-0.701,0.216-1.104,0.216
					c-0.403,0-0.771-0.07-1.104-0.212c-0.332-0.142-0.619-0.334-0.857-0.579c-0.239-0.243-0.426-0.528-0.56-0.854
					c-0.135-0.325-0.202-0.672-0.202-1.04v-0.016c0-0.367,0.067-0.714,0.202-1.04c0.134-0.326,0.323-0.611,0.567-0.858
					c0.244-0.246,0.532-0.44,0.866-0.585s0.702-0.217,1.104-0.217c0.403,0,0.771,0.07,1.104,0.212
					c0.333,0.143,0.62,0.335,0.858,0.579c0.238,0.244,0.425,0.529,0.559,0.854c0.134,0.326,0.202,0.673,0.202,1.042V51.077z
					 M101.502,53.689h-0.767l-2.874-3.716v3.716h-0.911v-5.223H97.8l2.792,3.61v-3.61h0.91V53.689z M107.247,53.689l-0.53-1.262
					h-2.469l-0.537,1.262h-0.94l2.298-5.26h0.851l2.298,5.26H107.247z M112.835,53.689l-1.287-1.82h-0.015h-1.138v1.82h-0.91v-5.223
					h2.328c0.328,0,0.619,0.046,0.872,0.138c0.254,0.092,0.465,0.22,0.635,0.385c0.139,0.144,0.246,0.311,0.321,0.499
					c0.074,0.189,0.112,0.398,0.112,0.627v0.016c0,0.214-0.031,0.406-0.093,0.577c-0.062,0.172-0.148,0.323-0.257,0.455
					c-0.109,0.133-0.24,0.244-0.392,0.336c-0.152,0.093-0.32,0.163-0.504,0.213l1.41,1.978H112.835z M119.975,51.077
					c0,0.369-0.067,0.712-0.201,1.03c-0.135,0.318-0.325,0.594-0.571,0.828c-0.246,0.233-0.54,0.418-0.88,0.552
					c-0.341,0.135-0.715,0.202-1.123,0.202h-1.947v-5.223h1.947c0.408,0,0.782,0.065,1.123,0.197c0.34,0.133,0.634,0.314,0.88,0.549
					c0.247,0.233,0.437,0.508,0.571,0.824c0.134,0.316,0.201,0.657,0.201,1.026V51.077z M126.689,51.077
					c0,0.369-0.067,0.715-0.201,1.041c-0.134,0.325-0.324,0.612-0.567,0.858c-0.244,0.246-0.533,0.441-0.866,0.586
					c-0.333,0.145-0.702,0.216-1.104,0.216c-0.403,0-0.771-0.07-1.104-0.212s-0.62-0.334-0.857-0.579
					c-0.239-0.243-0.426-0.528-0.56-0.854c-0.134-0.325-0.202-0.672-0.202-1.04v-0.016c0-0.367,0.067-0.714,0.202-1.04
					s0.323-0.611,0.567-0.858c0.244-0.246,0.533-0.44,0.866-0.585s0.701-0.217,1.104-0.217s0.771,0.07,1.104,0.212
					c0.333,0.143,0.62,0.335,0.858,0.579c0.239,0.244,0.425,0.529,0.56,0.854c0.134,0.326,0.201,0.673,0.201,1.042V51.077z"/>
			</g>
		</g>
		<rect x="81.612" y="98.77" fill="#314848" width="57.838" height="8.077"/>
		<rect x="8.797" y="98.758" fill="#314848" width="10.825" height="8.078"/>
		<g>
			<path fill="#FFFFFF" d="M88.883,92.43v1.871l0.471,0.188v-0.188c0-0.185,0.036-0.316,0.106-0.396
				c0.069-0.079,0.164-0.119,0.278-0.119c0.114,0,0.205,0.04,0.28,0.119c0.071,0.079,0.104,0.211,0.104,0.396v1.037
				c0,0.186-0.037,0.317-0.104,0.396c-0.074,0.078-0.168,0.118-0.283,0.118s-0.209-0.04-0.28-0.124
				c-0.073-0.082-0.106-0.218-0.102-0.408l-3.014-1.211v0.505c0,0.183-0.037,0.316-0.106,0.396
				c-0.072,0.077-0.167,0.118-0.283,0.118c-0.113,0-0.208-0.04-0.28-0.118c-0.072-0.08-0.106-0.214-0.106-0.396l0.004-1.665
				l3.785-1.533c0-0.181,0.02-0.299,0.059-0.357c0.083-0.115,0.191-0.174,0.327-0.174c0.113,0,0.205,0.04,0.278,0.119
				c0.071,0.077,0.106,0.208,0.106,0.393v1.037c0,0.186-0.036,0.317-0.106,0.396c-0.074,0.079-0.167,0.119-0.281,0.119
				c-0.113,0-0.204-0.04-0.275-0.119c-0.072-0.079-0.107-0.211-0.107-0.396v-0.188L88.883,92.43z M88.112,92.75l-1.526,0.619
				l1.526,0.623V92.75z"/>
			<path fill="#FFFFFF" d="M87.263,87.07h0.845c0.501,0,0.983,0.144,1.44,0.434c0.457,0.291,0.687,0.703,0.687,1.243
				c0,0.312-0.069,0.573-0.204,0.788c-0.137,0.214-0.39,0.417-0.757,0.609c-0.366,0.19-0.756,0.286-1.166,0.286h-0.845
				c-0.499,0-0.978-0.144-1.437-0.433c-0.46-0.287-0.69-0.701-0.69-1.24c0-0.309,0.069-0.568,0.202-0.783
				c0.136-0.215,0.387-0.418,0.754-0.613C86.459,87.167,86.849,87.07,87.263,87.07z M87.263,87.844c-0.42,0-0.785,0.117-1.1,0.351
				c-0.171,0.133-0.259,0.318-0.259,0.56c0,0.232,0.095,0.424,0.287,0.571c0.288,0.222,0.644,0.334,1.07,0.334h0.846
				c0.422,0,0.787-0.118,1.098-0.354c0.172-0.131,0.258-0.317,0.258-0.56c0-0.231-0.096-0.42-0.284-0.567
				c-0.288-0.224-0.646-0.336-1.071-0.336L87.263,87.844L87.263,87.844z"/>
			<path fill="#FFFFFF" d="M98.12,92.43v1.871l0.469,0.188v-0.188c0-0.185,0.035-0.316,0.107-0.396
				c0.07-0.079,0.166-0.119,0.279-0.119s0.204,0.04,0.278,0.119c0.072,0.079,0.105,0.211,0.105,0.396v1.037
				c0,0.186-0.037,0.317-0.105,0.396c-0.072,0.078-0.167,0.118-0.28,0.118c-0.114,0-0.209-0.04-0.28-0.124
				c-0.073-0.082-0.105-0.218-0.104-0.408l-3.014-1.211v0.505c0,0.183-0.037,0.316-0.107,0.396
				c-0.071,0.077-0.164,0.118-0.279,0.118c-0.115,0-0.21-0.04-0.281-0.118c-0.072-0.08-0.108-0.214-0.108-0.396l0.004-1.665
				l3.784-1.533c0-0.181,0.022-0.299,0.061-0.357c0.083-0.115,0.193-0.174,0.328-0.174c0.111,0,0.204,0.04,0.276,0.119
				c0.073,0.077,0.106,0.208,0.106,0.393v1.037c0,0.186-0.036,0.317-0.106,0.396c-0.072,0.079-0.165,0.119-0.279,0.119
				c-0.113,0-0.207-0.04-0.277-0.119c-0.073-0.079-0.107-0.211-0.107-0.396v-0.188L98.12,92.43z M97.349,92.75l-1.525,0.619
				l1.525,0.623V92.75z"/>
			<path fill="#FFFFFF" d="M94.372,88.36h4.217v-0.778c0-0.186,0.036-0.317,0.108-0.396c0.07-0.079,0.163-0.119,0.279-0.119
				c0.113,0,0.204,0.04,0.276,0.119c0.072,0.078,0.107,0.21,0.107,0.396v2.326c0,0.186-0.037,0.317-0.107,0.396
				c-0.072,0.079-0.164,0.118-0.28,0.118c-0.112,0-0.204-0.039-0.275-0.118c-0.073-0.079-0.107-0.211-0.107-0.396V89.13h-3.213
				l0.179,0.688c0.03,0.109,0.046,0.192,0.046,0.247c0,0.099-0.042,0.185-0.117,0.253c-0.078,0.073-0.172,0.108-0.286,0.108
				c-0.104,0-0.184-0.026-0.244-0.079c-0.058-0.053-0.11-0.162-0.155-0.33L94.372,88.36z"/>
			<path fill="#FFFFFF" d="M107.355,92.43v1.871l0.47,0.188v-0.188c0-0.185,0.037-0.316,0.107-0.396
				c0.072-0.079,0.165-0.119,0.281-0.119c0.111,0,0.205,0.04,0.276,0.119s0.106,0.211,0.106,0.396v1.037
				c0,0.186-0.036,0.317-0.106,0.396c-0.071,0.078-0.167,0.118-0.282,0.118c-0.114,0-0.208-0.04-0.279-0.124
				c-0.075-0.082-0.107-0.218-0.103-0.408l-3.014-1.211v0.505c0,0.183-0.036,0.316-0.108,0.396c-0.071,0.077-0.165,0.118-0.28,0.118
				c-0.114,0-0.208-0.04-0.278-0.118c-0.074-0.08-0.109-0.214-0.109-0.396l0.004-1.665l3.785-1.533c0-0.181,0.02-0.299,0.059-0.357
				c0.084-0.115,0.193-0.174,0.328-0.174c0.114,0,0.205,0.04,0.277,0.119c0.072,0.077,0.106,0.208,0.106,0.393v1.037
				c0,0.186-0.036,0.317-0.106,0.396c-0.072,0.079-0.167,0.119-0.281,0.119c-0.113,0-0.203-0.04-0.275-0.119
				s-0.106-0.211-0.106-0.396v-0.188L107.355,92.43z M106.585,92.75l-1.527,0.619l1.527,0.623V92.75z"/>
			<path fill="#FFFFFF" d="M107.825,89.472v-1.688c-0.074-0.093-0.113-0.181-0.113-0.263c0-0.119,0.041-0.213,0.118-0.28
				c0.076-0.069,0.211-0.104,0.398-0.104h0.368v3.511h-0.815c-1.146-1.387-1.882-2.225-2.211-2.514
				c-0.167-0.146-0.327-0.219-0.475-0.219c-0.19,0-0.355,0.083-0.5,0.248c-0.142,0.164-0.214,0.382-0.214,0.655
				c0,0.276,0.081,0.505,0.24,0.688c0.084,0.095,0.212,0.172,0.379,0.23c0.104,0.035,0.18,0.083,0.226,0.145
				c0.044,0.06,0.067,0.135,0.067,0.227c0,0.104-0.038,0.197-0.113,0.273s-0.165,0.114-0.263,0.114c-0.151,0-0.34-0.069-0.565-0.209
				c-0.225-0.138-0.407-0.341-0.54-0.608c-0.136-0.267-0.203-0.557-0.203-0.87c0-0.487,0.147-0.885,0.441-1.194
				c0.293-0.312,0.649-0.467,1.068-0.467c0.212,0,0.409,0.045,0.592,0.135c0.183,0.088,0.433,0.302,0.753,0.641
				C106.719,88.186,107.172,88.703,107.825,89.472z"/>
			<path fill="#FFFFFF" d="M116.593,92.43v1.871l0.469,0.188v-0.188c0-0.185,0.036-0.316,0.108-0.396
				c0.07-0.079,0.165-0.119,0.279-0.119c0.114,0,0.206,0.04,0.278,0.119c0.072,0.079,0.105,0.211,0.105,0.396v1.037
				c0,0.186-0.036,0.317-0.105,0.396c-0.073,0.078-0.167,0.118-0.281,0.118c-0.114,0-0.208-0.04-0.281-0.124
				c-0.072-0.082-0.105-0.218-0.103-0.408l-3.013-1.211v0.505c0,0.183-0.037,0.316-0.107,0.396c-0.072,0.077-0.166,0.118-0.28,0.118
				c-0.115,0-0.208-0.04-0.281-0.118c-0.072-0.08-0.108-0.214-0.108-0.396l0.004-1.665l3.784-1.533c0-0.181,0.023-0.299,0.062-0.357
				c0.083-0.115,0.191-0.174,0.328-0.174c0.113,0,0.203,0.04,0.276,0.119c0.071,0.077,0.105,0.208,0.105,0.393v1.037
				c0,0.186-0.034,0.317-0.105,0.396c-0.074,0.079-0.167,0.119-0.281,0.119c-0.113,0-0.206-0.04-0.277-0.119
				c-0.073-0.079-0.107-0.211-0.107-0.396v-0.188L116.593,92.43z M115.822,92.75l-1.526,0.619l1.526,0.623V92.75z"/>
			<path fill="#FFFFFF" d="M115.257,87.653c0.156-0.228,0.336-0.398,0.54-0.511c0.203-0.113,0.434-0.17,0.687-0.17
				c0.272,0,0.524,0.075,0.756,0.224c0.233,0.15,0.409,0.366,0.527,0.649c0.12,0.283,0.177,0.654,0.177,1.113
				c0,0.597-0.091,1.044-0.277,1.345c-0.105,0.169-0.23,0.252-0.378,0.252c-0.108,0-0.202-0.038-0.278-0.111
				c-0.078-0.073-0.116-0.163-0.116-0.268c0-0.073,0.024-0.149,0.075-0.227c0.075-0.11,0.125-0.214,0.152-0.312
				c0.035-0.151,0.052-0.357,0.052-0.619c0-0.449-0.058-0.774-0.176-0.975c-0.116-0.2-0.281-0.3-0.493-0.3
				c-0.158,0-0.31,0.058-0.456,0.175c-0.148,0.117-0.261,0.271-0.342,0.468c-0.046,0.113-0.077,0.303-0.093,0.571
				c-0.008,0.127-0.048,0.226-0.119,0.296c-0.072,0.069-0.159,0.104-0.265,0.104c-0.111,0-0.204-0.038-0.277-0.113
				c-0.076-0.075-0.113-0.171-0.113-0.285c0-0.256-0.002-0.393-0.005-0.409c-0.01-0.102-0.041-0.201-0.098-0.301
				c-0.055-0.1-0.13-0.181-0.228-0.242c-0.096-0.062-0.195-0.093-0.298-0.093c-0.165,0-0.304,0.073-0.424,0.217
				c-0.119,0.144-0.178,0.361-0.178,0.649c0,0.371,0.105,0.654,0.322,0.85c0.063,0.057,0.104,0.104,0.121,0.139
				c0.027,0.053,0.04,0.111,0.04,0.177c0,0.104-0.035,0.195-0.113,0.271c-0.074,0.074-0.166,0.112-0.277,0.112
				c-0.172,0-0.342-0.117-0.505-0.346c-0.237-0.335-0.357-0.755-0.357-1.258c0-0.476,0.135-0.858,0.405-1.147
				c0.272-0.288,0.598-0.432,0.978-0.432c0.197,0,0.382,0.042,0.554,0.127C114.951,87.357,115.113,87.482,115.257,87.653z"/>
			<path fill="#FFFFFF" d="M125.829,92.43v1.871l0.47,0.188v-0.188c0-0.185,0.036-0.316,0.106-0.396
				c0.072-0.079,0.165-0.119,0.282-0.119c0.113,0,0.204,0.04,0.276,0.119c0.071,0.079,0.106,0.211,0.106,0.396v1.037
				c0,0.186-0.035,0.317-0.106,0.396c-0.072,0.078-0.166,0.118-0.28,0.118s-0.208-0.04-0.28-0.124
				c-0.072-0.082-0.107-0.218-0.104-0.408l-3.013-1.211v0.505c0,0.183-0.037,0.316-0.107,0.396c-0.071,0.077-0.166,0.118-0.28,0.118
				c-0.115,0-0.208-0.04-0.282-0.118c-0.07-0.08-0.105-0.214-0.105-0.396l0.003-1.665l3.784-1.533c0-0.181,0.022-0.299,0.061-0.357
				c0.084-0.115,0.192-0.174,0.329-0.174c0.112,0,0.204,0.04,0.275,0.119c0.073,0.077,0.106,0.208,0.106,0.393v1.037
				c0,0.186-0.036,0.317-0.106,0.396c-0.071,0.079-0.166,0.119-0.28,0.119c-0.112,0-0.204-0.04-0.276-0.119
				c-0.071-0.079-0.104-0.211-0.104-0.396v-0.188L125.829,92.43z M125.059,92.75l-1.527,0.619l1.527,0.623V92.75z"/>
			<path fill="#FFFFFF" d="M122.206,87.623h3.016c0-0.163,0.034-0.283,0.107-0.361c0.068-0.076,0.162-0.116,0.274-0.116
				c0.112,0,0.206,0.04,0.278,0.119c0.074,0.078,0.109,0.199,0.109,0.36h0.309c0-0.164,0.036-0.285,0.108-0.362
				c0.073-0.077,0.167-0.116,0.28-0.116s0.203,0.04,0.275,0.118c0.072,0.079,0.107,0.212,0.107,0.396v1.035
				c0,0.185-0.036,0.318-0.107,0.396s-0.165,0.119-0.279,0.119c-0.113,0-0.205-0.041-0.278-0.119
				c-0.071-0.078-0.106-0.212-0.106-0.396v-0.301h-0.309v2.091h-0.643l-3.142-1.845V87.623L122.206,87.623z M125.221,88.394h-1.895
				l1.895,1.116V88.394z"/>
			<path fill="#FFFFFF" d="M135.066,92.43v1.871l0.47,0.188v-0.188c0-0.185,0.037-0.316,0.105-0.396
				c0.071-0.079,0.166-0.119,0.282-0.119c0.113,0,0.205,0.04,0.277,0.119c0.07,0.079,0.105,0.211,0.105,0.396v1.037
				c0,0.186-0.035,0.317-0.105,0.396c-0.072,0.078-0.167,0.118-0.281,0.118c-0.115,0-0.208-0.04-0.28-0.124
				c-0.073-0.082-0.107-0.218-0.104-0.408l-3.013-1.211v0.505c0,0.183-0.037,0.316-0.107,0.396c-0.071,0.077-0.164,0.118-0.28,0.118
				c-0.115,0-0.208-0.04-0.28-0.118c-0.073-0.08-0.107-0.214-0.107-0.396l0.002-1.665l3.785-1.533c0-0.181,0.022-0.299,0.062-0.357
				c0.083-0.115,0.19-0.174,0.328-0.174c0.112,0,0.203,0.04,0.277,0.119c0.071,0.077,0.106,0.208,0.106,0.393v1.037
				c0,0.186-0.037,0.317-0.106,0.396c-0.074,0.079-0.167,0.119-0.28,0.119c-0.114,0-0.205-0.04-0.277-0.119
				c-0.071-0.079-0.105-0.211-0.105-0.396v-0.188L135.066,92.43z M134.295,92.75l-1.525,0.619l1.525,0.623V92.75z"/>
			<path fill="#FFFFFF" d="M132.213,89.4h0.917c-0.088-0.285-0.135-0.544-0.135-0.777c0-0.473,0.163-0.867,0.484-1.18
				c0.323-0.312,0.741-0.471,1.253-0.471c0.526,0,0.938,0.159,1.238,0.475c0.299,0.318,0.45,0.805,0.45,1.457
				c0,0.576-0.108,1.033-0.328,1.369c-0.125,0.195-0.269,0.293-0.432,0.293c-0.104,0-0.192-0.038-0.269-0.115
				c-0.076-0.074-0.116-0.168-0.116-0.271c0-0.088,0.043-0.184,0.126-0.286c0.084-0.102,0.144-0.21,0.175-0.323
				c0.047-0.161,0.071-0.364,0.071-0.617c0-0.466-0.073-0.785-0.223-0.954c-0.149-0.169-0.377-0.255-0.684-0.255
				c-0.304,0-0.542,0.082-0.714,0.246c-0.173,0.164-0.26,0.376-0.26,0.634c0,0.279,0.091,0.596,0.271,0.952
				c0.042,0.079,0.064,0.15,0.064,0.21c0,0.11-0.041,0.201-0.121,0.276c-0.08,0.076-0.185,0.11-0.31,0.11h-2.228v-2.355
				c0-0.187,0.037-0.318,0.108-0.397c0.07-0.079,0.167-0.118,0.28-0.118c0.112,0,0.205,0.039,0.278,0.118
				c0.07,0.079,0.104,0.211,0.104,0.397L132.213,89.4L132.213,89.4z"/>
		</g>
	</g>
	<rect x="10.824" y="-1.075" fill="#737373" width="5.741" height="5.741"/>
	<rect x="20.105" y="-1.075" fill="#737373" width="5.742" height="5.741"/>
	<rect x="29.341" y="-1.075" fill="#737373" width="5.744" height="5.741"/>
	<rect x="38.578" y="-1.075" fill="#737373" width="5.742" height="5.741"/>
	<rect x="37.965" y="-1.075" fill="#737373" width="5.741" height="5.741"/>
	<rect x="47.842" y="-1.075" fill="#737373" width="5.741" height="5.741"/>
	<rect x="57.558" y="-1.075" fill="#737373" width="5.741" height="5.741"/>
	<rect x="67.231" y="-1.075" fill="#737373" width="5.741" height="5.741"/>
	<rect x="76.893" y="-1.075" fill="#737373" width="5.744" height="5.741"/>
	<rect x="86.378" y="-1.075" fill="#737373" width="5.741" height="5.741"/>
	<rect x="95.372" y="-1.075" fill="#737373" width="5.741" height="5.741"/>
	<rect x="104.597" y="-1.075" fill="#737373" width="5.742" height="5.741"/>
	<rect x="113.783" y="-1.075" fill="#737373" width="5.743" height="5.741"/>
	<rect x="123.02" y="-1.075" fill="#737373" width="5.742" height="5.741"/>
	<rect x="132.312" y="-1.075" fill="#737373" width="5.741" height="5.741"/>
	<rect x="84.502" y="101.007" fill="#737373" width="5.742" height="5.741"/>
	<rect x="93.497" y="101.007" fill="#737373" width="5.74" height="5.741"/>
	<rect x="102.724" y="101.007" fill="#737373" width="5.74" height="5.741"/>
	<rect x="111.906" y="101.007" fill="#737373" width="5.743" height="5.741"/>
	<rect x="121.143" y="101.007" fill="#737373" width="5.743" height="5.741"/>
	<rect x="130.437" y="101.007" fill="#737373" width="5.742" height="5.741"/>
	<rect x="10.922" y="101.007" fill="#737373" width="5.742" height="5.741"/>
	
		<text transform="matrix(-4.371139e-08 -1 1 -4.371139e-08 16.6641 95.8535)" fill="#FFFFFF" font-family="'Courier-Bold'" font-size="8.3058">Start</text>
</g>
</svg>
