<?xml version="1.0" encoding="utf-8"?>
<!-- Generator: Adobe Illustrator 16.0.0, SVG Export Plug-In . SVG Version: 6.00 Build 0)  -->
<!DOCTYPE svg PUBLIC "-//W3C//DTD SVG 1.1//EN" "http://www.w3.org/Graphics/SVG/1.1/DTD/svg11.dtd">
<svg version="1.1" id="Layer_1" xmlns="http://www.w3.org/2000/svg" xmlns:xlink="http://www.w3.org/1999/xlink" x="0px" y="0px"
	 width="22.677px" height="22.678px" viewBox="0 -3.055 22.677 22.678" enable-background="new 0 -3.055 22.677 22.678"
	 xml:space="preserve">
<g id="Your_Icon">
	<path fill="#FFFFFF" d="M12.284,10.354V6.032c1.206-0.428,2.071-1.574,2.071-2.927C14.355,1.391,12.963,0,11.249,0
		S8.142,1.391,8.142,3.106c0,1.353,0.864,2.499,2.071,2.927v4.321H4v6.213h14.497v-6.213H12.284z M7.106,14.497
		c-0.572,0-1.036-0.464-1.036-1.036c0-0.571,0.463-1.035,1.036-1.035c0.572,0,1.035,0.464,1.035,1.035
		C8.142,14.033,7.678,14.497,7.106,14.497z"/>
</g>
</svg>
