<?xml version="1.0" encoding="utf-8"?>
<!-- Generator: Adobe Illustrator 16.0.0, SVG Export Plug-In . SVG Version: 6.00 Build 0)  -->
<!DOCTYPE svg PUBLIC "-//W3C//DTD SVG 1.1//EN" "http://www.w3.org/Graphics/SVG/1.1/DTD/svg11.dtd">
<svg version="1.1" id="Layer_1" xmlns="http://www.w3.org/2000/svg" xmlns:xlink="http://www.w3.org/1999/xlink" x="0px" y="0px"
	 width="164.854px" height="126.132px" viewBox="0 0 164.854 126.132" enable-background="new 0 0 164.854 126.132"
	 xml:space="preserve">
<g>
	<path fill="#84A2CD" d="M164.704,118.401c0,4.269-3.461,7.729-7.731,7.729H7.729c-4.266,0-7.729-3.463-7.729-7.729V7.732
		C0,3.46,3.463,0,7.729,0h149.243c4.271,0,7.731,3.46,7.731,7.732L164.704,118.401L164.704,118.401z"/>
	<path fill="#9EB6DD" d="M0,36.092v82.31c0,4.268,3.463,7.73,7.729,7.73h149.243c4.271,0,7.729-3.463,7.729-7.73v-82.31H0z"/>
	<g>
		<g>
			<path fill="#1B446B" d="M23.948,57.835c0.433,0,0.708,0.041,0.829,0.122c0.12,0.082,0.182,0.234,0.182,0.458
				c0,0.23-0.062,0.389-0.182,0.476c-0.121,0.087-0.396,0.13-0.829,0.13h-5.11h-0.396c-0.202,0-0.355-0.05-0.463-0.151
				c-0.106-0.101-0.16-0.253-0.16-0.455c0-0.224,0.062-0.377,0.187-0.458c0.123-0.082,0.4-0.122,0.833-0.122h1.903v-7.586h-1.903
				c-0.421,0-0.695-0.043-0.825-0.131c-0.129-0.087-0.193-0.245-0.193-0.476c0-0.208,0.055-0.36,0.16-0.459
				c0.106-0.098,0.268-0.147,0.479-0.147h0.379h5.11h0.396c0.202,0,0.354,0.05,0.459,0.151c0.104,0.101,0.155,0.252,0.155,0.455
				c0,0.23-0.063,0.389-0.189,0.476s-0.398,0.131-0.819,0.131h-1.903v7.586H23.948z"/>
			<path fill="#1B446B" d="M28.604,57.835v-5.397h-0.159c-0.382,0-0.645-0.045-0.788-0.135c-0.143-0.09-0.214-0.247-0.214-0.472
				c0-0.208,0.06-0.357,0.178-0.45c0.116-0.093,0.309-0.139,0.571-0.139h0.396h0.809c0.151,0,0.271,0.031,0.354,0.093
				s0.126,0.146,0.126,0.252v0.573c0.41-0.382,0.814-0.664,1.217-0.846c0.401-0.182,0.818-0.273,1.25-0.273
				c0.848,0,1.515,0.264,2,0.791c0.485,0.528,0.729,1.258,0.729,2.189v3.814h0.396c0.28,0,0.482,0.046,0.606,0.139
				c0.122,0.093,0.185,0.24,0.185,0.442c0,0.219-0.065,0.375-0.197,0.467c-0.132,0.093-0.366,0.139-0.703,0.139H33.5
				c-0.359,0-0.59-0.042-0.69-0.126c-0.102-0.084-0.151-0.244-0.151-0.48c0-0.219,0.06-0.37,0.177-0.455
				c0.118-0.084,0.34-0.126,0.666-0.126h0.294v-3.502c0-0.657-0.148-1.158-0.446-1.503c-0.297-0.345-0.729-0.518-1.296-0.518
				c-0.573,0-1.078,0.194-1.516,0.581c-0.438,0.387-0.657,0.867-0.657,1.44v3.502h0.295c0.337,0,0.563,0.042,0.682,0.126
				s0.178,0.236,0.178,0.455c0,0.236-0.051,0.396-0.151,0.48c-0.102,0.084-0.348,0.126-0.74,0.126H28.61h-0.46
				c-0.229,0-0.402-0.049-0.518-0.147s-0.173-0.251-0.173-0.459c0-0.224,0.064-0.377,0.196-0.458
				c0.133-0.081,0.39-0.122,0.771-0.122L28.604,57.835L28.604,57.835z"/>
		</g>
	</g>
	<g>
		<g>
			<path fill="#1B446B" d="M128.84,54.021c0,1.538-0.426,2.799-1.279,3.784c-0.854,0.985-1.942,1.478-3.272,1.478
				c-1.319,0-2.408-0.494-3.265-1.482c-0.854-0.988-1.284-2.248-1.284-3.78c0-1.549,0.426-2.813,1.271-3.793
				s1.938-1.469,3.274-1.469c1.329,0,2.422,0.494,3.273,1.481C128.415,51.229,128.84,52.488,128.84,54.021z M124.286,58.087
				c0.941,0,1.686-0.36,2.228-1.082c0.542-0.721,0.812-1.716,0.812-2.984s-0.271-2.264-0.812-2.985
				c-0.541-0.721-1.284-1.082-2.228-1.082c-0.949,0-1.69,0.358-2.229,1.074c-0.536,0.715-0.804,1.713-0.804,2.993
				c0,1.269,0.271,2.263,0.812,2.984C122.608,57.727,123.349,58.087,124.286,58.087z"/>
			<path fill="#1B446B" d="M132.538,55.915c0,0.708,0.146,1.224,0.444,1.549c0.297,0.326,0.771,0.488,1.414,0.488
				c0.612,0,1.138-0.193,1.57-0.581c0.435-0.387,0.652-0.873,0.652-1.457v-3.477h-1.154c-0.219,0-0.377-0.046-0.477-0.139
				c-0.099-0.092-0.146-0.237-0.146-0.434c0-0.213,0.054-0.37,0.159-0.471s0.276-0.152,0.515-0.152h1.793
				c0.214,0,0.362,0.046,0.451,0.139c0.087,0.093,0.13,0.318,0.13,0.678v5.776h0.388c0.274,0,0.475,0.045,0.596,0.135
				c0.119,0.09,0.181,0.238,0.181,0.446c0,0.202-0.058,0.354-0.173,0.455c-0.115,0.101-0.282,0.151-0.502,0.151h-1.278
				c-0.15,0-0.271-0.031-0.354-0.093c-0.084-0.062-0.127-0.146-0.127-0.252v-0.572c-0.537,0.415-1,0.7-1.386,0.854
				c-0.385,0.154-0.79,0.231-1.217,0.231c-0.926,0-1.62-0.246-2.084-0.737c-0.463-0.491-0.693-1.233-0.693-2.227v-3.789h-0.178
				c-0.382,0-0.643-0.045-0.783-0.135c-0.14-0.09-0.21-0.247-0.21-0.472c0-0.196,0.057-0.344,0.164-0.442
				c0.109-0.098,0.279-0.146,0.51-0.146h1.271c0.195,0,0.333,0.04,0.408,0.118c0.076,0.079,0.113,0.252,0.113,0.522v4.035
				L132.538,55.915L132.538,55.915z"/>
			<path fill="#1B446B" d="M146.974,51.714c0.274,0,0.477,0.048,0.604,0.143c0.127,0.096,0.188,0.247,0.188,0.455
				c0,0.197-0.061,0.344-0.178,0.442c-0.117,0.098-0.295,0.147-0.529,0.147h-3.41v2.812c0,0.921,0.119,1.527,0.357,1.819
				s0.646,0.438,1.226,0.438c0.512,0,1.122-0.147,1.835-0.446c0.713-0.297,1.153-0.446,1.322-0.446c0.156,0,0.29,0.056,0.398,0.168
				c0.108,0.112,0.164,0.25,0.164,0.413c0,0.185-0.067,0.347-0.205,0.484c-0.14,0.138-0.373,0.271-0.703,0.4
				c-0.551,0.219-1.045,0.379-1.485,0.48c-0.439,0.101-0.854,0.151-1.242,0.151c-0.656,0-1.208-0.105-1.652-0.315
				c-0.447-0.21-0.779-0.523-0.998-0.939c-0.112-0.196-0.192-0.429-0.24-0.699c-0.049-0.27-0.071-0.685-0.071-1.246v-0.261v-2.812
				h-1.433c-0.234,0-0.405-0.046-0.514-0.139c-0.105-0.093-0.158-0.243-0.158-0.451c0-0.23,0.07-0.387,0.219-0.471
				c0.146-0.084,0.457-0.126,0.935-0.126h0.951v-1.726v-0.446c0-0.241,0.052-0.419,0.155-0.535c0.104-0.115,0.266-0.172,0.482-0.172
				c0.247,0,0.42,0.07,0.516,0.21c0.096,0.14,0.144,0.46,0.144,0.96v1.709L146.974,51.714L146.974,51.714z"/>
		</g>
	</g>
	<rect x="0" y="48.702" fill="#1B446B" width="11.496" height="11.494"/>
	<rect x="153.358" y="48.702" fill="#1B446B" width="11.496" height="11.494"/>
	<g>
		<g>
			<path fill="#1B446B" d="M23.905,84.233c0.23,0,0.405,0.052,0.526,0.151c0.12,0.104,0.181,0.25,0.181,0.445
				c0,0.203-0.058,0.354-0.172,0.455s-0.281,0.151-0.501,0.151h-5.507c-0.229,0-0.405-0.052-0.526-0.151
				c-0.119-0.102-0.181-0.252-0.181-0.455c0-0.195,0.059-0.345,0.173-0.445c0.114-0.102,0.281-0.151,0.501-0.151h1.432v-5.144
				h-1.382c-0.229,0-0.407-0.053-0.533-0.16c-0.126-0.105-0.189-0.258-0.189-0.453c0-0.203,0.06-0.354,0.177-0.455
				c0.118-0.102,0.289-0.152,0.515-0.152h1.33v-0.572c0-1.016,0.289-1.752,0.866-2.209c0.578-0.457,1.514-0.688,2.805-0.688
				c0.629,0,1.093,0.07,1.394,0.211c0.3,0.141,0.45,0.359,0.45,0.656c0,0.175-0.064,0.318-0.193,0.43
				c-0.129,0.113-0.295,0.17-0.497,0.17c-0.101,0-0.344-0.035-0.729-0.102c-0.384-0.068-0.714-0.102-0.989-0.102
				c-0.634,0-1.089,0.133-1.362,0.398c-0.275,0.268-0.413,0.708-0.413,1.326v0.479h2.979c0.23,0,0.405,0.051,0.526,0.151
				s0.181,0.252,0.181,0.455c0,0.19-0.062,0.34-0.185,0.448c-0.124,0.111-0.292,0.166-0.507,0.166H21.16v5.144h2.744V84.233z"/>
			<path fill="#1B446B" d="M30.835,84.251h2.795c0.219,0,0.38,0.047,0.483,0.139c0.104,0.093,0.155,0.24,0.155,0.441
				c0,0.229-0.049,0.389-0.146,0.477c-0.099,0.087-0.279,0.131-0.543,0.131h-5.507c-0.219,0-0.385-0.051-0.496-0.152
				c-0.112-0.101-0.168-0.252-0.168-0.455c0-0.195,0.058-0.342,0.172-0.438s0.294-0.143,0.534-0.143h1.466v-5.396h-0.572
				c-0.545,0-0.884-0.044-1.02-0.131c-0.135-0.088-0.201-0.246-0.201-0.477c0-0.195,0.055-0.346,0.164-0.441
				c0.108-0.098,0.275-0.146,0.501-0.146h1.92c0.15,0,0.266,0.029,0.345,0.088c0.078,0.061,0.118,0.146,0.118,0.256v1.434
				c0.533-0.668,1.089-1.164,1.667-1.488c0.578-0.326,1.201-0.488,1.869-0.488c0.499,0,0.902,0.102,1.212,0.303
				c0.309,0.203,0.463,0.464,0.463,0.783c0,0.207-0.077,0.393-0.231,0.551c-0.153,0.16-0.323,0.24-0.509,0.24
				c-0.13,0-0.347-0.084-0.652-0.256c-0.307-0.172-0.58-0.258-0.82-0.258c-0.438,0-0.899,0.154-1.386,0.469
				c-0.484,0.311-1.022,0.803-1.611,1.477L30.835,84.251L30.835,84.251z"/>
			<path fill="#1B446B" d="M46.428,81.557c0,1.2-0.41,2.185-1.229,2.946c-0.818,0.764-1.883,1.146-3.188,1.146
				c-1.303,0-2.363-0.382-3.183-1.146c-0.82-0.764-1.229-1.746-1.229-2.946c0-1.201,0.409-2.183,1.229-2.942
				c0.818-0.761,1.88-1.141,3.183-1.141c1.302,0,2.364,0.381,3.187,1.145S46.428,80.36,46.428,81.557z M42.008,84.47
				c0.864,0,1.572-0.273,2.126-0.82c0.553-0.548,0.829-1.244,0.829-2.093s-0.278-1.548-0.834-2.101
				c-0.557-0.555-1.264-0.83-2.121-0.83c-0.859,0-1.565,0.275-2.118,0.83c-0.553,0.553-0.829,1.252-0.829,2.101
				c0,0.853,0.275,1.552,0.825,2.097S41.143,84.47,42.008,84.47z"/>
			<path fill="#1B446B" d="M55.462,80.75c0-0.793-0.071-1.326-0.213-1.604c-0.144-0.277-0.387-0.417-0.731-0.417
				c-0.412,0-0.74,0.181-0.981,0.539c-0.242,0.358-0.363,0.854-0.363,1.481v3.502h0.15c0.344,0,0.571,0.041,0.688,0.121
				c0.114,0.082,0.172,0.234,0.172,0.459c0,0.203-0.047,0.354-0.143,0.455c-0.097,0.102-0.241,0.151-0.438,0.151h-1.068
				c-0.242,0-0.406-0.058-0.493-0.169s-0.13-0.354-0.13-0.725V84.3v-3.553v-0.656c0-0.422-0.096-0.754-0.284-0.998
				c-0.189-0.244-0.449-0.366-0.777-0.366c-0.251,0-0.48,0.073-0.688,0.224c-0.209,0.148-0.39,0.368-0.539,0.662v4.639h0.312
				c0.336,0,0.563,0.041,0.683,0.125c0.117,0.086,0.177,0.236,0.177,0.455c0,0.229-0.048,0.391-0.145,0.478
				c-0.095,0.087-0.276,0.131-0.547,0.131h-2.253c-0.22,0-0.382-0.049-0.486-0.147c-0.104-0.099-0.156-0.25-0.156-0.459
				c0-0.225,0.065-0.377,0.197-0.457c0.133-0.082,0.39-0.123,0.771-0.123h0.168v-5.396h-0.151c-0.393,0-0.661-0.045-0.804-0.137
				c-0.144-0.09-0.215-0.246-0.215-0.473c0-0.195,0.057-0.344,0.169-0.439c0.113-0.1,0.282-0.146,0.508-0.146h1.295
				c0.188,0,0.312,0.031,0.371,0.098c0.062,0.064,0.096,0.201,0.107,0.408c0.229-0.246,0.475-0.431,0.735-0.547
				c0.264-0.117,0.56-0.179,0.889-0.179c0.391,0,0.714,0.085,0.968,0.259c0.254,0.172,0.441,0.43,0.564,0.777
				c0.235-0.354,0.509-0.613,0.816-0.783c0.308-0.168,0.662-0.253,1.061-0.253c0.726,0,1.254,0.233,1.588,0.708
				c0.334,0.473,0.501,1.232,0.501,2.289v3.812h0.135c0.349,0,0.581,0.043,0.699,0.127c0.117,0.084,0.177,0.234,0.177,0.453
				c0,0.203-0.051,0.354-0.151,0.455c-0.102,0.104-0.25,0.152-0.445,0.152h-1.027c-0.229,0-0.396-0.068-0.503-0.203
				c-0.108-0.135-0.162-0.348-0.162-0.639V80.75H55.462z"/>
			<path fill="#1B446B" d="M60.823,84.251h0.572c0.326,0,0.557,0.045,0.69,0.135s0.202,0.238,0.202,0.445
				c0,0.225-0.06,0.383-0.178,0.473c-0.117,0.09-0.34,0.135-0.665,0.135h-2.828c-0.19,0-0.338-0.053-0.438-0.156
				c-0.102-0.104-0.151-0.254-0.151-0.451c0-0.207,0.057-0.354,0.168-0.445c0.112-0.09,0.299-0.135,0.557-0.135h0.277h0.488v-7.662
				H59.03c-0.421,0-0.692-0.039-0.816-0.115c-0.123-0.079-0.186-0.229-0.186-0.447c0-0.188,0.05-0.334,0.147-0.429
				c0.098-0.097,0.245-0.146,0.44-0.146h3.554c0.858,0,1.5,0.041,1.924,0.123s0.782,0.221,1.074,0.416
				c0.376,0.254,0.672,0.588,0.888,1.002c0.216,0.416,0.324,0.861,0.324,1.34c0,0.646-0.197,1.199-0.594,1.662
				s-0.947,0.785-1.654,0.965c0.146,0.084,0.275,0.184,0.392,0.293c0.115,0.113,0.227,0.248,0.333,0.404l1.692,2.594h0.277
				c0.313,0,0.529,0.043,0.647,0.131c0.118,0.086,0.177,0.236,0.177,0.449c0,0.197-0.049,0.35-0.146,0.451
				c-0.099,0.104-0.242,0.156-0.435,0.156H66.12c-0.275,0-0.545-0.203-0.81-0.607c-0.033-0.033-0.059-0.061-0.075-0.084
				l-1.616-2.449c-0.331-0.5-0.604-0.82-0.82-0.969c-0.217-0.146-0.501-0.219-0.854-0.219h-1.119v3.141H60.823L60.823,84.251z
				 M60.823,76.589v3.402h1.743c0.785,0,1.376-0.145,1.772-0.428c0.396-0.281,0.593-0.705,0.593-1.27s-0.193-0.992-0.581-1.277
				c-0.387-0.286-0.965-0.432-1.733-0.432h-1.794V76.589z"/>
			<path fill="#1B446B" d="M74.986,84.369c-0.461,0.416-0.962,0.731-1.503,0.951c-0.542,0.219-1.099,0.328-1.672,0.328
				c-0.836,0-1.511-0.232-2.023-0.697c-0.515-0.468-0.771-1.072-0.771-1.82c0-0.887,0.341-1.572,1.022-2.062
				c0.683-0.487,1.641-0.731,2.876-0.731c0.324,0,0.652,0.021,0.983,0.062s0.671,0.107,1.021,0.197v-0.059
				c0-0.646-0.155-1.123-0.464-1.434c-0.31-0.311-0.788-0.463-1.439-0.463c-0.438,0-0.926,0.115-1.465,0.354
				c-0.539,0.236-0.896,0.354-1.069,0.354c-0.163,0-0.298-0.065-0.403-0.197c-0.106-0.133-0.16-0.303-0.16-0.51
				c0-0.331,0.311-0.61,0.931-0.843c0.62-0.23,1.413-0.346,2.379-0.346c0.987,0,1.734,0.252,2.239,0.754s0.758,1.244,0.758,2.228
				v3.813h0.412c0.398,0,0.665,0.041,0.8,0.125c0.135,0.086,0.202,0.236,0.202,0.455c0,0.203-0.056,0.354-0.168,0.455
				c-0.112,0.102-0.281,0.151-0.505,0.151h-1.322c-0.157,0-0.286-0.05-0.388-0.144c-0.102-0.096-0.168-0.233-0.201-0.414
				L74.986,84.369z M74.919,81.716c-0.311-0.1-0.608-0.176-0.897-0.223s-0.576-0.072-0.861-0.072c-0.864,0-1.548,0.146-2.047,0.438
				c-0.5,0.291-0.75,0.686-0.75,1.18c0,0.383,0.156,0.694,0.469,0.941c0.312,0.247,0.708,0.371,1.19,0.371
				c0.713,0,1.373-0.188,1.982-0.562c0.608-0.373,0.914-0.762,0.914-1.166V81.716z"/>
			<path fill="#1B446B" d="M80.265,84.251v-5.396h-0.159c-0.382,0-0.645-0.045-0.788-0.135c-0.143-0.09-0.214-0.248-0.214-0.473
				c0-0.207,0.06-0.357,0.177-0.449c0.117-0.094,0.31-0.141,0.572-0.141h0.396h0.809c0.151,0,0.271,0.03,0.354,0.094
				c0.084,0.062,0.126,0.146,0.126,0.252v0.572c0.409-0.383,0.814-0.662,1.217-0.848c0.4-0.184,0.817-0.271,1.25-0.271
				c0.848,0,1.515,0.264,2,0.791c0.484,0.526,0.729,1.258,0.729,2.188v3.812h0.396c0.28,0,0.481,0.047,0.605,0.141
				c0.123,0.093,0.186,0.238,0.186,0.439c0,0.221-0.065,0.375-0.197,0.469s-0.366,0.141-0.703,0.141h-1.859
				c-0.359,0-0.591-0.043-0.69-0.127c-0.102-0.084-0.152-0.244-0.152-0.479c0-0.219,0.061-0.369,0.178-0.455
				c0.117-0.084,0.34-0.125,0.666-0.125h0.294V80.75c0-0.658-0.148-1.158-0.446-1.504c-0.297-0.346-0.729-0.519-1.296-0.519
				c-0.573,0-1.078,0.192-1.517,0.581c-0.438,0.389-0.656,0.867-0.656,1.439v3.502h0.295c0.337,0,0.563,0.043,0.682,0.127
				s0.177,0.233,0.177,0.453c0,0.235-0.05,0.396-0.15,0.479c-0.102,0.084-0.349,0.127-0.74,0.127h-1.533h-0.454
				c-0.229,0-0.402-0.05-0.518-0.147c-0.115-0.099-0.173-0.25-0.173-0.459c0-0.225,0.064-0.377,0.196-0.457
				c0.133-0.082,0.39-0.123,0.771-0.123h0.171V84.251z"/>
			<path fill="#1B446B" d="M97.163,84.992c0,0.785-0.039,1.344-0.118,1.672c-0.078,0.328-0.213,0.614-0.404,0.862
				c-0.313,0.415-0.755,0.729-1.321,0.947c-0.566,0.216-1.234,0.323-2.004,0.323c-0.64,0-1.106-0.062-1.401-0.187
				c-0.294-0.123-0.441-0.319-0.441-0.59c0-0.175,0.071-0.326,0.215-0.459c0.144-0.131,0.312-0.196,0.509-0.196
				c0.151,0,0.386,0.02,0.699,0.061c0.314,0.043,0.553,0.062,0.716,0.062c0.83,0,1.42-0.189,1.769-0.572
				c0.349-0.381,0.521-1.035,0.521-1.961v-1.02c-0.343,0.398-0.722,0.689-1.137,0.876c-0.416,0.185-0.893,0.276-1.432,0.276
				c-1.05,0-1.918-0.35-2.605-1.049c-0.688-0.697-1.031-1.584-1.031-2.656c0-1.076,0.354-1.971,1.062-2.682
				c0.707-0.709,1.583-1.064,2.627-1.064c0.432,0,0.854,0.08,1.267,0.24s0.83,0.401,1.251,0.729V78c0-0.117,0.038-0.205,0.113-0.26
				c0.076-0.059,0.195-0.087,0.358-0.087h1.271c0.226,0,0.395,0.052,0.506,0.146c0.112,0.099,0.168,0.246,0.168,0.441
				c0,0.225-0.069,0.383-0.21,0.473c-0.141,0.092-0.403,0.137-0.792,0.137h-0.15v6.141h-0.003V84.992z M93.509,78.904
				c-0.735,0-1.336,0.229-1.802,0.684c-0.467,0.453-0.698,1.043-0.698,1.769c0,0.713,0.232,1.3,0.698,1.756
				c0.466,0.457,1.065,0.687,1.802,0.687c0.729,0,1.329-0.229,1.798-0.687c0.469-0.456,0.703-1.043,0.703-1.756
				s-0.234-1.299-0.703-1.761C94.838,79.134,94.238,78.904,93.509,78.904z"/>
			<path fill="#1B446B" d="M101.247,81.919c0.044,0.809,0.317,1.433,0.819,1.873c0.502,0.439,1.188,0.66,2.06,0.66
				c0.657,0,1.372-0.177,2.146-0.525c0.774-0.352,1.243-0.526,1.405-0.526c0.169,0,0.309,0.054,0.421,0.16s0.169,0.239,0.169,0.396
				c0,0.164-0.059,0.312-0.177,0.446s-0.306,0.267-0.564,0.396c-0.562,0.275-1.141,0.486-1.737,0.634
				c-0.598,0.147-1.191,0.219-1.781,0.219c-1.279,0-2.304-0.368-3.072-1.104c-0.77-0.738-1.154-1.717-1.154-2.938
				c0-1.238,0.407-2.242,1.223-3.016c0.812-0.768,1.874-1.151,3.182-1.151c1.186,0,2.167,0.358,2.947,1.077
				c0.78,0.721,1.17,1.589,1.17,2.609c0,0.313-0.065,0.525-0.197,0.631c-0.132,0.107-0.49,0.16-1.072,0.16h-0.128H101.247
				L101.247,81.919z M101.289,80.815h5.479c-0.084-0.668-0.363-1.205-0.838-1.61c-0.474-0.408-1.057-0.611-1.747-0.611
				c-0.746,0-1.375,0.197-1.886,0.591C101.787,79.576,101.451,80.121,101.289,80.815z"/>
		</g>
	</g>
	<rect x="-0.077" y="75.119" fill="#1B446B" width="11.496" height="11.494"/>
	<g>
		<g>
			<path fill="#1B446B" d="M23.497,102.13c0.274,0,0.476,0.047,0.603,0.143c0.126,0.096,0.189,0.248,0.189,0.455
				c0,0.197-0.061,0.344-0.178,0.441c-0.117,0.1-0.295,0.146-0.529,0.146h-3.41v2.812c0,0.922,0.119,1.527,0.356,1.82
				c0.238,0.291,0.647,0.438,1.227,0.438c0.511,0,1.122-0.148,1.835-0.446s1.153-0.446,1.322-0.446c0.156,0,0.29,0.057,0.398,0.168
				c0.109,0.113,0.164,0.25,0.164,0.414c0,0.184-0.068,0.346-0.206,0.482c-0.138,0.139-0.372,0.271-0.703,0.4
				c-0.55,0.219-1.045,0.379-1.484,0.479c-0.441,0.102-0.855,0.148-1.242,0.148c-0.657,0-1.208-0.104-1.654-0.312
				c-0.446-0.211-0.779-0.521-0.998-0.938c-0.111-0.196-0.191-0.43-0.24-0.699c-0.048-0.27-0.07-0.684-0.07-1.246v-0.262v-2.812
				h-1.433c-0.234,0-0.405-0.047-0.513-0.141s-0.16-0.241-0.16-0.449c0-0.229,0.072-0.389,0.219-0.473
				c0.147-0.084,0.457-0.127,0.936-0.127h0.951V100.4v-0.445c0-0.242,0.052-0.42,0.155-0.535c0.104-0.113,0.266-0.172,0.483-0.172
				c0.247,0,0.418,0.07,0.514,0.211c0.097,0.141,0.145,0.459,0.145,0.959v1.709h3.324V102.13z"/>
			<path fill="#1B446B" d="M35.966,105.557c0,1.2-0.41,2.185-1.229,2.946c-0.818,0.764-1.883,1.146-3.189,1.146
				c-1.303,0-2.363-0.382-3.184-1.146c-0.819-0.764-1.229-1.746-1.229-2.946c0-1.201,0.409-2.183,1.229-2.942
				c0.819-0.761,1.881-1.141,3.184-1.141c1.302,0,2.364,0.381,3.187,1.145C35.557,103.382,35.966,104.36,35.966,105.557z
				 M31.546,108.47c0.864,0,1.572-0.273,2.126-0.82c0.553-0.548,0.829-1.244,0.829-2.093s-0.278-1.548-0.834-2.101
				c-0.557-0.555-1.264-0.83-2.121-0.83c-0.859,0-1.565,0.275-2.118,0.83c-0.553,0.553-0.829,1.252-0.829,2.101
				c0,0.853,0.275,1.552,0.825,2.097S30.681,108.47,31.546,108.47z"/>
			<path fill="#1B446B" d="M40.016,108.251h0.572c0.326,0,0.556,0.045,0.689,0.135c0.135,0.09,0.202,0.238,0.202,0.445
				c0,0.225-0.059,0.383-0.177,0.473s-0.34,0.135-0.665,0.135H37.81c-0.189,0-0.337-0.053-0.438-0.156
				c-0.103-0.104-0.151-0.254-0.151-0.451c0-0.207,0.056-0.354,0.168-0.445c0.112-0.09,0.298-0.135,0.556-0.135h0.278h0.488v-7.662
				h-0.488c-0.421,0-0.693-0.039-0.817-0.115c-0.122-0.079-0.185-0.229-0.185-0.447c0-0.188,0.049-0.334,0.147-0.429
				c0.098-0.097,0.244-0.146,0.44-0.146h3.553c0.859,0,1.5,0.041,1.925,0.123c0.424,0.082,0.781,0.221,1.073,0.416
				c0.376,0.254,0.672,0.588,0.889,1.002c0.216,0.416,0.323,0.861,0.323,1.34c0,0.646-0.196,1.199-0.594,1.662
				c-0.396,0.463-0.947,0.785-1.654,0.965c0.146,0.084,0.276,0.184,0.393,0.293c0.115,0.113,0.226,0.248,0.333,0.404l1.692,2.594
				h0.276c0.314,0,0.53,0.043,0.648,0.131c0.118,0.086,0.177,0.236,0.177,0.449c0,0.197-0.049,0.35-0.147,0.451
				c-0.098,0.104-0.241,0.156-0.434,0.156h-0.951c-0.274,0-0.545-0.203-0.809-0.607c-0.033-0.033-0.06-0.061-0.075-0.084
				l-1.617-2.449c-0.331-0.5-0.604-0.82-0.82-0.969c-0.217-0.146-0.501-0.219-0.854-0.219h-1.12V108.251z M40.016,100.589v3.402
				h1.743c0.785,0,1.376-0.145,1.771-0.428c0.396-0.281,0.594-0.705,0.594-1.27s-0.193-0.992-0.581-1.277
				c-0.388-0.286-0.965-0.432-1.734-0.432h-1.793V100.589z"/>
			<path fill="#1B446B" d="M54.178,108.369c-0.461,0.416-0.962,0.731-1.503,0.951c-0.542,0.219-1.099,0.328-1.672,0.328
				c-0.836,0-1.511-0.232-2.024-0.697c-0.514-0.468-0.771-1.072-0.771-1.82c0-0.887,0.341-1.572,1.021-2.062
				c0.684-0.487,1.642-0.731,2.876-0.731c0.325,0,0.653,0.021,0.984,0.062s0.671,0.107,1.02,0.197v-0.059
				c0-0.646-0.154-1.123-0.464-1.434c-0.309-0.311-0.788-0.463-1.438-0.463c-0.438,0-0.927,0.115-1.465,0.354
				c-0.539,0.236-0.896,0.354-1.069,0.354c-0.163,0-0.298-0.065-0.404-0.197c-0.105-0.133-0.16-0.303-0.16-0.51
				c0-0.331,0.312-0.61,0.932-0.843c0.62-0.23,1.413-0.346,2.379-0.346c0.986,0,1.733,0.252,2.239,0.754
				c0.505,0.502,0.758,1.244,0.758,2.228v3.813h0.412c0.397,0,0.665,0.041,0.8,0.125c0.135,0.086,0.202,0.236,0.202,0.455
				c0,0.203-0.057,0.354-0.168,0.455c-0.112,0.102-0.281,0.151-0.506,0.151h-1.321c-0.157,0-0.286-0.05-0.389-0.144
				c-0.101-0.096-0.168-0.233-0.2-0.414L54.178,108.369z M54.111,105.716c-0.31-0.1-0.607-0.176-0.896-0.223
				s-0.576-0.072-0.862-0.072c-0.864,0-1.547,0.146-2.046,0.438c-0.5,0.291-0.75,0.686-0.75,1.18c0,0.383,0.156,0.694,0.468,0.941
				c0.312,0.247,0.708,0.371,1.191,0.371c0.713,0,1.373-0.188,1.981-0.562c0.609-0.373,0.914-0.762,0.914-1.166V105.716z"/>
			<path fill="#1B446B" d="M59.456,108.251v-5.396h-0.159c-0.382,0-0.646-0.045-0.788-0.135s-0.214-0.248-0.214-0.473
				c0-0.207,0.059-0.357,0.177-0.449c0.117-0.094,0.309-0.141,0.572-0.141h0.396h0.81c0.15,0,0.27,0.03,0.354,0.094
				c0.084,0.062,0.126,0.146,0.126,0.252v0.572c0.41-0.383,0.815-0.662,1.217-0.848c0.401-0.184,0.818-0.271,1.25-0.271
				c0.849,0,1.516,0.264,2,0.791c0.485,0.526,0.729,1.258,0.729,2.188v3.812h0.396c0.28,0,0.482,0.047,0.606,0.141
				c0.123,0.093,0.185,0.238,0.185,0.439c0,0.221-0.064,0.375-0.196,0.469s-0.366,0.141-0.703,0.141h-1.86
				c-0.358,0-0.59-0.043-0.689-0.127c-0.103-0.084-0.152-0.244-0.152-0.479c0-0.219,0.06-0.369,0.177-0.455
				c0.118-0.084,0.34-0.125,0.666-0.125h0.294v-3.502c0-0.658-0.147-1.158-0.445-1.504c-0.298-0.347-0.729-0.52-1.297-0.52
				c-0.572,0-1.077,0.191-1.516,0.581c-0.438,0.39-0.657,0.866-0.657,1.438v3.502h0.295c0.337,0,0.564,0.043,0.683,0.127
				s0.177,0.234,0.177,0.453c0,0.236-0.05,0.396-0.151,0.48c-0.101,0.084-0.348,0.127-0.739,0.127h-1.533h-0.454
				c-0.23,0-0.403-0.049-0.519-0.148c-0.114-0.098-0.173-0.25-0.173-0.459c0-0.224,0.065-0.377,0.197-0.457
				c0.132-0.082,0.389-0.123,0.771-0.123h0.171V108.251z"/>
			<path fill="#1B446B" d="M76.354,108.992c0,0.785-0.039,1.344-0.118,1.672c-0.077,0.328-0.213,0.614-0.403,0.862
				c-0.314,0.415-0.755,0.729-1.321,0.947c-0.567,0.216-1.235,0.323-2.004,0.323c-0.64,0-1.107-0.062-1.402-0.187
				c-0.294-0.123-0.44-0.319-0.44-0.59c0-0.175,0.07-0.326,0.215-0.459c0.143-0.131,0.312-0.196,0.509-0.196
				c0.151,0,0.385,0.02,0.699,0.061c0.313,0.043,0.553,0.062,0.716,0.062c0.83,0,1.42-0.189,1.768-0.572
				c0.35-0.381,0.522-1.035,0.522-1.961v-1.02c-0.343,0.398-0.722,0.689-1.137,0.876c-0.416,0.185-0.894,0.276-1.433,0.276
				c-1.05,0-1.918-0.35-2.604-1.049c-0.688-0.697-1.031-1.584-1.031-2.656c0-1.076,0.354-1.971,1.061-2.682
				c0.707-0.709,1.583-1.064,2.628-1.064c0.432,0,0.854,0.08,1.267,0.24s0.83,0.401,1.251,0.729V102c0-0.117,0.038-0.205,0.113-0.26
				c0.075-0.059,0.194-0.087,0.357-0.087h1.271c0.225,0,0.394,0.052,0.506,0.146c0.112,0.099,0.168,0.246,0.168,0.441
				c0,0.225-0.07,0.383-0.21,0.473c-0.141,0.092-0.404,0.137-0.792,0.137h-0.151v6.141h-0.003V108.992z M72.7,102.904
				c-0.735,0-1.337,0.229-1.803,0.684c-0.466,0.453-0.697,1.043-0.697,1.769c0,0.713,0.231,1.3,0.697,1.756
				c0.466,0.457,1.066,0.687,1.803,0.687c0.729,0,1.328-0.229,1.798-0.687c0.469-0.456,0.703-1.043,0.703-1.756
				s-0.234-1.299-0.703-1.761C74.029,103.134,73.429,102.904,72.7,102.904z"/>
			<path fill="#1B446B" d="M80.438,105.919c0.044,0.809,0.318,1.433,0.82,1.873c0.502,0.439,1.188,0.66,2.059,0.66
				c0.657,0,1.372-0.177,2.147-0.525c0.773-0.352,1.243-0.526,1.405-0.526c0.169,0,0.309,0.054,0.421,0.16
				c0.111,0.106,0.169,0.239,0.169,0.396c0,0.164-0.06,0.312-0.178,0.446c-0.117,0.134-0.306,0.267-0.562,0.396
				c-0.562,0.275-1.141,0.486-1.738,0.634c-0.597,0.147-1.19,0.219-1.78,0.219c-1.279,0-2.305-0.368-3.072-1.104
				c-0.771-0.738-1.154-1.717-1.154-2.938c0-1.238,0.407-2.242,1.222-3.016c0.813-0.768,1.874-1.151,3.183-1.151
				c1.185,0,2.167,0.358,2.947,1.077c0.779,0.721,1.17,1.589,1.17,2.609c0,0.313-0.065,0.525-0.197,0.631
				c-0.132,0.107-0.49,0.16-1.073,0.16h-0.127H80.438L80.438,105.919z M80.48,104.815h5.48c-0.084-0.668-0.363-1.205-0.838-1.61
				c-0.475-0.408-1.058-0.611-1.747-0.611c-0.746,0-1.375,0.197-1.887,0.591C80.978,103.576,80.642,104.121,80.48,104.815z"/>
		</g>
	</g>
	<rect x="-0.191" y="99.119" fill="#1B446B" width="11.496" height="11.494"/>
	<g>
		<g>
			<path fill="#1B446B" d="M23.531,19.406l1.956-5.814c0.123-0.383,0.294-0.662,0.513-0.835c0.219-0.175,0.509-0.262,0.871-0.262
				h1.598c0.465,0,0.798,0.089,1,0.267c0.202,0.178,0.303,0.468,0.303,0.872c0,0.369-0.098,0.649-0.292,0.841
				c-0.194,0.191-0.477,0.287-0.846,0.287h-0.164l0.297,7.649h0.174c0.369,0,0.646,0.094,0.831,0.282
				c0.186,0.188,0.277,0.463,0.277,0.826c0,0.403-0.097,0.694-0.292,0.872c-0.194,0.178-0.524,0.267-0.989,0.267H26.46
				c-0.469,0-0.801-0.087-0.998-0.262c-0.196-0.174-0.294-0.466-0.294-0.876c0-0.362,0.095-0.637,0.284-0.826
				c0.188-0.188,0.47-0.282,0.842-0.282h0.166l-0.154-6.255l-1.494,4.655c-0.108,0.349-0.265,0.6-0.466,0.753
				c-0.201,0.154-0.479,0.231-0.834,0.231s-0.637-0.077-0.845-0.231c-0.208-0.153-0.367-0.405-0.477-0.753l-1.483-4.655
				l-0.145,6.255h0.164c0.369,0,0.647,0.094,0.836,0.282s0.282,0.463,0.282,0.826c0,0.403-0.099,0.694-0.297,0.872
				c-0.198,0.178-0.526,0.267-0.984,0.267h-2.316c-0.458,0-0.786-0.089-0.984-0.267c-0.198-0.178-0.297-0.468-0.297-0.872
				c0-0.362,0.094-0.637,0.282-0.826c0.188-0.188,0.467-0.282,0.836-0.282h0.164l0.297-7.649h-0.164
				c-0.369,0-0.651-0.096-0.846-0.287s-0.292-0.472-0.292-0.841c0-0.403,0.101-0.694,0.303-0.872c0.201-0.178,0.535-0.267,1-0.267
				h1.598c0.355,0,0.641,0.085,0.855,0.256s0.391,0.451,0.527,0.841L23.531,19.406z"/>
			<path fill="#1B446B" d="M40.301,22.41h0.164c0.369,0,0.651,0.097,0.846,0.292c0.195,0.194,0.292,0.473,0.292,0.835
				c0,0.396-0.101,0.682-0.302,0.856c-0.202,0.175-0.535,0.262-1,0.262h-0.964c-0.342,0-0.598-0.065-0.765-0.195
				c-0.168-0.13-0.306-0.366-0.416-0.708c-0.566,0.376-1.169,0.663-1.805,0.861c-0.636,0.198-1.278,0.297-1.928,0.297
				c-1.102,0-1.965-0.273-2.594-0.82s-0.943-1.295-0.943-2.246c0-1.025,0.407-1.822,1.22-2.389c0.813-0.567,1.955-0.851,3.425-0.851
				c0.328,0,0.678,0.017,1.047,0.051c0.368,0.034,0.782,0.089,1.24,0.164v-0.195c0-0.615-0.147-1.083-0.445-1.405
				c-0.297-0.321-0.736-0.48-1.317-0.48c-0.451,0-1.027,0.167-1.728,0.502c-0.701,0.335-1.216,0.502-1.543,0.502
				c-0.321,0-0.581-0.094-0.779-0.282s-0.297-0.436-0.297-0.743c0-0.554,0.404-0.993,1.215-1.317
				c0.811-0.325,1.913-0.487,3.307-0.487c1.456,0,2.499,0.28,3.127,0.841s0.943,1.511,0.943,2.851V22.41z M37.819,20.431
				c-0.342-0.075-0.655-0.131-0.942-0.169c-0.287-0.038-0.555-0.057-0.8-0.057c-0.753,0-1.343,0.126-1.77,0.379
				c-0.428,0.253-0.641,0.602-0.641,1.046c0,0.396,0.137,0.699,0.41,0.908c0.272,0.209,0.667,0.312,1.179,0.312
				c0.472,0,0.916-0.068,1.333-0.205s0.827-0.349,1.229-0.636L37.819,20.431L37.819,20.431z"/>
			<path fill="#1B446B" d="M46.771,23.692v2.789h1.302c0.466,0,0.799,0.089,1,0.267c0.202,0.178,0.304,0.468,0.304,0.872
				c0,0.396-0.1,0.68-0.297,0.851c-0.198,0.171-0.533,0.256-1.006,0.256h-4.348c-0.472,0-0.803-0.084-0.995-0.251
				c-0.191-0.167-0.287-0.453-0.287-0.856c0-0.403,0.099-0.694,0.292-0.872c0.195-0.178,0.525-0.267,0.99-0.267h0.605v-9.054h-0.164
				c-0.362,0-0.64-0.096-0.831-0.287c-0.192-0.191-0.287-0.472-0.287-0.841c0-0.403,0.096-0.69,0.287-0.861
				c0.19-0.171,0.522-0.256,0.995-0.256h1.579c0.197,0,0.345,0.036,0.44,0.107c0.096,0.072,0.145,0.176,0.145,0.313v0.738
				c0.349-0.465,0.771-0.815,1.266-1.051c0.496-0.235,1.055-0.354,1.677-0.354c1.401,0,2.563,0.448,3.486,1.343
				s1.384,2.023,1.384,3.384c0,1.422-0.448,2.599-1.343,3.533c-0.896,0.933-2.023,1.399-3.384,1.399
				c-0.555,0-1.071-0.077-1.555-0.229C47.545,24.209,47.126,23.986,46.771,23.692z M49.14,17.119c-0.677,0-1.234,0.25-1.671,0.749
				c-0.438,0.499-0.656,1.138-0.656,1.917c0,0.779,0.219,1.418,0.656,1.917c0.437,0.499,0.995,0.749,1.671,0.749
				s1.236-0.251,1.676-0.753c0.441-0.503,0.662-1.14,0.662-1.913c0-0.779-0.219-1.418-0.656-1.917
				C50.385,17.369,49.823,17.119,49.14,17.119z"/>
		</g>
	</g>
</g>
</svg>
