<?xml version="1.0" encoding="utf-8"?>
<!-- Generator: Adobe Illustrator 16.0.0, SVG Export Plug-In . SVG Version: 6.00 Build 0)  -->
<!DOCTYPE svg PUBLIC "-//W3C//DTD SVG 1.1//EN" "http://www.w3.org/Graphics/SVG/1.1/DTD/svg11.dtd">
<svg version="1.1" id="Layer_1" xmlns="http://www.w3.org/2000/svg" xmlns:xlink="http://www.w3.org/1999/xlink" x="0px" y="0px"
	 width="78.987px" height="57.987px" viewBox="0 0 78.987 57.987" enable-background="new 0 0 78.987 57.987" xml:space="preserve">
<g>
	<g>
		<path fill="#84A2CD" d="M78.987,51.312c0,3.688-2.988,6.676-6.676,6.676H6.676C2.989,57.987,0,54.999,0,51.312V6.676
			C0,2.989,2.989,0,6.676,0h65.635c3.688,0,6.676,2.989,6.676,6.676V51.312z"/>
		<rect y="5.005" fill="#1B446B" width="11.496" height="11.494"/>
		<rect y="39.894" fill="#1B446B" width="11.496" height="11.494"/>
		<rect x="67.491" y="23.247" fill="#1B446B" width="11.496" height="11.494"/>
	</g>
</g>
<g>
	<path fill="#1B446B" d="M27.543,25.963c0.287-0.308,0.619-0.542,0.995-0.702s0.779-0.241,1.21-0.241c0.93,0,1.6,0.275,2.01,0.825
		c0.41,0.551,0.615,1.472,0.615,2.764v3.886h0.144c0.321,0,0.562,0.094,0.723,0.281c0.16,0.189,0.241,0.464,0.241,0.826
		c0,0.41-0.084,0.703-0.251,0.877s-0.453,0.262-0.856,0.262H30.63c-0.185,0-0.328-0.039-0.431-0.119
		c-0.103-0.078-0.154-0.186-0.154-0.322v-5.793c0-0.458-0.072-0.8-0.215-1.025s-0.352-0.338-0.625-0.338
		c-0.342,0-0.607,0.152-0.795,0.457s-0.282,0.74-0.282,1.307v3.589h0.154c0.314,0,0.554,0.094,0.718,0.281
		c0.164,0.189,0.246,0.464,0.246,0.826c0,0.41-0.085,0.703-0.256,0.877s-0.458,0.262-0.861,0.262h-1.743
		c-0.185,0-0.332-0.039-0.441-0.119c-0.109-0.078-0.164-0.186-0.164-0.322v-5.793c0-0.458-0.068-0.8-0.205-1.025
		s-0.342-0.338-0.615-0.338c-0.342,0-0.61,0.154-0.805,0.461c-0.195,0.308-0.292,0.742-0.292,1.302v3.589h0.154
		c0.321,0,0.562,0.092,0.723,0.277c0.161,0.184,0.241,0.461,0.241,0.83c0,0.41-0.085,0.703-0.256,0.877s-0.458,0.262-0.861,0.262
		h-2.328c-0.396,0-0.68-0.09-0.851-0.268s-0.256-0.468-0.256-0.871c0-0.362,0.081-0.637,0.241-0.826
		c0.16-0.188,0.401-0.281,0.723-0.281h0.144v-4.983h-0.144c-0.321,0-0.566-0.097-0.733-0.292c-0.167-0.194-0.251-0.473-0.251-0.835
		c0-0.396,0.087-0.682,0.262-0.856c0.174-0.175,0.463-0.262,0.866-0.262h1.384c0.28,0,0.47,0.057,0.569,0.169
		c0.099,0.113,0.149,0.33,0.149,0.651c0.253-0.349,0.557-0.613,0.913-0.795c0.355-0.181,0.752-0.271,1.189-0.271
		c0.396,0,0.742,0.077,1.036,0.23C27.068,25.405,27.325,25.642,27.543,25.963z"/>
	<path fill="#1B446B" d="M43.672,32.495h0.164c0.369,0,0.652,0.098,0.846,0.293c0.195,0.193,0.293,0.473,0.293,0.835
		c0,0.396-0.102,0.683-0.303,0.856s-0.535,0.262-1,0.262h-0.963c-0.342,0-0.598-0.065-0.764-0.195
		c-0.168-0.13-0.307-0.365-0.416-0.707c-0.567,0.375-1.169,0.662-1.805,0.861c-0.636,0.197-1.278,0.297-1.928,0.297
		c-1.101,0-1.965-0.273-2.594-0.82s-0.943-1.295-0.943-2.246c0-1.025,0.407-1.821,1.22-2.389s1.955-0.851,3.425-0.851
		c0.328,0,0.677,0.017,1.046,0.051s0.782,0.089,1.241,0.164v-0.195c0-0.615-0.148-1.083-0.447-1.405
		c-0.297-0.321-0.736-0.482-1.317-0.482c-0.451,0-1.027,0.167-1.728,0.502c-0.701,0.335-1.215,0.502-1.543,0.502
		c-0.321,0-0.581-0.094-0.779-0.282c-0.198-0.188-0.297-0.436-0.297-0.743c0-0.554,0.405-0.993,1.215-1.317
		C37.105,25.162,38.208,25,39.602,25c1.456,0,2.498,0.28,3.127,0.841s0.943,1.511,0.943,2.851V32.495z M41.192,30.517
		c-0.342-0.076-0.656-0.132-0.943-0.17c-0.288-0.037-0.554-0.057-0.8-0.057c-0.752,0-1.342,0.127-1.769,0.38
		c-0.428,0.253-0.641,0.602-0.641,1.046c0,0.396,0.137,0.699,0.41,0.908c0.273,0.208,0.667,0.312,1.179,0.312
		c0.472,0,0.916-0.068,1.333-0.205c0.417-0.137,0.827-0.35,1.231-0.637V30.517z"/>
	<path fill="#1B446B" d="M51.045,27.327l1.087,1.282l1.179-1.282c-0.225,0-0.389-0.08-0.492-0.241
		c-0.102-0.161-0.153-0.416-0.153-0.764c0-0.342,0.087-0.603,0.262-0.785c0.174-0.181,0.429-0.271,0.764-0.271h2.185
		c0.457,0,0.785,0.089,0.984,0.267c0.197,0.178,0.297,0.468,0.297,0.872c0,0.376-0.098,0.655-0.292,0.835
		c-0.195,0.182-0.497,0.272-0.907,0.272h-0.4l-2.143,2.338l2.562,2.625h0.236c0.396,0,0.695,0.095,0.897,0.282
		c0.201,0.188,0.302,0.47,0.302,0.846c0,0.403-0.104,0.693-0.312,0.871s-0.545,0.268-1.01,0.268h-2.481
		c-0.335,0-0.59-0.091-0.764-0.271c-0.175-0.182-0.262-0.439-0.262-0.775c0-0.355,0.053-0.613,0.159-0.773
		c0.105-0.16,0.275-0.241,0.508-0.241h0.082l-1.303-1.446l-1.262,1.446h0.041c0.246,0,0.424,0.077,0.533,0.231
		c0.109,0.152,0.164,0.391,0.164,0.712c0,0.383-0.084,0.665-0.251,0.847c-0.167,0.181-0.425,0.271-0.774,0.271h-2.184
		c-0.465,0-0.795-0.09-0.989-0.268c-0.195-0.178-0.292-0.468-0.292-0.871c0-0.376,0.094-0.658,0.281-0.846s0.471-0.282,0.846-0.282
		h0.195l2.43-2.461l-2.348-2.502h-0.318c-0.402,0-0.707-0.092-0.912-0.277s-0.308-0.461-0.308-0.831
		c0-0.403,0.103-0.694,0.308-0.872s0.537-0.267,0.994-0.267h2.482c0.348,0,0.605,0.092,0.773,0.277s0.252,0.465,0.252,0.841
		c0,0.314-0.054,0.55-0.159,0.708C51.426,27.249,51.264,27.327,51.045,27.327z"/>
</g>
</svg>
