<?xml version="1.0" encoding="utf-8"?>
<!-- Generator: Adobe Illustrator 16.0.0, SVG Export Plug-In . SVG Version: 6.00 Build 0)  -->
<!DOCTYPE svg PUBLIC "-//W3C//DTD SVG 1.1//EN" "http://www.w3.org/Graphics/SVG/1.1/DTD/svg11.dtd">
<svg version="1.1" id="Layer_1" xmlns="http://www.w3.org/2000/svg" xmlns:xlink="http://www.w3.org/1999/xlink" x="0px" y="0px"
	 width="50.703px" height="36.133px" viewBox="0 0 50.703 36.133" enable-background="new 0 0 50.703 36.133" xml:space="preserve">
<path fill="#F7C55A" d="M50.703,28.402c0,4.268-3.461,7.73-7.732,7.73H7.729C3.463,36.133,0,32.67,0,28.402V7.732
	C0,3.461,3.463,0,7.729,0h35.242c4.271,0,7.732,3.461,7.732,7.732V28.402z"/>
<g>
	<path fill="#754E1F" d="M18.951,22.41h2.205c0.472,0,0.807,0.086,1.005,0.257s0.297,0.454,0.297,0.851
		c0,0.404-0.101,0.694-0.303,0.872s-0.535,0.267-1,0.267h-6.932c-0.465,0-0.798-0.089-1-0.267c-0.202-0.178-0.303-0.468-0.303-0.872
		c0-0.396,0.098-0.68,0.292-0.851c0.195-0.171,0.532-0.257,1.01-0.257h2.205v-4.983H15.27c-0.458,0-0.786-0.087-0.984-0.261
		c-0.198-0.175-0.297-0.463-0.297-0.867s0.096-0.69,0.287-0.861s0.523-0.256,0.995-0.256h3.086c0.191,0,0.338,0.04,0.441,0.118
		s0.154,0.186,0.154,0.323V22.41z M17.474,10.547c0.499,0,0.831,0.096,0.995,0.287s0.246,0.649,0.246,1.374
		c0,0.697-0.074,1.13-0.22,1.297c-0.147,0.168-0.494,0.251-1.041,0.251c-0.533,0-0.877-0.079-1.03-0.236
		c-0.154-0.157-0.231-0.472-0.231-0.943c0-0.875,0.079-1.432,0.236-1.671S16.934,10.547,17.474,10.547z"/>
	<path fill="#754E1F" d="M30.773,15.479h2.205c0.471,0,0.807,0.087,1.004,0.261c0.199,0.175,0.298,0.46,0.298,0.856
		s-0.101,0.684-0.303,0.861s-0.534,0.267-0.999,0.267h-2.205v4.686h2.041c0.471,0,0.807,0.086,1.004,0.257
		c0.199,0.171,0.298,0.454,0.298,0.851c0,0.404-0.101,0.694-0.303,0.872s-0.534,0.267-0.999,0.267h-5.65
		c-0.472,0-0.807-0.089-1.005-0.267s-0.297-0.468-0.297-0.872c0-0.396,0.097-0.68,0.292-0.851c0.194-0.171,0.531-0.257,1.01-0.257
		h1.087v-4.686h-1.087c-0.472,0-0.807-0.089-1.005-0.267s-0.297-0.465-0.297-0.861c0-0.403,0.097-0.69,0.292-0.861
		c0.194-0.171,0.531-0.256,1.01-0.256h1.087v-0.584c0-1.34,0.345-2.292,1.036-2.855c0.689-0.564,1.865-0.846,3.527-0.846
		c0.861,0,1.494,0.103,1.901,0.308s0.61,0.523,0.61,0.954c0,0.287-0.091,0.516-0.271,0.687c-0.182,0.171-0.426,0.256-0.733,0.256
		c-0.226,0-0.546-0.031-0.959-0.092s-0.702-0.092-0.866-0.092c-0.636,0-1.082,0.142-1.338,0.426
		c-0.257,0.284-0.385,0.784-0.385,1.502V15.479z"/>
</g>
</svg>
