<?xml version="1.0" encoding="utf-8"?>
<!-- Generator: Adobe Illustrator 16.0.0, SVG Export Plug-In . SVG Version: 6.00 Build 0)  -->
<!DOCTYPE svg PUBLIC "-//W3C//DTD SVG 1.1//EN" "http://www.w3.org/Graphics/SVG/1.1/DTD/svg11.dtd">
<svg version="1.1" id="Layer_1" xmlns="http://www.w3.org/2000/svg" xmlns:xlink="http://www.w3.org/1999/xlink" x="0px" y="0px"
	 width="82px" height="54px" viewBox="0 0 82 54" enable-background="new 0 0 82 54" xml:space="preserve">
<g>
	<path fill="#46B7BE" d="M82,45.496C82,50.193,78.193,54,73.496,54H8.504C3.807,54,0,50.193,0,45.496V8.504C0,3.807,3.807,0,8.504,0
		h64.992C78.193,0,82,3.807,82,8.504V45.496z"/>
	<g>
		<path fill="#0C5657" d="M24.417,32.472c1.055,0,1.896,0.267,2.522,0.8s0.94,1.239,0.94,2.118s-0.316,1.597-0.949,2.153
			s-1.471,0.835-2.514,0.835c-1.008,0-1.834-0.281-2.479-0.844s-0.967-1.277-0.967-2.145c0-0.855,0.322-1.556,0.967-2.101
			S23.409,32.472,24.417,32.472z M26.719,18.321l-0.668,11.408c-0.023,0.387-0.185,0.706-0.483,0.958s-0.683,0.378-1.151,0.378
			c-0.445,0-0.82-0.129-1.125-0.387s-0.469-0.574-0.492-0.949l-0.686-11.408v-0.141c0-0.691,0.205-1.236,0.615-1.635
			s0.973-0.598,1.688-0.598c0.727,0,1.292,0.193,1.696,0.58s0.606,0.926,0.606,1.617V18.321z"/>
		<path fill="#0C5657" d="M38.18,22.136h15.732c0.504,0,0.9,0.161,1.188,0.483s0.43,0.759,0.43,1.31c0,0.562-0.143,1.005-0.43,1.327
			s-0.684,0.483-1.188,0.483H38.18c-0.504,0-0.904-0.161-1.203-0.483s-0.449-0.765-0.449-1.327c0-0.551,0.15-0.987,0.449-1.31
			S37.676,22.136,38.18,22.136z M38.18,28.042h15.732c0.492,0,0.885,0.161,1.178,0.483s0.439,0.759,0.439,1.31
			c0,0.562-0.143,1.005-0.43,1.327s-0.684,0.483-1.188,0.483H38.18c-0.504,0-0.904-0.164-1.203-0.492s-0.449-0.768-0.449-1.318
			c0-0.539,0.15-0.973,0.449-1.301S37.676,28.042,38.18,28.042z"/>
	</g>
	<rect x="70.252" y="21.253" fill="#0C5657" width="11.496" height="11.494"/>
</g>
</svg>
