<?xml version="1.0" encoding="utf-8"?>
<!-- Generator: Adobe Illustrator 16.0.0, SVG Export Plug-In . SVG Version: 6.00 Build 0)  -->
<!DOCTYPE svg PUBLIC "-//W3C//DTD SVG 1.1//EN" "http://www.w3.org/Graphics/SVG/1.1/DTD/svg11.dtd">
<svg version="1.1" id="Layer_1" xmlns="http://www.w3.org/2000/svg" xmlns:xlink="http://www.w3.org/1999/xlink" x="0px" y="0px"
	 width="53.859px" height="33.707px" viewBox="0 0 53.859 33.707" enable-background="new 0 0 53.859 33.707" xml:space="preserve">
<path fill="#010101" d="M0,4.803v24.012c0,2.67,2.226,4.895,4.894,4.895h44.072c2.67,0,4.895-2.225,4.895-4.895V4.892
	C53.857,2.224,51.634,0,48.966,0H4.891C2.134,0,0,2.135,0,4.803z"/>
<rect x="3.903" y="1.371" fill="#FFFFFF" width="43.963" height="30.896"/>
<path fill="#79479C" d="M39.727,25.965c0,2.823-2.289,5.112-5.112,5.112h-20.21c-2.824,0-5.112-2.289-5.112-5.112V7.334
	c0-2.825,2.289-5.113,5.112-5.113h20.21c2.823,0,5.112,2.289,5.112,5.113V25.965z"/>
<g>
	<circle fill="#FFFFFF" cx="12.83" cy="5.867" r="1.177"/>
	<circle fill="#FFFFFF" cx="16.136" cy="5.867" r="1.177"/>
	<circle fill="#FFFFFF" cx="19.452" cy="5.867" r="1.177"/>
	<circle fill="#FFFFFF" cx="22.92" cy="5.867" r="1.177"/>
	<circle fill="#FFFFFF" cx="26.097" cy="5.867" r="1.177"/>
	<circle fill="#FFFFFF" cx="29.402" cy="5.867" r="1.177"/>
	<circle fill="#FFFFFF" cx="32.719" cy="5.867" r="1.177"/>
	<circle fill="#FFFFFF" cx="36.188" cy="5.867" r="1.176"/>
	<circle fill="#FFFFFF" cx="12.83" cy="8.915" r="1.177"/>
	<circle fill="#FFFFFF" cx="16.136" cy="8.915" r="1.177"/>
	<circle fill="#FFFFFF" cx="19.452" cy="8.915" r="1.177"/>
	<circle fill="#FFFFFF" cx="22.92" cy="8.915" r="1.177"/>
	<circle fill="#FFFFFF" cx="26.097" cy="8.915" r="1.177"/>
	<circle fill="#FFFFFF" cx="29.402" cy="8.915" r="1.177"/>
	<circle fill="#FFFFFF" cx="32.719" cy="8.915" r="1.177"/>
	<circle fill="#FFFFFF" cx="36.188" cy="8.915" r="1.176"/>
	<circle fill="#FFFFFF" cx="12.83" cy="12.102" r="1.177"/>
	<circle fill="#FFFFFF" cx="16.136" cy="12.102" r="1.177"/>
	<circle fill="#FFFFFF" cx="19.452" cy="12.102" r="1.177"/>
	<circle fill="#FFFFFF" cx="22.92" cy="12.102" r="1.177"/>
	<circle fill="#FFFFFF" cx="26.097" cy="12.102" r="1.177"/>
	<circle fill="#FFFFFF" cx="29.402" cy="12.102" r="1.177"/>
	<circle fill="#FFFFFF" cx="32.719" cy="12.102" r="1.177"/>
	<circle fill="#FFFFFF" cx="36.188" cy="12.102" r="1.176"/>
	<circle fill="#FFFFFF" cx="12.83" cy="15.15" r="1.177"/>
	<circle fill="#FFFFFF" cx="16.136" cy="15.15" r="1.177"/>
	<circle fill="#FFFFFF" cx="19.452" cy="15.15" r="1.177"/>
	<circle fill="#FFFFFF" cx="22.92" cy="15.15" r="1.177"/>
	<circle fill="#FFFFFF" cx="26.097" cy="15.15" r="1.177"/>
	<circle fill="#FFFFFF" cx="29.402" cy="15.15" r="1.177"/>
	<circle fill="#FFFFFF" cx="32.719" cy="15.15" r="1.177"/>
	<circle fill="#FFFFFF" cx="36.188" cy="15.15" r="1.176"/>
	<circle fill="#FFFFFF" cx="12.83" cy="18.148" r="1.177"/>
	<circle fill="#FFFFFF" cx="16.136" cy="18.148" r="1.177"/>
	<circle fill="#FFFFFF" cx="19.452" cy="18.148" r="1.177"/>
	<circle fill="#FFFFFF" cx="22.92" cy="18.148" r="1.177"/>
	<circle fill="#FFFFFF" cx="26.097" cy="18.148" r="1.177"/>
	<circle fill="#FFFFFF" cx="29.402" cy="18.148" r="1.177"/>
	<circle fill="#FFFFFF" cx="32.719" cy="18.148" r="1.177"/>
	<circle fill="#FFFFFF" cx="36.188" cy="18.148" r="1.176"/>
	<circle fill="#FFFFFF" cx="12.83" cy="21.196" r="1.177"/>
	<circle fill="#FFFFFF" cx="16.136" cy="21.196" r="1.177"/>
	<circle fill="#FFFFFF" cx="19.452" cy="21.196" r="1.177"/>
	<circle fill="#FFFFFF" cx="22.92" cy="21.196" r="1.177"/>
	<circle fill="#FFFFFF" cx="26.097" cy="21.196" r="1.177"/>
	<circle fill="#FFFFFF" cx="29.402" cy="21.196" r="1.177"/>
	<circle fill="#FFFFFF" cx="32.719" cy="21.196" r="1.177"/>
	<circle fill="#FFFFFF" cx="36.188" cy="21.196" r="1.176"/>
	<circle fill="#FFFFFF" cx="12.83" cy="24.383" r="1.177"/>
	<circle fill="#FFFFFF" cx="16.136" cy="24.383" r="1.177"/>
	<circle fill="#FFFFFF" cx="19.452" cy="24.383" r="1.177"/>
	<circle fill="#FFFFFF" cx="22.92" cy="24.383" r="1.177"/>
	<circle fill="#FFFFFF" cx="26.097" cy="24.383" r="1.177"/>
	<circle fill="#FFFFFF" cx="29.402" cy="24.383" r="1.177"/>
	<circle fill="#FFFFFF" cx="32.719" cy="24.383" r="1.177"/>
	<circle fill="#FFFFFF" cx="36.188" cy="24.383" r="1.176"/>
	<circle fill="#FFFFFF" cx="12.83" cy="27.43" r="1.177"/>
	<circle fill="#FFFFFF" cx="16.136" cy="27.43" r="1.177"/>
	<circle fill="#FFFFFF" cx="19.452" cy="27.43" r="1.177"/>
	<circle fill="#FFFFFF" cx="22.92" cy="27.43" r="1.177"/>
	<circle fill="#FFFFFF" cx="26.097" cy="27.43" r="1.177"/>
	<circle fill="#FFFFFF" cx="29.402" cy="27.43" r="1.177"/>
	<circle fill="#FFFFFF" cx="32.719" cy="27.43" r="1.177"/>
	<circle fill="#FFFFFF" cx="36.188" cy="27.43" r="1.176"/>
</g>
</svg>
