<?xml version="1.0" encoding="utf-8"?>
<!-- Generator: Adobe Illustrator 16.0.0, SVG Export Plug-In . SVG Version: 6.00 Build 0)  -->
<!DOCTYPE svg PUBLIC "-//W3C//DTD SVG 1.1//EN" "http://www.w3.org/Graphics/SVG/1.1/DTD/svg11.dtd">
<svg version="1.1" id="Layer_1" xmlns="http://www.w3.org/2000/svg" xmlns:xlink="http://www.w3.org/1999/xlink" x="0px" y="0px"
	 width="82px" height="54px" viewBox="0 0 82 54" enable-background="new 0 0 82 54" xml:space="preserve">
<g>
	<path fill="#46B7BE" d="M82,45.496C82,50.193,78.193,54,73.496,54H8.504C3.807,54,0,50.193,0,45.496V8.504C0,3.807,3.807,0,8.504,0
		h64.992C78.193,0,82,3.807,82,8.504V45.496z"/>
	<g>
		<path fill="#0C5657" d="M34.461,26.882l11.443,5.432c0.645,0.305,1.096,0.606,1.354,0.905s0.387,0.659,0.387,1.081
			c0,0.492-0.152,0.891-0.457,1.195s-0.709,0.457-1.213,0.457c-0.211,0-0.441-0.035-0.693-0.105s-0.561-0.188-0.924-0.352
			l-13.852-6.381c-0.07-0.035-0.182-0.082-0.334-0.141c-1.242-0.574-1.863-1.248-1.863-2.021c0-0.785,0.65-1.477,1.951-2.074
			L30.4,24.79l13.957-6.504c0.469-0.211,0.814-0.349,1.037-0.413s0.416-0.097,0.58-0.097c0.504,0,0.908,0.152,1.213,0.457
			s0.457,0.703,0.457,1.195c0,0.422-0.131,0.788-0.395,1.099s-0.713,0.618-1.346,0.923L34.461,26.882z"/>
	</g>
	<rect x="70.252" y="21.253" fill="#0C5657" width="11.496" height="11.494"/>
</g>
</svg>
