<?xml version="1.0" encoding="utf-8"?>
<!-- Generator: Adobe Illustrator 16.0.0, SVG Export Plug-In . SVG Version: 6.00 Build 0)  -->
<!DOCTYPE svg PUBLIC "-//W3C//DTD SVG 1.1//EN" "http://www.w3.org/Graphics/SVG/1.1/DTD/svg11.dtd">
<svg version="1.1" id="Layer_1" xmlns="http://www.w3.org/2000/svg" xmlns:xlink="http://www.w3.org/1999/xlink" x="0px" y="0px"
	 width="37.703px" height="36.129px" viewBox="0 0 37.703 36.129" enable-background="new 0 0 37.703 36.129" xml:space="preserve">
<g>
	<g>
		<path fill="#F7C45A" d="M37.703,28.401c0,4.27-3.459,7.729-7.73,7.729H7.729C3.463,36.129,0,32.667,0,28.401V7.732
			C0,3.46,3.463,0,7.729,0h22.242c4.271,0,7.73,3.46,7.73,7.732L37.703,28.401L37.703,28.401z"/>
		<path fill="#744E1E" d="M30.693,15.093c-0.356-0.817-1.309-1.188-2.125-0.832l-7.99,3.494V5.614c0-0.892-0.723-1.613-1.613-1.613
			c-0.891,0-1.613,0.722-1.613,1.613v14.605c0,0.005,0.002,0.008,0.002,0.012c0,0.088,0.038,0.178,0.054,0.266
			c0.022,0.123,0.03,0.25,0.078,0.362c0.001,0.002,0,0.005,0.002,0.007c0.021,0.049,0.062,0.082,0.088,0.127
			c0.077,0.137,0.155,0.271,0.267,0.381c0.071,0.067,0.16,0.106,0.24,0.162c0.091,0.062,0.174,0.135,0.278,0.176
			c0.126,0.051,0.262,0.062,0.396,0.08c0.071,0.01,0.134,0.043,0.208,0.043c0.004,0,0.007-0.002,0.01-0.002
			c0.098-0.002,0.193-0.041,0.291-0.059c0.114-0.021,0.234-0.029,0.337-0.074c0.002,0,0.006,0,0.008-0.002l10.25-4.481
			C30.678,16.861,31.05,15.91,30.693,15.093z"/>
	</g>
</g>
</svg>
