<?xml version="1.0" encoding="utf-8"?>
<!-- Generator: Adobe Illustrator 16.0.0, SVG Export Plug-In . SVG Version: 6.00 Build 0)  -->
<!DOCTYPE svg PUBLIC "-//W3C//DTD SVG 1.1//EN" "http://www.w3.org/Graphics/SVG/1.1/DTD/svg11.dtd">
<svg version="1.1" id="Layer_1" xmlns="http://www.w3.org/2000/svg" xmlns:xlink="http://www.w3.org/1999/xlink" x="0px" y="0px"
	 width="57.987px" height="57.988px" viewBox="0 0 57.987 57.988" enable-background="new 0 0 57.987 57.988" xml:space="preserve">
<g>
	<g>
		<path fill="#46B7BE" d="M57.987,51.311c0,3.688-2.988,6.677-6.676,6.677H6.676C2.989,57.988,0,54.999,0,51.311V6.676
			C0,2.989,2.989,0,6.676,0h44.636c3.688,0,6.676,2.989,6.676,6.676V51.311z"/>
		<rect y="5.005" fill="#0C5657" width="11.496" height="11.494"/>
		<rect y="39.893" fill="#0C5657" width="11.496" height="11.494"/>
		<rect x="46.491" y="23.247" fill="#0C5657" width="11.496" height="11.494"/>
		<g>
			<path fill="#0C5657" d="M30.889,27.008h5.836c0.551,0,1.005,0.167,1.362,0.501s0.536,0.765,0.536,1.292s-0.179,0.961-0.536,1.301
				s-0.812,0.51-1.362,0.51h-5.836v6.082c0,0.551-0.173,1.005-0.519,1.362s-0.788,0.536-1.327,0.536
				c-0.504,0-0.935-0.188-1.292-0.562s-0.536-0.82-0.536-1.336v-6.082h-5.836c-0.551,0-1.005-0.17-1.362-0.51
				s-0.536-0.773-0.536-1.301c0-0.492,0.185-0.914,0.554-1.266s0.817-0.527,1.345-0.527h5.836v-6.082c0-0.562,0.17-1.022,0.51-1.38
				s0.779-0.536,1.318-0.536s0.981,0.182,1.327,0.545s0.519,0.82,0.519,1.371V27.008z"/>
		</g>
	</g>
</g>
</svg>
