<?xml version="1.0" encoding="utf-8"?>
<!-- Generator: Adobe Illustrator 16.0.0, SVG Export Plug-In . SVG Version: 6.00 Build 0)  -->
<!DOCTYPE svg PUBLIC "-//W3C//DTD SVG 1.1//EN" "http://www.w3.org/Graphics/SVG/1.1/DTD/svg11.dtd">
<svg version="1.1" id="Layer_1" xmlns="http://www.w3.org/2000/svg" xmlns:xlink="http://www.w3.org/1999/xlink" x="0px" y="0px"
	 width="22.677px" height="22.678px" viewBox="0 -3.369 22.677 22.678" enable-background="new 0 -3.369 22.677 22.678"
	 xml:space="preserve">
<path fill="#FFFFFF" d="M15.687,8.763c0-2.391-1.957-4.349-4.35-4.349l0,0c-2.391,0-4.348,1.956-4.348,4.349v5.313h8.695
	L15.687,8.763L15.687,8.763z M15.687,15.008H6.99H6.438v0.932H6.99h8.696h0.552v-0.932H15.687z M5.034,8.564H2.447v0.653h2.587
	V8.564z M6.042,5.457L3.801,4.163L3.475,4.729l2.241,1.293L6.042,5.457z M8.468,3.269L7.174,1.03L6.609,1.355l1.293,2.241
	L8.468,3.269z M11.663,2.587V0h-0.652v2.587H11.663z M16.066,1.354l-0.565-0.327l-1.293,2.241l0.565,0.327L16.066,1.354z
	 M19.2,4.727l-0.326-0.564l-2.24,1.294l0.326,0.564L19.2,4.727z M20.23,9.215V8.562h-2.589v0.653H20.23z"/>
</svg>
