<?xml version="1.0" encoding="utf-8"?>
<!-- Generator: Adobe Illustrator 16.0.0, SVG Export Plug-In . SVG Version: 6.00 Build 0)  -->
<!DOCTYPE svg PUBLIC "-//W3C//DTD SVG 1.1//EN" "http://www.w3.org/Graphics/SVG/1.1/DTD/svg11.dtd">
<svg version="1.1" id="Layer_1" xmlns="http://www.w3.org/2000/svg" xmlns:xlink="http://www.w3.org/1999/xlink" x="0px" y="0px"
	 width="48.703px" height="36.133px" viewBox="0 0 48.703 36.133" enable-background="new 0 0 48.703 36.133" xml:space="preserve">
<path fill="#F7C55A" d="M48.703,28.402c0,4.268-3.461,7.729-7.732,7.729H7.729C3.463,36.133,0,32.67,0,28.402V7.732
	C0,3.461,3.463,0,7.729,0h33.242c4.271,0,7.732,3.461,7.732,7.732V28.402z"/>
<rect x="11.017" y="5.401" fill="#754E1F" width="6.667" height="6.667"/>
<rect x="11.017" y="14.732" fill="#754E1F" width="6.667" height="6.667"/>
<rect x="11.017" y="23.565" fill="#754E1F" width="6.667" height="6.667"/>
<path fill="#754E1F" d="M34.588,18.058c1.03-0.357,1.878-0.855,2.433-1.563c0.54-0.689,0.814-1.504,0.814-2.42
	c0-0.823-0.247-1.571-0.733-2.228c-3.36-4.525-18.766-3.699-19.418-3.663v1.401c4.329-0.249,16.188-0.142,18.726,3.274
	c0.286,0.387,0.426,0.784,0.426,1.216c0,0.512-0.159,0.964-0.487,1.382c-0.866,1.104-2.744,1.664-5.009,1.937
	c-1.8,0.235-3.763,0.11-5.675,0.11c-4.034,0-7.677-0.361-7.98-0.322v0.356v1.04v0.356c0.304,0.04,3.821-0.368,7.855-0.368
	c1.912,0,3.938-0.125,5.798,0.156c2.266,0.273,4.145,0.832,5.011,1.938c0.328,0.418,0.487,0.871,0.487,1.382
	c0,0.433-0.14,0.829-0.426,1.216c-2.537,3.416-14.396,3.523-18.726,3.273v1.4c0.652,0.037,16.058,0.863,19.418-3.664
	c0.486-0.653,0.733-1.402,0.733-2.226c0-0.917-0.274-1.729-0.814-2.421C36.466,18.914,35.618,18.416,34.588,18.058z"/>
</svg>
