<?xml version="1.0" encoding="utf-8"?>
<!-- Generator: Adobe Illustrator 16.0.0, SVG Export Plug-In . SVG Version: 6.00 Build 0)  -->
<!DOCTYPE svg PUBLIC "-//W3C//DTD SVG 1.1//EN" "http://www.w3.org/Graphics/SVG/1.1/DTD/svg11.dtd">
<svg version="1.1" id="Layer_1" xmlns="http://www.w3.org/2000/svg" xmlns:xlink="http://www.w3.org/1999/xlink" x="0px" y="0px"
	 width="87px" height="55px" viewBox="0 0 87 55" enable-background="new 0 0 87 55" xml:space="preserve">
<path fill="#A7A9AC" d="M78.496,0H8.504C3.808,0,0,3.807,0,8.504v37.992C0,51.193,3.808,55,8.504,55h69.992
	C83.192,55,87,51.193,87,46.496V8.504C87,3.807,83.192,0,78.496,0z"/>
<g>
	<path fill="#414042" d="M15.135,26.793c0.654,0.24,1.135,0.57,1.443,0.987c0.306,0.418,0.459,0.952,0.459,1.601
		c0,0.547-0.132,1.046-0.397,1.497c-0.264,0.451-0.643,0.82-1.136,1.109c-0.289,0.168-0.611,0.29-0.969,0.365
		c-0.359,0.075-0.865,0.112-1.521,0.112h-0.757h-3.95c-0.397,0-0.681-0.078-0.853-0.234c-0.17-0.156-0.256-0.411-0.256-0.767
		c0-0.318,0.081-0.561,0.243-0.727c0.162-0.164,0.399-0.248,0.712-0.248h0.154v-6.727H8.153c-0.312,0-0.55-0.084-0.712-0.252
		c-0.163-0.168-0.243-0.415-0.243-0.74c0-0.349,0.087-0.603,0.261-0.762c0.174-0.159,0.457-0.239,0.848-0.239h4.148
		c1.269,0,2.232,0.247,2.89,0.739c0.658,0.493,0.988,1.215,0.988,2.165c0,0.469-0.101,0.883-0.302,1.24
		C15.83,26.272,15.531,26.565,15.135,26.793z M10.534,23.709v2.272h1.218c0.74,0,1.261-0.087,1.565-0.261
		c0.303-0.174,0.455-0.469,0.455-0.884c0-0.391-0.138-0.677-0.411-0.857s-0.716-0.271-1.33-0.271H10.534z M10.534,27.794v2.75h1.354
		c0.955,0,1.629-0.105,2.021-0.315c0.39-0.21,0.585-0.562,0.585-1.055c0-0.499-0.186-0.854-0.559-1.064
		c-0.373-0.21-1.024-0.315-1.958-0.315H10.534z"/>
	<path fill="#414042" d="M23.188,23.935c1.461,0,2.645,0.409,3.553,1.227c0.908,0.817,1.361,1.867,1.361,3.147
		c0,1.287-0.454,2.339-1.361,3.156c-0.908,0.818-2.092,1.227-3.553,1.227c-1.455,0-2.637-0.408-3.544-1.227
		c-0.909-0.817-1.362-1.869-1.362-3.156c0-1.281,0.455-2.33,1.367-3.147C20.559,24.343,21.739,23.935,23.188,23.935z M23.188,25.837
		c-0.704,0-1.283,0.229-1.736,0.69c-0.455,0.459-0.681,1.047-0.681,1.763c0,0.721,0.227,1.319,0.681,1.79
		c0.453,0.473,1.032,0.709,1.736,0.709c0.703,0,1.283-0.236,1.74-0.709c0.457-0.471,0.686-1.068,0.686-1.79
		c0-0.716-0.227-1.304-0.68-1.763C24.479,26.067,23.897,25.837,23.188,25.837z"/>
	<path fill="#414042" d="M34.271,23.935c1.462,0,2.646,0.409,3.554,1.227c0.907,0.817,1.361,1.867,1.361,3.147
		c0,1.287-0.455,2.339-1.361,3.156c-0.909,0.818-2.092,1.227-3.554,1.227c-1.455,0-2.636-0.408-3.544-1.227
		c-0.908-0.817-1.362-1.869-1.362-3.156c0-1.281,0.455-2.33,1.367-3.147C31.643,24.343,32.823,23.935,34.271,23.935z M34.271,25.837
		c-0.703,0-1.282,0.229-1.735,0.69c-0.455,0.459-0.682,1.047-0.682,1.763c0,0.721,0.227,1.319,0.682,1.79
		c0.454,0.473,1.033,0.709,1.735,0.709c0.704,0,1.284-0.236,1.741-0.709c0.457-0.471,0.686-1.068,0.686-1.79
		c0-0.716-0.228-1.304-0.681-1.763C35.563,26.067,34.98,25.837,34.271,25.837z"/>
	<path fill="#414042" d="M46.465,30.49h1.939c0.414,0,0.705,0.076,0.874,0.227s0.253,0.399,0.253,0.748
		c0,0.355-0.086,0.61-0.258,0.767c-0.17,0.156-0.461,0.234-0.869,0.234h-6.115c-0.403,0-0.689-0.078-0.861-0.234
		c-0.171-0.156-0.257-0.411-0.257-0.767c0-0.354,0.083-0.605,0.248-0.753c0.165-0.147,0.456-0.222,0.87-0.222h1.939v-7.828h-0.991
		c-0.409,0-0.703-0.079-0.88-0.239c-0.178-0.159-0.266-0.413-0.266-0.762c0-0.354,0.088-0.61,0.261-0.767
		c0.175-0.156,0.469-0.234,0.885-0.234h2.696c0.169,0,0.299,0.035,0.393,0.104c0.093,0.069,0.14,0.164,0.14,0.284V30.49z"/>
	<path fill="#414042" d="M53.986,28.832c0.156,0.667,0.459,1.167,0.906,1.497c0.447,0.331,1.045,0.496,1.791,0.496
		c0.745,0,1.48-0.182,2.209-0.545c0.727-0.363,1.167-0.546,1.316-0.546c0.223,0,0.404,0.083,0.546,0.247
		c0.142,0.166,0.212,0.379,0.212,0.637c0,0.564-0.418,1.053-1.254,1.461c-0.836,0.409-1.869,0.613-3.102,0.613
		c-1.455,0-2.639-0.408-3.549-1.227c-0.912-0.817-1.367-1.869-1.367-3.156c0-1.281,0.455-2.33,1.367-3.147
		c0.91-0.818,2.094-1.227,3.549-1.227c1.299,0,2.375,0.383,3.229,1.15c0.854,0.766,1.28,1.706,1.28,2.818
		c0,0.354-0.085,0.598-0.257,0.73c-0.172,0.132-0.525,0.198-1.06,0.198H53.986z M58.848,27.425c-0.103-0.56-0.365-0.992-0.789-1.299
		c-0.425-0.307-0.977-0.46-1.654-0.46c-0.656,0-1.184,0.146-1.584,0.437c-0.4,0.292-0.678,0.732-0.834,1.322H58.848z"/>
	<path fill="#414042" d="M71.203,30.49h0.145c0.324,0,0.572,0.086,0.744,0.258c0.171,0.171,0.257,0.416,0.257,0.734
		c0,0.35-0.089,0.601-0.267,0.754s-0.471,0.229-0.879,0.229h-0.848c-0.301,0-0.525-0.058-0.672-0.171
		c-0.148-0.114-0.27-0.322-0.365-0.623c-0.5,0.331-1.029,0.584-1.587,0.758c-0.56,0.175-1.126,0.262-1.696,0.262
		c-0.969,0-1.729-0.24-2.281-0.721c-0.553-0.482-0.83-1.141-0.83-1.976c0-0.902,0.358-1.603,1.072-2.102
		c0.717-0.499,1.721-0.749,3.014-0.749c0.289,0,0.594,0.015,0.919,0.045c0.325,0.03,0.688,0.078,1.092,0.145v-0.171
		c0-0.541-0.13-0.953-0.393-1.235c-0.261-0.283-0.647-0.424-1.159-0.424c-0.396,0-0.902,0.147-1.52,0.442
		c-0.616,0.294-1.068,0.442-1.356,0.442c-0.283,0-0.512-0.083-0.686-0.249c-0.175-0.165-0.262-0.383-0.262-0.653
		c0-0.487,0.356-0.874,1.068-1.159c0.713-0.286,1.683-0.429,2.909-0.429c1.279,0,2.197,0.247,2.75,0.739
		c0.553,0.493,0.83,1.329,0.83,2.507V30.49z M69.021,28.75c-0.301-0.066-0.577-0.116-0.829-0.149
		c-0.253-0.033-0.488-0.05-0.704-0.05c-0.661,0-1.181,0.111-1.556,0.334c-0.376,0.222-0.564,0.528-0.564,0.92
		c0,0.349,0.121,0.614,0.361,0.798s0.586,0.275,1.037,0.275c0.415,0,0.806-0.061,1.173-0.181c0.366-0.12,0.728-0.307,1.082-0.56
		V28.75z"/>
	<path fill="#414042" d="M82.395,30.473h0.117c0.338,0,0.59,0.083,0.758,0.248c0.169,0.166,0.253,0.414,0.253,0.744
		c0,0.355-0.085,0.61-0.257,0.767s-0.462,0.234-0.871,0.234h-2.218c-0.403,0-0.694-0.078-0.87-0.234
		c-0.178-0.156-0.267-0.411-0.267-0.767c0-0.33,0.085-0.578,0.257-0.744c0.172-0.165,0.428-0.248,0.771-0.248h0.108v-2.606
		c0-0.722-0.101-1.234-0.302-1.538c-0.202-0.304-0.537-0.456-1.006-0.456c-0.5,0-0.906,0.182-1.223,0.546s-0.473,0.846-0.473,1.447
		v2.606h0.107c0.343,0,0.6,0.083,0.768,0.248c0.168,0.166,0.252,0.414,0.252,0.744c0,0.355-0.088,0.61-0.262,0.767
		s-0.463,0.234-0.865,0.234h-2.237c-0.403,0-0.691-0.078-0.866-0.234c-0.174-0.156-0.262-0.411-0.262-0.767
		c0-0.33,0.084-0.578,0.253-0.744c0.169-0.165,0.425-0.248,0.767-0.248h0.108v-4.365h-0.153c-0.324,0-0.57-0.083-0.738-0.248
		c-0.169-0.165-0.253-0.407-0.253-0.726c0-0.354,0.087-0.61,0.261-0.767s0.469-0.234,0.884-0.234h1.533
		c0.169,0,0.296,0.033,0.384,0.099c0.087,0.066,0.13,0.163,0.13,0.289v0.704c0.276-0.433,0.63-0.759,1.06-0.979
		c0.43-0.219,0.928-0.329,1.493-0.329c0.962,0,1.679,0.292,2.151,0.875c0.472,0.583,0.707,1.473,0.707,2.669V30.473z"/>
</g>
</svg>
