<?xml version="1.0" encoding="utf-8"?>
<!-- Generator: Adobe Illustrator 16.0.0, SVG Export Plug-In . SVG Version: 6.00 Build 0)  -->
<!DOCTYPE svg PUBLIC "-//W3C//DTD SVG 1.1//EN" "http://www.w3.org/Graphics/SVG/1.1/DTD/svg11.dtd">
<svg version="1.1" id="Layer_1" xmlns="http://www.w3.org/2000/svg" xmlns:xlink="http://www.w3.org/1999/xlink" x="0px" y="0px"
	 width="141.778px" height="102.132px" viewBox="0 0 141.778 102.132" enable-background="new 0 0 141.778 102.132"
	 xml:space="preserve">
<g>
	<path fill="#84A2CD" d="M141.781,94.401c0,4.269-3.461,7.729-7.729,7.729H7.806c-4.267,0-7.729-3.463-7.729-7.729V7.732
		C0.077,3.46,3.54,0,7.806,0h126.242c4.271,0,7.73,3.46,7.73,7.732L141.781,94.401L141.781,94.401z"/>
	<path fill="#9EB6DD" d="M0.077,36.092v58.31c0,4.268,3.463,7.73,7.729,7.73h126.242c4.271,0,7.729-3.463,7.729-7.73v-58.31H0.077z"
		/>
	<g>
		<g>
			<path fill="#1B446B" d="M27.026,57.835c0.434,0,0.708,0.041,0.829,0.121c0.12,0.082,0.183,0.232,0.183,0.459
				c0,0.229-0.062,0.39-0.183,0.477s-0.396,0.131-0.829,0.131h-5.109H21.52c-0.202,0-0.354-0.051-0.463-0.152
				c-0.104-0.101-0.16-0.252-0.16-0.455c0-0.224,0.062-0.377,0.188-0.457c0.123-0.082,0.399-0.123,0.833-0.123h1.901V50.25h-1.901
				c-0.421,0-0.694-0.043-0.824-0.131c-0.13-0.087-0.193-0.245-0.193-0.476c0-0.208,0.056-0.36,0.16-0.459
				c0.105-0.098,0.268-0.147,0.479-0.147h0.379h5.109h0.396c0.202,0,0.354,0.05,0.459,0.151s0.155,0.252,0.155,0.455
				c0,0.23-0.062,0.389-0.188,0.476s-0.399,0.131-0.82,0.131h-1.901v7.585H27.026L27.026,57.835z"/>
			<path fill="#1B446B" d="M31.681,57.835v-5.397h-0.159c-0.382,0-0.646-0.045-0.788-0.136c-0.144-0.09-0.214-0.246-0.214-0.471
				c0-0.209,0.061-0.357,0.177-0.453c0.117-0.093,0.311-0.139,0.572-0.139h0.396h0.81c0.15,0,0.271,0.031,0.354,0.093
				s0.126,0.146,0.126,0.25v0.572c0.408-0.382,0.813-0.664,1.217-0.846c0.399-0.182,0.816-0.273,1.25-0.273
				c0.849,0,1.516,0.264,2,0.791c0.483,0.528,0.729,1.258,0.729,2.189v3.814h0.396c0.28,0,0.48,0.047,0.604,0.139
				c0.123,0.093,0.187,0.24,0.187,0.441c0,0.219-0.064,0.375-0.196,0.467c-0.133,0.094-0.366,0.141-0.703,0.141h-1.858
				c-0.358,0-0.592-0.043-0.689-0.127c-0.103-0.084-0.152-0.244-0.152-0.48c0-0.219,0.062-0.369,0.179-0.453
				c0.116-0.084,0.34-0.127,0.666-0.127h0.294V54.33c0-0.656-0.147-1.158-0.445-1.504c-0.298-0.345-0.729-0.518-1.297-0.518
				c-0.572,0-1.077,0.193-1.518,0.581c-0.438,0.388-0.655,0.866-0.655,1.44v3.502h0.295c0.338,0,0.562,0.041,0.683,0.125
				c0.118,0.086,0.177,0.234,0.177,0.455c0,0.233-0.05,0.396-0.149,0.479c-0.103,0.084-0.35,0.127-0.739,0.127H31.69h-0.454
				c-0.229,0-0.401-0.049-0.518-0.146c-0.116-0.099-0.174-0.25-0.174-0.459c0-0.226,0.063-0.377,0.195-0.459
				c0.134-0.08,0.391-0.121,0.771-0.121h0.169L31.681,57.835L31.681,57.835z"/>
		</g>
	</g>
	<g>
		<g>
			<path fill="#1B446B" d="M102.918,54.021c0,1.538-0.429,2.801-1.279,3.785c-0.852,0.984-1.944,1.479-3.274,1.479
				c-1.317,0-2.405-0.494-3.263-1.482c-0.854-0.985-1.284-2.245-1.284-3.778c0-1.549,0.425-2.813,1.271-3.792
				c0.847-0.979,1.938-1.469,3.273-1.469c1.33,0,2.424,0.494,3.274,1.481C102.49,51.229,102.918,52.488,102.918,54.021z
				 M98.363,58.087c0.942,0,1.687-0.359,2.229-1.082c0.542-0.721,0.812-1.715,0.812-2.984c0-1.268-0.271-2.264-0.812-2.984
				c-0.54-0.721-1.283-1.082-2.229-1.082c-0.947,0-1.689,0.358-2.228,1.074c-0.536,0.714-0.805,1.712-0.805,2.993
				c0,1.271,0.271,2.265,0.812,2.983C96.686,57.728,97.427,58.087,98.363,58.087z"/>
			<path fill="#1B446B" d="M106.614,55.916c0,0.707,0.148,1.226,0.446,1.549c0.297,0.326,0.771,0.488,1.414,0.488
				c0.611,0,1.136-0.193,1.569-0.58c0.436-0.389,0.65-0.873,0.65-1.457v-3.478h-1.151c-0.221,0-0.377-0.046-0.478-0.14
				c-0.1-0.092-0.146-0.236-0.146-0.434c0-0.215,0.055-0.372,0.16-0.473c0.104-0.101,0.275-0.152,0.515-0.152h1.793
				c0.214,0,0.362,0.046,0.45,0.139c0.087,0.093,0.13,0.32,0.13,0.678v5.774h0.389c0.273,0,0.475,0.045,0.596,0.135
				c0.118,0.092,0.181,0.238,0.181,0.445c0,0.203-0.06,0.354-0.173,0.455c-0.114,0.102-0.281,0.151-0.501,0.151h-1.278
				c-0.151,0-0.271-0.03-0.354-0.095c-0.086-0.061-0.128-0.146-0.128-0.252V58.1c-0.536,0.415-1,0.7-1.385,0.854
				c-0.385,0.152-0.79,0.229-1.217,0.229c-0.927,0-1.62-0.246-2.084-0.734c-0.464-0.492-0.694-1.234-0.694-2.23V52.43h-0.177
				c-0.383,0-0.644-0.046-0.783-0.138c-0.141-0.09-0.21-0.246-0.21-0.471c0-0.197,0.057-0.345,0.164-0.443
				c0.108-0.098,0.278-0.146,0.509-0.146h1.271c0.196,0,0.333,0.04,0.408,0.118c0.076,0.079,0.112,0.252,0.112,0.521L106.614,55.916
				L106.614,55.916z"/>
			<path fill="#1B446B" d="M121.052,51.714c0.274,0,0.476,0.047,0.603,0.143c0.126,0.096,0.189,0.247,0.189,0.455
				c0,0.197-0.062,0.344-0.178,0.441c-0.118,0.1-0.295,0.146-0.529,0.146h-3.41v2.812c0,0.922,0.119,1.527,0.356,1.82
				c0.236,0.291,0.646,0.438,1.227,0.438c0.511,0,1.122-0.146,1.835-0.445c0.713-0.298,1.152-0.445,1.321-0.445
				c0.157,0,0.29,0.057,0.397,0.168c0.109,0.112,0.164,0.25,0.164,0.414c0,0.184-0.066,0.346-0.206,0.481
				c-0.138,0.14-0.37,0.271-0.701,0.399c-0.552,0.219-1.045,0.379-1.484,0.479c-0.441,0.103-0.855,0.147-1.242,0.147
				c-0.657,0-1.208-0.104-1.654-0.312c-0.444-0.211-0.777-0.521-0.998-0.938c-0.11-0.195-0.19-0.43-0.238-0.699
				c-0.048-0.268-0.07-0.684-0.07-1.245V55.71V52.9H115c-0.234,0-0.405-0.047-0.515-0.141c-0.105-0.094-0.16-0.241-0.16-0.449
				c0-0.229,0.072-0.389,0.221-0.473c0.146-0.084,0.457-0.125,0.936-0.125h0.951v-1.725v-0.446c0-0.241,0.052-0.419,0.155-0.535
				c0.104-0.115,0.266-0.172,0.481-0.172c0.247,0,0.418,0.07,0.516,0.21c0.097,0.14,0.145,0.46,0.145,0.96v1.708h3.323
				L121.052,51.714L121.052,51.714z"/>
		</g>
	</g>
	<rect x="0.077" y="48.702" fill="#1B446B" width="11.494" height="11.495"/>
	<rect x="130.436" y="48.702" fill="#1B446B" width="11.496" height="11.495"/>
	<g>
		<g>
			<path fill="#1B446B" d="M22.512,84.251h0.571c0.326,0,0.557,0.045,0.688,0.135c0.136,0.09,0.202,0.238,0.202,0.445
				c0,0.225-0.06,0.383-0.178,0.473c-0.117,0.09-0.34,0.135-0.665,0.135h-2.828c-0.19,0-0.338-0.053-0.438-0.156
				c-0.103-0.104-0.15-0.254-0.15-0.451c0-0.207,0.057-0.354,0.168-0.445c0.112-0.09,0.299-0.135,0.557-0.135h0.277h0.488v-7.662
				h-0.488c-0.421,0-0.692-0.039-0.816-0.114c-0.123-0.079-0.186-0.229-0.186-0.447c0-0.188,0.05-0.334,0.146-0.429
				c0.1-0.098,0.245-0.146,0.441-0.146h3.553c0.858,0,1.5,0.041,1.924,0.123c0.426,0.082,0.782,0.221,1.074,0.416
				c0.376,0.254,0.672,0.588,0.89,1.002c0.216,0.416,0.322,0.861,0.322,1.34c0,0.646-0.195,1.199-0.594,1.662
				c-0.396,0.463-0.947,0.785-1.654,0.965c0.146,0.084,0.276,0.185,0.394,0.293c0.115,0.113,0.227,0.248,0.333,0.404l1.69,2.594
				h0.277c0.313,0,0.529,0.043,0.647,0.131c0.116,0.086,0.177,0.236,0.177,0.449c0,0.197-0.049,0.351-0.146,0.451
				c-0.099,0.104-0.242,0.156-0.435,0.156h-0.95c-0.275,0-0.546-0.203-0.81-0.607c-0.033-0.033-0.061-0.061-0.075-0.084
				l-1.616-2.449c-0.331-0.5-0.604-0.819-0.82-0.969c-0.217-0.146-0.501-0.219-0.854-0.219h-1.12L22.512,84.251L22.512,84.251z
				 M22.512,76.589v3.402h1.742c0.785,0,1.376-0.146,1.771-0.429c0.396-0.28,0.595-0.705,0.595-1.271
				c0-0.564-0.192-0.992-0.581-1.276c-0.389-0.286-0.967-0.433-1.733-0.433h-1.793L22.512,76.589L22.512,76.589z"/>
			<path fill="#1B446B" d="M36.674,84.369c-0.461,0.416-0.962,0.731-1.503,0.951c-0.542,0.219-1.101,0.328-1.672,0.328
				c-0.836,0-1.513-0.232-2.023-0.697c-0.515-0.468-0.771-1.072-0.771-1.82c0-0.887,0.341-1.571,1.021-2.062
				c0.685-0.487,1.643-0.731,2.876-0.731c0.325,0,0.652,0.021,0.983,0.062s0.671,0.107,1.021,0.197v-0.059
				c0-0.646-0.153-1.123-0.464-1.435c-0.31-0.312-0.788-0.463-1.438-0.463c-0.438,0-0.928,0.114-1.467,0.354
				c-0.539,0.235-0.896,0.354-1.067,0.354c-0.163,0-0.298-0.064-0.403-0.197c-0.104-0.133-0.16-0.303-0.16-0.51
				c0-0.331,0.312-0.609,0.933-0.844c0.618-0.229,1.411-0.346,2.379-0.346c0.985,0,1.732,0.252,2.237,0.754
				c0.507,0.502,0.76,1.244,0.76,2.229v3.812h0.41c0.398,0,0.665,0.041,0.802,0.125c0.136,0.086,0.202,0.236,0.202,0.455
				c0,0.203-0.058,0.354-0.168,0.455c-0.112,0.102-0.281,0.151-0.507,0.151H37.33c-0.157,0-0.286-0.05-0.39-0.144
				c-0.102-0.097-0.168-0.233-0.199-0.414L36.674,84.369z M36.606,81.716c-0.311-0.1-0.606-0.176-0.896-0.223
				s-0.576-0.072-0.861-0.072c-0.864,0-1.547,0.146-2.046,0.438c-0.5,0.291-0.75,0.686-0.75,1.18c0,0.383,0.155,0.694,0.468,0.941
				c0.312,0.247,0.708,0.371,1.19,0.371c0.713,0,1.373-0.188,1.98-0.562c0.608-0.373,0.914-0.762,0.914-1.166L36.606,81.716
				L36.606,81.716z"/>
			<path fill="#1B446B" d="M41.952,84.251v-5.396h-0.159c-0.382,0-0.646-0.045-0.788-0.135c-0.145-0.09-0.214-0.248-0.214-0.473
				c0-0.207,0.06-0.357,0.178-0.449c0.116-0.094,0.309-0.141,0.571-0.141h0.396h0.811c0.149,0,0.271,0.029,0.354,0.094
				c0.084,0.062,0.126,0.146,0.126,0.252v0.572c0.41-0.384,0.814-0.662,1.217-0.849c0.401-0.185,0.818-0.271,1.25-0.271
				c0.85,0,1.517,0.264,2,0.791c0.485,0.525,0.729,1.258,0.729,2.188v3.812h0.396c0.28,0,0.482,0.047,0.605,0.141
				c0.123,0.093,0.186,0.238,0.186,0.439c0,0.221-0.063,0.375-0.195,0.469c-0.134,0.094-0.366,0.141-0.703,0.141h-1.859
				c-0.359,0-0.59-0.043-0.688-0.127c-0.104-0.084-0.151-0.244-0.151-0.479c0-0.219,0.06-0.369,0.177-0.455
				c0.118-0.084,0.34-0.125,0.666-0.125h0.294V80.75c0-0.658-0.146-1.158-0.445-1.504c-0.298-0.346-0.729-0.519-1.297-0.519
				c-0.571,0-1.077,0.192-1.516,0.581s-0.657,0.867-0.657,1.439v3.502h0.295c0.337,0,0.564,0.043,0.684,0.127
				c0.117,0.084,0.178,0.232,0.178,0.453c0,0.234-0.051,0.396-0.151,0.479c-0.101,0.084-0.348,0.127-0.739,0.127h-1.531h-0.454
				c-0.23,0-0.403-0.051-0.521-0.146c-0.113-0.1-0.173-0.25-0.173-0.459c0-0.226,0.065-0.377,0.197-0.457
				c0.132-0.082,0.389-0.123,0.771-0.123h0.172v0.002H41.952z"/>
			<path fill="#1B446B" d="M58.851,84.992c0,0.785-0.039,1.344-0.118,1.672c-0.078,0.328-0.213,0.614-0.402,0.862
				c-0.313,0.415-0.757,0.729-1.32,0.947c-0.567,0.216-1.235,0.323-2.005,0.323c-0.642,0-1.106-0.062-1.401-0.188
				c-0.294-0.123-0.439-0.318-0.439-0.59c0-0.176,0.069-0.326,0.215-0.459c0.144-0.131,0.312-0.195,0.51-0.195
				c0.15,0,0.385,0.02,0.698,0.061c0.312,0.043,0.554,0.062,0.717,0.062c0.83,0,1.42-0.188,1.768-0.571
				c0.351-0.381,0.522-1.035,0.522-1.961v-1.021c-0.344,0.397-0.723,0.688-1.138,0.876c-0.416,0.186-0.895,0.275-1.434,0.275
				c-1.05,0-1.918-0.35-2.604-1.049c-0.688-0.697-1.03-1.584-1.03-2.656c0-1.075,0.354-1.971,1.061-2.682
				c0.707-0.709,1.583-1.064,2.628-1.064c0.434,0,0.854,0.08,1.269,0.24s0.829,0.401,1.251,0.729V78c0-0.117,0.038-0.205,0.112-0.26
				c0.074-0.059,0.193-0.087,0.356-0.087h1.271c0.226,0,0.395,0.052,0.506,0.146c0.112,0.1,0.169,0.246,0.169,0.441
				c0,0.225-0.07,0.383-0.211,0.473c-0.143,0.093-0.403,0.138-0.792,0.138h-0.15v6.142H58.851L58.851,84.992L58.851,84.992z
				 M55.196,78.904c-0.733,0-1.336,0.229-1.802,0.684c-0.466,0.453-0.698,1.043-0.698,1.77c0,0.713,0.232,1.301,0.698,1.756
				C53.86,83.57,54.46,83.8,55.196,83.8c0.729,0,1.329-0.229,1.8-0.688c0.469-0.455,0.701-1.043,0.701-1.756
				s-0.232-1.299-0.701-1.762C56.525,79.134,55.927,78.904,55.196,78.904z"/>
			<path fill="#1B446B" d="M62.934,81.919c0.044,0.809,0.317,1.433,0.819,1.873c0.502,0.438,1.188,0.66,2.06,0.66
				c0.657,0,1.372-0.178,2.146-0.525c0.772-0.352,1.243-0.526,1.403-0.526c0.171,0,0.311,0.054,0.423,0.16
				c0.11,0.106,0.169,0.239,0.169,0.396c0,0.164-0.061,0.312-0.179,0.446c-0.116,0.134-0.306,0.267-0.562,0.396
				c-0.562,0.275-1.143,0.486-1.737,0.635c-0.596,0.148-1.189,0.219-1.781,0.219c-1.277,0-2.304-0.367-3.07-1.104
				c-0.771-0.738-1.153-1.717-1.153-2.938c0-1.237,0.406-2.241,1.222-3.017c0.812-0.768,1.874-1.15,3.184-1.15
				c1.186,0,2.167,0.357,2.945,1.077c0.78,0.722,1.17,1.589,1.17,2.608c0,0.313-0.062,0.525-0.195,0.631
				c-0.132,0.107-0.489,0.16-1.072,0.16h-0.127H62.934L62.934,81.919z M62.976,80.815h5.479c-0.084-0.668-0.362-1.205-0.838-1.61
				c-0.476-0.408-1.059-0.611-1.747-0.611c-0.746,0-1.375,0.197-1.888,0.592C63.474,79.576,63.138,80.121,62.976,80.815z"/>
		</g>
	</g>
	<rect x="0" y="75.119" fill="#1B446B" width="11.496" height="11.494"/>
	<g>
		<g>
			<path fill="#1B446B" d="M22.812,12.833c0.137-0.246,0.276-0.42,0.42-0.523c0.145-0.103,0.325-0.154,0.543-0.154
				c0.335,0,0.572,0.089,0.713,0.267c0.142,0.178,0.21,0.482,0.21,0.913l0.021,2.666c0,0.472-0.077,0.79-0.23,0.954
				c-0.152,0.164-0.433,0.246-0.836,0.246c-0.287,0-0.508-0.068-0.659-0.205c-0.154-0.137-0.286-0.39-0.396-0.759
				c-0.179-0.649-0.461-1.116-0.852-1.4c-0.392-0.283-0.932-0.425-1.62-0.425c-1.055,0-1.858,0.355-2.42,1.066
				s-0.843,1.74-0.843,3.086c0,1.34,0.284,2.369,0.853,3.086c0.567,0.717,1.378,1.077,2.431,1.077c0.718,0,1.509-0.239,2.374-0.718
				c0.864-0.479,1.41-0.718,1.635-0.718c0.269,0,0.49,0.113,0.673,0.338c0.182,0.225,0.271,0.506,0.271,0.841
				c0,0.604-0.53,1.169-1.589,1.702c-1.06,0.533-2.253,0.8-3.579,0.8c-1.791,0-3.24-0.591-4.349-1.774
				c-1.107-1.183-1.661-2.729-1.661-4.635c0-1.839,0.562-3.367,1.683-4.583c1.121-1.216,2.543-1.825,4.268-1.825
				c0.483,0,0.964,0.055,1.437,0.164C21.781,12.429,22.279,12.601,22.812,12.833z"/>
			<path fill="#1B446B" d="M32.194,14.956c1.661,0,3.01,0.465,4.04,1.395c1.032,0.93,1.548,2.123,1.548,3.579
				c0,1.463-0.516,2.659-1.548,3.589c-1.03,0.93-2.379,1.395-4.04,1.395c-1.652,0-2.998-0.465-4.028-1.395
				c-1.032-0.93-1.548-2.126-1.548-3.589c0-1.456,0.519-2.649,1.554-3.579C29.205,15.42,30.547,14.956,32.194,14.956z
				 M32.194,17.119c-0.8,0-1.458,0.261-1.974,0.785c-0.518,0.521-0.774,1.188-0.774,2.004c0,0.82,0.26,1.499,0.774,2.036
				c0.516,0.537,1.174,0.805,1.974,0.805c0.802,0,1.459-0.268,1.979-0.805c0.521-0.537,0.779-1.215,0.779-2.036
				c0-0.813-0.26-1.482-0.773-2.004C33.662,17.38,33.001,17.119,32.194,17.119z"/>
			<path fill="#1B446B" d="M49.103,22.39h0.133c0.385,0,0.67,0.094,0.861,0.282c0.19,0.188,0.286,0.47,0.286,0.846
				c0,0.403-0.097,0.694-0.292,0.872c-0.193,0.178-0.523,0.267-0.988,0.267h-2.521c-0.458,0-0.788-0.089-0.988-0.267
				c-0.202-0.178-0.304-0.468-0.304-0.872c0-0.376,0.099-0.658,0.292-0.846s0.485-0.282,0.877-0.282h0.123v-2.963
				c0-0.82-0.115-1.403-0.346-1.748c-0.229-0.345-0.608-0.518-1.143-0.518c-0.567,0-1.031,0.207-1.39,0.621
				s-0.539,0.962-0.539,1.646v2.963h0.123c0.391,0,0.681,0.094,0.872,0.282c0.189,0.188,0.285,0.47,0.285,0.846
				c0,0.403-0.099,0.694-0.297,0.872c-0.196,0.178-0.524,0.267-0.982,0.267h-2.543c-0.458,0-0.786-0.089-0.983-0.267
				c-0.198-0.178-0.298-0.468-0.298-0.872c0-0.376,0.097-0.658,0.287-0.846c0.189-0.188,0.48-0.282,0.872-0.282h0.123v-4.963H40.45
				c-0.369,0-0.648-0.094-0.843-0.282c-0.19-0.188-0.287-0.463-0.287-0.826c0-0.403,0.101-0.694,0.299-0.872
				c0.196-0.178,0.531-0.267,1.005-0.267h1.743c0.189,0,0.336,0.038,0.437,0.113c0.099,0.075,0.147,0.185,0.147,0.328v0.8
				c0.312-0.492,0.716-0.863,1.203-1.113c0.488-0.249,1.056-0.374,1.697-0.374c1.094,0,1.909,0.332,2.445,0.995
				c0.536,0.663,0.806,1.675,0.806,3.035L49.103,22.39L49.103,22.39z"/>
			<path fill="#1B446B" d="M54.691,24.512c-0.178,0.137-0.359,0.241-0.549,0.312c-0.188,0.072-0.381,0.108-0.579,0.108
				c-0.294,0-0.501-0.079-0.62-0.236c-0.12-0.157-0.18-0.451-0.18-0.882V22.45c0-0.451,0.074-0.771,0.226-0.958
				c0.151-0.187,0.41-0.282,0.779-0.282c0.402,0,0.73,0.195,0.983,0.584c0.148,0.212,0.275,0.369,0.379,0.472
				c0.335,0.301,0.726,0.526,1.169,0.677c0.444,0.151,0.95,0.226,1.519,0.226c0.492,0,0.887-0.096,1.181-0.287
				c0.294-0.191,0.439-0.441,0.439-0.749c0-0.554-0.79-0.937-2.369-1.148c-0.349-0.041-0.622-0.079-0.818-0.113
				c-1.188-0.164-2.074-0.487-2.655-0.969c-0.581-0.481-0.872-1.129-0.872-1.943c0-0.964,0.349-1.709,1.046-2.235
				c0.696-0.526,1.691-0.79,2.983-0.79c0.442,0,0.898,0.036,1.369,0.107c0.468,0.072,0.947,0.183,1.439,0.333
				c0.146-0.171,0.295-0.297,0.457-0.379c0.16-0.082,0.34-0.123,0.538-0.123c0.279,0,0.493,0.087,0.641,0.262
				c0.147,0.174,0.223,0.438,0.223,0.784v1.261c0,0.294-0.074,0.521-0.228,0.682c-0.149,0.161-0.36,0.241-0.636,0.241
				c-0.28,0-0.762-0.244-1.438-0.733c-0.683-0.489-1.362-0.733-2.048-0.733c-0.531,0-0.945,0.087-1.239,0.262
				c-0.294,0.174-0.44,0.415-0.44,0.723c0,0.479,0.614,0.8,1.846,0.964c0.354,0.041,0.638,0.075,0.843,0.103
				c1.545,0.226,2.604,0.562,3.185,1.01c0.577,0.448,0.866,1.113,0.866,1.995c0,1.032-0.381,1.831-1.145,2.394
				c-0.763,0.564-1.844,0.846-3.246,0.846c-0.547,0-1.071-0.036-1.577-0.108C55.652,24.753,55.163,24.649,54.691,24.512z"/>
			<path fill="#1B446B" d="M69.293,15.755h3.127c0.473,0,0.808,0.085,1.005,0.256c0.198,0.171,0.298,0.455,0.298,0.854
				c0,0.403-0.102,0.694-0.303,0.872c-0.201,0.178-0.534,0.267-1,0.267h-3.127v2.625c0,0.738,0.111,1.244,0.338,1.518
				c0.226,0.274,0.622,0.41,1.188,0.41c0.533,0,1.162-0.154,1.889-0.461c0.726-0.307,1.21-0.461,1.456-0.461
				c0.278,0,0.521,0.111,0.724,0.333c0.201,0.222,0.303,0.49,0.303,0.805c0,0.526-0.478,1.007-1.432,1.44
				c-0.952,0.435-2.034,0.651-3.244,0.651c-0.704,0-1.323-0.096-1.856-0.287c-0.531-0.191-0.952-0.465-1.261-0.82
				c-0.227-0.273-0.386-0.602-0.48-0.984c-0.098-0.382-0.146-1.022-0.146-1.917v-0.226v-2.625h-0.964
				c-0.466,0-0.794-0.089-0.99-0.267c-0.192-0.178-0.292-0.468-0.292-0.872c0-0.404,0.098-0.688,0.287-0.856
				c0.19-0.167,0.522-0.251,0.995-0.251h0.964v-2.399c0-0.472,0.099-0.803,0.292-0.995c0.193-0.192,0.52-0.287,0.969-0.287
				c0.451,0,0.775,0.095,0.971,0.286c0.194,0.189,0.292,0.521,0.292,0.995v2.397H69.293z"/>
			<path fill="#1B446B" d="M86.786,22.41h0.164c0.367,0,0.649,0.097,0.846,0.292c0.195,0.194,0.292,0.473,0.292,0.835
				c0,0.396-0.103,0.682-0.302,0.856c-0.202,0.175-0.535,0.262-1,0.262H85.82c-0.342,0-0.597-0.065-0.764-0.195
				c-0.168-0.13-0.307-0.366-0.416-0.708c-0.565,0.376-1.169,0.663-1.806,0.861c-0.636,0.198-1.277,0.297-1.928,0.297
				c-1.103,0-1.967-0.273-2.596-0.82s-0.941-1.295-0.941-2.246c0-1.025,0.405-1.822,1.22-2.389c0.812-0.567,1.955-0.851,3.426-0.851
				c0.328,0,0.677,0.017,1.046,0.051c0.369,0.034,0.783,0.089,1.241,0.164v-0.195c0-0.615-0.148-1.083-0.446-1.405
				c-0.297-0.321-0.734-0.479-1.315-0.479c-0.451,0-1.026,0.167-1.729,0.502s-1.215,0.502-1.543,0.502
				c-0.321,0-0.581-0.094-0.777-0.282c-0.198-0.188-0.299-0.436-0.299-0.743c0-0.554,0.405-0.993,1.217-1.317
				c0.812-0.325,1.911-0.487,3.307-0.487c1.456,0,2.499,0.28,3.128,0.841c0.628,0.561,0.942,1.511,0.942,2.851L86.786,22.41
				L86.786,22.41z M84.305,20.431c-0.343-0.075-0.656-0.131-0.943-0.169c-0.285-0.038-0.554-0.057-0.8-0.057
				c-0.752,0-1.342,0.126-1.77,0.379c-0.43,0.253-0.643,0.602-0.643,1.046c0,0.396,0.139,0.699,0.41,0.908
				c0.272,0.209,0.667,0.312,1.181,0.312c0.472,0,0.914-0.068,1.331-0.205c0.419-0.137,0.827-0.349,1.23-0.636L84.305,20.431
				L84.305,20.431z"/>
			<path fill="#1B446B" d="M94.743,19.088v3.322h2.42c0.465,0,0.794,0.085,0.988,0.256s0.292,0.455,0.292,0.851
				c0,0.403-0.098,0.694-0.292,0.872c-0.193,0.178-0.523,0.267-0.988,0.267h-5.731c-0.473,0-0.808-0.089-1.005-0.267
				c-0.198-0.178-0.298-0.468-0.298-0.872c0-0.396,0.098-0.68,0.292-0.851c0.192-0.171,0.531-0.256,1.011-0.256h0.778v-4.983H91.77
				c-0.465,0-0.794-0.087-0.99-0.261c-0.192-0.175-0.292-0.463-0.292-0.867c0-0.404,0.096-0.69,0.282-0.861
				c0.188-0.171,0.521-0.256,1-0.256h2.186c0.186,0,0.326,0.04,0.432,0.118c0.103,0.078,0.153,0.186,0.153,0.323v1.518
				c0.745-0.8,1.439-1.371,2.086-1.712c0.646-0.342,1.343-0.513,2.087-0.513c0.678,0,1.214,0.152,1.608,0.456
				c0.396,0.305,0.597,0.713,0.597,1.226c0,0.396-0.139,0.723-0.41,0.979c-0.272,0.256-0.625,0.384-1.056,0.384
				c-0.31,0-0.674-0.113-1.094-0.338c-0.421-0.226-0.713-0.338-0.877-0.338c-0.328,0-0.714,0.147-1.159,0.441
				S95.352,18.473,94.743,19.088z"/>
			<path fill="#1B446B" d="M109.242,22.41h2.203c0.474,0,0.809,0.085,1.007,0.256c0.196,0.171,0.297,0.455,0.297,0.851
				c0,0.403-0.103,0.694-0.305,0.872c-0.2,0.178-0.533,0.267-1,0.267h-6.932c-0.466,0-0.799-0.089-1-0.267
				c-0.202-0.178-0.304-0.468-0.304-0.872c0-0.396,0.099-0.68,0.292-0.851s0.532-0.256,1.011-0.256h2.204v-4.983h-1.158
				c-0.458,0-0.786-0.087-0.982-0.261c-0.198-0.175-0.299-0.463-0.299-0.867c0-0.404,0.098-0.69,0.287-0.861
				c0.19-0.171,0.522-0.256,0.995-0.256h3.086c0.19,0,0.338,0.04,0.44,0.118c0.104,0.078,0.153,0.186,0.153,0.323L109.242,22.41
				L109.242,22.41z M107.766,10.546c0.499,0,0.831,0.096,0.995,0.287c0.163,0.191,0.245,0.649,0.245,1.374
				c0,0.697-0.073,1.13-0.22,1.297c-0.146,0.168-0.494,0.251-1.041,0.251c-0.533,0-0.877-0.079-1.03-0.236s-0.23-0.472-0.23-0.943
				c0-0.875,0.079-1.432,0.236-1.671C106.878,10.666,107.226,10.546,107.766,10.546z"/>
			<path fill="#1B446B" d="M124.715,22.39h0.135c0.383,0,0.67,0.094,0.86,0.282c0.189,0.188,0.287,0.47,0.287,0.846
				c0,0.403-0.099,0.694-0.292,0.872c-0.194,0.178-0.524,0.267-0.99,0.267h-2.521c-0.459,0-0.789-0.089-0.988-0.267
				c-0.201-0.178-0.305-0.468-0.305-0.872c0-0.376,0.1-0.658,0.293-0.846c0.195-0.188,0.486-0.282,0.877-0.282h0.123v-2.963
				c0-0.82-0.113-1.403-0.344-1.748c-0.229-0.345-0.61-0.518-1.145-0.518c-0.566,0-1.03,0.207-1.392,0.621
				c-0.358,0.414-0.538,0.962-0.538,1.646v2.963h0.123c0.392,0,0.683,0.094,0.872,0.282c0.19,0.188,0.287,0.47,0.287,0.846
				c0,0.403-0.101,0.694-0.298,0.872c-0.198,0.178-0.526,0.267-0.984,0.267h-2.543c-0.458,0-0.786-0.089-0.982-0.267
				c-0.197-0.178-0.297-0.468-0.297-0.872c0-0.376,0.096-0.658,0.285-0.846c0.191-0.188,0.482-0.282,0.872-0.282h0.123v-4.963
				h-0.174c-0.369,0-0.647-0.094-0.841-0.282c-0.194-0.188-0.287-0.463-0.287-0.826c0-0.403,0.099-0.694,0.297-0.872
				c0.198-0.178,0.533-0.267,1.005-0.267h1.743c0.19,0,0.336,0.038,0.438,0.113c0.101,0.075,0.146,0.185,0.146,0.328v0.8
				c0.313-0.492,0.717-0.863,1.205-1.113c0.487-0.249,1.055-0.374,1.696-0.374c1.095,0,1.908,0.332,2.445,0.995
				c0.535,0.663,0.805,1.675,0.805,3.035L124.715,22.39L124.715,22.39z"/>
		</g>
	</g>
</g>
</svg>
