<?xml version="1.0" encoding="utf-8"?>
<!-- Generator: Adobe Illustrator 16.0.0, SVG Export Plug-In . SVG Version: 6.00 Build 0)  -->
<!DOCTYPE svg PUBLIC "-//W3C//DTD SVG 1.1//EN" "http://www.w3.org/Graphics/SVG/1.1/DTD/svg11.dtd">
<svg version="1.1" id="Layer_1" xmlns="http://www.w3.org/2000/svg" xmlns:xlink="http://www.w3.org/1999/xlink" x="0px" y="0px"
	 width="65.818px" height="86.836px" viewBox="0 0 65.818 86.836" enable-background="new 0 0 65.818 86.836" xml:space="preserve">
<g>
	<path d="M0,83.354c0,1.924,1.559,3.482,3.481,3.482h41.562c1.923,0,3.481-1.56,3.481-3.482V3.482c0-1.924-1.56-3.482-3.481-3.482
		H3.482C1.559,0,0,1.559,0,3.482V83.354z"/>
	<path fill="#A7A9AC" d="M17.499,33.715c1.396,0.897,2.898,1.491,4.43,1.831l34.464,14.246c2.88,1.848,6.712,1.012,8.562-1.865
		c1.848-2.881,1.013-6.712-1.866-8.561L35.789,13.958c-0.945-1.253-2.111-2.37-3.51-3.266c-6.357-4.082-14.82-2.236-18.901,4.12
		C9.296,21.17,11.141,29.633,17.499,33.715z M18.869,23.846c-1.106-3.124,0.529-6.553,3.652-7.659
		c3.125-1.106,6.554,0.529,7.659,3.653c1.106,3.124-0.528,6.552-3.653,7.659C23.404,28.604,19.975,26.969,18.869,23.846z"/>
</g>
</svg>
