<?xml version="1.0" encoding="utf-8"?>
<!-- Generator: Adobe Illustrator 16.0.0, SVG Export Plug-In . SVG Version: 6.00 Build 0)  -->
<!DOCTYPE svg PUBLIC "-//W3C//DTD SVG 1.1//EN" "http://www.w3.org/Graphics/SVG/1.1/DTD/svg11.dtd">
<svg version="1.1" id="Layer_1" xmlns="http://www.w3.org/2000/svg" xmlns:xlink="http://www.w3.org/1999/xlink" x="0px" y="0px"
	 width="50.352px" height="39.785px" viewBox="0 0 50.352 39.785" enable-background="new 0 0 50.352 39.785" xml:space="preserve">
<g>
	<path fill="#F7C45A" d="M50.351,6.526c0-0.767-0.138-1.5-0.376-2.186c-0.849-2.589-3.152-4.448-5.872-4.448H6.633
		C2.97-0.107,0,2.862,0,6.526v26.517c0,3.662,2.971,6.635,6.633,6.635h37.083h0.388c2.72,0,5.022-1.861,5.872-4.449
		c0.238-0.686,0.376-1.418,0.376-2.186L50.351,6.526L50.351,6.526z"/>
</g>
<path fill="none" stroke="#754E1F" stroke-miterlimit="10" d="M0.709,21.05c1.786,8.624,6.528,16.607,7.706,5.7
	c4.036-37.398,6.86-13.324,9.173-2.021c3.303,16.145,8.439,3.516,8.439,3.516"/>
<g>
	<line fill="none" stroke="#F05F58" stroke-miterlimit="10" x1="29.245" y1="39.893" x2="29.245" y2="-0.107"/>
	<circle fill="#F05F58" cx="29.245" cy="26.91" r="4.069"/>
</g>
</svg>
