<?xml version="1.0" encoding="utf-8"?>
<!-- Generator: Adobe Illustrator 16.0.0, SVG Export Plug-In . SVG Version: 6.00 Build 0)  -->
<!DOCTYPE svg PUBLIC "-//W3C//DTD SVG 1.1//EN" "http://www.w3.org/Graphics/SVG/1.1/DTD/svg11.dtd">
<svg version="1.1" id="Layer_1" xmlns="http://www.w3.org/2000/svg" xmlns:xlink="http://www.w3.org/1999/xlink" x="0px" y="0px"
	 width="78.988px" height="57.987px" viewBox="0 0 78.988 57.987" enable-background="new 0 0 78.988 57.987" xml:space="preserve">
<g>
	<g>
		<path fill="#84A2CD" d="M78.988,51.312c0,3.688-2.988,6.676-6.676,6.676H6.676C2.99,57.987,0,54.999,0,51.312V6.676
			C0,2.989,2.99,0,6.676,0h65.637C76,0,78.988,2.989,78.988,6.676V51.312z"/>
		<rect y="23.247" fill="#1B446B" width="11.496" height="11.494"/>
		<rect x="67.492" y="23.247" fill="#1B446B" width="11.496" height="11.494"/>
	</g>
</g>
<g>
	<path fill="#1B446B" d="M25.181,34.597c-0.178,0.137-0.361,0.242-0.549,0.312c-0.188,0.072-0.381,0.108-0.579,0.108
		c-0.294,0-0.501-0.079-0.62-0.235c-0.12-0.158-0.18-0.451-0.18-0.883v-1.363c0-0.451,0.075-0.771,0.226-0.959
		c0.15-0.188,0.41-0.281,0.779-0.281c0.403,0,0.731,0.194,0.984,0.584c0.15,0.212,0.277,0.369,0.379,0.472
		c0.335,0.301,0.725,0.526,1.169,0.677s0.95,0.226,1.518,0.226c0.492,0,0.885-0.096,1.179-0.287s0.441-0.44,0.441-0.749
		c0-0.553-0.79-0.936-2.369-1.148c-0.349-0.041-0.622-0.078-0.82-0.112c-1.189-0.164-2.075-0.487-2.656-0.97
		c-0.581-0.481-0.872-1.129-0.872-1.942c0-0.964,0.349-1.709,1.046-2.235s1.692-0.79,2.984-0.79c0.444,0,0.9,0.036,1.369,0.107
		c0.468,0.072,0.949,0.183,1.441,0.333c0.144-0.171,0.295-0.297,0.457-0.379c0.16-0.082,0.34-0.123,0.538-0.123
		c0.28,0,0.494,0.087,0.641,0.262c0.147,0.174,0.221,0.436,0.221,0.784v1.261c0,0.294-0.075,0.521-0.226,0.682
		s-0.362,0.241-0.636,0.241c-0.28,0-0.761-0.244-1.44-0.733c-0.681-0.489-1.362-0.733-2.046-0.733c-0.533,0-0.947,0.087-1.241,0.262
		c-0.294,0.174-0.441,0.415-0.441,0.723c0,0.479,0.615,0.8,1.846,0.964c0.355,0.041,0.636,0.075,0.841,0.103
		c1.545,0.226,2.606,0.562,3.184,1.01c0.578,0.449,0.867,1.113,0.867,1.995c0,1.032-0.381,1.831-1.143,2.394
		c-0.763,0.564-1.844,0.847-3.246,0.847c-0.547,0-1.073-0.036-1.579-0.108C26.141,34.839,25.652,34.733,25.181,34.597z"/>
	<path fill="#1B446B" d="M41.926,32.495h2.204c0.472,0,0.807,0.086,1.005,0.256c0.198,0.172,0.297,0.455,0.297,0.852
		c0,0.403-0.101,0.693-0.303,0.871c-0.201,0.178-0.534,0.268-0.999,0.268h-6.932c-0.465,0-0.798-0.09-1-0.268
		c-0.202-0.178-0.303-0.468-0.303-0.871c0-0.396,0.098-0.68,0.292-0.852c0.195-0.17,0.532-0.256,1.01-0.256h2.205v-4.983h-1.159
		c-0.458,0-0.786-0.087-0.984-0.261c-0.198-0.175-0.297-0.463-0.297-0.867s0.096-0.69,0.287-0.861s0.523-0.256,0.995-0.256h3.086
		c0.191,0,0.339,0.04,0.441,0.118s0.154,0.186,0.154,0.323V32.495z M40.449,20.631c0.498,0,0.83,0.096,0.994,0.287
		s0.246,0.649,0.246,1.374c0,0.697-0.074,1.13-0.221,1.297c-0.146,0.168-0.494,0.251-1.041,0.251c-0.533,0-0.876-0.079-1.03-0.236
		c-0.154-0.157-0.231-0.472-0.231-0.943c0-0.875,0.079-1.432,0.236-1.671S39.909,20.631,40.449,20.631z"/>
	<path fill="#1B446B" d="M57.398,32.475h0.133c0.383,0,0.67,0.095,0.861,0.282s0.287,0.47,0.287,0.846
		c0,0.403-0.097,0.693-0.292,0.871c-0.194,0.178-0.524,0.268-0.989,0.268h-2.522c-0.458,0-0.788-0.09-0.989-0.268
		c-0.202-0.178-0.303-0.468-0.303-0.871c0-0.376,0.098-0.658,0.292-0.846c0.195-0.188,0.487-0.282,0.877-0.282h0.123v-2.963
		c0-0.82-0.114-1.403-0.344-1.748s-0.61-0.518-1.144-0.518c-0.566,0-1.03,0.207-1.389,0.621c-0.359,0.414-0.539,0.962-0.539,1.646
		v2.963h0.123c0.391,0,0.681,0.095,0.872,0.282s0.287,0.47,0.287,0.846c0,0.403-0.099,0.693-0.298,0.871
		c-0.197,0.178-0.525,0.268-0.984,0.268h-2.543c-0.457,0-0.785-0.09-0.984-0.268c-0.197-0.178-0.297-0.468-0.297-0.871
		c0-0.376,0.096-0.658,0.287-0.846s0.482-0.282,0.871-0.282h0.123v-4.963h-0.174c-0.369,0-0.649-0.094-0.841-0.282
		s-0.287-0.463-0.287-0.826c0-0.403,0.099-0.694,0.298-0.872c0.197-0.178,0.533-0.267,1.004-0.267h1.744
		c0.191,0,0.336,0.038,0.436,0.113c0.099,0.075,0.148,0.185,0.148,0.328v0.8c0.314-0.492,0.716-0.863,1.205-1.113
		c0.488-0.249,1.055-0.374,1.697-0.374c1.094,0,1.908,0.332,2.445,0.995c0.536,0.663,0.805,1.675,0.805,3.035V32.475z"/>
</g>
</svg>
