<?xml version="1.0" encoding="utf-8"?>
<!-- Generator: Adobe Illustrator 16.0.0, SVG Export Plug-In . SVG Version: 6.00 Build 0)  -->
<!DOCTYPE svg PUBLIC "-//W3C//DTD SVG 1.1//EN" "http://www.w3.org/Graphics/SVG/1.1/DTD/svg11.dtd">
<svg version="1.1" id="Layer_1" xmlns="http://www.w3.org/2000/svg" xmlns:xlink="http://www.w3.org/1999/xlink" x="0px" y="0px"
	 width="22.678px" height="22.678px" viewBox="0 0 22.678 22.678" enable-background="new 0 0 22.678 22.678" xml:space="preserve">
<g>
	<path fill="#FFFFFF" d="M11.669,0C11.385,0,5.247,0.017,4.2,1.396C4.083,1.458,4,1.58,4,1.723C4,1.808,4.017,1.89,4.048,1.968V4.72
		c0,1.798,7.312,1.818,7.622,1.818c0.312,0,7.623-0.021,7.623-1.818V1.819C19.292,0.021,11.981,0,11.669,0z M11.669,0.738
		c3.963,0,6.351,0.604,6.813,1.01c-0.315,0.399-2.735,1.059-6.862,1.059c-3.961,0-6.35-0.604-6.812-1.009
		C5.124,1.394,7.543,0.738,11.669,0.738z"/>
	<path fill="#FFFFFF" d="M18.923,5.899c-0.198,0-0.36,0.158-0.366,0.355C18.367,6.65,15.926,7.35,11.669,7.35
		c-4.256,0-6.695-0.699-6.884-1.096C4.778,6.057,4.616,5.899,4.417,5.899c-0.204,0-0.369,0.166-0.369,0.369v3.191
		c0,1.798,7.312,1.817,7.622,1.817c0.312,0,7.623-0.021,7.623-1.817V6.268C19.292,6.064,19.126,5.899,18.923,5.899z"/>
	<path fill="#FFFFFF" d="M18.923,10.686c-0.198,0-0.36,0.158-0.366,0.355c-0.189,0.396-2.631,1.096-6.888,1.096
		c-4.256,0-6.695-0.699-6.884-1.096c-0.007-0.197-0.169-0.355-0.368-0.355c-0.204,0-0.369,0.166-0.369,0.369v3.191
		c0,1.798,7.312,1.816,7.622,1.816c0.312,0,7.623-0.021,7.623-1.816v-3.191C19.292,10.852,19.126,10.686,18.923,10.686z"/>
</g>
</svg>
