<?xml version="1.0" encoding="utf-8"?>
<!-- Generator: Adobe Illustrator 16.0.0, SVG Export Plug-In . SVG Version: 6.00 Build 0)  -->
<!DOCTYPE svg PUBLIC "-//W3C//DTD SVG 1.1//EN" "http://www.w3.org/Graphics/SVG/1.1/DTD/svg11.dtd">
<svg version="1.1" id="Layer_1" xmlns="http://www.w3.org/2000/svg" xmlns:xlink="http://www.w3.org/1999/xlink" x="0px" y="0px"
	 width="50.352px" height="40.15px" viewBox="0 0 50.352 40.15" enable-background="new 0 0 50.352 40.15" xml:space="preserve">
<g>
	<path fill="#565656" d="M43.729,40.15H7c-3.855,0-6.992-3.138-6.992-6.994V7.165C0.008,3.31,3.145,0.172,7,0.172h36.729
		c2.799,0,5.3,1.888,6.222,4.697c0.26,0.748,0.394,1.522,0.394,2.295v25.992c0,0.772-0.134,1.549-0.396,2.304
		C49.029,38.263,46.528,40.15,43.729,40.15z"/>
	<path fill="#FFFFFF" d="M7,1.152c-3.315,0-6.012,2.697-6.012,6.013v25.991c0,3.315,2.695,6.015,6.012,6.015h36.729
		c2.374,0,4.5-1.617,5.291-4.023c0.229-0.659,0.345-1.325,0.345-1.99V7.165c0-0.663-0.116-1.329-0.344-1.98
		c-0.792-2.414-2.918-4.031-5.292-4.031L7,1.152L7,1.152z"/>
	<g>
		<path fill="#494949" d="M8.155,11.952h0.23c0.267,0,0.475,0.049,0.623,0.147c0.149,0.098,0.224,0.238,0.224,0.419
			c0,0.191-0.064,0.333-0.195,0.423c-0.13,0.091-0.336,0.136-0.619,0.136H6.213c-0.16,0-0.292-0.053-0.399-0.159
			c-0.106-0.106-0.159-0.24-0.159-0.399c0-0.197,0.071-0.341,0.215-0.432c0.144-0.09,0.373-0.135,0.687-0.135h0.16l2.587-2.651
			L6.765,6.834H6.654c-0.31,0-0.523-0.041-0.644-0.124C5.89,6.628,5.831,6.482,5.831,6.275c0-0.219,0.066-0.369,0.203-0.451
			C6.17,5.741,6.43,5.7,6.813,5.7H8.45c0.287,0,0.496,0.047,0.626,0.14c0.13,0.094,0.195,0.238,0.195,0.435
			c0,0.181-0.072,0.319-0.22,0.415C8.906,6.786,8.695,6.834,8.417,6.834H8.353l1.718,1.685l1.637-1.685H11.54
			c-0.298,0-0.52-0.044-0.663-0.132s-0.215-0.225-0.215-0.411c0-0.208,0.063-0.357,0.19-0.451c0.128-0.093,0.335-0.14,0.623-0.14
			h2.076c0.165,0,0.299,0.052,0.403,0.155c0.104,0.104,0.156,0.238,0.156,0.403c0,0.197-0.067,0.343-0.2,0.436
			c-0.133,0.093-0.347,0.14-0.64,0.14h-0.224l-2.292,2.387l2.794,2.731h0.08c0.203,0,0.359,0.049,0.471,0.147
			c0.112,0.098,0.168,0.238,0.168,0.419c0,0.213-0.063,0.359-0.191,0.439c-0.127,0.079-0.392,0.119-0.791,0.119h-1.628
			c-0.282,0-0.49-0.045-0.623-0.136c-0.133-0.09-0.199-0.231-0.199-0.423c0-0.176,0.062-0.314,0.191-0.415
			c0.128-0.102,0.303-0.151,0.526-0.151h0.447L9.99,9.987L8.155,11.952z"/>
		<path fill="#494949" d="M17.966,11.952h0.231c0.266,0,0.474,0.049,0.623,0.147c0.148,0.098,0.224,0.238,0.224,0.419
			c0,0.191-0.065,0.333-0.196,0.423c-0.13,0.091-0.336,0.136-0.619,0.136h-2.203c-0.16,0-0.292-0.053-0.399-0.159
			s-0.16-0.24-0.16-0.399c0-0.197,0.072-0.341,0.215-0.432c0.145-0.09,0.373-0.135,0.688-0.135h0.16l2.587-2.651l-2.539-2.467
			h-0.112c-0.309,0-0.523-0.041-0.643-0.124c-0.12-0.082-0.18-0.228-0.18-0.435c0-0.219,0.067-0.369,0.203-0.451
			C15.981,5.741,16.241,5.7,16.624,5.7h1.637c0.287,0,0.496,0.047,0.626,0.14c0.13,0.094,0.196,0.238,0.196,0.436
			c0,0.181-0.073,0.319-0.22,0.415c-0.147,0.096-0.358,0.144-0.636,0.144h-0.063l1.717,1.685l1.637-1.685h-0.167
			c-0.298,0-0.519-0.044-0.663-0.132c-0.144-0.088-0.215-0.225-0.215-0.411c0-0.208,0.064-0.357,0.191-0.451
			c0.128-0.093,0.335-0.14,0.623-0.14h2.076c0.165,0,0.299,0.052,0.402,0.155c0.104,0.104,0.156,0.238,0.156,0.403
			c0,0.197-0.067,0.343-0.2,0.437c-0.133,0.093-0.346,0.14-0.639,0.14H22.86l-2.292,2.387l2.794,2.731h0.079
			c0.203,0,0.359,0.049,0.472,0.147c0.111,0.098,0.168,0.238,0.168,0.419c0,0.213-0.064,0.359-0.192,0.439
			c-0.127,0.079-0.391,0.119-0.791,0.119h-1.628c-0.282,0-0.49-0.045-0.623-0.136c-0.133-0.09-0.199-0.231-0.199-0.423
			c0-0.176,0.063-0.314,0.191-0.415c0.128-0.102,0.303-0.151,0.527-0.151h0.446l-2.01-1.965L17.966,11.952z"/>
		<path fill="#494949" d="M27.779,11.952h0.23c0.268,0,0.475,0.049,0.623,0.147c0.149,0.098,0.224,0.238,0.224,0.419
			c0,0.191-0.064,0.333-0.194,0.423c-0.131,0.091-0.337,0.136-0.619,0.136h-2.204c-0.159,0-0.292-0.053-0.398-0.159
			c-0.105-0.106-0.159-0.24-0.159-0.399c0-0.197,0.071-0.341,0.215-0.432c0.144-0.09,0.372-0.135,0.687-0.135h0.16l2.587-2.651
			L26.39,6.834h-0.111c-0.31,0-0.522-0.041-0.644-0.124c-0.12-0.082-0.179-0.228-0.179-0.435c0-0.219,0.066-0.369,0.203-0.451
			C25.795,5.741,26.055,5.7,26.438,5.7h1.638c0.287,0,0.496,0.047,0.627,0.14c0.13,0.094,0.194,0.238,0.194,0.436
			c0,0.181-0.072,0.319-0.22,0.415c-0.146,0.096-0.357,0.144-0.635,0.144h-0.063l1.717,1.685l1.637-1.685h-0.167
			c-0.299,0-0.521-0.044-0.663-0.132s-0.216-0.225-0.216-0.411c0-0.208,0.063-0.357,0.191-0.451c0.127-0.093,0.335-0.14,0.622-0.14
			h2.076c0.165,0,0.3,0.052,0.403,0.155c0.104,0.104,0.155,0.238,0.155,0.403c0,0.197-0.066,0.343-0.199,0.437
			c-0.133,0.093-0.347,0.14-0.64,0.14h-0.224l-2.291,2.387l2.794,2.731h0.08c0.202,0,0.359,0.049,0.471,0.147
			c0.112,0.099,0.168,0.238,0.168,0.419c0,0.213-0.063,0.359-0.19,0.439c-0.128,0.079-0.393,0.119-0.791,0.119h-1.629
			c-0.282,0-0.489-0.045-0.622-0.136c-0.134-0.09-0.2-0.231-0.2-0.423c0-0.176,0.064-0.314,0.192-0.415
			c0.127-0.102,0.303-0.151,0.525-0.151h0.447l-2.012-1.965L27.779,11.952z"/>
	</g>
</g>
</svg>
