<?xml version="1.0" encoding="utf-8"?>
<!-- Generator: Adobe Illustrator 16.0.0, SVG Export Plug-In . SVG Version: 6.00 Build 0)  -->
<!DOCTYPE svg PUBLIC "-//W3C//DTD SVG 1.1//EN" "http://www.w3.org/Graphics/SVG/1.1/DTD/svg11.dtd">
<svg version="1.1" id="Layer_1" xmlns="http://www.w3.org/2000/svg" xmlns:xlink="http://www.w3.org/1999/xlink" x="0px" y="0px"
	 width="78.987px" height="57.987px" viewBox="0 0 78.987 57.987" enable-background="new 0 0 78.987 57.987" xml:space="preserve">
<g>
	<g>
		<path fill="#84A2CD" d="M78.987,51.312c0,3.688-2.988,6.676-6.676,6.676H6.676C2.989,57.987,0,54.999,0,51.312V6.676
			C0,2.989,2.989,0,6.676,0h65.635c3.688,0,6.676,2.989,6.676,6.676V51.312z"/>
		<rect y="5.005" fill="#1B446B" width="11.497" height="11.494"/>
		<rect y="39.894" fill="#1B446B" width="11.497" height="11.494"/>
		<rect x="67.491" y="23.247" fill="#1B446B" width="11.496" height="11.494"/>
	</g>
</g>
<g>
	<path fill="#1B446B" d="M24.939,33.776v2.789h1.302c0.465,0,0.798,0.09,1,0.268s0.303,0.468,0.303,0.871
		c0,0.396-0.099,0.68-0.297,0.852c-0.198,0.17-0.533,0.256-1.005,0.256h-4.348c-0.472,0-0.803-0.084-0.995-0.252
		c-0.191-0.167-0.287-0.452-0.287-0.855s0.098-0.693,0.292-0.871c0.195-0.178,0.525-0.268,0.99-0.268h0.605v-9.054h-0.164
		c-0.362,0-0.639-0.096-0.831-0.287s-0.287-0.472-0.287-0.841c0-0.403,0.096-0.69,0.287-0.861s0.523-0.256,0.995-0.256h1.579
		c0.198,0,0.345,0.036,0.441,0.107c0.096,0.072,0.144,0.176,0.144,0.313v0.738c0.349-0.465,0.771-0.815,1.266-1.051
		c0.496-0.235,1.055-0.354,1.677-0.354c1.401,0,2.563,0.448,3.486,1.343s1.384,2.023,1.384,3.384c0,1.422-0.448,2.6-1.343,3.533
		c-0.896,0.932-2.023,1.398-3.384,1.398c-0.554,0-1.071-0.076-1.554-0.23C25.713,34.294,25.294,34.071,24.939,33.776z
		 M27.308,27.204c-0.677,0-1.234,0.25-1.671,0.749s-0.656,1.138-0.656,1.917s0.219,1.418,0.656,1.918
		c0.438,0.498,0.995,0.748,1.671,0.748s1.236-0.252,1.676-0.754c0.441-0.502,0.662-1.14,0.662-1.912
		c0-0.779-0.219-1.418-0.656-1.917S27.991,27.204,27.308,27.204z"/>
	<path fill="#1B446B" d="M39.489,25.041c1.662,0,3.007,0.465,4.041,1.395c1.031,0.93,1.548,2.123,1.548,3.579
		c0,1.463-0.517,2.659-1.548,3.589c-1.033,0.93-2.379,1.395-4.041,1.395c-1.654,0-2.998-0.465-4.03-1.395s-1.548-2.126-1.548-3.589
		c0-1.456,0.518-2.649,1.554-3.579C36.5,25.505,37.842,25.041,39.489,25.041z M39.489,27.204c-0.8,0-1.458,0.261-1.974,0.785
		c-0.517,0.522-0.774,1.191-0.774,2.004c0,0.82,0.258,1.499,0.774,2.035c0.516,0.537,1.174,0.805,1.974,0.805
		c0.8,0,1.459-0.268,1.979-0.805c0.52-0.536,0.779-1.215,0.779-2.035c0-0.813-0.259-1.482-0.774-2.004
		C40.958,27.465,40.295,27.204,39.489,27.204z"/>
	<path fill="#1B446B" d="M48.944,27.512l0.82,5.045l1.097-3.907c0.116-0.41,0.263-0.68,0.44-0.81s0.441-0.195,0.79-0.195
		s0.612,0.062,0.79,0.185s0.328,0.396,0.451,0.82l1.138,3.907l0.779-5.045h-0.175c-0.369,0-0.648-0.096-0.84-0.287
		s-0.287-0.472-0.287-0.841c0-0.403,0.097-0.69,0.292-0.861c0.194-0.171,0.531-0.256,1.01-0.256h2.409
		c0.473,0,0.807,0.087,1.006,0.262c0.197,0.174,0.297,0.459,0.297,0.856c0,0.369-0.098,0.649-0.292,0.841
		c-0.195,0.191-0.474,0.287-0.836,0.287h-0.175l-1.281,6.47c-0.068,0.355-0.226,0.614-0.472,0.775
		c-0.246,0.16-0.604,0.24-1.077,0.24c-0.465,0-0.82-0.08-1.066-0.24c-0.246-0.161-0.424-0.42-0.533-0.775l-1.199-3.988l-1.066,3.988
		c-0.089,0.342-0.267,0.598-0.533,0.764c-0.267,0.168-0.629,0.252-1.087,0.252c-0.472,0-0.827-0.08-1.066-0.24
		c-0.239-0.161-0.394-0.42-0.462-0.775l-1.302-6.47h-0.175c-0.361,0-0.637-0.096-0.825-0.287c-0.188-0.191-0.282-0.472-0.282-0.841
		c0-0.396,0.096-0.682,0.287-0.856c0.191-0.175,0.523-0.262,0.995-0.262h2.431c0.471,0,0.803,0.087,0.994,0.262
		c0.191,0.174,0.287,0.459,0.287,0.856c0,0.369-0.094,0.649-0.282,0.841s-0.463,0.287-0.825,0.287H48.944z"/>
</g>
</svg>
