<?xml version="1.0" encoding="utf-8"?>
<!-- Generator: Adobe Illustrator 16.0.0, SVG Export Plug-In . SVG Version: 6.00 Build 0)  -->
<!DOCTYPE svg PUBLIC "-//W3C//DTD SVG 1.1//EN" "http://www.w3.org/Graphics/SVG/1.1/DTD/svg11.dtd">
<svg version="1.1" id="Layer_1" xmlns="http://www.w3.org/2000/svg" xmlns:xlink="http://www.w3.org/1999/xlink" x="0px" y="0px"
	 width="22.677px" height="22.678px" viewBox="0 -5.11 22.677 22.678" enable-background="new 0 -5.11 22.677 22.678"
	 xml:space="preserve">
<path fill="#FFFFFF" d="M11.294,2c-5.676,0-9.46,5.257-9.46,5.257s3.784,5.256,9.46,5.256c5.677,0,9.461-5.256,9.461-5.256
	S16.971,2,11.294,2z M11.294,8.517c-0.696,0-1.262-0.564-1.262-1.261c0-0.697,0.565-1.262,1.262-1.262
	c0.695,0,1.261,0.565,1.261,1.262C12.557,7.952,11.99,8.517,11.294,8.517z M4.337,7.251C5.3,6.268,6.933,4.892,9.002,4.25
	C8.097,4.941,7.51,6.029,7.51,7.257c0,1.223,0.582,2.307,1.482,2.999C6.937,9.608,5.303,8.231,4.337,7.251z M13.585,10.263
	c0.907-0.69,1.493-1.778,1.493-3.006c0-1.223-0.583-2.308-1.481-3c2.056,0.648,3.688,2.024,4.655,3.005
	C17.288,8.244,15.655,9.62,13.585,10.263z"/>
</svg>
