<?xml version="1.0" encoding="utf-8"?>
<!-- Generator: Adobe Illustrator 16.0.0, SVG Export Plug-In . SVG Version: 6.00 Build 0)  -->
<!DOCTYPE svg PUBLIC "-//W3C//DTD SVG 1.1//EN" "http://www.w3.org/Graphics/SVG/1.1/DTD/svg11.dtd">
<svg version="1.1" id="Layer_1" xmlns="http://www.w3.org/2000/svg" xmlns:xlink="http://www.w3.org/1999/xlink" x="0px" y="0px"
	 width="84.703px" height="45.132px" viewBox="0 0 84.703 45.132" enable-background="new 0 0 84.703 45.132" xml:space="preserve">
<path fill="#F7C55A" d="M84.703,37.402c0,4.268-3.461,7.729-7.732,7.729H7.729C3.463,45.133,0,41.67,0,37.402V7.732
	C0,3.461,3.463,0,7.729,0h69.242c4.271,0,7.732,3.461,7.732,7.732V37.402z"/>
<g>
	<path fill="#754E1F" d="M15.562,18.762l0.369,6.008l1.261-4.43c0.096-0.328,0.253-0.574,0.472-0.738
		c0.219-0.164,0.502-0.246,0.851-0.246c0.349,0,0.627,0.08,0.836,0.236c0.208,0.157,0.364,0.406,0.466,0.748l1.282,4.43l0.359-6.008
		h-0.277c-0.396,0-0.69-0.093-0.882-0.277c-0.192-0.184-0.287-0.469-0.287-0.852c0-0.41,0.096-0.702,0.287-0.876
		c0.191-0.175,0.523-0.262,0.995-0.262h2.471c0.465,0,0.795,0.089,0.989,0.267c0.195,0.178,0.292,0.469,0.292,0.871
		c0,0.369-0.094,0.65-0.282,0.842s-0.463,0.287-0.826,0.287h-0.174l-0.984,9.033c-0.034,0.355-0.103,0.588-0.205,0.697
		s-0.342,0.164-0.718,0.164h-0.482c-0.287,0-0.498-0.053-0.63-0.159c-0.134-0.104-0.265-0.381-0.395-0.825l-1.876-6.091
		l-1.805,6.091c-0.123,0.432-0.251,0.702-0.385,0.815c-0.133,0.112-0.347,0.169-0.641,0.169h-0.482
		c-0.369,0-0.604-0.053-0.703-0.159c-0.099-0.104-0.166-0.34-0.2-0.702l-1.015-9.033h-0.164c-0.362,0-0.639-0.096-0.831-0.287
		c-0.192-0.19-0.287-0.473-0.287-0.842c0-0.402,0.099-0.693,0.297-0.871c0.198-0.178,0.526-0.267,0.984-0.267h2.481
		c0.465,0,0.795,0.089,0.989,0.267c0.195,0.178,0.292,0.469,0.292,0.871c0,0.383-0.096,0.667-0.287,0.852
		c-0.191,0.186-0.489,0.277-0.892,0.277H15.562z"/>
	<path fill="#754E1F" d="M29.466,20.217c0.239-0.416,0.578-0.734,1.015-0.953s0.96-0.328,1.569-0.328
		c1.08,0,1.913,0.314,2.497,0.943c0.585,0.629,0.877,1.531,0.877,2.707v3.824h0.174c0.362,0,0.637,0.095,0.826,0.281
		c0.188,0.188,0.282,0.465,0.282,0.826c0,0.403-0.097,0.693-0.292,0.871c-0.194,0.178-0.524,0.268-0.989,0.268h-2.543
		c-0.458,0-0.784-0.09-0.979-0.268c-0.194-0.178-0.292-0.468-0.292-0.871c0-0.369,0.092-0.646,0.277-0.83
		c0.185-0.185,0.461-0.277,0.831-0.277h0.164v-2.983c0-0.875-0.107-1.48-0.323-1.819c-0.215-0.338-0.583-0.508-1.102-0.508
		c-0.547,0-1.015,0.221-1.405,0.661c-0.39,0.44-0.584,0.996-0.584,1.666v2.983h0.164c0.369,0,0.647,0.095,0.835,0.281
		c0.188,0.188,0.282,0.465,0.282,0.826c0,0.403-0.099,0.693-0.297,0.871c-0.198,0.178-0.526,0.268-0.984,0.268h-2.543
		c-0.472,0-0.803-0.088-0.995-0.262c-0.191-0.175-0.287-0.468-0.287-0.877c0-0.361,0.094-0.638,0.282-0.826
		c0.188-0.188,0.463-0.281,0.825-0.281h0.174v-8.9h-0.174c-0.362,0-0.641-0.097-0.836-0.292c-0.194-0.194-0.292-0.477-0.292-0.846
		c0-0.403,0.099-0.694,0.297-0.872c0.198-0.178,0.533-0.266,1.005-0.266h1.928c0.232,0,0.393,0.047,0.482,0.143
		c0.089,0.096,0.133,0.273,0.133,0.533v4.307H29.466z"/>
	<path fill="#754E1F" d="M45.154,26.41h2.205c0.472,0,0.807,0.086,1.004,0.257c0.199,0.171,0.299,0.454,0.299,0.851
		c0,0.404-0.102,0.694-0.303,0.873c-0.203,0.178-0.535,0.267-1,0.267h-6.932c-0.465,0-0.798-0.089-1-0.267
		c-0.202-0.179-0.303-0.469-0.303-0.873c0-0.396,0.098-0.68,0.292-0.851c0.195-0.171,0.532-0.257,1.01-0.257h2.205v-4.982h-1.159
		c-0.458,0-0.786-0.088-0.984-0.262c-0.198-0.175-0.297-0.463-0.297-0.867c0-0.402,0.096-0.689,0.287-0.861
		c0.191-0.17,0.523-0.256,0.995-0.256h3.087c0.19,0,0.338,0.039,0.439,0.118s0.152,0.188,0.152,0.323v6.787H45.154z M43.678,14.547
		c0.5,0,0.832,0.096,0.995,0.287c0.164,0.191,0.246,0.649,0.246,1.374c0,0.697-0.073,1.13-0.22,1.297
		c-0.148,0.168-0.494,0.251-1.041,0.251c-0.533,0-0.877-0.078-1.031-0.235s-0.231-0.472-0.231-0.943
		c0-0.875,0.079-1.433,0.236-1.671C42.79,14.666,43.139,14.547,43.678,14.547z"/>
	<path fill="#754E1F" d="M57.582,26.41h2.205c0.473,0,0.803,0.086,0.994,0.257s0.287,0.454,0.287,0.851
		c0,0.404-0.098,0.694-0.293,0.873c-0.193,0.178-0.523,0.267-0.988,0.267h-6.952c-0.458,0-0.784-0.089-0.979-0.267
		c-0.193-0.179-0.291-0.469-0.291-0.873c0-0.401,0.094-0.688,0.281-0.854c0.188-0.168,0.518-0.252,0.989-0.252h2.204v-8.9h-1.127
		c-0.465,0-0.799-0.09-1-0.271c-0.202-0.181-0.303-0.47-0.303-0.866c0-0.403,0.1-0.694,0.297-0.872
		c0.199-0.178,0.533-0.266,1.006-0.266h3.064c0.191,0,0.34,0.039,0.446,0.117c0.104,0.079,0.158,0.187,0.158,0.323L57.582,26.41
		L57.582,26.41z"/>
	<path fill="#754E1F" d="M66.135,24.523c0.178,0.76,0.521,1.326,1.029,1.703c0.51,0.375,1.188,0.562,2.036,0.562
		c0.848,0,1.685-0.206,2.513-0.62c0.826-0.414,1.326-0.621,1.496-0.621c0.254,0,0.46,0.095,0.621,0.282
		c0.16,0.188,0.24,0.429,0.24,0.724c0,0.644-0.475,1.195-1.426,1.66c-0.949,0.465-2.125,0.697-3.526,0.697
		c-1.654,0-2.999-0.465-4.034-1.396c-1.037-0.93-1.555-2.125-1.555-3.588c0-1.457,0.518-2.648,1.555-3.578
		c1.035-0.931,2.38-1.396,4.034-1.396c1.478,0,2.7,0.437,3.671,1.308s1.456,1.939,1.456,3.204c0,0.403-0.097,0.681-0.292,0.831
		s-0.598,0.225-1.205,0.225h-6.613V24.523z M71.661,22.924c-0.116-0.635-0.415-1.127-0.897-1.477
		c-0.482-0.348-1.109-0.522-1.881-0.522c-0.746,0-1.346,0.166-1.801,0.497c-0.454,0.332-0.77,0.832-0.947,1.502H71.661z"/>
</g>
</svg>
