<?xml version="1.0" encoding="utf-8"?>
<!-- Generator: Adobe Illustrator 16.0.0, SVG Export Plug-In . SVG Version: 6.00 Build 0)  -->
<!DOCTYPE svg PUBLIC "-//W3C//DTD SVG 1.1//EN" "http://www.w3.org/Graphics/SVG/1.1/DTD/svg11.dtd">
<svg version="1.1" id="Layer_1" xmlns="http://www.w3.org/2000/svg" xmlns:xlink="http://www.w3.org/1999/xlink" x="0px" y="0px"
	 width="37.5px" height="39.704px" viewBox="6.177 0 37.5 39.704" enable-background="new 6.177 0 37.5 39.704"
	 xml:space="preserve">
<g>
	<g>
		<g>
			<g>
				<path fill="#E0370A" d="M25.177,0C18.864,0,13.65,4.647,12.73,10.704h24.898C36.706,4.646,31.49,0,25.177,0z"/>
				<rect x="12.572" y="21.204" fill="#3DC3D8" width="25.216" height="8.606"/>
				<path fill="#44B708" d="M37.628,10.704H12.73c-0.094,0.623-0.159,1.255-0.159,1.904v8.596h25.216v-8.596
					C37.787,11.959,37.723,11.327,37.628,10.704z"/>
			</g>
			<path opacity="0.3" fill="#FFFFFF" enable-background="new    " d="M20.333,23.164c0,1.13-0.92,2.047-2.054,2.047l0,0
				c-1.13,0-2.05-0.917-2.05-2.047v-11.92c0-1.132,0.92-2.052,2.05-2.052l0,0c1.134,0,2.054,0.92,2.054,2.052V23.164z"/>
		</g>
		<rect x="6.177" y="29.809" fill="#CCCCCE" width="37.5" height="9.895"/>
	</g>
</g>
</svg>
