<?xml version="1.0" encoding="utf-8"?>
<!-- Generator: Adobe Illustrator 16.0.0, SVG Export Plug-In . SVG Version: 6.00 Build 0)  -->
<!DOCTYPE svg PUBLIC "-//W3C//DTD SVG 1.1//EN" "http://www.w3.org/Graphics/SVG/1.1/DTD/svg11.dtd">
<svg version="1.1" id="Layer_1" xmlns="http://www.w3.org/2000/svg" xmlns:xlink="http://www.w3.org/1999/xlink" x="0px" y="0px"
	 width="78.987px" height="57.987px" viewBox="0 0 78.987 57.987" enable-background="new 0 0 78.987 57.987" xml:space="preserve">
<g>
	<g>
		<path fill="#84A2CD" d="M78.987,51.312c0,3.688-2.988,6.676-6.676,6.676H6.676C2.989,57.987,0,54.999,0,51.312V6.676
			C0,2.989,2.989,0,6.676,0h65.635c3.688,0,6.676,2.989,6.676,6.676V51.312z"/>
		<rect y="5.005" fill="#1B446B" width="11.496" height="11.494"/>
		<rect y="39.894" fill="#1B446B" width="11.496" height="11.494"/>
		<rect x="67.491" y="23.247" fill="#1B446B" width="11.496" height="11.494"/>
	</g>
</g>
<g>
	<path fill="#1B446B" d="M27.543,25.963c0.287-0.308,0.619-0.542,0.995-0.702s0.779-0.241,1.21-0.241c0.93,0,1.6,0.275,2.01,0.825
		c0.41,0.551,0.615,1.472,0.615,2.764v3.886h0.144c0.321,0,0.562,0.094,0.723,0.281c0.16,0.189,0.241,0.464,0.241,0.826
		c0,0.41-0.084,0.703-0.251,0.877s-0.453,0.262-0.856,0.262H30.63c-0.185,0-0.328-0.039-0.431-0.119
		c-0.103-0.078-0.154-0.186-0.154-0.322v-5.793c0-0.458-0.072-0.8-0.215-1.025s-0.352-0.338-0.625-0.338
		c-0.342,0-0.607,0.152-0.795,0.457s-0.282,0.74-0.282,1.307v3.589h0.154c0.314,0,0.554,0.094,0.718,0.281
		c0.164,0.189,0.246,0.464,0.246,0.826c0,0.41-0.085,0.703-0.256,0.877s-0.458,0.262-0.861,0.262h-1.743
		c-0.185,0-0.332-0.039-0.441-0.119c-0.109-0.078-0.164-0.186-0.164-0.322v-5.793c0-0.458-0.068-0.8-0.205-1.025
		s-0.342-0.338-0.615-0.338c-0.342,0-0.61,0.154-0.805,0.461c-0.195,0.308-0.292,0.742-0.292,1.302v3.589h0.154
		c0.321,0,0.562,0.092,0.723,0.277c0.161,0.184,0.241,0.461,0.241,0.83c0,0.41-0.085,0.703-0.256,0.877s-0.458,0.262-0.861,0.262
		h-2.328c-0.396,0-0.68-0.09-0.851-0.268s-0.256-0.468-0.256-0.871c0-0.362,0.081-0.637,0.241-0.826
		c0.16-0.188,0.401-0.281,0.723-0.281h0.144v-4.983h-0.144c-0.321,0-0.566-0.097-0.733-0.292c-0.167-0.194-0.251-0.473-0.251-0.835
		c0-0.396,0.087-0.682,0.262-0.856c0.174-0.175,0.463-0.262,0.866-0.262h1.384c0.28,0,0.47,0.057,0.569,0.169
		c0.099,0.113,0.149,0.33,0.149,0.651c0.253-0.349,0.557-0.613,0.913-0.795c0.355-0.181,0.752-0.271,1.189-0.271
		c0.396,0,0.742,0.077,1.036,0.23C27.068,25.405,27.325,25.642,27.543,25.963z"/>
	<path fill="#1B446B" d="M40.924,32.495h2.205c0.472,0,0.807,0.086,1.005,0.256c0.198,0.172,0.298,0.455,0.298,0.852
		c0,0.403-0.102,0.693-0.303,0.871c-0.202,0.178-0.535,0.268-1,0.268h-6.932c-0.465,0-0.798-0.09-1-0.268
		c-0.202-0.178-0.303-0.468-0.303-0.871c0-0.396,0.098-0.68,0.292-0.852c0.195-0.17,0.532-0.256,1.01-0.256h2.205v-4.983h-1.159
		c-0.458,0-0.786-0.087-0.984-0.261c-0.198-0.175-0.297-0.463-0.297-0.867s0.096-0.69,0.287-0.861s0.523-0.256,0.995-0.256h3.086
		c0.191,0,0.338,0.04,0.441,0.118s0.153,0.186,0.153,0.323V32.495z M39.448,20.631c0.499,0,0.831,0.096,0.995,0.287
		s0.246,0.649,0.246,1.374c0,0.697-0.074,1.13-0.22,1.297c-0.147,0.168-0.494,0.251-1.041,0.251c-0.533,0-0.877-0.079-1.03-0.236
		c-0.154-0.157-0.231-0.472-0.231-0.943c0-0.875,0.079-1.432,0.236-1.671S38.908,20.631,39.448,20.631z"/>
	<path fill="#1B446B" d="M56.398,32.475h0.134c0.383,0,0.67,0.095,0.861,0.282s0.287,0.47,0.287,0.846
		c0,0.403-0.098,0.693-0.293,0.871c-0.194,0.178-0.524,0.268-0.989,0.268h-2.522c-0.458,0-0.788-0.09-0.989-0.268
		c-0.202-0.178-0.303-0.468-0.303-0.871c0-0.376,0.098-0.658,0.292-0.846c0.195-0.188,0.487-0.282,0.877-0.282h0.123v-2.963
		c0-0.82-0.115-1.403-0.344-1.748s-0.609-0.518-1.143-0.518c-0.568,0-1.031,0.207-1.39,0.621c-0.359,0.414-0.538,0.962-0.538,1.646
		v2.963h0.123c0.389,0,0.68,0.095,0.871,0.282s0.287,0.47,0.287,0.846c0,0.403-0.1,0.693-0.297,0.871
		c-0.199,0.178-0.527,0.268-0.984,0.268h-2.543c-0.459,0-0.787-0.09-0.984-0.268c-0.199-0.178-0.298-0.468-0.298-0.871
		c0-0.376,0.096-0.658,0.287-0.846s0.481-0.282,0.872-0.282h0.123v-4.963h-0.175c-0.369,0-0.649-0.094-0.841-0.282
		s-0.287-0.463-0.287-0.826c0-0.403,0.1-0.694,0.297-0.872c0.199-0.178,0.533-0.267,1.006-0.267h1.742
		c0.191,0,0.337,0.038,0.437,0.113c0.099,0.075,0.148,0.185,0.148,0.328v0.8c0.314-0.492,0.716-0.863,1.205-1.113
		c0.488-0.249,1.054-0.374,1.696-0.374c1.094,0,1.909,0.332,2.446,0.995c0.536,0.663,0.805,1.675,0.805,3.035V32.475z"/>
</g>
</svg>
