<?xml version="1.0" encoding="utf-8"?>
<!-- Generator: Adobe Illustrator 16.0.0, SVG Export Plug-In . SVG Version: 6.00 Build 0)  -->
<!DOCTYPE svg PUBLIC "-//W3C//DTD SVG 1.1//EN" "http://www.w3.org/Graphics/SVG/1.1/DTD/svg11.dtd">
<svg version="1.1" id="Layer_1" xmlns="http://www.w3.org/2000/svg" xmlns:xlink="http://www.w3.org/1999/xlink" x="0px" y="0px"
	 width="59.695px" height="59.696px" viewBox="0 0 59.695 59.696" enable-background="new 0 0 59.695 59.696" xml:space="preserve">
<g>
	<rect fill="#6D6E71" width="59.695" height="59.696"/>
	<g>
		<circle fill="#D1D3D4" cx="4.695" cy="4.288" r="2.767"/>
		<circle fill="#D1D3D4" cx="11.718" cy="4.288" r="2.767"/>
		<circle fill="#D1D3D4" cx="18.96" cy="4.288" r="2.767"/>
		<circle fill="#D1D3D4" cx="26.203" cy="4.288" r="2.767"/>
		<circle fill="#D1D3D4" cx="33.493" cy="4.288" r="2.768"/>
		<circle fill="#D1D3D4" cx="40.516" cy="4.288" r="2.767"/>
		<circle fill="#D1D3D4" cx="47.758" cy="4.288" r="2.767"/>
		<circle fill="#D1D3D4" cx="55.001" cy="4.288" r="2.768"/>
		<circle fill="#D1D3D4" cx="4.695" cy="11.708" r="2.767"/>
		<circle fill="#D1D3D4" cx="11.718" cy="11.708" r="2.767"/>
		<circle fill="#D1D3D4" cx="18.96" cy="11.708" r="2.767"/>
		<circle fill="#D1D3D4" cx="26.203" cy="11.708" r="2.767"/>
		<circle fill="#D1D3D4" cx="33.493" cy="11.708" r="2.768"/>
		<circle fill="#D1D3D4" cx="40.516" cy="11.708" r="2.767"/>
		<circle fill="#D1D3D4" cx="47.758" cy="11.708" r="2.767"/>
		<circle fill="#D1D3D4" cx="55.001" cy="11.708" r="2.768"/>
		<circle fill="#D1D3D4" cx="4.695" cy="18.786" r="2.767"/>
		<circle fill="#D1D3D4" cx="11.718" cy="18.786" r="2.767"/>
		<circle fill="#D1D3D4" cx="18.96" cy="18.786" r="2.767"/>
		<circle fill="#D1D3D4" cx="26.203" cy="18.786" r="2.767"/>
		<circle fill="#D1D3D4" cx="33.493" cy="18.786" r="2.768"/>
		<circle fill="#D1D3D4" cx="40.516" cy="18.786" r="2.767"/>
		<circle fill="#D1D3D4" cx="47.758" cy="18.786" r="2.767"/>
		<circle fill="#D1D3D4" cx="55.001" cy="18.786" r="2.768"/>
		<circle fill="#D1D3D4" cx="4.695" cy="26.206" r="2.767"/>
		<circle fill="#D1D3D4" cx="11.718" cy="26.206" r="2.767"/>
		<circle fill="#D1D3D4" cx="18.96" cy="26.206" r="2.767"/>
		<circle fill="#D1D3D4" cx="26.203" cy="26.206" r="2.767"/>
		<circle fill="#D1D3D4" cx="33.493" cy="26.206" r="2.768"/>
		<circle fill="#D1D3D4" cx="40.516" cy="26.206" r="2.767"/>
		<circle fill="#D1D3D4" cx="47.758" cy="26.206" r="2.767"/>
		<circle fill="#D1D3D4" cx="55.001" cy="26.206" r="2.768"/>
		<circle fill="#D1D3D4" cx="4.695" cy="33.491" r="2.767"/>
		<circle fill="#D1D3D4" cx="11.718" cy="33.491" r="2.767"/>
		<circle fill="#D1D3D4" cx="18.96" cy="33.491" r="2.767"/>
		<circle fill="#D1D3D4" cx="26.203" cy="33.491" r="2.767"/>
		<circle fill="#D1D3D4" cx="33.493" cy="33.491" r="2.768"/>
		<circle fill="#D1D3D4" cx="40.516" cy="33.491" r="2.767"/>
		<circle fill="#D1D3D4" cx="47.758" cy="33.491" r="2.767"/>
		<circle fill="#D1D3D4" cx="55.001" cy="33.491" r="2.768"/>
		<circle fill="#D1D3D4" cx="4.695" cy="40.911" r="2.767"/>
		<circle fill="#D1D3D4" cx="11.718" cy="40.911" r="2.767"/>
		<circle fill="#D1D3D4" cx="18.96" cy="40.911" r="2.767"/>
		<circle fill="#D1D3D4" cx="26.203" cy="40.911" r="2.767"/>
		<circle fill="#D1D3D4" cx="33.493" cy="40.911" r="2.768"/>
		<circle fill="#D1D3D4" cx="40.516" cy="40.911" r="2.767"/>
		<circle fill="#D1D3D4" cx="47.758" cy="40.911" r="2.767"/>
		<circle fill="#D1D3D4" cx="55.001" cy="40.911" r="2.768"/>
		<circle fill="#D1D3D4" cx="4.695" cy="47.989" r="2.767"/>
		<circle fill="#D1D3D4" cx="11.718" cy="47.989" r="2.767"/>
		<circle fill="#D1D3D4" cx="18.96" cy="47.989" r="2.767"/>
		<circle fill="#D1D3D4" cx="26.203" cy="47.989" r="2.767"/>
		<circle fill="#D1D3D4" cx="33.493" cy="47.989" r="2.768"/>
		<circle fill="#D1D3D4" cx="40.516" cy="47.989" r="2.767"/>
		<circle fill="#D1D3D4" cx="47.758" cy="47.989" r="2.767"/>
		<circle fill="#D1D3D4" cx="55.001" cy="47.989" r="2.768"/>
		<circle fill="#D1D3D4" cx="4.695" cy="55.409" r="2.767"/>
		<circle fill="#D1D3D4" cx="11.718" cy="55.409" r="2.767"/>
		<circle fill="#D1D3D4" cx="18.96" cy="55.409" r="2.767"/>
		<circle fill="#D1D3D4" cx="26.203" cy="55.409" r="2.767"/>
		<circle fill="#D1D3D4" cx="33.493" cy="55.409" r="2.768"/>
		<circle fill="#D1D3D4" cx="40.516" cy="55.409" r="2.767"/>
		<circle fill="#D1D3D4" cx="47.758" cy="55.409" r="2.767"/>
		<circle fill="#D1D3D4" cx="55.001" cy="55.409" r="2.768"/>
	</g>
</g>
</svg>
