<?xml version="1.0" encoding="utf-8"?>
<!-- Generator: Adobe Illustrator 16.0.0, SVG Export Plug-In . SVG Version: 6.00 Build 0)  -->
<!DOCTYPE svg PUBLIC "-//W3C//DTD SVG 1.1//EN" "http://www.w3.org/Graphics/SVG/1.1/DTD/svg11.dtd">
<svg version="1.1" id="Layer_1" xmlns="http://www.w3.org/2000/svg" xmlns:xlink="http://www.w3.org/1999/xlink" x="0px" y="0px"
	 width="22.678px" height="22.676px" viewBox="0 0 22.678 22.676" enable-background="new 0 0 22.678 22.676" xml:space="preserve">
<g id="folders">
	<path fill="#FFFFFF" d="M18.109,7.699H4.781c-0.938,0-1.7,0.763-1.7,1.701v7.443c0,0.937,0.762,1.701,1.7,1.701h13.328
		c0.938,0,1.7-0.765,1.7-1.701V9.4C19.81,8.461,19.047,7.699,18.109,7.699z M18.676,16.843c0,0.312-0.255,0.567-0.566,0.567H4.781
		c-0.312,0-0.566-0.255-0.566-0.567V9.401c0-0.313,0.255-0.567,0.566-0.567h13.328c0.312,0,0.565,0.254,0.565,0.567L18.676,16.843
		L18.676,16.843z"/>
	<path fill="#FFFFFF" d="M4.923,6.617h12.815v0.51h1.135V6.589c0-0.611-0.435-1.107-0.968-1.107H4.923
		c-0.57,0-1.032,0.498-1.032,1.107v0.537h1.134L4.923,6.617z"/>
	<path fill="#FFFFFF" d="M5.99,4.624c0.115-0.038,0.311-0.079,0.566-0.079h9.846c0.256,0,0.451,0.041,0.566,0.079v0.227h1.135V4.414
		c0-0.6-0.686-1.003-1.701-1.003H6.557c-1.016,0-1.7,0.403-1.7,1.003v0.437H5.99V4.624z"/>
</g>
</svg>
