<?xml version="1.0" encoding="utf-8"?>
<!-- Generator: Adobe Illustrator 16.0.0, SVG Export Plug-In . SVG Version: 6.00 Build 0)  -->
<!DOCTYPE svg PUBLIC "-//W3C//DTD SVG 1.1//EN" "http://www.w3.org/Graphics/SVG/1.1/DTD/svg11.dtd">
<svg version="1.1" id="Layer_1" xmlns="http://www.w3.org/2000/svg" xmlns:xlink="http://www.w3.org/1999/xlink" x="0px" y="0px"
	 width="57.986px" height="57.988px" viewBox="0 0 57.986 57.988" enable-background="new 0 0 57.986 57.988" xml:space="preserve">
<g>
	<g>
		<path fill="#46B7BE" d="M57.986,51.311c0,3.688-2.988,6.677-6.676,6.677H6.676C2.988,57.988,0,54.999,0,51.311V6.676
			C0,2.989,2.988,0,6.676,0h44.635c3.688,0,6.676,2.989,6.676,6.676V51.311z"/>
		<rect y="5.005" fill="#0C5657" width="11.496" height="11.494"/>
		<rect y="39.893" fill="#0C5657" width="11.496" height="11.494"/>
		<rect x="46.49" y="23.247" fill="#0C5657" width="11.496" height="11.494"/>
		<g>
			<path fill="#0C5657" d="M36.145,19.043L25.844,41.104c-0.316,0.691-0.609,1.172-0.879,1.441s-0.586,0.404-0.949,0.404
				c-0.539,0-1.018-0.17-1.434-0.51s-0.623-0.762-0.623-1.266c0-0.34,0.158-0.867,0.475-1.582l0.035-0.07l10.283-22.025
				c0.328-0.715,0.627-1.207,0.896-1.477s0.586-0.404,0.949-0.404c0.527,0,1.002,0.17,1.424,0.51s0.633,0.762,0.633,1.266
				c0,0.211-0.035,0.434-0.105,0.668S36.344,18.622,36.145,19.043z"/>
		</g>
	</g>
</g>
</svg>
