<?xml version="1.0" encoding="utf-8"?>
<!-- Generator: Adobe Illustrator 16.0.0, SVG Export Plug-In . SVG Version: 6.00 Build 0)  -->
<!DOCTYPE svg PUBLIC "-//W3C//DTD SVG 1.1//EN" "http://www.w3.org/Graphics/SVG/1.1/DTD/svg11.dtd">
<svg version="1.1" id="Layer_1" xmlns="http://www.w3.org/2000/svg" xmlns:xlink="http://www.w3.org/1999/xlink" x="0px" y="0px"
	 width="22.678px" height="22.678px" viewBox="0 0 22.678 22.678" enable-background="new 0 0 22.678 22.678" xml:space="preserve">
<path fill="#FFFFFF" d="M15.76,0H6.237C4.354,0,2.829,1.525,2.829,3.408v8.662c0,1.882,1.525,3.408,3.408,3.408h9.523
	c1.882,0,3.407-1.526,3.407-3.408V3.408C19.168,1.525,17.642,0,15.76,0z M12.773,4.124h2.555v0.948h-2.555V4.124z M14.645,9.196
	c0,0.075-0.018,0.147-0.05,0.22c-0.033,0.068-0.075,0.132-0.127,0.189c-0.051,0.056-0.112,0.1-0.182,0.134
	c-0.07,0.032-0.146,0.048-0.226,0.048c-0.084,0-0.162-0.014-0.235-0.045c-0.072-0.03-0.135-0.071-0.188-0.127
	c-0.055-0.052-0.098-0.116-0.13-0.189c-0.033-0.071-0.05-0.147-0.05-0.227c-0.002-0.17,0.059-0.311,0.18-0.425
	c0.119-0.117,0.257-0.174,0.416-0.174c0.08,0,0.154,0.015,0.227,0.046c0.069,0.03,0.133,0.072,0.186,0.125
	c0.054,0.054,0.097,0.118,0.13,0.19C14.628,9.032,14.645,9.112,14.645,9.196z M6.171,4.172H7.57V2.773h0.752v1.399H9.72v0.752H8.322
	v1.398H7.57V4.924H6.171V4.172z M9.72,11.947l-0.57,0.571l-1.202-1.209l-1.205,1.209l-0.572-0.571l1.208-1.201l-1.191-1.2
	l0.57-0.571l1.192,1.2l1.201-1.2l0.57,0.571l-1.208,1.2L9.72,11.947z M14.595,12.322c-0.033,0.071-0.075,0.136-0.127,0.191
	c-0.051,0.058-0.112,0.102-0.182,0.137c-0.07,0.037-0.146,0.055-0.226,0.055c-0.084,0-0.162-0.018-0.235-0.05
	c-0.072-0.034-0.135-0.075-0.188-0.131c-0.055-0.052-0.098-0.116-0.13-0.189c-0.034-0.072-0.051-0.146-0.051-0.221
	c-0.001-0.084,0.017-0.162,0.051-0.232c0.032-0.07,0.075-0.133,0.13-0.187c0.054-0.054,0.116-0.095,0.188-0.127
	c0.073-0.028,0.148-0.044,0.228-0.044c0.08,0,0.154,0.016,0.227,0.044c0.069,0.032,0.133,0.073,0.186,0.127
	c0.054,0.054,0.097,0.116,0.13,0.187c0.032,0.07,0.05,0.148,0.05,0.232C14.645,12.182,14.628,12.255,14.595,12.322z M15.825,11.032
	h-3.549V10.28h3.549V11.032z"/>
</svg>
