<?xml version="1.0" encoding="utf-8"?>
<!-- Generator: Adobe Illustrator 16.0.0, SVG Export Plug-In . SVG Version: 6.00 Build 0)  -->
<!DOCTYPE svg PUBLIC "-//W3C//DTD SVG 1.1//EN" "http://www.w3.org/Graphics/SVG/1.1/DTD/svg11.dtd">
<svg version="1.1" id="Layer_1" xmlns="http://www.w3.org/2000/svg" xmlns:xlink="http://www.w3.org/1999/xlink" x="0px" y="0px"
	 width="78.988px" height="57.987px" viewBox="0 0 78.988 57.987" enable-background="new 0 0 78.988 57.987" xml:space="preserve">
<g>
	<g>
		<path fill="#84A2CD" d="M78.988,51.312c0,3.688-2.988,6.676-6.676,6.676H6.676C2.99,57.987,0,54.999,0,51.312V6.676
			C0,2.989,2.99,0,6.676,0h65.637C76,0,78.988,2.989,78.988,6.676V51.312z"/>
		<rect y="23.247" fill="#1B446B" width="11.496" height="11.494"/>
		<rect x="67.492" y="23.247" fill="#1B446B" width="11.496" height="11.494"/>
	</g>
</g>
<g>
	<path fill="#1B446B" d="M30.933,25.82c0.082-0.267,0.21-0.467,0.384-0.6c0.175-0.134,0.398-0.2,0.672-0.2
		c0.369,0,0.632,0.111,0.79,0.333c0.157,0.223,0.236,0.607,0.236,1.154v1.682c0,0.417-0.085,0.725-0.256,0.923
		s-0.434,0.297-0.79,0.297c-0.253,0-0.465-0.058-0.636-0.174s-0.352-0.338-0.543-0.667c-0.273-0.465-0.632-0.808-1.077-1.03
		s-0.988-0.333-1.63-0.333c-0.8,0-1.455,0.261-1.963,0.785c-0.51,0.522-0.764,1.191-0.764,2.004c0,0.854,0.263,1.541,0.79,2.061
		s1.234,0.779,2.123,0.779c0.807,0,1.608-0.223,2.405-0.672c0.796-0.447,1.283-0.671,1.461-0.671c0.253,0,0.463,0.097,0.631,0.292
		c0.167,0.195,0.251,0.439,0.251,0.733c0,0.643-0.487,1.217-1.461,1.723c-0.975,0.506-2.131,0.759-3.471,0.759
		c-1.654,0-3-0.465-4.035-1.395c-1.036-0.93-1.554-2.126-1.554-3.589c0-1.429,0.513-2.618,1.538-3.568s2.317-1.425,3.876-1.425
		c0.526,0,1.039,0.065,1.538,0.195S30.441,25.546,30.933,25.82z"/>
	<path fill="#1B446B" d="M40.49,25.041c1.66,0,3.008,0.465,4.039,1.395c1.033,0.93,1.549,2.123,1.549,3.579
		c0,1.463-0.516,2.659-1.549,3.589c-1.031,0.93-2.379,1.395-4.039,1.395c-1.655,0-2.998-0.465-4.03-1.395s-1.548-2.126-1.548-3.589
		c0-1.456,0.518-2.649,1.554-3.579C37.5,25.505,38.842,25.041,40.49,25.041z M40.49,27.204c-0.8,0-1.458,0.261-1.974,0.785
		c-0.517,0.522-0.774,1.191-0.774,2.004c0,0.82,0.258,1.499,0.774,2.035c0.516,0.537,1.174,0.805,1.974,0.805
		c0.799,0,1.459-0.268,1.979-0.805c0.52-0.536,0.779-1.215,0.779-2.035c0-0.813-0.258-1.482-0.773-2.004
		C41.957,27.465,41.297,27.204,40.49,27.204z"/>
	<path fill="#1B446B" d="M50.385,34.597c-0.178,0.137-0.361,0.242-0.549,0.312c-0.188,0.072-0.381,0.108-0.579,0.108
		c-0.294,0-0.501-0.079-0.62-0.235c-0.12-0.158-0.18-0.451-0.18-0.883v-1.363c0-0.451,0.075-0.771,0.226-0.959
		c0.15-0.188,0.41-0.281,0.779-0.281c0.403,0,0.731,0.194,0.984,0.584c0.15,0.212,0.276,0.369,0.38,0.472
		c0.334,0.301,0.725,0.526,1.168,0.677c0.445,0.15,0.951,0.226,1.518,0.226c0.492,0,0.886-0.096,1.18-0.287s0.441-0.44,0.441-0.749
		c0-0.553-0.79-0.936-2.369-1.148c-0.349-0.041-0.622-0.078-0.82-0.112c-1.189-0.164-2.074-0.487-2.656-0.97
		c-0.58-0.481-0.871-1.129-0.871-1.942c0-0.964,0.349-1.709,1.046-2.235s1.692-0.79,2.983-0.79c0.445,0,0.9,0.036,1.369,0.107
		c0.469,0.072,0.949,0.183,1.441,0.333c0.143-0.171,0.295-0.297,0.456-0.379c0.16-0.082,0.34-0.123,0.538-0.123
		c0.28,0,0.494,0.087,0.641,0.262c0.146,0.174,0.221,0.436,0.221,0.784v1.261c0,0.294-0.075,0.521-0.226,0.682
		s-0.362,0.241-0.636,0.241c-0.28,0-0.761-0.244-1.44-0.733c-0.681-0.489-1.362-0.733-2.046-0.733c-0.533,0-0.947,0.087-1.24,0.262
		c-0.295,0.174-0.441,0.415-0.441,0.723c0,0.479,0.615,0.8,1.846,0.964c0.355,0.041,0.636,0.075,0.841,0.103
		c1.545,0.226,2.606,0.562,3.184,1.01c0.577,0.449,0.866,1.113,0.866,1.995c0,1.032-0.381,1.831-1.143,2.394
		c-0.763,0.564-1.844,0.847-3.246,0.847c-0.547,0-1.072-0.036-1.578-0.108C51.346,34.839,50.856,34.733,50.385,34.597z"/>
</g>
</svg>
