<?xml version="1.0" encoding="utf-8"?>
<!-- Generator: Adobe Illustrator 16.0.0, SVG Export Plug-In . SVG Version: 6.00 Build 0)  -->
<!DOCTYPE svg PUBLIC "-//W3C//DTD SVG 1.1//EN" "http://www.w3.org/Graphics/SVG/1.1/DTD/svg11.dtd">
<svg version="1.1" id="Layer_1" xmlns="http://www.w3.org/2000/svg" xmlns:xlink="http://www.w3.org/1999/xlink" x="0px" y="0px"
	 width="22.677px" height="22.677px" viewBox="0 -3.272 22.677 22.677" enable-background="new 0 -3.272 22.677 22.677"
	 xml:space="preserve">
<path fill="#FFFFFF" d="M16.697,0H5.536C5.241,0,5,0.241,5,0.536v15.061c0,0.294,0.241,0.535,0.536,0.535h11.16
	c0.296,0,0.536-0.241,0.536-0.535V0.536C17.233,0.241,16.992,0,16.697,0z M8.887,14.396H6.579v-1.423h2.308V14.396z M8.887,12.139
	H6.579v-1.425h2.308V12.139z M8.887,9.878H6.579V8.456h2.308V9.878z M8.887,7.62H6.579V6.196h2.308V7.62z M12.271,14.396H9.962
	v-1.423h2.309V14.396z M12.271,12.139H9.962v-1.425h2.309V12.139z M12.271,9.878H9.962V8.456h2.309V9.878z M12.271,7.62H9.962V6.196
	h2.309V7.62z M15.654,14.396h-2.308v-3.682h2.308V14.396z M15.654,9.878h-2.308V8.456h2.308V9.878z M15.654,7.62h-2.308V6.196h2.308
	V7.62z M15.654,4.158H6.579V1.734h9.074V4.158L15.654,4.158z"/>
</svg>
