<?xml version="1.0" encoding="utf-8"?>
<!-- Generator: Adobe Illustrator 16.0.0, SVG Export Plug-In . SVG Version: 6.00 Build 0)  -->
<!DOCTYPE svg PUBLIC "-//W3C//DTD SVG 1.1//EN" "http://www.w3.org/Graphics/SVG/1.1/DTD/svg11.dtd">
<svg version="1.1" id="Layer_1" xmlns="http://www.w3.org/2000/svg" xmlns:xlink="http://www.w3.org/1999/xlink" x="0px" y="0px"
	 width="57.986px" height="57.988px" viewBox="0 0 57.986 57.988" enable-background="new 0 0 57.986 57.988" xml:space="preserve">
<g>
	<g>
		<path fill="#46B7BE" d="M57.986,51.311c0,3.688-2.988,6.677-6.676,6.677H6.676C2.988,57.988,0,54.999,0,51.311V6.676
			C0,2.989,2.988,0,6.676,0h44.635c3.688,0,6.676,2.989,6.676,6.676V51.311z"/>
		<rect y="5.005" fill="#0C5657" width="11.496" height="11.494"/>
		<rect y="39.893" fill="#0C5657" width="11.496" height="11.494"/>
		<rect x="46.49" y="23.247" fill="#0C5657" width="11.496" height="11.494"/>
		<g>
			<path fill="#0C5657" d="M16.553,24.721c0-1.924,0.422-3.35,1.267-4.277s1.99-1.392,3.435-1.392c1.494,0,2.664,0.461,3.508,1.384
				s1.267,2.351,1.267,4.285c0,1.924-0.422,3.35-1.267,4.277s-1.99,1.392-3.435,1.392c-1.494,0-2.664-0.461-3.508-1.384
				S16.553,26.655,16.553,24.721z M19.761,24.692c0,1.396,0.161,2.334,0.483,2.812c0.244,0.352,0.581,0.527,1.011,0.527
				c0.439,0,0.781-0.176,1.025-0.527c0.312-0.479,0.469-1.416,0.469-2.812s-0.156-2.329-0.469-2.798
				c-0.244-0.361-0.586-0.542-1.025-0.542c-0.43,0-0.767,0.176-1.011,0.527C19.922,22.358,19.761,23.295,19.761,24.692z
				 M24.39,41.713h-3.047l11.441-22.661h2.959L24.39,41.713z M31.04,36.074c0-1.924,0.423-3.35,1.268-4.277s2-1.392,3.465-1.392
				c1.475,0,2.634,0.464,3.479,1.392s1.268,2.354,1.268,4.277c0,1.934-0.423,3.364-1.268,4.292s-1.99,1.392-3.436,1.392
				c-1.494,0-2.663-0.464-3.508-1.392S31.04,38.007,31.04,36.074z M34.249,36.059c0,1.396,0.16,2.329,0.482,2.798
				c0.244,0.361,0.582,0.542,1.012,0.542c0.439,0,0.775-0.176,1.01-0.527c0.322-0.479,0.484-1.416,0.484-2.812
				s-0.156-2.334-0.469-2.812c-0.244-0.352-0.586-0.527-1.025-0.527s-0.777,0.176-1.012,0.527
				C34.409,33.725,34.249,34.663,34.249,36.059z"/>
		</g>
	</g>
</g>
</svg>
