<?xml version="1.0" encoding="utf-8"?>
<!-- Generator: Adobe Illustrator 16.0.0, SVG Export Plug-In . SVG Version: 6.00 Build 0)  -->
<!DOCTYPE svg PUBLIC "-//W3C//DTD SVG 1.1//EN" "http://www.w3.org/Graphics/SVG/1.1/DTD/svg11.dtd">
<svg version="1.1" id="Layer_1" xmlns="http://www.w3.org/2000/svg" xmlns:xlink="http://www.w3.org/1999/xlink" x="0px" y="0px"
	 width="128.854px" height="78.132px" viewBox="0 0 128.854 78.132" enable-background="new 0 0 128.854 78.132"
	 xml:space="preserve">
<g>
	<path fill="#84A2CD" d="M128.705,70.401c0,4.269-3.461,7.729-7.731,7.729H7.729C3.463,78.132,0,74.669,0,70.401V7.732
		C0,3.46,3.463,0,7.729,0h113.243c4.271,0,7.73,3.46,7.73,7.732v62.669H128.705z"/>
	<path fill="#9EB6DD" d="M0,36.092v34.31c0,4.268,3.463,7.73,7.729,7.73h113.243c4.271,0,7.729-3.463,7.729-7.73v-34.31H0z"/>
	<g>
		<g>
			<path fill="#1B446B" d="M92.839,54.021c0,1.538-0.426,2.801-1.277,3.785c-0.853,0.984-1.945,1.479-3.274,1.479
				c-1.317,0-2.406-0.494-3.263-1.482c-0.856-0.985-1.285-2.245-1.285-3.778c0-1.549,0.425-2.812,1.271-3.793
				c0.848-0.979,1.938-1.472,3.273-1.472c1.328,0,2.422,0.494,3.273,1.482C92.416,51.229,92.839,52.488,92.839,54.021z
				 M88.287,58.087c0.942,0,1.687-0.359,2.228-1.082c0.543-0.721,0.812-1.715,0.812-2.984c0-1.268-0.27-2.264-0.812-2.984
				c-0.541-0.721-1.283-1.082-2.228-1.082c-0.949,0-1.69,0.357-2.228,1.074c-0.537,0.715-0.807,1.713-0.807,2.992
				c0,1.27,0.271,2.264,0.812,2.984C86.608,57.728,87.349,58.087,88.287,58.087z"/>
			<path fill="#1B446B" d="M96.539,55.916c0,0.707,0.147,1.226,0.444,1.549c0.297,0.326,0.771,0.488,1.414,0.488
				c0.613,0,1.138-0.193,1.568-0.58c0.438-0.389,0.652-0.873,0.652-1.457v-3.478h-1.152c-0.219,0-0.377-0.047-0.479-0.14
				c-0.098-0.094-0.146-0.237-0.146-0.434c0-0.216,0.054-0.371,0.16-0.475c0.104-0.104,0.274-0.148,0.515-0.148h1.793
				c0.213,0,0.362,0.045,0.451,0.139c0.086,0.093,0.129,0.318,0.129,0.679v5.774h0.389c0.273,0,0.473,0.045,0.594,0.135
				c0.119,0.091,0.182,0.238,0.182,0.445c0,0.203-0.059,0.354-0.174,0.455c-0.113,0.102-0.281,0.15-0.502,0.15h-1.277
				c-0.149,0-0.271-0.029-0.354-0.096c-0.084-0.061-0.127-0.145-0.127-0.252v-0.57c-0.537,0.415-1,0.697-1.386,0.854
				c-0.385,0.153-0.789,0.23-1.217,0.23c-0.928,0-1.619-0.246-2.084-0.734c-0.463-0.492-0.693-1.234-0.693-2.229v-3.788h-0.178
				c-0.381,0-0.645-0.045-0.783-0.138c-0.139-0.09-0.209-0.248-0.209-0.473c0-0.195,0.056-0.344,0.164-0.441
				c0.107-0.096,0.279-0.145,0.509-0.145h1.271c0.195,0,0.334,0.041,0.406,0.117c0.076,0.078,0.115,0.252,0.115,0.521v4.037h0.005
				V55.916z"/>
			<path fill="#1B446B" d="M110.974,51.714c0.273,0,0.478,0.047,0.604,0.143c0.125,0.096,0.188,0.248,0.188,0.455
				c0,0.197-0.062,0.344-0.179,0.441c-0.116,0.099-0.295,0.146-0.528,0.146h-3.41v2.812c0,0.922,0.119,1.527,0.356,1.82
				c0.238,0.291,0.646,0.438,1.226,0.438c0.514,0,1.123-0.146,1.836-0.445c0.713-0.298,1.152-0.445,1.322-0.445
				c0.155,0,0.289,0.057,0.397,0.168c0.108,0.112,0.164,0.25,0.164,0.414c0,0.184-0.068,0.346-0.205,0.481
				c-0.14,0.14-0.373,0.271-0.703,0.399c-0.552,0.219-1.045,0.379-1.485,0.479c-0.439,0.101-0.854,0.147-1.242,0.147
				c-0.654,0-1.207-0.104-1.652-0.312c-0.445-0.211-0.779-0.521-0.998-0.938c-0.109-0.195-0.189-0.43-0.24-0.699
				c-0.047-0.27-0.068-0.684-0.068-1.245V55.71V52.9h-1.434c-0.234,0-0.404-0.047-0.516-0.141c-0.105-0.094-0.158-0.241-0.158-0.449
				c0-0.229,0.07-0.389,0.219-0.473c0.146-0.084,0.457-0.127,0.938-0.127h0.951v-1.728v-0.444c0-0.242,0.051-0.42,0.154-0.535
				c0.104-0.113,0.266-0.172,0.48-0.172c0.248,0,0.419,0.069,0.516,0.211c0.098,0.141,0.146,0.459,0.146,0.959v1.709h3.322V51.714
				L110.974,51.714z"/>
		</g>
	</g>
	<rect y="48.703" fill="#1B446B" width="11.496" height="11.494"/>
	<rect x="117.358" y="48.703" fill="#1B446B" width="11.496" height="11.494"/>
	<g>
		<g>
			<path fill="#1B446B" d="M20.435,57.251h0.572c0.326,0,0.556,0.045,0.69,0.135c0.134,0.09,0.202,0.238,0.202,0.445
				c0,0.225-0.059,0.383-0.177,0.473c-0.118,0.09-0.34,0.135-0.665,0.135h-2.829c-0.19,0-0.337-0.053-0.438-0.156
				c-0.102-0.104-0.151-0.254-0.151-0.451c0-0.207,0.056-0.354,0.168-0.445c0.112-0.09,0.298-0.135,0.556-0.135h0.278h0.488v-7.662
				h-0.488c-0.421,0-0.693-0.039-0.817-0.114c-0.123-0.079-0.185-0.229-0.185-0.447c0-0.188,0.049-0.334,0.147-0.429
				c0.098-0.098,0.245-0.146,0.441-0.146h3.553c0.859,0,1.5,0.041,1.924,0.123c0.424,0.082,0.782,0.221,1.074,0.416
				c0.376,0.254,0.672,0.588,0.888,1.002c0.216,0.416,0.324,0.861,0.324,1.34c0,0.646-0.197,1.199-0.594,1.662
				c-0.396,0.463-0.947,0.785-1.654,0.965c0.146,0.084,0.276,0.185,0.392,0.293c0.115,0.113,0.226,0.248,0.333,0.404l1.692,2.594
				h0.277c0.314,0,0.53,0.043,0.648,0.131c0.118,0.086,0.177,0.236,0.177,0.449c0,0.197-0.049,0.351-0.147,0.451
				c-0.098,0.104-0.242,0.156-0.434,0.156h-0.95c-0.275,0-0.545-0.203-0.809-0.607c-0.033-0.033-0.059-0.061-0.075-0.084
				l-1.617-2.449c-0.331-0.5-0.604-0.819-0.82-0.969c-0.217-0.146-0.501-0.219-0.854-0.219h-1.12V57.251z M20.435,49.589v3.402
				h1.743c0.785,0,1.376-0.146,1.772-0.429c0.396-0.28,0.593-0.705,0.593-1.271c0-0.564-0.193-0.992-0.581-1.276
				c-0.387-0.286-0.965-0.433-1.734-0.433h-1.793V49.589z"/>
			<path fill="#1B446B" d="M34.597,57.369c-0.461,0.416-0.962,0.731-1.503,0.951c-0.542,0.219-1.099,0.328-1.672,0.328
				c-0.836,0-1.511-0.232-2.024-0.697c-0.514-0.468-0.771-1.072-0.771-1.82c0-0.887,0.341-1.571,1.022-2.062
				c0.683-0.487,1.641-0.731,2.876-0.731c0.325,0,0.653,0.021,0.984,0.062c0.331,0.041,0.671,0.107,1.02,0.197v-0.059
				c0-0.646-0.155-1.123-0.464-1.435s-0.788-0.463-1.439-0.463c-0.438,0-0.926,0.114-1.465,0.354
				c-0.539,0.235-0.896,0.354-1.069,0.354c-0.163,0-0.298-0.064-0.404-0.197s-0.16-0.303-0.16-0.51c0-0.331,0.311-0.609,0.931-0.844
				c0.62-0.229,1.413-0.346,2.379-0.346c0.987,0,1.734,0.252,2.239,0.754c0.505,0.502,0.758,1.244,0.758,2.229v3.812h0.412
				c0.398,0,0.665,0.041,0.8,0.125c0.135,0.086,0.202,0.236,0.202,0.455c0,0.203-0.056,0.354-0.168,0.455
				c-0.112,0.102-0.281,0.151-0.505,0.151h-1.322c-0.157,0-0.286-0.05-0.388-0.144c-0.101-0.097-0.168-0.233-0.201-0.414
				L34.597,57.369z M34.529,54.716c-0.31-0.1-0.608-0.176-0.897-0.223c-0.289-0.047-0.576-0.072-0.862-0.072
				c-0.864,0-1.547,0.146-2.046,0.438c-0.5,0.291-0.75,0.686-0.75,1.18c0,0.383,0.156,0.694,0.468,0.941s0.708,0.371,1.191,0.371
				c0.713,0,1.373-0.188,1.982-0.562c0.609-0.373,0.914-0.762,0.914-1.166V54.716z"/>
			<path fill="#1B446B" d="M39.875,57.251v-5.396h-0.159c-0.382,0-0.645-0.045-0.788-0.135c-0.143-0.09-0.214-0.248-0.214-0.473
				c0-0.207,0.059-0.357,0.177-0.449c0.117-0.094,0.309-0.141,0.572-0.141h0.396h0.809c0.151,0,0.27,0.029,0.354,0.094
				c0.084,0.062,0.126,0.146,0.126,0.252v0.572c0.41-0.384,0.815-0.662,1.217-0.849c0.401-0.185,0.818-0.271,1.25-0.271
				c0.848,0,1.515,0.264,2,0.791c0.485,0.525,0.729,1.258,0.729,2.188v3.812h0.396c0.28,0,0.482,0.047,0.606,0.141
				c0.123,0.093,0.185,0.238,0.185,0.439c0,0.221-0.065,0.375-0.197,0.469s-0.366,0.141-0.703,0.141h-1.86
				c-0.359,0-0.59-0.043-0.69-0.127c-0.102-0.084-0.152-0.244-0.152-0.479c0-0.219,0.06-0.369,0.177-0.455
				c0.118-0.084,0.34-0.125,0.666-0.125h0.294V53.75c0-0.658-0.148-1.158-0.446-1.504c-0.297-0.346-0.729-0.519-1.296-0.519
				c-0.573,0-1.078,0.192-1.516,0.581s-0.657,0.867-0.657,1.439v3.502h0.295c0.337,0,0.564,0.043,0.682,0.127
				c0.118,0.084,0.177,0.232,0.177,0.453c0,0.234-0.05,0.396-0.151,0.479c-0.101,0.084-0.348,0.127-0.74,0.127h-1.533h-0.454
				c-0.23,0-0.403-0.051-0.518-0.146c-0.115-0.1-0.173-0.25-0.173-0.459c0-0.226,0.065-0.377,0.197-0.457
				c0.132-0.082,0.389-0.123,0.771-0.123h0.171V57.251z"/>
			<path fill="#1B446B" d="M56.773,57.992c0,0.785-0.039,1.344-0.118,1.672c-0.078,0.328-0.213,0.614-0.404,0.862
				c-0.314,0.415-0.755,0.729-1.321,0.947c-0.567,0.216-1.235,0.323-2.004,0.323c-0.64,0-1.107-0.062-1.402-0.188
				c-0.294-0.121-0.441-0.318-0.441-0.59c0-0.176,0.071-0.326,0.215-0.459c0.143-0.131,0.312-0.195,0.509-0.195
				c0.151,0,0.385,0.02,0.699,0.061c0.314,0.043,0.553,0.062,0.716,0.062c0.83,0,1.42-0.189,1.768-0.572
				c0.349-0.381,0.522-1.035,0.522-1.961v-1.021c-0.343,0.397-0.722,0.688-1.137,0.876c-0.416,0.186-0.893,0.275-1.432,0.275
				c-1.05,0-1.918-0.35-2.605-1.049c-0.688-0.697-1.031-1.584-1.031-2.656c0-1.075,0.354-1.971,1.061-2.682
				c0.707-0.709,1.583-1.064,2.627-1.064c0.432,0,0.854,0.08,1.267,0.24c0.413,0.16,0.83,0.401,1.251,0.729V51
				c0-0.117,0.038-0.205,0.113-0.26c0.076-0.059,0.195-0.087,0.358-0.087h1.271c0.225,0,0.394,0.052,0.506,0.146
				c0.112,0.1,0.168,0.246,0.168,0.441c0,0.225-0.07,0.383-0.21,0.473c-0.141,0.093-0.404,0.138-0.792,0.138h-0.151v6.142H56.773
				L56.773,57.992z M53.119,51.904c-0.735,0-1.336,0.229-1.802,0.684c-0.466,0.453-0.698,1.043-0.698,1.77
				c0,0.713,0.232,1.301,0.698,1.758c0.466,0.455,1.066,0.686,1.802,0.686c0.729,0,1.329-0.229,1.798-0.686s0.703-1.045,0.703-1.758
				s-0.234-1.299-0.703-1.762C54.448,52.134,53.849,51.904,53.119,51.904z"/>
			<path fill="#1B446B" d="M60.856,54.919c0.044,0.809,0.318,1.433,0.82,1.873c0.502,0.438,1.188,0.66,2.059,0.66
				c0.657,0,1.372-0.178,2.147-0.525c0.774-0.352,1.243-0.526,1.405-0.526c0.169,0,0.309,0.054,0.421,0.16s0.169,0.239,0.169,0.396
				c0,0.164-0.059,0.312-0.177,0.446c-0.118,0.134-0.306,0.267-0.564,0.396c-0.562,0.275-1.141,0.486-1.738,0.635
				c-0.597,0.146-1.191,0.219-1.781,0.219c-1.279,0-2.304-0.367-3.072-1.104c-0.77-0.738-1.154-1.717-1.154-2.938
				c0-1.237,0.407-2.241,1.222-3.017c0.813-0.768,1.874-1.15,3.182-1.15c1.185,0,2.167,0.357,2.947,1.077
				c0.78,0.722,1.17,1.589,1.17,2.608c0,0.313-0.065,0.524-0.197,0.631c-0.132,0.107-0.49,0.16-1.073,0.16h-0.127H60.856
				L60.856,54.919z M60.898,53.815h5.48c-0.084-0.668-0.363-1.205-0.838-1.61c-0.474-0.408-1.057-0.611-1.747-0.611
				c-0.746,0-1.375,0.197-1.886,0.592C61.396,52.576,61.061,53.121,60.898,53.815z"/>
		</g>
	</g>
	<g>
		<g>
			<path fill="#1B446B" d="M26.079,19.067c0.178,0.109,0.352,0.308,0.523,0.595c0.027,0.041,0.051,0.075,0.072,0.103l1.671,2.646
				h0.113h0.205c0.396,0,0.695,0.092,0.897,0.277c0.201,0.185,0.302,0.461,0.302,0.831c0,0.403-0.101,0.694-0.302,0.872
				c-0.202,0.178-0.535,0.267-1,0.267h-1.261c-0.465,0-0.827-0.202-1.087-0.605l-0.031-0.021l-2.512-3.866
				c-0.096-0.15-0.205-0.265-0.328-0.344c-0.123-0.078-0.253-0.118-0.39-0.118h-0.964v2.707h0.164c0.369,0,0.647,0.094,0.835,0.282
				s0.282,0.463,0.282,0.826c0,0.403-0.098,0.694-0.292,0.872c-0.195,0.178-0.525,0.267-0.99,0.267H19.34
				c-0.458,0-0.786-0.089-0.984-0.267c-0.198-0.178-0.297-0.468-0.297-0.872c0-0.362,0.094-0.637,0.282-0.826
				c0.188-0.188,0.463-0.282,0.825-0.282h0.174v-7.649h-0.174c-0.355,0-0.629-0.097-0.82-0.292
				c-0.191-0.194-0.287-0.473-0.287-0.835c0-0.396,0.101-0.685,0.303-0.867c0.201-0.181,0.528-0.271,0.979-0.271h4.727
				c1.449,0,2.546,0.282,3.292,0.846c0.745,0.564,1.118,1.396,1.118,2.497c0,0.766-0.207,1.429-0.62,1.989
				C27.444,18.387,26.851,18.801,26.079,19.067z M21.864,14.699v2.902h1.384c0.854,0,1.453-0.111,1.794-0.333
				s0.513-0.593,0.513-1.113c0-0.513-0.156-0.883-0.466-1.113c-0.312-0.229-0.812-0.343-1.502-0.343H21.864z"/>
			<path fill="#1B446B" d="M40.301,22.41h0.164c0.369,0,0.651,0.097,0.846,0.292c0.195,0.194,0.292,0.473,0.292,0.835
				c0,0.396-0.101,0.682-0.302,0.856c-0.202,0.175-0.535,0.262-1,0.262h-0.964c-0.342,0-0.597-0.065-0.764-0.195
				c-0.168-0.13-0.306-0.366-0.416-0.708c-0.567,0.376-1.169,0.663-1.805,0.861c-0.636,0.198-1.278,0.297-1.928,0.297
				c-1.101,0-1.965-0.273-2.594-0.82s-0.943-1.295-0.943-2.246c0-1.025,0.407-1.822,1.22-2.389c0.813-0.567,1.955-0.851,3.425-0.851
				c0.328,0,0.677,0.017,1.046,0.051c0.369,0.034,0.783,0.089,1.241,0.164v-0.195c0-0.615-0.148-1.083-0.446-1.405
				c-0.297-0.321-0.736-0.479-1.317-0.479c-0.451,0-1.027,0.167-1.728,0.502c-0.701,0.335-1.215,0.502-1.543,0.502
				c-0.321,0-0.581-0.094-0.779-0.282c-0.198-0.188-0.297-0.436-0.297-0.743c0-0.554,0.405-0.993,1.215-1.317
				c0.811-0.325,1.913-0.487,3.307-0.487c1.456,0,2.499,0.28,3.127,0.841s0.943,1.511,0.943,2.851V22.41z M37.819,20.431
				c-0.342-0.075-0.656-0.131-0.943-0.169c-0.287-0.038-0.554-0.057-0.8-0.057c-0.752,0-1.342,0.126-1.769,0.379
				c-0.428,0.253-0.641,0.602-0.641,1.046c0,0.396,0.137,0.699,0.41,0.908s0.667,0.312,1.179,0.312c0.472,0,0.916-0.068,1.333-0.205
				s0.827-0.349,1.23-0.636L37.819,20.431L37.819,20.431z"/>
			<path fill="#1B446B" d="M53.026,22.39h0.133c0.383,0,0.67,0.094,0.861,0.282s0.287,0.47,0.287,0.846
				c0,0.403-0.097,0.694-0.292,0.872c-0.194,0.178-0.524,0.267-0.989,0.267h-2.522c-0.458,0-0.788-0.089-0.989-0.267
				c-0.202-0.178-0.303-0.468-0.303-0.872c0-0.376,0.098-0.658,0.292-0.846c0.195-0.188,0.487-0.282,0.877-0.282h0.123v-2.963
				c0-0.82-0.115-1.403-0.344-1.748c-0.229-0.345-0.61-0.518-1.143-0.518c-0.567,0-1.031,0.207-1.389,0.621
				c-0.359,0.414-0.539,0.962-0.539,1.646v2.963h0.123c0.39,0,0.68,0.094,0.872,0.282c0.191,0.188,0.287,0.47,0.287,0.846
				c0,0.403-0.099,0.694-0.297,0.872c-0.198,0.178-0.526,0.267-0.984,0.267h-2.543c-0.458,0-0.786-0.089-0.984-0.267
				c-0.198-0.178-0.297-0.468-0.297-0.872c0-0.376,0.096-0.658,0.287-0.846c0.191-0.188,0.482-0.282,0.872-0.282h0.123v-4.963
				h-0.174c-0.369,0-0.649-0.094-0.841-0.282c-0.192-0.188-0.287-0.463-0.287-0.826c0-0.403,0.099-0.694,0.297-0.872
				c0.198-0.178,0.533-0.267,1.005-0.267h1.743c0.191,0,0.336,0.038,0.436,0.113c0.099,0.075,0.148,0.185,0.148,0.328v0.8
				c0.314-0.492,0.716-0.863,1.205-1.113c0.488-0.249,1.054-0.374,1.697-0.374c1.094,0,1.909,0.332,2.446,0.995
				c0.536,0.663,0.805,1.675,0.805,3.035v3.425H53.026z"/>
			<path fill="#1B446B" d="M65.689,22.41h0.174c0.369,0,0.646,0.094,0.831,0.282c0.185,0.188,0.277,0.463,0.277,0.826
				c0,0.403-0.097,0.694-0.292,0.872c-0.194,0.178-0.524,0.267-0.989,0.267h-1.569c-0.198,0-0.351-0.039-0.457-0.118
				c-0.106-0.078-0.159-0.186-0.159-0.323v-0.718c-0.335,0.458-0.766,0.809-1.292,1.051c-0.526,0.242-1.118,0.364-1.774,0.364
				c-1.34,0-2.461-0.457-3.363-1.369c-0.902-0.913-1.354-2.053-1.354-3.42c0-1.422,0.456-2.601,1.369-3.538
				c0.912-0.937,2.073-1.405,3.481-1.405c0.485,0,0.958,0.081,1.42,0.241c0.461,0.161,0.883,0.388,1.266,0.682V13.51h-1.364
				c-0.472,0-0.807-0.09-1.005-0.271c-0.198-0.181-0.297-0.47-0.297-0.866c0-0.403,0.099-0.694,0.297-0.872
				c0.198-0.178,0.533-0.267,1.005-0.267h3.189c0.232,0,0.391,0.048,0.477,0.144c0.085,0.096,0.128,0.273,0.128,0.533L65.689,22.41
				L65.689,22.41z M60.88,17.365c-0.67,0-1.225,0.251-1.667,0.753c-0.44,0.503-0.661,1.14-0.661,1.913
				c0,0.793,0.219,1.441,0.656,1.943c0.438,0.503,0.995,0.754,1.671,0.754c0.676,0,1.236-0.253,1.676-0.759
				c0.441-0.506,0.662-1.152,0.662-1.938c0-0.766-0.222-1.401-0.667-1.907C62.105,17.618,61.55,17.365,60.88,17.365z"/>
			<path fill="#1B446B" d="M73.923,14.956c1.661,0,3.008,0.465,4.04,1.395s1.548,2.123,1.548,3.579c0,1.463-0.516,2.659-1.548,3.589
				s-2.379,1.395-4.04,1.395c-1.654,0-2.998-0.465-4.03-1.395c-1.032-0.93-1.548-2.126-1.548-3.589c0-1.456,0.518-2.649,1.554-3.579
				C70.934,15.42,72.276,14.956,73.923,14.956z M73.923,17.119c-0.8,0-1.458,0.261-1.974,0.785
				c-0.517,0.521-0.774,1.188-0.774,2.004c0,0.82,0.258,1.499,0.774,2.036c0.516,0.537,1.174,0.805,1.974,0.805
				c0.8,0,1.459-0.268,1.979-0.805c0.521-0.537,0.779-1.215,0.779-2.036c0-0.813-0.258-1.482-0.773-2.004
				C75.391,17.38,74.73,17.119,73.923,17.119z"/>
			<path fill="#1B446B" d="M87.183,15.878c0.287-0.308,0.619-0.542,0.994-0.702c0.377-0.16,0.779-0.241,1.211-0.241
				c0.93,0,1.6,0.275,2.01,0.825c0.41,0.551,0.615,1.472,0.615,2.764v3.886h0.143c0.322,0,0.562,0.094,0.724,0.282
				s0.242,0.463,0.242,0.826c0,0.41-0.084,0.703-0.252,0.876c-0.166,0.175-0.453,0.262-0.854,0.262h-1.744
				c-0.186,0-0.328-0.039-0.432-0.118c-0.104-0.078-0.154-0.186-0.154-0.323v-5.793c0-0.458-0.072-0.8-0.215-1.025
				s-0.352-0.338-0.625-0.338c-0.342,0-0.607,0.152-0.795,0.457s-0.281,0.74-0.281,1.307v3.589h0.152
				c0.314,0,0.555,0.094,0.719,0.282s0.246,0.463,0.246,0.826c0,0.41-0.084,0.703-0.256,0.876c-0.172,0.175-0.459,0.262-0.861,0.262
				h-1.742c-0.186,0-0.332-0.039-0.44-0.118c-0.108-0.078-0.164-0.186-0.164-0.323v-5.793c0-0.458-0.067-0.8-0.204-1.025
				c-0.138-0.225-0.343-0.338-0.615-0.338c-0.342,0-0.609,0.154-0.806,0.461c-0.194,0.308-0.293,0.742-0.293,1.302v3.589h0.154
				c0.321,0,0.562,0.092,0.723,0.277c0.162,0.185,0.242,0.461,0.242,0.831c0,0.41-0.086,0.703-0.256,0.876
				c-0.173,0.175-0.459,0.262-0.861,0.262h-2.327c-0.396,0-0.681-0.089-0.852-0.267c-0.172-0.178-0.256-0.468-0.256-0.872
				c0-0.362,0.08-0.637,0.24-0.826c0.16-0.188,0.401-0.282,0.725-0.282h0.145v-4.983h-0.145c-0.322,0-0.566-0.097-0.732-0.292
				c-0.168-0.194-0.252-0.473-0.252-0.835c0-0.396,0.088-0.682,0.262-0.854c0.174-0.175,0.463-0.262,0.867-0.262h1.383
				c0.281,0,0.471,0.057,0.568,0.169c0.1,0.113,0.148,0.33,0.148,0.651c0.254-0.349,0.559-0.613,0.914-0.795
				c0.354-0.181,0.752-0.271,1.188-0.271c0.396,0,0.742,0.077,1.035,0.23C86.707,15.32,86.962,15.557,87.183,15.878z"/>
		</g>
	</g>
</g>
</svg>
