<?xml version="1.0" encoding="utf-8"?>
<!-- Generator: Adobe Illustrator 16.0.0, SVG Export Plug-In . SVG Version: 6.00 Build 0)  -->
<!DOCTYPE svg PUBLIC "-//W3C//DTD SVG 1.1//EN" "http://www.w3.org/Graphics/SVG/1.1/DTD/svg11.dtd">
<svg version="1.1" id="Layer_1" xmlns="http://www.w3.org/2000/svg" xmlns:xlink="http://www.w3.org/1999/xlink" x="0px" y="0px"
	 width="58.703px" height="36.133px" viewBox="0 0 58.703 36.133" enable-background="new 0 0 58.703 36.133" xml:space="preserve">
<path fill="#F7C55A" d="M58.703,28.402c0,4.268-3.461,7.73-7.732,7.73H7.729C3.463,36.133,0,32.67,0,28.402V7.732
	C0,3.461,3.463,0,7.729,0h43.242c4.271,0,7.732,3.461,7.732,7.732V28.402z"/>
<g>
	<path fill="#754E1F" d="M18.171,15.479h2.205c0.472,0,0.807,0.088,1.005,0.262c0.198,0.175,0.297,0.46,0.297,0.856
		s-0.101,0.684-0.303,0.861s-0.535,0.267-1,0.267h-2.205v4.686h2.041c0.472,0,0.807,0.086,1.005,0.257s0.297,0.454,0.297,0.851
		c0,0.404-0.101,0.694-0.303,0.872s-0.535,0.267-1,0.267h-5.65c-0.472,0-0.807-0.089-1.005-0.267s-0.297-0.468-0.297-0.872
		c0-0.396,0.097-0.68,0.292-0.851c0.194-0.171,0.531-0.257,1.01-0.257h1.087v-4.686h-1.087c-0.472,0-0.807-0.089-1.005-0.267
		s-0.297-0.465-0.297-0.861c0-0.403,0.097-0.69,0.292-0.861c0.194-0.171,0.531-0.257,1.01-0.257h1.087v-0.584
		c0-1.34,0.345-2.292,1.036-2.855c0.69-0.564,1.866-0.846,3.527-0.846c0.861,0,1.495,0.102,1.902,0.307s0.61,0.523,0.61,0.954
		c0,0.287-0.091,0.517-0.271,0.687c-0.182,0.172-0.426,0.257-0.733,0.257c-0.226,0-0.545-0.03-0.959-0.093
		c-0.414-0.061-0.702-0.092-0.866-0.092c-0.636,0-1.082,0.143-1.338,0.426c-0.257,0.283-0.385,0.784-0.385,1.502V15.479z"/>
	<path fill="#754E1F" d="M30.117,14.956c1.661,0,3.008,0.465,4.04,1.395s1.548,2.122,1.548,3.579c0,1.463-0.516,2.658-1.548,3.588
		s-2.379,1.395-4.04,1.395c-1.654,0-2.998-0.465-4.03-1.395s-1.548-2.125-1.548-3.588c0-1.457,0.518-2.649,1.554-3.579
		C27.128,15.421,28.47,14.956,30.117,14.956z M30.117,17.119c-0.8,0-1.458,0.262-1.974,0.785c-0.517,0.522-0.774,1.191-0.774,2.004
		c0,0.82,0.258,1.5,0.774,2.036c0.516,0.536,1.174,0.805,1.974,0.805s1.459-0.269,1.979-0.805s0.779-1.216,0.779-2.036
		c0-0.812-0.258-1.481-0.773-2.004C31.585,17.381,30.924,17.119,30.117,17.119z"/>
	<path fill="#754E1F" d="M42.258,19.088v3.322h2.42c0.465,0,0.795,0.086,0.99,0.257c0.193,0.171,0.291,0.454,0.291,0.851
		c0,0.404-0.098,0.694-0.291,0.872c-0.195,0.178-0.525,0.267-0.99,0.267h-5.732c-0.471,0-0.807-0.089-1.004-0.267
		c-0.199-0.178-0.298-0.468-0.298-0.872c0-0.396,0.097-0.68,0.292-0.851s0.531-0.257,1.01-0.257h0.779v-4.982h-0.44
		c-0.465,0-0.794-0.088-0.989-0.262c-0.195-0.175-0.293-0.463-0.293-0.867c0-0.402,0.094-0.689,0.283-0.861
		c0.188-0.17,0.521-0.256,0.999-0.256h2.185c0.184,0,0.328,0.039,0.43,0.118c0.104,0.079,0.154,0.187,0.154,0.323v1.518
		c0.745-0.801,1.441-1.371,2.086-1.713c0.646-0.342,1.342-0.513,2.088-0.513c0.676,0,1.213,0.152,1.609,0.456
		c0.396,0.305,0.595,0.713,0.595,1.226c0,0.396-0.137,0.723-0.41,0.979c-0.273,0.256-0.626,0.385-1.056,0.385
		c-0.309,0-0.672-0.113-1.092-0.339c-0.422-0.226-0.713-0.339-0.877-0.339c-0.328,0-0.715,0.147-1.159,0.441
		S42.866,18.473,42.258,19.088z"/>
</g>
</svg>
